<svg width="303" height="97" viewBox="0 0 303 97" fill="none" xmlns="http://www.w3.org/2000/svg">
<rect width="303" height="97" rx="48.5" fill="#D99B94" fill-opacity="0.7"/>
<path d="M112.71 10.824C113.232 10.824 113.755 10.8773 114.278 10.984C114.811 11.0907 115.238 11.2347 115.558 11.416C115.643 11.4693 115.696 11.5227 115.718 11.576C115.75 11.6187 115.771 11.6933 115.782 11.8L115.958 13.48C115.958 13.512 115.931 13.5333 115.878 13.544C115.824 13.544 115.792 13.528 115.782 13.496C115.398 11.9387 114.166 11.16 112.086 11.16C111.254 11.16 110.518 11.3413 109.878 11.704C109.248 12.056 108.758 12.5573 108.406 13.208C108.054 13.8587 107.878 14.6107 107.878 15.464C107.878 16.4667 108.096 17.3947 108.534 18.248C108.971 19.0907 109.552 19.7627 110.278 20.264C111.003 20.7547 111.787 21 112.63 21C113.419 21 114.096 20.792 114.662 20.376C115.238 19.96 115.659 19.3253 115.926 18.472C115.926 18.44 115.947 18.424 115.99 18.424C116.022 18.424 116.048 18.4293 116.07 18.44C116.102 18.4507 116.118 18.4667 116.118 18.488L115.894 20.2C115.872 20.328 115.846 20.4133 115.814 20.456C115.792 20.488 115.734 20.5253 115.638 20.568C114.688 20.984 113.67 21.192 112.582 21.192C111.302 21.192 110.235 20.936 109.382 20.424C108.528 19.9013 107.899 19.24 107.494 18.44C107.088 17.6293 106.886 16.7813 106.886 15.896C106.886 14.9253 107.158 14.056 107.702 13.288C108.246 12.5093 108.966 11.9067 109.862 11.48C110.758 11.0427 111.707 10.824 112.71 10.824ZM120.485 21.208C119.877 21.208 119.338 21.0587 118.869 20.76C118.399 20.4507 118.037 20.04 117.781 19.528C117.525 19.0053 117.397 18.44 117.397 17.832C117.397 17.1387 117.562 16.552 117.893 16.072C118.234 15.5813 118.661 15.2187 119.173 14.984C119.695 14.7387 120.229 14.616 120.773 14.616C121.391 14.616 121.93 14.7707 122.389 15.08C122.858 15.3893 123.215 15.8 123.461 16.312C123.717 16.8133 123.845 17.3467 123.845 17.912C123.845 18.5733 123.69 19.1547 123.381 19.656C123.082 20.1573 122.677 20.5413 122.165 20.808C121.653 21.0747 121.093 21.208 120.485 21.208ZM120.933 20.92C121.551 20.92 122.037 20.712 122.389 20.296C122.741 19.88 122.917 19.224 122.917 18.328C122.917 17.688 122.805 17.112 122.581 16.6C122.357 16.0773 122.042 15.6667 121.637 15.368C121.231 15.0693 120.767 14.92 120.245 14.92C119.637 14.92 119.162 15.1333 118.821 15.56C118.479 15.976 118.309 16.5787 118.309 17.368C118.309 18.008 118.421 18.6 118.645 19.144C118.869 19.6773 119.178 20.1093 119.573 20.44C119.967 20.76 120.421 20.92 120.933 20.92ZM127.918 14.808C128.494 14.808 129.011 14.9467 129.47 15.224C129.939 15.5013 130.307 15.8853 130.574 16.376C130.84 16.8667 130.974 17.4213 130.974 18.04C130.974 18.6267 130.856 19.16 130.622 19.64C130.387 20.12 130.04 20.504 129.582 20.792C129.123 21.0693 128.574 21.208 127.934 21.208C127.251 21.208 126.702 21.0373 126.286 20.696C125.87 20.344 125.56 19.7893 125.358 19.032C125.155 18.2747 125.054 17.272 125.054 16.024C125.054 13.4107 125.411 11.656 126.126 10.76C126.84 9.85333 127.672 9.4 128.622 9.4C129.891 9.4 130.526 10.008 130.526 11.224C130.526 11.8107 130.376 12.3813 130.078 12.936C129.79 13.4907 129.4 13.9653 128.91 14.36C128.43 14.7547 127.918 15.0213 127.374 15.16L127.918 14.808ZM128.366 20.904C129.006 20.904 129.486 20.7067 129.806 20.312C130.126 19.9173 130.286 19.336 130.286 18.568C130.286 17.512 129.96 16.696 129.31 16.12C128.659 15.544 127.742 15.256 126.558 15.256C126.12 15.256 125.8 15.2667 125.598 15.288V14.952C125.8 14.984 126.115 15 126.542 15C127.171 15 127.736 14.8507 128.238 14.552C128.739 14.2427 129.128 13.8373 129.406 13.336C129.683 12.824 129.822 12.28 129.822 11.704C129.822 11.1067 129.688 10.616 129.422 10.232C129.166 9.83733 128.782 9.64 128.27 9.64C126.691 9.64 125.902 11.6347 125.902 15.624C125.902 16.968 125.992 18.0293 126.174 18.808C126.355 19.576 126.622 20.12 126.974 20.44C127.336 20.7493 127.8 20.904 128.366 20.904ZM135.266 21.192C134.583 21.192 134.007 21.0427 133.538 20.744C133.079 20.4347 132.738 20.04 132.514 19.56C132.29 19.08 132.178 18.5733 132.178 18.04C132.178 17.3573 132.343 16.7653 132.674 16.264C133.015 15.752 133.447 15.3627 133.97 15.096C134.503 14.8187 135.047 14.68 135.602 14.68C136.061 14.68 136.477 14.7707 136.85 14.952C137.234 15.1333 137.426 15.3467 137.426 15.592C137.426 15.72 137.383 15.832 137.298 15.928C137.213 16.0133 137.101 16.056 136.962 16.056C136.717 16.056 136.503 15.9067 136.322 15.608C136.183 15.4053 136.018 15.256 135.826 15.16C135.645 15.0533 135.399 15 135.09 15C134.45 15 133.954 15.2347 133.602 15.704C133.261 16.1627 133.09 16.7867 133.09 17.576C133.09 18.472 133.319 19.2187 133.778 19.816C134.237 20.4027 134.919 20.696 135.826 20.696C136.509 20.696 137.058 20.5093 137.474 20.136H137.506C137.538 20.136 137.565 20.152 137.586 20.184C137.618 20.216 137.618 20.2427 137.586 20.264C137.223 20.584 136.855 20.8187 136.482 20.968C136.109 21.1173 135.703 21.192 135.266 21.192ZM141.448 21.192C140.84 21.192 140.322 21.048 139.896 20.76C139.469 20.472 139.144 20.0987 138.92 19.64C138.706 19.1707 138.6 18.664 138.6 18.12C138.6 17.4907 138.749 16.9147 139.048 16.392C139.346 15.8587 139.746 15.4427 140.248 15.144C140.76 14.8347 141.314 14.68 141.912 14.68C142.509 14.68 142.957 14.8453 143.256 15.176C143.565 15.496 143.72 15.9387 143.72 16.504C143.72 16.6533 143.704 16.76 143.672 16.824C143.65 16.8773 143.602 16.904 143.528 16.904H142.776C142.786 16.8293 142.792 16.728 142.792 16.6C142.792 16.0667 142.664 15.6667 142.408 15.4C142.162 15.1333 141.826 15 141.4 15C140.802 15 140.338 15.224 140.008 15.672C139.677 16.12 139.512 16.744 139.512 17.544C139.512 18.472 139.73 19.2293 140.168 19.816C140.605 20.392 141.218 20.68 142.008 20.68C142.338 20.68 142.621 20.6373 142.856 20.552C143.09 20.456 143.346 20.3173 143.624 20.136H143.64C143.672 20.136 143.698 20.1573 143.72 20.2C143.752 20.232 143.757 20.264 143.736 20.296C143.032 20.8933 142.269 21.192 141.448 21.192ZM139.288 16.728L142.936 16.664V16.904L139.304 16.92L139.288 16.728ZM153.276 20.808C153.298 20.808 153.308 20.84 153.308 20.904C153.308 20.968 153.298 21 153.276 21C152.999 21 152.78 20.9947 152.62 20.984L151.852 20.968L151.116 20.984C150.988 20.9947 150.812 21 150.588 21C150.567 21 150.556 20.968 150.556 20.904C150.556 20.84 150.567 20.808 150.588 20.808C150.919 20.808 151.148 20.76 151.276 20.664C151.415 20.568 151.484 20.3813 151.484 20.104C151.484 20.0507 151.474 19.9173 151.452 19.704L150.908 15.896L151.452 15.176L148.972 21C148.962 21.0427 148.919 21.064 148.844 21.064C148.791 21.064 148.748 21.0427 148.716 21L146.268 16.104L146.46 15.928L146.06 19.336C146.039 19.528 146.028 19.656 146.028 19.72C146.028 20.104 146.114 20.3813 146.284 20.552C146.455 20.7227 146.716 20.808 147.068 20.808C147.1 20.808 147.116 20.84 147.116 20.904C147.116 20.968 147.1 21 147.068 21C146.844 21 146.674 20.9947 146.556 20.984L145.9 20.968L145.228 20.984C145.1 20.9947 144.919 21 144.684 21C144.652 21 144.636 20.968 144.636 20.904C144.636 20.84 144.652 20.808 144.684 20.808C145.058 20.808 145.314 20.7013 145.452 20.488C145.602 20.2747 145.698 19.8907 145.74 19.336L146.156 14.728C146.156 14.6747 146.21 14.648 146.316 14.648C146.391 14.648 146.434 14.6587 146.444 14.68L149.164 20.104L148.94 20.248L151.308 14.712C151.33 14.6587 151.378 14.632 151.452 14.632C151.495 14.632 151.532 14.6427 151.564 14.664C151.607 14.6853 151.634 14.712 151.644 14.744L152.204 19.704C152.247 20.056 152.29 20.3013 152.332 20.44C152.386 20.5787 152.476 20.6747 152.604 20.728C152.743 20.7813 152.967 20.808 153.276 20.808ZM160.891 21.192C160.208 21.192 159.632 21.0427 159.163 20.744C158.704 20.4347 158.363 20.04 158.139 19.56C157.915 19.08 157.803 18.5733 157.803 18.04C157.803 17.3573 157.968 16.7653 158.299 16.264C158.64 15.752 159.072 15.3627 159.595 15.096C160.128 14.8187 160.672 14.68 161.227 14.68C161.686 14.68 162.102 14.7707 162.475 14.952C162.859 15.1333 163.051 15.3467 163.051 15.592C163.051 15.72 163.008 15.832 162.923 15.928C162.838 16.0133 162.726 16.056 162.587 16.056C162.342 16.056 162.128 15.9067 161.947 15.608C161.808 15.4053 161.643 15.256 161.451 15.16C161.27 15.0533 161.024 15 160.715 15C160.075 15 159.579 15.2347 159.227 15.704C158.886 16.1627 158.715 16.7867 158.715 17.576C158.715 18.472 158.944 19.2187 159.403 19.816C159.862 20.4027 160.544 20.696 161.451 20.696C162.134 20.696 162.683 20.5093 163.099 20.136H163.131C163.163 20.136 163.19 20.152 163.211 20.184C163.243 20.216 163.243 20.2427 163.211 20.264C162.848 20.584 162.48 20.8187 162.107 20.968C161.734 21.1173 161.328 21.192 160.891 21.192ZM164.143 21C164.111 21 164.095 20.968 164.095 20.904C164.095 20.84 164.111 20.808 164.143 20.808C164.463 20.808 164.692 20.7813 164.831 20.728C164.98 20.6747 165.076 20.5733 165.119 20.424C165.172 20.264 165.199 20.024 165.199 19.704V11.4C165.199 11.0053 165.161 10.7227 165.087 10.552C165.012 10.3813 164.879 10.296 164.687 10.296C164.516 10.296 164.26 10.376 163.919 10.536H163.887C163.844 10.536 163.812 10.5093 163.791 10.456C163.78 10.4027 163.796 10.3707 163.839 10.36L165.759 9.416L165.839 9.4C165.86 9.4 165.881 9.41067 165.903 9.432C165.935 9.45333 165.951 9.48 165.951 9.512V19.704C165.951 20.024 165.977 20.264 166.031 20.424C166.084 20.5733 166.18 20.6747 166.319 20.728C166.468 20.7813 166.697 20.808 167.007 20.808C167.028 20.808 167.039 20.84 167.039 20.904C167.039 20.968 167.028 21 167.007 21C166.74 21 166.532 20.9947 166.383 20.984L165.599 20.968L164.767 20.984C164.617 20.9947 164.409 21 164.143 21ZM169.199 21C169.135 21 169.076 20.952 169.023 20.856C168.969 20.76 168.884 20.6107 168.767 20.408C168.649 20.1947 168.441 19.88 168.143 19.464C167.791 18.9733 167.535 18.6373 167.375 18.456C167.215 18.264 167.055 18.1307 166.895 18.056C166.735 17.9813 166.521 17.944 166.255 17.944C166.159 17.944 165.929 17.9547 165.567 17.976L165.535 17.688L166.015 17.656C166.548 17.6347 166.879 17.624 167.007 17.624C167.263 17.624 167.465 17.656 167.615 17.72C167.764 17.784 167.908 17.8907 168.047 18.04C168.185 18.1893 168.399 18.456 168.687 18.84L168.927 19.144C168.991 19.2293 169.049 19.3147 169.103 19.4C169.156 19.4747 169.209 19.544 169.263 19.608C169.572 20.0453 169.828 20.3547 170.031 20.536C170.244 20.7067 170.537 20.7973 170.911 20.808C170.943 20.808 170.959 20.84 170.959 20.904C170.959 20.968 170.943 21 170.911 21H169.199ZM167.007 17.624C167.167 17.624 167.311 17.56 167.439 17.432C167.567 17.304 167.695 17.1227 167.823 16.888L168.111 16.312C168.324 15.896 168.495 15.5867 168.623 15.384C168.751 15.1707 168.895 15 169.055 14.872C169.225 14.744 169.428 14.68 169.663 14.68C169.876 14.68 170.041 14.7333 170.159 14.84C170.276 14.936 170.335 15.0533 170.335 15.192C170.335 15.3413 170.281 15.4693 170.175 15.576C170.068 15.6827 169.929 15.736 169.759 15.736C169.641 15.736 169.524 15.704 169.407 15.64C169.289 15.5653 169.204 15.528 169.151 15.528C169.033 15.528 168.868 15.6773 168.655 15.976C168.452 16.264 168.249 16.5893 168.047 16.952C167.897 17.24 167.737 17.4693 167.567 17.64C167.396 17.8 167.209 17.88 167.007 17.88V17.624ZM174.422 21.208C173.814 21.208 173.276 21.0587 172.806 20.76C172.337 20.4507 171.974 20.04 171.718 19.528C171.462 19.0053 171.334 18.44 171.334 17.832C171.334 17.1387 171.5 16.552 171.83 16.072C172.172 15.5813 172.598 15.2187 173.11 14.984C173.633 14.7387 174.166 14.616 174.71 14.616C175.329 14.616 175.868 14.7707 176.326 15.08C176.796 15.3893 177.153 15.8 177.398 16.312C177.654 16.8133 177.782 17.3467 177.782 17.912C177.782 18.5733 177.628 19.1547 177.318 19.656C177.02 20.1573 176.614 20.5413 176.102 20.808C175.59 21.0747 175.03 21.208 174.422 21.208ZM174.87 20.92C175.489 20.92 175.974 20.712 176.326 20.296C176.678 19.88 176.854 19.224 176.854 18.328C176.854 17.688 176.742 17.112 176.518 16.6C176.294 16.0773 175.98 15.6667 175.574 15.368C175.169 15.0693 174.705 14.92 174.182 14.92C173.574 14.92 173.1 15.1333 172.758 15.56C172.417 15.976 172.246 16.5787 172.246 17.368C172.246 18.008 172.358 18.6 172.582 19.144C172.806 19.6773 173.116 20.1093 173.51 20.44C173.905 20.76 174.358 20.92 174.87 20.92ZM178.895 25.4C178.863 25.4 178.847 25.368 178.847 25.304C178.847 25.24 178.863 25.208 178.895 25.208C179.194 25.208 179.413 25.176 179.551 25.112C179.701 25.0587 179.802 24.9573 179.855 24.808C179.909 24.6587 179.935 24.424 179.935 24.104V16.552C179.935 16.1573 179.893 15.8747 179.807 15.704C179.722 15.5333 179.567 15.448 179.343 15.448C179.087 15.448 178.794 15.528 178.463 15.688H178.431C178.389 15.688 178.362 15.6667 178.351 15.624C178.33 15.5707 178.341 15.5333 178.383 15.512L180.031 14.728L180.159 14.696C180.319 14.696 180.447 14.8187 180.543 15.064C180.639 15.3093 180.687 15.6613 180.687 16.12V24.104C180.687 24.424 180.73 24.6587 180.815 24.808C180.901 24.9573 181.055 25.0587 181.279 25.112C181.503 25.176 181.855 25.208 182.335 25.208C182.357 25.208 182.367 25.24 182.367 25.304C182.367 25.368 182.357 25.4 182.335 25.4C181.973 25.4 181.69 25.3947 181.487 25.384L180.335 25.368L179.471 25.384C179.333 25.3947 179.141 25.4 178.895 25.4ZM182.463 21.208C182.047 21.208 181.679 21.1493 181.359 21.032C181.05 20.9253 180.714 20.728 180.351 20.44L180.495 19.592C180.837 20.0187 181.194 20.344 181.567 20.568C181.951 20.7813 182.426 20.888 182.991 20.888C183.365 20.888 183.706 20.776 184.015 20.552C184.325 20.3173 184.565 19.9867 184.735 19.56C184.917 19.1333 185.007 18.632 185.007 18.056C185.007 17.1387 184.805 16.424 184.399 15.912C184.005 15.4 183.498 15.144 182.879 15.144C182.431 15.144 182.026 15.2667 181.663 15.512C181.301 15.7467 180.911 16.0933 180.495 16.552L180.367 16.44C180.911 15.8107 181.434 15.352 181.935 15.064C182.437 14.7653 182.943 14.616 183.455 14.616C183.893 14.616 184.298 14.7333 184.671 14.968C185.045 15.2027 185.338 15.544 185.551 15.992C185.775 16.4293 185.887 16.952 185.887 17.56C185.887 18.3493 185.706 19.0213 185.343 19.576C184.981 20.12 184.533 20.5307 183.999 20.808C183.466 21.0747 182.954 21.208 182.463 21.208ZM190.203 21.208C189.595 21.208 189.057 21.0587 188.587 20.76C188.118 20.4507 187.755 20.04 187.499 19.528C187.243 19.0053 187.115 18.44 187.115 17.832C187.115 17.1387 187.281 16.552 187.611 16.072C187.953 15.5813 188.379 15.2187 188.891 14.984C189.414 14.7387 189.947 14.616 190.491 14.616C191.11 14.616 191.649 14.7707 192.107 15.08C192.577 15.3893 192.934 15.8 193.179 16.312C193.435 16.8133 193.563 17.3467 193.563 17.912C193.563 18.5733 193.409 19.1547 193.099 19.656C192.801 20.1573 192.395 20.5413 191.883 20.808C191.371 21.0747 190.811 21.208 190.203 21.208ZM190.651 20.92C191.27 20.92 191.755 20.712 192.107 20.296C192.459 19.88 192.635 19.224 192.635 18.328C192.635 17.688 192.523 17.112 192.299 16.6C192.075 16.0773 191.761 15.6667 191.355 15.368C190.95 15.0693 190.486 14.92 189.963 14.92C189.355 14.92 188.881 15.1333 188.539 15.56C188.198 15.976 188.027 16.5787 188.027 17.368C188.027 18.008 188.139 18.6 188.363 19.144C188.587 19.6773 188.897 20.1093 189.291 20.44C189.686 20.76 190.139 20.92 190.651 20.92ZM80.0731 39.808C80.0944 39.808 80.1051 39.84 80.1051 39.904C80.1051 39.968 80.0944 40 80.0731 40C79.7957 40 79.5771 39.9947 79.4171 39.984L78.6491 39.968L77.9131 39.984C77.7851 39.9947 77.6091 40 77.3851 40C77.3637 40 77.3531 39.968 77.3531 39.904C77.3531 39.84 77.3637 39.808 77.3851 39.808C77.7157 39.808 77.9451 39.76 78.0731 39.664C78.2117 39.568 78.2811 39.3813 78.2811 39.104C78.2811 39.0507 78.2704 38.9173 78.2491 38.704L77.7051 34.896L78.2491 34.176L75.7691 40C75.7584 40.0427 75.7157 40.064 75.6411 40.064C75.5877 40.064 75.5451 40.0427 75.5131 40L73.0651 35.104L73.2571 34.928L72.8571 38.336C72.8357 38.528 72.8251 38.656 72.8251 38.72C72.8251 39.104 72.9104 39.3813 73.0811 39.552C73.2517 39.7227 73.5131 39.808 73.8651 39.808C73.8971 39.808 73.9131 39.84 73.9131 39.904C73.9131 39.968 73.8971 40 73.8651 40C73.6411 40 73.4704 39.9947 73.3531 39.984L72.6971 39.968L72.0251 39.984C71.8971 39.9947 71.7157 40 71.4811 40C71.4491 40 71.4331 39.968 71.4331 39.904C71.4331 39.84 71.4491 39.808 71.4811 39.808C71.8544 39.808 72.1104 39.7013 72.2491 39.488C72.3984 39.2747 72.4944 38.8907 72.5371 38.336L72.9531 33.728C72.9531 33.6747 73.0064 33.648 73.1131 33.648C73.1877 33.648 73.2304 33.6587 73.2411 33.68L75.9611 39.104L75.7371 39.248L78.1051 33.712C78.1264 33.6587 78.1744 33.632 78.2491 33.632C78.2917 33.632 78.3291 33.6427 78.3611 33.664C78.4037 33.6853 78.4304 33.712 78.4411 33.744L79.0011 38.704C79.0437 39.056 79.0864 39.3013 79.1291 39.44C79.1824 39.5787 79.2731 39.6747 79.4011 39.728C79.5397 39.7813 79.7637 39.808 80.0731 39.808ZM85.0738 40C85.0418 40 85.0258 39.968 85.0258 39.904C85.0258 39.84 85.0418 39.808 85.0738 39.808C85.3831 39.808 85.6071 39.7813 85.7458 39.728C85.8951 39.6747 85.9965 39.5733 86.0498 39.424C86.1031 39.264 86.1298 39.024 86.1298 38.704V35.68C86.1298 35.2427 86.0925 34.9333 86.0178 34.752C85.9538 34.56 85.8365 34.464 85.6658 34.464C85.5485 34.464 85.3565 34.5173 85.0898 34.624H85.0578C85.0151 34.624 84.9831 34.5973 84.9618 34.544C84.9511 34.4907 84.9671 34.4587 85.0098 34.448L86.6898 33.696L86.7538 33.68C86.7751 33.68 86.8018 33.6907 86.8338 33.712C86.8658 33.7333 86.8818 33.76 86.8818 33.792V38.704C86.8818 39.024 86.9031 39.264 86.9458 39.424C86.9991 39.5733 87.0951 39.6747 87.2338 39.728C87.3831 39.7813 87.6178 39.808 87.9378 39.808C87.9591 39.808 87.9698 39.84 87.9698 39.904C87.9698 39.968 87.9591 40 87.9378 40C87.6711 40 87.4631 39.9947 87.3138 39.984L86.5298 39.968L85.6818 39.984C85.5325 39.9947 85.3298 40 85.0738 40ZM80.7698 40C80.7378 40 80.7218 39.968 80.7218 39.904C80.7218 39.84 80.7378 39.808 80.7698 39.808C81.0898 39.808 81.3191 39.7813 81.4578 39.728C81.6071 39.6747 81.7031 39.5733 81.7458 39.424C81.7991 39.264 81.8258 39.024 81.8258 38.704V35.68C81.8258 35.2427 81.7885 34.9333 81.7138 34.752C81.6498 34.56 81.5325 34.464 81.3618 34.464C81.2445 34.464 81.0525 34.5173 80.7858 34.624H80.7538C80.7111 34.624 80.6791 34.5973 80.6578 34.544C80.6471 34.4907 80.6631 34.4587 80.7058 34.448L82.3858 33.696L82.4498 33.68C82.4711 33.68 82.4978 33.6907 82.5298 33.712C82.5618 33.7333 82.5778 33.76 82.5778 33.792V38.704C82.5778 39.024 82.5991 39.264 82.6418 39.424C82.6951 39.5733 82.7911 39.6747 82.9298 39.728C83.0791 39.7813 83.3138 39.808 83.6338 39.808C83.6551 39.808 83.6658 39.84 83.6658 39.904C83.6658 39.968 83.6551 40 83.6338 40C83.3671 40 83.1591 39.9947 83.0098 39.984L82.2258 39.968L81.3938 39.984C81.2445 39.9947 81.0365 40 80.7698 40ZM82.1778 36.768H86.4818V37.056H82.1778V36.768ZM91.7759 40.192C91.1679 40.192 90.6506 40.048 90.2239 39.76C89.7973 39.472 89.4719 39.0987 89.2479 38.64C89.0346 38.1707 88.9279 37.664 88.9279 37.12C88.9279 36.4907 89.0773 35.9147 89.3759 35.392C89.6746 34.8587 90.0746 34.4427 90.5759 34.144C91.0879 33.8347 91.6426 33.68 92.2399 33.68C92.8373 33.68 93.2853 33.8453 93.5839 34.176C93.8933 34.496 94.0479 34.9387 94.0479 35.504C94.0479 35.6533 94.0319 35.76 93.9999 35.824C93.9786 35.8773 93.9306 35.904 93.8559 35.904H93.1039C93.1146 35.8293 93.1199 35.728 93.1199 35.6C93.1199 35.0667 92.9919 34.6667 92.7359 34.4C92.4906 34.1333 92.1546 34 91.7279 34C91.1306 34 90.6666 34.224 90.3359 34.672C90.0053 35.12 89.8399 35.744 89.8399 36.544C89.8399 37.472 90.0586 38.2293 90.4959 38.816C90.9333 39.392 91.5466 39.68 92.3359 39.68C92.6666 39.68 92.9493 39.6373 93.1839 39.552C93.4186 39.456 93.6746 39.3173 93.9519 39.136H93.9679C93.9999 39.136 94.0266 39.1573 94.0479 39.2C94.0799 39.232 94.0853 39.264 94.0639 39.296C93.3599 39.8933 92.5973 40.192 91.7759 40.192ZM89.6159 35.728L93.2639 35.664V35.904L89.6319 35.92L89.6159 35.728ZM101.45 40.112C100.928 40.112 100.517 39.9467 100.218 39.616C99.9303 39.2853 99.7863 38.8 99.7863 38.16V35.68C99.7863 35.2427 99.749 34.9333 99.6743 34.752C99.6103 34.56 99.493 34.464 99.3223 34.464C99.1623 34.464 98.9703 34.5173 98.7463 34.624H98.7143C98.6716 34.624 98.6396 34.5973 98.6183 34.544C98.6076 34.4907 98.6236 34.4587 98.6663 34.448L100.346 33.696L100.41 33.68C100.432 33.68 100.458 33.6907 100.49 33.712C100.522 33.7333 100.538 33.76 100.538 33.792V37.68C100.538 38.32 100.65 38.7947 100.874 39.104C101.098 39.4133 101.434 39.568 101.882 39.568C102.32 39.568 102.757 39.44 103.194 39.184C103.632 38.9173 104.016 38.5547 104.346 38.096L104.426 38.272C103.925 38.9227 103.429 39.392 102.938 39.68C102.458 39.968 101.962 40.112 101.45 40.112ZM104.794 38.32C104.794 38.6827 104.837 38.9493 104.922 39.12C105.018 39.28 105.173 39.36 105.386 39.36C105.493 39.36 105.621 39.3387 105.77 39.296C105.93 39.2427 106.101 39.184 106.282 39.12H106.314C106.357 39.12 106.384 39.1467 106.394 39.2C106.416 39.2427 106.405 39.2747 106.362 39.296L104.57 40.128L104.506 40.144C104.41 40.144 104.309 40.0267 104.202 39.792C104.106 39.5467 104.058 39.2373 104.058 38.864V35.68C104.058 35.2427 104.021 34.9333 103.946 34.752C103.882 34.56 103.76 34.464 103.578 34.464C103.418 34.464 103.226 34.5173 103.002 34.624H102.97C102.928 34.624 102.901 34.5973 102.89 34.544C102.88 34.4907 102.896 34.4587 102.938 34.448L104.618 33.696L104.666 33.68C104.698 33.68 104.725 33.6907 104.746 33.712C104.778 33.7333 104.794 33.76 104.794 33.792V38.32ZM110.094 40.192C109.411 40.192 108.835 40.0427 108.366 39.744C107.907 39.4347 107.566 39.04 107.342 38.56C107.118 38.08 107.006 37.5733 107.006 37.04C107.006 36.3573 107.171 35.7653 107.502 35.264C107.843 34.752 108.275 34.3627 108.798 34.096C109.331 33.8187 109.875 33.68 110.43 33.68C110.889 33.68 111.305 33.7707 111.678 33.952C112.062 34.1333 112.254 34.3467 112.254 34.592C112.254 34.72 112.211 34.832 112.126 34.928C112.041 35.0133 111.929 35.056 111.79 35.056C111.545 35.056 111.331 34.9067 111.15 34.608C111.011 34.4053 110.846 34.256 110.654 34.16C110.473 34.0533 110.227 34 109.918 34C109.278 34 108.782 34.2347 108.43 34.704C108.089 35.1627 107.918 35.7867 107.918 36.576C107.918 37.472 108.147 38.2187 108.606 38.816C109.065 39.4027 109.747 39.696 110.654 39.696C111.337 39.696 111.886 39.5093 112.302 39.136H112.334C112.366 39.136 112.393 39.152 112.414 39.184C112.446 39.216 112.446 39.2427 112.414 39.264C112.051 39.584 111.683 39.8187 111.31 39.968C110.937 40.1173 110.531 40.192 110.094 40.192ZM117.97 40C117.938 40 117.922 39.968 117.922 39.904C117.922 39.84 117.938 39.808 117.97 39.808C118.279 39.808 118.503 39.7813 118.642 39.728C118.78 39.6747 118.876 39.5733 118.93 39.424C118.983 39.264 119.01 39.024 119.01 38.704V36.032C119.01 35.3813 118.887 34.9067 118.642 34.608C118.396 34.3093 118.012 34.16 117.49 34.16C117.084 34.16 116.668 34.2987 116.242 34.576C115.826 34.8427 115.463 35.2053 115.154 35.664L115.09 35.472C115.58 34.8213 116.055 34.352 116.514 34.064C116.972 33.7653 117.442 33.616 117.922 33.616C118.519 33.616 118.972 33.776 119.282 34.096C119.602 34.416 119.762 34.9013 119.762 35.552V38.704C119.762 39.024 119.783 39.264 119.826 39.424C119.879 39.5733 119.975 39.6747 120.114 39.728C120.263 39.7813 120.492 39.808 120.802 39.808C120.834 39.808 120.85 39.84 120.85 39.904C120.85 39.968 120.834 40 120.802 40C120.556 40 120.364 39.9947 120.226 39.984L119.394 39.968L118.546 39.984C118.407 39.9947 118.215 40 117.97 40ZM113.666 40C113.634 40 113.618 39.968 113.618 39.904C113.618 39.84 113.634 39.808 113.666 39.808C113.975 39.808 114.199 39.7813 114.338 39.728C114.476 39.6747 114.572 39.5733 114.626 39.424C114.679 39.264 114.706 39.024 114.706 38.704V35.504C114.706 35.1307 114.663 34.864 114.578 34.704C114.492 34.544 114.343 34.464 114.13 34.464C113.959 34.464 113.66 34.544 113.234 34.704H113.202C113.159 34.704 113.127 34.6827 113.106 34.64C113.095 34.5867 113.111 34.5493 113.154 34.528L114.93 33.696C114.951 33.6853 114.978 33.68 115.01 33.68C115.095 33.68 115.191 33.8027 115.298 34.048C115.404 34.2827 115.458 34.5867 115.458 34.96V38.704C115.458 39.024 115.479 39.264 115.522 39.424C115.575 39.5733 115.671 39.6747 115.81 39.728C115.959 39.7813 116.188 39.808 116.498 39.808C116.53 39.808 116.546 39.84 116.546 39.904C116.546 39.968 116.53 40 116.498 40C116.252 40 116.06 39.9947 115.922 39.984L115.09 39.968L114.242 39.984C114.103 39.9947 113.911 40 113.666 40ZM124.844 40.208C124.236 40.208 123.697 40.0587 123.228 39.76C122.759 39.4507 122.396 39.04 122.14 38.528C121.884 38.0053 121.756 37.44 121.756 36.832C121.756 36.1387 121.921 35.552 122.252 35.072C122.593 34.5813 123.02 34.2187 123.532 33.984C124.055 33.7387 124.588 33.616 125.132 33.616C125.751 33.616 126.289 33.7707 126.748 34.08C127.217 34.3893 127.575 34.8 127.82 35.312C128.076 35.8133 128.204 36.3467 128.204 36.912C128.204 37.5733 128.049 38.1547 127.74 38.656C127.441 39.1573 127.036 39.5413 126.524 39.808C126.012 40.0747 125.452 40.208 124.844 40.208ZM125.292 39.92C125.911 39.92 126.396 39.712 126.748 39.296C127.1 38.88 127.276 38.224 127.276 37.328C127.276 36.688 127.164 36.112 126.94 35.6C126.716 35.0773 126.401 34.6667 125.996 34.368C125.591 34.0693 125.127 33.92 124.604 33.92C123.996 33.92 123.521 34.1333 123.18 34.56C122.839 34.976 122.668 35.5787 122.668 36.368C122.668 37.008 122.78 37.6 123.004 38.144C123.228 38.6773 123.537 39.1093 123.932 39.44C124.327 39.76 124.78 39.92 125.292 39.92ZM128.588 40C128.545 40 128.524 39.968 128.524 39.904C128.524 39.84 128.545 39.808 128.588 39.808C128.78 39.808 128.982 39.6747 129.196 39.408C129.409 39.1413 129.681 38.6347 130.012 37.888L131.852 33.584C131.873 33.5413 131.905 33.52 131.948 33.52C132.001 33.52 132.033 33.5413 132.044 33.584L134.028 37.808C134.316 38.4267 134.534 38.864 134.684 39.12C134.833 39.376 134.982 39.5573 135.132 39.664C135.281 39.76 135.473 39.808 135.708 39.808C135.761 39.808 135.788 39.84 135.788 39.904C135.788 39.968 135.761 40 135.708 40C135.548 40 135.308 39.9893 134.988 39.968C134.668 39.9467 134.428 39.936 134.268 39.936C134.129 39.936 133.921 39.9467 133.644 39.968C133.345 39.9893 133.142 40 133.036 40C132.993 40 132.972 39.968 132.972 39.904C132.972 39.84 132.993 39.808 133.036 39.808C133.217 39.808 133.366 39.7653 133.484 39.68C133.612 39.584 133.676 39.44 133.676 39.248C133.676 39.0773 133.622 38.88 133.516 38.656L131.644 34.672L131.932 34.368L130.38 38.032C130.188 38.48 130.092 38.8427 130.092 39.12C130.092 39.5787 130.342 39.808 130.844 39.808C130.897 39.808 130.924 39.84 130.924 39.904C130.924 39.968 130.897 40 130.844 40C130.726 40 130.572 39.9893 130.38 39.968C130.145 39.9467 129.932 39.936 129.74 39.936C129.526 39.936 129.313 39.9467 129.1 39.968C128.908 39.9893 128.737 40 128.588 40ZM140.605 40C140.573 40 140.557 39.968 140.557 39.904C140.557 39.84 140.573 39.808 140.605 39.808C140.914 39.808 141.138 39.7813 141.277 39.728C141.426 39.6747 141.528 39.5733 141.581 39.424C141.634 39.264 141.661 39.024 141.661 38.704V35.68C141.661 35.2427 141.624 34.9333 141.549 34.752C141.485 34.56 141.368 34.464 141.197 34.464C141.08 34.464 140.888 34.5173 140.621 34.624H140.589C140.546 34.624 140.514 34.5973 140.493 34.544C140.482 34.4907 140.498 34.4587 140.541 34.448L142.221 33.696L142.285 33.68C142.306 33.68 142.333 33.6907 142.365 33.712C142.397 33.7333 142.413 33.76 142.413 33.792V38.704C142.413 39.024 142.434 39.264 142.477 39.424C142.53 39.5733 142.626 39.6747 142.765 39.728C142.914 39.7813 143.149 39.808 143.469 39.808C143.49 39.808 143.501 39.84 143.501 39.904C143.501 39.968 143.49 40 143.469 40C143.202 40 142.994 39.9947 142.845 39.984L142.061 39.968L141.213 39.984C141.064 39.9947 140.861 40 140.605 40ZM136.301 40C136.269 40 136.253 39.968 136.253 39.904C136.253 39.84 136.269 39.808 136.301 39.808C136.621 39.808 136.85 39.7813 136.989 39.728C137.138 39.6747 137.234 39.5733 137.277 39.424C137.33 39.264 137.357 39.024 137.357 38.704V35.68C137.357 35.2427 137.32 34.9333 137.245 34.752C137.181 34.56 137.064 34.464 136.893 34.464C136.776 34.464 136.584 34.5173 136.317 34.624H136.285C136.242 34.624 136.21 34.5973 136.189 34.544C136.178 34.4907 136.194 34.4587 136.237 34.448L137.917 33.696L137.981 33.68C138.002 33.68 138.029 33.6907 138.061 33.712C138.093 33.7333 138.109 33.76 138.109 33.792V38.704C138.109 39.024 138.13 39.264 138.173 39.424C138.226 39.5733 138.322 39.6747 138.461 39.728C138.61 39.7813 138.845 39.808 139.165 39.808C139.186 39.808 139.197 39.84 139.197 39.904C139.197 39.968 139.186 40 139.165 40C138.898 40 138.69 39.9947 138.541 39.984L137.757 39.968L136.925 39.984C136.776 39.9947 136.568 40 136.301 40ZM137.709 36.768H142.013V37.056H137.709V36.768ZM146.747 40.112C146.225 40.112 145.814 39.9467 145.515 39.616C145.227 39.2853 145.083 38.8 145.083 38.16V35.68C145.083 35.2427 145.046 34.9333 144.971 34.752C144.907 34.56 144.79 34.464 144.619 34.464C144.459 34.464 144.267 34.5173 144.043 34.624H144.011C143.969 34.624 143.937 34.5973 143.915 34.544C143.905 34.4907 143.921 34.4587 143.963 34.448L145.643 33.696L145.707 33.68C145.729 33.68 145.755 33.6907 145.787 33.712C145.819 33.7333 145.835 33.76 145.835 33.792V37.68C145.835 38.32 145.947 38.7947 146.171 39.104C146.395 39.4133 146.731 39.568 147.179 39.568C147.617 39.568 148.054 39.44 148.491 39.184C148.929 38.9173 149.313 38.5547 149.643 38.096L149.723 38.272C149.222 38.9227 148.726 39.392 148.235 39.68C147.755 39.968 147.259 40.112 146.747 40.112ZM150.091 38.32C150.091 38.6827 150.134 38.9493 150.219 39.12C150.315 39.28 150.47 39.36 150.683 39.36C150.79 39.36 150.918 39.3387 151.067 39.296C151.227 39.2427 151.398 39.184 151.579 39.12H151.611C151.654 39.12 151.681 39.1467 151.691 39.2C151.713 39.2427 151.702 39.2747 151.659 39.296L149.867 40.128L149.803 40.144C149.707 40.144 149.606 40.0267 149.499 39.792C149.403 39.5467 149.355 39.2373 149.355 38.864V35.68C149.355 35.2427 149.318 34.9333 149.243 34.752C149.179 34.56 149.057 34.464 148.875 34.464C148.715 34.464 148.523 34.5173 148.299 34.624H148.267C148.225 34.624 148.198 34.5973 148.187 34.544C148.177 34.4907 148.193 34.4587 148.235 34.448L149.915 33.696L149.963 33.68C149.995 33.68 150.022 33.6907 150.043 33.712C150.075 33.7333 150.091 33.76 150.091 33.792V38.32ZM160.671 40C160.65 40 160.639 39.968 160.639 39.904C160.639 39.84 160.65 39.808 160.671 39.808C160.98 39.808 161.204 39.7813 161.343 39.728C161.492 39.6747 161.594 39.5733 161.647 39.424C161.7 39.264 161.727 39.024 161.727 38.704V36.096C161.727 35.4453 161.61 34.9653 161.375 34.656C161.151 34.3467 160.794 34.192 160.303 34.192C159.919 34.192 159.524 34.3307 159.119 34.608C158.714 34.8747 158.356 35.2373 158.047 35.696L157.983 35.504C158.463 34.8533 158.922 34.384 159.359 34.096C159.796 33.808 160.255 33.664 160.735 33.664C161.3 33.664 161.732 33.824 162.031 34.144C162.33 34.464 162.479 34.9493 162.479 35.6V38.704C162.479 39.024 162.5 39.264 162.543 39.424C162.596 39.5733 162.692 39.6747 162.831 39.728C162.98 39.7813 163.21 39.808 163.519 39.808C163.551 39.808 163.567 39.84 163.567 39.904C163.567 39.968 163.551 40 163.519 40C163.274 40 163.082 39.9947 162.943 39.984L162.095 39.968L161.263 39.984C161.114 39.9947 160.916 40 160.671 40ZM156.559 40C156.527 40 156.511 39.968 156.511 39.904C156.511 39.84 156.527 39.808 156.559 39.808C156.868 39.808 157.092 39.7813 157.231 39.728C157.37 39.6747 157.466 39.5733 157.519 39.424C157.572 39.264 157.599 39.024 157.599 38.704V36.096C157.599 35.4453 157.482 34.9653 157.247 34.656C157.023 34.3467 156.671 34.192 156.191 34.192C155.796 34.192 155.396 34.3307 154.991 34.608C154.596 34.8747 154.244 35.2373 153.935 35.696L153.871 35.504C154.34 34.8533 154.794 34.384 155.231 34.096C155.679 33.808 156.138 33.664 156.607 33.664C157.172 33.664 157.604 33.824 157.903 34.144C158.202 34.464 158.351 34.9493 158.351 35.6V38.704C158.351 39.024 158.378 39.264 158.431 39.424C158.484 39.5733 158.58 39.6747 158.719 39.728C158.868 39.7813 159.098 39.808 159.407 39.808C159.428 39.808 159.439 39.84 159.439 39.904C159.439 39.968 159.428 40 159.407 40C159.162 40 158.964 39.9947 158.815 39.984L157.983 39.968L157.135 39.984C156.996 39.9947 156.804 40 156.559 40ZM152.447 40C152.415 40 152.399 39.968 152.399 39.904C152.399 39.84 152.415 39.808 152.447 39.808C152.756 39.808 152.98 39.7813 153.119 39.728C153.258 39.6747 153.354 39.5733 153.407 39.424C153.46 39.264 153.487 39.024 153.487 38.704V35.504C153.487 35.1307 153.444 34.864 153.359 34.704C153.274 34.544 153.124 34.464 152.911 34.464C152.74 34.464 152.442 34.544 152.015 34.704H151.983C151.94 34.704 151.908 34.6827 151.887 34.64C151.876 34.5867 151.892 34.5493 151.935 34.528L153.711 33.696C153.732 33.6853 153.759 33.68 153.791 33.68C153.876 33.68 153.972 33.8027 154.079 34.048C154.186 34.2827 154.239 34.5867 154.239 34.96V38.704C154.239 39.024 154.26 39.264 154.303 39.424C154.356 39.5733 154.452 39.6747 154.591 39.728C154.74 39.7813 154.97 39.808 155.279 39.808C155.311 39.808 155.327 39.84 155.327 39.904C155.327 39.968 155.311 40 155.279 40C155.034 40 154.842 39.9947 154.703 39.984L153.871 39.968L153.023 39.984C152.884 39.9947 152.692 40 152.447 40ZM167.547 40.192C166.865 40.192 166.289 40.0427 165.819 39.744C165.361 39.4347 165.019 39.04 164.795 38.56C164.571 38.08 164.459 37.5733 164.459 37.04C164.459 36.3573 164.625 35.7653 164.955 35.264C165.297 34.752 165.729 34.3627 166.251 34.096C166.785 33.8187 167.329 33.68 167.883 33.68C168.342 33.68 168.758 33.7707 169.131 33.952C169.515 34.1333 169.707 34.3467 169.707 34.592C169.707 34.72 169.665 34.832 169.579 34.928C169.494 35.0133 169.382 35.056 169.243 35.056C168.998 35.056 168.785 34.9067 168.603 34.608C168.465 34.4053 168.299 34.256 168.107 34.16C167.926 34.0533 167.681 34 167.371 34C166.731 34 166.235 34.2347 165.883 34.704C165.542 35.1627 165.371 35.7867 165.371 36.576C165.371 37.472 165.601 38.2187 166.059 38.816C166.518 39.4027 167.201 39.696 168.107 39.696C168.79 39.696 169.339 39.5093 169.755 39.136H169.787C169.819 39.136 169.846 39.152 169.867 39.184C169.899 39.216 169.899 39.2427 169.867 39.264C169.505 39.584 169.137 39.8187 168.763 39.968C168.39 40.1173 167.985 40.192 167.547 40.192ZM176.559 39.808C176.58 39.808 176.591 39.84 176.591 39.904C176.591 39.968 176.58 40 176.559 40C176.313 40 176.121 39.9947 175.983 39.984L175.167 39.968L174.319 39.984C174.169 39.9947 173.961 40 173.695 40C173.673 40 173.663 39.968 173.663 39.904C173.663 39.84 173.673 39.808 173.695 39.808C174.015 39.808 174.244 39.7813 174.383 39.728C174.532 39.6747 174.628 39.5733 174.671 39.424C174.724 39.264 174.751 39.024 174.751 38.704V37.104L174.927 37.136C174.436 37.136 174.02 37.2427 173.679 37.456C173.337 37.6587 172.985 38.0747 172.623 38.704C172.292 39.28 172.073 39.6427 171.967 39.792C171.871 39.9307 171.775 40 171.679 40H170.415C170.393 40 170.383 39.968 170.383 39.904C170.383 39.84 170.393 39.808 170.415 39.808C170.745 39.808 171.007 39.7067 171.199 39.504C171.391 39.3013 171.54 39.104 171.647 38.912C171.753 38.7093 171.823 38.5867 171.855 38.544C172.121 38.1067 172.441 37.76 172.815 37.504C173.199 37.248 173.588 37.12 173.983 37.12L174.095 37.168C173.252 37.168 172.644 37.0293 172.271 36.752C171.908 36.464 171.727 36.064 171.727 35.552C171.727 35.008 171.903 34.576 172.255 34.256C172.607 33.936 173.081 33.776 173.679 33.776C173.807 33.776 174.052 33.7867 174.415 33.808C174.671 33.84 174.921 33.856 175.167 33.856L175.967 33.84C176.105 33.8293 176.297 33.824 176.543 33.824C176.564 33.824 176.575 33.856 176.575 33.92C176.575 33.984 176.564 34.016 176.543 34.016C176.244 34.016 176.02 34.048 175.871 34.112C175.732 34.1653 175.631 34.2667 175.567 34.416C175.513 34.5653 175.487 34.8 175.487 35.12V38.704C175.487 39.024 175.513 39.2587 175.567 39.408C175.631 39.5573 175.737 39.664 175.887 39.728C176.036 39.7813 176.26 39.808 176.559 39.808ZM172.543 35.216C172.543 35.7173 172.671 36.1333 172.927 36.464C173.193 36.784 173.567 36.944 174.047 36.944C174.42 36.944 174.729 36.9173 174.975 36.864L174.751 36.976V35.152C174.751 34.6933 174.687 34.384 174.559 34.224C174.431 34.0533 174.175 33.968 173.791 33.968C173.375 33.968 173.06 34.064 172.847 34.256C172.644 34.4373 172.543 34.7573 172.543 35.216ZM181.46 40C181.407 40 181.364 39.984 181.332 39.952C181.311 39.9093 181.316 39.8773 181.348 39.856C181.583 39.568 181.903 39.1787 182.308 38.688C183.066 37.7707 183.679 36.992 184.148 36.352C184.628 35.712 185.034 35.0507 185.364 34.368C185.695 33.6747 185.86 33.024 185.86 32.416C185.86 31.8187 185.69 31.3333 185.348 30.96C185.018 30.5867 184.543 30.4 183.924 30.4C183.37 30.4 182.9 30.56 182.516 30.88C182.132 31.2 181.839 31.6587 181.636 32.256C181.636 32.2667 181.615 32.272 181.572 32.272C181.487 32.272 181.45 32.2507 181.46 32.208C181.631 31.44 181.962 30.8533 182.452 30.448C182.943 30.032 183.551 29.824 184.276 29.824C185.034 29.824 185.636 30.0427 186.084 30.48C186.532 30.9173 186.756 31.4773 186.756 32.16C186.756 32.7893 186.57 33.456 186.196 34.16C185.834 34.864 185.412 35.5147 184.932 36.112C184.452 36.6987 183.871 37.3707 183.188 38.128C182.751 38.5973 182.431 38.9653 182.228 39.232C182.175 39.3067 182.196 39.344 182.292 39.344C183.754 39.344 184.772 39.328 185.348 39.296C185.924 39.2533 186.335 39.1627 186.58 39.024C186.826 38.8747 186.959 38.6187 186.98 38.256C186.98 38.2347 187.007 38.224 187.06 38.224C187.124 38.224 187.156 38.2347 187.156 38.256L187.124 39.824C187.124 39.8667 187.108 39.9093 187.076 39.952C187.055 39.984 187.023 40 186.98 40H181.46ZM192.024 40.208C191.405 40.208 190.85 39.9893 190.36 39.552C189.869 39.104 189.485 38.4853 189.208 37.696C188.93 36.9067 188.792 36.0053 188.792 34.992C188.792 34 188.93 33.1093 189.208 32.32C189.485 31.5307 189.869 30.9173 190.36 30.48C190.861 30.032 191.426 29.808 192.056 29.808C192.674 29.808 193.224 30.032 193.704 30.48C194.184 30.928 194.557 31.5467 194.824 32.336C195.09 33.1253 195.224 34.0267 195.224 35.04C195.224 36.0427 195.085 36.9387 194.808 37.728C194.541 38.5067 194.162 39.1147 193.672 39.552C193.192 39.9893 192.642 40.208 192.024 40.208ZM192.216 40.016C192.898 40.016 193.41 39.5893 193.752 38.736C194.104 37.872 194.28 36.704 194.28 35.232C194.28 34.0907 194.168 33.1253 193.944 32.336C193.73 31.5467 193.442 30.96 193.08 30.576C192.717 30.1813 192.317 29.984 191.88 29.984C191.208 29.984 190.68 30.4373 190.296 31.344C189.922 32.2507 189.736 33.4293 189.736 34.88C189.736 35.872 189.837 36.7573 190.04 37.536C190.242 38.3147 190.53 38.9227 190.904 39.36C191.277 39.7973 191.714 40.016 192.216 40.016ZM199.853 40C199.811 40 199.789 39.968 199.789 39.904C199.789 39.84 199.811 39.808 199.853 39.808C200.045 39.808 200.248 39.6747 200.461 39.408C200.675 39.1413 200.947 38.6347 201.277 37.888L203.117 33.584C203.139 33.5413 203.171 33.52 203.213 33.52C203.267 33.52 203.299 33.5413 203.309 33.584L205.293 37.808C205.581 38.4267 205.8 38.864 205.949 39.12C206.099 39.376 206.248 39.5573 206.397 39.664C206.547 39.76 206.739 39.808 206.973 39.808C207.027 39.808 207.053 39.84 207.053 39.904C207.053 39.968 207.027 40 206.973 40C206.813 40 206.573 39.9893 206.253 39.968C205.933 39.9467 205.693 39.936 205.533 39.936C205.395 39.936 205.187 39.9467 204.909 39.968C204.611 39.9893 204.408 40 204.301 40C204.259 40 204.237 39.968 204.237 39.904C204.237 39.84 204.259 39.808 204.301 39.808C204.483 39.808 204.632 39.7653 204.749 39.68C204.877 39.584 204.941 39.44 204.941 39.248C204.941 39.0773 204.888 38.88 204.781 38.656L202.909 34.672L203.197 34.368L201.645 38.032C201.453 38.48 201.357 38.8427 201.357 39.12C201.357 39.5787 201.608 39.808 202.109 39.808C202.163 39.808 202.189 39.84 202.189 39.904C202.189 39.968 202.163 40 202.109 40C201.992 40 201.837 39.9893 201.645 39.968C201.411 39.9467 201.197 39.936 201.005 39.936C200.792 39.936 200.579 39.9467 200.365 39.968C200.173 39.9893 200.003 40 199.853 40ZM210.213 40.192C209.605 40.192 209.088 40.048 208.661 39.76C208.235 39.472 207.909 39.0987 207.685 38.64C207.472 38.1707 207.365 37.664 207.365 37.12C207.365 36.4907 207.515 35.9147 207.813 35.392C208.112 34.8587 208.512 34.4427 209.013 34.144C209.525 33.8347 210.08 33.68 210.677 33.68C211.275 33.68 211.723 33.8453 212.021 34.176C212.331 34.496 212.485 34.9387 212.485 35.504C212.485 35.6533 212.469 35.76 212.437 35.824C212.416 35.8773 212.368 35.904 212.293 35.904H211.541C211.552 35.8293 211.557 35.728 211.557 35.6C211.557 35.0667 211.429 34.6667 211.173 34.4C210.928 34.1333 210.592 34 210.165 34C209.568 34 209.104 34.224 208.773 34.672C208.443 35.12 208.277 35.744 208.277 36.544C208.277 37.472 208.496 38.2293 208.933 38.816C209.371 39.392 209.984 39.68 210.773 39.68C211.104 39.68 211.387 39.6373 211.621 39.552C211.856 39.456 212.112 39.3173 212.389 39.136H212.405C212.437 39.136 212.464 39.1573 212.485 39.2C212.517 39.232 212.523 39.264 212.501 39.296C211.797 39.8933 211.035 40.192 210.213 40.192ZM208.053 35.728L211.701 35.664V35.904L208.069 35.92L208.053 35.728ZM222.218 40C222.196 40 222.186 39.968 222.186 39.904C222.186 39.84 222.196 39.808 222.218 39.808C222.527 39.808 222.751 39.7813 222.89 39.728C223.039 39.6747 223.14 39.5733 223.194 39.424C223.247 39.264 223.274 39.024 223.274 38.704V36.096C223.274 35.4453 223.156 34.9653 222.922 34.656C222.698 34.3467 222.34 34.192 221.85 34.192C221.466 34.192 221.071 34.3307 220.666 34.608C220.26 34.8747 219.903 35.2373 219.594 35.696L219.53 35.504C220.01 34.8533 220.468 34.384 220.906 34.096C221.343 33.808 221.802 33.664 222.282 33.664C222.847 33.664 223.279 33.824 223.578 34.144C223.876 34.464 224.026 34.9493 224.026 35.6V38.704C224.026 39.024 224.047 39.264 224.09 39.424C224.143 39.5733 224.239 39.6747 224.378 39.728C224.527 39.7813 224.756 39.808 225.066 39.808C225.098 39.808 225.114 39.84 225.114 39.904C225.114 39.968 225.098 40 225.066 40C224.82 40 224.628 39.9947 224.49 39.984L223.642 39.968L222.81 39.984C222.66 39.9947 222.463 40 222.218 40ZM218.106 40C218.074 40 218.058 39.968 218.058 39.904C218.058 39.84 218.074 39.808 218.106 39.808C218.415 39.808 218.639 39.7813 218.778 39.728C218.916 39.6747 219.012 39.5733 219.066 39.424C219.119 39.264 219.146 39.024 219.146 38.704V36.096C219.146 35.4453 219.028 34.9653 218.794 34.656C218.57 34.3467 218.218 34.192 217.738 34.192C217.343 34.192 216.943 34.3307 216.538 34.608C216.143 34.8747 215.791 35.2373 215.482 35.696L215.418 35.504C215.887 34.8533 216.34 34.384 216.778 34.096C217.226 33.808 217.684 33.664 218.154 33.664C218.719 33.664 219.151 33.824 219.45 34.144C219.748 34.464 219.898 34.9493 219.898 35.6V38.704C219.898 39.024 219.924 39.264 219.978 39.424C220.031 39.5733 220.127 39.6747 220.266 39.728C220.415 39.7813 220.644 39.808 220.954 39.808C220.975 39.808 220.986 39.84 220.986 39.904C220.986 39.968 220.975 40 220.954 40C220.708 40 220.511 39.9947 220.362 39.984L219.53 39.968L218.682 39.984C218.543 39.9947 218.351 40 218.106 40ZM213.994 40C213.962 40 213.946 39.968 213.946 39.904C213.946 39.84 213.962 39.808 213.994 39.808C214.303 39.808 214.527 39.7813 214.666 39.728C214.804 39.6747 214.9 39.5733 214.954 39.424C215.007 39.264 215.034 39.024 215.034 38.704V35.504C215.034 35.1307 214.991 34.864 214.906 34.704C214.82 34.544 214.671 34.464 214.458 34.464C214.287 34.464 213.988 34.544 213.562 34.704H213.53C213.487 34.704 213.455 34.6827 213.434 34.64C213.423 34.5867 213.439 34.5493 213.482 34.528L215.258 33.696C215.279 33.6853 215.306 33.68 215.338 33.68C215.423 33.68 215.519 33.8027 215.626 34.048C215.732 34.2827 215.786 34.5867 215.786 34.96V38.704C215.786 39.024 215.807 39.264 215.85 39.424C215.903 39.5733 215.999 39.6747 216.138 39.728C216.287 39.7813 216.516 39.808 216.826 39.808C216.858 39.808 216.874 39.84 216.874 39.904C216.874 39.968 216.858 40 216.826 40C216.58 40 216.388 39.9947 216.25 39.984L215.418 39.968L214.57 39.984C214.431 39.9947 214.239 40 213.994 40ZM227.046 39.008C227.355 39.008 227.595 39.1253 227.766 39.36C227.947 39.584 228.038 39.92 228.038 40.368C228.038 40.816 227.942 41.2427 227.75 41.648C227.569 42.0533 227.297 42.4587 226.934 42.864C226.923 42.8747 226.907 42.88 226.886 42.88C226.854 42.88 226.827 42.864 226.806 42.832C226.785 42.8 226.785 42.7733 226.806 42.752C227.03 42.4213 227.179 42.112 227.254 41.824C227.329 41.5467 227.366 41.2267 227.366 40.864C227.366 40.576 227.323 40.3413 227.238 40.16C227.153 39.9787 227.041 39.8187 226.902 39.68L227.51 39.568C227.521 39.7493 227.473 39.888 227.366 39.984C227.27 40.08 227.137 40.128 226.966 40.128C226.785 40.128 226.641 40.08 226.534 39.984C226.438 39.8773 226.39 39.7387 226.39 39.568C226.39 39.1947 226.609 39.008 227.046 39.008ZM104.362 58.808C104.383 58.808 104.394 58.84 104.394 58.904C104.394 58.968 104.383 59 104.362 59C104.085 59 103.866 58.9947 103.706 58.984L102.938 58.968L102.202 58.984C102.074 58.9947 101.898 59 101.674 59C101.653 59 101.642 58.968 101.642 58.904C101.642 58.84 101.653 58.808 101.674 58.808C102.005 58.808 102.234 58.76 102.362 58.664C102.501 58.568 102.57 58.3813 102.57 58.104C102.57 58.0507 102.559 57.9173 102.538 57.704L101.994 53.896L102.538 53.176L100.058 59C100.047 59.0427 100.005 59.064 99.9301 59.064C99.8768 59.064 99.8341 59.0427 99.8021 59L97.3541 54.104L97.5461 53.928L97.1461 57.336C97.1248 57.528 97.1141 57.656 97.1141 57.72C97.1141 58.104 97.1995 58.3813 97.3701 58.552C97.5408 58.7227 97.8021 58.808 98.1541 58.808C98.1861 58.808 98.2021 58.84 98.2021 58.904C98.2021 58.968 98.1861 59 98.1541 59C97.9301 59 97.7595 58.9947 97.6421 58.984L96.9861 58.968L96.3141 58.984C96.1861 58.9947 96.0048 59 95.7701 59C95.7381 59 95.7221 58.968 95.7221 58.904C95.7221 58.84 95.7381 58.808 95.7701 58.808C96.1435 58.808 96.3995 58.7013 96.5381 58.488C96.6875 58.2747 96.7835 57.8907 96.8261 57.336L97.2421 52.728C97.2421 52.6747 97.2955 52.648 97.4021 52.648C97.4768 52.648 97.5195 52.6587 97.5301 52.68L100.25 58.104L100.026 58.248L102.394 52.712C102.415 52.6587 102.463 52.632 102.538 52.632C102.581 52.632 102.618 52.6427 102.65 52.664C102.693 52.6853 102.719 52.712 102.73 52.744L103.29 57.704C103.333 58.056 103.375 58.3013 103.418 58.44C103.471 58.5787 103.562 58.6747 103.69 58.728C103.829 58.7813 104.053 58.808 104.362 58.808ZM109.363 59C109.331 59 109.315 58.968 109.315 58.904C109.315 58.84 109.331 58.808 109.363 58.808C109.672 58.808 109.896 58.7813 110.035 58.728C110.184 58.6747 110.286 58.5733 110.339 58.424C110.392 58.264 110.419 58.024 110.419 57.704V54.68C110.419 54.2427 110.382 53.9333 110.307 53.752C110.243 53.56 110.126 53.464 109.955 53.464C109.838 53.464 109.646 53.5173 109.379 53.624H109.347C109.304 53.624 109.272 53.5973 109.251 53.544C109.24 53.4907 109.256 53.4587 109.299 53.448L110.979 52.696L111.043 52.68C111.064 52.68 111.091 52.6907 111.123 52.712C111.155 52.7333 111.171 52.76 111.171 52.792V57.704C111.171 58.024 111.192 58.264 111.235 58.424C111.288 58.5733 111.384 58.6747 111.523 58.728C111.672 58.7813 111.907 58.808 112.227 58.808C112.248 58.808 112.259 58.84 112.259 58.904C112.259 58.968 112.248 59 112.227 59C111.96 59 111.752 58.9947 111.603 58.984L110.819 58.968L109.971 58.984C109.822 58.9947 109.619 59 109.363 59ZM105.059 59C105.027 59 105.011 58.968 105.011 58.904C105.011 58.84 105.027 58.808 105.059 58.808C105.379 58.808 105.608 58.7813 105.747 58.728C105.896 58.6747 105.992 58.5733 106.035 58.424C106.088 58.264 106.115 58.024 106.115 57.704V54.68C106.115 54.2427 106.078 53.9333 106.003 53.752C105.939 53.56 105.822 53.464 105.651 53.464C105.534 53.464 105.342 53.5173 105.075 53.624H105.043C105 53.624 104.968 53.5973 104.947 53.544C104.936 53.4907 104.952 53.4587 104.995 53.448L106.675 52.696L106.739 52.68C106.76 52.68 106.787 52.6907 106.819 52.712C106.851 52.7333 106.867 52.76 106.867 52.792V57.704C106.867 58.024 106.888 58.264 106.931 58.424C106.984 58.5733 107.08 58.6747 107.219 58.728C107.368 58.7813 107.603 58.808 107.923 58.808C107.944 58.808 107.955 58.84 107.955 58.904C107.955 58.968 107.944 59 107.923 59C107.656 59 107.448 58.9947 107.299 58.984L106.515 58.968L105.683 58.984C105.534 58.9947 105.326 59 105.059 59ZM106.467 55.768H110.771V56.056H106.467V55.768ZM116.065 59.192C115.457 59.192 114.94 59.048 114.513 58.76C114.086 58.472 113.761 58.0987 113.537 57.64C113.324 57.1707 113.217 56.664 113.217 56.12C113.217 55.4907 113.366 54.9147 113.665 54.392C113.964 53.8587 114.364 53.4427 114.865 53.144C115.377 52.8347 115.932 52.68 116.529 52.68C117.126 52.68 117.574 52.8453 117.873 53.176C118.182 53.496 118.337 53.9387 118.337 54.504C118.337 54.6533 118.321 54.76 118.289 54.824C118.268 54.8773 118.22 54.904 118.145 54.904H117.393C117.404 54.8293 117.409 54.728 117.409 54.6C117.409 54.0667 117.281 53.6667 117.025 53.4C116.78 53.1333 116.444 53 116.017 53C115.42 53 114.956 53.224 114.625 53.672C114.294 54.12 114.129 54.744 114.129 55.544C114.129 56.472 114.348 57.2293 114.785 57.816C115.222 58.392 115.836 58.68 116.625 58.68C116.956 58.68 117.238 58.6373 117.473 58.552C117.708 58.456 117.964 58.3173 118.241 58.136H118.257C118.289 58.136 118.316 58.1573 118.337 58.2C118.369 58.232 118.374 58.264 118.353 58.296C117.649 58.8933 116.886 59.192 116.065 59.192ZM113.905 54.728L117.553 54.664V54.904L113.921 54.92L113.905 54.728ZM126.459 59.208C125.563 59.208 124.843 58.8773 124.299 58.216C123.755 57.544 123.483 56.4347 123.483 54.888C123.483 53.128 123.83 51.7147 124.523 50.648C125.217 49.5707 126.235 48.904 127.579 48.648C128.081 48.552 128.427 48.472 128.619 48.408C128.822 48.3333 128.966 48.2267 129.051 48.088C129.147 47.9493 129.243 47.7093 129.339 47.368C129.35 47.3253 129.382 47.3093 129.435 47.32C129.489 47.3307 129.51 47.3573 129.499 47.4C129.393 47.8373 129.339 48.0667 129.339 48.088C129.211 48.6213 129.094 48.9413 128.987 49.048C128.881 49.144 128.63 49.224 128.235 49.288C127.841 49.3413 127.483 49.4 127.163 49.464C126.246 49.624 125.601 49.8427 125.227 50.12C124.854 50.3867 124.609 50.8453 124.491 51.496C124.374 52.1467 124.315 53.2507 124.315 54.808L124.155 54.904C124.422 54.168 124.843 53.6347 125.419 53.304C126.006 52.9733 126.593 52.808 127.179 52.808C127.766 52.808 128.257 52.9627 128.651 53.272C129.046 53.5813 129.334 53.976 129.515 54.456C129.707 54.9253 129.803 55.4107 129.803 55.912C129.803 56.5627 129.654 57.1387 129.355 57.64C129.057 58.1413 128.651 58.5307 128.139 58.808C127.627 59.0747 127.067 59.208 126.459 59.208ZM126.923 58.92C127.531 58.92 128.011 58.712 128.363 58.296C128.715 57.8693 128.891 57.2293 128.891 56.376C128.891 55.7573 128.79 55.2027 128.587 54.712C128.385 54.2213 128.113 53.8373 127.771 53.56C127.43 53.2827 127.057 53.144 126.651 53.144C126.267 53.144 125.905 53.272 125.563 53.528C125.222 53.7733 124.945 54.0987 124.731 54.504C124.529 54.9093 124.427 55.3307 124.427 55.768C124.427 56.6747 124.646 57.4267 125.083 58.024C125.531 58.6213 126.145 58.92 126.923 58.92ZM133.591 59.208C132.94 59.208 132.444 59.08 132.103 58.824C131.772 58.5573 131.607 58.1787 131.607 57.688V54.68C131.607 54.2427 131.569 53.9333 131.495 53.752C131.431 53.56 131.313 53.464 131.143 53.464C131.025 53.464 130.833 53.5173 130.567 53.624H130.535C130.492 53.624 130.46 53.5973 130.439 53.544C130.428 53.4907 130.444 53.4587 130.487 53.448L132.167 52.696L132.231 52.68C132.252 52.68 132.279 52.6907 132.311 52.712C132.343 52.7333 132.359 52.76 132.359 52.792V57.352C132.359 58.4507 132.844 59 133.815 59C134.775 59 135.255 58.4773 135.255 57.432C135.255 56.8987 135.111 56.472 134.823 56.152C134.535 55.8213 134.076 55.656 133.447 55.656C132.967 55.656 132.535 55.752 132.151 55.944L132.055 55.768C132.62 55.512 133.265 55.384 133.991 55.384C135.409 55.384 136.119 55.9493 136.119 57.08C136.119 57.752 135.889 58.2747 135.431 58.648C134.983 59.0213 134.369 59.208 133.591 59.208ZM137.031 59C137.009 59 136.999 58.968 136.999 58.904C136.999 58.84 137.009 58.808 137.031 58.808C137.34 58.808 137.564 58.7813 137.703 58.728C137.852 58.6747 137.953 58.5733 138.007 58.424C138.06 58.264 138.087 58.024 138.087 57.704V54.68C138.087 54.2853 138.044 54.0027 137.959 53.832C137.884 53.6613 137.751 53.576 137.559 53.576C137.356 53.576 137.1 53.656 136.791 53.816H136.775C136.732 53.816 136.7 53.7893 136.679 53.736C136.657 53.6827 136.668 53.6453 136.711 53.624L138.695 52.696L138.759 52.68C138.78 52.68 138.801 52.6907 138.823 52.712C138.855 52.7333 138.871 52.76 138.871 52.792C138.871 52.856 138.865 53.0693 138.855 53.432C138.844 53.784 138.839 54.1947 138.839 54.664V57.704C138.839 58.024 138.86 58.264 138.903 58.424C138.956 58.5733 139.052 58.6747 139.191 58.728C139.34 58.7813 139.569 58.808 139.879 58.808C139.911 58.808 139.927 58.84 139.927 58.904C139.927 58.968 139.911 59 139.879 59C139.633 59 139.441 58.9947 139.303 58.984L138.455 58.968L137.623 58.984C137.473 58.9947 137.276 59 137.031 59ZM148.333 59C148.301 59 148.285 58.968 148.285 58.904C148.285 58.84 148.301 58.808 148.333 58.808C148.535 58.808 148.679 58.7973 148.765 58.776C148.861 58.744 148.909 58.6907 148.909 58.616C148.909 58.552 148.839 58.408 148.701 58.184L146.029 54.152C145.762 53.7467 145.485 53.4587 145.197 53.288C144.909 53.1067 144.642 53.016 144.397 53.016C144.375 53.016 144.365 52.984 144.365 52.92C144.365 52.856 144.375 52.824 144.397 52.824C144.621 52.824 144.786 52.8293 144.893 52.84L145.389 52.856L146.397 52.84C146.546 52.8293 146.749 52.824 147.005 52.824C147.026 52.824 147.037 52.856 147.037 52.92C147.037 52.984 147.026 53.016 147.005 53.016C146.802 53.016 146.653 53.032 146.557 53.064C146.471 53.0853 146.429 53.1333 146.429 53.208C146.429 53.272 146.498 53.416 146.637 53.64L149.309 57.672C149.575 58.0773 149.853 58.3707 150.141 58.552C150.429 58.7227 150.695 58.808 150.941 58.808C150.962 58.808 150.973 58.84 150.973 58.904C150.973 58.968 150.962 59 150.941 59L150.429 58.984C150.322 58.9733 150.162 58.968 149.949 58.968L148.941 58.984C148.791 58.9947 148.589 59 148.333 59ZM144.381 59C144.359 59 144.349 58.968 144.349 58.904C144.349 58.84 144.359 58.808 144.381 58.808C144.647 58.808 144.935 58.7173 145.245 58.536C145.565 58.344 145.853 58.0667 146.109 57.704L147.453 55.832L147.645 55.976L146.381 57.8C146.295 57.928 146.221 58.0507 146.157 58.168C146.103 58.2747 146.077 58.3707 146.077 58.456C146.077 58.6907 146.397 58.808 147.037 58.808C147.069 58.808 147.085 58.84 147.085 58.904C147.085 58.968 147.069 59 147.037 59C146.749 59 146.535 58.9947 146.397 58.984L145.437 58.968L144.877 58.984C144.77 58.9947 144.605 59 144.381 59ZM147.533 55.768L148.701 54.024C148.925 53.7147 149.037 53.4907 149.037 53.352C149.037 53.2347 148.962 53.1493 148.813 53.096C148.663 53.0427 148.407 53.016 148.045 53.016C148.023 53.016 148.013 52.984 148.013 52.92C148.013 52.856 148.023 52.824 148.045 52.824C148.333 52.824 148.551 52.8293 148.701 52.84L149.661 52.856L150.221 52.84C150.327 52.8293 150.493 52.824 150.717 52.824C150.738 52.824 150.749 52.856 150.749 52.92C150.749 52.984 150.738 53.016 150.717 53.016C150.439 53.016 150.151 53.1067 149.853 53.288C149.554 53.4587 149.266 53.736 148.989 54.12L147.677 55.912L147.533 55.768ZM154.852 59.208C154.244 59.208 153.705 59.0587 153.236 58.76C152.767 58.4507 152.404 58.04 152.148 57.528C151.892 57.0053 151.764 56.44 151.764 55.832C151.764 55.1387 151.929 54.552 152.26 54.072C152.601 53.5813 153.028 53.2187 153.54 52.984C154.063 52.7387 154.596 52.616 155.14 52.616C155.759 52.616 156.297 52.7707 156.756 53.08C157.225 53.3893 157.583 53.8 157.828 54.312C158.084 54.8133 158.212 55.3467 158.212 55.912C158.212 56.5733 158.057 57.1547 157.748 57.656C157.449 58.1573 157.044 58.5413 156.532 58.808C156.02 59.0747 155.46 59.208 154.852 59.208ZM155.3 58.92C155.919 58.92 156.404 58.712 156.756 58.296C157.108 57.88 157.284 57.224 157.284 56.328C157.284 55.688 157.172 55.112 156.948 54.6C156.724 54.0773 156.409 53.6667 156.004 53.368C155.599 53.0693 155.135 52.92 154.612 52.92C154.004 52.92 153.529 53.1333 153.188 53.56C152.847 53.976 152.676 54.5787 152.676 55.368C152.676 56.008 152.788 56.6 153.012 57.144C153.236 57.6773 153.545 58.1093 153.94 58.44C154.335 58.76 154.788 58.92 155.3 58.92ZM167.757 59C167.736 59 167.725 58.968 167.725 58.904C167.725 58.84 167.736 58.808 167.757 58.808C168.066 58.808 168.29 58.7813 168.429 58.728C168.578 58.6747 168.68 58.5733 168.733 58.424C168.786 58.264 168.813 58.024 168.813 57.704V55.096C168.813 54.4453 168.696 53.9653 168.461 53.656C168.237 53.3467 167.88 53.192 167.389 53.192C167.005 53.192 166.61 53.3307 166.205 53.608C165.8 53.8747 165.442 54.2373 165.133 54.696L165.069 54.504C165.549 53.8533 166.008 53.384 166.445 53.096C166.882 52.808 167.341 52.664 167.821 52.664C168.386 52.664 168.818 52.824 169.117 53.144C169.416 53.464 169.565 53.9493 169.565 54.6V57.704C169.565 58.024 169.586 58.264 169.629 58.424C169.682 58.5733 169.778 58.6747 169.917 58.728C170.066 58.7813 170.296 58.808 170.605 58.808C170.637 58.808 170.653 58.84 170.653 58.904C170.653 58.968 170.637 59 170.605 59C170.36 59 170.168 58.9947 170.029 58.984L169.181 58.968L168.349 58.984C168.2 58.9947 168.002 59 167.757 59ZM163.645 59C163.613 59 163.597 58.968 163.597 58.904C163.597 58.84 163.613 58.808 163.645 58.808C163.954 58.808 164.178 58.7813 164.317 58.728C164.456 58.6747 164.552 58.5733 164.605 58.424C164.658 58.264 164.685 58.024 164.685 57.704V55.096C164.685 54.4453 164.568 53.9653 164.333 53.656C164.109 53.3467 163.757 53.192 163.277 53.192C162.882 53.192 162.482 53.3307 162.077 53.608C161.682 53.8747 161.33 54.2373 161.021 54.696L160.957 54.504C161.426 53.8533 161.88 53.384 162.317 53.096C162.765 52.808 163.224 52.664 163.693 52.664C164.258 52.664 164.69 52.824 164.989 53.144C165.288 53.464 165.437 53.9493 165.437 54.6V57.704C165.437 58.024 165.464 58.264 165.517 58.424C165.57 58.5733 165.666 58.6747 165.805 58.728C165.954 58.7813 166.184 58.808 166.493 58.808C166.514 58.808 166.525 58.84 166.525 58.904C166.525 58.968 166.514 59 166.493 59C166.248 59 166.05 58.9947 165.901 58.984L165.069 58.968L164.221 58.984C164.082 58.9947 163.89 59 163.645 59ZM159.533 59C159.501 59 159.485 58.968 159.485 58.904C159.485 58.84 159.501 58.808 159.533 58.808C159.842 58.808 160.066 58.7813 160.205 58.728C160.344 58.6747 160.44 58.5733 160.493 58.424C160.546 58.264 160.573 58.024 160.573 57.704V54.504C160.573 54.1307 160.53 53.864 160.445 53.704C160.36 53.544 160.21 53.464 159.997 53.464C159.826 53.464 159.528 53.544 159.101 53.704H159.069C159.026 53.704 158.994 53.6827 158.973 53.64C158.962 53.5867 158.978 53.5493 159.021 53.528L160.797 52.696C160.818 52.6853 160.845 52.68 160.877 52.68C160.962 52.68 161.058 52.8027 161.165 53.048C161.272 53.2827 161.325 53.5867 161.325 53.96V57.704C161.325 58.024 161.346 58.264 161.389 58.424C161.442 58.5733 161.538 58.6747 161.677 58.728C161.826 58.7813 162.056 58.808 162.365 58.808C162.397 58.808 162.413 58.84 162.413 58.904C162.413 58.968 162.397 59 162.365 59C162.12 59 161.928 58.9947 161.789 58.984L160.957 58.968L160.109 58.984C159.97 58.9947 159.778 59 159.533 59ZM174.393 59.192C173.785 59.192 173.268 59.048 172.841 58.76C172.414 58.472 172.089 58.0987 171.865 57.64C171.652 57.1707 171.545 56.664 171.545 56.12C171.545 55.4907 171.694 54.9147 171.993 54.392C172.292 53.8587 172.692 53.4427 173.193 53.144C173.705 52.8347 174.26 52.68 174.857 52.68C175.454 52.68 175.902 52.8453 176.201 53.176C176.51 53.496 176.665 53.9387 176.665 54.504C176.665 54.6533 176.649 54.76 176.617 54.824C176.596 54.8773 176.548 54.904 176.473 54.904H175.721C175.732 54.8293 175.737 54.728 175.737 54.6C175.737 54.0667 175.609 53.6667 175.353 53.4C175.108 53.1333 174.772 53 174.345 53C173.748 53 173.284 53.224 172.953 53.672C172.622 54.12 172.457 54.744 172.457 55.544C172.457 56.472 172.676 57.2293 173.113 57.816C173.55 58.392 174.164 58.68 174.953 58.68C175.284 58.68 175.566 58.6373 175.801 58.552C176.036 58.456 176.292 58.3173 176.569 58.136H176.585C176.617 58.136 176.644 58.1573 176.665 58.2C176.697 58.232 176.702 58.264 176.681 58.296C175.977 58.8933 175.214 59.192 174.393 59.192ZM172.233 54.728L175.881 54.664V54.904L172.249 54.92L172.233 54.728ZM177.518 59C177.475 59 177.454 58.968 177.454 58.904C177.454 58.84 177.475 58.808 177.518 58.808C177.71 58.808 177.912 58.6747 178.126 58.408C178.339 58.1413 178.611 57.6347 178.942 56.888L180.782 52.584C180.803 52.5413 180.835 52.52 180.878 52.52C180.931 52.52 180.963 52.5413 180.974 52.584L182.958 56.808C183.246 57.4267 183.464 57.864 183.614 58.12C183.763 58.376 183.912 58.5573 184.062 58.664C184.211 58.76 184.403 58.808 184.638 58.808C184.691 58.808 184.718 58.84 184.718 58.904C184.718 58.968 184.691 59 184.638 59C184.478 59 184.238 58.9893 183.918 58.968C183.598 58.9467 183.358 58.936 183.198 58.936C183.059 58.936 182.851 58.9467 182.574 58.968C182.275 58.9893 182.072 59 181.966 59C181.923 59 181.902 58.968 181.902 58.904C181.902 58.84 181.923 58.808 181.966 58.808C182.147 58.808 182.296 58.7653 182.414 58.68C182.542 58.584 182.606 58.44 182.606 58.248C182.606 58.0773 182.552 57.88 182.446 57.656L180.574 53.672L180.862 53.368L179.31 57.032C179.118 57.48 179.022 57.8427 179.022 58.12C179.022 58.5787 179.272 58.808 179.774 58.808C179.827 58.808 179.854 58.84 179.854 58.904C179.854 58.968 179.827 59 179.774 59C179.656 59 179.502 58.9893 179.31 58.968C179.075 58.9467 178.862 58.936 178.67 58.936C178.456 58.936 178.243 58.9467 178.03 58.968C177.838 58.9893 177.667 59 177.518 59ZM188.118 59.208C187.51 59.208 186.971 59.0587 186.502 58.76C186.032 58.4507 185.67 58.04 185.414 57.528C185.158 57.0053 185.03 56.44 185.03 55.832C185.03 55.1387 185.195 54.552 185.526 54.072C185.867 53.5813 186.294 53.2187 186.806 52.984C187.328 52.7387 187.862 52.616 188.406 52.616C189.024 52.616 189.563 52.7707 190.022 53.08C190.491 53.3893 190.848 53.8 191.094 54.312C191.35 54.8133 191.478 55.3467 191.478 55.912C191.478 56.5733 191.323 57.1547 191.014 57.656C190.715 58.1573 190.31 58.5413 189.798 58.808C189.286 59.0747 188.726 59.208 188.118 59.208ZM188.566 58.92C189.184 58.92 189.67 58.712 190.022 58.296C190.374 57.88 190.55 57.224 190.55 56.328C190.55 55.688 190.438 55.112 190.214 54.6C189.99 54.0773 189.675 53.6667 189.27 53.368C188.864 53.0693 188.4 52.92 187.878 52.92C187.27 52.92 186.795 53.1333 186.454 53.56C186.112 53.976 185.942 54.5787 185.942 55.368C185.942 56.008 186.054 56.6 186.278 57.144C186.502 57.6773 186.811 58.1093 187.206 58.44C187.6 58.76 188.054 58.92 188.566 58.92ZM195.743 59.192C195.06 59.192 194.484 59.0427 194.015 58.744C193.556 58.4347 193.215 58.04 192.991 57.56C192.767 57.08 192.655 56.5733 192.655 56.04C192.655 55.3573 192.82 54.7653 193.151 54.264C193.492 53.752 193.924 53.3627 194.447 53.096C194.98 52.8187 195.524 52.68 196.079 52.68C196.537 52.68 196.953 52.7707 197.327 52.952C197.711 53.1333 197.903 53.3467 197.903 53.592C197.903 53.72 197.86 53.832 197.775 53.928C197.689 54.0133 197.577 54.056 197.439 54.056C197.193 54.056 196.98 53.9067 196.799 53.608C196.66 53.4053 196.495 53.256 196.303 53.16C196.121 53.0533 195.876 53 195.567 53C194.927 53 194.431 53.2347 194.079 53.704C193.737 54.1627 193.567 54.7867 193.567 55.576C193.567 56.472 193.796 57.2187 194.255 57.816C194.713 58.4027 195.396 58.696 196.303 58.696C196.985 58.696 197.535 58.5093 197.951 58.136H197.983C198.015 58.136 198.041 58.152 198.063 58.184C198.095 58.216 198.095 58.2427 198.063 58.264C197.7 58.584 197.332 58.8187 196.959 58.968C196.585 59.1173 196.18 59.192 195.743 59.192ZM201.778 59.208C201.127 59.208 200.631 59.08 200.29 58.824C199.959 58.5573 199.794 58.1787 199.794 57.688V54.68C199.794 54.2427 199.757 53.9333 199.682 53.752C199.618 53.56 199.501 53.464 199.33 53.464C199.213 53.464 199.021 53.5173 198.754 53.624H198.722C198.679 53.624 198.647 53.5973 198.626 53.544C198.615 53.4907 198.631 53.4587 198.674 53.448L200.354 52.696L200.418 52.68C200.439 52.68 200.466 52.6907 200.498 52.712C200.53 52.7333 200.546 52.76 200.546 52.792V57.352C200.546 58.4507 201.031 59 202.002 59C202.962 59 203.442 58.4773 203.442 57.432C203.442 56.8987 203.298 56.472 203.01 56.152C202.722 55.8213 202.263 55.656 201.634 55.656C201.154 55.656 200.722 55.752 200.338 55.944L200.242 55.768C200.807 55.512 201.453 55.384 202.178 55.384C203.597 55.384 204.306 55.9493 204.306 57.08C204.306 57.752 204.077 58.2747 203.618 58.648C203.17 59.0213 202.557 59.208 201.778 59.208ZM62.8213 78C62.7893 78 62.7733 77.968 62.7733 77.904C62.7733 77.84 62.7893 77.808 62.8213 77.808C63.1306 77.808 63.3546 77.7813 63.4933 77.728C63.6319 77.6747 63.7279 77.5733 63.7813 77.424C63.8346 77.264 63.8613 77.024 63.8613 76.704V74.032C63.8613 73.3813 63.7386 72.9067 63.4933 72.608C63.2479 72.3093 62.8639 72.16 62.3413 72.16C61.9359 72.16 61.5199 72.2987 61.0933 72.576C60.6773 72.8427 60.3146 73.2053 60.0053 73.664L59.9413 73.472C60.4319 72.8213 60.9066 72.352 61.3653 72.064C61.8239 71.7653 62.2933 71.616 62.7733 71.616C63.3706 71.616 63.8239 71.776 64.1333 72.096C64.4533 72.416 64.6133 72.9013 64.6133 73.552V76.704C64.6133 77.024 64.6346 77.264 64.6773 77.424C64.7306 77.5733 64.8266 77.6747 64.9653 77.728C65.1146 77.7813 65.3439 77.808 65.6533 77.808C65.6853 77.808 65.7013 77.84 65.7013 77.904C65.7013 77.968 65.6853 78 65.6533 78C65.4079 78 65.2159 77.9947 65.0773 77.984L64.2453 77.968L63.3973 77.984C63.2586 77.9947 63.0666 78 62.8213 78ZM58.5173 78C58.4853 78 58.4693 77.968 58.4693 77.904C58.4693 77.84 58.4853 77.808 58.5173 77.808C58.8266 77.808 59.0506 77.7813 59.1893 77.728C59.3279 77.6747 59.4239 77.5733 59.4773 77.424C59.5306 77.264 59.5573 77.024 59.5573 76.704V73.504C59.5573 73.1307 59.5146 72.864 59.4293 72.704C59.3439 72.544 59.1946 72.464 58.9813 72.464C58.8106 72.464 58.5119 72.544 58.0853 72.704H58.0533C58.0106 72.704 57.9786 72.6827 57.9573 72.64C57.9466 72.5867 57.9626 72.5493 58.0053 72.528L59.7812 71.696C59.8026 71.6853 59.8293 71.68 59.8613 71.68C59.9466 71.68 60.0426 71.8027 60.1493 72.048C60.2559 72.2827 60.3093 72.5867 60.3093 72.96V76.704C60.3093 77.024 60.3306 77.264 60.3733 77.424C60.4266 77.5733 60.5226 77.6747 60.6613 77.728C60.8106 77.7813 61.0399 77.808 61.3493 77.808C61.3813 77.808 61.3973 77.84 61.3973 77.904C61.3973 77.968 61.3813 78 61.3493 78C61.1039 78 60.9119 77.9947 60.7733 77.984L59.9413 77.968L59.0933 77.984C58.9546 77.9947 58.7626 78 58.5173 78ZM66.5436 82.4C66.5116 82.4 66.4956 82.368 66.4956 82.304C66.4956 82.24 66.5116 82.208 66.5436 82.208C66.8423 82.208 67.061 82.176 67.1996 82.112C67.349 82.0587 67.4503 81.9573 67.5036 81.808C67.557 81.6587 67.5836 81.424 67.5836 81.104V73.552C67.5836 73.1573 67.541 72.8747 67.4556 72.704C67.3703 72.5333 67.2156 72.448 66.9916 72.448C66.7356 72.448 66.4423 72.528 66.1116 72.688H66.0796C66.037 72.688 66.0103 72.6667 65.9996 72.624C65.9783 72.5707 65.989 72.5333 66.0316 72.512L67.6796 71.728L67.8076 71.696C67.9676 71.696 68.0956 71.8187 68.1916 72.064C68.2876 72.3093 68.3356 72.6613 68.3356 73.12V81.104C68.3356 81.424 68.3783 81.6587 68.4636 81.808C68.549 81.9573 68.7036 82.0587 68.9276 82.112C69.1516 82.176 69.5036 82.208 69.9836 82.208C70.005 82.208 70.0156 82.24 70.0156 82.304C70.0156 82.368 70.005 82.4 69.9836 82.4C69.621 82.4 69.3383 82.3947 69.1356 82.384L67.9836 82.368L67.1196 82.384C66.981 82.3947 66.789 82.4 66.5436 82.4ZM70.1116 78.208C69.6956 78.208 69.3276 78.1493 69.0076 78.032C68.6983 77.9253 68.3623 77.728 67.9996 77.44L68.1436 76.592C68.485 77.0187 68.8423 77.344 69.2156 77.568C69.5996 77.7813 70.0743 77.888 70.6396 77.888C71.013 77.888 71.3543 77.776 71.6636 77.552C71.973 77.3173 72.213 76.9867 72.3836 76.56C72.565 76.1333 72.6556 75.632 72.6556 75.056C72.6556 74.1387 72.453 73.424 72.0476 72.912C71.653 72.4 71.1463 72.144 70.5276 72.144C70.0796 72.144 69.6743 72.2667 69.3116 72.512C68.949 72.7467 68.5596 73.0933 68.1436 73.552L68.0156 73.44C68.5596 72.8107 69.0823 72.352 69.5836 72.064C70.085 71.7653 70.5916 71.616 71.1036 71.616C71.541 71.616 71.9463 71.7333 72.3196 71.968C72.693 72.2027 72.9863 72.544 73.1996 72.992C73.4236 73.4293 73.5356 73.952 73.5356 74.56C73.5356 75.3493 73.3543 76.0213 72.9916 76.576C72.629 77.12 72.181 77.5307 71.6476 77.808C71.1143 78.0747 70.6023 78.208 70.1116 78.208ZM77.8519 78.208C77.2439 78.208 76.7052 78.0587 76.2359 77.76C75.7665 77.4507 75.4039 77.04 75.1479 76.528C74.8919 76.0053 74.7639 75.44 74.7639 74.832C74.7639 74.1387 74.9292 73.552 75.2599 73.072C75.6012 72.5813 76.0279 72.2187 76.5399 71.984C77.0625 71.7387 77.5959 71.616 78.1399 71.616C78.7585 71.616 79.2972 71.7707 79.7559 72.08C80.2252 72.3893 80.5825 72.8 80.8279 73.312C81.0839 73.8133 81.2119 74.3467 81.2119 74.912C81.2119 75.5733 81.0572 76.1547 80.7479 76.656C80.4492 77.1573 80.0439 77.5413 79.5319 77.808C79.0199 78.0747 78.4599 78.208 77.8519 78.208ZM78.2999 77.92C78.9185 77.92 79.4039 77.712 79.7559 77.296C80.1079 76.88 80.2839 76.224 80.2839 75.328C80.2839 74.688 80.1719 74.112 79.9479 73.6C79.7239 73.0773 79.4092 72.6667 79.0039 72.368C78.5985 72.0693 78.1345 71.92 77.6119 71.92C77.0039 71.92 76.5292 72.1333 76.1879 72.56C75.8465 72.976 75.6759 73.5787 75.6759 74.368C75.6759 75.008 75.7879 75.6 76.0119 76.144C76.2359 76.6773 76.5452 77.1093 76.9399 77.44C77.3345 77.76 77.7879 77.92 78.2999 77.92ZM85.2849 71.808C85.8609 71.808 86.3782 71.9467 86.8369 72.224C87.3062 72.5013 87.6742 72.8853 87.9409 73.376C88.2075 73.8667 88.3409 74.4213 88.3409 75.04C88.3409 75.6267 88.2235 76.16 87.9889 76.64C87.7542 77.12 87.4075 77.504 86.9489 77.792C86.4902 78.0693 85.9409 78.208 85.3009 78.208C84.6182 78.208 84.0689 78.0373 83.6529 77.696C83.2369 77.344 82.9275 76.7893 82.7249 76.032C82.5222 75.2747 82.4209 74.272 82.4209 73.024C82.4209 70.4107 82.7782 68.656 83.4929 67.76C84.2075 66.8533 85.0395 66.4 85.9889 66.4C87.2582 66.4 87.8929 67.008 87.8929 68.224C87.8929 68.8107 87.7435 69.3813 87.4449 69.936C87.1569 70.4907 86.7675 70.9653 86.2769 71.36C85.7969 71.7547 85.2849 72.0213 84.7409 72.16L85.2849 71.808ZM85.7329 77.904C86.3729 77.904 86.8529 77.7067 87.1729 77.312C87.4929 76.9173 87.6529 76.336 87.6529 75.568C87.6529 74.512 87.3275 73.696 86.6769 73.12C86.0262 72.544 85.1089 72.256 83.9249 72.256C83.4875 72.256 83.1675 72.2667 82.9649 72.288V71.952C83.1675 71.984 83.4822 72 83.9089 72C84.5382 72 85.1035 71.8507 85.6049 71.552C86.1062 71.2427 86.4955 70.8373 86.7729 70.336C87.0502 69.824 87.1889 69.28 87.1889 68.704C87.1889 68.1067 87.0555 67.616 86.7889 67.232C86.5329 66.8373 86.1489 66.64 85.6369 66.64C84.0582 66.64 83.2689 68.6347 83.2689 72.624C83.2689 73.968 83.3595 75.0293 83.5409 75.808C83.7222 76.576 83.9889 77.12 84.3409 77.44C84.7035 77.7493 85.1675 77.904 85.7329 77.904ZM92.3931 78.192C91.7851 78.192 91.2678 78.048 90.8411 77.76C90.4145 77.472 90.0891 77.0987 89.8651 76.64C89.6518 76.1707 89.5451 75.664 89.5451 75.12C89.5451 74.4907 89.6945 73.9147 89.9931 73.392C90.2918 72.8587 90.6918 72.4427 91.1931 72.144C91.7051 71.8347 92.2598 71.68 92.8571 71.68C93.4545 71.68 93.9025 71.8453 94.2011 72.176C94.5105 72.496 94.6651 72.9387 94.6651 73.504C94.6651 73.6533 94.6491 73.76 94.6171 73.824C94.5958 73.8773 94.5478 73.904 94.4731 73.904H93.7211C93.7318 73.8293 93.7371 73.728 93.7371 73.6C93.7371 73.0667 93.6091 72.6667 93.3531 72.4C93.1078 72.1333 92.7718 72 92.3451 72C91.7478 72 91.2838 72.224 90.9531 72.672C90.6225 73.12 90.4571 73.744 90.4571 74.544C90.4571 75.472 90.6758 76.2293 91.1131 76.816C91.5505 77.392 92.1638 77.68 92.9531 77.68C93.2838 77.68 93.5665 77.6373 93.8011 77.552C94.0358 77.456 94.2918 77.3173 94.5691 77.136H94.5851C94.6171 77.136 94.6438 77.1573 94.6651 77.2C94.6971 77.232 94.7025 77.264 94.6811 77.296C93.9771 77.8933 93.2145 78.192 92.3931 78.192ZM90.2331 73.728L93.8811 73.664V73.904L90.2491 73.92L90.2331 73.728ZM99.0238 78.192C98.3411 78.192 97.7651 78.0427 97.2958 77.744C96.8371 77.4347 96.4958 77.04 96.2718 76.56C96.0478 76.08 95.9358 75.5733 95.9358 75.04C95.9358 74.3573 96.1011 73.7653 96.4318 73.264C96.7731 72.752 97.2051 72.3627 97.7278 72.096C98.2611 71.8187 98.8051 71.68 99.3598 71.68C99.8184 71.68 100.234 71.7707 100.608 71.952C100.992 72.1333 101.184 72.3467 101.184 72.592C101.184 72.72 101.141 72.832 101.056 72.928C100.97 73.0133 100.858 73.056 100.72 73.056C100.474 73.056 100.261 72.9067 100.08 72.608C99.9411 72.4053 99.7758 72.256 99.5838 72.16C99.4024 72.0533 99.1571 72 98.8478 72C98.2078 72 97.7118 72.2347 97.3598 72.704C97.0184 73.1627 96.8478 73.7867 96.8478 74.576C96.8478 75.472 97.0771 76.2187 97.5358 76.816C97.9944 77.4027 98.6771 77.696 99.5838 77.696C100.266 77.696 100.816 77.5093 101.232 77.136H101.264C101.296 77.136 101.322 77.152 101.344 77.184C101.376 77.216 101.376 77.2427 101.344 77.264C100.981 77.584 100.613 77.8187 100.24 77.968C99.8664 78.1173 99.4611 78.192 99.0238 78.192ZM110.819 78C110.798 78 110.787 77.968 110.787 77.904C110.787 77.84 110.798 77.808 110.819 77.808C111.129 77.808 111.353 77.7813 111.491 77.728C111.641 77.6747 111.742 77.5733 111.795 77.424C111.849 77.264 111.875 77.024 111.875 76.704V74.096C111.875 73.4453 111.758 72.9653 111.523 72.656C111.299 72.3467 110.942 72.192 110.451 72.192C110.067 72.192 109.673 72.3307 109.267 72.608C108.862 72.8747 108.505 73.2373 108.195 73.696L108.131 73.504C108.611 72.8533 109.07 72.384 109.507 72.096C109.945 71.808 110.403 71.664 110.883 71.664C111.449 71.664 111.881 71.824 112.179 72.144C112.478 72.464 112.627 72.9493 112.627 73.6V76.704C112.627 77.024 112.649 77.264 112.691 77.424C112.745 77.5733 112.841 77.6747 112.979 77.728C113.129 77.7813 113.358 77.808 113.667 77.808C113.699 77.808 113.715 77.84 113.715 77.904C113.715 77.968 113.699 78 113.667 78C113.422 78 113.23 77.9947 113.091 77.984L112.243 77.968L111.411 77.984C111.262 77.9947 111.065 78 110.819 78ZM106.707 78C106.675 78 106.659 77.968 106.659 77.904C106.659 77.84 106.675 77.808 106.707 77.808C107.017 77.808 107.241 77.7813 107.379 77.728C107.518 77.6747 107.614 77.5733 107.667 77.424C107.721 77.264 107.747 77.024 107.747 76.704V74.096C107.747 73.4453 107.63 72.9653 107.395 72.656C107.171 72.3467 106.819 72.192 106.339 72.192C105.945 72.192 105.545 72.3307 105.139 72.608C104.745 72.8747 104.393 73.2373 104.083 73.696L104.019 73.504C104.489 72.8533 104.942 72.384 105.379 72.096C105.827 71.808 106.286 71.664 106.755 71.664C107.321 71.664 107.753 71.824 108.051 72.144C108.35 72.464 108.499 72.9493 108.499 73.6V76.704C108.499 77.024 108.526 77.264 108.579 77.424C108.633 77.5733 108.729 77.6747 108.867 77.728C109.017 77.7813 109.246 77.808 109.555 77.808C109.577 77.808 109.587 77.84 109.587 77.904C109.587 77.968 109.577 78 109.555 78C109.31 78 109.113 77.9947 108.963 77.984L108.131 77.968L107.283 77.984C107.145 77.9947 106.953 78 106.707 78ZM102.595 78C102.563 78 102.547 77.968 102.547 77.904C102.547 77.84 102.563 77.808 102.595 77.808C102.905 77.808 103.129 77.7813 103.267 77.728C103.406 77.6747 103.502 77.5733 103.555 77.424C103.609 77.264 103.635 77.024 103.635 76.704V73.504C103.635 73.1307 103.593 72.864 103.507 72.704C103.422 72.544 103.273 72.464 103.059 72.464C102.889 72.464 102.59 72.544 102.163 72.704H102.131C102.089 72.704 102.057 72.6827 102.035 72.64C102.025 72.5867 102.041 72.5493 102.083 72.528L103.859 71.696C103.881 71.6853 103.907 71.68 103.939 71.68C104.025 71.68 104.121 71.8027 104.227 72.048C104.334 72.2827 104.387 72.5867 104.387 72.96V76.704C104.387 77.024 104.409 77.264 104.451 77.424C104.505 77.5733 104.601 77.6747 104.739 77.728C104.889 77.7813 105.118 77.808 105.427 77.808C105.459 77.808 105.475 77.84 105.475 77.904C105.475 77.968 105.459 78 105.427 78C105.182 78 104.99 77.9947 104.851 77.984L104.019 77.968L103.171 77.984C103.033 77.9947 102.841 78 102.595 78ZM116.896 78.112C116.373 78.112 115.962 77.9467 115.664 77.616C115.376 77.2853 115.232 76.8 115.232 76.16V73.68C115.232 73.2427 115.194 72.9333 115.12 72.752C115.056 72.56 114.938 72.464 114.768 72.464C114.608 72.464 114.416 72.5173 114.192 72.624H114.16C114.117 72.624 114.085 72.5973 114.064 72.544C114.053 72.4907 114.069 72.4587 114.112 72.448L115.792 71.696L115.856 71.68C115.877 71.68 115.904 71.6907 115.936 71.712C115.968 71.7333 115.984 71.76 115.984 71.792V75.68C115.984 76.32 116.096 76.7947 116.32 77.104C116.544 77.4133 116.88 77.568 117.328 77.568C117.765 77.568 118.202 77.44 118.64 77.184C119.077 76.9173 119.461 76.5547 119.792 76.096L119.872 76.272C119.37 76.9227 118.874 77.392 118.384 77.68C117.904 77.968 117.408 78.112 116.896 78.112ZM120.24 76.32C120.24 76.6827 120.282 76.9493 120.368 77.12C120.464 77.28 120.618 77.36 120.832 77.36C120.938 77.36 121.066 77.3387 121.216 77.296C121.376 77.2427 121.546 77.184 121.728 77.12H121.76C121.802 77.12 121.829 77.1467 121.84 77.2C121.861 77.2427 121.85 77.2747 121.808 77.296L120.016 78.128L119.952 78.144C119.856 78.144 119.754 78.0267 119.648 77.792C119.552 77.5467 119.504 77.2373 119.504 76.864V73.68C119.504 73.2427 119.466 72.9333 119.392 72.752C119.328 72.56 119.205 72.464 119.024 72.464C118.864 72.464 118.672 72.5173 118.448 72.624H118.416C118.373 72.624 118.346 72.5973 118.336 72.544C118.325 72.4907 118.341 72.4587 118.384 72.448L120.064 71.696L120.112 71.68C120.144 71.68 120.17 71.6907 120.192 71.712C120.224 71.7333 120.24 71.76 120.24 71.792V76.32ZM128.921 71.616C129.668 71.616 130.281 71.7813 130.761 72.112C131.241 72.4427 131.588 72.8533 131.801 73.344C132.015 73.8347 132.121 74.3307 132.121 74.832C132.121 75.4613 131.961 76.032 131.641 76.544C131.332 77.056 130.905 77.4613 130.361 77.76C129.828 78.048 129.236 78.192 128.585 78.192C128.255 78.192 127.919 78.1493 127.577 78.064C127.247 77.9893 126.98 77.8827 126.777 77.744C126.703 77.7013 126.655 77.664 126.633 77.632C126.612 77.6 126.596 77.5413 126.585 77.456L126.409 76.032C126.409 76 126.436 75.984 126.489 75.984C126.553 75.9733 126.591 75.984 126.601 76.016C126.729 76.6347 126.991 77.12 127.385 77.472C127.78 77.8133 128.255 77.984 128.809 77.984C129.268 77.984 129.679 77.8613 130.041 77.616C130.404 77.3707 130.687 77.024 130.889 76.576C131.103 76.128 131.209 75.616 131.209 75.04C131.209 74.4747 131.103 73.9467 130.889 73.456C130.687 72.9653 130.383 72.576 129.977 72.288C129.572 71.9893 129.087 71.84 128.521 71.84C128.052 71.84 127.668 71.9627 127.369 72.208C127.071 72.4533 126.825 72.8747 126.633 73.472C126.623 73.4933 126.585 73.4987 126.521 73.488C126.468 73.4773 126.447 73.4613 126.457 73.44L126.809 71.296C126.809 71.2853 126.831 71.28 126.873 71.28C126.969 71.28 127.012 71.3013 127.001 71.344C126.98 71.4293 126.969 71.488 126.969 71.52C126.969 71.616 126.996 71.6907 127.049 71.744C127.103 71.7867 127.167 71.808 127.241 71.808C127.295 71.808 127.449 71.7867 127.705 71.744C127.759 71.7333 127.908 71.712 128.153 71.68C128.399 71.6373 128.655 71.616 128.921 71.616ZM128.153 74.576C128.783 74.6827 129.577 74.736 130.537 74.736H131.321V75.088C130.692 75.088 130.132 75.0987 129.641 75.12C129.161 75.1413 128.66 75.1893 128.137 75.264C128.073 75.264 128.041 75.1627 128.041 74.96C128.041 74.864 128.052 74.7733 128.073 74.688C128.095 74.6027 128.121 74.5653 128.153 74.576ZM141.679 78C141.657 78 141.647 77.968 141.647 77.904C141.647 77.84 141.657 77.808 141.679 77.808C141.988 77.808 142.212 77.7813 142.351 77.728C142.5 77.6747 142.601 77.5733 142.655 77.424C142.708 77.264 142.735 77.024 142.735 76.704V74.096C142.735 73.4453 142.617 72.9653 142.383 72.656C142.159 72.3467 141.801 72.192 141.311 72.192C140.927 72.192 140.532 72.3307 140.127 72.608C139.721 72.8747 139.364 73.2373 139.055 73.696L138.991 73.504C139.471 72.8533 139.929 72.384 140.367 72.096C140.804 71.808 141.263 71.664 141.743 71.664C142.308 71.664 142.74 71.824 143.039 72.144C143.337 72.464 143.487 72.9493 143.487 73.6V76.704C143.487 77.024 143.508 77.264 143.551 77.424C143.604 77.5733 143.7 77.6747 143.839 77.728C143.988 77.7813 144.217 77.808 144.527 77.808C144.559 77.808 144.575 77.84 144.575 77.904C144.575 77.968 144.559 78 144.527 78C144.281 78 144.089 77.9947 143.951 77.984L143.103 77.968L142.271 77.984C142.121 77.9947 141.924 78 141.679 78ZM137.567 78C137.535 78 137.519 77.968 137.519 77.904C137.519 77.84 137.535 77.808 137.567 77.808C137.876 77.808 138.1 77.7813 138.239 77.728C138.377 77.6747 138.473 77.5733 138.527 77.424C138.58 77.264 138.607 77.024 138.607 76.704V74.096C138.607 73.4453 138.489 72.9653 138.255 72.656C138.031 72.3467 137.679 72.192 137.199 72.192C136.804 72.192 136.404 72.3307 135.999 72.608C135.604 72.8747 135.252 73.2373 134.943 73.696L134.879 73.504C135.348 72.8533 135.801 72.384 136.239 72.096C136.687 71.808 137.145 71.664 137.615 71.664C138.18 71.664 138.612 71.824 138.911 72.144C139.209 72.464 139.359 72.9493 139.359 73.6V76.704C139.359 77.024 139.385 77.264 139.439 77.424C139.492 77.5733 139.588 77.6747 139.727 77.728C139.876 77.7813 140.105 77.808 140.415 77.808C140.436 77.808 140.447 77.84 140.447 77.904C140.447 77.968 140.436 78 140.415 78C140.169 78 139.972 77.9947 139.823 77.984L138.991 77.968L138.143 77.984C138.004 77.9947 137.812 78 137.567 78ZM133.455 78C133.423 78 133.407 77.968 133.407 77.904C133.407 77.84 133.423 77.808 133.455 77.808C133.764 77.808 133.988 77.7813 134.127 77.728C134.265 77.6747 134.361 77.5733 134.415 77.424C134.468 77.264 134.495 77.024 134.495 76.704V73.504C134.495 73.1307 134.452 72.864 134.367 72.704C134.281 72.544 134.132 72.464 133.919 72.464C133.748 72.464 133.449 72.544 133.023 72.704H132.991C132.948 72.704 132.916 72.6827 132.895 72.64C132.884 72.5867 132.9 72.5493 132.943 72.528L134.719 71.696C134.74 71.6853 134.767 71.68 134.799 71.68C134.884 71.68 134.98 71.8027 135.087 72.048C135.193 72.2827 135.247 72.5867 135.247 72.96V76.704C135.247 77.024 135.268 77.264 135.311 77.424C135.364 77.5733 135.46 77.6747 135.599 77.728C135.748 77.7813 135.977 77.808 136.287 77.808C136.319 77.808 136.335 77.84 136.335 77.904C136.335 77.968 136.319 78 136.287 78C136.041 78 135.849 77.9947 135.711 77.984L134.879 77.968L134.031 77.984C133.892 77.9947 133.7 78 133.455 78ZM148.555 78.208C147.947 78.208 147.408 78.0587 146.939 77.76C146.47 77.4507 146.107 77.04 145.851 76.528C145.595 76.0053 145.467 75.44 145.467 74.832C145.467 74.1387 145.632 73.552 145.963 73.072C146.304 72.5813 146.731 72.2187 147.243 71.984C147.766 71.7387 148.299 71.616 148.843 71.616C149.462 71.616 150 71.7707 150.459 72.08C150.928 72.3893 151.286 72.8 151.531 73.312C151.787 73.8133 151.915 74.3467 151.915 74.912C151.915 75.5733 151.76 76.1547 151.451 76.656C151.152 77.1573 150.747 77.5413 150.235 77.808C149.723 78.0747 149.163 78.208 148.555 78.208ZM149.003 77.92C149.622 77.92 150.107 77.712 150.459 77.296C150.811 76.88 150.987 76.224 150.987 75.328C150.987 74.688 150.875 74.112 150.651 73.6C150.427 73.0773 150.112 72.6667 149.707 72.368C149.302 72.0693 148.838 71.92 148.315 71.92C147.707 71.92 147.232 72.1333 146.891 72.56C146.55 72.976 146.379 73.5787 146.379 74.368C146.379 75.008 146.491 75.6 146.715 76.144C146.939 76.6773 147.248 77.1093 147.643 77.44C148.038 77.76 148.491 77.92 149.003 77.92ZM161.46 78C161.439 78 161.428 77.968 161.428 77.904C161.428 77.84 161.439 77.808 161.46 77.808C161.769 77.808 161.993 77.7813 162.132 77.728C162.281 77.6747 162.383 77.5733 162.436 77.424C162.489 77.264 162.516 77.024 162.516 76.704V74.096C162.516 73.4453 162.399 72.9653 162.164 72.656C161.94 72.3467 161.583 72.192 161.092 72.192C160.708 72.192 160.313 72.3307 159.908 72.608C159.503 72.8747 159.145 73.2373 158.836 73.696L158.772 73.504C159.252 72.8533 159.711 72.384 160.148 72.096C160.585 71.808 161.044 71.664 161.524 71.664C162.089 71.664 162.521 71.824 162.82 72.144C163.119 72.464 163.268 72.9493 163.268 73.6V76.704C163.268 77.024 163.289 77.264 163.332 77.424C163.385 77.5733 163.481 77.6747 163.62 77.728C163.769 77.7813 163.999 77.808 164.308 77.808C164.34 77.808 164.356 77.84 164.356 77.904C164.356 77.968 164.34 78 164.308 78C164.063 78 163.871 77.9947 163.732 77.984L162.884 77.968L162.052 77.984C161.903 77.9947 161.705 78 161.46 78ZM157.348 78C157.316 78 157.3 77.968 157.3 77.904C157.3 77.84 157.316 77.808 157.348 77.808C157.657 77.808 157.881 77.7813 158.02 77.728C158.159 77.6747 158.255 77.5733 158.308 77.424C158.361 77.264 158.388 77.024 158.388 76.704V74.096C158.388 73.4453 158.271 72.9653 158.036 72.656C157.812 72.3467 157.46 72.192 156.98 72.192C156.585 72.192 156.185 72.3307 155.78 72.608C155.385 72.8747 155.033 73.2373 154.724 73.696L154.66 73.504C155.129 72.8533 155.583 72.384 156.02 72.096C156.468 71.808 156.927 71.664 157.396 71.664C157.961 71.664 158.393 71.824 158.692 72.144C158.991 72.464 159.14 72.9493 159.14 73.6V76.704C159.14 77.024 159.167 77.264 159.22 77.424C159.273 77.5733 159.369 77.6747 159.508 77.728C159.657 77.7813 159.887 77.808 160.196 77.808C160.217 77.808 160.228 77.84 160.228 77.904C160.228 77.968 160.217 78 160.196 78C159.951 78 159.753 77.9947 159.604 77.984L158.772 77.968L157.924 77.984C157.785 77.9947 157.593 78 157.348 78ZM153.236 78C153.204 78 153.188 77.968 153.188 77.904C153.188 77.84 153.204 77.808 153.236 77.808C153.545 77.808 153.769 77.7813 153.908 77.728C154.047 77.6747 154.143 77.5733 154.196 77.424C154.249 77.264 154.276 77.024 154.276 76.704V73.504C154.276 73.1307 154.233 72.864 154.148 72.704C154.063 72.544 153.913 72.464 153.7 72.464C153.529 72.464 153.231 72.544 152.804 72.704H152.772C152.729 72.704 152.697 72.6827 152.676 72.64C152.665 72.5867 152.681 72.5493 152.724 72.528L154.5 71.696C154.521 71.6853 154.548 71.68 154.58 71.68C154.665 71.68 154.761 71.8027 154.868 72.048C154.975 72.2827 155.028 72.5867 155.028 72.96V76.704C155.028 77.024 155.049 77.264 155.092 77.424C155.145 77.5733 155.241 77.6747 155.38 77.728C155.529 77.7813 155.759 77.808 156.068 77.808C156.1 77.808 156.116 77.84 156.116 77.904C156.116 77.968 156.1 78 156.068 78C155.823 78 155.631 77.9947 155.492 77.984L154.66 77.968L153.812 77.984C153.673 77.9947 153.481 78 153.236 78ZM171.478 82.496C170.849 82.496 170.337 82.3787 169.942 82.144C169.558 81.9093 169.366 81.6267 169.366 81.296C169.366 81.1467 169.404 81.0347 169.478 80.96C169.564 80.8853 169.66 80.848 169.766 80.848C169.884 80.848 169.985 80.88 170.07 80.944C170.156 81.0187 170.252 81.1307 170.358 81.28C170.582 81.5573 170.812 81.7707 171.046 81.92C171.281 82.08 171.622 82.16 172.07 82.16C172.625 82.16 173.062 81.9733 173.382 81.6C173.713 81.2267 173.878 80.528 173.878 79.504V72.224C174.049 72.1387 174.172 72.064 174.246 72C174.332 71.936 174.406 71.8347 174.47 71.696C174.481 71.6853 174.508 71.6853 174.55 71.696C174.593 71.696 174.614 71.7067 174.614 71.728V79.12C174.614 80.144 174.337 80.96 173.782 81.568C173.228 82.1867 172.46 82.496 171.478 82.496ZM171.286 78.144C170.636 78.144 170.092 77.9093 169.654 77.44C169.217 76.96 168.998 76.2933 168.998 75.44C168.998 74.672 169.18 74 169.542 73.424C169.905 72.8373 170.358 72.3893 170.902 72.08C171.457 71.7707 171.996 71.616 172.518 71.616C172.892 71.616 173.249 71.6907 173.59 71.84C173.932 71.9893 174.198 72.1813 174.39 72.416L173.878 73.28C173.878 72.896 173.697 72.576 173.334 72.32C172.972 72.0533 172.566 71.92 172.118 71.92C171.468 71.92 170.934 72.208 170.518 72.784C170.113 73.3493 169.91 74.0853 169.91 74.992C169.91 75.792 170.076 76.4427 170.406 76.944C170.737 77.4453 171.185 77.696 171.75 77.696C172.177 77.696 172.582 77.5573 172.966 77.28C173.361 77.0027 173.75 76.64 174.134 76.192L174.262 76.304C173.793 76.8587 173.324 77.3067 172.854 77.648C172.396 77.9787 171.873 78.144 171.286 78.144ZM179.284 78.192C178.676 78.192 178.158 78.048 177.732 77.76C177.305 77.472 176.98 77.0987 176.756 76.64C176.542 76.1707 176.436 75.664 176.436 75.12C176.436 74.4907 176.585 73.9147 176.884 73.392C177.182 72.8587 177.582 72.4427 178.084 72.144C178.596 71.8347 179.15 71.68 179.748 71.68C180.345 71.68 180.793 71.8453 181.092 72.176C181.401 72.496 181.556 72.9387 181.556 73.504C181.556 73.6533 181.54 73.76 181.508 73.824C181.486 73.8773 181.438 73.904 181.364 73.904H180.612C180.622 73.8293 180.628 73.728 180.628 73.6C180.628 73.0667 180.5 72.6667 180.244 72.4C179.998 72.1333 179.662 72 179.236 72C178.638 72 178.174 72.224 177.844 72.672C177.513 73.12 177.348 73.744 177.348 74.544C177.348 75.472 177.566 76.2293 178.004 76.816C178.441 77.392 179.054 77.68 179.844 77.68C180.174 77.68 180.457 77.6373 180.692 77.552C180.926 77.456 181.182 77.3173 181.46 77.136H181.476C181.508 77.136 181.534 77.1573 181.556 77.2C181.588 77.232 181.593 77.264 181.572 77.296C180.868 77.8933 180.105 78.192 179.284 78.192ZM177.124 73.728L180.772 73.664V73.904L177.14 73.92L177.124 73.728ZM187.144 78C187.112 78 187.096 77.968 187.096 77.904C187.096 77.84 187.112 77.808 187.144 77.808C187.453 77.808 187.677 77.7813 187.816 77.728C187.965 77.6747 188.067 77.5733 188.12 77.424C188.173 77.264 188.2 77.024 188.2 76.704V73.68C188.2 73.2427 188.163 72.9333 188.088 72.752C188.024 72.56 187.907 72.464 187.736 72.464C187.619 72.464 187.427 72.5173 187.16 72.624H187.128C187.085 72.624 187.053 72.5973 187.032 72.544C187.021 72.4907 187.037 72.4587 187.08 72.448L188.76 71.696L188.824 71.68C188.845 71.68 188.872 71.6907 188.904 71.712C188.936 71.7333 188.952 71.76 188.952 71.792V76.704C188.952 77.024 188.973 77.264 189.016 77.424C189.069 77.5733 189.165 77.6747 189.304 77.728C189.453 77.7813 189.688 77.808 190.008 77.808C190.029 77.808 190.04 77.84 190.04 77.904C190.04 77.968 190.029 78 190.008 78C189.741 78 189.533 77.9947 189.384 77.984L188.6 77.968L187.752 77.984C187.603 77.9947 187.4 78 187.144 78ZM182.84 78C182.808 78 182.792 77.968 182.792 77.904C182.792 77.84 182.808 77.808 182.84 77.808C183.16 77.808 183.389 77.7813 183.528 77.728C183.677 77.6747 183.773 77.5733 183.816 77.424C183.869 77.264 183.896 77.024 183.896 76.704V73.68C183.896 73.2427 183.859 72.9333 183.784 72.752C183.72 72.56 183.603 72.464 183.432 72.464C183.315 72.464 183.123 72.5173 182.856 72.624H182.824C182.781 72.624 182.749 72.5973 182.728 72.544C182.717 72.4907 182.733 72.4587 182.776 72.448L184.456 71.696L184.52 71.68C184.541 71.68 184.568 71.6907 184.6 71.712C184.632 71.7333 184.648 71.76 184.648 71.792V76.704C184.648 77.024 184.669 77.264 184.712 77.424C184.765 77.5733 184.861 77.6747 185 77.728C185.149 77.7813 185.384 77.808 185.704 77.808C185.725 77.808 185.736 77.84 185.736 77.904C185.736 77.968 185.725 78 185.704 78C185.437 78 185.229 77.9947 185.08 77.984L184.296 77.968L183.464 77.984C183.315 77.9947 183.107 78 182.84 78ZM184.248 74.768H188.552V75.056H184.248V74.768ZM193.606 78.208C192.956 78.208 192.46 78.08 192.118 77.824C191.788 77.5573 191.622 77.1787 191.622 76.688V73.68C191.622 73.2427 191.585 72.9333 191.51 72.752C191.446 72.56 191.329 72.464 191.158 72.464C191.041 72.464 190.849 72.5173 190.582 72.624H190.55C190.508 72.624 190.476 72.5973 190.454 72.544C190.444 72.4907 190.46 72.4587 190.502 72.448L192.182 71.696L192.246 71.68C192.268 71.68 192.294 71.6907 192.326 71.712C192.358 71.7333 192.374 71.76 192.374 71.792V76.352C192.374 77.4507 192.86 78 193.83 78C194.79 78 195.27 77.4773 195.27 76.432C195.27 75.8987 195.126 75.472 194.838 75.152C194.55 74.8213 194.092 74.656 193.462 74.656C192.982 74.656 192.55 74.752 192.166 74.944L192.07 74.768C192.636 74.512 193.281 74.384 194.006 74.384C195.425 74.384 196.134 74.9493 196.134 76.08C196.134 76.752 195.905 77.2747 195.446 77.648C194.998 78.0213 194.385 78.208 193.606 78.208ZM203.93 78.192C203.247 78.192 202.671 78.0427 202.202 77.744C201.743 77.4347 201.402 77.04 201.178 76.56C200.954 76.08 200.842 75.5733 200.842 75.04C200.842 74.3573 201.007 73.7653 201.338 73.264C201.679 72.752 202.111 72.3627 202.634 72.096C203.167 71.8187 203.711 71.68 204.266 71.68C204.725 71.68 205.141 71.7707 205.514 71.952C205.898 72.1333 206.09 72.3467 206.09 72.592C206.09 72.72 206.047 72.832 205.962 72.928C205.877 73.0133 205.765 73.056 205.626 73.056C205.381 73.056 205.167 72.9067 204.986 72.608C204.847 72.4053 204.682 72.256 204.49 72.16C204.309 72.0533 204.063 72 203.754 72C203.114 72 202.618 72.2347 202.266 72.704C201.925 73.1627 201.754 73.7867 201.754 74.576C201.754 75.472 201.983 76.2187 202.442 76.816C202.901 77.4027 203.583 77.696 204.49 77.696C205.173 77.696 205.722 77.5093 206.138 77.136H206.17C206.202 77.136 206.229 77.152 206.25 77.184C206.282 77.216 206.282 77.2427 206.25 77.264C205.887 77.584 205.519 77.8187 205.146 77.968C204.773 78.1173 204.367 78.192 203.93 78.192ZM214.004 71.808C214.58 71.808 215.097 71.9467 215.556 72.224C216.025 72.5013 216.393 72.8853 216.66 73.376C216.926 73.8667 217.06 74.4213 217.06 75.04C217.06 75.6267 216.942 76.16 216.708 76.64C216.473 77.12 216.126 77.504 215.668 77.792C215.209 78.0693 214.66 78.208 214.02 78.208C213.337 78.208 212.788 78.0373 212.372 77.696C211.956 77.344 211.646 76.7893 211.444 76.032C211.241 75.2747 211.14 74.272 211.14 73.024C211.14 70.4107 211.497 68.656 212.212 67.76C212.926 66.8533 213.758 66.4 214.708 66.4C215.977 66.4 216.612 67.008 216.612 68.224C216.612 68.8107 216.462 69.3813 216.164 69.936C215.876 70.4907 215.486 70.9653 214.996 71.36C214.516 71.7547 214.004 72.0213 213.46 72.16L214.004 71.808ZM214.452 77.904C215.092 77.904 215.572 77.7067 215.892 77.312C216.212 76.9173 216.372 76.336 216.372 75.568C216.372 74.512 216.046 73.696 215.396 73.12C214.745 72.544 213.828 72.256 212.644 72.256C212.206 72.256 211.886 72.2667 211.684 72.288V71.952C211.886 71.984 212.201 72 212.628 72C213.257 72 213.822 71.8507 214.324 71.552C214.825 71.2427 215.214 70.8373 215.492 70.336C215.769 69.824 215.908 69.28 215.908 68.704C215.908 68.1067 215.774 67.616 215.508 67.232C215.252 66.8373 214.868 66.64 214.356 66.64C212.777 66.64 211.988 68.6347 211.988 72.624C211.988 73.968 212.078 75.0293 212.26 75.808C212.441 76.576 212.708 77.12 213.06 77.44C213.422 77.7493 213.886 77.904 214.452 77.904ZM220.552 78.144C219.901 78.144 219.357 77.9093 218.92 77.44C218.483 76.96 218.264 76.2933 218.264 75.44C218.264 74.672 218.445 74 218.808 73.424C219.171 72.8373 219.624 72.3893 220.168 72.08C220.723 71.7707 221.261 71.616 221.784 71.616C222.157 71.616 222.515 71.6907 222.856 71.84C223.197 71.9893 223.464 72.1813 223.656 72.416L223.144 73.28C223.144 72.896 222.963 72.576 222.6 72.32C222.237 72.0533 221.832 71.92 221.384 71.92C220.733 71.92 220.2 72.208 219.784 72.784C219.379 73.3493 219.176 74.0853 219.176 74.992C219.176 75.792 219.341 76.4427 219.672 76.944C220.003 77.4453 220.451 77.696 221.016 77.696C221.443 77.696 221.848 77.5573 222.232 77.28C222.627 77.0027 223.016 76.64 223.4 76.192L223.528 76.304C223.059 76.8587 222.589 77.3067 222.12 77.648C221.661 77.9787 221.139 78.144 220.552 78.144ZM223.592 78.128C223.496 78.128 223.395 77.9893 223.288 77.712C223.192 77.4347 223.144 77.104 223.144 76.72V72.224C223.315 72.1387 223.437 72.064 223.512 72C223.597 71.936 223.672 71.8347 223.736 71.696C223.747 71.6853 223.773 71.6853 223.816 71.696C223.859 71.696 223.88 71.7067 223.88 71.728V76.304C223.88 76.6667 223.923 76.9333 224.008 77.104C224.104 77.264 224.259 77.344 224.472 77.344C224.579 77.344 224.707 77.3227 224.856 77.28C225.016 77.2267 225.187 77.168 225.368 77.104H225.4C225.443 77.104 225.469 77.1307 225.48 77.184C225.491 77.2267 225.475 77.2533 225.432 77.264L223.656 78.112L223.592 78.128ZM234.3 77.808C234.321 77.808 234.332 77.84 234.332 77.904C234.332 77.968 234.321 78 234.3 78C234.022 78 233.804 77.9947 233.644 77.984L232.876 77.968L232.14 77.984C232.012 77.9947 231.836 78 231.612 78C231.59 78 231.58 77.968 231.58 77.904C231.58 77.84 231.59 77.808 231.612 77.808C231.942 77.808 232.172 77.76 232.3 77.664C232.438 77.568 232.508 77.3813 232.508 77.104C232.508 77.0507 232.497 76.9173 232.476 76.704L231.932 72.896L232.476 72.176L229.996 78C229.985 78.0427 229.942 78.064 229.868 78.064C229.814 78.064 229.772 78.0427 229.74 78L227.292 73.104L227.484 72.928L227.084 76.336C227.062 76.528 227.052 76.656 227.052 76.72C227.052 77.104 227.137 77.3813 227.308 77.552C227.478 77.7227 227.74 77.808 228.092 77.808C228.124 77.808 228.14 77.84 228.14 77.904C228.14 77.968 228.124 78 228.092 78C227.868 78 227.697 77.9947 227.58 77.984L226.924 77.968L226.252 77.984C226.124 77.9947 225.942 78 225.708 78C225.676 78 225.66 77.968 225.66 77.904C225.66 77.84 225.676 77.808 225.708 77.808C226.081 77.808 226.337 77.7013 226.476 77.488C226.625 77.2747 226.721 76.8907 226.764 76.336L227.18 71.728C227.18 71.6747 227.233 71.648 227.34 71.648C227.414 71.648 227.457 71.6587 227.468 71.68L230.188 77.104L229.964 77.248L232.332 71.712C232.353 71.6587 232.401 71.632 232.476 71.632C232.518 71.632 232.556 71.6427 232.588 71.664C232.63 71.6853 232.657 71.712 232.668 71.744L233.228 76.704C233.27 77.056 233.313 77.3013 233.356 77.44C233.409 77.5787 233.5 77.6747 233.628 77.728C233.766 77.7813 233.99 77.808 234.3 77.808ZM237.364 78.112C236.842 78.112 236.431 77.9467 236.132 77.616C235.844 77.2853 235.7 76.8 235.7 76.16V73.68C235.7 73.2427 235.663 72.9333 235.588 72.752C235.524 72.56 235.407 72.464 235.236 72.464C235.076 72.464 234.884 72.5173 234.66 72.624H234.628C234.586 72.624 234.554 72.5973 234.532 72.544C234.522 72.4907 234.538 72.4587 234.58 72.448L236.26 71.696L236.324 71.68C236.346 71.68 236.372 71.6907 236.404 71.712C236.436 71.7333 236.452 71.76 236.452 71.792V75.68C236.452 76.32 236.564 76.7947 236.788 77.104C237.012 77.4133 237.348 77.568 237.796 77.568C238.234 77.568 238.671 77.44 239.108 77.184C239.546 76.9173 239.93 76.5547 240.26 76.096L240.34 76.272C239.839 76.9227 239.343 77.392 238.852 77.68C238.372 77.968 237.876 78.112 237.364 78.112ZM240.708 76.32C240.708 76.6827 240.751 76.9493 240.836 77.12C240.932 77.28 241.087 77.36 241.3 77.36C241.407 77.36 241.535 77.3387 241.684 77.296C241.844 77.2427 242.015 77.184 242.196 77.12H242.228C242.271 77.12 242.298 77.1467 242.308 77.2C242.33 77.2427 242.319 77.2747 242.276 77.296L240.484 78.128L240.42 78.144C240.324 78.144 240.223 78.0267 240.116 77.792C240.02 77.5467 239.972 77.2373 239.972 76.864V73.68C239.972 73.2427 239.935 72.9333 239.86 72.752C239.796 72.56 239.674 72.464 239.492 72.464C239.332 72.464 239.14 72.5173 238.916 72.624H238.884C238.842 72.624 238.815 72.5973 238.804 72.544C238.794 72.4907 238.81 72.4587 238.852 72.448L240.532 71.696L240.58 71.68C240.612 71.68 240.639 71.6907 240.66 71.712C240.692 71.7333 240.708 71.76 240.708 71.792V76.32ZM243.64 68.064C243.64 68.032 243.704 68.0053 243.832 67.984C243.971 67.952 244.12 67.936 244.28 67.936C244.44 67.936 244.584 67.952 244.712 67.984C244.851 68.0053 244.915 68.032 244.904 68.064C244.744 68.992 244.627 69.984 244.552 71.04C244.477 72.096 244.403 73.408 244.328 74.976C244.328 74.9973 244.301 75.008 244.248 75.008C244.195 75.008 244.168 74.9973 244.168 74.976C244.115 73.44 244.051 72.1387 243.976 71.072C243.912 69.9947 243.8 68.992 243.64 68.064ZM244.216 78.176C244.024 78.176 243.869 78.1173 243.752 78C243.635 77.8933 243.576 77.744 243.576 77.552C243.576 77.3707 243.635 77.2267 243.752 77.12C243.869 77.0133 244.024 76.96 244.216 76.96C244.419 76.96 244.573 77.0133 244.68 77.12C244.787 77.2267 244.84 77.3707 244.84 77.552C244.84 77.744 244.787 77.8933 244.68 78C244.573 78.1173 244.419 78.176 244.216 78.176Z" fill="#706760"/>
</svg>
