<svg width="194" height="23" viewBox="0 0 194 23" fill="none" xmlns="http://www.w3.org/2000/svg">
<path d="M18.34 17.276C18.508 17.276 18.6013 17.2947 18.62 17.332C18.6573 17.3507 18.676 17.444 18.676 17.612C18.676 17.9107 18.648 18.2653 18.592 18.676C18.4427 20.02 18.368 21.2987 18.368 22.512C18.368 22.6053 18.312 22.652 18.2 22.652C18.088 22.652 18.032 22.6053 18.032 22.512C18.032 20.9627 17.556 19.7587 16.604 18.9C15.652 18.0413 14.2893 17.612 12.516 17.612H5.46C3.76134 17.612 2.55734 17.9853 1.848 18.732C1.13867 19.4787 0.784002 20.7387 0.784002 22.512C0.784002 22.6053 0.728002 22.652 0.616002 22.652C0.504002 22.652 0.448002 22.6053 0.448002 22.512C0.448002 21.2427 0.392002 20.2347 0.280002 19.488C0.186668 18.76 0.130668 18.3493 0.112002 18.256C0.0373351 17.7707 1.72108e-06 17.5 1.72108e-06 17.444C1.72108e-06 17.276 0.00933506 17.1827 0.0280017 17.164C0.0653351 17.1267 0.168002 17.108 0.336002 17.108C1.71734 17.108 2.912 16.268 3.92 14.588C4.94667 12.8893 5.72134 10.892 6.244 8.596C6.76667 6.3 7.028 4.33067 7.028 2.688C7.028 1.99733 6.76667 1.456 6.244 1.064C5.72134 0.653332 4.97467 0.447999 4.004 0.447999C3.948 0.447999 3.92 0.391999 3.92 0.279999C3.92 0.167999 3.948 0.112 4.004 0.112H17.808C17.864 0.112 17.892 0.167999 17.892 0.279999C17.892 0.391999 17.864 0.447999 17.808 0.447999C17.1733 0.447999 16.7067 0.503998 16.408 0.615998C16.1093 0.709331 15.904 0.886665 15.792 1.148C15.68 1.40933 15.624 1.82 15.624 2.38V15.344C15.624 16.072 15.6613 16.548 15.736 16.772C15.8107 16.996 16.0067 17.136 16.324 17.192C16.66 17.248 17.332 17.276 18.34 17.276ZM12.516 2.436C12.516 1.85733 12.488 1.47467 12.432 1.288C12.3947 1.08267 12.292 0.961332 12.124 0.923999C11.956 0.867999 11.62 0.839998 11.116 0.839998H9.492C9.00667 0.839998 8.66134 0.886665 8.456 0.979998C8.26934 1.07333 8.13867 1.24133 8.064 1.484C8.008 1.708 7.952 2.128 7.896 2.744C7.896 2.87467 7.87734 3.12667 7.84 3.5C7.54134 6.356 6.99067 9.14667 6.188 11.872C5.38534 14.5787 4.2 16.3613 2.632 17.22L2.464 16.856H10.976C11.088 16.856 11.34 16.856 11.732 16.856C12.1427 16.856 12.376 16.7533 12.432 16.548C12.488 16.324 12.516 15.904 12.516 15.288V2.436ZM26.9682 17.948C25.6428 17.948 24.4575 17.64 23.4122 17.024C22.3668 16.3893 21.5548 15.5493 20.9762 14.504C20.3975 13.44 20.1082 12.292 20.1082 11.06C20.1082 9.64133 20.4722 8.40933 21.2002 7.364C21.9468 6.31867 22.8895 5.52533 24.0282 4.984C25.1855 4.44267 26.3708 4.172 27.5842 4.172C28.9095 4.172 30.0762 4.49867 31.0842 5.152C32.1108 5.78667 32.9042 6.62667 33.4642 7.672C34.0242 8.69867 34.3042 9.78133 34.3042 10.92C34.3042 12.1707 33.9775 13.3373 33.3242 14.42C32.6708 15.484 31.7842 16.3427 30.6642 16.996C29.5442 17.6307 28.3122 17.948 26.9682 17.948ZM27.6122 17.304C28.6575 17.304 29.4975 16.7907 30.1322 15.764C30.7855 14.7373 31.1122 13.3187 31.1122 11.508C31.1122 10.276 30.9255 9.156 30.5522 8.148C30.1788 7.14 29.6468 6.34667 28.9562 5.768C28.2842 5.17067 27.5002 4.872 26.6042 4.872C25.5215 4.872 24.7002 5.32 24.1402 6.216C23.5802 7.112 23.3002 8.43733 23.3002 10.192C23.3002 11.5173 23.4868 12.7307 23.8602 13.832C24.2522 14.9147 24.7748 15.764 25.4282 16.38C26.0815 16.996 26.8095 17.304 27.6122 17.304ZM40.5869 15.232C40.5869 15.8107 40.6429 16.24 40.7549 16.52C40.8855 16.8 41.1189 16.996 41.4549 17.108C41.8095 17.22 42.3509 17.276 43.0789 17.276C43.1349 17.276 43.1629 17.332 43.1629 17.444C43.1629 17.556 43.1349 17.612 43.0789 17.612C42.3695 17.612 41.8189 17.6027 41.4269 17.584L39.2149 17.556L37.3949 17.584C37.0589 17.6027 36.5922 17.612 35.9949 17.612C35.9575 17.612 35.9389 17.556 35.9389 17.444C35.9389 17.332 35.9575 17.276 35.9949 17.276C36.5175 17.276 36.9002 17.2293 37.1429 17.136C37.4042 17.024 37.5815 16.8373 37.6749 16.576C37.7682 16.3147 37.8149 15.904 37.8149 15.344V6.776C37.8149 6.23467 37.7589 5.83333 37.6469 5.572C37.5535 5.292 37.3762 5.10533 37.1149 5.012C36.8722 4.9 36.4989 4.844 35.9949 4.844C35.9575 4.844 35.9389 4.788 35.9389 4.676C35.9389 4.564 35.9575 4.508 35.9949 4.508L37.3669 4.536C38.1509 4.57333 38.7575 4.592 39.1869 4.592C39.6722 4.592 40.1762 4.564 40.6989 4.508C40.9042 4.48933 41.1935 4.47067 41.5669 4.452C41.9589 4.43333 42.2949 4.424 42.5749 4.424C44.1802 4.424 45.4029 4.68533 46.2429 5.208C47.0829 5.73067 47.5029 6.51467 47.5029 7.56C47.5029 8.49333 47.2695 9.28667 46.8029 9.94C46.3549 10.5933 45.7575 11.088 45.0109 11.424C44.2829 11.7413 43.5082 11.9 42.6869 11.9C42.3322 11.9 42.1175 11.8813 42.0429 11.844C41.9869 11.8067 41.9589 11.7413 41.9589 11.648C41.9589 11.536 42.0242 11.48 42.1549 11.48L42.5469 11.508C43.1069 11.508 43.5455 11.2373 43.8629 10.696C44.1989 10.136 44.3669 9.30533 44.3669 8.204C44.3669 7.04667 44.1615 6.216 43.7509 5.712C43.3402 5.18933 42.7335 4.928 41.9309 4.928C41.4642 4.928 41.1189 5.05867 40.8949 5.32C40.6895 5.56267 40.5869 6.06667 40.5869 6.832V15.232ZM56.0346 17.948C54.7092 17.948 53.5239 17.64 52.4786 17.024C51.4332 16.3893 50.6212 15.5493 50.0426 14.504C49.4639 13.44 49.1746 12.292 49.1746 11.06C49.1746 9.64133 49.5386 8.40933 50.2666 7.364C51.0132 6.31867 51.9559 5.52533 53.0946 4.984C54.2519 4.44267 55.4372 4.172 56.6506 4.172C57.9759 4.172 59.1426 4.49867 60.1506 5.152C61.1772 5.78667 61.9706 6.62667 62.5306 7.672C63.0906 8.69867 63.3706 9.78133 63.3706 10.92C63.3706 12.1707 63.0439 13.3373 62.3906 14.42C61.7372 15.484 60.8506 16.3427 59.7306 16.996C58.6106 17.6307 57.3786 17.948 56.0346 17.948ZM56.6786 17.304C57.7239 17.304 58.5639 16.7907 59.1986 15.764C59.8519 14.7373 60.1786 13.3187 60.1786 11.508C60.1786 10.276 59.9919 9.156 59.6186 8.148C59.2452 7.14 58.7132 6.34667 58.0226 5.768C57.3506 5.17067 56.5666 4.872 55.6706 4.872C54.5879 4.872 53.7666 5.32 53.2066 6.216C52.6466 7.112 52.3666 8.43733 52.3666 10.192C52.3666 11.5173 52.5532 12.7307 52.9266 13.832C53.3186 14.9147 53.8412 15.764 54.4946 16.38C55.1479 16.996 55.8759 17.304 56.6786 17.304ZM65.0613 17.612C65.0239 17.612 65.0053 17.556 65.0053 17.444C65.0053 17.332 65.0239 17.276 65.0613 17.276C65.6026 17.276 65.9946 17.2293 66.2373 17.136C66.4799 17.0427 66.6479 16.8653 66.7413 16.604C66.8346 16.324 66.8813 15.904 66.8813 15.344V6.776C66.8813 6.216 66.8346 5.80533 66.7413 5.544C66.6479 5.28267 66.4706 5.10533 66.2093 5.012C65.9666 4.9 65.5839 4.844 65.0613 4.844C65.0239 4.844 65.0053 4.788 65.0053 4.676C65.0053 4.564 65.0239 4.508 65.0613 4.508H75.4213C75.5893 4.508 75.6733 4.58267 75.6733 4.732C75.6733 5.068 75.6453 5.628 75.5893 6.412L75.4213 8.792C75.4213 8.848 75.3653 8.876 75.2533 8.876C75.16 8.876 75.104 8.848 75.0853 8.792C74.6559 7.52267 74.1333 6.58933 73.5173 5.992C72.9013 5.39467 72.1453 5.096 71.2493 5.096H71.0533C70.456 5.096 70.0733 5.208 69.9053 5.432C69.7373 5.63733 69.6533 6.09467 69.6533 6.804V15.232C69.6533 15.8107 69.7093 16.24 69.8213 16.52C69.9519 16.8 70.1853 16.996 70.5213 17.108C70.876 17.22 71.4173 17.276 72.1453 17.276C72.2013 17.276 72.2293 17.332 72.2293 17.444C72.2293 17.556 72.2013 17.612 72.1453 17.612C71.4173 17.612 70.848 17.6027 70.4373 17.584L68.2813 17.556L66.4053 17.584C66.0879 17.6027 65.6399 17.612 65.0613 17.612ZM88.4332 6.832C88.4332 6.272 88.3865 5.86133 88.2932 5.6C88.1999 5.32 88.0319 5.124 87.7892 5.012C87.5465 4.9 87.1639 4.844 86.6412 4.844C86.5852 4.844 86.5572 4.788 86.5572 4.676C86.5572 4.564 86.5852 4.508 86.6412 4.508L87.9852 4.536C88.7319 4.57333 89.3572 4.592 89.8612 4.592C90.3092 4.592 90.9252 4.57333 91.7092 4.536L93.0532 4.508C93.1092 4.508 93.1372 4.564 93.1372 4.676C93.1372 4.788 93.1092 4.844 93.0532 4.844C92.5305 4.844 92.1385 4.9 91.8772 5.012C91.6345 5.10533 91.4665 5.28267 91.3732 5.544C91.2799 5.80533 91.2332 6.216 91.2332 6.776V15.344C91.2332 15.904 91.2799 16.324 91.3732 16.604C91.4665 16.8653 91.6345 17.0427 91.8772 17.136C92.1199 17.2293 92.5119 17.276 93.0532 17.276C93.1092 17.276 93.1372 17.332 93.1372 17.444C93.1372 17.556 93.1092 17.612 93.0532 17.612C92.4745 17.612 92.0265 17.6027 91.7092 17.584L89.8612 17.556L87.9852 17.584C87.6679 17.6027 87.2199 17.612 86.6412 17.612C86.5852 17.612 86.5572 17.556 86.5572 17.444C86.5572 17.332 86.5852 17.276 86.6412 17.276C87.1639 17.276 87.5465 17.2293 87.7892 17.136C88.0319 17.0427 88.1999 16.8653 88.2932 16.604C88.3865 16.324 88.4332 15.904 88.4332 15.344V6.832ZM80.0052 15.568L89.7212 5.852L90.2812 6.412L80.5372 16.128L80.0052 15.568ZM78.9132 6.776C78.9132 6.216 78.8665 5.80533 78.7732 5.544C78.6799 5.28267 78.5025 5.10533 78.2412 5.012C77.9985 4.9 77.6252 4.844 77.1212 4.844C77.0652 4.844 77.0372 4.788 77.0372 4.676C77.0372 4.564 77.0652 4.508 77.1212 4.508L78.4652 4.536C79.2119 4.57333 79.8185 4.592 80.2852 4.592C80.7892 4.592 81.4145 4.57333 82.1612 4.536L83.5052 4.508C83.5425 4.508 83.5612 4.564 83.5612 4.676C83.5612 4.788 83.5425 4.844 83.5052 4.844C82.7585 4.844 82.2639 4.97467 82.0212 5.236C81.7972 5.49733 81.6852 6.02933 81.6852 6.832V15.344C81.6852 15.904 81.7319 16.3147 81.8252 16.576C81.9185 16.8373 82.0865 17.024 82.3292 17.136C82.5905 17.2293 82.9825 17.276 83.5052 17.276C83.5425 17.276 83.5612 17.332 83.5612 17.444C83.5612 17.556 83.5425 17.612 83.5052 17.612C82.9265 17.612 82.4785 17.6027 82.1612 17.584L80.2852 17.556L78.4652 17.584C78.1292 17.6027 77.6625 17.612 77.0652 17.612C77.0279 17.612 77.0092 17.556 77.0092 17.444C77.0092 17.332 77.0279 17.276 77.0652 17.276C77.6065 17.276 77.9985 17.2293 78.2412 17.136C78.5025 17.0427 78.6799 16.8653 78.7732 16.604C78.8665 16.324 78.9132 15.904 78.9132 15.344V6.776ZM94.7566 17.612C94.7193 17.612 94.7006 17.556 94.7006 17.444C94.7006 17.332 94.7193 17.276 94.7566 17.276C95.2979 17.276 95.6899 17.2293 95.9326 17.136C96.1753 17.0427 96.3433 16.8653 96.4366 16.604C96.5299 16.324 96.5766 15.904 96.5766 15.344V6.776C96.5766 6.216 96.5299 5.80533 96.4366 5.544C96.3433 5.28267 96.1659 5.10533 95.9046 5.012C95.6619 4.9 95.2793 4.844 94.7566 4.844C94.7193 4.844 94.7006 4.788 94.7006 4.676C94.7006 4.564 94.7193 4.508 94.7566 4.508H104.781C104.967 4.508 105.061 4.58267 105.061 4.732L105.089 6.468C105.107 6.82267 105.117 7.27067 105.117 7.812C105.117 7.868 105.061 7.896 104.949 7.896C104.855 7.896 104.799 7.868 104.781 7.812C104.426 6.99067 103.885 6.3 103.157 5.74C102.429 5.16133 101.691 4.872 100.945 4.872H100.749C100.338 4.872 100.03 4.928 99.8246 5.04C99.6379 5.13333 99.5073 5.31067 99.4326 5.572C99.3766 5.83333 99.3486 6.244 99.3486 6.804V15.232C99.3486 15.792 99.3766 16.2027 99.4326 16.464C99.5073 16.7253 99.6379 16.912 99.8246 17.024C100.03 17.1173 100.338 17.164 100.749 17.164H101.057C101.934 17.164 102.802 16.856 103.661 16.24C104.519 15.6053 105.154 14.8213 105.565 13.888C105.602 13.832 105.667 13.804 105.761 13.804C105.854 13.804 105.901 13.832 105.901 13.888C105.77 15.232 105.705 16.3333 105.705 17.192C105.705 17.3413 105.677 17.4533 105.621 17.528C105.565 17.584 105.453 17.612 105.285 17.612H94.7566ZM103.633 11.62C103.539 11.62 103.082 11.564 102.261 11.452C101.458 11.34 100.077 11.284 98.1166 11.284V10.584C100.077 10.584 101.458 10.5373 102.261 10.444C103.082 10.332 103.539 10.276 103.633 10.276C103.763 10.276 103.829 10.4813 103.829 10.892C103.829 11.0787 103.81 11.2467 103.773 11.396C103.735 11.5453 103.689 11.62 103.633 11.62ZM114.307 17.612C114.27 17.612 114.251 17.556 114.251 17.444C114.251 17.332 114.27 17.276 114.307 17.276C114.849 17.276 115.241 17.2293 115.483 17.136C115.726 17.0427 115.894 16.8653 115.987 16.604C116.081 16.324 116.127 15.904 116.127 15.344V6.776C116.127 6.216 116.081 5.80533 115.987 5.544C115.894 5.28267 115.717 5.10533 115.455 5.012C115.213 4.9 114.83 4.844 114.307 4.844C114.27 4.844 114.251 4.788 114.251 4.676C114.251 4.564 114.27 4.508 114.307 4.508H124.667C124.835 4.508 124.919 4.58267 124.919 4.732C124.919 5.068 124.891 5.628 124.835 6.412L124.667 8.792C124.667 8.848 124.611 8.876 124.499 8.876C124.406 8.876 124.35 8.848 124.331 8.792C123.902 7.52267 123.379 6.58933 122.763 5.992C122.147 5.39467 121.391 5.096 120.495 5.096H120.299C119.702 5.096 119.319 5.208 119.151 5.432C118.983 5.63733 118.899 6.09467 118.899 6.804V15.232C118.899 15.8107 118.955 16.24 119.067 16.52C119.198 16.8 119.431 16.996 119.767 17.108C120.122 17.22 120.663 17.276 121.391 17.276C121.447 17.276 121.475 17.332 121.475 17.444C121.475 17.556 121.447 17.612 121.391 17.612C120.663 17.612 120.094 17.6027 119.683 17.584L117.527 17.556L115.651 17.584C115.334 17.6027 114.886 17.612 114.307 17.612ZM133.171 17.948C131.846 17.948 130.661 17.64 129.615 17.024C128.57 16.3893 127.758 15.5493 127.179 14.504C126.601 13.44 126.311 12.292 126.311 11.06C126.311 9.64133 126.675 8.40933 127.403 7.364C128.15 6.31867 129.093 5.52533 130.231 4.984C131.389 4.44267 132.574 4.172 133.787 4.172C135.113 4.172 136.279 4.49867 137.287 5.152C138.314 5.78667 139.107 6.62667 139.667 7.672C140.227 8.69867 140.507 9.78133 140.507 10.92C140.507 12.1707 140.181 13.3373 139.527 14.42C138.874 15.484 137.987 16.3427 136.867 16.996C135.747 17.6307 134.515 17.948 133.171 17.948ZM133.815 17.304C134.861 17.304 135.701 16.7907 136.335 15.764C136.989 14.7373 137.315 13.3187 137.315 11.508C137.315 10.276 137.129 9.156 136.755 8.148C136.382 7.14 135.85 6.34667 135.159 5.768C134.487 5.17067 133.703 4.872 132.807 4.872C131.725 4.872 130.903 5.32 130.343 6.216C129.783 7.112 129.503 8.43733 129.503 10.192C129.503 11.5173 129.69 12.7307 130.063 13.832C130.455 14.9147 130.978 15.764 131.631 16.38C132.285 16.996 133.013 17.304 133.815 17.304ZM149.982 4.172C150.673 4.172 151.419 4.24667 152.222 4.396C153.043 4.54533 153.715 4.74133 154.238 4.984C154.369 5.04 154.453 5.10533 154.49 5.18C154.527 5.236 154.546 5.32933 154.546 5.46L154.686 8.344C154.686 8.4 154.639 8.43733 154.546 8.456C154.453 8.47467 154.387 8.44667 154.35 8.372C153.641 7.15867 152.913 6.26267 152.166 5.684C151.438 5.08667 150.598 4.788 149.646 4.788C148.321 4.788 147.303 5.32 146.594 6.384C145.885 7.42933 145.53 8.82933 145.53 10.584C145.53 11.7413 145.689 12.8333 146.006 13.86C146.342 14.8867 146.865 15.7267 147.574 16.38C148.283 17.0333 149.179 17.36 150.262 17.36C151.214 17.36 152.017 17.0707 152.67 16.492C153.342 15.9133 153.995 14.98 154.63 13.692C154.649 13.6173 154.705 13.5893 154.798 13.608C154.891 13.6267 154.938 13.664 154.938 13.72L154.714 16.688C154.695 16.8373 154.667 16.94 154.63 16.996C154.593 17.052 154.49 17.1173 154.322 17.192C152.885 17.696 151.391 17.948 149.842 17.948C148.05 17.948 146.585 17.5933 145.446 16.884C144.307 16.1747 143.477 15.288 142.954 14.224C142.45 13.16 142.198 12.0867 142.198 11.004C142.198 9.73467 142.534 8.57733 143.206 7.532C143.897 6.48667 144.83 5.66533 146.006 5.068C147.201 4.47067 148.526 4.172 149.982 4.172ZM160.77 5.068C160.06 5.068 159.379 5.36667 158.726 5.964C158.091 6.56133 157.587 7.37333 157.214 8.4C157.195 8.456 157.139 8.484 157.046 8.484C156.952 8.484 156.906 8.456 156.906 8.4C156.98 7.80267 157.064 7.028 157.158 6.076C157.251 5.10533 157.298 4.37733 157.298 3.892C157.298 3.79867 157.344 3.752 157.438 3.752C157.55 3.752 157.606 3.79867 157.606 3.892C157.606 4.13467 157.746 4.29333 158.026 4.368C158.306 4.424 158.66 4.452 159.09 4.452C160.695 4.48933 162.104 4.508 163.318 4.508L165.754 4.48C166.071 4.46133 166.5 4.452 167.042 4.452C167.77 4.452 168.311 4.41467 168.666 4.34C169.039 4.24667 169.272 4.06 169.366 3.78C169.384 3.724 169.44 3.696 169.534 3.696C169.646 3.696 169.702 3.724 169.702 3.78L169.618 5.18C169.506 6.82267 169.45 7.896 169.45 8.4C169.45 8.456 169.394 8.484 169.282 8.484C169.17 8.484 169.114 8.456 169.114 8.4C169.02 7.82133 168.806 7.28 168.47 6.776C168.134 6.25333 167.732 5.84267 167.266 5.544C166.818 5.22667 166.36 5.068 165.894 5.068C165.446 5.068 165.147 5.18933 164.998 5.432C164.848 5.656 164.774 6.104 164.774 6.776V15.344C164.774 15.904 164.82 16.324 164.914 16.604C165.026 16.8653 165.222 17.0427 165.502 17.136C165.782 17.2293 166.23 17.276 166.846 17.276C166.902 17.276 166.93 17.332 166.93 17.444C166.93 17.556 166.902 17.612 166.846 17.612C166.23 17.612 165.744 17.6027 165.39 17.584L163.29 17.556L161.246 17.584C160.891 17.6027 160.387 17.612 159.734 17.612C159.696 17.612 159.678 17.556 159.678 17.444C159.678 17.332 159.696 17.276 159.734 17.276C160.368 17.276 160.826 17.2293 161.106 17.136C161.404 17.0427 161.6 16.8653 161.694 16.604C161.806 16.324 161.862 15.904 161.862 15.344V6.72C161.862 6.02933 161.796 5.58133 161.666 5.376C161.535 5.17067 161.236 5.068 160.77 5.068ZM182.468 6.832C182.468 6.272 182.422 5.86133 182.328 5.6C182.235 5.32 182.067 5.124 181.824 5.012C181.582 4.9 181.199 4.844 180.676 4.844C180.62 4.844 180.592 4.788 180.592 4.676C180.592 4.564 180.62 4.508 180.676 4.508L182.02 4.536C182.767 4.57333 183.392 4.592 183.896 4.592C184.344 4.592 184.96 4.57333 185.744 4.536L187.088 4.508C187.144 4.508 187.172 4.564 187.172 4.676C187.172 4.788 187.144 4.844 187.088 4.844C186.566 4.844 186.174 4.9 185.912 5.012C185.67 5.10533 185.502 5.28267 185.408 5.544C185.315 5.80533 185.268 6.216 185.268 6.776V15.344C185.268 15.904 185.315 16.324 185.408 16.604C185.502 16.8653 185.67 17.0427 185.912 17.136C186.155 17.2293 186.547 17.276 187.088 17.276C187.144 17.276 187.172 17.332 187.172 17.444C187.172 17.556 187.144 17.612 187.088 17.612C186.51 17.612 186.062 17.6027 185.744 17.584L183.896 17.556L182.02 17.584C181.703 17.6027 181.255 17.612 180.676 17.612C180.62 17.612 180.592 17.556 180.592 17.444C180.592 17.332 180.62 17.276 180.676 17.276C181.199 17.276 181.582 17.2293 181.824 17.136C182.067 17.0427 182.235 16.8653 182.328 16.604C182.422 16.324 182.468 15.904 182.468 15.344V6.832ZM174.04 15.568L183.756 5.852L184.316 6.412L174.572 16.128L174.04 15.568ZM172.948 6.776C172.948 6.216 172.902 5.80533 172.808 5.544C172.715 5.28267 172.538 5.10533 172.276 5.012C172.034 4.9 171.66 4.844 171.156 4.844C171.1 4.844 171.072 4.788 171.072 4.676C171.072 4.564 171.1 4.508 171.156 4.508L172.5 4.536C173.247 4.57333 173.854 4.592 174.32 4.592C174.824 4.592 175.45 4.57333 176.196 4.536L177.54 4.508C177.578 4.508 177.596 4.564 177.596 4.676C177.596 4.788 177.578 4.844 177.54 4.844C176.794 4.844 176.299 4.97467 176.056 5.236C175.832 5.49733 175.72 6.02933 175.72 6.832V15.344C175.72 15.904 175.767 16.3147 175.86 16.576C175.954 16.8373 176.122 17.024 176.364 17.136C176.626 17.2293 177.018 17.276 177.54 17.276C177.578 17.276 177.596 17.332 177.596 17.444C177.596 17.556 177.578 17.612 177.54 17.612C176.962 17.612 176.514 17.6027 176.196 17.584L174.32 17.556L172.5 17.584C172.164 17.6027 171.698 17.612 171.1 17.612C171.063 17.612 171.044 17.556 171.044 17.444C171.044 17.332 171.063 17.276 171.1 17.276C171.642 17.276 172.034 17.2293 172.276 17.136C172.538 17.0427 172.715 16.8653 172.808 16.604C172.902 16.324 172.948 15.904 172.948 15.344V6.776ZM189.66 0.391999C189.622 0.261332 189.818 0.167999 190.248 0.112C190.677 0.0373327 191.134 -7.15256e-07 191.62 -7.15256e-07C192.105 -7.15256e-07 192.562 0.0373327 192.992 0.112C193.44 0.167999 193.645 0.261332 193.608 0.391999C193.197 1.81067 192.889 3.36 192.684 5.04C192.497 6.72 192.301 8.848 192.096 11.424C192.096 11.6107 192.077 11.9093 192.04 12.32C192.04 12.3573 191.984 12.3947 191.872 12.432C191.778 12.4507 191.676 12.46 191.564 12.46C191.452 12.46 191.34 12.4507 191.228 12.432C191.134 12.3947 191.088 12.3573 191.088 12.32C190.92 9.55733 190.742 7.27067 190.556 5.46C190.369 3.63067 190.07 1.94133 189.66 0.391999ZM191.452 17.92C190.929 17.92 190.509 17.7707 190.192 17.472C189.893 17.1547 189.744 16.7347 189.744 16.212C189.744 15.7267 189.893 15.3347 190.192 15.036C190.509 14.7373 190.929 14.588 191.452 14.588C191.974 14.588 192.376 14.7373 192.656 15.036C192.954 15.316 193.104 15.708 193.104 16.212C193.104 16.7533 192.954 17.1733 192.656 17.472C192.376 17.7707 191.974 17.92 191.452 17.92Z" fill="#706760"/>
</svg>
