<svg width="322" height="80" viewBox="0 0 322 80" fill="none" xmlns="http://www.w3.org/2000/svg">
<rect y="18" width="322" height="62" rx="31" fill="#DD9794"/>
<rect x="233" y="24" width="31" height="49" rx="15" fill="#706760"/>
<path d="M34.039 41.1654C34.0577 41.1654 34.067 41.1934 34.067 41.2494C34.067 41.3054 34.0577 41.3334 34.039 41.3334C33.7403 41.3334 33.507 41.3287 33.339 41.3194L32.415 41.3054L31.463 41.3194C31.295 41.3287 31.071 41.3334 30.791 41.3334C30.7723 41.3334 30.763 41.3054 30.763 41.2494C30.763 41.1934 30.7723 41.1654 30.791 41.1654C31.1643 41.1654 31.435 41.142 31.603 41.0954C31.771 41.0487 31.883 40.96 31.939 40.8294C32.0043 40.6987 32.037 40.4887 32.037 40.1994V33.7454C32.037 33.428 32.0183 33.218 31.981 33.1154C31.9437 33.0127 31.855 32.9474 31.715 32.9194C31.575 32.8914 31.2857 32.8774 30.847 32.8774H27.977C27.529 32.8774 27.2257 32.8914 27.067 32.9194C26.9083 32.9474 26.8103 33.0174 26.773 33.1294C26.7357 33.232 26.717 33.4374 26.717 33.7454V40.1994C26.717 40.4887 26.745 40.6987 26.801 40.8294C26.8663 40.96 26.983 41.0487 27.151 41.0954C27.319 41.142 27.5897 41.1654 27.963 41.1654C27.9817 41.1654 27.991 41.1934 27.991 41.2494C27.991 41.3054 27.9817 41.3334 27.963 41.3334C27.683 41.3334 27.459 41.3287 27.291 41.3194L26.339 41.3054L25.415 41.3194C25.247 41.3287 25.0137 41.3334 24.715 41.3334C24.6963 41.3334 24.687 41.3054 24.687 41.2494C24.687 41.1934 24.6963 41.1654 24.715 41.1654C25.079 41.1654 25.345 41.142 25.513 41.0954C25.6903 41.0487 25.8117 40.96 25.877 40.8294C25.9423 40.6894 25.975 40.4794 25.975 40.1994V33.8854C25.975 33.596 25.9423 33.372 25.877 33.2134C25.821 33.0547 25.6997 32.938 25.513 32.8634C25.3357 32.7887 25.0743 32.7514 24.729 32.7514C24.7103 32.7514 24.701 32.7234 24.701 32.6674C24.701 32.6114 24.7103 32.5834 24.729 32.5834C25.0463 32.5834 25.345 32.588 25.625 32.5974C26.857 32.616 28.1263 32.6254 29.433 32.6254C30.609 32.6254 31.981 32.6114 33.549 32.5834H34.039C34.0577 32.5834 34.067 32.6114 34.067 32.6674C34.067 32.7234 34.0577 32.7514 34.039 32.7514C33.6843 32.7514 33.4183 32.7887 33.241 32.8634C33.0637 32.938 32.9423 33.0547 32.877 33.2134C32.8117 33.372 32.779 33.596 32.779 33.8854V40.1994C32.779 40.4794 32.8117 40.6894 32.877 40.8294C32.9423 40.96 33.059 41.0487 33.227 41.0954C33.4043 41.142 33.675 41.1654 34.039 41.1654ZM42.6526 33.7454C42.6526 33.4654 42.6199 33.26 42.5546 33.1294C42.4986 32.9894 42.3819 32.8914 42.2046 32.8354C42.0366 32.7794 41.7706 32.7514 41.4066 32.7514C41.3786 32.7514 41.3646 32.7234 41.3646 32.6674C41.3646 32.6114 41.3786 32.5834 41.4066 32.5834L42.0646 32.5974C42.4566 32.616 42.7786 32.6254 43.0306 32.6254C43.2639 32.6254 43.5766 32.616 43.9686 32.5974L44.6406 32.5834C44.6686 32.5834 44.6826 32.6114 44.6826 32.6674C44.6826 32.7234 44.6686 32.7514 44.6406 32.7514C44.2766 32.7514 44.0059 32.7794 43.8286 32.8354C43.6606 32.882 43.5439 32.9707 43.4786 33.1014C43.4133 33.232 43.3806 33.4374 43.3806 33.7174V40.1994C43.3806 40.4794 43.4133 40.6894 43.4786 40.8294C43.5439 40.96 43.6606 41.0487 43.8286 41.0954C44.0059 41.142 44.2766 41.1654 44.6406 41.1654C44.6686 41.1654 44.6826 41.1934 44.6826 41.2494C44.6826 41.3054 44.6686 41.3334 44.6406 41.3334C44.3513 41.3334 44.1273 41.3287 43.9686 41.3194L43.0306 41.3054L42.0646 41.3194C41.9059 41.3287 41.6866 41.3334 41.4066 41.3334C41.3786 41.3334 41.3646 41.3054 41.3646 41.2494C41.3646 41.1934 41.3786 41.1654 41.4066 41.1654C41.7799 41.1654 42.0506 41.142 42.2186 41.0954C42.3866 41.0487 42.4986 40.96 42.5546 40.8294C42.6199 40.6987 42.6526 40.4887 42.6526 40.1994V33.7454ZM36.6606 36.6434H42.9606V36.9094H36.6606V36.6434ZM36.3246 33.7174C36.3246 33.4374 36.2919 33.232 36.2266 33.1014C36.1706 32.9707 36.0539 32.882 35.8766 32.8354C35.7086 32.7794 35.4426 32.7514 35.0786 32.7514C35.0599 32.7514 35.0506 32.7234 35.0506 32.6674C35.0506 32.6114 35.0599 32.5834 35.0786 32.5834L35.7646 32.5974C36.1566 32.616 36.4646 32.6254 36.6886 32.6254C36.9406 32.6254 37.2626 32.616 37.6546 32.5974L38.3126 32.5834C38.3313 32.5834 38.3406 32.6114 38.3406 32.6674C38.3406 32.7234 38.3313 32.7514 38.3126 32.7514C37.9486 32.7514 37.6779 32.7794 37.5006 32.8354C37.3326 32.8914 37.2159 32.9894 37.1506 33.1294C37.0946 33.26 37.0666 33.4654 37.0666 33.7454V40.1994C37.0666 40.4887 37.0946 40.6987 37.1506 40.8294C37.2159 40.96 37.3326 41.0487 37.5006 41.0954C37.6686 41.142 37.9393 41.1654 38.3126 41.1654C38.3313 41.1654 38.3406 41.1934 38.3406 41.2494C38.3406 41.3054 38.3313 41.3334 38.3126 41.3334C38.0326 41.3334 37.8086 41.3287 37.6406 41.3194L36.6886 41.3054L35.7646 41.3194C35.5966 41.3287 35.3633 41.3334 35.0646 41.3334C35.0459 41.3334 35.0366 41.3054 35.0366 41.2494C35.0366 41.1934 35.0459 41.1654 35.0646 41.1654C35.4286 41.1654 35.6946 41.142 35.8626 41.0954C36.0399 41.0487 36.1613 40.96 36.2266 40.8294C36.2919 40.6894 36.3246 40.4794 36.3246 40.1994V33.7174Z" fill="#2F2C29"/>
<path d="M77.2518 36.3914C77.7745 36.3914 78.2365 36.494 78.6378 36.6994C79.0392 36.9047 79.3518 37.1847 79.5758 37.5394C79.7998 37.894 79.9118 38.2954 79.9118 38.7434C79.9118 39.2474 79.7952 39.7 79.5618 40.1014C79.3285 40.5027 79.0065 40.82 78.5958 41.0534C78.1852 41.2774 77.7325 41.3894 77.2378 41.3894C76.9205 41.3894 76.5845 41.3754 76.2298 41.3474C76.0992 41.338 75.9452 41.3287 75.7678 41.3194C75.5905 41.31 75.3898 41.3054 75.1658 41.3054L74.2418 41.3194C74.0738 41.3287 73.8405 41.3334 73.5418 41.3334C73.5232 41.3334 73.5138 41.3054 73.5138 41.2494C73.5138 41.1934 73.5232 41.1654 73.5418 41.1654C73.9152 41.1654 74.1858 41.142 74.3538 41.0954C74.5312 41.0487 74.6525 40.96 74.7178 40.8294C74.7832 40.6894 74.8158 40.4794 74.8158 40.1994V33.7174C74.8158 33.4374 74.7832 33.232 74.7178 33.1014C74.6618 32.9707 74.5452 32.882 74.3678 32.8354C74.1998 32.7794 73.9338 32.7514 73.5698 32.7514C73.5418 32.7514 73.5278 32.7234 73.5278 32.6674C73.5278 32.6114 73.5418 32.5834 73.5698 32.5834L74.2418 32.5974C74.6152 32.616 74.9232 32.6254 75.1658 32.6254C75.3338 32.6254 75.4925 32.6207 75.6418 32.6114C75.7912 32.602 75.9218 32.5927 76.0338 32.5834C76.3325 32.5554 76.5892 32.5414 76.8038 32.5414C77.5785 32.5414 78.1478 32.7187 78.5118 33.0734C78.8852 33.4187 79.0718 33.862 79.0718 34.4034C79.0718 34.9167 78.8898 35.36 78.5258 35.7334C78.1618 36.1067 77.6858 36.368 77.0978 36.5174L77.2518 36.3914ZM76.4818 32.7234C76.2205 32.7234 76.0292 32.742 75.9078 32.7794C75.7865 32.8167 75.6932 32.9054 75.6278 33.0454C75.5718 33.1854 75.5438 33.4187 75.5438 33.7454V36.4894L75.1238 36.3774C75.5252 36.4054 75.8845 36.4194 76.2018 36.4194C76.9392 36.4194 77.4758 36.2467 77.8118 35.9014C78.1478 35.5467 78.3158 35.08 78.3158 34.5014C78.3158 33.9787 78.1665 33.554 77.8678 33.2274C77.5785 32.8914 77.1165 32.7234 76.4818 32.7234ZM77.0418 41.1654C77.7325 41.1654 78.2458 40.988 78.5818 40.6334C78.9272 40.2694 79.0998 39.756 79.0998 39.0934C79.0998 38.384 78.8805 37.81 78.4418 37.3714C78.0125 36.9234 77.4292 36.6947 76.6918 36.6854C76.1225 36.6667 75.6138 36.69 75.1658 36.7554L75.5438 36.6014V40.1994C75.5438 40.4514 75.5812 40.6474 75.6558 40.7874C75.7398 40.918 75.8892 41.016 76.1038 41.0814C76.3185 41.1374 76.6312 41.1654 77.0418 41.1654ZM83.1294 32.8214C82.5414 32.8214 82.1121 32.9614 81.8414 33.2414C81.5708 33.5214 81.3888 34.0207 81.2954 34.7394C81.2954 34.758 81.2674 34.7674 81.2114 34.7674C81.1554 34.7674 81.1274 34.758 81.1274 34.7394C81.1648 34.4874 81.2068 34.086 81.2534 33.5354C81.3001 32.9754 81.3234 32.5554 81.3234 32.2754C81.3234 32.2287 81.3514 32.2054 81.4074 32.2054C81.4634 32.2054 81.4914 32.2287 81.4914 32.2754C81.4914 32.4807 81.7388 32.5834 82.2334 32.5834C83.0361 32.6114 83.9741 32.6254 85.0474 32.6254C85.5981 32.6254 86.1814 32.616 86.7974 32.5974L87.7494 32.5834C88.0854 32.5834 88.3328 32.56 88.4914 32.5134C88.6501 32.4667 88.7528 32.3734 88.7994 32.2334C88.8088 32.196 88.8368 32.1774 88.8834 32.1774C88.9301 32.1774 88.9534 32.196 88.9534 32.2334C88.9254 32.4947 88.8974 32.896 88.8694 33.4374C88.8414 33.9694 88.8274 34.4034 88.8274 34.7394C88.8274 34.758 88.7994 34.7674 88.7434 34.7674C88.6874 34.7674 88.6594 34.758 88.6594 34.7394C88.6594 34.2447 88.6081 33.862 88.5054 33.5914C88.4028 33.3207 88.2301 33.1247 87.9874 33.0034C87.7448 32.882 87.4041 32.8214 86.9654 32.8214C86.4801 32.8214 86.1394 32.84 85.9434 32.8774C85.7474 32.9054 85.6121 32.98 85.5374 33.1014C85.4721 33.2227 85.4394 33.4374 85.4394 33.7454V40.1994C85.4394 40.4887 85.4721 40.6987 85.5374 40.8294C85.6028 40.96 85.7334 41.0487 85.9294 41.0954C86.1254 41.142 86.4334 41.1654 86.8534 41.1654C86.8721 41.1654 86.8814 41.1934 86.8814 41.2494C86.8814 41.3054 86.8721 41.3334 86.8534 41.3334C86.5454 41.3334 86.3028 41.3287 86.1254 41.3194L85.0474 41.3054L84.0254 41.3194C83.8388 41.3287 83.5821 41.3334 83.2554 41.3334C83.2368 41.3334 83.2274 41.3054 83.2274 41.2494C83.2274 41.1934 83.2368 41.1654 83.2554 41.1654C83.6754 41.1654 83.9834 41.142 84.1794 41.0954C84.3754 41.0487 84.5061 40.96 84.5714 40.8294C84.6461 40.6894 84.6834 40.4794 84.6834 40.1994V33.7174C84.6834 33.4094 84.6461 33.1994 84.5714 33.0874C84.4968 32.966 84.3614 32.8914 84.1654 32.8634C83.9788 32.8354 83.6334 32.8214 83.1294 32.8214Z" fill="#2F2C29"/>
<path d="M121.319 32.4294C121.776 32.4294 122.234 32.476 122.691 32.5694C123.158 32.6627 123.531 32.7887 123.811 32.9474C123.886 32.994 123.932 33.0407 123.951 33.0874C123.979 33.1247 123.998 33.19 124.007 33.2834L124.161 34.7534C124.161 34.7814 124.138 34.8 124.091 34.8094C124.044 34.8094 124.016 34.7954 124.007 34.7674C123.671 33.4047 122.593 32.7234 120.773 32.7234C120.045 32.7234 119.401 32.882 118.841 33.1994C118.29 33.5074 117.861 33.946 117.553 34.5154C117.245 35.0847 117.091 35.7427 117.091 36.4894C117.091 37.3667 117.282 38.1787 117.665 38.9254C118.048 39.6627 118.556 40.2507 119.191 40.6894C119.826 41.1187 120.512 41.3334 121.249 41.3334C121.94 41.3334 122.532 41.1514 123.027 40.7874C123.531 40.4234 123.9 39.868 124.133 39.1214C124.133 39.0934 124.152 39.0794 124.189 39.0794C124.217 39.0794 124.24 39.084 124.259 39.0934C124.287 39.1027 124.301 39.1167 124.301 39.1354L124.105 40.6334C124.086 40.7454 124.063 40.82 124.035 40.8574C124.016 40.8854 123.965 40.918 123.881 40.9554C123.05 41.3194 122.159 41.5014 121.207 41.5014C120.087 41.5014 119.154 41.2774 118.407 40.8294C117.66 40.372 117.11 39.7934 116.755 39.0934C116.4 38.384 116.223 37.642 116.223 36.8674C116.223 36.018 116.461 35.2574 116.937 34.5854C117.413 33.904 118.043 33.3767 118.827 33.0034C119.611 32.6207 120.442 32.4294 121.319 32.4294ZM127.506 40.1434C127.506 40.442 127.548 40.6614 127.632 40.8014C127.716 40.932 127.875 41.0254 128.108 41.0814C128.351 41.1374 128.734 41.1654 129.256 41.1654C129.284 41.1654 129.298 41.1934 129.298 41.2494C129.298 41.3054 129.284 41.3334 129.256 41.3334C128.874 41.3334 128.575 41.3287 128.36 41.3194L127.142 41.3054L126.218 41.3194C126.05 41.3287 125.817 41.3334 125.518 41.3334C125.5 41.3334 125.49 41.3054 125.49 41.2494C125.49 41.1934 125.5 41.1654 125.518 41.1654C125.882 41.1654 126.148 41.142 126.316 41.0954C126.494 41.0487 126.61 40.96 126.666 40.8294C126.732 40.6894 126.764 40.4794 126.764 40.1994V33.7174C126.764 33.4374 126.732 33.232 126.666 33.1014C126.61 32.9707 126.494 32.882 126.316 32.8354C126.148 32.7794 125.882 32.7514 125.518 32.7514C125.5 32.7514 125.49 32.7234 125.49 32.6674C125.49 32.6114 125.5 32.5834 125.518 32.5834L126.204 32.5974C126.596 32.616 126.904 32.6254 127.128 32.6254C127.352 32.6254 127.609 32.6114 127.898 32.5834C128.626 32.5554 129.023 32.5414 129.088 32.5414C129.91 32.5414 130.577 32.7327 131.09 33.1154C131.604 33.4887 131.86 34.0627 131.86 34.8374C131.86 35.4627 131.706 35.99 131.398 36.4194C131.09 36.8394 130.698 37.152 130.222 37.3574C129.756 37.5627 129.27 37.6654 128.766 37.6654C128.486 37.6654 128.258 37.642 128.08 37.5954C128.052 37.5954 128.038 37.572 128.038 37.5254C128.038 37.4974 128.043 37.4694 128.052 37.4414C128.071 37.4134 128.09 37.404 128.108 37.4134C128.258 37.4507 128.426 37.4694 128.612 37.4694C129.275 37.4694 129.835 37.2687 130.292 36.8674C130.759 36.466 130.992 35.8827 130.992 35.1174C130.992 34.6227 130.894 34.198 130.698 33.8434C130.502 33.4794 130.232 33.204 129.886 33.0174C129.55 32.8214 129.177 32.7234 128.766 32.7234C128.384 32.7234 128.113 32.742 127.954 32.7794C127.796 32.8167 127.679 32.9054 127.604 33.0454C127.539 33.176 127.506 33.4094 127.506 33.7454V40.1434Z" fill="#2F2C29"/>
<path d="M163.49 33.7454C163.49 33.4654 163.462 33.26 163.406 33.1294C163.359 32.9894 163.261 32.8914 163.112 32.8354C162.962 32.7794 162.729 32.7514 162.412 32.7514C162.393 32.7514 162.384 32.7234 162.384 32.6674C162.384 32.6114 162.393 32.5834 162.412 32.5834L163 32.5974C163.354 32.616 163.644 32.6254 163.868 32.6254C164.11 32.6254 164.428 32.616 164.82 32.5974L165.492 32.5834C165.52 32.5834 165.534 32.6114 165.534 32.6674C165.534 32.7234 165.52 32.7514 165.492 32.7514C165.128 32.7514 164.857 32.7794 164.68 32.8354C164.512 32.882 164.395 32.9707 164.33 33.1014C164.264 33.232 164.232 33.4374 164.232 33.7174V40.1994C164.232 40.4794 164.264 40.6894 164.33 40.8294C164.395 40.96 164.512 41.0487 164.68 41.0954C164.857 41.142 165.128 41.1654 165.492 41.1654C165.52 41.1654 165.534 41.1934 165.534 41.2494C165.534 41.3054 165.52 41.3334 165.492 41.3334C165.212 41.3334 164.988 41.3287 164.82 41.3194L163.868 41.3054L162.916 41.3194C162.757 41.3287 162.538 41.3334 162.258 41.3334C162.23 41.3334 162.216 41.3054 162.216 41.2494C162.216 41.1934 162.23 41.1654 162.258 41.1654C162.631 41.1654 162.902 41.142 163.07 41.0954C163.238 41.0487 163.35 40.96 163.406 40.8294C163.462 40.6987 163.49 40.4887 163.49 40.1994V33.7454ZM163.812 36.7274C162.832 37.502 161.852 37.8894 160.872 37.8894C160.125 37.8894 159.542 37.6887 159.122 37.2874C158.702 36.886 158.492 36.3307 158.492 35.6214V33.7174C158.492 33.4374 158.459 33.232 158.394 33.1014C158.338 32.9707 158.221 32.882 158.044 32.8354C157.876 32.7794 157.61 32.7514 157.246 32.7514C157.218 32.7514 157.204 32.7234 157.204 32.6674C157.204 32.6114 157.218 32.5834 157.246 32.5834L157.918 32.5974C158.291 32.616 158.599 32.6254 158.842 32.6254C159.075 32.6254 159.369 32.616 159.724 32.5974L160.298 32.5834C160.326 32.5834 160.34 32.6114 160.34 32.6674C160.34 32.7234 160.326 32.7514 160.298 32.7514C159.99 32.7514 159.761 32.7794 159.612 32.8354C159.462 32.8914 159.36 32.9894 159.304 33.1294C159.248 33.26 159.22 33.4654 159.22 33.7454V35.1314C159.22 36.606 159.882 37.3434 161.208 37.3434C161.553 37.3434 161.936 37.2874 162.356 37.1754C162.785 37.0634 163.228 36.8814 163.686 36.6294L163.812 36.7274ZM168.544 32.8214C167.956 32.8214 167.526 32.9614 167.256 33.2414C166.985 33.5214 166.803 34.0207 166.71 34.7394C166.71 34.758 166.682 34.7674 166.626 34.7674C166.57 34.7674 166.542 34.758 166.542 34.7394C166.579 34.4874 166.621 34.086 166.668 33.5354C166.714 32.9754 166.738 32.5554 166.738 32.2754C166.738 32.2287 166.766 32.2054 166.822 32.2054C166.878 32.2054 166.906 32.2287 166.906 32.2754C166.906 32.4807 167.153 32.5834 167.648 32.5834C168.45 32.6114 169.388 32.6254 170.462 32.6254C171.012 32.6254 171.596 32.616 172.212 32.5974L173.164 32.5834C173.5 32.5834 173.747 32.56 173.906 32.5134C174.064 32.4667 174.167 32.3734 174.214 32.2334C174.223 32.196 174.251 32.1774 174.298 32.1774C174.344 32.1774 174.368 32.196 174.368 32.2334C174.34 32.4947 174.312 32.896 174.284 33.4374C174.256 33.9694 174.242 34.4034 174.242 34.7394C174.242 34.758 174.214 34.7674 174.158 34.7674C174.102 34.7674 174.074 34.758 174.074 34.7394C174.074 34.2447 174.022 33.862 173.92 33.5914C173.817 33.3207 173.644 33.1247 173.402 33.0034C173.159 32.882 172.818 32.8214 172.38 32.8214C171.894 32.8214 171.554 32.84 171.358 32.8774C171.162 32.9054 171.026 32.98 170.952 33.1014C170.886 33.2227 170.854 33.4374 170.854 33.7454V40.1994C170.854 40.4887 170.886 40.6987 170.952 40.8294C171.017 40.96 171.148 41.0487 171.344 41.0954C171.54 41.142 171.848 41.1654 172.268 41.1654C172.286 41.1654 172.296 41.1934 172.296 41.2494C172.296 41.3054 172.286 41.3334 172.268 41.3334C171.96 41.3334 171.717 41.3287 171.54 41.3194L170.462 41.3054L169.44 41.3194C169.253 41.3287 168.996 41.3334 168.67 41.3334C168.651 41.3334 168.642 41.3054 168.642 41.2494C168.642 41.1934 168.651 41.1654 168.67 41.1654C169.09 41.1654 169.398 41.142 169.594 41.0954C169.79 41.0487 169.92 40.96 169.986 40.8294C170.06 40.6894 170.098 40.4794 170.098 40.1994V33.7174C170.098 33.4094 170.06 33.1994 169.986 33.0874C169.911 32.966 169.776 32.8914 169.58 32.8634C169.393 32.8354 169.048 32.8214 168.544 32.8214Z" fill="#2F2C29"/>
<path d="M208.373 41.1654C208.392 41.1654 208.401 41.1934 208.401 41.2494C208.401 41.3054 208.392 41.3334 208.373 41.3334C208.075 41.3334 207.841 41.3287 207.673 41.3194L206.749 41.3054L205.797 41.3194C205.629 41.3287 205.405 41.3334 205.125 41.3334C205.107 41.3334 205.097 41.3054 205.097 41.2494C205.097 41.1934 205.107 41.1654 205.125 41.1654C205.499 41.1654 205.769 41.142 205.937 41.0954C206.105 41.0487 206.217 40.96 206.273 40.8294C206.339 40.6987 206.371 40.4887 206.371 40.1994V33.7454C206.371 33.428 206.353 33.218 206.315 33.1154C206.278 33.0127 206.189 32.9474 206.049 32.9194C205.909 32.8914 205.62 32.8774 205.181 32.8774H202.311C201.863 32.8774 201.56 32.8914 201.401 32.9194C201.243 32.9474 201.145 33.0174 201.107 33.1294C201.07 33.232 201.051 33.4374 201.051 33.7454V40.1994C201.051 40.4887 201.079 40.6987 201.135 40.8294C201.201 40.96 201.317 41.0487 201.485 41.0954C201.653 41.142 201.924 41.1654 202.297 41.1654C202.316 41.1654 202.325 41.1934 202.325 41.2494C202.325 41.3054 202.316 41.3334 202.297 41.3334C202.017 41.3334 201.793 41.3287 201.625 41.3194L200.673 41.3054L199.749 41.3194C199.581 41.3287 199.348 41.3334 199.049 41.3334C199.031 41.3334 199.021 41.3054 199.021 41.2494C199.021 41.1934 199.031 41.1654 199.049 41.1654C199.413 41.1654 199.679 41.142 199.847 41.0954C200.025 41.0487 200.146 40.96 200.211 40.8294C200.277 40.6894 200.309 40.4794 200.309 40.1994V33.8854C200.309 33.596 200.277 33.372 200.211 33.2134C200.155 33.0547 200.034 32.938 199.847 32.8634C199.67 32.7887 199.409 32.7514 199.063 32.7514C199.045 32.7514 199.035 32.7234 199.035 32.6674C199.035 32.6114 199.045 32.5834 199.063 32.5834C199.381 32.5834 199.679 32.588 199.959 32.5974C201.191 32.616 202.461 32.6254 203.767 32.6254C204.943 32.6254 206.315 32.6114 207.883 32.5834H208.373C208.392 32.5834 208.401 32.6114 208.401 32.6674C208.401 32.7234 208.392 32.7514 208.373 32.7514C208.019 32.7514 207.753 32.7887 207.575 32.8634C207.398 32.938 207.277 33.0547 207.211 33.2134C207.146 33.372 207.113 33.596 207.113 33.8854V40.1994C207.113 40.4794 207.146 40.6894 207.211 40.8294C207.277 40.96 207.393 41.0487 207.561 41.0954C207.739 41.142 208.009 41.1654 208.373 41.1654ZM211.415 32.8214C210.827 32.8214 210.397 32.9614 210.127 33.2414C209.856 33.5214 209.674 34.0207 209.581 34.7394C209.581 34.758 209.553 34.7674 209.497 34.7674C209.441 34.7674 209.413 34.758 209.413 34.7394C209.45 34.4874 209.492 34.086 209.539 33.5354C209.585 32.9754 209.609 32.5554 209.609 32.2754C209.609 32.2287 209.637 32.2054 209.693 32.2054C209.749 32.2054 209.777 32.2287 209.777 32.2754C209.777 32.4807 210.024 32.5834 210.519 32.5834C211.321 32.6114 212.259 32.6254 213.333 32.6254C213.883 32.6254 214.467 32.616 215.083 32.5974L216.035 32.5834C216.371 32.5834 216.618 32.56 216.777 32.5134C216.935 32.4667 217.038 32.3734 217.085 32.2334C217.094 32.196 217.122 32.1774 217.169 32.1774C217.215 32.1774 217.239 32.196 217.239 32.2334C217.211 32.4947 217.183 32.896 217.155 33.4374C217.127 33.9694 217.113 34.4034 217.113 34.7394C217.113 34.758 217.085 34.7674 217.029 34.7674C216.973 34.7674 216.945 34.758 216.945 34.7394C216.945 34.2447 216.893 33.862 216.791 33.5914C216.688 33.3207 216.515 33.1247 216.273 33.0034C216.03 32.882 215.689 32.8214 215.251 32.8214C214.765 32.8214 214.425 32.84 214.229 32.8774C214.033 32.9054 213.897 32.98 213.823 33.1014C213.757 33.2227 213.725 33.4374 213.725 33.7454V40.1994C213.725 40.4887 213.757 40.6987 213.823 40.8294C213.888 40.96 214.019 41.0487 214.215 41.0954C214.411 41.142 214.719 41.1654 215.139 41.1654C215.157 41.1654 215.167 41.1934 215.167 41.2494C215.167 41.3054 215.157 41.3334 215.139 41.3334C214.831 41.3334 214.588 41.3287 214.411 41.3194L213.333 41.3054L212.311 41.3194C212.124 41.3287 211.867 41.3334 211.541 41.3334C211.522 41.3334 211.513 41.3054 211.513 41.2494C211.513 41.1934 211.522 41.1654 211.541 41.1654C211.961 41.1654 212.269 41.142 212.465 41.0954C212.661 41.0487 212.791 40.96 212.857 40.8294C212.931 40.6894 212.969 40.4794 212.969 40.1994V33.7174C212.969 33.4094 212.931 33.1994 212.857 33.0874C212.782 32.966 212.647 32.8914 212.451 32.8634C212.264 32.8354 211.919 32.8214 211.415 32.8214Z" fill="#2F2C29"/>
<path d="M243.781 32.4294C244.239 32.4294 244.696 32.476 245.153 32.5694C245.62 32.6627 245.993 32.7887 246.273 32.9474C246.348 32.994 246.395 33.0407 246.413 33.0874C246.441 33.1247 246.46 33.19 246.469 33.2834L246.623 34.7534C246.623 34.7814 246.6 34.8 246.553 34.8094C246.507 34.8094 246.479 34.7954 246.469 34.7674C246.133 33.4047 245.055 32.7234 243.235 32.7234C242.507 32.7234 241.863 32.882 241.303 33.1994C240.753 33.5074 240.323 33.946 240.015 34.5154C239.707 35.0847 239.553 35.7427 239.553 36.4894C239.553 37.3667 239.745 38.1787 240.127 38.9254C240.51 39.6627 241.019 40.2507 241.653 40.6894C242.288 41.1187 242.974 41.3334 243.711 41.3334C244.402 41.3334 244.995 41.1514 245.489 40.7874C245.993 40.4234 246.362 39.868 246.595 39.1214C246.595 39.0934 246.614 39.0794 246.651 39.0794C246.679 39.0794 246.703 39.084 246.721 39.0934C246.749 39.1027 246.763 39.1167 246.763 39.1354L246.567 40.6334C246.549 40.7454 246.525 40.82 246.497 40.8574C246.479 40.8854 246.427 40.918 246.343 40.9554C245.513 41.3194 244.621 41.5014 243.669 41.5014C242.549 41.5014 241.616 41.2774 240.869 40.8294C240.123 40.372 239.572 39.7934 239.217 39.0934C238.863 38.384 238.685 37.642 238.685 36.8674C238.685 36.018 238.923 35.2574 239.399 34.5854C239.875 33.904 240.505 33.3767 241.289 33.0034C242.073 32.6207 242.904 32.4294 243.781 32.4294ZM251.607 41.3894C251.364 41.3894 251.075 41.3754 250.739 41.3474C250.599 41.338 250.431 41.3287 250.235 41.3194C250.048 41.31 249.838 41.3054 249.605 41.3054L248.681 41.3194C248.513 41.3287 248.279 41.3334 247.981 41.3334C247.962 41.3334 247.953 41.3054 247.953 41.2494C247.953 41.1934 247.962 41.1654 247.981 41.1654C248.354 41.1654 248.625 41.142 248.793 41.0954C248.97 41.0487 249.091 40.96 249.157 40.8294C249.222 40.6894 249.255 40.4794 249.255 40.1994V33.7174C249.255 33.4374 249.222 33.232 249.157 33.1014C249.101 32.9707 248.984 32.882 248.807 32.8354C248.639 32.7794 248.373 32.7514 248.009 32.7514C247.981 32.7514 247.967 32.7234 247.967 32.6674C247.967 32.6114 247.981 32.5834 248.009 32.5834H253.427C253.473 32.5834 253.501 32.5927 253.511 32.6114C253.529 32.63 253.543 32.6627 253.553 32.7094L253.749 34.4034C253.749 34.4314 253.721 34.45 253.665 34.4594C253.618 34.4594 253.59 34.4454 253.581 34.4174C253.506 33.9414 253.333 33.5634 253.063 33.2834C252.792 32.994 252.456 32.8494 252.055 32.8494H251.201C250.846 32.8494 250.585 32.8727 250.417 32.9194C250.249 32.966 250.132 33.0547 250.067 33.1854C250.011 33.316 249.983 33.5214 249.983 33.8014V40.1994C249.983 40.5354 250.071 40.7827 250.249 40.9414C250.426 41.0907 250.785 41.1654 251.327 41.1654C252.101 41.1654 252.661 40.9927 253.007 40.6474C253.361 40.302 253.539 39.77 253.539 39.0514C253.539 38.1834 253.305 37.5674 252.839 37.2034C252.381 36.83 251.714 36.6434 250.837 36.6434C250.603 36.6434 250.216 36.6714 249.675 36.7274L249.661 36.4754C250.165 36.4194 250.65 36.3914 251.117 36.3914C252.143 36.3914 252.937 36.564 253.497 36.9094C254.066 37.2547 254.351 37.8474 254.351 38.6874C254.351 39.2194 254.234 39.6907 254.001 40.1014C253.777 40.512 253.455 40.8294 253.035 41.0534C252.624 41.2774 252.148 41.3894 251.607 41.3894Z" fill="#2F2C29"/>
<path d="M286.611 36.3914C287.134 36.3914 287.596 36.494 287.997 36.6994C288.398 36.9047 288.711 37.1847 288.935 37.5394C289.159 37.894 289.271 38.2954 289.271 38.7434C289.271 39.2474 289.154 39.7 288.921 40.1014C288.688 40.5027 288.366 40.82 287.955 41.0534C287.544 41.2774 287.092 41.3894 286.597 41.3894C286.28 41.3894 285.944 41.3754 285.589 41.3474C285.458 41.338 285.304 41.3287 285.127 41.3194C284.95 41.31 284.749 41.3054 284.525 41.3054L283.601 41.3194C283.433 41.3287 283.2 41.3334 282.901 41.3334C282.882 41.3334 282.873 41.3054 282.873 41.2494C282.873 41.1934 282.882 41.1654 282.901 41.1654C283.274 41.1654 283.545 41.142 283.713 41.0954C283.89 41.0487 284.012 40.96 284.077 40.8294C284.142 40.6894 284.175 40.4794 284.175 40.1994V33.7174C284.175 33.4374 284.142 33.232 284.077 33.1014C284.021 32.9707 283.904 32.882 283.727 32.8354C283.559 32.7794 283.293 32.7514 282.929 32.7514C282.901 32.7514 282.887 32.7234 282.887 32.6674C282.887 32.6114 282.901 32.5834 282.929 32.5834L283.601 32.5974C283.974 32.616 284.282 32.6254 284.525 32.6254C284.693 32.6254 284.852 32.6207 285.001 32.6114C285.15 32.602 285.281 32.5927 285.393 32.5834C285.692 32.5554 285.948 32.5414 286.163 32.5414C286.938 32.5414 287.507 32.7187 287.871 33.0734C288.244 33.4187 288.431 33.862 288.431 34.4034C288.431 34.9167 288.249 35.36 287.885 35.7334C287.521 36.1067 287.045 36.368 286.457 36.5174L286.611 36.3914ZM285.841 32.7234C285.58 32.7234 285.388 32.742 285.267 32.7794C285.146 32.8167 285.052 32.9054 284.987 33.0454C284.931 33.1854 284.903 33.4187 284.903 33.7454V36.4894L284.483 36.3774C284.884 36.4054 285.244 36.4194 285.561 36.4194C286.298 36.4194 286.835 36.2467 287.171 35.9014C287.507 35.5467 287.675 35.08 287.675 34.5014C287.675 33.9787 287.526 33.554 287.227 33.2274C286.938 32.8914 286.476 32.7234 285.841 32.7234ZM286.401 41.1654C287.092 41.1654 287.605 40.988 287.941 40.6334C288.286 40.2694 288.459 39.756 288.459 39.0934C288.459 38.384 288.24 37.81 287.801 37.3714C287.372 36.9234 286.788 36.6947 286.051 36.6854C285.482 36.6667 284.973 36.69 284.525 36.7554L284.903 36.6014V40.1994C284.903 40.4514 284.94 40.6474 285.015 40.7874C285.099 40.918 285.248 41.016 285.463 41.0814C285.678 41.1374 285.99 41.1654 286.401 41.1654ZM295.751 32.4294C296.208 32.4294 296.665 32.476 297.123 32.5694C297.589 32.6627 297.963 32.7887 298.243 32.9474C298.317 32.994 298.364 33.0407 298.383 33.0874C298.411 33.1247 298.429 33.19 298.439 33.2834L298.593 34.7534C298.593 34.7814 298.569 34.8 298.523 34.8094C298.476 34.8094 298.448 34.7954 298.439 34.7674C298.103 33.4047 297.025 32.7234 295.205 32.7234C294.477 32.7234 293.833 32.882 293.273 33.1994C292.722 33.5074 292.293 33.946 291.985 34.5154C291.677 35.0847 291.523 35.7427 291.523 36.4894C291.523 37.3667 291.714 38.1787 292.097 38.9254C292.479 39.6627 292.988 40.2507 293.623 40.6894C294.257 41.1187 294.943 41.3334 295.681 41.3334C296.371 41.3334 296.964 41.1514 297.459 40.7874C297.963 40.4234 298.331 39.868 298.565 39.1214C298.565 39.0934 298.583 39.0794 298.621 39.0794C298.649 39.0794 298.672 39.084 298.691 39.0934C298.719 39.1027 298.733 39.1167 298.733 39.1354L298.537 40.6334C298.518 40.7454 298.495 40.82 298.467 40.8574C298.448 40.8854 298.397 40.918 298.313 40.9554C297.482 41.3194 296.591 41.5014 295.639 41.5014C294.519 41.5014 293.585 41.2774 292.839 40.8294C292.092 40.372 291.541 39.7934 291.187 39.0934C290.832 38.384 290.655 37.642 290.655 36.8674C290.655 36.018 290.893 35.2574 291.369 34.5854C291.845 33.904 292.475 33.3767 293.259 33.0034C294.043 32.6207 294.873 32.4294 295.751 32.4294Z" fill="#2F2C29"/>
<path d="M28.3452 63V62.286L30.5012 60.27C31.2012 59.6167 31.7799 59.038 32.2372 58.534C32.6946 58.03 33.0352 57.561 33.2592 57.127C33.4832 56.693 33.5952 56.2567 33.5952 55.818C33.5952 55.1787 33.3712 54.6747 32.9232 54.306C32.4799 53.9327 31.8686 53.746 31.0892 53.746C30.6552 53.746 30.2352 53.8113 29.8292 53.942C29.4279 54.0727 29.1012 54.264 28.8492 54.516L28.4992 53.914C28.8492 53.606 29.2529 53.375 29.7102 53.221C30.1676 53.067 30.6646 52.99 31.2012 52.99C31.8266 52.99 32.3796 53.1043 32.8602 53.333C33.3409 53.5617 33.7166 53.886 33.9872 54.306C34.2579 54.726 34.3932 55.2253 34.3932 55.804C34.3932 56.2147 34.3116 56.6323 34.1482 57.057C33.9849 57.477 33.6886 57.953 33.2592 58.485C32.8346 59.0123 32.2279 59.64 31.4392 60.368L29.3952 62.244H34.6312V63H28.3452ZM39.195 63.21C38.6303 63.21 38.0797 63.1307 37.543 62.972C37.0063 62.8087 36.5677 62.5963 36.227 62.335L36.577 61.6C36.9083 61.852 37.3073 62.0527 37.774 62.202C38.2453 62.3513 38.705 62.426 39.153 62.426C39.713 62.426 40.196 62.328 40.602 62.132C41.0127 61.9313 41.3277 61.6513 41.547 61.292C41.771 60.928 41.883 60.4987 41.883 60.004C41.883 59.528 41.764 59.1197 41.526 58.779C41.288 58.4383 40.9637 58.177 40.553 57.995C40.147 57.813 39.6897 57.722 39.181 57.722C38.873 57.722 38.551 57.7593 38.215 57.834C37.879 57.9087 37.5383 58.0207 37.193 58.17L36.843 57.834L37.347 53.228L42.499 53.2V53.956H37.977L37.599 57.358C37.9163 57.2367 38.229 57.1457 38.537 57.085C38.8497 57.0243 39.153 56.994 39.447 56.994C40.0583 56.994 40.6137 57.113 41.113 57.351C41.6123 57.589 42.009 57.9343 42.303 58.387C42.6017 58.835 42.751 59.374 42.751 60.004C42.751 60.6527 42.5993 61.2173 42.296 61.698C41.9927 62.1787 41.5727 62.552 41.036 62.818C40.504 63.0793 39.8903 63.21 39.195 63.21Z" fill="#EED5B9"/>
<path d="M72.9556 63V62.286L75.1116 60.27C75.8116 59.6167 76.3903 59.038 76.8476 58.534C77.3049 58.03 77.6456 57.561 77.8696 57.127C78.0936 56.693 78.2056 56.2567 78.2056 55.818C78.2056 55.1787 77.9816 54.6747 77.5336 54.306C77.0903 53.9327 76.4789 53.746 75.6996 53.746C75.2656 53.746 74.8456 53.8113 74.4396 53.942C74.0383 54.0727 73.7116 54.264 73.4596 54.516L73.1096 53.914C73.4596 53.606 73.8633 53.375 74.3206 53.221C74.7779 53.067 75.2749 52.99 75.8116 52.99C76.4369 52.99 76.9899 53.1043 77.4706 53.333C77.9513 53.5617 78.3269 53.886 78.5976 54.306C78.8683 54.726 79.0036 55.2253 79.0036 55.804C79.0036 56.2147 78.9219 56.6323 78.7586 57.057C78.5953 57.477 78.2989 57.953 77.8696 58.485C77.4449 59.0123 76.8383 59.64 76.0496 60.368L74.0056 62.244H79.2416V63H72.9556ZM84.7714 63.21C84.062 63.21 83.4297 63.056 82.8744 62.748C82.3237 62.4353 81.8897 61.9803 81.5724 61.383C81.2597 60.781 81.1034 60.046 81.1034 59.178C81.1034 58.352 81.2504 57.5913 81.5444 56.896C81.843 56.196 82.2607 55.5753 82.7974 55.034C83.334 54.4927 83.9664 54.0493 84.6944 53.704C85.4224 53.354 86.218 53.116 87.0814 52.99L87.3894 53.69C86.5447 53.7693 85.8027 53.9537 85.1634 54.243C84.5287 54.5277 83.992 54.887 83.5534 55.321C83.1147 55.755 82.7694 56.2357 82.5174 56.763C82.27 57.2857 82.1067 57.8247 82.0274 58.38C82.3214 57.8853 82.725 57.491 83.2384 57.197C83.7517 56.903 84.3187 56.756 84.9394 56.756C85.5647 56.756 86.1317 56.889 86.6404 57.155C87.149 57.4163 87.5527 57.7827 87.8514 58.254C88.15 58.7207 88.2994 59.262 88.2994 59.878C88.2994 60.3447 88.2107 60.781 88.0334 61.187C87.8607 61.593 87.6157 61.9477 87.2984 62.251C86.9857 62.5497 86.6147 62.7853 86.1854 62.958C85.756 63.126 85.2847 63.21 84.7714 63.21ZM84.7714 62.412C85.2894 62.412 85.7467 62.3093 86.1434 62.104C86.5447 61.894 86.8597 61.607 87.0884 61.243C87.317 60.879 87.4314 60.4613 87.4314 59.99C87.4314 59.528 87.3124 59.115 87.0744 58.751C86.841 58.3823 86.5237 58.0907 86.1224 57.876C85.721 57.6613 85.2707 57.554 84.7714 57.554C84.272 57.554 83.8217 57.6613 83.4204 57.876C83.019 58.0907 82.6994 58.3823 82.4614 58.751C82.228 59.115 82.1114 59.528 82.1114 59.99C82.1114 60.4613 82.2234 60.879 82.4474 61.243C82.676 61.607 82.991 61.894 83.3924 62.104C83.7937 62.3093 84.2534 62.412 84.7714 62.412Z" fill="#EED5B9"/>
<path d="M117.194 63V62.286L119.35 60.27C120.05 59.6167 120.629 59.038 121.086 58.534C121.543 58.03 121.884 57.561 122.108 57.127C122.332 56.693 122.444 56.2567 122.444 55.818C122.444 55.1787 122.22 54.6747 121.772 54.306C121.329 53.9327 120.717 53.746 119.938 53.746C119.504 53.746 119.084 53.8113 118.678 53.942C118.277 54.0727 117.95 54.264 117.698 54.516L117.348 53.914C117.698 53.606 118.102 53.375 118.559 53.221C119.016 53.067 119.513 52.99 120.05 52.99C120.675 52.99 121.228 53.1043 121.709 53.333C122.19 53.5617 122.565 53.886 122.836 54.306C123.107 54.726 123.242 55.2253 123.242 55.804C123.242 56.2147 123.16 56.6323 122.997 57.057C122.834 57.477 122.537 57.953 122.108 58.485C121.683 59.0123 121.077 59.64 120.288 60.368L118.244 62.244H123.48V63H117.194ZM125.653 63L130.119 53.956H125.051V53.2H131.029V53.9L126.563 63H125.653Z" fill="#EED5B9"/>
<path d="M159.606 63V62.286L161.762 60.27C162.462 59.6167 163.041 59.038 163.498 58.534C163.955 58.03 164.296 57.561 164.52 57.127C164.744 56.693 164.856 56.2567 164.856 55.818C164.856 55.1787 164.632 54.6747 164.184 54.306C163.741 53.9327 163.129 53.746 162.35 53.746C161.916 53.746 161.496 53.8113 161.09 53.942C160.689 54.0727 160.362 54.264 160.11 54.516L159.76 53.914C160.11 53.606 160.514 53.375 160.971 53.221C161.428 53.067 161.925 52.99 162.462 52.99C163.087 52.99 163.64 53.1043 164.121 53.333C164.602 53.5617 164.977 53.886 165.248 54.306C165.519 54.726 165.654 55.2253 165.654 55.804C165.654 56.2147 165.572 56.6323 165.409 57.057C165.246 57.477 164.949 57.953 164.52 58.485C164.095 59.0123 163.489 59.64 162.7 60.368L160.656 62.244H165.892V63H159.606ZM171.086 63.21C170.404 63.21 169.809 63.0793 169.301 62.818C168.797 62.552 168.405 62.1973 168.125 61.754C167.849 61.3107 167.712 60.816 167.712 60.27C167.712 59.8733 167.784 59.521 167.929 59.213C168.073 58.905 168.283 58.639 168.559 58.415C168.839 58.1863 169.177 57.9973 169.574 57.848C169.154 57.694 168.792 57.4303 168.489 57.057C168.185 56.679 168.034 56.21 168.034 55.65C168.034 55.1367 168.164 54.6793 168.426 54.278C168.687 53.8767 169.046 53.5617 169.504 53.333C169.966 53.1043 170.493 52.99 171.086 52.99C171.688 52.99 172.22 53.1067 172.682 53.34C173.148 53.5687 173.512 53.8837 173.774 54.285C174.035 54.6863 174.166 55.1413 174.166 55.65C174.166 56.0233 174.096 56.357 173.956 56.651C173.816 56.9403 173.629 57.1877 173.396 57.393C173.162 57.5937 172.906 57.7453 172.626 57.848C173.186 58.072 173.631 58.3823 173.963 58.779C174.294 59.1757 174.46 59.6727 174.46 60.27C174.46 60.816 174.322 61.3107 174.047 61.754C173.771 62.1973 173.382 62.552 172.878 62.818C172.374 63.0793 171.776 63.21 171.086 63.21ZM171.086 62.426C171.534 62.426 171.947 62.349 172.325 62.195C172.707 62.0363 173.013 61.803 173.242 61.495C173.475 61.1823 173.592 60.7973 173.592 60.34C173.592 59.8873 173.48 59.5047 173.256 59.192C173.036 58.8793 172.738 58.6437 172.36 58.485C171.982 58.3217 171.557 58.24 171.086 58.24C170.358 58.24 169.758 58.4197 169.287 58.779C168.815 59.1383 168.58 59.6587 168.58 60.34C168.58 60.7973 168.692 61.1823 168.916 61.495C169.144 61.803 169.448 62.0363 169.826 62.195C170.208 62.349 170.628 62.426 171.086 62.426ZM171.1 57.456C171.534 57.456 171.919 57.386 172.255 57.246C172.591 57.1013 172.852 56.8983 173.039 56.637C173.23 56.371 173.326 56.056 173.326 55.692C173.326 55.146 173.12 54.691 172.71 54.327C172.304 53.9583 171.767 53.774 171.1 53.774C170.656 53.774 170.267 53.858 169.931 54.026C169.599 54.194 169.34 54.4227 169.154 54.712C168.967 55.0013 168.874 55.328 168.874 55.692C168.874 56.238 169.081 56.6697 169.497 56.987C169.917 57.2997 170.451 57.456 171.1 57.456Z" fill="#EED5B9"/>
<path d="M200.038 63V62.286L202.194 60.27C202.894 59.6167 203.472 59.038 203.93 58.534C204.387 58.03 204.728 57.561 204.952 57.127C205.176 56.693 205.288 56.2567 205.288 55.818C205.288 55.1787 205.064 54.6747 204.616 54.306C204.172 53.9327 203.561 53.746 202.782 53.746C202.348 53.746 201.928 53.8113 201.522 53.942C201.12 54.0727 200.794 54.264 200.542 54.516L200.192 53.914C200.542 53.606 200.945 53.375 201.403 53.221C201.86 53.067 202.357 52.99 202.894 52.99C203.519 52.99 204.072 53.1043 204.553 53.333C205.033 53.5617 205.409 53.886 205.68 54.306C205.95 54.726 206.086 55.2253 206.086 55.804C206.086 56.2147 206.004 56.6323 205.841 57.057C205.677 57.477 205.381 57.953 204.952 58.485C204.527 59.0123 203.92 59.64 203.132 60.368L201.088 62.244H206.324V63H200.038ZM209.081 63.21L208.773 62.51C209.609 62.426 210.339 62.237 210.964 61.943C211.594 61.6443 212.126 61.271 212.56 60.823C212.994 60.375 213.335 59.878 213.582 59.332C213.83 58.786 213.991 58.226 214.065 57.652C213.781 58.1467 213.389 58.541 212.889 58.835C212.395 59.129 211.844 59.276 211.237 59.276C210.631 59.276 210.078 59.1453 209.578 58.884C209.084 58.618 208.689 58.2493 208.395 57.778C208.106 57.3067 207.961 56.7653 207.961 56.154C207.961 55.5567 208.108 55.02 208.402 54.544C208.701 54.068 209.109 53.69 209.627 53.41C210.15 53.13 210.743 52.99 211.405 52.99C212.101 52.99 212.717 53.1417 213.253 53.445C213.795 53.7483 214.219 54.194 214.527 54.782C214.835 55.3653 214.989 56.084 214.989 56.938C214.989 57.7733 214.842 58.5457 214.548 59.255C214.259 59.9643 213.848 60.592 213.316 61.138C212.784 61.684 212.159 62.1343 211.44 62.489C210.722 62.8437 209.935 63.084 209.081 63.21ZM211.405 58.478C211.891 58.478 212.327 58.3753 212.714 58.17C213.102 57.9647 213.41 57.6847 213.638 57.33C213.867 56.9707 213.981 56.5693 213.981 56.126C213.981 55.6687 213.872 55.265 213.652 54.915C213.433 54.565 213.13 54.2897 212.742 54.089C212.355 53.8883 211.909 53.788 211.405 53.788C210.906 53.788 210.46 53.8883 210.068 54.089C209.681 54.2897 209.378 54.565 209.158 54.915C208.939 55.265 208.829 55.6687 208.829 56.126C208.829 56.5693 208.944 56.9707 209.172 57.33C209.401 57.6847 209.709 57.9647 210.096 58.17C210.488 58.3753 210.925 58.478 211.405 58.478Z" fill="#EED5B9"/>
<path d="M243.39 63.21C243.012 63.21 242.639 63.1727 242.27 63.098C241.902 63.028 241.556 62.9277 241.234 62.797C240.917 62.6663 240.646 62.5147 240.422 62.342L240.772 61.6C241.104 61.852 241.503 62.0527 241.969 62.202C242.441 62.3513 242.9 62.426 243.348 62.426C243.89 62.426 244.359 62.3327 244.755 62.146C245.152 61.9593 245.458 61.6957 245.672 61.355C245.887 61.0143 245.994 60.6107 245.994 60.144C245.994 59.4487 245.74 58.9073 245.231 58.52C244.727 58.128 244.048 57.932 243.194 57.932C243.008 57.932 242.816 57.9437 242.62 57.967C242.424 57.9857 242.224 58.016 242.018 58.058L241.724 57.456L245.294 53.956H240.464V53.2H246.414V53.9L242.928 57.274C243.633 57.2273 244.284 57.302 244.881 57.498C245.479 57.6893 245.957 58.0067 246.316 58.45C246.68 58.8887 246.862 59.4533 246.862 60.144C246.862 60.7647 246.713 61.306 246.414 61.768C246.12 62.2253 245.712 62.58 245.189 62.832C244.667 63.084 244.067 63.21 243.39 63.21ZM252.548 63.21C251.955 63.21 251.419 63.077 250.938 62.811C250.462 62.545 250.054 62.1763 249.713 61.705C249.377 61.2337 249.118 60.69 248.936 60.074C248.759 59.458 248.67 58.8 248.67 58.1C248.67 57.3953 248.759 56.735 248.936 56.119C249.118 55.503 249.377 54.9617 249.713 54.495C250.054 54.0237 250.462 53.655 250.938 53.389C251.419 53.123 251.955 52.99 252.548 52.99C253.136 52.99 253.668 53.123 254.144 53.389C254.62 53.655 255.028 54.0237 255.369 54.495C255.71 54.9617 255.971 55.503 256.153 56.119C256.335 56.735 256.426 57.3953 256.426 58.1C256.426 58.8 256.335 59.458 256.153 60.074C255.971 60.69 255.71 61.2337 255.369 61.705C255.028 62.1763 254.62 62.545 254.144 62.811C253.668 63.077 253.136 63.21 252.548 63.21ZM252.548 62.426C252.996 62.426 253.404 62.3257 253.773 62.125C254.142 61.9197 254.459 61.628 254.725 61.25C254.991 60.872 255.196 60.417 255.341 59.885C255.486 59.353 255.558 58.758 255.558 58.1C255.558 57.2227 255.432 56.4597 255.18 55.811C254.928 55.1623 254.576 54.6607 254.123 54.306C253.67 53.9513 253.145 53.774 252.548 53.774C252.1 53.774 251.692 53.8767 251.323 54.082C250.954 54.2827 250.637 54.572 250.371 54.95C250.105 55.328 249.9 55.783 249.755 56.315C249.61 56.847 249.538 57.442 249.538 58.1C249.538 58.9773 249.664 59.7403 249.916 60.389C250.168 61.0377 250.52 61.5393 250.973 61.894C251.426 62.2487 251.951 62.426 252.548 62.426Z" fill="#EED5B9"/>
<path d="M287.325 63.21C286.947 63.21 286.574 63.1727 286.205 63.098C285.836 63.028 285.491 62.9277 285.169 62.797C284.852 62.6663 284.581 62.5147 284.357 62.342L284.707 61.6C285.038 61.852 285.437 62.0527 285.904 62.202C286.375 62.3513 286.835 62.426 287.283 62.426C287.824 62.426 288.293 62.3327 288.69 62.146C289.087 61.9593 289.392 61.6957 289.607 61.355C289.822 61.0143 289.929 60.6107 289.929 60.144C289.929 59.4487 289.675 58.9073 289.166 58.52C288.662 58.128 287.983 57.932 287.129 57.932C286.942 57.932 286.751 57.9437 286.555 57.967C286.359 57.9857 286.158 58.016 285.953 58.058L285.659 57.456L289.229 53.956H284.399V53.2H290.349V53.9L286.863 57.274C287.568 57.2273 288.219 57.302 288.816 57.498C289.413 57.6893 289.892 58.0067 290.251 58.45C290.615 58.8887 290.797 59.4533 290.797 60.144C290.797 60.7647 290.648 61.306 290.349 61.768C290.055 62.2253 289.647 62.58 289.124 62.832C288.601 63.084 288.002 63.21 287.325 63.21ZM294.862 63V53.984L292.006 55.062L291.796 54.446L295.576 52.99H295.646V63H294.862Z" fill="#EED5B9"/>
<rect x="102" y="1" width="127" height="17" rx="8.5" fill="#DD9794"/>
<path d="M148.377 4.97L148.707 5L148.572 12.44C148.562 12.96 148.647 13.32 148.827 13.52C149.007 13.72 149.342 13.82 149.832 13.82C149.852 13.82 149.862 13.85 149.862 13.91C149.862 13.97 149.852 14 149.832 14C149.552 14 149.337 13.995 149.187 13.985L148.377 13.97L147.642 13.985C147.512 13.995 147.317 14 147.057 14C147.037 14 147.027 13.97 147.027 13.91C147.027 13.85 147.037 13.82 147.057 13.82C147.477 13.82 147.772 13.72 147.942 13.52C148.122 13.31 148.217 12.95 148.227 12.44L148.377 4.97ZM158.532 13.82C158.562 13.82 158.577 13.85 158.577 13.91C158.577 13.97 158.562 14 158.532 14C158.222 14 157.977 13.995 157.797 13.985L156.792 13.97L155.862 13.985C155.712 13.995 155.502 14 155.232 14C155.212 14 155.202 13.97 155.202 13.91C155.202 13.85 155.212 13.82 155.232 13.82C155.582 13.82 155.837 13.795 155.997 13.745C156.167 13.685 156.277 13.585 156.327 13.445C156.387 13.305 156.407 13.085 156.387 12.785L156.117 5.39L156.552 4.835L152.622 13.895C152.602 13.935 152.562 13.955 152.502 13.955C152.452 13.955 152.407 13.935 152.367 13.895L148.707 5.87C148.547 5.5 148.337 5.23 148.077 5.06C147.827 4.89 147.522 4.805 147.162 4.805C147.142 4.805 147.132 4.775 147.132 4.715C147.132 4.655 147.142 4.625 147.162 4.625L147.672 4.64C147.772 4.65 147.902 4.655 148.062 4.655C148.222 4.655 148.357 4.65 148.467 4.64C148.577 4.63 148.662 4.625 148.722 4.625C148.862 4.625 148.972 4.675 149.052 4.775C149.132 4.865 149.252 5.075 149.412 5.405L152.847 12.83L152.457 13.46L156.147 5C156.197 4.89 156.262 4.8 156.342 4.73C156.432 4.66 156.517 4.625 156.597 4.625C156.637 4.625 156.702 4.63 156.792 4.64C156.882 4.65 157.007 4.655 157.167 4.655L157.842 4.64C157.942 4.63 158.097 4.625 158.307 4.625C158.327 4.625 158.337 4.655 158.337 4.715C158.337 4.775 158.327 4.805 158.307 4.805C157.787 4.805 157.417 4.875 157.197 5.015C156.987 5.145 156.887 5.41 156.897 5.81L157.182 12.785C157.192 13.095 157.227 13.32 157.287 13.46C157.357 13.6 157.482 13.695 157.662 13.745C157.852 13.795 158.142 13.82 158.532 13.82ZM161.743 10.25H164.473L164.578 10.49H161.503L161.743 10.25ZM167.218 13.82C167.258 13.82 167.278 13.85 167.278 13.91C167.278 13.97 167.258 14 167.218 14C167.038 14 166.748 13.99 166.348 13.97C165.968 13.95 165.688 13.94 165.508 13.94C165.368 13.94 165.168 13.95 164.908 13.97C164.668 13.99 164.483 14 164.353 14C164.313 14 164.293 13.97 164.293 13.91C164.293 13.85 164.313 13.82 164.353 13.82C164.623 13.82 164.823 13.785 164.953 13.715C165.093 13.645 165.163 13.525 165.163 13.355C165.163 13.195 165.103 12.99 164.983 12.74L162.613 7.61L162.943 7.49L161.083 12.155C160.923 12.575 160.843 12.885 160.843 13.085C160.843 13.345 160.933 13.535 161.113 13.655C161.303 13.765 161.583 13.82 161.953 13.82C162.003 13.82 162.028 13.85 162.028 13.91C162.028 13.97 162.003 14 161.953 14C161.803 14 161.598 13.99 161.338 13.97C161.058 13.95 160.798 13.94 160.558 13.94C160.308 13.94 160.013 13.95 159.673 13.97C159.373 13.99 159.133 14 158.953 14C158.913 14 158.893 13.97 158.893 13.91C158.893 13.85 158.913 13.82 158.953 13.82C159.263 13.82 159.508 13.78 159.688 13.7C159.868 13.61 160.033 13.44 160.183 13.19C160.333 12.94 160.518 12.55 160.738 12.02L162.883 6.755C162.903 6.715 162.933 6.695 162.973 6.695C163.013 6.695 163.038 6.715 163.048 6.755L165.463 11.945C165.723 12.505 165.928 12.91 166.078 13.16C166.238 13.41 166.398 13.585 166.558 13.685C166.728 13.775 166.948 13.82 167.218 13.82ZM174.096 8.225C174.096 7.925 174.066 7.705 174.006 7.565C173.956 7.415 173.851 7.31 173.691 7.25C173.531 7.19 173.281 7.16 172.941 7.16C172.911 7.16 172.896 7.13 172.896 7.07C172.896 7.01 172.911 6.98 172.941 6.98L173.571 6.995C173.951 7.015 174.256 7.025 174.486 7.025C174.696 7.025 174.991 7.015 175.371 6.995L176.031 6.98C176.051 6.98 176.061 7.01 176.061 7.07C176.061 7.13 176.051 7.16 176.031 7.16C175.681 7.16 175.426 7.19 175.266 7.25C175.106 7.3 174.996 7.395 174.936 7.535C174.876 7.675 174.846 7.895 174.846 8.195V12.785C174.846 13.085 174.876 13.31 174.936 13.46C174.996 13.6 175.106 13.695 175.266 13.745C175.426 13.795 175.681 13.82 176.031 13.82C176.051 13.82 176.061 13.85 176.061 13.91C176.061 13.97 176.051 14 176.031 14C175.751 14 175.531 13.995 175.371 13.985L174.486 13.97L173.571 13.985C173.421 13.995 173.211 14 172.941 14C172.911 14 172.896 13.97 172.896 13.91C172.896 13.85 172.911 13.82 172.941 13.82C173.281 13.82 173.531 13.795 173.691 13.745C173.851 13.695 173.956 13.6 174.006 13.46C174.066 13.31 174.096 13.085 174.096 12.785V8.225ZM169.206 13.025L174.411 7.805L174.606 8L169.401 13.205L169.206 13.025ZM168.996 8.195C168.996 7.895 168.966 7.675 168.906 7.535C168.846 7.395 168.736 7.3 168.576 7.25C168.416 7.19 168.166 7.16 167.826 7.16C167.806 7.16 167.796 7.13 167.796 7.07C167.796 7.01 167.806 6.98 167.826 6.98L168.486 6.995C168.846 7.015 169.136 7.025 169.356 7.025C169.606 7.025 169.911 7.015 170.271 6.995L170.901 6.98C170.931 6.98 170.946 7.01 170.946 7.07C170.946 7.13 170.931 7.16 170.901 7.16C170.571 7.16 170.326 7.19 170.166 7.25C170.006 7.31 169.896 7.415 169.836 7.565C169.776 7.705 169.746 7.925 169.746 8.225V12.785C169.746 13.095 169.771 13.32 169.821 13.46C169.881 13.6 169.986 13.695 170.136 13.745C170.296 13.795 170.551 13.82 170.901 13.82C170.931 13.82 170.946 13.85 170.946 13.91C170.946 13.97 170.931 14 170.901 14C170.631 14 170.421 13.995 170.271 13.985L169.356 13.97L168.471 13.985C168.311 13.995 168.091 14 167.811 14C167.791 14 167.781 13.97 167.781 13.91C167.781 13.85 167.791 13.82 167.811 13.82C168.161 13.82 168.416 13.795 168.576 13.745C168.736 13.695 168.846 13.6 168.906 13.46C168.966 13.31 168.996 13.085 168.996 12.785V8.195ZM171.906 6.08C172.186 6.08 172.421 5.995 172.611 5.825C172.811 5.655 172.946 5.435 173.016 5.165C173.086 4.925 173.156 4.75 173.226 4.64C173.306 4.53 173.431 4.475 173.601 4.475C173.851 4.475 173.976 4.615 173.976 4.895C173.976 5.125 173.876 5.345 173.676 5.555C173.486 5.765 173.231 5.935 172.911 6.065C172.591 6.185 172.261 6.245 171.921 6.245C171.571 6.245 171.236 6.18 170.916 6.05C170.606 5.92 170.356 5.75 170.166 5.54C169.976 5.33 169.881 5.11 169.881 4.88C169.881 4.75 169.911 4.65 169.971 4.58C170.041 4.51 170.136 4.475 170.256 4.475C170.426 4.475 170.546 4.53 170.616 4.64C170.696 4.75 170.771 4.925 170.841 5.165C170.911 5.415 171.031 5.63 171.201 5.81C171.381 5.99 171.616 6.08 171.906 6.08Z" fill="#2F2C29"/>
</svg>
