<svg width="123" height="12" viewBox="0 0 123 12" fill="none" xmlns="http://www.w3.org/2000/svg">
<path d="M1.85399 0.413999L2.37599 0.45L2.17799 8.964C2.16599 9.612 2.29199 10.122 2.55599 10.494C2.83199 10.854 3.21599 11.034 3.70799 11.034C3.74399 11.034 3.76199 11.07 3.76199 11.142C3.76199 11.214 3.74399 11.25 3.70799 11.25C3.38399 11.25 3.13199 11.244 2.95199 11.232L1.96199 11.214L0.827993 11.232C0.635993 11.244 0.377993 11.25 0.0539932 11.25C0.0179932 11.25 -6.83218e-06 11.214 -6.83218e-06 11.142C-6.83218e-06 11.07 0.0179932 11.034 0.0539932 11.034C0.545993 11.034 0.935993 10.848 1.22399 10.476C1.51199 10.104 1.66199 9.6 1.67399 8.964L1.85399 0.413999ZM14.562 11.034C14.586 11.034 14.598 11.07 14.598 11.142C14.598 11.214 14.586 11.25 14.562 11.25C14.154 11.25 13.83 11.244 13.59 11.232L12.258 11.214L10.908 11.232C10.68 11.244 10.368 11.25 9.97199 11.25C9.93599 11.25 9.91799 11.214 9.91799 11.142C9.91799 11.07 9.93599 11.034 9.97199 11.034C10.356 11.034 10.638 11.004 10.818 10.944C11.01 10.872 11.136 10.752 11.196 10.584C11.256 10.416 11.274 10.152 11.25 9.792L10.836 1.8L11.754 0.36L7.16399 11.124C7.13999 11.172 7.09199 11.196 7.01999 11.196C6.94799 11.196 6.89999 11.172 6.87599 11.124L1.81799 1.494C1.57799 1.05 1.32599 0.725999 1.06199 0.522C0.809993 0.317999 0.515993 0.215999 0.179993 0.215999C0.143993 0.215999 0.125993 0.179999 0.125993 0.108C0.125993 0.0359999 0.143993 0 0.179993 0L1.02599 0.0179998C1.19399 0.0299996 1.40999 0.0359995 1.67399 0.0359995L2.62799 0.0179998C2.73599 0.00599992 2.87399 0 3.04199 0C3.19799 0 3.31799 0.0539997 3.40199 0.161999C3.48599 0.269999 3.64199 0.527999 3.86999 0.936L7.90199 8.496L7.00199 10.116L11.214 0.45C11.286 0.282 11.358 0.168 11.43 0.108C11.514 0.0359999 11.622 0 11.754 0C11.862 0 11.982 0.00599992 12.114 0.0179998C12.258 0.0299996 12.42 0.0359995 12.6 0.0359995L13.662 0.0179998C13.83 0.00599992 14.07 0 14.382 0C14.418 0 14.436 0.0359999 14.436 0.108C14.436 0.179999 14.418 0.215999 14.382 0.215999C13.818 0.215999 13.41 0.329999 13.158 0.557999C12.906 0.785999 12.792 1.14 12.816 1.62L13.248 9.792C13.272 10.164 13.314 10.434 13.374 10.602C13.446 10.77 13.566 10.884 13.734 10.944C13.914 11.004 14.19 11.034 14.562 11.034ZM15.5416 11.25C15.5176 11.25 15.5056 11.214 15.5056 11.142C15.5056 11.07 15.5176 11.034 15.5416 11.034C15.8896 11.034 16.1416 11.004 16.2976 10.944C16.4536 10.884 16.5616 10.77 16.6216 10.602C16.6816 10.422 16.7116 10.152 16.7116 9.792V4.284C16.7116 3.924 16.6816 3.66 16.6216 3.492C16.5616 3.324 16.4476 3.21 16.2796 3.15C16.1236 3.078 15.8776 3.042 15.5416 3.042C15.5176 3.042 15.5056 3.006 15.5056 2.934C15.5056 2.862 15.5176 2.826 15.5416 2.826H21.9856C22.1056 2.826 22.1656 2.874 22.1656 2.97L22.1836 4.086C22.1956 4.314 22.2016 4.602 22.2016 4.95C22.2016 4.986 22.1656 5.004 22.0936 5.004C22.0336 5.004 21.9976 4.986 21.9856 4.95C21.7576 4.422 21.4096 3.978 20.9416 3.618C20.4736 3.246 19.9996 3.06 19.5196 3.06H19.3936C19.1296 3.06 18.9316 3.096 18.7996 3.168C18.6796 3.228 18.5956 3.342 18.5476 3.51C18.5116 3.678 18.4936 3.942 18.4936 4.302V9.72C18.4936 10.08 18.5116 10.344 18.5476 10.512C18.5956 10.68 18.6796 10.8 18.7996 10.872C18.9316 10.932 19.1296 10.962 19.3936 10.962H19.5916C20.1556 10.962 20.7136 10.764 21.2656 10.368C21.8176 9.96 22.2256 9.456 22.4896 8.856C22.5136 8.82 22.5556 8.802 22.6156 8.802C22.6756 8.802 22.7056 8.82 22.7056 8.856C22.6216 9.72 22.5796 10.428 22.5796 10.98C22.5796 11.076 22.5616 11.148 22.5256 11.196C22.4896 11.232 22.4176 11.25 22.3096 11.25H15.5416ZM21.2476 7.398C21.1876 7.398 20.8936 7.362 20.3656 7.29C19.8496 7.218 18.9616 7.182 17.7016 7.182V6.732C18.9616 6.732 19.8496 6.702 20.3656 6.642C20.8936 6.57 21.1876 6.534 21.2476 6.534C21.3316 6.534 21.3736 6.666 21.3736 6.93C21.3736 7.05 21.3616 7.158 21.3376 7.254C21.3136 7.35 21.2836 7.398 21.2476 7.398ZM28.8952 2.61C29.3392 2.61 29.8192 2.658 30.3352 2.754C30.8632 2.85 31.2952 2.976 31.6312 3.132C31.7152 3.168 31.7692 3.21 31.7932 3.258C31.8172 3.294 31.8292 3.354 31.8292 3.438L31.9192 5.292C31.9192 5.328 31.8892 5.352 31.8292 5.364C31.7692 5.376 31.7272 5.358 31.7032 5.31C31.2472 4.53 30.7792 3.954 30.2992 3.582C29.8312 3.198 29.2912 3.006 28.6792 3.006C27.8272 3.006 27.1732 3.348 26.7172 4.032C26.2612 4.704 26.0332 5.604 26.0332 6.732C26.0332 7.476 26.1352 8.178 26.3392 8.838C26.5552 9.498 26.8912 10.038 27.3472 10.458C27.8032 10.878 28.3792 11.088 29.0752 11.088C29.6872 11.088 30.2032 10.902 30.6232 10.53C31.0552 10.158 31.4752 9.558 31.8832 8.73C31.8952 8.682 31.9312 8.664 31.9912 8.676C32.0512 8.688 32.0812 8.712 32.0812 8.748L31.9372 10.656C31.9252 10.752 31.9072 10.818 31.8832 10.854C31.8592 10.89 31.7932 10.932 31.6852 10.98C30.7612 11.304 29.8012 11.466 28.8052 11.466C27.6532 11.466 26.7112 11.238 25.9792 10.782C25.2472 10.326 24.7132 9.756 24.3772 9.072C24.0532 8.388 23.8912 7.698 23.8912 7.002C23.8912 6.186 24.1072 5.442 24.5392 4.77C24.9832 4.098 25.5832 3.57 26.3392 3.186C27.1072 2.802 27.9592 2.61 28.8952 2.61ZM35.8301 3.186C35.3741 3.186 34.9361 3.378 34.5161 3.762C34.1081 4.146 33.7841 4.668 33.5441 5.328C33.5321 5.364 33.4961 5.382 33.4361 5.382C33.3761 5.382 33.3461 5.364 33.3461 5.328C33.3941 4.944 33.4481 4.446 33.5081 3.834C33.5681 3.21 33.5981 2.742 33.5981 2.43C33.5981 2.37 33.6281 2.34 33.6881 2.34C33.7601 2.34 33.7961 2.37 33.7961 2.43C33.7961 2.586 33.8861 2.688 34.0661 2.736C34.2461 2.772 34.4741 2.79 34.7501 2.79C35.7821 2.814 36.6881 2.826 37.4681 2.826L39.0341 2.808C39.2381 2.796 39.5141 2.79 39.8621 2.79C40.3301 2.79 40.6781 2.766 40.9061 2.718C41.1461 2.658 41.2961 2.538 41.3561 2.358C41.3681 2.322 41.4041 2.304 41.4641 2.304C41.5361 2.304 41.5721 2.322 41.5721 2.358L41.5181 3.258C41.4461 4.314 41.4101 5.004 41.4101 5.328C41.4101 5.364 41.3741 5.382 41.3021 5.382C41.2301 5.382 41.1941 5.364 41.1941 5.328C41.1341 4.956 40.9961 4.608 40.7801 4.284C40.5641 3.948 40.3061 3.684 40.0061 3.492C39.7181 3.288 39.4241 3.186 39.1241 3.186C38.8361 3.186 38.6441 3.264 38.5481 3.42C38.4521 3.564 38.4041 3.852 38.4041 4.284V9.792C38.4041 10.152 38.4341 10.422 38.4941 10.602C38.5661 10.77 38.6921 10.884 38.8721 10.944C39.0521 11.004 39.3401 11.034 39.7361 11.034C39.7721 11.034 39.7901 11.07 39.7901 11.142C39.7901 11.214 39.7721 11.25 39.7361 11.25C39.3401 11.25 39.0281 11.244 38.8001 11.232L37.4501 11.214L36.1361 11.232C35.9081 11.244 35.5841 11.25 35.1641 11.25C35.1401 11.25 35.1281 11.214 35.1281 11.142C35.1281 11.07 35.1401 11.034 35.1641 11.034C35.5721 11.034 35.8661 11.004 36.0461 10.944C36.2381 10.884 36.3641 10.77 36.4241 10.602C36.4961 10.422 36.5321 10.152 36.5321 9.792V4.248C36.5321 3.804 36.4901 3.516 36.4061 3.384C36.3221 3.252 36.1301 3.186 35.8301 3.186ZM46.8813 11.466C46.0293 11.466 45.2673 11.268 44.5953 10.872C43.9233 10.464 43.4013 9.924 43.0293 9.252C42.6573 8.568 42.4713 7.83 42.4713 7.038C42.4713 6.126 42.7053 5.334 43.1733 4.662C43.6533 3.99 44.2593 3.48 44.9913 3.132C45.7353 2.784 46.4973 2.61 47.2773 2.61C48.1293 2.61 48.8793 2.82 49.5273 3.24C50.1873 3.648 50.6973 4.188 51.0573 4.86C51.4173 5.52 51.5973 6.216 51.5973 6.948C51.5973 7.752 51.3873 8.502 50.9673 9.198C50.5473 9.882 49.9773 10.434 49.2573 10.854C48.5373 11.262 47.7453 11.466 46.8813 11.466ZM47.2953 11.052C47.9673 11.052 48.5073 10.722 48.9153 10.062C49.3353 9.402 49.5453 8.49 49.5453 7.326C49.5453 6.534 49.4253 5.814 49.1853 5.166C48.9453 4.518 48.6033 4.008 48.1593 3.636C47.7273 3.252 47.2233 3.06 46.6473 3.06C45.9513 3.06 45.4233 3.348 45.0633 3.924C44.7033 4.5 44.5233 5.352 44.5233 6.48C44.5233 7.332 44.6433 8.112 44.8833 8.82C45.1353 9.516 45.4713 10.062 45.8913 10.458C46.3113 10.854 46.7793 11.052 47.2953 11.052ZM61.6729 6.57C62.7769 6.558 63.6169 6.738 64.1929 7.11C64.7809 7.47 65.0749 7.998 65.0749 8.694C65.0749 9.21 64.9249 9.666 64.6249 10.062C64.3249 10.458 63.9049 10.77 63.3649 10.998C62.8369 11.214 62.2309 11.322 61.5469 11.322C61.2229 11.322 60.8329 11.304 60.3769 11.268C60.2089 11.256 59.9989 11.244 59.7469 11.232C59.5069 11.22 59.2429 11.214 58.9549 11.214L57.8029 11.232C57.5869 11.244 57.2869 11.25 56.9029 11.25C56.8789 11.25 56.8669 11.214 56.8669 11.142C56.8669 11.07 56.8789 11.034 56.9029 11.034C57.2629 11.034 57.5209 11.004 57.6769 10.944C57.8449 10.884 57.9529 10.77 58.0009 10.602C58.0609 10.422 58.0909 10.152 58.0909 9.792V4.284C58.0909 3.924 58.0609 3.66 58.0009 3.492C57.9529 3.324 57.8449 3.21 57.6769 3.15C57.5209 3.078 57.2749 3.042 56.9389 3.042C56.9029 3.042 56.8849 3.006 56.8849 2.934C56.8849 2.862 56.9029 2.826 56.9389 2.826L57.8029 2.844C58.2829 2.868 58.6669 2.88 58.9549 2.88C59.3149 2.88 59.6929 2.862 60.0889 2.826C60.2209 2.814 60.4189 2.802 60.6829 2.79C60.9469 2.778 61.1749 2.772 61.3669 2.772C62.2549 2.772 62.9449 2.922 63.4369 3.222C63.9409 3.522 64.1929 3.954 64.1929 4.518C64.1929 5.046 63.9589 5.508 63.4909 5.904C63.0229 6.3 62.3509 6.594 61.4749 6.786L61.6729 6.57ZM60.9169 3.006C60.6289 3.006 60.4129 3.042 60.2689 3.114C60.1249 3.174 60.0229 3.3 59.9629 3.492C59.9029 3.672 59.8729 3.948 59.8729 4.32V6.642L59.1169 6.516C59.5249 6.552 60.0469 6.57 60.6829 6.57C61.1149 6.57 61.4449 6.534 61.6729 6.462C61.9129 6.378 62.0929 6.222 62.2129 5.994C62.3329 5.754 62.3929 5.412 62.3929 4.968C62.3929 3.66 61.9009 3.006 60.9169 3.006ZM61.2229 11.034C62.5309 11.034 63.1849 10.398 63.1849 9.126C63.1849 7.662 62.2789 6.93 60.4669 6.93C59.9389 6.93 59.4889 6.96 59.1169 7.02L59.8729 6.786V9.792C59.8729 10.248 59.9629 10.572 60.1429 10.764C60.3229 10.944 60.6829 11.034 61.2229 11.034ZM71.3639 2.61C71.8079 2.61 72.2879 2.658 72.8039 2.754C73.3319 2.85 73.7639 2.976 74.0999 3.132C74.1839 3.168 74.2379 3.21 74.2619 3.258C74.2859 3.294 74.2979 3.354 74.2979 3.438L74.3879 5.292C74.3879 5.328 74.3579 5.352 74.2979 5.364C74.2379 5.376 74.1959 5.358 74.1719 5.31C73.7159 4.53 73.2479 3.954 72.7679 3.582C72.2999 3.198 71.7599 3.006 71.1479 3.006C70.2959 3.006 69.6419 3.348 69.1859 4.032C68.7299 4.704 68.5019 5.604 68.5019 6.732C68.5019 7.476 68.6039 8.178 68.8079 8.838C69.0239 9.498 69.3599 10.038 69.8159 10.458C70.2719 10.878 70.8479 11.088 71.5439 11.088C72.1559 11.088 72.6719 10.902 73.0919 10.53C73.5239 10.158 73.9439 9.558 74.3519 8.73C74.3639 8.682 74.3999 8.664 74.4599 8.676C74.5199 8.688 74.5499 8.712 74.5499 8.748L74.4059 10.656C74.3939 10.752 74.3759 10.818 74.3519 10.854C74.3279 10.89 74.2619 10.932 74.1539 10.98C73.2299 11.304 72.2699 11.466 71.2739 11.466C70.1219 11.466 69.1799 11.238 68.4479 10.782C67.7159 10.326 67.1819 9.756 66.8459 9.072C66.5219 8.388 66.3599 7.698 66.3599 7.002C66.3599 6.186 66.5759 5.442 67.0079 4.77C67.4519 4.098 68.0519 3.57 68.8079 3.186C69.5759 2.802 70.4279 2.61 71.3639 2.61ZM78.2989 3.186C77.8429 3.186 77.4049 3.378 76.9849 3.762C76.5769 4.146 76.2529 4.668 76.0129 5.328C76.0009 5.364 75.9649 5.382 75.9049 5.382C75.8449 5.382 75.8149 5.364 75.8149 5.328C75.8629 4.944 75.9169 4.446 75.9769 3.834C76.0369 3.21 76.0669 2.742 76.0669 2.43C76.0669 2.37 76.0969 2.34 76.1569 2.34C76.2289 2.34 76.2649 2.37 76.2649 2.43C76.2649 2.586 76.3549 2.688 76.5349 2.736C76.7149 2.772 76.9429 2.79 77.2189 2.79C78.2509 2.814 79.1569 2.826 79.9369 2.826L81.5029 2.808C81.7069 2.796 81.9829 2.79 82.3309 2.79C82.7989 2.79 83.1469 2.766 83.3749 2.718C83.6149 2.658 83.7649 2.538 83.8249 2.358C83.8369 2.322 83.8729 2.304 83.9329 2.304C84.0049 2.304 84.0409 2.322 84.0409 2.358L83.9869 3.258C83.9149 4.314 83.8789 5.004 83.8789 5.328C83.8789 5.364 83.8429 5.382 83.7709 5.382C83.6989 5.382 83.6629 5.364 83.6629 5.328C83.6029 4.956 83.4649 4.608 83.2489 4.284C83.0329 3.948 82.7749 3.684 82.4749 3.492C82.1869 3.288 81.8929 3.186 81.5929 3.186C81.3049 3.186 81.1129 3.264 81.0169 3.42C80.9209 3.564 80.8729 3.852 80.8729 4.284V9.792C80.8729 10.152 80.9029 10.422 80.9629 10.602C81.0349 10.77 81.1609 10.884 81.3409 10.944C81.5209 11.004 81.8089 11.034 82.2049 11.034C82.2409 11.034 82.2589 11.07 82.2589 11.142C82.2589 11.214 82.2409 11.25 82.2049 11.25C81.8089 11.25 81.4969 11.244 81.2689 11.232L79.9189 11.214L78.6049 11.232C78.3769 11.244 78.0529 11.25 77.6329 11.25C77.6089 11.25 77.5969 11.214 77.5969 11.142C77.5969 11.07 77.6089 11.034 77.6329 11.034C78.0409 11.034 78.3349 11.004 78.5149 10.944C78.7069 10.884 78.8329 10.77 78.8929 10.602C78.9649 10.422 79.0009 10.152 79.0009 9.792V4.248C79.0009 3.804 78.9589 3.516 78.8749 3.384C78.7909 3.252 78.5989 3.186 78.2989 3.186ZM87.892 9.72C87.892 10.092 87.928 10.368 88 10.548C88.084 10.728 88.234 10.854 88.45 10.926C88.678 10.998 89.026 11.034 89.494 11.034C89.53 11.034 89.548 11.07 89.548 11.142C89.548 11.214 89.53 11.25 89.494 11.25C89.038 11.25 88.684 11.244 88.432 11.232L87.01 11.214L85.84 11.232C85.624 11.244 85.324 11.25 84.94 11.25C84.916 11.25 84.904 11.214 84.904 11.142C84.904 11.07 84.916 11.034 84.94 11.034C85.276 11.034 85.522 11.004 85.678 10.944C85.846 10.872 85.96 10.752 86.02 10.584C86.08 10.416 86.11 10.152 86.11 9.792V4.284C86.11 3.936 86.074 3.678 86.002 3.51C85.942 3.33 85.828 3.21 85.66 3.15C85.504 3.078 85.264 3.042 84.94 3.042C84.916 3.042 84.904 3.006 84.904 2.934C84.904 2.862 84.916 2.826 84.94 2.826L85.822 2.844C86.326 2.868 86.716 2.88 86.992 2.88C87.304 2.88 87.628 2.862 87.964 2.826C88.096 2.814 88.282 2.802 88.522 2.79C88.774 2.778 88.99 2.772 89.17 2.772C90.202 2.772 90.988 2.94 91.528 3.276C92.068 3.612 92.338 4.116 92.338 4.788C92.338 5.388 92.188 5.898 91.888 6.318C91.6 6.738 91.216 7.056 90.736 7.272C90.268 7.476 89.77 7.578 89.242 7.578C89.014 7.578 88.876 7.566 88.828 7.542C88.792 7.518 88.774 7.476 88.774 7.416C88.774 7.344 88.816 7.308 88.9 7.308L89.152 7.326C89.512 7.326 89.794 7.152 89.998 6.804C90.214 6.444 90.322 5.91 90.322 5.202C90.322 4.458 90.19 3.924 89.926 3.6C89.662 3.264 89.272 3.096 88.756 3.096C88.456 3.096 88.234 3.18 88.09 3.348C87.958 3.504 87.892 3.828 87.892 4.32V9.72ZM93.4127 11.25C93.3887 11.25 93.3767 11.214 93.3767 11.142C93.3767 11.07 93.3887 11.034 93.4127 11.034C93.7607 11.034 94.0127 11.004 94.1687 10.944C94.3247 10.884 94.4327 10.77 94.4927 10.602C94.5527 10.422 94.5827 10.152 94.5827 9.792V4.284C94.5827 3.924 94.5527 3.66 94.4927 3.492C94.4327 3.324 94.3187 3.21 94.1507 3.15C93.9947 3.078 93.7487 3.042 93.4127 3.042C93.3887 3.042 93.3767 3.006 93.3767 2.934C93.3767 2.862 93.3887 2.826 93.4127 2.826H99.8567C99.9767 2.826 100.037 2.874 100.037 2.97L100.055 4.086C100.067 4.314 100.073 4.602 100.073 4.95C100.073 4.986 100.037 5.004 99.9647 5.004C99.9047 5.004 99.8687 4.986 99.8567 4.95C99.6287 4.422 99.2807 3.978 98.8127 3.618C98.3447 3.246 97.8707 3.06 97.3907 3.06H97.2647C97.0007 3.06 96.8027 3.096 96.6707 3.168C96.5507 3.228 96.4667 3.342 96.4187 3.51C96.3827 3.678 96.3647 3.942 96.3647 4.302V9.72C96.3647 10.08 96.3827 10.344 96.4187 10.512C96.4667 10.68 96.5507 10.8 96.6707 10.872C96.8027 10.932 97.0007 10.962 97.2647 10.962H97.4627C98.0267 10.962 98.5847 10.764 99.1367 10.368C99.6887 9.96 100.097 9.456 100.361 8.856C100.385 8.82 100.427 8.802 100.487 8.802C100.547 8.802 100.577 8.82 100.577 8.856C100.493 9.72 100.451 10.428 100.451 10.98C100.451 11.076 100.433 11.148 100.397 11.196C100.361 11.232 100.289 11.25 100.181 11.25H93.4127ZM99.1187 7.398C99.0587 7.398 98.7647 7.362 98.2367 7.29C97.7207 7.218 96.8327 7.182 95.5727 7.182V6.732C96.8327 6.732 97.7207 6.702 98.2367 6.642C98.7647 6.57 99.0587 6.534 99.1187 6.534C99.2027 6.534 99.2447 6.666 99.2447 6.93C99.2447 7.05 99.2327 7.158 99.2087 7.254C99.1847 7.35 99.1547 7.398 99.1187 7.398ZM105.074 8.226C104.306 8.226 103.694 8.01 103.238 7.578C102.782 7.134 102.554 6.486 102.554 5.634V4.284C102.554 3.816 102.458 3.492 102.266 3.312C102.074 3.132 101.84 3.042 101.564 3.042C101.528 3.042 101.51 3.006 101.51 2.934C101.51 2.862 101.528 2.826 101.564 2.826L102.356 2.844C102.86 2.868 103.214 2.88 103.418 2.88C103.634 2.88 104.006 2.868 104.534 2.844L105.416 2.826C105.44 2.826 105.452 2.862 105.452 2.934C105.452 3.006 105.44 3.042 105.416 3.042C105.044 3.042 104.75 3.138 104.534 3.33C104.318 3.51 104.21 3.84 104.21 4.32V5.22C104.21 5.916 104.348 6.444 104.624 6.804C104.912 7.152 105.326 7.326 105.866 7.326C106.31 7.326 106.778 7.182 107.27 6.894C107.762 6.606 108.182 6.222 108.53 5.742L108.62 5.94C107.504 7.464 106.322 8.226 105.074 8.226ZM106.892 11.25C106.856 11.25 106.838 11.214 106.838 11.142C106.838 11.07 106.856 11.034 106.892 11.034C107.228 11.034 107.474 11.004 107.63 10.944C107.786 10.872 107.894 10.752 107.954 10.584C108.014 10.416 108.044 10.152 108.044 9.792V4.32C108.044 3.804 107.966 3.462 107.81 3.294C107.666 3.126 107.36 3.042 106.892 3.042C106.856 3.042 106.838 3.006 106.838 2.934C106.838 2.862 106.856 2.826 106.892 2.826L107.738 2.844C108.242 2.868 108.644 2.88 108.944 2.88C109.244 2.88 109.634 2.868 110.114 2.844L111.014 2.826C111.038 2.826 111.05 2.862 111.05 2.934C111.05 3.006 111.038 3.042 111.014 3.042C110.678 3.042 110.426 3.078 110.258 3.15C110.09 3.21 109.976 3.324 109.916 3.492C109.856 3.66 109.826 3.924 109.826 4.284V9.792C109.826 10.152 109.856 10.422 109.916 10.602C109.976 10.77 110.084 10.884 110.24 10.944C110.408 11.004 110.666 11.034 111.014 11.034C111.038 11.034 111.05 11.07 111.05 11.142C111.05 11.214 111.038 11.25 111.014 11.25C110.63 11.25 110.33 11.244 110.114 11.232L108.944 11.214L107.738 11.232C107.534 11.244 107.252 11.25 106.892 11.25ZM119.424 4.32C119.424 3.96 119.394 3.696 119.334 3.528C119.274 3.348 119.166 3.222 119.01 3.15C118.854 3.078 118.608 3.042 118.272 3.042C118.236 3.042 118.218 3.006 118.218 2.934C118.218 2.862 118.236 2.826 118.272 2.826L119.136 2.844C119.616 2.868 120.018 2.88 120.342 2.88C120.63 2.88 121.026 2.868 121.53 2.844L122.394 2.826C122.43 2.826 122.448 2.862 122.448 2.934C122.448 3.006 122.43 3.042 122.394 3.042C122.058 3.042 121.806 3.078 121.638 3.15C121.482 3.21 121.374 3.324 121.314 3.492C121.254 3.66 121.224 3.924 121.224 4.284V9.792C121.224 10.152 121.254 10.422 121.314 10.602C121.374 10.77 121.482 10.884 121.638 10.944C121.794 11.004 122.046 11.034 122.394 11.034C122.43 11.034 122.448 11.07 122.448 11.142C122.448 11.214 122.43 11.25 122.394 11.25C122.022 11.25 121.734 11.244 121.53 11.232L120.342 11.214L119.136 11.232C118.932 11.244 118.644 11.25 118.272 11.25C118.236 11.25 118.218 11.214 118.218 11.142C118.218 11.07 118.236 11.034 118.272 11.034C118.608 11.034 118.854 11.004 119.01 10.944C119.166 10.884 119.274 10.77 119.334 10.602C119.394 10.422 119.424 10.152 119.424 9.792V4.32ZM114.006 9.936L120.252 3.69L120.612 4.05L114.348 10.296L114.006 9.936ZM113.304 4.284C113.304 3.924 113.274 3.66 113.214 3.492C113.154 3.324 113.04 3.21 112.872 3.15C112.716 3.078 112.476 3.042 112.152 3.042C112.116 3.042 112.098 3.006 112.098 2.934C112.098 2.862 112.116 2.826 112.152 2.826L113.016 2.844C113.496 2.868 113.886 2.88 114.186 2.88C114.51 2.88 114.912 2.868 115.392 2.844L116.256 2.826C116.28 2.826 116.292 2.862 116.292 2.934C116.292 3.006 116.28 3.042 116.256 3.042C115.776 3.042 115.458 3.126 115.302 3.294C115.158 3.462 115.086 3.804 115.086 4.32V9.792C115.086 10.152 115.116 10.416 115.176 10.584C115.236 10.752 115.344 10.872 115.5 10.944C115.668 11.004 115.92 11.034 116.256 11.034C116.28 11.034 116.292 11.07 116.292 11.142C116.292 11.214 116.28 11.25 116.256 11.25C115.884 11.25 115.596 11.244 115.392 11.232L114.186 11.214L113.016 11.232C112.8 11.244 112.5 11.25 112.116 11.25C112.092 11.25 112.08 11.214 112.08 11.142C112.08 11.07 112.092 11.034 112.116 11.034C112.464 11.034 112.716 11.004 112.872 10.944C113.04 10.884 113.154 10.77 113.214 10.602C113.274 10.422 113.304 10.152 113.304 9.792V4.284Z" fill="#706760"/>
</svg>
