<svg width="216" height="11" viewBox="0 0 216 11" fill="none" xmlns="http://www.w3.org/2000/svg">
<path d="M9.35199 8.582C9.37065 8.582 9.37999 8.61 9.37999 8.666C9.37999 8.722 9.37065 8.75 9.35199 8.75C9.05332 8.75 8.81999 8.74533 8.65199 8.736L7.72799 8.722L6.77599 8.736C6.60799 8.74533 6.38399 8.75 6.10399 8.75C6.08532 8.75 6.07599 8.722 6.07599 8.666C6.07599 8.61 6.08532 8.582 6.10399 8.582C6.47732 8.582 6.74799 8.55867 6.91599 8.512C7.08399 8.46533 7.19599 8.37667 7.25199 8.246C7.31732 8.11533 7.34999 7.90533 7.34999 7.616V1.162C7.34999 0.844666 7.33132 0.634666 7.29399 0.532C7.25665 0.429333 7.16799 0.363999 7.02799 0.336C6.88799 0.308 6.59865 0.294 6.15999 0.294H3.28999C2.84199 0.294 2.53865 0.308 2.37999 0.336C2.22132 0.363999 2.12332 0.433999 2.08599 0.546C2.04865 0.648666 2.02999 0.853999 2.02999 1.162V7.616C2.02999 7.90533 2.05799 8.11533 2.11399 8.246C2.17932 8.37667 2.29599 8.46533 2.46399 8.512C2.63199 8.55867 2.90265 8.582 3.27599 8.582C3.29465 8.582 3.30399 8.61 3.30399 8.666C3.30399 8.722 3.29465 8.75 3.27599 8.75C2.99599 8.75 2.77199 8.74533 2.60399 8.736L1.65199 8.722L0.727987 8.736C0.559987 8.74533 0.326654 8.75 0.0279868 8.75C0.00932018 8.75 -1.31577e-05 8.722 -1.31577e-05 8.666C-1.31577e-05 8.61 0.00932018 8.582 0.0279868 8.582C0.391987 8.582 0.657987 8.55867 0.825987 8.512C1.00332 8.46533 1.12465 8.37667 1.18999 8.246C1.25532 8.106 1.28799 7.896 1.28799 7.616V1.302C1.28799 1.01267 1.25532 0.788666 1.18999 0.629999C1.13399 0.471333 1.01265 0.354667 0.825987 0.28C0.648654 0.205333 0.38732 0.168 0.0419868 0.168C0.0233202 0.168 0.0139868 0.14 0.0139868 0.0839998C0.0139868 0.0279999 0.0233202 0 0.0419868 0C0.35932 0 0.657987 0.00466661 0.937987 0.0139998C2.16999 0.0326662 3.43932 0.0419995 4.74599 0.0419995C5.92199 0.0419995 7.29399 0.0279996 8.86199 0H9.35199C9.37065 0 9.37999 0.0279999 9.37999 0.0839998C9.37999 0.14 9.37065 0.168 9.35199 0.168C8.99732 0.168 8.73132 0.205333 8.55399 0.28C8.37665 0.354667 8.25532 0.471333 8.18999 0.629999C8.12465 0.788666 8.09199 1.01267 8.09199 1.302V7.616C8.09199 7.896 8.12465 8.106 8.18999 8.246C8.25532 8.37667 8.37199 8.46533 8.53999 8.512C8.71732 8.55867 8.98799 8.582 9.35199 8.582ZM12.1696 7.56C12.1696 7.85867 12.2023 8.078 12.2676 8.218C12.3423 8.34867 12.4729 8.442 12.6596 8.498C12.8556 8.554 13.1636 8.582 13.5836 8.582C13.6116 8.582 13.6256 8.61 13.6256 8.666C13.6256 8.722 13.6116 8.75 13.5836 8.75C13.2569 8.75 13.0049 8.74533 12.8276 8.736L11.8196 8.722L10.9936 8.736C10.8443 8.74533 10.6389 8.75 10.3776 8.75C10.3589 8.75 10.3496 8.722 10.3496 8.666C10.3496 8.61 10.3589 8.582 10.3776 8.582C10.6949 8.582 10.9283 8.55867 11.0776 8.512C11.2269 8.46533 11.3249 8.37667 11.3716 8.246C11.4276 8.106 11.4556 7.896 11.4556 7.616V3.332C11.4556 3.052 11.4276 2.84667 11.3716 2.716C11.3249 2.58533 11.2269 2.49667 11.0776 2.45C10.9283 2.394 10.6949 2.366 10.3776 2.366C10.3589 2.366 10.3496 2.338 10.3496 2.282C10.3496 2.226 10.3589 2.198 10.3776 2.198L10.9936 2.212C11.3296 2.23067 11.6003 2.24 11.8056 2.24C11.9643 2.24 12.1136 2.23533 12.2536 2.226C12.4029 2.21667 12.5336 2.20733 12.6456 2.198C12.9256 2.17 13.1869 2.156 13.4296 2.156C14.9416 2.156 15.6976 2.73467 15.6976 3.892C15.6976 4.33067 15.5809 4.704 15.3476 5.012C15.1236 5.31067 14.8389 5.53467 14.4936 5.684C14.1483 5.824 13.7936 5.894 13.4296 5.894C13.1589 5.894 12.9303 5.87533 12.7436 5.838C12.7156 5.838 12.7016 5.81467 12.7016 5.768C12.7016 5.74 12.7063 5.712 12.7156 5.684C12.7343 5.656 12.7529 5.64667 12.7716 5.656C12.9396 5.684 13.1076 5.698 13.2756 5.698C13.7236 5.698 14.1016 5.56733 14.4096 5.306C14.7269 5.03533 14.8856 4.65733 14.8856 4.172C14.8856 3.584 14.7223 3.13133 14.3956 2.814C14.0689 2.49667 13.6349 2.338 13.0936 2.338C12.8323 2.338 12.6409 2.35667 12.5196 2.394C12.3983 2.43133 12.3096 2.52 12.2536 2.66C12.1976 2.8 12.1696 3.03333 12.1696 3.36V7.56ZM18.4128 5.25H20.9608L21.0588 5.474H18.1888L18.4128 5.25ZM23.5228 8.582C23.5602 8.582 23.5788 8.61 23.5788 8.666C23.5788 8.722 23.5602 8.75 23.5228 8.75C23.3548 8.75 23.0842 8.74067 22.7108 8.722C22.3562 8.70333 22.0948 8.694 21.9268 8.694C21.7962 8.694 21.6095 8.70333 21.3668 8.722C21.1428 8.74067 20.9702 8.75 20.8488 8.75C20.8115 8.75 20.7928 8.722 20.7928 8.666C20.7928 8.61 20.8115 8.582 20.8488 8.582C21.1008 8.582 21.2875 8.54933 21.4088 8.484C21.5395 8.41867 21.6048 8.30667 21.6048 8.148C21.6048 7.99867 21.5488 7.80733 21.4368 7.574L19.2248 2.786L19.5328 2.674L17.7968 7.028C17.6475 7.42 17.5728 7.70933 17.5728 7.896C17.5728 8.13867 17.6568 8.316 17.8248 8.428C18.0022 8.53067 18.2635 8.582 18.6088 8.582C18.6555 8.582 18.6788 8.61 18.6788 8.666C18.6788 8.722 18.6555 8.75 18.6088 8.75C18.4688 8.75 18.2775 8.74067 18.0348 8.722C17.7735 8.70333 17.5308 8.694 17.3068 8.694C17.0735 8.694 16.7982 8.70333 16.4808 8.722C16.2008 8.74067 15.9768 8.75 15.8088 8.75C15.7715 8.75 15.7528 8.722 15.7528 8.666C15.7528 8.61 15.7715 8.582 15.8088 8.582C16.0982 8.582 16.3268 8.54467 16.4948 8.47C16.6628 8.386 16.8168 8.22733 16.9568 7.994C17.0968 7.76067 17.2695 7.39667 17.4748 6.902L19.4768 1.988C19.4955 1.95067 19.5235 1.932 19.5608 1.932C19.5982 1.932 19.6215 1.95067 19.6308 1.988L21.8848 6.832C22.1275 7.35467 22.3188 7.73267 22.4588 7.966C22.6082 8.19933 22.7575 8.36267 22.9068 8.456C23.0655 8.54 23.2708 8.582 23.5228 8.582ZM26.4988 8.694C26.9748 8.694 27.3341 8.53533 27.5768 8.218C27.8195 7.90067 27.9408 7.50867 27.9408 7.042C27.9408 6.49133 27.7588 6.07133 27.3948 5.782C27.0401 5.49267 26.5315 5.348 25.8688 5.348C25.8315 5.348 25.8128 5.32 25.8128 5.264C25.8128 5.208 25.8315 5.18 25.8688 5.18C26.4941 5.18 26.9701 5.04933 27.2968 4.788C27.6235 4.51733 27.7868 4.15333 27.7868 3.696C27.7868 3.25733 27.6515 2.90267 27.3808 2.632C27.1195 2.352 26.7881 2.212 26.3868 2.212C25.9855 2.212 25.6215 2.37067 25.2948 2.688C24.9775 3.00533 24.7255 3.46267 24.5388 4.06C24.5388 4.088 24.5155 4.102 24.4688 4.102C24.4501 4.102 24.4268 4.09733 24.3988 4.088C24.3801 4.06933 24.3708 4.05533 24.3708 4.046L24.5948 2.744C24.6135 2.62267 24.6321 2.548 24.6508 2.52C24.6695 2.48267 24.7208 2.44533 24.8048 2.408C25.4395 2.156 26.0228 2.03 26.5548 2.03C27.1708 2.03 27.6561 2.16533 28.0108 2.436C28.3748 2.69733 28.5568 3.02867 28.5568 3.43C28.5568 3.738 28.4588 4.032 28.2628 4.312C28.0668 4.592 27.8241 4.82067 27.5348 4.998C27.2455 5.17533 26.9795 5.27333 26.7368 5.292L26.9328 5.18C27.4835 5.18 27.9315 5.334 28.2768 5.642C28.6315 5.94067 28.8088 6.33733 28.8088 6.832C28.8088 7.224 28.6921 7.58333 28.4588 7.91C28.2348 8.22733 27.9315 8.47467 27.5488 8.652C27.1661 8.82933 26.7461 8.918 26.2888 8.918C25.9621 8.918 25.6355 8.86667 25.3088 8.764C24.9915 8.67067 24.7348 8.54467 24.5388 8.386C24.4548 8.33 24.4035 8.288 24.3848 8.26C24.3661 8.22267 24.3521 8.15733 24.3428 8.064L24.1888 6.79C24.1888 6.762 24.2121 6.74333 24.2588 6.734C24.3148 6.72467 24.3475 6.734 24.3568 6.762C24.4875 7.322 24.7488 7.784 25.1408 8.148C25.5421 8.512 25.9948 8.694 26.4988 8.694ZM29.5383 10.878C29.5383 10.038 29.5197 9.43133 29.4823 9.058C29.473 8.974 29.4683 8.87133 29.4683 8.75C29.4683 8.666 29.473 8.61933 29.4823 8.61C29.501 8.59133 29.543 8.582 29.6083 8.582C30.271 8.582 30.7797 8.14333 31.1343 7.266C31.4983 6.38867 31.7457 5.15667 31.8763 3.57C31.8857 3.47667 31.8903 3.35533 31.8903 3.206C31.8903 2.86067 31.8203 2.63667 31.6803 2.534C31.5403 2.422 31.2743 2.366 30.8823 2.366C30.8543 2.366 30.8403 2.338 30.8403 2.282C30.8403 2.226 30.8543 2.198 30.8823 2.198H36.2723C36.291 2.198 36.3003 2.226 36.3003 2.282C36.3003 2.338 36.291 2.366 36.2723 2.366C35.955 2.366 35.7217 2.394 35.5723 2.45C35.423 2.506 35.3203 2.604 35.2643 2.744C35.2177 2.87467 35.1943 3.08 35.1943 3.36V7.616V8.078C35.1943 8.246 35.213 8.36267 35.2503 8.428C35.297 8.49333 35.381 8.53533 35.5023 8.554C35.6237 8.57267 35.8523 8.582 36.1883 8.582C36.2537 8.582 36.291 8.59133 36.3003 8.61C36.3097 8.61933 36.3143 8.666 36.3143 8.75C36.3143 8.87133 36.3097 8.974 36.3003 9.058C36.2723 9.618 36.2583 10.2247 36.2583 10.878C36.2583 10.9247 36.2303 10.948 36.1743 10.948C36.1183 10.948 36.0903 10.9247 36.0903 10.878C36.0903 10.0753 35.955 9.52 35.6843 9.212C35.4137 8.904 35.0357 8.75 34.5503 8.75H31.0783C30.649 8.75 30.313 8.904 30.0703 9.212C29.8277 9.52 29.7063 10.0753 29.7063 10.878C29.7063 10.9247 29.6783 10.948 29.6223 10.948C29.5663 10.948 29.5383 10.9247 29.5383 10.878ZM30.2943 8.456H32.4363C33.155 8.456 33.6357 8.442 33.8783 8.414C34.1303 8.386 34.2937 8.32067 34.3683 8.218C34.443 8.11533 34.4803 7.91467 34.4803 7.616V3.332C34.4803 3.01467 34.4663 2.80467 34.4383 2.702C34.4197 2.59933 34.3683 2.534 34.2843 2.506C34.2003 2.478 34.023 2.464 33.7523 2.464H33.1363C32.875 2.464 32.6883 2.48267 32.5763 2.52C32.4643 2.55733 32.385 2.632 32.3383 2.744C32.301 2.84667 32.2683 3.03333 32.2403 3.304C32.0817 4.94667 31.853 6.22067 31.5543 7.126C31.265 8.03133 30.7983 8.57267 30.1543 8.75L30.2943 8.456ZM43.1635 3.36C43.1635 3.08 43.1355 2.87467 43.0795 2.744C43.0329 2.604 42.9349 2.506 42.7855 2.45C42.6362 2.394 42.4029 2.366 42.0855 2.366C42.0575 2.366 42.0435 2.338 42.0435 2.282C42.0435 2.226 42.0575 2.198 42.0855 2.198L42.6735 2.212C43.0282 2.23067 43.3129 2.24 43.5275 2.24C43.7235 2.24 43.9989 2.23067 44.3535 2.212L44.9695 2.198C44.9882 2.198 44.9975 2.226 44.9975 2.282C44.9975 2.338 44.9882 2.366 44.9695 2.366C44.6429 2.366 44.4049 2.394 44.2555 2.45C44.1062 2.49667 44.0035 2.58533 43.9475 2.716C43.8915 2.84667 43.8635 3.052 43.8635 3.332V7.616C43.8635 7.896 43.8915 8.106 43.9475 8.246C44.0035 8.37667 44.1062 8.46533 44.2555 8.512C44.4049 8.55867 44.6429 8.582 44.9695 8.582C44.9882 8.582 44.9975 8.61 44.9975 8.666C44.9975 8.722 44.9882 8.75 44.9695 8.75C44.7082 8.75 44.5029 8.74533 44.3535 8.736L43.5275 8.722L42.6735 8.736C42.5335 8.74533 42.3375 8.75 42.0855 8.75C42.0575 8.75 42.0435 8.722 42.0435 8.666C42.0435 8.61 42.0575 8.582 42.0855 8.582C42.4029 8.582 42.6362 8.55867 42.7855 8.512C42.9349 8.46533 43.0329 8.37667 43.0795 8.246C43.1355 8.106 43.1635 7.896 43.1635 7.616V3.36ZM38.7115 5.334H43.4575V5.558H38.7115V5.334ZM38.4035 3.332C38.4035 3.052 38.3755 2.84667 38.3195 2.716C38.2635 2.58533 38.1609 2.49667 38.0115 2.45C37.8622 2.394 37.6289 2.366 37.3115 2.366C37.2929 2.366 37.2835 2.338 37.2835 2.282C37.2835 2.226 37.2929 2.198 37.3115 2.198L37.9275 2.212C38.2635 2.23067 38.5342 2.24 38.7395 2.24C38.9729 2.24 39.2575 2.23067 39.5935 2.212L40.1815 2.198C40.2095 2.198 40.2235 2.226 40.2235 2.282C40.2235 2.338 40.2095 2.366 40.1815 2.366C39.8735 2.366 39.6449 2.394 39.4955 2.45C39.3462 2.506 39.2435 2.604 39.1875 2.744C39.1315 2.87467 39.1035 3.08 39.1035 3.36V7.616C39.1035 7.90533 39.1269 8.11533 39.1735 8.246C39.2295 8.37667 39.3275 8.46533 39.4675 8.512C39.6169 8.55867 39.8549 8.582 40.1815 8.582C40.2095 8.582 40.2235 8.61 40.2235 8.666C40.2235 8.722 40.2095 8.75 40.1815 8.75C39.9295 8.75 39.7335 8.74533 39.5935 8.736L38.7395 8.722L37.9135 8.736C37.7642 8.74533 37.5589 8.75 37.2975 8.75C37.2789 8.75 37.2695 8.722 37.2695 8.666C37.2695 8.61 37.2789 8.582 37.2975 8.582C37.6242 8.582 37.8622 8.55867 38.0115 8.512C38.1609 8.46533 38.2635 8.37667 38.3195 8.246C38.3755 8.106 38.4035 7.896 38.4035 7.616V3.332ZM51.8452 3.36C51.8452 3.08 51.8172 2.87467 51.7612 2.744C51.7145 2.604 51.6165 2.506 51.4672 2.45C51.3178 2.394 51.0845 2.366 50.7672 2.366C50.7392 2.366 50.7252 2.338 50.7252 2.282C50.7252 2.226 50.7392 2.198 50.7672 2.198L51.3552 2.212C51.7098 2.23067 51.9945 2.24 52.2092 2.24C52.4052 2.24 52.6805 2.23067 53.0352 2.212L53.6512 2.198C53.6698 2.198 53.6792 2.226 53.6792 2.282C53.6792 2.338 53.6698 2.366 53.6512 2.366C53.3245 2.366 53.0865 2.394 52.9372 2.45C52.7878 2.49667 52.6852 2.58533 52.6292 2.716C52.5732 2.84667 52.5452 3.052 52.5452 3.332V7.616C52.5452 7.896 52.5732 8.106 52.6292 8.246C52.6852 8.37667 52.7878 8.46533 52.9372 8.512C53.0865 8.55867 53.3245 8.582 53.6512 8.582C53.6698 8.582 53.6792 8.61 53.6792 8.666C53.6792 8.722 53.6698 8.75 53.6512 8.75C53.3898 8.75 53.1845 8.74533 53.0352 8.736L52.2092 8.722L51.3552 8.736C51.2152 8.74533 51.0192 8.75 50.7672 8.75C50.7392 8.75 50.7252 8.722 50.7252 8.666C50.7252 8.61 50.7392 8.582 50.7672 8.582C51.0845 8.582 51.3178 8.55867 51.4672 8.512C51.6165 8.46533 51.7145 8.37667 51.7612 8.246C51.8172 8.106 51.8452 7.896 51.8452 7.616V3.36ZM47.2812 7.84L52.1392 2.968L52.3212 3.15L47.4632 8.008L47.2812 7.84ZM47.0852 3.332C47.0852 3.052 47.0572 2.84667 47.0012 2.716C46.9452 2.58533 46.8425 2.49667 46.6932 2.45C46.5438 2.394 46.3105 2.366 45.9932 2.366C45.9745 2.366 45.9652 2.338 45.9652 2.282C45.9652 2.226 45.9745 2.198 45.9932 2.198L46.6092 2.212C46.9452 2.23067 47.2158 2.24 47.4212 2.24C47.6545 2.24 47.9392 2.23067 48.2752 2.212L48.8632 2.198C48.8912 2.198 48.9052 2.226 48.9052 2.282C48.9052 2.338 48.8912 2.366 48.8632 2.366C48.5552 2.366 48.3265 2.394 48.1772 2.45C48.0278 2.506 47.9252 2.604 47.8692 2.744C47.8132 2.87467 47.7852 3.08 47.7852 3.36V7.616C47.7852 7.90533 47.8085 8.11533 47.8552 8.246C47.9112 8.37667 48.0092 8.46533 48.1492 8.512C48.2985 8.55867 48.5365 8.582 48.8632 8.582C48.8912 8.582 48.9052 8.61 48.9052 8.666C48.9052 8.722 48.8912 8.75 48.8632 8.75C48.6112 8.75 48.4152 8.74533 48.2752 8.736L47.4212 8.722L46.5952 8.736C46.4458 8.74533 46.2405 8.75 45.9792 8.75C45.9605 8.75 45.9512 8.722 45.9512 8.666C45.9512 8.61 45.9605 8.582 45.9792 8.582C46.3058 8.582 46.5438 8.55867 46.6932 8.512C46.8425 8.46533 46.9452 8.37667 47.0012 8.246C47.0572 8.106 47.0852 7.896 47.0852 7.616V3.332ZM59.8828 8.75C59.8361 8.75 59.7941 8.73133 59.7568 8.694C59.7288 8.64733 59.6868 8.568 59.6308 8.456C59.3508 7.952 59.0148 7.38733 58.6228 6.762C58.5761 6.68733 58.4501 6.49133 58.2448 6.174C58.0395 5.84733 57.8388 5.642 57.6428 5.558C57.4561 5.474 57.1995 5.432 56.8728 5.432C56.7795 5.432 56.5741 5.44133 56.2568 5.46L56.2428 5.208L56.8728 5.166C57.2275 5.14733 57.4515 5.138 57.5448 5.138C57.8248 5.138 58.0441 5.17533 58.2028 5.25C58.3708 5.31533 58.5201 5.432 58.6508 5.6C58.7908 5.768 59.0008 6.06667 59.2808 6.496C59.6635 7.084 59.9621 7.518 60.1768 7.798C60.4008 8.078 60.6155 8.27867 60.8208 8.4C61.0261 8.512 61.2735 8.57267 61.5628 8.582C61.5815 8.582 61.5908 8.61 61.5908 8.666C61.5908 8.722 61.5815 8.75 61.5628 8.75H59.8828ZM54.6608 8.75C54.6421 8.75 54.6328 8.722 54.6328 8.666C54.6328 8.61 54.6421 8.582 54.6608 8.582C54.9875 8.582 55.2255 8.55867 55.3748 8.512C55.5241 8.46533 55.6268 8.37667 55.6828 8.246C55.7388 8.106 55.7668 7.896 55.7668 7.616V3.332C55.7668 3.052 55.7388 2.84667 55.6828 2.716C55.6268 2.58533 55.5241 2.49667 55.3748 2.45C55.2255 2.394 54.9921 2.366 54.6748 2.366C54.6561 2.366 54.6468 2.338 54.6468 2.282C54.6468 2.226 54.6561 2.198 54.6748 2.198L55.2908 2.212C55.6268 2.23067 55.8975 2.24 56.1028 2.24C56.3361 2.24 56.6208 2.23067 56.9568 2.212L57.5448 2.198C57.5728 2.198 57.5868 2.226 57.5868 2.282C57.5868 2.338 57.5728 2.366 57.5448 2.366C57.2368 2.366 57.0081 2.394 56.8588 2.45C56.7095 2.506 56.6068 2.604 56.5508 2.744C56.4948 2.87467 56.4668 3.08 56.4668 3.36V7.616C56.4668 7.90533 56.4901 8.11533 56.5368 8.246C56.5928 8.37667 56.6908 8.46533 56.8308 8.512C56.9801 8.55867 57.2181 8.582 57.5448 8.582C57.5728 8.582 57.5868 8.61 57.5868 8.666C57.5868 8.722 57.5728 8.75 57.5448 8.75C57.2928 8.75 57.0968 8.74533 56.9568 8.736L56.1028 8.722L55.2768 8.736C55.1275 8.74533 54.9221 8.75 54.6608 8.75ZM57.6428 5.348L58.7628 3.836C59.1641 3.276 59.3648 2.88867 59.3648 2.674C59.3648 2.55267 59.3088 2.47333 59.1968 2.436C59.0848 2.38933 58.9075 2.366 58.6648 2.366C58.6368 2.366 58.6228 2.338 58.6228 2.282C58.6228 2.226 58.6368 2.198 58.6648 2.198L59.1968 2.212C59.5141 2.23067 59.8268 2.24 60.1348 2.24C60.3588 2.24 60.6108 2.23067 60.8908 2.212L61.3108 2.198C61.3388 2.198 61.3528 2.226 61.3528 2.282C61.3528 2.338 61.3388 2.366 61.3108 2.366C60.8721 2.366 60.4895 2.478 60.1628 2.702C59.8361 2.926 59.4628 3.31333 59.0428 3.864L57.8108 5.446L57.6428 5.348ZM69.3529 2.03C69.7076 2.03 70.0856 2.06733 70.4869 2.142C70.8976 2.20733 71.2289 2.30533 71.4809 2.436C71.5463 2.464 71.5883 2.492 71.6069 2.52C71.6256 2.548 71.6396 2.59933 71.6489 2.674L71.8029 4.116C71.8029 4.144 71.7749 4.16267 71.7189 4.172C71.6723 4.18133 71.6443 4.16733 71.6349 4.13C71.5043 3.47667 71.2103 2.996 70.7529 2.688C70.3049 2.37067 69.7309 2.212 69.0309 2.212C68.5269 2.212 68.0696 2.34267 67.6589 2.604C67.2483 2.86533 66.9263 3.22933 66.6929 3.696C66.4596 4.15333 66.3429 4.66667 66.3429 5.236C66.3429 5.824 66.4596 6.38867 66.6929 6.93C66.9263 7.462 67.2763 7.90067 67.7429 8.246C68.2096 8.582 68.7696 8.75 69.4229 8.75C70.0109 8.75 70.5103 8.59133 70.9209 8.274C71.3316 7.94733 71.6116 7.45267 71.7609 6.79C71.7609 6.762 71.7843 6.748 71.8309 6.748C71.8496 6.748 71.8683 6.75733 71.8869 6.776C71.9149 6.78533 71.9289 6.79467 71.9289 6.804L71.7329 8.288C71.7236 8.36267 71.7096 8.414 71.6909 8.442C71.6723 8.47 71.6209 8.50267 71.5369 8.54C70.8183 8.792 70.0716 8.918 69.2969 8.918C68.4196 8.918 67.6963 8.74067 67.1269 8.386C66.5576 8.03133 66.1423 7.588 65.8809 7.056C65.6289 6.524 65.5029 5.98733 65.5029 5.446C65.5029 4.81133 65.6709 4.23267 66.0069 3.71C66.3429 3.18733 66.8049 2.77667 67.3929 2.478C67.9809 2.17933 68.6343 2.03 69.3529 2.03ZM76.3134 8.918C75.6601 8.918 75.0768 8.764 74.5634 8.456C74.0594 8.148 73.6674 7.73733 73.3874 7.224C73.1168 6.70133 72.9814 6.13667 72.9814 5.53C72.9814 4.802 73.1728 4.172 73.5554 3.64C73.9381 3.108 74.4188 2.70667 74.9974 2.436C75.5854 2.16533 76.1828 2.03 76.7894 2.03C77.4428 2.03 78.0168 2.18867 78.5114 2.506C79.0061 2.82333 79.3841 3.23867 79.6454 3.752C79.9161 4.26533 80.0514 4.802 80.0514 5.362C80.0514 5.99667 79.8834 6.58933 79.5474 7.14C79.2114 7.68133 78.7541 8.11533 78.1754 8.442C77.6061 8.75933 76.9854 8.918 76.3134 8.918ZM76.6914 8.638C77.4661 8.638 78.0821 8.38133 78.5394 7.868C79.0061 7.35467 79.2394 6.64067 79.2394 5.726C79.2394 5.10067 79.1274 4.53133 78.9034 4.018C78.6794 3.49533 78.3481 3.08 77.9094 2.772C77.4708 2.464 76.9434 2.31 76.3274 2.31C75.5248 2.31 74.8994 2.56667 74.4514 3.08C74.0128 3.59333 73.7934 4.298 73.7934 5.194C73.7934 5.82867 73.9054 6.40733 74.1294 6.93C74.3628 7.45267 74.6988 7.868 75.1374 8.176C75.5761 8.484 76.0941 8.638 76.6914 8.638ZM84.9389 2.03C85.2935 2.03 85.6715 2.06733 86.0729 2.142C86.4835 2.20733 86.8149 2.30533 87.0669 2.436C87.1322 2.464 87.1742 2.492 87.1929 2.52C87.2115 2.548 87.2255 2.59933 87.2349 2.674L87.3889 4.116C87.3889 4.144 87.3609 4.16267 87.3049 4.172C87.2582 4.18133 87.2302 4.16733 87.2209 4.13C87.0902 3.47667 86.7962 2.996 86.3389 2.688C85.8909 2.37067 85.3169 2.212 84.6169 2.212C84.1129 2.212 83.6555 2.34267 83.2449 2.604C82.8342 2.86533 82.5122 3.22933 82.2789 3.696C82.0455 4.15333 81.9289 4.66667 81.9289 5.236C81.9289 5.824 82.0455 6.38867 82.2789 6.93C82.5122 7.462 82.8622 7.90067 83.3289 8.246C83.7955 8.582 84.3555 8.75 85.0089 8.75C85.5969 8.75 86.0962 8.59133 86.5069 8.274C86.9175 7.94733 87.1975 7.45267 87.3469 6.79C87.3469 6.762 87.3702 6.748 87.4169 6.748C87.4355 6.748 87.4542 6.75733 87.4729 6.776C87.5009 6.78533 87.5149 6.79467 87.5149 6.804L87.3189 8.288C87.3095 8.36267 87.2955 8.414 87.2769 8.442C87.2582 8.47 87.2069 8.50267 87.1229 8.54C86.4042 8.792 85.6575 8.918 84.8829 8.918C84.0055 8.918 83.2822 8.74067 82.7129 8.386C82.1435 8.03133 81.7282 7.588 81.4669 7.056C81.2149 6.524 81.0889 5.98733 81.0889 5.446C81.0889 4.81133 81.2569 4.23267 81.5929 3.71C81.9289 3.18733 82.3909 2.77667 82.9789 2.478C83.5669 2.17933 84.2202 2.03 84.9389 2.03ZM90.1894 2.352C89.7974 2.352 89.4987 2.39867 89.2934 2.492C89.0974 2.576 88.9527 2.73467 88.8594 2.968C88.7661 3.192 88.6914 3.53267 88.6354 3.99C88.6354 4.00867 88.6074 4.018 88.5514 4.018C88.5047 4.018 88.4814 4.00867 88.4814 3.99C88.5094 3.78467 88.5374 3.44867 88.5654 2.982C88.6027 2.506 88.6214 2.142 88.6214 1.89C88.6214 1.84333 88.6494 1.82 88.7054 1.82C88.7614 1.82 88.7894 1.84333 88.7894 1.89C88.7894 2.01133 88.8594 2.09067 88.9994 2.128C89.1394 2.156 89.3121 2.17 89.5174 2.17C90.3387 2.18867 91.0434 2.198 91.6314 2.198L92.8494 2.184C93.0174 2.17467 93.2367 2.17 93.5074 2.17C93.8434 2.17 94.0861 2.15133 94.2354 2.114C94.3941 2.06733 94.4967 1.974 94.5434 1.834C94.5621 1.806 94.5947 1.792 94.6414 1.792C94.6881 1.792 94.7114 1.806 94.7114 1.834C94.6554 2.842 94.6274 3.56067 94.6274 3.99C94.6274 4.00867 94.5994 4.018 94.5434 4.018C94.4967 4.018 94.4734 4.00867 94.4734 3.99C94.4734 3.52333 94.4361 3.178 94.3614 2.954C94.2961 2.73 94.1654 2.576 93.9694 2.492C93.7827 2.39867 93.4887 2.352 93.0874 2.352C92.7794 2.352 92.5461 2.38 92.3874 2.436C92.2287 2.492 92.1167 2.59 92.0514 2.73C91.9954 2.86067 91.9674 3.06133 91.9674 3.332V7.616C91.9674 7.90533 91.9954 8.11533 92.0514 8.246C92.1074 8.37667 92.2194 8.46533 92.3874 8.512C92.5647 8.55867 92.8401 8.582 93.2134 8.582C93.2321 8.582 93.2414 8.61 93.2414 8.666C93.2414 8.722 93.2321 8.75 93.2134 8.75C92.9241 8.75 92.7001 8.74533 92.5414 8.736L91.5894 8.722L90.6794 8.736C90.5114 8.74533 90.2781 8.75 89.9794 8.75C89.9607 8.75 89.9514 8.722 89.9514 8.666C89.9514 8.61 89.9607 8.582 89.9794 8.582C90.3434 8.582 90.6094 8.55867 90.7774 8.512C90.9547 8.46533 91.0761 8.37667 91.1414 8.246C91.2067 8.106 91.2394 7.896 91.2394 7.616V3.304C91.2394 3.024 91.2161 2.81867 91.1694 2.688C91.1227 2.55733 91.0247 2.46867 90.8754 2.422C90.7354 2.37533 90.5067 2.352 90.1894 2.352ZM98.913 8.918C98.2597 8.918 97.6764 8.764 97.163 8.456C96.659 8.148 96.267 7.73733 95.987 7.224C95.7164 6.70133 95.581 6.13667 95.581 5.53C95.581 4.802 95.7724 4.172 96.155 3.64C96.5377 3.108 97.0184 2.70667 97.597 2.436C98.185 2.16533 98.7824 2.03 99.389 2.03C100.042 2.03 100.616 2.18867 101.111 2.506C101.606 2.82333 101.984 3.23867 102.245 3.752C102.516 4.26533 102.651 4.802 102.651 5.362C102.651 5.99667 102.483 6.58933 102.147 7.14C101.811 7.68133 101.354 8.11533 100.775 8.442C100.206 8.75933 99.585 8.918 98.913 8.918ZM99.291 8.638C100.066 8.638 100.682 8.38133 101.139 7.868C101.606 7.35467 101.839 6.64067 101.839 5.726C101.839 5.10067 101.727 4.53133 101.503 4.018C101.279 3.49533 100.948 3.08 100.509 2.772C100.07 2.464 99.543 2.31 98.927 2.31C98.1244 2.31 97.499 2.56667 97.051 3.08C96.6124 3.59333 96.393 4.298 96.393 5.194C96.393 5.82867 96.505 6.40733 96.729 6.93C96.9624 7.45267 97.2984 7.868 97.737 8.176C98.1757 8.484 98.6937 8.638 99.291 8.638ZM109.54 3.36C109.54 3.08 109.512 2.87467 109.456 2.744C109.41 2.604 109.312 2.506 109.162 2.45C109.013 2.394 108.78 2.366 108.462 2.366C108.434 2.366 108.42 2.338 108.42 2.282C108.42 2.226 108.434 2.198 108.462 2.198L109.05 2.212C109.405 2.23067 109.69 2.24 109.904 2.24C110.1 2.24 110.376 2.23067 110.73 2.212L111.346 2.198C111.365 2.198 111.374 2.226 111.374 2.282C111.374 2.338 111.365 2.366 111.346 2.366C111.02 2.366 110.782 2.394 110.632 2.45C110.483 2.49667 110.38 2.58533 110.324 2.716C110.268 2.84667 110.24 3.052 110.24 3.332V7.616C110.24 7.896 110.268 8.106 110.324 8.246C110.38 8.37667 110.483 8.46533 110.632 8.512C110.782 8.55867 111.02 8.582 111.346 8.582C111.365 8.582 111.374 8.61 111.374 8.666C111.374 8.722 111.365 8.75 111.346 8.75C111.085 8.75 110.88 8.74533 110.73 8.736L109.904 8.722L109.05 8.736C108.91 8.74533 108.714 8.75 108.462 8.75C108.434 8.75 108.42 8.722 108.42 8.666C108.42 8.61 108.434 8.582 108.462 8.582C108.78 8.582 109.013 8.55867 109.162 8.512C109.312 8.46533 109.41 8.37667 109.456 8.246C109.512 8.106 109.54 7.896 109.54 7.616V3.36ZM104.976 7.84L109.834 2.968L110.016 3.15L105.158 8.008L104.976 7.84ZM104.78 3.332C104.78 3.052 104.752 2.84667 104.696 2.716C104.64 2.58533 104.538 2.49667 104.388 2.45C104.239 2.394 104.006 2.366 103.688 2.366C103.67 2.366 103.66 2.338 103.66 2.282C103.66 2.226 103.67 2.198 103.688 2.198L104.304 2.212C104.64 2.23067 104.911 2.24 105.116 2.24C105.35 2.24 105.634 2.23067 105.97 2.212L106.558 2.198C106.586 2.198 106.6 2.226 106.6 2.282C106.6 2.338 106.586 2.366 106.558 2.366C106.25 2.366 106.022 2.394 105.872 2.45C105.723 2.506 105.62 2.604 105.564 2.744C105.508 2.87467 105.48 3.08 105.48 3.36V7.616C105.48 7.90533 105.504 8.11533 105.55 8.246C105.606 8.37667 105.704 8.46533 105.844 8.512C105.994 8.55867 106.232 8.582 106.558 8.582C106.586 8.582 106.6 8.61 106.6 8.666C106.6 8.722 106.586 8.75 106.558 8.75C106.306 8.75 106.11 8.74533 105.97 8.736L105.116 8.722L104.29 8.736C104.141 8.74533 103.936 8.75 103.674 8.75C103.656 8.75 103.646 8.722 103.646 8.666C103.646 8.61 103.656 8.582 103.674 8.582C104.001 8.582 104.239 8.55867 104.388 8.512C104.538 8.46533 104.64 8.37667 104.696 8.246C104.752 8.106 104.78 7.896 104.78 7.616V3.332ZM113.91 2.352C113.518 2.352 113.219 2.39867 113.014 2.492C112.818 2.576 112.673 2.73467 112.58 2.968C112.487 3.192 112.412 3.53267 112.356 3.99C112.356 4.00867 112.328 4.018 112.272 4.018C112.225 4.018 112.202 4.00867 112.202 3.99C112.23 3.78467 112.258 3.44867 112.286 2.982C112.323 2.506 112.342 2.142 112.342 1.89C112.342 1.84333 112.37 1.82 112.426 1.82C112.482 1.82 112.51 1.84333 112.51 1.89C112.51 2.01133 112.58 2.09067 112.72 2.128C112.86 2.156 113.033 2.17 113.238 2.17C114.059 2.18867 114.764 2.198 115.352 2.198L116.57 2.184C116.738 2.17467 116.957 2.17 117.228 2.17C117.564 2.17 117.807 2.15133 117.956 2.114C118.115 2.06733 118.217 1.974 118.264 1.834C118.283 1.806 118.315 1.792 118.362 1.792C118.409 1.792 118.432 1.806 118.432 1.834C118.376 2.842 118.348 3.56067 118.348 3.99C118.348 4.00867 118.32 4.018 118.264 4.018C118.217 4.018 118.194 4.00867 118.194 3.99C118.194 3.52333 118.157 3.178 118.082 2.954C118.017 2.73 117.886 2.576 117.69 2.492C117.503 2.39867 117.209 2.352 116.808 2.352C116.5 2.352 116.267 2.38 116.108 2.436C115.949 2.492 115.837 2.59 115.772 2.73C115.716 2.86067 115.688 3.06133 115.688 3.332V7.616C115.688 7.90533 115.716 8.11533 115.772 8.246C115.828 8.37667 115.94 8.46533 116.108 8.512C116.285 8.55867 116.561 8.582 116.934 8.582C116.953 8.582 116.962 8.61 116.962 8.666C116.962 8.722 116.953 8.75 116.934 8.75C116.645 8.75 116.421 8.74533 116.262 8.736L115.31 8.722L114.4 8.736C114.232 8.74533 113.999 8.75 113.7 8.75C113.681 8.75 113.672 8.722 113.672 8.666C113.672 8.61 113.681 8.582 113.7 8.582C114.064 8.582 114.33 8.55867 114.498 8.512C114.675 8.46533 114.797 8.37667 114.862 8.246C114.927 8.106 114.96 7.896 114.96 7.616V3.304C114.96 3.024 114.937 2.81867 114.89 2.688C114.843 2.55733 114.745 2.46867 114.596 2.422C114.456 2.37533 114.227 2.352 113.91 2.352ZM123.152 2.03C123.506 2.03 123.884 2.06733 124.286 2.142C124.696 2.20733 125.028 2.30533 125.28 2.436C125.345 2.464 125.387 2.492 125.406 2.52C125.424 2.548 125.438 2.59933 125.448 2.674L125.602 4.116C125.602 4.144 125.574 4.16267 125.518 4.172C125.471 4.18133 125.443 4.16733 125.434 4.13C125.303 3.47667 125.009 2.996 124.552 2.688C124.104 2.37067 123.53 2.212 122.83 2.212C122.326 2.212 121.868 2.34267 121.458 2.604C121.047 2.86533 120.725 3.22933 120.492 3.696C120.258 4.15333 120.142 4.66667 120.142 5.236C120.142 5.824 120.258 6.38867 120.492 6.93C120.725 7.462 121.075 7.90067 121.542 8.246C122.008 8.582 122.568 8.75 123.222 8.75C123.81 8.75 124.309 8.59133 124.72 8.274C125.13 7.94733 125.41 7.45267 125.56 6.79C125.56 6.762 125.583 6.748 125.63 6.748C125.648 6.748 125.667 6.75733 125.686 6.776C125.714 6.78533 125.728 6.79467 125.728 6.804L125.532 8.288C125.522 8.36267 125.508 8.414 125.49 8.442C125.471 8.47 125.42 8.50267 125.336 8.54C124.617 8.792 123.87 8.918 123.096 8.918C122.218 8.918 121.495 8.74067 120.926 8.386C120.356 8.03133 119.941 7.588 119.68 7.056C119.428 6.524 119.302 5.98733 119.302 5.446C119.302 4.81133 119.47 4.23267 119.806 3.71C120.142 3.18733 120.604 2.77667 121.192 2.478C121.78 2.17933 122.433 2.03 123.152 2.03ZM126.372 8.75C126.354 8.75 126.344 8.722 126.344 8.666C126.344 8.61 126.354 8.582 126.372 8.582C126.774 8.582 127.096 8.46067 127.338 8.218C127.59 7.97533 127.828 7.616 128.052 7.14C128.314 6.57067 128.65 6.16467 129.06 5.922C129.471 5.67933 129.98 5.558 130.586 5.558L130.684 5.6C129.732 5.6 129.056 5.45067 128.654 5.152C128.253 4.844 128.052 4.41 128.052 3.85C128.052 3.33667 128.258 2.926 128.668 2.618C129.088 2.31 129.644 2.156 130.334 2.156C130.502 2.156 130.684 2.17 130.88 2.198C130.955 2.198 131.067 2.20733 131.216 2.226C131.375 2.23533 131.515 2.24 131.636 2.24C131.832 2.24 132.108 2.23067 132.462 2.212L133.078 2.198C133.097 2.198 133.106 2.226 133.106 2.282C133.106 2.338 133.097 2.366 133.078 2.366C132.752 2.366 132.514 2.394 132.364 2.45C132.215 2.49667 132.112 2.58533 132.056 2.716C132 2.84667 131.972 3.052 131.972 3.332V7.616C131.972 7.896 132 8.106 132.056 8.246C132.112 8.37667 132.215 8.46533 132.364 8.512C132.514 8.55867 132.752 8.582 133.078 8.582C133.097 8.582 133.106 8.61 133.106 8.666C133.106 8.722 133.097 8.75 133.078 8.75C132.817 8.75 132.612 8.74533 132.462 8.736L131.636 8.722L130.782 8.736C130.642 8.74533 130.446 8.75 130.194 8.75C130.166 8.75 130.152 8.722 130.152 8.666C130.152 8.61 130.166 8.582 130.194 8.582C130.521 8.582 130.754 8.55867 130.894 8.512C131.044 8.46533 131.142 8.37667 131.188 8.246C131.244 8.11533 131.272 7.90533 131.272 7.616V3.36C131.272 2.97733 131.202 2.71133 131.062 2.562C130.922 2.41267 130.675 2.338 130.32 2.338C129.275 2.338 128.752 2.73933 128.752 3.542C128.752 4.102 128.916 4.55467 129.242 4.9C129.569 5.236 130.04 5.404 130.656 5.404C131.03 5.404 131.31 5.37133 131.496 5.306L131.468 5.6C130.974 5.59067 130.572 5.63267 130.264 5.726C129.956 5.81 129.681 5.97333 129.438 6.216C129.205 6.44933 128.976 6.804 128.752 7.28C128.547 7.71867 128.384 8.04533 128.262 8.26C128.15 8.46533 128.062 8.60067 127.996 8.666C127.931 8.722 127.866 8.75 127.8 8.75H126.372ZM139.602 5.796C139.91 5.44133 140.12 5.12867 140.232 4.858C140.353 4.58733 140.414 4.27467 140.414 3.92C140.414 3.48133 140.316 3.12667 140.12 2.856C139.933 2.576 139.653 2.436 139.28 2.436C138.813 2.436 138.431 2.562 138.132 2.814C137.843 3.066 137.614 3.48133 137.446 4.06C137.446 4.07867 137.423 4.088 137.376 4.088C137.348 4.088 137.32 4.08333 137.292 4.074C137.273 4.05533 137.269 4.04133 137.278 4.032L137.824 1.904C137.824 1.89467 137.843 1.89 137.88 1.89C137.973 1.89 138.011 1.904 137.992 1.932C137.973 2.00667 137.964 2.06267 137.964 2.1C137.964 2.184 137.987 2.24933 138.034 2.296C138.081 2.33333 138.137 2.352 138.202 2.352C138.305 2.352 138.454 2.31467 138.65 2.24C139.079 2.09067 139.476 2.016 139.84 2.016C140.4 2.016 140.881 2.16067 141.282 2.45C141.693 2.73933 141.898 3.108 141.898 3.556C141.898 4.33067 141.212 5.10067 139.84 5.866L139.602 5.796ZM137.558 10.78C138.697 10.4813 139.509 10.052 139.994 9.492C140.489 8.932 140.736 8.33933 140.736 7.714C140.736 7.266 140.61 6.87867 140.358 6.552C140.115 6.22533 139.765 6.062 139.308 6.062C139.037 6.062 138.804 6.09933 138.608 6.174L138.58 6.188C138.543 6.188 138.515 6.16933 138.496 6.132C138.477 6.09467 138.482 6.06667 138.51 6.048C138.669 5.94533 138.888 5.86133 139.168 5.796C139.448 5.72133 139.747 5.684 140.064 5.684C140.755 5.684 141.301 5.866 141.702 6.23C142.103 6.58467 142.304 7.028 142.304 7.56C142.304 8.25067 141.907 8.89933 141.114 9.506C140.321 10.122 139.154 10.6027 137.614 10.948C137.577 10.9573 137.549 10.934 137.53 10.878C137.521 10.822 137.53 10.7893 137.558 10.78ZM146.929 8.932C146.285 8.932 145.711 8.78733 145.207 8.498C144.703 8.19933 144.306 7.78867 144.017 7.266C143.737 6.734 143.597 6.12733 143.597 5.446C143.597 4.78333 143.737 4.19533 144.017 3.682C144.306 3.16867 144.703 2.772 145.207 2.492C145.72 2.20267 146.299 2.058 146.943 2.058C147.577 2.058 148.142 2.20267 148.637 2.492C149.141 2.78133 149.528 3.18733 149.799 3.71C150.079 4.22333 150.219 4.816 150.219 5.488C150.219 6.16 150.079 6.75733 149.799 7.28C149.519 7.80267 149.127 8.20867 148.623 8.498C148.128 8.78733 147.563 8.932 146.929 8.932ZM147.097 8.638C147.591 8.638 147.96 8.372 148.203 7.84C148.445 7.308 148.567 6.58 148.567 5.656C148.567 4.928 148.483 4.31667 148.315 3.822C148.156 3.32733 147.941 2.95867 147.671 2.716C147.409 2.47333 147.115 2.352 146.789 2.352C146.294 2.352 145.907 2.62733 145.627 3.178C145.347 3.72867 145.207 4.452 145.207 5.348C145.207 5.98267 145.281 6.552 145.431 7.056C145.589 7.55067 145.809 7.938 146.089 8.218C146.378 8.498 146.714 8.638 147.097 8.638ZM155.472 2.506L155.752 2.548L155.682 6.972C155.673 7.52267 155.752 7.92867 155.92 8.19C156.098 8.45133 156.368 8.582 156.732 8.582C156.76 8.582 156.774 8.61 156.774 8.666C156.774 8.722 156.76 8.75 156.732 8.75C156.508 8.75 156.336 8.74533 156.214 8.736L155.542 8.722L154.856 8.736C154.735 8.74533 154.553 8.75 154.31 8.75C154.292 8.75 154.282 8.722 154.282 8.666C154.282 8.61 154.292 8.582 154.31 8.582C154.684 8.582 154.954 8.45133 155.122 8.19C155.3 7.92867 155.393 7.52267 155.402 6.972L155.472 2.506ZM163.186 8.582C163.205 8.582 163.214 8.61 163.214 8.666C163.214 8.722 163.205 8.75 163.186 8.75C162.934 8.75 162.734 8.74533 162.584 8.736L161.744 8.722L160.792 8.736C160.634 8.74533 160.414 8.75 160.134 8.75C160.116 8.75 160.106 8.722 160.106 8.666C160.106 8.61 160.116 8.582 160.134 8.582C160.396 8.582 160.587 8.55867 160.708 8.512C160.839 8.456 160.923 8.36267 160.96 8.232C161.007 8.10133 161.021 7.896 161.002 7.616L160.75 2.954L161.156 2.366L158.58 8.652C158.562 8.68933 158.529 8.708 158.482 8.708C158.426 8.708 158.389 8.68933 158.37 8.652L155.64 3.36C155.435 2.97733 155.225 2.716 155.01 2.576C154.796 2.436 154.572 2.366 154.338 2.366C154.32 2.366 154.31 2.338 154.31 2.282C154.31 2.226 154.32 2.198 154.338 2.198L155.5 2.212L156.368 2.198C156.49 2.198 156.592 2.24467 156.676 2.338C156.76 2.422 156.882 2.618 157.04 2.926L159.112 6.93L158.468 8.26L160.792 2.548C160.83 2.44533 160.89 2.36133 160.974 2.296C161.058 2.23067 161.142 2.198 161.226 2.198L162.094 2.212L163.158 2.198C163.177 2.198 163.186 2.226 163.186 2.282C163.186 2.338 163.177 2.366 163.158 2.366C162.804 2.366 162.552 2.43133 162.402 2.562C162.262 2.68333 162.202 2.93067 162.22 3.304L162.472 7.616C162.491 7.90533 162.514 8.11533 162.542 8.246C162.58 8.37667 162.645 8.46533 162.738 8.512C162.832 8.55867 162.981 8.582 163.186 8.582ZM166.12 5.404H168.682L168.78 5.768H165.91L166.12 5.404ZM171.398 8.582C171.445 8.582 171.468 8.61 171.468 8.666C171.468 8.722 171.445 8.75 171.398 8.75C171.202 8.75 170.908 8.74067 170.516 8.722C170.105 8.70333 169.816 8.694 169.648 8.694C169.489 8.694 169.242 8.70333 168.906 8.722C168.589 8.74067 168.365 8.75 168.234 8.75C168.197 8.75 168.178 8.722 168.178 8.666C168.178 8.61 168.197 8.582 168.234 8.582C168.449 8.582 168.598 8.55867 168.682 8.512C168.775 8.456 168.822 8.37667 168.822 8.274C168.822 8.14333 168.743 7.91 168.584 7.574L166.806 3.752L167.422 2.674L165.588 7.028C165.42 7.42 165.336 7.728 165.336 7.952C165.336 8.176 165.415 8.33933 165.574 8.442C165.733 8.53533 165.98 8.582 166.316 8.582C166.363 8.582 166.386 8.61 166.386 8.666C166.386 8.722 166.363 8.75 166.316 8.75C166.185 8.75 165.999 8.74067 165.756 8.722C165.495 8.70333 165.252 8.694 165.028 8.694C164.795 8.694 164.519 8.70333 164.202 8.722C163.922 8.74067 163.693 8.75 163.516 8.75C163.469 8.75 163.446 8.722 163.446 8.666C163.446 8.61 163.469 8.582 163.516 8.582C163.805 8.582 164.039 8.54 164.216 8.456C164.393 8.372 164.557 8.21333 164.706 7.98C164.865 7.74667 165.047 7.38733 165.252 6.902L167.352 1.988C167.371 1.95067 167.399 1.932 167.436 1.932C167.473 1.932 167.501 1.95067 167.52 1.988L169.76 6.832C169.993 7.336 170.185 7.70933 170.334 7.952C170.493 8.19467 170.651 8.36267 170.81 8.456C170.969 8.54 171.165 8.582 171.398 8.582ZM171.673 8.75C171.655 8.75 171.645 8.722 171.645 8.666C171.645 8.61 171.655 8.582 171.673 8.582C171.897 8.582 172.089 8.526 172.247 8.414C172.406 8.29267 172.532 8.162 172.625 8.022C172.719 7.87267 172.849 7.644 173.017 7.336C173.307 6.68267 173.661 6.23 174.081 5.978C174.501 5.71667 175.089 5.586 175.845 5.586L175.943 5.642C174.917 5.642 174.184 5.49267 173.745 5.194C173.307 4.89533 173.087 4.47533 173.087 3.934C173.087 3.39267 173.316 2.96333 173.773 2.646C174.231 2.31933 174.842 2.156 175.607 2.156C175.803 2.156 176.041 2.17 176.321 2.198C176.443 2.20733 176.573 2.21667 176.713 2.226C176.863 2.23533 177.007 2.24 177.147 2.24C177.371 2.24 177.679 2.23067 178.071 2.212L178.743 2.198C178.771 2.198 178.785 2.226 178.785 2.282C178.785 2.338 178.771 2.366 178.743 2.366C178.482 2.366 178.286 2.394 178.155 2.45C178.034 2.49667 177.95 2.58533 177.903 2.716C177.857 2.84667 177.833 3.052 177.833 3.332V7.616C177.833 7.896 177.857 8.106 177.903 8.246C177.95 8.37667 178.034 8.46533 178.155 8.512C178.277 8.55867 178.473 8.582 178.743 8.582C178.771 8.582 178.785 8.61 178.785 8.666C178.785 8.722 178.771 8.75 178.743 8.75C178.454 8.75 178.23 8.74533 178.071 8.736L177.147 8.722L176.209 8.736C176.051 8.74533 175.827 8.75 175.537 8.75C175.519 8.75 175.509 8.722 175.509 8.666C175.509 8.61 175.519 8.582 175.537 8.582C175.799 8.582 175.99 8.55867 176.111 8.512C176.233 8.46533 176.317 8.37667 176.363 8.246C176.41 8.106 176.433 7.896 176.433 7.616V3.36C176.433 2.95867 176.363 2.688 176.223 2.548C176.083 2.408 175.873 2.338 175.593 2.338C174.828 2.338 174.445 2.76733 174.445 3.626C174.445 4.16733 174.571 4.606 174.823 4.942C175.085 5.278 175.449 5.446 175.915 5.446C176.065 5.446 176.219 5.43667 176.377 5.418C176.545 5.39933 176.676 5.376 176.769 5.348L176.727 5.67C176.27 5.66067 175.911 5.70733 175.649 5.81C175.388 5.90333 175.155 6.08533 174.949 6.356C174.744 6.62667 174.515 7.04667 174.263 7.616C174.133 7.896 174.021 8.12933 173.927 8.316C173.834 8.50267 173.755 8.624 173.689 8.68C173.633 8.72667 173.563 8.75 173.479 8.75H171.673ZM182.972 8.582C183.961 7.80733 184.731 7.154 185.282 6.622C185.832 6.08067 186.229 5.59533 186.472 5.166C186.714 4.73667 186.836 4.30267 186.836 3.864C186.836 3.36933 186.7 2.982 186.43 2.702C186.159 2.422 185.772 2.282 185.268 2.282C184.278 2.282 183.63 2.856 183.322 4.004C183.322 4.01333 183.303 4.018 183.266 4.018C183.182 4.018 183.144 3.99933 183.154 3.962L183.686 1.904C183.695 1.88533 183.723 1.88067 183.77 1.89C183.826 1.89933 183.849 1.91333 183.84 1.932C183.83 1.97867 183.826 2.03467 183.826 2.1C183.826 2.268 183.905 2.352 184.064 2.352C184.166 2.352 184.316 2.31467 184.512 2.24C184.745 2.16533 184.941 2.114 185.1 2.086C185.258 2.04867 185.445 2.03 185.66 2.03C186.257 2.03 186.733 2.18867 187.088 2.506C187.452 2.82333 187.634 3.23867 187.634 3.752C187.634 4.13467 187.517 4.52667 187.284 4.928C187.05 5.32 186.672 5.76333 186.15 6.258C185.627 6.75267 184.899 7.35933 183.966 8.078C183.928 8.106 183.914 8.12933 183.924 8.148C183.942 8.16667 183.975 8.176 184.022 8.176C185.282 8.176 186.145 8.162 186.612 8.134C187.088 8.09667 187.424 8.01733 187.62 7.896C187.816 7.76533 187.951 7.53667 188.026 7.21C188.035 7.19133 188.063 7.18667 188.11 7.196C188.156 7.196 188.18 7.20533 188.18 7.224L187.984 8.596C187.984 8.63333 187.97 8.67067 187.942 8.708C187.923 8.736 187.895 8.75 187.858 8.75H183.07C183.032 8.75 183 8.73133 182.972 8.694C182.944 8.65667 182.944 8.61933 182.972 8.582ZM192.593 8.932C191.949 8.932 191.375 8.78733 190.871 8.498C190.367 8.19933 189.97 7.78867 189.681 7.266C189.401 6.734 189.261 6.12733 189.261 5.446C189.261 4.78333 189.401 4.19533 189.681 3.682C189.97 3.16867 190.367 2.772 190.871 2.492C191.384 2.20267 191.963 2.058 192.607 2.058C193.241 2.058 193.806 2.20267 194.301 2.492C194.805 2.78133 195.192 3.18733 195.463 3.71C195.743 4.22333 195.883 4.816 195.883 5.488C195.883 6.16 195.743 6.75733 195.463 7.28C195.183 7.80267 194.791 8.20867 194.287 8.498C193.792 8.78733 193.227 8.932 192.593 8.932ZM192.761 8.764C193.517 8.764 194.081 8.48867 194.455 7.938C194.828 7.38733 195.015 6.62667 195.015 5.656C195.015 4.89067 194.898 4.25133 194.665 3.738C194.441 3.22467 194.133 2.842 193.741 2.59C193.358 2.338 192.929 2.212 192.453 2.212C191.715 2.212 191.137 2.50133 190.717 3.08C190.297 3.65867 190.087 4.41467 190.087 5.348C190.087 6.01067 190.194 6.60333 190.409 7.126C190.633 7.63933 190.945 8.04067 191.347 8.33C191.757 8.61933 192.229 8.764 192.761 8.764ZM196.917 8.582C197.906 7.80733 198.676 7.154 199.227 6.622C199.778 6.08067 200.174 5.59533 200.417 5.166C200.66 4.73667 200.781 4.30267 200.781 3.864C200.781 3.36933 200.646 2.982 200.375 2.702C200.104 2.422 199.717 2.282 199.213 2.282C198.224 2.282 197.575 2.856 197.267 4.004C197.267 4.01333 197.248 4.018 197.211 4.018C197.127 4.018 197.09 3.99933 197.099 3.962L197.631 1.904C197.64 1.88533 197.668 1.88067 197.715 1.89C197.771 1.89933 197.794 1.91333 197.785 1.932C197.776 1.97867 197.771 2.03467 197.771 2.1C197.771 2.268 197.85 2.352 198.009 2.352C198.112 2.352 198.261 2.31467 198.457 2.24C198.69 2.16533 198.886 2.114 199.045 2.086C199.204 2.04867 199.39 2.03 199.605 2.03C200.202 2.03 200.678 2.18867 201.033 2.506C201.397 2.82333 201.579 3.23867 201.579 3.752C201.579 4.13467 201.462 4.52667 201.229 4.928C200.996 5.32 200.618 5.76333 200.095 6.258C199.572 6.75267 198.844 7.35933 197.911 8.078C197.874 8.106 197.86 8.12933 197.869 8.148C197.888 8.16667 197.92 8.176 197.967 8.176C199.227 8.176 200.09 8.162 200.557 8.134C201.033 8.09667 201.369 8.01733 201.565 7.896C201.761 7.76533 201.896 7.53667 201.971 7.21C201.98 7.19133 202.008 7.18667 202.055 7.196C202.102 7.196 202.125 7.20533 202.125 7.224L201.929 8.596C201.929 8.63333 201.915 8.67067 201.887 8.708C201.868 8.736 201.84 8.75 201.803 8.75H197.015C196.978 8.75 196.945 8.73133 196.917 8.694C196.889 8.65667 196.889 8.61933 196.917 8.582ZM207.266 4.634C207.901 4.634 208.377 4.80667 208.694 5.152C209.011 5.49733 209.17 5.922 209.17 6.426C209.17 6.86467 209.035 7.27533 208.764 7.658C208.503 8.04067 208.143 8.34867 207.686 8.582C207.238 8.81533 206.757 8.932 206.244 8.932C205.703 8.932 205.213 8.78267 204.774 8.484C204.335 8.18533 203.99 7.76533 203.738 7.224C203.495 6.68267 203.374 6.07133 203.374 5.39C203.374 4.56867 203.556 3.794 203.92 3.066C204.293 2.32867 204.835 1.708 205.544 1.204C206.263 0.690666 207.121 0.368666 208.12 0.237999C208.157 0.228666 208.181 0.247333 208.19 0.294C208.199 0.340666 208.19 0.368666 208.162 0.377999C207.294 0.545999 206.561 0.867999 205.964 1.344C205.376 1.82 204.933 2.38933 204.634 3.052C204.345 3.70533 204.2 4.39133 204.2 5.11C204.2 5.726 204.303 6.30933 204.508 6.86C204.713 7.40133 205.003 7.84 205.376 8.176C205.749 8.512 206.174 8.68 206.65 8.68C207.163 8.68 207.574 8.50733 207.882 8.162C208.19 7.81667 208.344 7.35933 208.344 6.79C208.344 6.23933 208.209 5.80533 207.938 5.488C207.677 5.17067 207.299 5.012 206.804 5.012C206.524 5.012 206.263 5.06333 206.02 5.166C205.787 5.26867 205.535 5.446 205.264 5.698C205.255 5.70733 205.241 5.712 205.222 5.712C205.194 5.712 205.166 5.698 205.138 5.67C205.11 5.642 205.101 5.61867 205.11 5.6C205.362 5.28267 205.67 5.04467 206.034 4.886C206.407 4.718 206.818 4.634 207.266 4.634ZM210.206 8.75C210.187 8.75 210.178 8.722 210.178 8.666C210.178 8.61 210.187 8.582 210.206 8.582C210.523 8.582 210.756 8.55867 210.906 8.512C211.055 8.46533 211.153 8.37667 211.2 8.246C211.256 8.106 211.284 7.896 211.284 7.616V3.332C211.284 3.052 211.256 2.84667 211.2 2.716C211.153 2.58533 211.055 2.49667 210.906 2.45C210.756 2.394 210.523 2.366 210.206 2.366C210.187 2.366 210.178 2.338 210.178 2.282C210.178 2.226 210.187 2.198 210.206 2.198H215.218C215.311 2.198 215.358 2.23533 215.358 2.31L215.372 3.178C215.381 3.35533 215.386 3.57933 215.386 3.85C215.386 3.878 215.358 3.892 215.302 3.892C215.246 3.892 215.218 3.878 215.218 3.85C215.218 3.43933 215.087 3.108 214.826 2.856C214.574 2.59467 214.247 2.464 213.846 2.464H213.202C212.847 2.464 212.586 2.48733 212.418 2.534C212.259 2.58067 212.147 2.66467 212.082 2.786C212.026 2.898 211.998 3.08467 211.998 3.346V7.56C211.998 7.85867 212.03 8.078 212.096 8.218C212.17 8.34867 212.301 8.442 212.488 8.498C212.684 8.554 212.992 8.582 213.412 8.582C213.44 8.582 213.454 8.61 213.454 8.666C213.454 8.722 213.44 8.75 213.412 8.75C213.085 8.75 212.833 8.74533 212.656 8.736L211.634 8.722C211.316 8.722 211.078 8.72667 210.92 8.736L210.206 8.75Z" fill="#706760"/>
</svg>
