<svg width="258" height="19" viewBox="0 0 258 19" fill="none" xmlns="http://www.w3.org/2000/svg">
<path d="M5.49001 13.158C5.45401 13.158 5.43601 13.122 5.43601 13.05C5.43601 12.978 5.45401 12.942 5.49001 12.942C5.83801 12.942 6.09001 12.912 6.24601 12.852C6.40201 12.792 6.51001 12.678 6.57001 12.51C6.63001 12.33 6.66001 12.06 6.66001 11.7V8.69402C6.66001 7.96202 6.52201 7.42802 6.24601 7.09202C5.97001 6.75602 5.53801 6.58802 4.95001 6.58802C4.49401 6.58802 4.02601 6.74402 3.54601 7.05602C3.07801 7.35602 2.67001 7.76402 2.32201 8.28002L2.25001 8.06402C2.80201 7.33202 3.33601 6.80402 3.85201 6.48002C4.36801 6.14402 4.89601 5.97602 5.43601 5.97602C6.10801 5.97602 6.61801 6.15602 6.96601 6.51602C7.32601 6.87602 7.50601 7.42202 7.50601 8.15402V11.7C7.50601 12.06 7.53001 12.33 7.57801 12.51C7.63801 12.678 7.74601 12.792 7.90201 12.852C8.07001 12.912 8.32801 12.942 8.67601 12.942C8.71201 12.942 8.73001 12.978 8.73001 13.05C8.73001 13.122 8.71201 13.158 8.67601 13.158C8.40001 13.158 8.18401 13.152 8.02801 13.14L7.09201 13.122L6.13801 13.14C5.98201 13.152 5.76601 13.158 5.49001 13.158ZM0.648007 13.158C0.612007 13.158 0.594007 13.122 0.594007 13.05C0.594007 12.978 0.612007 12.942 0.648007 12.942C0.996007 12.942 1.24801 12.912 1.40401 12.852C1.56001 12.792 1.66801 12.678 1.72801 12.51C1.78801 12.33 1.81801 12.06 1.81801 11.7V8.10002C1.81801 7.68002 1.77001 7.38002 1.67401 7.20002C1.57801 7.02002 1.41001 6.93002 1.17001 6.93002C0.978007 6.93002 0.642007 7.02002 0.162007 7.20002H0.126007C0.0780073 7.20002 0.0420073 7.17602 0.0180073 7.12802C0.00600734 7.06802 0.0240073 7.02602 0.0720073 7.00202L2.07001 6.06602C2.09401 6.05402 2.12401 6.04802 2.16001 6.04802C2.25601 6.04802 2.36401 6.18602 2.48401 6.46202C2.60401 6.72602 2.66401 7.06802 2.66401 7.48802V11.7C2.66401 12.06 2.68801 12.33 2.73601 12.51C2.79601 12.678 2.90401 12.792 3.06001 12.852C3.22801 12.912 3.48601 12.942 3.83401 12.942C3.87001 12.942 3.88801 12.978 3.88801 13.05C3.88801 13.122 3.87001 13.158 3.83401 13.158C3.55801 13.158 3.34201 13.152 3.18601 13.14L2.25001 13.122L1.29601 13.14C1.14001 13.152 0.924007 13.158 0.648007 13.158ZM9.67768 18.108C9.64168 18.108 9.62368 18.072 9.62368 18C9.62368 17.928 9.64168 17.892 9.67768 17.892C10.0137 17.892 10.2597 17.856 10.4157 17.784C10.5837 17.724 10.6977 17.61 10.7577 17.442C10.8177 17.274 10.8477 17.01 10.8477 16.65V8.15402C10.8477 7.71002 10.7997 7.39202 10.7037 7.20002C10.6077 7.00802 10.4337 6.91202 10.1817 6.91202C9.89368 6.91202 9.56368 7.00202 9.19168 7.18202H9.15568C9.10768 7.18202 9.07768 7.15802 9.06568 7.11002C9.04168 7.05002 9.05368 7.00802 9.10168 6.98402L10.9557 6.10202L11.0997 6.06602C11.2797 6.06602 11.4237 6.20402 11.5317 6.48002C11.6397 6.75602 11.6937 7.15202 11.6937 7.66802V16.65C11.6937 17.01 11.7417 17.274 11.8377 17.442C11.9337 17.61 12.1077 17.724 12.3597 17.784C12.6117 17.856 13.0077 17.892 13.5477 17.892C13.5717 17.892 13.5837 17.928 13.5837 18C13.5837 18.072 13.5717 18.108 13.5477 18.108C13.1397 18.108 12.8217 18.102 12.5937 18.09L11.2977 18.072L10.3257 18.09C10.1697 18.102 9.95368 18.108 9.67768 18.108ZM13.6917 13.392C13.2237 13.392 12.8097 13.326 12.4497 13.194C12.1017 13.074 11.7237 12.852 11.3157 12.528L11.4777 11.574C11.8617 12.054 12.2637 12.42 12.6837 12.672C13.1157 12.912 13.6497 13.032 14.2857 13.032C14.7057 13.032 15.0897 12.906 15.4377 12.654C15.7857 12.39 16.0557 12.018 16.2477 11.538C16.4517 11.058 16.5537 10.494 16.5537 9.84602C16.5537 8.81402 16.3257 8.01002 15.8697 7.43402C15.4257 6.85802 14.8557 6.57002 14.1597 6.57002C13.6557 6.57002 13.1997 6.70802 12.7917 6.98402C12.3837 7.24802 11.9457 7.63802 11.4777 8.15402L11.3337 8.02802C11.9457 7.32002 12.5337 6.80402 13.0977 6.48002C13.6617 6.14402 14.2317 5.97602 14.8077 5.97602C15.2997 5.97602 15.7557 6.10802 16.1757 6.37202C16.5957 6.63602 16.9257 7.02002 17.1657 7.52402C17.4177 8.01602 17.5437 8.60402 17.5437 9.28802C17.5437 10.176 17.3397 10.932 16.9317 11.556C16.5237 12.168 16.0197 12.63 15.4197 12.942C14.8197 13.242 14.2437 13.392 13.6917 13.392ZM21.4995 13.32C20.7675 13.32 20.1555 13.056 19.6635 12.528C19.1715 11.988 18.9255 11.238 18.9255 10.278C18.9255 9.41402 19.1295 8.65802 19.5375 8.01002C19.9455 7.35002 20.4555 6.84602 21.0675 6.49802C21.6915 6.15002 22.2975 5.97602 22.8855 5.97602C23.3055 5.97602 23.7075 6.06002 24.0915 6.22802C24.4755 6.39602 24.7755 6.61202 24.9915 6.87602L24.4155 7.84802C24.4155 7.41602 24.2115 7.05602 23.8035 6.76802C23.3955 6.46802 22.9395 6.31802 22.4355 6.31802C21.7035 6.31802 21.1035 6.64202 20.6355 7.29002C20.1795 7.92602 19.9515 8.75402 19.9515 9.77402C19.9515 10.674 20.1375 11.406 20.5095 11.97C20.8815 12.534 21.3855 12.816 22.0215 12.816C22.5015 12.816 22.9575 12.66 23.3895 12.348C23.8335 12.036 24.2715 11.628 24.7035 11.124L24.8475 11.25C24.3195 11.874 23.7915 12.378 23.2635 12.762C22.7475 13.134 22.1595 13.32 21.4995 13.32ZM24.9195 13.302C24.8115 13.302 24.6975 13.146 24.5775 12.834C24.4695 12.522 24.4155 12.15 24.4155 11.718V6.66002C24.6075 6.56402 24.7455 6.48002 24.8295 6.40802C24.9255 6.33602 25.0095 6.22202 25.0815 6.06602C25.0935 6.05402 25.1235 6.05402 25.1715 6.06602C25.2195 6.06602 25.2435 6.07802 25.2435 6.10202V11.25C25.2435 11.658 25.2915 11.958 25.3875 12.15C25.4955 12.33 25.6695 12.42 25.9095 12.42C26.0295 12.42 26.1735 12.396 26.3415 12.348C26.5215 12.288 26.7135 12.222 26.9175 12.15H26.9535C27.0015 12.15 27.0315 12.18 27.0435 12.24C27.0555 12.288 27.0375 12.318 26.9895 12.33L24.9915 13.284L24.9195 13.302ZM29.9327 18.216C29.4167 18.216 28.9547 18.15 28.5467 18.018C28.1507 17.886 27.8387 17.712 27.6107 17.496C27.3827 17.28 27.2687 17.046 27.2687 16.794C27.2687 16.626 27.3167 16.5 27.4127 16.416C27.5087 16.344 27.6167 16.308 27.7367 16.308C27.8687 16.308 27.9827 16.35 28.0787 16.434C28.1867 16.518 28.3307 16.662 28.5107 16.866C28.7747 17.19 29.0447 17.448 29.3207 17.64C29.6087 17.832 29.9927 17.928 30.4727 17.928C31.2047 17.928 31.7447 17.628 32.0927 17.028C32.4407 16.428 32.6147 15.684 32.6147 14.796C32.6147 12.696 31.4327 11.646 29.0687 11.646C29.0207 11.646 28.9907 11.61 28.9787 11.538C28.9667 11.466 28.9967 11.43 29.0687 11.43C30.1607 11.43 30.9287 11.196 31.3727 10.728C31.8287 10.26 32.0567 9.60602 32.0567 8.76602C32.0567 7.99802 31.8827 7.40402 31.5347 6.98402C31.1987 6.55202 30.6767 6.33602 29.9687 6.33602C29.3567 6.33602 28.8527 6.51002 28.4567 6.85802C28.0607 7.20602 27.7547 7.75802 27.5387 8.51402C27.5387 8.52602 27.5147 8.53202 27.4667 8.53202C27.3707 8.53202 27.3287 8.50802 27.3407 8.46002L28.0067 5.83202C28.0067 5.80802 28.0307 5.79602 28.0787 5.79602C28.1147 5.79602 28.1507 5.80802 28.1867 5.83202C28.2227 5.84402 28.2347 5.85602 28.2227 5.86802C28.1987 5.96402 28.1867 6.03002 28.1867 6.06602C28.1867 6.18602 28.2167 6.27602 28.2767 6.33602C28.3487 6.38402 28.4207 6.40802 28.4927 6.40802C28.5647 6.40802 28.7567 6.36002 29.0687 6.26402C29.6447 6.07202 30.1427 5.97602 30.5627 5.97602C31.3427 5.97602 31.9487 6.21002 32.3807 6.67802C32.8247 7.13402 33.0467 7.70402 33.0467 8.38802C33.0467 9.12002 32.8127 9.79202 32.3447 10.404C31.8887 11.004 31.2767 11.394 30.5087 11.574L30.5627 11.43L30.8507 11.412C31.4507 11.412 31.9667 11.562 32.3987 11.862C32.8307 12.15 33.1607 12.54 33.3887 13.032C33.6167 13.512 33.7307 14.022 33.7307 14.562C33.7307 15.258 33.5687 15.882 33.2447 16.434C32.9327 16.986 32.4887 17.418 31.9127 17.73C31.3367 18.054 30.6767 18.216 29.9327 18.216ZM37.6061 18.216C36.8981 18.216 36.3221 18.084 35.8781 17.82C35.4461 17.556 35.2301 17.238 35.2301 16.866C35.2301 16.698 35.2721 16.572 35.3561 16.488C35.4521 16.404 35.5601 16.362 35.6801 16.362C35.8121 16.362 35.9261 16.398 36.0221 16.47C36.1181 16.554 36.2261 16.68 36.3461 16.848C36.5981 17.16 36.8561 17.4 37.1201 17.568C37.3841 17.748 37.7681 17.838 38.2721 17.838C38.8961 17.838 39.3881 17.628 39.7481 17.208C40.1201 16.788 40.3061 16.002 40.3061 14.85V6.66002C40.4981 6.56402 40.6361 6.48002 40.7201 6.40802C40.8161 6.33602 40.9001 6.22202 40.9721 6.06602C40.9841 6.05402 41.0141 6.05402 41.0621 6.06602C41.1101 6.06602 41.1341 6.07802 41.1341 6.10202V14.418C41.1341 15.57 40.8221 16.488 40.1981 17.172C39.5741 17.868 38.7101 18.216 37.6061 18.216ZM37.3901 13.32C36.6581 13.32 36.0461 13.056 35.5541 12.528C35.0621 11.988 34.8161 11.238 34.8161 10.278C34.8161 9.41402 35.0201 8.65802 35.4281 8.01002C35.8361 7.35002 36.3461 6.84602 36.9581 6.49802C37.5821 6.15002 38.1881 5.97602 38.7761 5.97602C39.1961 5.97602 39.5981 6.06002 39.9821 6.22802C40.3661 6.39602 40.6661 6.61202 40.8821 6.87602L40.3061 7.84802C40.3061 7.41602 40.1021 7.05602 39.6941 6.76802C39.2861 6.46802 38.8301 6.31802 38.3261 6.31802C37.5941 6.31802 36.9941 6.64202 36.5261 7.29002C36.0701 7.92602 35.8421 8.75402 35.8421 9.77402C35.8421 10.674 36.0281 11.406 36.4001 11.97C36.7721 12.534 37.2761 12.816 37.9121 12.816C38.3921 12.816 38.8481 12.66 39.2801 12.348C39.7241 12.036 40.1621 11.628 40.5941 11.124L40.7381 11.25C40.2101 11.874 39.6821 12.378 39.1541 12.762C38.6381 13.134 38.0501 13.32 37.3901 13.32ZM47.9353 13.158C47.8993 13.158 47.8813 13.122 47.8813 13.05C47.8813 12.978 47.8993 12.942 47.9353 12.942C48.2833 12.942 48.5353 12.912 48.6913 12.852C48.8593 12.792 48.9733 12.678 49.0333 12.51C49.0933 12.33 49.1233 12.06 49.1233 11.7V8.29802C49.1233 7.80602 49.0813 7.45802 48.9973 7.25402C48.9253 7.03802 48.7933 6.93002 48.6013 6.93002C48.4693 6.93002 48.2533 6.99002 47.9533 7.11002H47.9173C47.8693 7.11002 47.8333 7.08002 47.8093 7.02002C47.7973 6.96002 47.8153 6.92402 47.8633 6.91202L49.7533 6.06602L49.8253 6.04802C49.8493 6.04802 49.8793 6.06002 49.9153 6.08402C49.9513 6.10802 49.9693 6.13802 49.9693 6.17402V11.7C49.9693 12.06 49.9933 12.33 50.0413 12.51C50.1013 12.678 50.2093 12.792 50.3653 12.852C50.5333 12.912 50.7973 12.942 51.1573 12.942C51.1813 12.942 51.1933 12.978 51.1933 13.05C51.1933 13.122 51.1813 13.158 51.1573 13.158C50.8573 13.158 50.6233 13.152 50.4553 13.14L49.5733 13.122L48.6193 13.14C48.4513 13.152 48.2233 13.158 47.9353 13.158ZM43.0933 13.158C43.0573 13.158 43.0393 13.122 43.0393 13.05C43.0393 12.978 43.0573 12.942 43.0933 12.942C43.4533 12.942 43.7113 12.912 43.8673 12.852C44.0353 12.792 44.1433 12.678 44.1913 12.51C44.2513 12.33 44.2813 12.06 44.2813 11.7V8.29802C44.2813 7.80602 44.2393 7.45802 44.1553 7.25402C44.0833 7.03802 43.9513 6.93002 43.7593 6.93002C43.6273 6.93002 43.4113 6.99002 43.1113 7.11002H43.0753C43.0273 7.11002 42.9913 7.08002 42.9673 7.02002C42.9553 6.96002 42.9733 6.92402 43.0213 6.91202L44.9113 6.06602L44.9833 6.04802C45.0073 6.04802 45.0373 6.06002 45.0733 6.08402C45.1093 6.10802 45.1273 6.13802 45.1273 6.17402V11.7C45.1273 12.06 45.1513 12.33 45.1993 12.51C45.2593 12.678 45.3673 12.792 45.5233 12.852C45.6913 12.912 45.9553 12.942 46.3153 12.942C46.3393 12.942 46.3513 12.978 46.3513 13.05C46.3513 13.122 46.3393 13.158 46.3153 13.158C46.0153 13.158 45.7813 13.152 45.6133 13.14L44.7313 13.122L43.7953 13.14C43.6273 13.152 43.3933 13.158 43.0933 13.158ZM44.6773 9.52202H49.5193V9.84602H44.6773V9.52202ZM55.7452 13.392C55.0612 13.392 54.4552 13.224 53.9272 12.888C53.3992 12.54 52.9912 12.078 52.7032 11.502C52.4152 10.914 52.2712 10.278 52.2712 9.59402C52.2712 8.81402 52.4572 8.15402 52.8292 7.61402C53.2132 7.06202 53.6932 6.65402 54.2692 6.39002C54.8572 6.11402 55.4572 5.97602 56.0692 5.97602C56.7652 5.97602 57.3712 6.15002 57.8872 6.49802C58.4152 6.84602 58.8172 7.30802 59.0932 7.88402C59.3812 8.44802 59.5252 9.04802 59.5252 9.68402C59.5252 10.428 59.3512 11.082 59.0032 11.646C58.6672 12.21 58.2112 12.642 57.6352 12.942C57.0592 13.242 56.4292 13.392 55.7452 13.392ZM56.2492 13.068C56.9452 13.068 57.4912 12.834 57.8872 12.366C58.2832 11.898 58.4812 11.16 58.4812 10.152C58.4812 9.43202 58.3552 8.78402 58.1032 8.20802C57.8512 7.62002 57.4972 7.15802 57.0412 6.82202C56.5852 6.48602 56.0632 6.31802 55.4752 6.31802C54.7912 6.31802 54.2572 6.55802 53.8732 7.03802C53.4892 7.50602 53.2972 8.18402 53.2972 9.07202C53.2972 9.79202 53.4232 10.458 53.6752 11.07C53.9272 11.67 54.2752 12.156 54.7192 12.528C55.1632 12.888 55.6732 13.068 56.2492 13.068ZM64.1073 6.19202C64.7553 6.19202 65.3373 6.34802 65.8533 6.66002C66.3813 6.97202 66.7953 7.40402 67.0953 7.95602C67.3953 8.50802 67.5453 9.13202 67.5453 9.82802C67.5453 10.488 67.4133 11.088 67.1493 11.628C66.8853 12.168 66.4953 12.6 65.9793 12.924C65.4633 13.236 64.8453 13.392 64.1253 13.392C63.3573 13.392 62.7393 13.2 62.2713 12.816C61.8033 12.42 61.4553 11.796 61.2273 10.944C60.9993 10.092 60.8853 8.96402 60.8853 7.56002C60.8853 4.62002 61.2873 2.64602 62.0913 1.63802C62.8953 0.618019 63.8313 0.10802 64.8993 0.10802C66.3273 0.10802 67.0413 0.79202 67.0413 2.16002C67.0413 2.82002 66.8733 3.46202 66.5373 4.08602C66.2133 4.71002 65.7753 5.24402 65.2233 5.68802C64.6833 6.13202 64.1073 6.43202 63.4953 6.58802L64.1073 6.19202ZM64.6113 13.05C65.3313 13.05 65.8713 12.828 66.2313 12.384C66.5913 11.94 66.7713 11.286 66.7713 10.422C66.7713 9.23402 66.4053 8.31602 65.6733 7.66802C64.9413 7.02002 63.9093 6.69602 62.5773 6.69602C62.0853 6.69602 61.7253 6.70802 61.4973 6.73202V6.35402C61.7253 6.39002 62.0793 6.40802 62.5593 6.40802C63.2673 6.40802 63.9033 6.24002 64.4673 5.90402C65.0313 5.55602 65.4693 5.10002 65.7813 4.53602C66.0933 3.96002 66.2493 3.34802 66.2493 2.70002C66.2493 2.02802 66.0993 1.47602 65.7993 1.04402C65.5113 0.600019 65.0793 0.378019 64.5033 0.378019C62.7273 0.378019 61.8393 2.62202 61.8393 7.11002C61.8393 8.62202 61.9413 9.81602 62.1453 10.692C62.3493 11.556 62.6493 12.168 63.0453 12.528C63.4533 12.876 63.9753 13.05 64.6113 13.05ZM71.4741 13.32C70.7421 13.32 70.1301 13.056 69.6381 12.528C69.1461 11.988 68.9001 11.238 68.9001 10.278C68.9001 9.41402 69.1041 8.65802 69.5121 8.01002C69.9201 7.35002 70.4301 6.84602 71.0421 6.49802C71.6661 6.15002 72.2721 5.97602 72.8601 5.97602C73.2801 5.97602 73.6821 6.06002 74.0661 6.22802C74.4501 6.39602 74.7501 6.61202 74.9661 6.87602L74.3901 7.84802C74.3901 7.41602 74.1861 7.05602 73.7781 6.76802C73.3701 6.46802 72.9141 6.31802 72.4101 6.31802C71.6781 6.31802 71.0781 6.64202 70.6101 7.29002C70.1541 7.92602 69.9261 8.75402 69.9261 9.77402C69.9261 10.674 70.1121 11.406 70.4841 11.97C70.8561 12.534 71.3601 12.816 71.9961 12.816C72.4761 12.816 72.9321 12.66 73.3641 12.348C73.8081 12.036 74.2461 11.628 74.6781 11.124L74.8221 11.25C74.2941 11.874 73.7661 12.378 73.2381 12.762C72.7221 13.134 72.1341 13.32 71.4741 13.32ZM74.8941 13.302C74.7861 13.302 74.6721 13.146 74.5521 12.834C74.4441 12.522 74.3901 12.15 74.3901 11.718V6.66002C74.5821 6.56402 74.7201 6.48002 74.8041 6.40802C74.9001 6.33602 74.9841 6.22202 75.0561 6.06602C75.0681 6.05402 75.0981 6.05402 75.1461 6.06602C75.1941 6.06602 75.2181 6.07802 75.2181 6.10202V11.25C75.2181 11.658 75.2661 11.958 75.3621 12.15C75.4701 12.33 75.6441 12.42 75.8841 12.42C76.0041 12.42 76.1481 12.396 76.3161 12.348C76.4961 12.288 76.6881 12.222 76.8921 12.15H76.9281C76.9761 12.15 77.0061 12.18 77.0181 12.24C77.0301 12.288 77.0121 12.318 76.9641 12.33L74.9661 13.284L74.8941 13.302ZM87.1383 13.158C87.1143 13.158 87.1023 13.122 87.1023 13.05C87.1023 12.978 87.1143 12.942 87.1383 12.942C87.4863 12.942 87.7383 12.912 87.8943 12.852C88.0623 12.792 88.1763 12.678 88.2363 12.51C88.2963 12.33 88.3263 12.06 88.3263 11.7V8.76602C88.3263 8.03402 88.1943 7.49402 87.9303 7.14602C87.6783 6.79802 87.2763 6.62402 86.7243 6.62402C86.2923 6.62402 85.8483 6.78002 85.3923 7.09202C84.9363 7.39202 84.5343 7.80002 84.1863 8.31602L84.1143 8.10002C84.6543 7.36802 85.1703 6.84002 85.6623 6.51602C86.1543 6.19202 86.6703 6.03002 87.2103 6.03002C87.8463 6.03002 88.3323 6.21002 88.6683 6.57002C89.0043 6.93002 89.1723 7.47602 89.1723 8.20802V11.7C89.1723 12.06 89.1963 12.33 89.2443 12.51C89.3043 12.678 89.4123 12.792 89.5683 12.852C89.7363 12.912 89.9943 12.942 90.3423 12.942C90.3783 12.942 90.3963 12.978 90.3963 13.05C90.3963 13.122 90.3783 13.158 90.3423 13.158C90.0663 13.158 89.8503 13.152 89.6943 13.14L88.7403 13.122L87.8043 13.14C87.6363 13.152 87.4143 13.158 87.1383 13.158ZM82.5123 13.158C82.4763 13.158 82.4583 13.122 82.4583 13.05C82.4583 12.978 82.4763 12.942 82.5123 12.942C82.8603 12.942 83.1123 12.912 83.2683 12.852C83.4243 12.792 83.5323 12.678 83.5923 12.51C83.6523 12.33 83.6823 12.06 83.6823 11.7V8.76602C83.6823 8.03402 83.5503 7.49402 83.2863 7.14602C83.0343 6.79802 82.6383 6.62402 82.0983 6.62402C81.6543 6.62402 81.2043 6.78002 80.7483 7.09202C80.3043 7.39202 79.9083 7.80002 79.5603 8.31602L79.4883 8.10002C80.0163 7.36802 80.5263 6.84002 81.0183 6.51602C81.5223 6.19202 82.0383 6.03002 82.5663 6.03002C83.2023 6.03002 83.6883 6.21002 84.0243 6.57002C84.3603 6.93002 84.5283 7.47602 84.5283 8.20802V11.7C84.5283 12.06 84.5583 12.33 84.6183 12.51C84.6783 12.678 84.7863 12.792 84.9423 12.852C85.1103 12.912 85.3683 12.942 85.7163 12.942C85.7403 12.942 85.7523 12.978 85.7523 13.05C85.7523 13.122 85.7403 13.158 85.7163 13.158C85.4403 13.158 85.2183 13.152 85.0503 13.14L84.1143 13.122L83.1603 13.14C83.0043 13.152 82.7883 13.158 82.5123 13.158ZM77.8863 13.158C77.8503 13.158 77.8323 13.122 77.8323 13.05C77.8323 12.978 77.8503 12.942 77.8863 12.942C78.2343 12.942 78.4863 12.912 78.6423 12.852C78.7983 12.792 78.9063 12.678 78.9663 12.51C79.0263 12.33 79.0563 12.06 79.0563 11.7V8.10002C79.0563 7.68002 79.0083 7.38002 78.9123 7.20002C78.8163 7.02002 78.6483 6.93002 78.4083 6.93002C78.2163 6.93002 77.8803 7.02002 77.4003 7.20002H77.3643C77.3163 7.20002 77.2803 7.17602 77.2563 7.12802C77.2443 7.06802 77.2623 7.02602 77.3103 7.00202L79.3083 6.06602C79.3323 6.05402 79.3623 6.04802 79.3983 6.04802C79.4943 6.04802 79.6023 6.18602 79.7223 6.46202C79.8423 6.72602 79.9023 7.06802 79.9023 7.48802V11.7C79.9023 12.06 79.9263 12.33 79.9743 12.51C80.0343 12.678 80.1423 12.792 80.2983 12.852C80.4663 12.912 80.7243 12.942 81.0723 12.942C81.1083 12.942 81.1263 12.978 81.1263 13.05C81.1263 13.122 81.1083 13.158 81.0723 13.158C80.7963 13.158 80.5803 13.152 80.4243 13.14L79.4883 13.122L78.5343 13.14C78.3783 13.152 78.1623 13.158 77.8863 13.158ZM94.3341 13.392C93.6021 13.392 93.0441 13.248 92.6601 12.96C92.2881 12.66 92.1021 12.234 92.1021 11.682V8.29802C92.1021 7.80602 92.0601 7.45802 91.9761 7.25402C91.9041 7.03802 91.7721 6.93002 91.5801 6.93002C91.4481 6.93002 91.2321 6.99002 90.9321 7.11002H90.8961C90.8481 7.11002 90.8121 7.08002 90.7881 7.02002C90.7761 6.96002 90.7941 6.92402 90.8421 6.91202L92.7321 6.06602L92.8041 6.04802C92.8281 6.04802 92.8581 6.06002 92.8941 6.08402C92.9301 6.10802 92.9481 6.13802 92.9481 6.17402V11.304C92.9481 12.54 93.4941 13.158 94.5861 13.158C95.6661 13.158 96.2061 12.57 96.2061 11.394C96.2061 10.794 96.0441 10.314 95.7201 9.95402C95.3961 9.58202 94.8801 9.39602 94.1721 9.39602C93.6321 9.39602 93.1461 9.50402 92.7141 9.72002L92.6061 9.52202C93.2421 9.23402 93.9681 9.09002 94.7841 9.09002C96.3801 9.09002 97.1781 9.72602 97.1781 10.998C97.1781 11.754 96.9201 12.342 96.4041 12.762C95.9001 13.182 95.2101 13.392 94.3341 13.392ZM105.858 13.392C104.85 13.392 104.04 13.02 103.428 12.276C102.816 11.52 102.51 10.272 102.51 8.53202C102.51 6.55202 102.9 4.96202 103.68 3.76202C104.46 2.55002 105.606 1.80002 107.118 1.51202C107.682 1.40402 108.072 1.31402 108.288 1.24202C108.516 1.15802 108.678 1.03802 108.774 0.882019C108.882 0.726019 108.99 0.456019 109.098 0.072019C109.11 0.0240196 109.146 0.00601983 109.206 0.0180197C109.266 0.0300195 109.29 0.0600195 109.278 0.10802C109.158 0.60002 109.098 0.85802 109.098 0.882019C108.954 1.48202 108.822 1.84202 108.702 1.96202C108.582 2.07002 108.3 2.16002 107.856 2.23202C107.412 2.29202 107.01 2.35802 106.65 2.43002C105.618 2.61002 104.892 2.85602 104.472 3.16802C104.052 3.46802 103.776 3.98402 103.644 4.71602C103.512 5.44802 103.446 6.69002 103.446 8.44202L103.266 8.55002C103.566 7.72202 104.04 7.12202 104.688 6.75002C105.348 6.37802 106.008 6.19202 106.668 6.19202C107.328 6.19202 107.88 6.36602 108.324 6.71402C108.768 7.06202 109.092 7.50602 109.296 8.04602C109.512 8.57402 109.62 9.12002 109.62 9.68402C109.62 10.416 109.452 11.064 109.116 11.628C108.78 12.192 108.324 12.63 107.748 12.942C107.172 13.242 106.542 13.392 105.858 13.392ZM106.38 13.068C107.064 13.068 107.604 12.834 108 12.366C108.396 11.886 108.594 11.166 108.594 10.206C108.594 9.51002 108.48 8.88602 108.252 8.33402C108.024 7.78202 107.718 7.35002 107.334 7.03802C106.95 6.72602 106.53 6.57002 106.074 6.57002C105.642 6.57002 105.234 6.71402 104.85 7.00202C104.466 7.27802 104.154 7.64402 103.914 8.10002C103.686 8.55602 103.572 9.03002 103.572 9.52202C103.572 10.542 103.818 11.388 104.31 12.06C104.814 12.732 105.504 13.068 106.38 13.068ZM114.385 12.996L114.403 13.392L111.613 7.70402C111.337 7.17602 111.127 6.83402 110.983 6.67802C110.839 6.51002 110.653 6.42602 110.425 6.42602C110.401 6.42602 110.389 6.39002 110.389 6.31802C110.389 6.24602 110.401 6.21002 110.425 6.21002C110.677 6.21002 110.863 6.21602 110.983 6.22802L111.541 6.24602L112.657 6.22802C112.825 6.21602 113.059 6.21002 113.359 6.21002C113.383 6.21002 113.395 6.24602 113.395 6.31802C113.395 6.39002 113.383 6.42602 113.359 6.42602C112.639 6.42602 112.279 6.57002 112.279 6.85802C112.279 6.94202 112.303 7.03202 112.351 7.12802L114.871 12.294L114.475 12.888L116.329 7.74002C116.425 7.45202 116.473 7.23602 116.473 7.09202C116.473 6.84002 116.359 6.66602 116.131 6.57002C115.915 6.47402 115.543 6.42602 115.015 6.42602C114.991 6.42602 114.979 6.39002 114.979 6.31802C114.979 6.24602 114.991 6.21002 115.015 6.21002C115.339 6.21002 115.585 6.21602 115.753 6.22802L116.833 6.24602L117.463 6.22802C117.571 6.21602 117.751 6.21002 118.003 6.21002C118.039 6.21002 118.057 6.24602 118.057 6.31802C118.057 6.39002 118.039 6.42602 118.003 6.42602C117.715 6.42602 117.469 6.51602 117.265 6.69602C117.073 6.87602 116.887 7.20002 116.707 7.66802L113.737 15.318C113.389 16.218 113.155 16.956 113.035 17.532C112.975 17.784 112.921 17.94 112.873 18C112.825 18.072 112.735 18.108 112.603 18.108H110.317C110.293 18.108 110.281 18.072 110.281 18C110.281 17.928 110.293 17.892 110.317 17.892C110.989 17.892 111.577 17.7 112.081 17.316C112.585 16.944 113.053 16.248 113.485 15.228L114.385 12.996ZM121.594 18.216C120.886 18.216 120.31 18.084 119.866 17.82C119.434 17.556 119.218 17.238 119.218 16.866C119.218 16.698 119.26 16.572 119.344 16.488C119.44 16.404 119.548 16.362 119.668 16.362C119.8 16.362 119.914 16.398 120.01 16.47C120.106 16.554 120.214 16.68 120.334 16.848C120.586 17.16 120.844 17.4 121.108 17.568C121.372 17.748 121.756 17.838 122.26 17.838C122.884 17.838 123.376 17.628 123.736 17.208C124.108 16.788 124.294 16.002 124.294 14.85V6.66002C124.486 6.56402 124.624 6.48002 124.708 6.40802C124.804 6.33602 124.888 6.22202 124.96 6.06602C124.972 6.05402 125.002 6.05402 125.05 6.06602C125.098 6.06602 125.122 6.07802 125.122 6.10202V14.418C125.122 15.57 124.81 16.488 124.186 17.172C123.562 17.868 122.698 18.216 121.594 18.216ZM121.378 13.32C120.646 13.32 120.034 13.056 119.542 12.528C119.05 11.988 118.804 11.238 118.804 10.278C118.804 9.41402 119.008 8.65802 119.416 8.01002C119.824 7.35002 120.334 6.84602 120.946 6.49802C121.57 6.15002 122.176 5.97602 122.764 5.97602C123.184 5.97602 123.586 6.06002 123.97 6.22802C124.354 6.39602 124.654 6.61202 124.87 6.87602L124.294 7.84802C124.294 7.41602 124.09 7.05602 123.682 6.76802C123.274 6.46802 122.818 6.31802 122.314 6.31802C121.582 6.31802 120.982 6.64202 120.514 7.29002C120.058 7.92602 119.83 8.75402 119.83 9.77402C119.83 10.674 120.016 11.406 120.388 11.97C120.76 12.534 121.264 12.816 121.9 12.816C122.38 12.816 122.836 12.66 123.268 12.348C123.712 12.036 124.15 11.628 124.582 11.124L124.726 11.25C124.198 11.874 123.67 12.378 123.142 12.762C122.626 13.134 122.038 13.32 121.378 13.32ZM130.376 13.374C129.692 13.374 129.11 13.212 128.63 12.888C128.15 12.564 127.784 12.144 127.532 11.628C127.292 11.1 127.172 10.53 127.172 9.91802C127.172 9.21002 127.34 8.56202 127.676 7.97402C128.012 7.37402 128.462 6.90602 129.026 6.57002C129.602 6.22202 130.226 6.04802 130.898 6.04802C131.57 6.04802 132.074 6.23402 132.41 6.60602C132.758 6.96602 132.932 7.46402 132.932 8.10002C132.932 8.26802 132.914 8.38802 132.878 8.46002C132.854 8.52002 132.8 8.55002 132.716 8.55002H131.87C131.882 8.46602 131.888 8.35202 131.888 8.20802C131.888 7.60802 131.744 7.15802 131.456 6.85802C131.18 6.55802 130.802 6.40802 130.322 6.40802C129.65 6.40802 129.128 6.66002 128.756 7.16402C128.384 7.66802 128.198 8.37002 128.198 9.27002C128.198 10.314 128.444 11.166 128.936 11.826C129.428 12.474 130.118 12.798 131.006 12.798C131.378 12.798 131.696 12.75 131.96 12.654C132.224 12.546 132.512 12.39 132.824 12.186H132.842C132.878 12.186 132.908 12.21 132.932 12.258C132.968 12.294 132.974 12.33 132.95 12.366C132.158 13.038 131.3 13.374 130.376 13.374ZM127.946 8.35202L132.05 8.28002V8.55002L127.964 8.56802L127.946 8.35202ZM143.682 12.942C143.706 12.942 143.718 12.978 143.718 13.05C143.718 13.122 143.706 13.158 143.682 13.158C143.37 13.158 143.124 13.152 142.944 13.14L142.08 13.122L141.252 13.14C141.108 13.152 140.91 13.158 140.658 13.158C140.634 13.158 140.622 13.122 140.622 13.05C140.622 12.978 140.634 12.942 140.658 12.942C141.03 12.942 141.288 12.888 141.432 12.78C141.588 12.672 141.666 12.462 141.666 12.15C141.666 12.09 141.654 11.94 141.63 11.7L141.018 7.41602L141.63 6.60602L138.84 13.158C138.828 13.206 138.78 13.23 138.696 13.23C138.636 13.23 138.588 13.206 138.552 13.158L135.798 7.65002L136.014 7.45202L135.564 11.286C135.54 11.502 135.528 11.646 135.528 11.718C135.528 12.15 135.624 12.462 135.816 12.654C136.008 12.846 136.302 12.942 136.698 12.942C136.734 12.942 136.752 12.978 136.752 13.05C136.752 13.122 136.734 13.158 136.698 13.158C136.446 13.158 136.254 13.152 136.122 13.14L135.384 13.122L134.628 13.14C134.484 13.152 134.28 13.158 134.016 13.158C133.98 13.158 133.962 13.122 133.962 13.05C133.962 12.978 133.98 12.942 134.016 12.942C134.436 12.942 134.724 12.822 134.88 12.582C135.048 12.342 135.156 11.91 135.204 11.286L135.672 6.10202C135.672 6.04202 135.732 6.01202 135.852 6.01202C135.936 6.01202 135.984 6.02402 135.996 6.04802L139.056 12.15L138.804 12.312L141.468 6.08402C141.492 6.02402 141.546 5.99402 141.63 5.99402C141.678 5.99402 141.72 6.00602 141.756 6.03002C141.804 6.05402 141.834 6.08402 141.846 6.12002L142.476 11.7C142.524 12.096 142.572 12.372 142.62 12.528C142.68 12.684 142.782 12.792 142.926 12.852C143.082 12.912 143.334 12.942 143.682 12.942ZM152.033 6.19202C152.681 6.19202 153.263 6.34802 153.779 6.66002C154.307 6.97202 154.721 7.40402 155.021 7.95602C155.321 8.50802 155.471 9.13202 155.471 9.82802C155.471 10.488 155.339 11.088 155.075 11.628C154.811 12.168 154.421 12.6 153.905 12.924C153.389 13.236 152.771 13.392 152.051 13.392C151.283 13.392 150.665 13.2 150.197 12.816C149.729 12.42 149.381 11.796 149.153 10.944C148.925 10.092 148.811 8.96402 148.811 7.56002C148.811 4.62002 149.213 2.64602 150.017 1.63802C150.821 0.618019 151.757 0.10802 152.825 0.10802C154.253 0.10802 154.967 0.79202 154.967 2.16002C154.967 2.82002 154.799 3.46202 154.463 4.08602C154.139 4.71002 153.701 5.24402 153.149 5.68802C152.609 6.13202 152.033 6.43202 151.421 6.58802L152.033 6.19202ZM152.537 13.05C153.257 13.05 153.797 12.828 154.157 12.384C154.517 11.94 154.697 11.286 154.697 10.422C154.697 9.23402 154.331 8.31602 153.599 7.66802C152.867 7.02002 151.835 6.69602 150.503 6.69602C150.011 6.69602 149.651 6.70802 149.423 6.73202V6.35402C149.651 6.39002 150.005 6.40802 150.485 6.40802C151.193 6.40802 151.829 6.24002 152.393 5.90402C152.957 5.55602 153.395 5.10002 153.707 4.53602C154.019 3.96002 154.175 3.34802 154.175 2.70002C154.175 2.02802 154.025 1.47602 153.725 1.04402C153.437 0.600019 153.005 0.378019 152.429 0.378019C150.653 0.378019 149.765 2.62202 149.765 7.11002C149.765 8.62202 149.867 9.81602 150.071 10.692C150.275 11.556 150.575 12.168 150.971 12.528C151.379 12.876 151.901 13.05 152.537 13.05ZM162.323 6.10202C161.975 6.10202 161.699 5.97602 161.495 5.72402C161.303 5.46002 161.207 5.07602 161.207 4.57202C161.207 4.06802 161.309 3.58802 161.513 3.13202C161.729 2.67602 162.041 2.22002 162.449 1.76402C162.461 1.75202 162.479 1.74602 162.503 1.74602C162.539 1.74602 162.569 1.76402 162.593 1.80002C162.617 1.83602 162.617 1.86602 162.593 1.89002C162.341 2.26202 162.173 2.61002 162.089 2.93402C162.005 3.24602 161.963 3.60602 161.963 4.01402C161.963 4.33802 162.011 4.60202 162.107 4.80602C162.203 5.01002 162.329 5.19002 162.485 5.34602L161.801 5.47202C161.789 5.26802 161.837 5.11202 161.945 5.00402C162.065 4.89602 162.221 4.84202 162.413 4.84202C162.617 4.84202 162.773 4.90202 162.881 5.02202C163.001 5.13002 163.061 5.28002 163.061 5.47202C163.061 5.89202 162.815 6.10202 162.323 6.10202ZM164.843 6.10202C164.495 6.10202 164.219 5.97602 164.015 5.72402C163.823 5.46002 163.727 5.07602 163.727 4.57202C163.727 4.06802 163.829 3.58802 164.033 3.13202C164.249 2.67602 164.561 2.22002 164.969 1.76402C164.981 1.75202 164.999 1.74602 165.023 1.74602C165.059 1.74602 165.089 1.76402 165.113 1.80002C165.137 1.83602 165.137 1.86602 165.113 1.89002C164.861 2.26202 164.693 2.61002 164.609 2.93402C164.525 3.24602 164.483 3.60602 164.483 4.01402C164.483 4.33802 164.531 4.60202 164.627 4.80602C164.723 5.01002 164.849 5.19002 165.005 5.34602L164.321 5.47202C164.309 5.26802 164.357 5.11202 164.465 5.00402C164.585 4.89602 164.741 4.84202 164.933 4.84202C165.137 4.84202 165.293 4.90202 165.401 5.02202C165.521 5.13002 165.581 5.28002 165.581 5.47202C165.581 5.89202 165.335 6.10202 164.843 6.10202ZM170.17 7.66802H174.832L174.958 7.99202H170.008L170.17 7.66802ZM178.9 12.942C178.948 12.942 178.972 12.978 178.972 13.05C178.972 13.122 178.948 13.158 178.9 13.158C178.684 13.158 178.336 13.146 177.856 13.122C177.4 13.098 177.064 13.086 176.848 13.086C176.596 13.086 176.266 13.098 175.858 13.122C175.474 13.146 175.186 13.158 174.994 13.158C174.946 13.158 174.922 13.122 174.922 13.05C174.922 12.978 174.946 12.942 174.994 12.942C175.486 12.942 175.84 12.9 176.056 12.816C176.272 12.72 176.38 12.564 176.38 12.348C176.38 12.18 176.314 11.946 176.182 11.646L172.114 2.89802L172.456 2.59202L168.982 10.944C168.814 11.352 168.73 11.688 168.73 11.952C168.73 12.3 168.874 12.552 169.162 12.708C169.45 12.864 169.9 12.942 170.512 12.942C170.572 12.942 170.602 12.978 170.602 13.05C170.602 13.122 170.572 13.158 170.512 13.158C170.296 13.158 169.984 13.146 169.576 13.122C169.12 13.098 168.724 13.086 168.388 13.086C168.088 13.086 167.734 13.098 167.326 13.122C166.966 13.146 166.672 13.158 166.444 13.158C166.384 13.158 166.354 13.122 166.354 13.05C166.354 12.978 166.384 12.942 166.444 12.942C166.78 12.942 167.062 12.882 167.29 12.762C167.53 12.642 167.752 12.426 167.956 12.114C168.172 11.802 168.4 11.358 168.64 10.782L172.402 1.72802C172.426 1.69202 172.462 1.67402 172.51 1.67402C172.57 1.67402 172.606 1.69202 172.618 1.72802L176.794 10.692C177.07 11.304 177.316 11.772 177.532 12.096C177.748 12.408 177.958 12.63 178.162 12.762C178.378 12.882 178.624 12.942 178.9 12.942ZM189.665 1.90802C189.701 1.90802 189.719 1.94402 189.719 2.01602C189.719 2.08802 189.701 2.12402 189.665 2.12402C189.257 2.12402 188.915 2.21402 188.639 2.39402C188.375 2.56202 188.141 2.88602 187.937 3.36602L183.977 13.14C183.965 13.188 183.899 13.212 183.779 13.212C183.683 13.212 183.617 13.188 183.581 13.14L179.135 3.40202C178.931 2.93402 178.709 2.60402 178.469 2.41202C178.241 2.22002 177.941 2.12402 177.569 2.12402C177.533 2.12402 177.515 2.08802 177.515 2.01602C177.515 1.94402 177.533 1.90802 177.569 1.90802L178.343 1.92602C178.679 1.95002 178.931 1.96202 179.099 1.96202C179.447 1.96202 179.861 1.95002 180.341 1.92602L181.115 1.90802C181.151 1.90802 181.169 1.94402 181.169 2.01602C181.169 2.08802 181.151 2.12402 181.115 2.12402C180.743 2.12402 180.461 2.16602 180.269 2.25002C180.089 2.33402 179.999 2.47802 179.999 2.68202C179.999 2.82602 180.053 3.00602 180.161 3.22202L184.193 12.132L183.707 12.798L187.559 3.25802C187.643 3.05402 187.685 2.88002 187.685 2.73602C187.685 2.52002 187.571 2.36402 187.343 2.26802C187.127 2.17202 186.767 2.12402 186.263 2.12402C186.227 2.12402 186.209 2.08802 186.209 2.01602C186.209 1.94402 186.227 1.90802 186.263 1.90802L186.983 1.92602C187.391 1.95002 187.751 1.96202 188.063 1.96202C188.315 1.96202 188.597 1.95002 188.909 1.92602L189.665 1.90802ZM192.095 4.08602C192.095 4.56602 192.209 4.98002 192.437 5.32802C192.665 5.67602 192.941 5.97002 193.265 6.21002C193.601 6.43802 194.063 6.72602 194.651 7.07402C195.275 7.44602 195.755 7.75802 196.091 8.01002C196.439 8.25002 196.733 8.56202 196.973 8.94602C197.225 9.33002 197.351 9.79202 197.351 10.332C197.351 10.896 197.213 11.412 196.937 11.88C196.661 12.336 196.247 12.702 195.695 12.978C195.155 13.242 194.489 13.374 193.697 13.374C193.277 13.374 192.875 13.326 192.491 13.23C192.119 13.146 191.705 12.99 191.249 12.762C191.189 12.726 191.147 12.684 191.123 12.636C191.111 12.588 191.099 12.516 191.087 12.42L190.817 10.08V10.062C190.817 10.014 190.847 9.99002 190.907 9.99002C190.967 9.97802 191.003 9.99602 191.015 10.044C191.135 10.872 191.453 11.592 191.969 12.204C192.485 12.816 193.193 13.122 194.093 13.122C194.729 13.122 195.263 12.948 195.695 12.6C196.139 12.252 196.361 11.706 196.361 10.962C196.361 10.422 196.241 9.96002 196.001 9.57602C195.761 9.18002 195.467 8.85602 195.119 8.60402C194.783 8.34002 194.321 8.03402 193.733 7.68602C193.157 7.35002 192.701 7.05602 192.365 6.80402C192.041 6.55202 191.759 6.24002 191.519 5.86802C191.291 5.48402 191.177 5.02802 191.177 4.50002C191.177 3.90002 191.327 3.39002 191.627 2.97002C191.939 2.55002 192.341 2.23802 192.833 2.03402C193.325 1.81802 193.853 1.71002 194.417 1.71002C195.077 1.71002 195.761 1.85402 196.469 2.14202C196.649 2.21402 196.739 2.31602 196.739 2.44802L196.901 4.35602C196.901 4.40402 196.865 4.42802 196.793 4.42802C196.733 4.42802 196.697 4.40402 196.685 4.35602C196.637 3.73202 196.403 3.17402 195.983 2.68202C195.563 2.19002 194.963 1.94402 194.183 1.94402C193.463 1.94402 192.935 2.15402 192.599 2.57402C192.263 2.99402 192.095 3.49802 192.095 4.08602ZM209.154 13.374C208.038 13.374 207.042 13.116 206.166 12.6C205.302 12.072 204.63 11.364 204.15 10.476C203.682 9.57602 203.448 8.59802 203.448 7.54202C203.448 6.30602 203.76 5.25002 204.384 4.37402C205.008 3.48602 205.806 2.82002 206.778 2.37602C207.762 1.93202 208.764 1.71002 209.784 1.71002C210.924 1.71002 211.926 1.98002 212.79 2.52002C213.654 3.04802 214.314 3.75002 214.77 4.62602C215.238 5.50202 215.472 6.43202 215.472 7.41602C215.472 8.50802 215.184 9.51002 214.608 10.422C214.032 11.334 213.258 12.054 212.286 12.582C211.326 13.11 210.282 13.374 209.154 13.374ZM209.802 13.014C210.654 13.014 211.422 12.816 212.106 12.42C212.79 12.024 213.33 11.442 213.726 10.674C214.122 9.90602 214.32 8.98802 214.32 7.92002C214.32 6.79202 214.098 5.79002 213.654 4.91402C213.222 4.02602 212.604 3.33602 211.8 2.84402C211.008 2.35202 210.084 2.10602 209.028 2.10602C207.636 2.10602 206.55 2.53802 205.77 3.40202C204.99 4.26602 204.6 5.44202 204.6 6.93002C204.6 8.04602 204.816 9.07202 205.248 10.008C205.692 10.932 206.31 11.664 207.102 12.204C207.894 12.744 208.794 13.014 209.802 13.014ZM226.427 13.158C226.403 13.158 226.391 13.122 226.391 13.05C226.391 12.978 226.403 12.942 226.427 12.942C226.775 12.942 227.027 12.912 227.183 12.852C227.351 12.792 227.465 12.678 227.525 12.51C227.585 12.33 227.615 12.06 227.615 11.7V8.76602C227.615 8.03402 227.483 7.49402 227.219 7.14602C226.967 6.79802 226.565 6.62402 226.013 6.62402C225.581 6.62402 225.137 6.78002 224.681 7.09202C224.225 7.39202 223.823 7.80002 223.475 8.31602L223.403 8.10002C223.943 7.36802 224.459 6.84002 224.951 6.51602C225.443 6.19202 225.959 6.03002 226.499 6.03002C227.135 6.03002 227.621 6.21002 227.957 6.57002C228.293 6.93002 228.461 7.47602 228.461 8.20802V11.7C228.461 12.06 228.485 12.33 228.533 12.51C228.593 12.678 228.701 12.792 228.857 12.852C229.025 12.912 229.283 12.942 229.631 12.942C229.667 12.942 229.685 12.978 229.685 13.05C229.685 13.122 229.667 13.158 229.631 13.158C229.355 13.158 229.139 13.152 228.983 13.14L228.029 13.122L227.093 13.14C226.925 13.152 226.703 13.158 226.427 13.158ZM221.801 13.158C221.765 13.158 221.747 13.122 221.747 13.05C221.747 12.978 221.765 12.942 221.801 12.942C222.149 12.942 222.401 12.912 222.557 12.852C222.713 12.792 222.821 12.678 222.881 12.51C222.941 12.33 222.971 12.06 222.971 11.7V8.76602C222.971 8.03402 222.839 7.49402 222.575 7.14602C222.323 6.79802 221.927 6.62402 221.387 6.62402C220.943 6.62402 220.493 6.78002 220.037 7.09202C219.593 7.39202 219.197 7.80002 218.849 8.31602L218.777 8.10002C219.305 7.36802 219.815 6.84002 220.307 6.51602C220.811 6.19202 221.327 6.03002 221.855 6.03002C222.491 6.03002 222.977 6.21002 223.313 6.57002C223.649 6.93002 223.817 7.47602 223.817 8.20802V11.7C223.817 12.06 223.847 12.33 223.907 12.51C223.967 12.678 224.075 12.792 224.231 12.852C224.399 12.912 224.657 12.942 225.005 12.942C225.029 12.942 225.041 12.978 225.041 13.05C225.041 13.122 225.029 13.158 225.005 13.158C224.729 13.158 224.507 13.152 224.339 13.14L223.403 13.122L222.449 13.14C222.293 13.152 222.077 13.158 221.801 13.158ZM217.175 13.158C217.139 13.158 217.121 13.122 217.121 13.05C217.121 12.978 217.139 12.942 217.175 12.942C217.523 12.942 217.775 12.912 217.931 12.852C218.087 12.792 218.195 12.678 218.255 12.51C218.315 12.33 218.345 12.06 218.345 11.7V8.10002C218.345 7.68002 218.297 7.38002 218.201 7.20002C218.105 7.02002 217.937 6.93002 217.697 6.93002C217.505 6.93002 217.169 7.02002 216.689 7.20002H216.653C216.605 7.20002 216.569 7.17602 216.545 7.12802C216.533 7.06802 216.551 7.02602 216.599 7.00202L218.597 6.06602C218.621 6.05402 218.651 6.04802 218.687 6.04802C218.783 6.04802 218.891 6.18602 219.011 6.46202C219.131 6.72602 219.191 7.06802 219.191 7.48802V11.7C219.191 12.06 219.215 12.33 219.263 12.51C219.323 12.678 219.431 12.792 219.587 12.852C219.755 12.912 220.013 12.942 220.361 12.942C220.397 12.942 220.415 12.978 220.415 13.05C220.415 13.122 220.397 13.158 220.361 13.158C220.085 13.158 219.869 13.152 219.713 13.14L218.777 13.122L217.823 13.14C217.667 13.152 217.451 13.158 217.175 13.158ZM233.893 13.374C233.209 13.374 232.627 13.212 232.147 12.888C231.667 12.564 231.301 12.144 231.049 11.628C230.809 11.1 230.689 10.53 230.689 9.91802C230.689 9.21002 230.857 8.56202 231.193 7.97402C231.529 7.37402 231.979 6.90602 232.543 6.57002C233.119 6.22202 233.743 6.04802 234.415 6.04802C235.087 6.04802 235.591 6.23402 235.927 6.60602C236.275 6.96602 236.449 7.46402 236.449 8.10002C236.449 8.26802 236.431 8.38802 236.395 8.46002C236.371 8.52002 236.317 8.55002 236.233 8.55002H235.387C235.399 8.46602 235.405 8.35202 235.405 8.20802C235.405 7.60802 235.261 7.15802 234.973 6.85802C234.697 6.55802 234.319 6.40802 233.839 6.40802C233.167 6.40802 232.645 6.66002 232.273 7.16402C231.901 7.66802 231.715 8.37002 231.715 9.27002C231.715 10.314 231.961 11.166 232.453 11.826C232.945 12.474 233.635 12.798 234.523 12.798C234.895 12.798 235.213 12.75 235.477 12.654C235.741 12.546 236.029 12.39 236.341 12.186H236.359C236.395 12.186 236.425 12.21 236.449 12.258C236.485 12.294 236.491 12.33 236.467 12.366C235.675 13.038 234.817 13.374 233.893 13.374ZM231.463 8.35202L235.567 8.28002V8.55002L231.481 8.56802L231.463 8.35202ZM237.408 13.158C237.36 13.158 237.336 13.122 237.336 13.05C237.336 12.978 237.36 12.942 237.408 12.942C237.624 12.942 237.852 12.792 238.092 12.492C238.332 12.192 238.638 11.622 239.01 10.782L241.08 5.94002C241.104 5.89202 241.14 5.86802 241.188 5.86802C241.248 5.86802 241.284 5.89202 241.296 5.94002L243.528 10.692C243.852 11.388 244.098 11.88 244.266 12.168C244.434 12.456 244.602 12.66 244.77 12.78C244.938 12.888 245.154 12.942 245.418 12.942C245.478 12.942 245.508 12.978 245.508 13.05C245.508 13.122 245.478 13.158 245.418 13.158C245.238 13.158 244.968 13.146 244.608 13.122C244.248 13.098 243.978 13.086 243.798 13.086C243.642 13.086 243.408 13.098 243.096 13.122C242.76 13.146 242.532 13.158 242.412 13.158C242.364 13.158 242.34 13.122 242.34 13.05C242.34 12.978 242.364 12.942 242.412 12.942C242.616 12.942 242.784 12.894 242.916 12.798C243.06 12.69 243.132 12.528 243.132 12.312C243.132 12.12 243.072 11.898 242.952 11.646L240.846 7.16402L241.17 6.82202L239.424 10.944C239.208 11.448 239.1 11.856 239.1 12.168C239.1 12.684 239.382 12.942 239.946 12.942C240.006 12.942 240.036 12.978 240.036 13.05C240.036 13.122 240.006 13.158 239.946 13.158C239.814 13.158 239.64 13.146 239.424 13.122C239.16 13.098 238.92 13.086 238.704 13.086C238.464 13.086 238.224 13.098 237.984 13.122C237.768 13.146 237.576 13.158 237.408 13.158ZM249.109 13.392C248.377 13.392 247.819 13.248 247.435 12.96C247.063 12.66 246.877 12.234 246.877 11.682V8.29802C246.877 7.80602 246.835 7.45802 246.751 7.25402C246.679 7.03802 246.547 6.93002 246.355 6.93002C246.223 6.93002 246.007 6.99002 245.707 7.11002H245.671C245.623 7.11002 245.587 7.08002 245.563 7.02002C245.551 6.96002 245.569 6.92402 245.617 6.91202L247.507 6.06602L247.579 6.04802C247.603 6.04802 247.633 6.06002 247.669 6.08402C247.705 6.10802 247.723 6.13802 247.723 6.17402V11.304C247.723 12.54 248.269 13.158 249.361 13.158C250.441 13.158 250.981 12.57 250.981 11.394C250.981 10.794 250.819 10.314 250.495 9.95402C250.171 9.58202 249.655 9.39602 248.947 9.39602C248.407 9.39602 247.921 9.50402 247.489 9.72002L247.381 9.52202C248.017 9.23402 248.743 9.09002 249.559 9.09002C251.155 9.09002 251.953 9.72602 251.953 10.998C251.953 11.754 251.695 12.342 251.179 12.762C250.675 13.182 249.985 13.392 249.109 13.392ZM256.029 1.72802C256.377 1.72802 256.647 1.86002 256.839 2.12402C257.043 2.37602 257.145 2.75402 257.145 3.25802C257.145 3.76202 257.037 4.24202 256.821 4.69802C256.617 5.15402 256.311 5.61002 255.903 6.06602C255.891 6.07802 255.873 6.08402 255.849 6.08402C255.813 6.08402 255.783 6.06602 255.759 6.03002C255.735 5.99402 255.735 5.96402 255.759 5.94002C256.011 5.56802 256.179 5.22602 256.263 4.91402C256.347 4.59002 256.389 4.22402 256.389 3.81602C256.389 3.49202 256.341 3.22802 256.245 3.02402C256.149 2.82002 256.023 2.64002 255.867 2.48402L256.551 2.35802C256.563 2.56202 256.509 2.71802 256.389 2.82602C256.281 2.93402 256.131 2.98802 255.939 2.98802C255.735 2.98802 255.573 2.93402 255.453 2.82602C255.345 2.70602 255.291 2.55002 255.291 2.35802C255.291 1.93802 255.537 1.72802 256.029 1.72802ZM253.509 1.72802C253.857 1.72802 254.127 1.86002 254.319 2.12402C254.523 2.37602 254.625 2.75402 254.625 3.25802C254.625 3.76202 254.517 4.24202 254.301 4.69802C254.097 5.15402 253.791 5.61002 253.383 6.06602C253.371 6.07802 253.353 6.08402 253.329 6.08402C253.293 6.08402 253.263 6.06602 253.239 6.03002C253.215 5.99402 253.215 5.96402 253.239 5.94002C253.491 5.56802 253.659 5.22602 253.743 4.91402C253.827 4.59002 253.869 4.22402 253.869 3.81602C253.869 3.49202 253.821 3.22802 253.725 3.02402C253.629 2.82002 253.503 2.64002 253.347 2.48402L254.031 2.35802C254.043 2.56202 253.989 2.71802 253.869 2.82602C253.761 2.93402 253.611 2.98802 253.419 2.98802C253.215 2.98802 253.053 2.93402 252.933 2.82602C252.825 2.70602 252.771 2.55002 252.771 2.35802C252.771 1.93802 253.017 1.72802 253.509 1.72802Z" fill="#706760"/>
</svg>
