<svg width="303" height="16" viewBox="0 0 303 16" fill="none" xmlns="http://www.w3.org/2000/svg">
<path d="M13.58 12.34C13.6067 12.34 13.62 12.38 13.62 12.46C13.62 12.54 13.6067 12.58 13.58 12.58C13.14 12.58 12.7933 12.5733 12.54 12.56L11.16 12.54L9.66 12.56C9.40667 12.5733 9.06001 12.58 8.62001 12.58C8.59334 12.58 8.58001 12.54 8.58001 12.46C8.58001 12.38 8.59334 12.34 8.62001 12.34C9.11334 12.34 9.47334 12.3067 9.70001 12.24C9.94001 12.1733 10.1 12.0467 10.18 11.86C10.26 11.66 10.3 11.36 10.3 10.96V1.82C10.3 1.36667 10.2733 1.06667 10.22 0.920002C10.18 0.773335 10.08 0.680001 9.92001 0.640002C9.76001 0.600001 9.42667 0.580001 8.92001 0.580001H4.82001C4.28667 0.580001 3.92667 0.600001 3.74001 0.640002C3.55334 0.680001 3.43334 0.780001 3.38 0.940001C3.34001 1.08667 3.32001 1.38 3.32001 1.82V10.96C3.32001 11.36 3.36001 11.66 3.44001 11.86C3.52001 12.0467 3.67334 12.1733 3.90001 12.24C4.14001 12.3067 4.50667 12.34 5.00001 12.34C5.04001 12.34 5.06001 12.38 5.06001 12.46C5.06001 12.54 5.04001 12.58 5.00001 12.58C4.57334 12.58 4.23334 12.5733 3.98 12.56L2.48 12.54L1.08 12.56C0.826672 12.5733 0.480005 12.58 0.0400049 12.58C0.0133382 12.58 4.90993e-06 12.54 4.90993e-06 12.46C4.90993e-06 12.38 0.0133382 12.34 0.0400049 12.34C0.533338 12.34 0.893338 12.3067 1.12 12.24C1.36 12.1733 1.52 12.0467 1.60001 11.86C1.69334 11.66 1.74001 11.36 1.74001 10.96V1.94C1.74001 1.52667 1.70001 1.20667 1.62 0.980001C1.54 0.753335 1.38001 0.586668 1.14001 0.480001C0.900005 0.373335 0.546672 0.320001 0.0800049 0.320001C0.0400049 0.320001 0.0200049 0.280001 0.0200049 0.200001C0.0200049 0.120002 0.0400049 0.0800018 0.0800049 0.0800018C0.520005 0.0800018 0.946672 0.0866684 1.36001 0.100002C3.14667 0.126668 4.99334 0.140001 6.90001 0.140001C8.60667 0.140001 10.6 0.120001 12.88 0.0800018H13.58C13.6067 0.0800018 13.62 0.120002 13.62 0.200001C13.62 0.280001 13.6067 0.320001 13.58 0.320001C13.1 0.320001 12.74 0.373335 12.5 0.480001C12.26 0.586668 12.0933 0.753335 12 0.980001C11.92 1.20667 11.88 1.52667 11.88 1.94V10.96C11.88 11.36 11.92 11.66 12 11.86C12.0933 12.0467 12.2533 12.1733 12.48 12.24C12.72 12.3067 13.0867 12.34 13.58 12.34ZM17.8228 10.88C17.8228 11.2933 17.8695 11.6 17.9628 11.8C18.0562 12 18.2295 12.14 18.4828 12.22C18.7495 12.3 19.1628 12.34 19.7228 12.34C19.7628 12.34 19.7828 12.38 19.7828 12.46C19.7828 12.54 19.7628 12.58 19.7228 12.58C19.2428 12.58 18.8628 12.5733 18.5828 12.56L17.1028 12.54L15.8628 12.56C15.6362 12.5733 15.3228 12.58 14.9228 12.58C14.8962 12.58 14.8828 12.54 14.8828 12.46C14.8828 12.38 14.8962 12.34 14.9228 12.34C15.3362 12.34 15.6428 12.3067 15.8428 12.24C16.0428 12.1733 16.1762 12.0467 16.2428 11.86C16.3228 11.66 16.3628 11.36 16.3628 10.96V4.84C16.3628 4.44 16.3228 4.14667 16.2428 3.96C16.1762 3.77333 16.0428 3.64667 15.8428 3.58C15.6428 3.5 15.3362 3.46 14.9228 3.46C14.8962 3.46 14.8828 3.42 14.8828 3.34C14.8828 3.26 14.8962 3.22 14.9228 3.22L15.8428 3.24C16.3762 3.26667 16.7895 3.28 17.0828 3.28C17.4295 3.28 17.8095 3.26 18.2228 3.22C18.3695 3.20667 18.5428 3.19333 18.7428 3.18C18.9562 3.16667 19.1895 3.16 19.4428 3.16C21.6828 3.16 22.8028 3.95333 22.8028 5.54C22.8028 6.18 22.6362 6.72667 22.3028 7.18C21.9828 7.62 21.5695 7.95333 21.0628 8.18C20.5562 8.39333 20.0295 8.5 19.4828 8.5C19.1762 8.5 18.9228 8.48 18.7228 8.44C18.6828 8.41333 18.6628 8.37333 18.6628 8.32C18.6628 8.22667 18.6962 8.18 18.7628 8.18C18.8562 8.18 18.9428 8.18667 19.0228 8.2C19.1162 8.21333 19.2095 8.22 19.3028 8.22C19.8362 8.22 20.2762 8.03333 20.6228 7.66C20.9828 7.27334 21.1628 6.70667 21.1628 5.96C21.1628 5.12 20.9695 4.49333 20.5828 4.08C20.1962 3.66667 19.6562 3.46 18.9628 3.46C18.6562 3.46 18.4228 3.49333 18.2628 3.56C18.1162 3.61333 18.0028 3.74 17.9228 3.94C17.8562 4.14 17.8228 4.45333 17.8228 4.88V10.88ZM32.4797 4.88C32.4797 4.48 32.4464 4.18667 32.3797 4C32.313 3.8 32.1797 3.66 31.9797 3.58C31.7797 3.5 31.473 3.46 31.0597 3.46C31.0197 3.46 30.9997 3.42 30.9997 3.34C30.9997 3.26 31.0197 3.22 31.0597 3.22L31.9597 3.24C32.4664 3.26667 32.893 3.28 33.2397 3.28C33.5464 3.28 33.953 3.26667 34.4597 3.24L35.3997 3.22C35.4264 3.22 35.4397 3.26 35.4397 3.34C35.4397 3.42 35.4264 3.46 35.3997 3.46C34.973 3.46 34.6597 3.5 34.4597 3.58C34.2597 3.64667 34.1197 3.77333 34.0397 3.96C33.973 4.14667 33.9397 4.44 33.9397 4.84V10.96C33.9397 11.36 33.973 11.66 34.0397 11.86C34.1197 12.0467 34.2597 12.1733 34.4597 12.24C34.6597 12.3067 34.973 12.34 35.3997 12.34C35.4264 12.34 35.4397 12.38 35.4397 12.46C35.4397 12.54 35.4264 12.58 35.3997 12.58C34.9997 12.58 34.6864 12.5733 34.4597 12.56L33.2397 12.54L31.9597 12.56C31.7464 12.5733 31.4464 12.58 31.0597 12.58C31.0197 12.58 30.9997 12.54 30.9997 12.46C30.9997 12.38 31.0197 12.34 31.0597 12.34C31.4864 12.34 31.793 12.3067 31.9797 12.24C32.1797 12.1733 32.313 12.0467 32.3797 11.86C32.4464 11.66 32.4797 11.36 32.4797 10.96V4.88ZM26.1997 11.2L33.1397 4.26L33.4597 4.58L26.4997 11.52L26.1997 11.2ZM25.6797 4.84C25.6797 4.44 25.6397 4.14667 25.5597 3.96C25.493 3.77333 25.3597 3.64667 25.1597 3.58C24.973 3.5 24.673 3.46 24.2597 3.46C24.2197 3.46 24.1997 3.42 24.1997 3.34C24.1997 3.26 24.2197 3.22 24.2597 3.22L25.1597 3.24C25.6664 3.26667 26.0797 3.28 26.3997 3.28C26.7197 3.28 27.1464 3.26667 27.6797 3.24L28.5597 3.22C28.5997 3.22 28.6197 3.26 28.6197 3.34C28.6197 3.42 28.5997 3.46 28.5597 3.46C28.1464 3.46 27.8397 3.5 27.6397 3.58C27.453 3.66 27.3197 3.8 27.2397 4C27.173 4.18667 27.1397 4.48 27.1397 4.88V10.96C27.1397 11.36 27.173 11.66 27.2397 11.86C27.3064 12.0467 27.433 12.1733 27.6197 12.24C27.8197 12.3067 28.133 12.34 28.5597 12.34C28.5997 12.34 28.6197 12.38 28.6197 12.46C28.6197 12.54 28.5997 12.58 28.5597 12.58C28.173 12.58 27.873 12.5733 27.6597 12.56L26.3997 12.54L25.1597 12.56C24.933 12.5733 24.6197 12.58 24.2197 12.58C24.193 12.58 24.1797 12.54 24.1797 12.46C24.1797 12.38 24.193 12.34 24.2197 12.34C24.6464 12.34 24.9597 12.3067 25.1597 12.24C25.3597 12.1733 25.493 12.0467 25.5597 11.86C25.6397 11.66 25.6797 11.36 25.6797 10.96V4.84ZM36.7197 12.58C36.693 12.58 36.6797 12.54 36.6797 12.46C36.6797 12.38 36.693 12.34 36.7197 12.34C37.1464 12.34 37.453 12.3067 37.6397 12.24C37.8397 12.1733 37.973 12.0467 38.0397 11.86C38.1197 11.66 38.1597 11.36 38.1597 10.96V4.84C38.1597 4.44 38.1197 4.14667 38.0397 3.96C37.973 3.77333 37.8397 3.64667 37.6397 3.58C37.4397 3.5 37.133 3.46 36.7197 3.46C36.693 3.46 36.6797 3.42 36.6797 3.34C36.6797 3.26 36.693 3.22 36.7197 3.22H43.9997C44.1197 3.22 44.1797 3.27333 44.1797 3.38C44.1797 4.14 44.1597 4.98 44.1197 5.9C44.1197 5.94 44.0797 5.96 43.9997 5.96C43.933 5.96 43.893 5.94 43.8797 5.9C43.733 5.16667 43.4597 4.60667 43.0597 4.22C42.673 3.82 42.1797 3.62 41.5797 3.62H40.9997C40.5864 3.62 40.2864 3.65333 40.0997 3.72C39.913 3.77333 39.7864 3.88667 39.7197 4.06C39.653 4.23333 39.6197 4.5 39.6197 4.86V10.88C39.6197 11.3067 39.6664 11.62 39.7597 11.82C39.853 12.0067 40.0264 12.14 40.2797 12.22C40.5464 12.3 40.9597 12.34 41.5197 12.34C41.5597 12.34 41.5797 12.38 41.5797 12.46C41.5797 12.54 41.5597 12.58 41.5197 12.58C41.0397 12.58 40.6664 12.5733 40.3997 12.56L38.8797 12.54L37.7197 12.56C37.493 12.5733 37.1597 12.58 36.7197 12.58ZM49.7261 3.6C49.3394 3.6 49.0661 3.62667 48.9061 3.68C48.7461 3.73333 48.6328 3.84 48.5661 4C48.4994 4.16 48.4461 4.42667 48.4061 4.8C48.2328 6.38667 48.0528 7.7 47.8661 8.74C47.6794 9.76667 47.3661 10.6933 46.9261 11.52C46.4861 12.3467 45.8928 12.76 45.1461 12.76C44.8661 12.76 44.6461 12.7 44.4861 12.58C44.3394 12.4467 44.2661 12.26 44.2661 12.02C44.2661 11.7667 44.3528 11.58 44.5261 11.46C44.6994 11.34 44.9194 11.28 45.1861 11.28C45.9728 11.28 46.5728 10.7533 46.9861 9.7C47.4128 8.64667 47.7194 7.14 47.9061 5.18C47.9328 4.88667 47.9461 4.69333 47.9461 4.6C47.9461 4.14667 47.8394 3.84667 47.6261 3.7C47.4261 3.54 47.0461 3.46 46.4861 3.46C46.4594 3.46 46.4461 3.42 46.4461 3.34C46.4461 3.26 46.4594 3.22 46.4861 3.22H54.3661C54.4061 3.22 54.4261 3.26 54.4261 3.34C54.4261 3.42 54.4061 3.46 54.3661 3.46C53.9528 3.46 53.6461 3.5 53.4461 3.58C53.2461 3.64667 53.1061 3.77333 53.0261 3.96C52.9594 4.14667 52.9261 4.44 52.9261 4.84V10.96C52.9261 11.36 52.9594 11.66 53.0261 11.86C53.1061 12.0467 53.2394 12.1733 53.4261 12.24C53.6261 12.3067 53.9394 12.34 54.3661 12.34C54.4061 12.34 54.4261 12.38 54.4261 12.46C54.4261 12.54 54.4061 12.58 54.3661 12.58C53.9794 12.58 53.6794 12.5733 53.4661 12.56L52.2061 12.54L50.9261 12.56C50.7128 12.5733 50.4194 12.58 50.0461 12.58C50.0061 12.58 49.9861 12.54 49.9861 12.46C49.9861 12.38 50.0061 12.34 50.0461 12.34C50.4728 12.34 50.7794 12.3067 50.9661 12.24C51.1661 12.1733 51.2994 12.0467 51.3661 11.86C51.4328 11.66 51.4661 11.36 51.4661 10.96V4.88C51.4661 4.52 51.4328 4.25333 51.3661 4.08C51.3128 3.90667 51.1928 3.78667 51.0061 3.72C50.8328 3.64 50.5594 3.6 50.1861 3.6H49.7261ZM58.725 7.68H62.385L62.525 8.08H58.425L58.725 7.68ZM66.125 12.34C66.1917 12.34 66.225 12.38 66.225 12.46C66.225 12.54 66.1917 12.58 66.125 12.58C65.8583 12.58 65.4583 12.5667 64.925 12.54C64.3917 12.5133 64.005 12.5 63.765 12.5C63.5517 12.5 63.245 12.5133 62.845 12.54C62.4717 12.5667 62.1917 12.58 62.005 12.58C61.9517 12.58 61.925 12.54 61.925 12.46C61.925 12.38 61.9517 12.34 62.005 12.34C62.3383 12.34 62.5783 12.3 62.725 12.22C62.885 12.1267 62.965 11.9867 62.965 11.8C62.965 11.6 62.8717 11.3 62.685 10.9L59.805 4.68L60.445 3.9L57.905 10.12C57.6783 10.68 57.565 11.1067 57.565 11.4C57.565 11.7333 57.6783 11.9733 57.905 12.12C58.145 12.2667 58.5117 12.34 59.005 12.34C59.0717 12.34 59.105 12.38 59.105 12.46C59.105 12.54 59.0717 12.58 59.005 12.58C58.8183 12.58 58.5517 12.5667 58.205 12.54C57.8317 12.5133 57.485 12.5 57.165 12.5C56.8317 12.5 56.4383 12.5133 55.985 12.54C55.585 12.5667 55.2583 12.58 55.005 12.58C54.9383 12.58 54.905 12.54 54.905 12.46C54.905 12.38 54.9383 12.34 55.005 12.34C55.4183 12.34 55.745 12.2867 55.985 12.18C56.2383 12.06 56.465 11.8333 56.665 11.5C56.8783 11.1667 57.1317 10.6467 57.425 9.94L60.345 2.92C60.3717 2.86667 60.4117 2.84 60.465 2.84C60.5183 2.84 60.5583 2.86667 60.585 2.92L63.785 9.84C64.1317 10.5733 64.4117 11.1133 64.625 11.46C64.8383 11.7933 65.0517 12.0267 65.265 12.16C65.4917 12.28 65.7783 12.34 66.125 12.34ZM66.8173 12.58C66.7907 12.58 66.7773 12.54 66.7773 12.46C66.7773 12.38 66.7907 12.34 66.8173 12.34C67.244 12.34 67.5573 12.3067 67.7573 12.24C67.9573 12.1733 68.0907 12.0467 68.1573 11.86C68.2373 11.66 68.2773 11.36 68.2773 10.96V4.84C68.2773 4.44 68.2373 4.14667 68.1573 3.96C68.0907 3.77333 67.9573 3.64667 67.7573 3.58C67.5573 3.5 67.244 3.46 66.8173 3.46C66.7907 3.46 66.7773 3.42 66.7773 3.34C66.7773 3.26 66.7907 3.22 66.8173 3.22L67.7573 3.24C68.264 3.26667 68.6773 3.28 68.9973 3.28C69.3307 3.28 69.7507 3.26667 70.2573 3.24L71.1573 3.22C71.1973 3.22 71.2173 3.26 71.2173 3.34C71.2173 3.42 71.1973 3.46 71.1573 3.46C70.744 3.46 70.4373 3.5 70.2373 3.58C70.0373 3.64667 69.904 3.77333 69.8373 3.96C69.7707 4.14667 69.7373 4.44 69.7373 4.84V10.92C69.7373 11.2667 69.7707 11.5267 69.8373 11.7C69.904 11.8733 70.0373 11.9933 70.2373 12.06C70.4373 12.1267 70.744 12.16 71.1573 12.16H73.1373C73.5507 12.16 73.8573 12.1267 74.0573 12.06C74.2573 11.9933 74.3907 11.8733 74.4573 11.7C74.5373 11.5267 74.5773 11.2667 74.5773 10.92V4.84C74.5773 4.44 74.5373 4.14667 74.4573 3.96C74.3907 3.77333 74.2573 3.64667 74.0573 3.58C73.8573 3.5 73.5507 3.46 73.1373 3.46C73.1107 3.46 73.0973 3.42 73.0973 3.34C73.0973 3.26 73.1107 3.22 73.1373 3.22L74.0373 3.24C74.544 3.26667 74.964 3.28 75.2973 3.28C75.604 3.28 76.024 3.26667 76.5573 3.24L77.4573 3.22C77.4973 3.22 77.5173 3.26 77.5173 3.34C77.5173 3.42 77.4973 3.46 77.4573 3.46C77.044 3.46 76.7373 3.5 76.5373 3.58C76.3373 3.64667 76.1973 3.77333 76.1173 3.96C76.0507 4.14667 76.0173 4.44 76.0173 4.84V10.92C76.0173 11.2667 76.0507 11.5267 76.1173 11.7C76.184 11.8733 76.3173 11.9933 76.5173 12.06C76.7173 12.1267 77.024 12.16 77.4373 12.16H79.4173C79.8307 12.16 80.1373 12.1267 80.3373 12.06C80.5373 11.9933 80.6707 11.8733 80.7373 11.7C80.8173 11.5267 80.8573 11.2667 80.8573 10.92V4.84C80.8573 4.44 80.824 4.14667 80.7573 3.96C80.6907 3.77333 80.5573 3.64667 80.3573 3.58C80.1573 3.5 79.844 3.46 79.4173 3.46C79.3907 3.46 79.3773 3.42 79.3773 3.34C79.3773 3.26 79.3907 3.22 79.4173 3.22L80.3373 3.24C80.844 3.26667 81.2573 3.28 81.5773 3.28C81.884 3.28 82.304 3.26667 82.8373 3.24L83.7573 3.22C83.7973 3.22 83.8173 3.26 83.8173 3.34C83.8173 3.42 83.7973 3.46 83.7573 3.46C83.344 3.46 83.0373 3.5 82.8373 3.58C82.6373 3.64667 82.4973 3.77333 82.4173 3.96C82.3507 4.14667 82.3173 4.44 82.3173 4.84V10.96C82.3173 11.36 82.3507 11.66 82.4173 11.86C82.4973 12.0467 82.6307 12.1733 82.8173 12.24C83.0173 12.3067 83.3307 12.34 83.7573 12.34C83.7973 12.34 83.8173 12.38 83.8173 12.46C83.8173 12.54 83.7973 12.58 83.7573 12.58H66.8173ZM85.0791 12.58C85.0524 12.58 85.0391 12.54 85.0391 12.46C85.0391 12.38 85.0524 12.34 85.0791 12.34C85.5057 12.34 85.8124 12.3067 85.9991 12.24C86.1991 12.1733 86.3324 12.0467 86.3991 11.86C86.4791 11.66 86.5191 11.36 86.5191 10.96V4.84C86.5191 4.44 86.4791 4.14667 86.3991 3.96C86.3324 3.77333 86.1991 3.64667 85.9991 3.58C85.7991 3.5 85.4924 3.46 85.0791 3.46C85.0524 3.46 85.0391 3.42 85.0391 3.34C85.0391 3.26 85.0524 3.22 85.0791 3.22H92.1191C92.2524 3.22 92.3191 3.27333 92.3191 3.38L92.3391 4.62C92.3524 4.87333 92.3591 5.19333 92.3591 5.58C92.3591 5.62 92.3191 5.64 92.2391 5.64C92.1591 5.64 92.1191 5.62 92.1191 5.58C91.9991 4.96667 91.7191 4.46667 91.2791 4.08C90.8524 3.68 90.3591 3.48 89.7991 3.48H89.3591C88.9591 3.48 88.6591 3.52 88.4591 3.6C88.2724 3.66667 88.1457 3.79333 88.0791 3.98C88.0124 4.16667 87.9791 4.46 87.9791 4.86V10.88C87.9791 11.2667 88.0124 11.56 88.0791 11.76C88.1457 11.9467 88.2724 12.08 88.4591 12.16C88.6591 12.2267 88.9591 12.26 89.3591 12.26H90.0991C90.6724 12.26 91.1991 12.04 91.6791 11.6C92.1591 11.16 92.4924 10.6 92.6791 9.92C92.6924 9.88 92.7324 9.86 92.7991 9.86C92.8791 9.86 92.9191 9.88 92.9191 9.92C92.8257 10.88 92.7791 11.6667 92.7791 12.28C92.7791 12.3867 92.7591 12.4667 92.7191 12.52C92.6791 12.56 92.5991 12.58 92.4791 12.58H85.0791ZM91.2991 8.28C91.2457 8.28 90.9457 8.24 90.3991 8.16C89.8524 8.08 88.8391 8.04 87.3591 8.04V7.58C88.8257 7.58 89.8324 7.54667 90.3791 7.48C90.9257 7.41333 91.2324 7.38 91.2991 7.38C91.3791 7.38 91.4191 7.52667 91.4191 7.82C91.4191 8.12667 91.3791 8.28 91.2991 8.28ZM102.616 4.88C102.616 4.48 102.583 4.18667 102.516 4C102.45 3.8 102.316 3.66 102.116 3.58C101.916 3.5 101.61 3.46 101.196 3.46C101.156 3.46 101.136 3.42 101.136 3.34C101.136 3.26 101.156 3.22 101.196 3.22L102.096 3.24C102.603 3.26667 103.03 3.28 103.376 3.28C103.683 3.28 104.09 3.26667 104.596 3.24L105.536 3.22C105.563 3.22 105.576 3.26 105.576 3.34C105.576 3.42 105.563 3.46 105.536 3.46C105.11 3.46 104.796 3.5 104.596 3.58C104.396 3.64667 104.256 3.77333 104.176 3.96C104.11 4.14667 104.076 4.44 104.076 4.84V10.96C104.076 11.36 104.11 11.66 104.176 11.86C104.256 12.0467 104.396 12.1733 104.596 12.24C104.796 12.3067 105.11 12.34 105.536 12.34C105.563 12.34 105.576 12.38 105.576 12.46C105.576 12.54 105.563 12.58 105.536 12.58C105.136 12.58 104.823 12.5733 104.596 12.56L103.376 12.54L102.096 12.56C101.883 12.5733 101.583 12.58 101.196 12.58C101.156 12.58 101.136 12.54 101.136 12.46C101.136 12.38 101.156 12.34 101.196 12.34C101.623 12.34 101.93 12.3067 102.116 12.24C102.316 12.1733 102.45 12.0467 102.516 11.86C102.583 11.66 102.616 11.36 102.616 10.96V4.88ZM96.4964 7.66H103.276V8.06H96.4964V7.66ZM95.8164 4.84C95.8164 4.44 95.7764 4.14667 95.6964 3.96C95.6297 3.77333 95.4964 3.64667 95.2964 3.58C95.1097 3.5 94.8097 3.46 94.3964 3.46C94.3564 3.46 94.3364 3.42 94.3364 3.34C94.3364 3.26 94.3564 3.22 94.3964 3.22L95.2964 3.24C95.8031 3.26667 96.2164 3.28 96.5364 3.28C96.8564 3.28 97.2831 3.26667 97.8164 3.24L98.6964 3.22C98.7364 3.22 98.7564 3.26 98.7564 3.34C98.7564 3.42 98.7364 3.46 98.6964 3.46C98.2831 3.46 97.9764 3.5 97.7764 3.58C97.5897 3.66 97.4564 3.8 97.3764 4C97.3097 4.18667 97.2764 4.48 97.2764 4.88V10.96C97.2764 11.36 97.3097 11.66 97.3764 11.86C97.4431 12.0467 97.5697 12.1733 97.7564 12.24C97.9564 12.3067 98.2697 12.34 98.6964 12.34C98.7364 12.34 98.7564 12.38 98.7564 12.46C98.7564 12.54 98.7364 12.58 98.6964 12.58C98.3097 12.58 98.0097 12.5733 97.7964 12.56L96.5364 12.54L95.2964 12.56C95.0697 12.5733 94.7564 12.58 94.3564 12.58C94.3297 12.58 94.3164 12.54 94.3164 12.46C94.3164 12.38 94.3297 12.34 94.3564 12.34C94.7831 12.34 95.0964 12.3067 95.2964 12.24C95.4964 12.1733 95.6297 12.0467 95.6964 11.86C95.7764 11.66 95.8164 11.36 95.8164 10.96V4.84ZM115.116 4.88C115.116 4.48 115.083 4.18667 115.016 4C114.95 3.8 114.816 3.66 114.616 3.58C114.416 3.5 114.11 3.46 113.696 3.46C113.656 3.46 113.636 3.42 113.636 3.34C113.636 3.26 113.656 3.22 113.696 3.22L114.596 3.24C115.103 3.26667 115.53 3.28 115.876 3.28C116.183 3.28 116.59 3.26667 117.096 3.24L118.036 3.22C118.063 3.22 118.076 3.26 118.076 3.34C118.076 3.42 118.063 3.46 118.036 3.46C117.61 3.46 117.296 3.5 117.096 3.58C116.896 3.64667 116.756 3.77333 116.676 3.96C116.61 4.14667 116.576 4.44 116.576 4.84V10.96C116.576 11.36 116.61 11.66 116.676 11.86C116.756 12.0467 116.896 12.1733 117.096 12.24C117.296 12.3067 117.61 12.34 118.036 12.34C118.063 12.34 118.076 12.38 118.076 12.46C118.076 12.54 118.063 12.58 118.036 12.58C117.636 12.58 117.323 12.5733 117.096 12.56L115.876 12.54L114.596 12.56C114.383 12.5733 114.083 12.58 113.696 12.58C113.656 12.58 113.636 12.54 113.636 12.46C113.636 12.38 113.656 12.34 113.696 12.34C114.123 12.34 114.43 12.3067 114.616 12.24C114.816 12.1733 114.95 12.0467 115.016 11.86C115.083 11.66 115.116 11.36 115.116 10.96V4.88ZM108.836 11.2L115.776 4.26L116.096 4.58L109.136 11.52L108.836 11.2ZM108.316 4.84C108.316 4.44 108.276 4.14667 108.196 3.96C108.13 3.77333 107.996 3.64667 107.796 3.58C107.61 3.5 107.31 3.46 106.896 3.46C106.856 3.46 106.836 3.42 106.836 3.34C106.836 3.26 106.856 3.22 106.896 3.22L107.796 3.24C108.303 3.26667 108.716 3.28 109.036 3.28C109.356 3.28 109.783 3.26667 110.316 3.24L111.196 3.22C111.236 3.22 111.256 3.26 111.256 3.34C111.256 3.42 111.236 3.46 111.196 3.46C110.783 3.46 110.476 3.5 110.276 3.58C110.09 3.66 109.956 3.8 109.876 4C109.81 4.18667 109.776 4.48 109.776 4.88V10.96C109.776 11.36 109.81 11.66 109.876 11.86C109.943 12.0467 110.07 12.1733 110.256 12.24C110.456 12.3067 110.77 12.34 111.196 12.34C111.236 12.34 111.256 12.38 111.256 12.46C111.256 12.54 111.236 12.58 111.196 12.58C110.81 12.58 110.51 12.5733 110.296 12.56L109.036 12.54L107.796 12.56C107.57 12.5733 107.256 12.58 106.856 12.58C106.83 12.58 106.816 12.54 106.816 12.46C106.816 12.38 106.83 12.34 106.856 12.34C107.283 12.34 107.596 12.3067 107.796 12.24C107.996 12.1733 108.13 12.0467 108.196 11.86C108.276 11.66 108.316 11.36 108.316 10.96V4.84ZM119.356 12.58C119.33 12.58 119.316 12.54 119.316 12.46C119.316 12.38 119.33 12.34 119.356 12.34C119.783 12.34 120.09 12.3067 120.276 12.24C120.476 12.1733 120.61 12.0467 120.676 11.86C120.756 11.66 120.796 11.36 120.796 10.96V4.84C120.796 4.44 120.756 4.14667 120.676 3.96C120.61 3.77333 120.476 3.64667 120.276 3.58C120.076 3.5 119.77 3.46 119.356 3.46C119.33 3.46 119.316 3.42 119.316 3.34C119.316 3.26 119.33 3.22 119.356 3.22H126.396C126.53 3.22 126.596 3.27333 126.596 3.38L126.616 4.62C126.63 4.87333 126.636 5.19333 126.636 5.58C126.636 5.62 126.596 5.64 126.516 5.64C126.436 5.64 126.396 5.62 126.396 5.58C126.276 4.96667 125.996 4.46667 125.556 4.08C125.13 3.68 124.636 3.48 124.076 3.48H123.636C123.236 3.48 122.936 3.52 122.736 3.6C122.55 3.66667 122.423 3.79333 122.356 3.98C122.29 4.16667 122.256 4.46 122.256 4.86V10.88C122.256 11.2667 122.29 11.56 122.356 11.76C122.423 11.9467 122.55 12.08 122.736 12.16C122.936 12.2267 123.236 12.26 123.636 12.26H124.376C124.95 12.26 125.476 12.04 125.956 11.6C126.436 11.16 126.77 10.6 126.956 9.92C126.97 9.88 127.01 9.86 127.076 9.86C127.156 9.86 127.196 9.88 127.196 9.92C127.103 10.88 127.056 11.6667 127.056 12.28C127.056 12.3867 127.036 12.4667 126.996 12.52C126.956 12.56 126.876 12.58 126.756 12.58H119.356ZM125.576 8.28C125.523 8.28 125.223 8.24 124.676 8.16C124.13 8.08 123.116 8.04 121.636 8.04V7.58C123.103 7.58 124.11 7.54667 124.656 7.48C125.203 7.41333 125.51 7.38 125.576 7.38C125.656 7.38 125.696 7.52667 125.696 7.82C125.696 8.12667 125.656 8.28 125.576 8.28ZM141.581 4.88C141.581 4.48 141.548 4.18667 141.481 4C141.415 3.8 141.281 3.66 141.081 3.58C140.881 3.5 140.575 3.46 140.161 3.46C140.121 3.46 140.101 3.42 140.101 3.34C140.101 3.26 140.121 3.22 140.161 3.22L141.061 3.24C141.568 3.26667 141.995 3.28 142.341 3.28C142.648 3.28 143.055 3.26667 143.561 3.24L144.501 3.22C144.528 3.22 144.541 3.26 144.541 3.34C144.541 3.42 144.528 3.46 144.501 3.46C144.075 3.46 143.761 3.5 143.561 3.58C143.361 3.64667 143.221 3.77333 143.141 3.96C143.075 4.14667 143.041 4.44 143.041 4.84V10.96C143.041 11.36 143.075 11.66 143.141 11.86C143.221 12.0467 143.361 12.1733 143.561 12.24C143.761 12.3067 144.075 12.34 144.501 12.34C144.528 12.34 144.541 12.38 144.541 12.46C144.541 12.54 144.528 12.58 144.501 12.58C144.101 12.58 143.788 12.5733 143.561 12.56L142.341 12.54L141.061 12.56C140.848 12.5733 140.548 12.58 140.161 12.58C140.121 12.58 140.101 12.54 140.101 12.46C140.101 12.38 140.121 12.34 140.161 12.34C140.588 12.34 140.895 12.3067 141.081 12.24C141.281 12.1733 141.415 12.0467 141.481 11.86C141.548 11.66 141.581 11.36 141.581 10.96V4.88ZM135.461 7.66H142.241V8.06H135.461V7.66ZM134.781 4.84C134.781 4.44 134.741 4.14667 134.661 3.96C134.595 3.77333 134.461 3.64667 134.261 3.58C134.075 3.5 133.775 3.46 133.361 3.46C133.321 3.46 133.301 3.42 133.301 3.34C133.301 3.26 133.321 3.22 133.361 3.22L134.261 3.24C134.768 3.26667 135.181 3.28 135.501 3.28C135.821 3.28 136.248 3.26667 136.781 3.24L137.661 3.22C137.701 3.22 137.721 3.26 137.721 3.34C137.721 3.42 137.701 3.46 137.661 3.46C137.248 3.46 136.941 3.5 136.741 3.58C136.555 3.66 136.421 3.8 136.341 4C136.275 4.18667 136.241 4.48 136.241 4.88V10.96C136.241 11.36 136.275 11.66 136.341 11.86C136.408 12.0467 136.535 12.1733 136.721 12.24C136.921 12.3067 137.235 12.34 137.661 12.34C137.701 12.34 137.721 12.38 137.721 12.46C137.721 12.54 137.701 12.58 137.661 12.58C137.275 12.58 136.975 12.5733 136.761 12.56L135.501 12.54L134.261 12.56C134.035 12.5733 133.721 12.58 133.321 12.58C133.295 12.58 133.281 12.54 133.281 12.46C133.281 12.38 133.295 12.34 133.321 12.34C133.748 12.34 134.061 12.3067 134.261 12.24C134.461 12.1733 134.595 12.0467 134.661 11.86C134.741 11.66 134.781 11.36 134.781 10.96V4.84ZM148.881 7.68H152.541L152.681 8.08H148.581L148.881 7.68ZM156.281 12.34C156.348 12.34 156.381 12.38 156.381 12.46C156.381 12.54 156.348 12.58 156.281 12.58C156.015 12.58 155.615 12.5667 155.081 12.54C154.548 12.5133 154.161 12.5 153.921 12.5C153.708 12.5 153.401 12.5133 153.001 12.54C152.628 12.5667 152.348 12.58 152.161 12.58C152.108 12.58 152.081 12.54 152.081 12.46C152.081 12.38 152.108 12.34 152.161 12.34C152.495 12.34 152.735 12.3 152.881 12.22C153.041 12.1267 153.121 11.9867 153.121 11.8C153.121 11.6 153.028 11.3 152.841 10.9L149.961 4.68L150.601 3.9L148.061 10.12C147.835 10.68 147.721 11.1067 147.721 11.4C147.721 11.7333 147.835 11.9733 148.061 12.12C148.301 12.2667 148.668 12.34 149.161 12.34C149.228 12.34 149.261 12.38 149.261 12.46C149.261 12.54 149.228 12.58 149.161 12.58C148.975 12.58 148.708 12.5667 148.361 12.54C147.988 12.5133 147.641 12.5 147.321 12.5C146.988 12.5 146.595 12.5133 146.141 12.54C145.741 12.5667 145.415 12.58 145.161 12.58C145.095 12.58 145.061 12.54 145.061 12.46C145.061 12.38 145.095 12.34 145.161 12.34C145.575 12.34 145.901 12.2867 146.141 12.18C146.395 12.06 146.621 11.8333 146.821 11.5C147.035 11.1667 147.288 10.6467 147.581 9.94L150.501 2.92C150.528 2.86667 150.568 2.84 150.621 2.84C150.675 2.84 150.715 2.86667 150.741 2.92L153.941 9.84C154.288 10.5733 154.568 11.1133 154.781 11.46C154.995 11.7933 155.208 12.0267 155.421 12.16C155.648 12.28 155.935 12.34 156.281 12.34ZM161.281 15.62C161.281 14.74 161.248 13.9333 161.181 13.2C161.154 12.9067 161.141 12.7 161.141 12.58C161.141 12.46 161.148 12.3933 161.161 12.38C161.188 12.3533 161.254 12.34 161.361 12.34C162.281 12.34 163.008 11.72 163.541 10.48C164.088 9.22667 164.448 7.46 164.621 5.18C164.634 5.04667 164.641 4.87333 164.641 4.66C164.641 4.16667 164.541 3.84667 164.341 3.7C164.141 3.54 163.761 3.46 163.201 3.46C163.161 3.46 163.141 3.42 163.141 3.34C163.141 3.26 163.161 3.22 163.201 3.22H170.981C171.008 3.22 171.021 3.26 171.021 3.34C171.021 3.42 171.008 3.46 170.981 3.46C170.554 3.46 170.241 3.5 170.041 3.58C169.841 3.66 169.708 3.8 169.641 4C169.574 4.18667 169.541 4.48 169.541 4.88V10.96C169.541 11.0667 169.534 11.3 169.521 11.66C169.521 12.02 169.614 12.2267 169.801 12.28C169.988 12.32 170.348 12.34 170.881 12.34C170.974 12.34 171.028 12.3533 171.041 12.38C171.068 12.3933 171.081 12.46 171.081 12.58C171.081 12.66 171.068 12.86 171.041 13.18C170.974 13.9133 170.941 14.7267 170.941 15.62C170.941 15.6867 170.901 15.72 170.821 15.72C170.741 15.72 170.701 15.6867 170.701 15.62C170.701 14.54 170.494 13.76 170.081 13.28C169.681 12.8133 169.101 12.58 168.341 12.58H163.741C163.034 12.58 162.488 12.8133 162.101 13.28C161.714 13.76 161.521 14.54 161.521 15.62C161.521 15.6867 161.481 15.72 161.401 15.72C161.321 15.72 161.281 15.6867 161.281 15.62ZM162.361 12.12H165.801C166.628 12.12 167.181 12.1067 167.461 12.08C167.741 12.04 167.921 11.9467 168.001 11.8C168.094 11.6533 168.141 11.3733 168.141 10.96V4.84C168.141 4.38667 168.128 4.09333 168.101 3.96C168.074 3.81333 168.001 3.72667 167.881 3.7C167.774 3.66 167.548 3.64 167.201 3.64H166.421C166.034 3.64 165.768 3.66667 165.621 3.72C165.474 3.76 165.374 3.85333 165.321 4C165.268 4.14667 165.221 4.41333 165.181 4.8C164.968 7.18667 164.621 9.03334 164.141 10.34C163.661 11.6467 162.941 12.42 161.981 12.66L162.361 12.12ZM172.364 12.58C172.338 12.58 172.324 12.54 172.324 12.46C172.324 12.38 172.338 12.34 172.364 12.34C172.791 12.34 173.098 12.3067 173.284 12.24C173.484 12.1733 173.618 12.0467 173.684 11.86C173.764 11.66 173.804 11.36 173.804 10.96V4.84C173.804 4.44 173.764 4.14667 173.684 3.96C173.618 3.77333 173.484 3.64667 173.284 3.58C173.084 3.5 172.778 3.46 172.364 3.46C172.338 3.46 172.324 3.42 172.324 3.34C172.324 3.26 172.338 3.22 172.364 3.22H179.404C179.538 3.22 179.604 3.27333 179.604 3.38L179.624 4.62C179.638 4.87333 179.644 5.19333 179.644 5.58C179.644 5.62 179.604 5.64 179.524 5.64C179.444 5.64 179.404 5.62 179.404 5.58C179.284 4.96667 179.004 4.46667 178.564 4.08C178.138 3.68 177.644 3.48 177.084 3.48H176.644C176.244 3.48 175.944 3.52 175.744 3.6C175.558 3.66667 175.431 3.79333 175.364 3.98C175.298 4.16667 175.264 4.46 175.264 4.86V10.88C175.264 11.2667 175.298 11.56 175.364 11.76C175.431 11.9467 175.558 12.08 175.744 12.16C175.944 12.2267 176.244 12.26 176.644 12.26H177.384C177.958 12.26 178.484 12.04 178.964 11.6C179.444 11.16 179.778 10.6 179.964 9.92C179.978 9.88 180.018 9.86 180.084 9.86C180.164 9.86 180.204 9.88 180.204 9.92C180.111 10.88 180.064 11.6667 180.064 12.28C180.064 12.3867 180.044 12.4667 180.004 12.52C179.964 12.56 179.884 12.58 179.764 12.58H172.364ZM178.584 8.28C178.531 8.28 178.231 8.24 177.684 8.16C177.138 8.08 176.124 8.04 174.644 8.04V7.58C176.111 7.58 177.118 7.54667 177.664 7.48C178.211 7.41333 178.518 7.38 178.584 7.38C178.664 7.38 178.704 7.52667 178.704 7.82C178.704 8.12667 178.664 8.28 178.584 8.28ZM189.902 4.88C189.902 4.48 189.868 4.18667 189.802 4C189.735 3.8 189.602 3.66 189.402 3.58C189.202 3.5 188.895 3.46 188.482 3.46C188.442 3.46 188.422 3.42 188.422 3.34C188.422 3.26 188.442 3.22 188.482 3.22L189.382 3.24C189.888 3.26667 190.315 3.28 190.662 3.28C190.968 3.28 191.375 3.26667 191.882 3.24L192.822 3.22C192.848 3.22 192.862 3.26 192.862 3.34C192.862 3.42 192.848 3.46 192.822 3.46C192.395 3.46 192.082 3.5 191.882 3.58C191.682 3.64667 191.542 3.77333 191.462 3.96C191.395 4.14667 191.362 4.44 191.362 4.84V10.96C191.362 11.36 191.395 11.66 191.462 11.86C191.542 12.0467 191.682 12.1733 191.882 12.24C192.082 12.3067 192.395 12.34 192.822 12.34C192.848 12.34 192.862 12.38 192.862 12.46C192.862 12.54 192.848 12.58 192.822 12.58C192.422 12.58 192.108 12.5733 191.882 12.56L190.662 12.54L189.382 12.56C189.168 12.5733 188.868 12.58 188.482 12.58C188.442 12.58 188.422 12.54 188.422 12.46C188.422 12.38 188.442 12.34 188.482 12.34C188.908 12.34 189.215 12.3067 189.402 12.24C189.602 12.1733 189.735 12.0467 189.802 11.86C189.868 11.66 189.902 11.36 189.902 10.96V4.88ZM183.782 7.66H190.562V8.06H183.782V7.66ZM183.102 4.84C183.102 4.44 183.062 4.14667 182.982 3.96C182.915 3.77333 182.782 3.64667 182.582 3.58C182.395 3.5 182.095 3.46 181.682 3.46C181.642 3.46 181.622 3.42 181.622 3.34C181.622 3.26 181.642 3.22 181.682 3.22L182.582 3.24C183.088 3.26667 183.502 3.28 183.822 3.28C184.142 3.28 184.568 3.26667 185.102 3.24L185.982 3.22C186.022 3.22 186.042 3.26 186.042 3.34C186.042 3.42 186.022 3.46 185.982 3.46C185.568 3.46 185.262 3.5 185.062 3.58C184.875 3.66 184.742 3.8 184.662 4C184.595 4.18667 184.562 4.48 184.562 4.88V10.96C184.562 11.36 184.595 11.66 184.662 11.86C184.728 12.0467 184.855 12.1733 185.042 12.24C185.242 12.3067 185.555 12.34 185.982 12.34C186.022 12.34 186.042 12.38 186.042 12.46C186.042 12.54 186.022 12.58 185.982 12.58C185.595 12.58 185.295 12.5733 185.082 12.56L183.822 12.54L182.582 12.56C182.355 12.5733 182.042 12.58 181.642 12.58C181.615 12.58 181.602 12.54 181.602 12.46C181.602 12.38 181.615 12.34 181.642 12.34C182.068 12.34 182.382 12.3067 182.582 12.24C182.782 12.1733 182.915 12.0467 182.982 11.86C183.062 11.66 183.102 11.36 183.102 10.96V4.84ZM197.062 10.96C197.062 11.4667 197.168 11.8267 197.382 12.04C197.608 12.24 198.042 12.34 198.682 12.34C200.402 12.34 201.262 11.6133 201.262 10.16C201.262 9.36 201.008 8.75333 200.502 8.34C200.008 7.92667 199.282 7.72 198.322 7.72C197.748 7.72 197.108 7.79333 196.402 7.94L196.322 7.62C197.562 7.42 198.535 7.32 199.242 7.32C201.642 7.32 202.842 8.12667 202.842 9.74C202.842 10.3133 202.682 10.82 202.362 11.26C202.042 11.7 201.595 12.0467 201.022 12.3C200.448 12.54 199.795 12.66 199.062 12.66C198.688 12.66 198.262 12.64 197.782 12.6C197.595 12.5867 197.375 12.5733 197.122 12.56C196.868 12.5467 196.595 12.54 196.302 12.54L195.082 12.56C194.855 12.5733 194.542 12.58 194.142 12.58C194.115 12.58 194.102 12.54 194.102 12.46C194.102 12.38 194.115 12.34 194.142 12.34C194.582 12.34 194.902 12.3067 195.102 12.24C195.302 12.1733 195.435 12.0467 195.502 11.86C195.568 11.66 195.602 11.36 195.602 10.96V4.84C195.602 4.44 195.562 4.14667 195.482 3.96C195.415 3.77333 195.282 3.64667 195.082 3.58C194.895 3.5 194.595 3.46 194.182 3.46C194.142 3.46 194.122 3.42 194.122 3.34C194.122 3.26 194.142 3.22 194.182 3.22L195.082 3.24C195.588 3.26667 196.002 3.28 196.322 3.28C196.642 3.28 197.068 3.26667 197.602 3.24L198.482 3.22C198.522 3.22 198.542 3.26 198.542 3.34C198.542 3.42 198.522 3.46 198.482 3.46C198.068 3.46 197.762 3.5 197.562 3.58C197.375 3.66 197.242 3.8 197.162 4C197.095 4.18667 197.062 4.48 197.062 4.88V10.96ZM211.749 10.88C211.749 11.2933 211.795 11.6 211.889 11.8C211.982 12 212.155 12.14 212.409 12.22C212.675 12.3 213.089 12.34 213.649 12.34C213.689 12.34 213.709 12.38 213.709 12.46C213.709 12.54 213.689 12.58 213.649 12.58C213.169 12.58 212.789 12.5733 212.509 12.56L211.029 12.54L209.789 12.56C209.562 12.5733 209.249 12.58 208.849 12.58C208.822 12.58 208.809 12.54 208.809 12.46C208.809 12.38 208.822 12.34 208.849 12.34C209.262 12.34 209.569 12.3067 209.769 12.24C209.969 12.1733 210.102 12.0467 210.169 11.86C210.249 11.66 210.289 11.36 210.289 10.96V4.84C210.289 4.44 210.249 4.14667 210.169 3.96C210.102 3.77333 209.969 3.64667 209.769 3.58C209.569 3.5 209.262 3.46 208.849 3.46C208.822 3.46 208.809 3.42 208.809 3.34C208.809 3.26 208.822 3.22 208.849 3.22L209.769 3.24C210.302 3.26667 210.715 3.28 211.009 3.28C211.355 3.28 211.735 3.26 212.149 3.22C212.295 3.20667 212.469 3.19333 212.669 3.18C212.882 3.16667 213.115 3.16 213.369 3.16C215.609 3.16 216.729 3.95333 216.729 5.54C216.729 6.18 216.562 6.72667 216.229 7.18C215.909 7.62 215.495 7.95333 214.989 8.18C214.482 8.39333 213.955 8.5 213.409 8.5C213.102 8.5 212.849 8.48 212.649 8.44C212.609 8.41333 212.589 8.37333 212.589 8.32C212.589 8.22667 212.622 8.18 212.689 8.18C212.782 8.18 212.869 8.18667 212.949 8.2C213.042 8.21333 213.135 8.22 213.229 8.22C213.762 8.22 214.202 8.03333 214.549 7.66C214.909 7.27334 215.089 6.70667 215.089 5.96C215.089 5.12 214.895 4.49333 214.509 4.08C214.122 3.66667 213.582 3.46 212.889 3.46C212.582 3.46 212.349 3.49333 212.189 3.56C212.042 3.61333 211.929 3.74 211.849 3.94C211.782 4.14 211.749 4.45333 211.749 4.88V10.88ZM222.985 12.82C222.052 12.82 221.219 12.6 220.485 12.16C219.752 11.72 219.179 11.1267 218.765 10.38C218.365 9.63334 218.165 8.82 218.165 7.94C218.165 6.91333 218.432 6.02667 218.965 5.28C219.499 4.52 220.179 3.94667 221.005 3.56C221.845 3.17333 222.699 2.98 223.565 2.98C224.499 2.98 225.325 3.21333 226.045 3.68C226.765 4.13333 227.319 4.72667 227.705 5.46C228.092 6.19333 228.285 6.96 228.285 7.76C228.285 8.65333 228.045 9.49334 227.565 10.28C227.085 11.0533 226.439 11.6733 225.625 12.14C224.825 12.5933 223.945 12.82 222.985 12.82ZM223.485 12.4C224.432 12.4 225.192 12.0333 225.765 11.3C226.339 10.5533 226.625 9.53334 226.625 8.24C226.625 7.36 226.472 6.55333 226.165 5.82C225.872 5.08667 225.445 4.50667 224.885 4.08C224.325 3.64 223.659 3.42 222.885 3.42C221.912 3.42 221.159 3.76667 220.625 4.46C220.092 5.15334 219.825 6.13334 219.825 7.4C219.825 8.33334 219.972 9.18 220.265 9.94C220.572 10.7 220.999 11.3 221.545 11.74C222.105 12.18 222.752 12.4 223.485 12.4ZM242.301 12.58C242.074 12.58 241.901 12.5467 241.781 12.48C241.674 12.4 241.528 12.2267 241.341 11.96C241.168 11.68 240.814 11.08 240.281 10.16C239.854 9.41334 239.534 8.9 239.321 8.62C239.121 8.32667 238.901 8.12667 238.661 8.02C238.434 7.9 238.108 7.84 237.681 7.84C237.548 7.84 237.254 7.85333 236.801 7.88L236.781 7.52C237.128 7.49333 237.368 7.48 237.501 7.48C238.274 7.42667 238.741 7.4 238.901 7.4C239.341 7.4 239.688 7.46 239.941 7.58C240.208 7.7 240.448 7.91333 240.661 8.22C240.888 8.51333 241.221 9.02667 241.661 9.76C242.274 10.76 242.768 11.44 243.141 11.8C243.528 12.1467 243.954 12.3267 244.421 12.34C244.461 12.34 244.481 12.38 244.481 12.46C244.481 12.54 244.461 12.58 244.421 12.58H242.301ZM234.341 12.58C234.301 12.58 234.281 12.54 234.281 12.46C234.281 12.38 234.301 12.34 234.341 12.34C234.768 12.34 235.074 12.3067 235.261 12.24C235.461 12.1733 235.594 12.0467 235.661 11.86C235.741 11.66 235.781 11.36 235.781 10.96V4.84C235.781 4.44 235.741 4.14667 235.661 3.96C235.594 3.77333 235.461 3.64667 235.261 3.58C235.074 3.5 234.774 3.46 234.361 3.46C234.321 3.46 234.301 3.42 234.301 3.34C234.301 3.26 234.321 3.22 234.361 3.22L235.261 3.24C235.768 3.26667 236.174 3.28 236.481 3.28C236.814 3.28 237.248 3.26667 237.781 3.24L238.641 3.22C238.681 3.22 238.701 3.26 238.701 3.34C238.701 3.42 238.681 3.46 238.641 3.46C238.241 3.46 237.941 3.5 237.741 3.58C237.541 3.66 237.401 3.8 237.321 4C237.254 4.18667 237.221 4.48 237.221 4.88V10.96C237.221 11.36 237.254 11.66 237.321 11.86C237.401 12.0467 237.534 12.1733 237.721 12.24C237.921 12.3067 238.228 12.34 238.641 12.34C238.681 12.34 238.701 12.38 238.701 12.46C238.701 12.54 238.681 12.58 238.641 12.58C238.268 12.58 237.974 12.5733 237.761 12.56L236.481 12.54L235.261 12.56C235.034 12.5733 234.728 12.58 234.341 12.58ZM238.881 7.66L240.321 5.56C240.801 4.85333 241.041 4.32667 241.041 3.98C241.041 3.63333 240.754 3.46 240.181 3.46C240.141 3.46 240.121 3.42 240.121 3.34C240.121 3.26 240.141 3.22 240.181 3.22L240.981 3.24C241.488 3.26667 241.961 3.28 242.401 3.28C242.708 3.28 243.074 3.26667 243.501 3.24L244.121 3.22C244.148 3.22 244.161 3.26 244.161 3.34C244.161 3.42 244.148 3.46 244.121 3.46C242.988 3.46 241.894 4.17333 240.841 5.6L239.241 7.8L238.881 7.66ZM228.581 12.58C228.554 12.58 228.541 12.54 228.541 12.46C228.541 12.38 228.554 12.34 228.581 12.34C229.061 12.3267 229.488 12.1467 229.861 11.8C230.248 11.44 230.741 10.76 231.341 9.76C231.781 9.02667 232.108 8.51333 232.321 8.22C232.548 7.91333 232.788 7.7 233.041 7.58C233.308 7.46 233.661 7.4 234.101 7.4C234.261 7.4 234.728 7.42667 235.501 7.48C235.634 7.48 235.874 7.49333 236.221 7.52L236.201 7.88C235.748 7.85333 235.454 7.84 235.321 7.84C234.894 7.84 234.561 7.9 234.321 8.02C234.094 8.12667 233.874 8.32667 233.661 8.62C233.461 8.9 233.148 9.41334 232.721 10.16C232.681 10.24 232.594 10.38 232.461 10.58C232.034 11.3133 231.741 11.8 231.581 12.04C231.434 12.2667 231.301 12.4133 231.181 12.48C231.074 12.5467 230.914 12.58 230.701 12.58H228.581ZM232.161 5.6C231.108 4.17333 230.014 3.46 228.881 3.46C228.841 3.46 228.821 3.42 228.821 3.34C228.821 3.26 228.841 3.22 228.881 3.22L229.501 3.24C229.928 3.26667 230.301 3.28 230.621 3.28C231.074 3.28 231.541 3.26667 232.021 3.24L232.841 3.22C232.868 3.22 232.881 3.26 232.881 3.34C232.881 3.42 232.868 3.46 232.841 3.46C232.241 3.46 231.941 3.64 231.941 4C231.941 4.33333 232.188 4.85333 232.681 5.56L234.121 7.66L233.761 7.8L232.161 5.6ZM244.777 15.62C244.777 14.74 244.744 13.9333 244.677 13.2C244.651 12.9067 244.637 12.7 244.637 12.58C244.637 12.46 244.644 12.3933 244.657 12.38C244.684 12.3533 244.751 12.34 244.857 12.34C245.777 12.34 246.504 11.72 247.037 10.48C247.584 9.22667 247.944 7.46 248.117 5.18C248.131 5.04667 248.137 4.87333 248.137 4.66C248.137 4.16667 248.037 3.84667 247.837 3.7C247.637 3.54 247.257 3.46 246.697 3.46C246.657 3.46 246.637 3.42 246.637 3.34C246.637 3.26 246.657 3.22 246.697 3.22H254.477C254.504 3.22 254.517 3.26 254.517 3.34C254.517 3.42 254.504 3.46 254.477 3.46C254.051 3.46 253.737 3.5 253.537 3.58C253.337 3.66 253.204 3.8 253.137 4C253.071 4.18667 253.037 4.48 253.037 4.88V10.96C253.037 11.0667 253.031 11.3 253.017 11.66C253.017 12.02 253.111 12.2267 253.297 12.28C253.484 12.32 253.844 12.34 254.377 12.34C254.471 12.34 254.524 12.3533 254.537 12.38C254.564 12.3933 254.577 12.46 254.577 12.58C254.577 12.66 254.564 12.86 254.537 13.18C254.471 13.9133 254.437 14.7267 254.437 15.62C254.437 15.6867 254.397 15.72 254.317 15.72C254.237 15.72 254.197 15.6867 254.197 15.62C254.197 14.54 253.991 13.76 253.577 13.28C253.177 12.8133 252.597 12.58 251.837 12.58H247.237C246.531 12.58 245.984 12.8133 245.597 13.28C245.211 13.76 245.017 14.54 245.017 15.62C245.017 15.6867 244.977 15.72 244.897 15.72C244.817 15.72 244.777 15.6867 244.777 15.62ZM245.857 12.12H249.297C250.124 12.12 250.677 12.1067 250.957 12.08C251.237 12.04 251.417 11.9467 251.497 11.8C251.591 11.6533 251.637 11.3733 251.637 10.96V4.84C251.637 4.38667 251.624 4.09333 251.597 3.96C251.571 3.81333 251.497 3.72667 251.377 3.7C251.271 3.66 251.044 3.64 250.697 3.64H249.917C249.531 3.64 249.264 3.66667 249.117 3.72C248.971 3.76 248.871 3.85333 248.817 4C248.764 4.14667 248.717 4.41333 248.677 4.8C248.464 7.18667 248.117 9.03334 247.637 10.34C247.157 11.6467 246.437 12.42 245.477 12.66L245.857 12.12ZM255.86 12.58C255.834 12.58 255.82 12.54 255.82 12.46C255.82 12.38 255.834 12.34 255.86 12.34C256.287 12.34 256.594 12.3067 256.78 12.24C256.98 12.1733 257.114 12.0467 257.18 11.86C257.26 11.66 257.3 11.36 257.3 10.96V4.84C257.3 4.44 257.26 4.14667 257.18 3.96C257.114 3.77333 256.98 3.64667 256.78 3.58C256.58 3.5 256.274 3.46 255.86 3.46C255.834 3.46 255.82 3.42 255.82 3.34C255.82 3.26 255.834 3.22 255.86 3.22H262.9C263.034 3.22 263.1 3.27333 263.1 3.38L263.12 4.62C263.134 4.87333 263.14 5.19333 263.14 5.58C263.14 5.62 263.1 5.64 263.02 5.64C262.94 5.64 262.9 5.62 262.9 5.58C262.78 4.96667 262.5 4.46667 262.06 4.08C261.634 3.68 261.14 3.48 260.58 3.48H260.14C259.74 3.48 259.44 3.52 259.24 3.6C259.054 3.66667 258.927 3.79333 258.86 3.98C258.794 4.16667 258.76 4.46 258.76 4.86V10.88C258.76 11.2667 258.794 11.56 258.86 11.76C258.927 11.9467 259.054 12.08 259.24 12.16C259.44 12.2267 259.74 12.26 260.14 12.26H260.88C261.454 12.26 261.98 12.04 262.46 11.6C262.94 11.16 263.274 10.6 263.46 9.92C263.474 9.88 263.514 9.86 263.58 9.86C263.66 9.86 263.7 9.88 263.7 9.92C263.607 10.88 263.56 11.6667 263.56 12.28C263.56 12.3867 263.54 12.4667 263.5 12.52C263.46 12.56 263.38 12.58 263.26 12.58H255.86ZM262.08 8.28C262.027 8.28 261.727 8.24 261.18 8.16C260.634 8.08 259.62 8.04 258.14 8.04V7.58C259.607 7.58 260.614 7.54667 261.16 7.48C261.707 7.41333 262.014 7.38 262.08 7.38C262.16 7.38 262.2 7.52667 262.2 7.82C262.2 8.12667 262.16 8.28 262.08 8.28ZM273.398 4.88C273.398 4.48 273.364 4.18667 273.298 4C273.231 3.8 273.098 3.66 272.898 3.58C272.698 3.5 272.391 3.46 271.978 3.46C271.938 3.46 271.918 3.42 271.918 3.34C271.918 3.26 271.938 3.22 271.978 3.22L272.878 3.24C273.384 3.26667 273.811 3.28 274.158 3.28C274.464 3.28 274.871 3.26667 275.378 3.24L276.318 3.22C276.344 3.22 276.358 3.26 276.358 3.34C276.358 3.42 276.344 3.46 276.318 3.46C275.891 3.46 275.578 3.5 275.378 3.58C275.178 3.64667 275.038 3.77333 274.958 3.96C274.891 4.14667 274.858 4.44 274.858 4.84V10.96C274.858 11.36 274.891 11.66 274.958 11.86C275.038 12.0467 275.178 12.1733 275.378 12.24C275.578 12.3067 275.891 12.34 276.318 12.34C276.344 12.34 276.358 12.38 276.358 12.46C276.358 12.54 276.344 12.58 276.318 12.58C275.918 12.58 275.604 12.5733 275.378 12.56L274.158 12.54L272.878 12.56C272.664 12.5733 272.364 12.58 271.978 12.58C271.938 12.58 271.918 12.54 271.918 12.46C271.918 12.38 271.938 12.34 271.978 12.34C272.404 12.34 272.711 12.3067 272.898 12.24C273.098 12.1733 273.231 12.0467 273.298 11.86C273.364 11.66 273.398 11.36 273.398 10.96V4.88ZM267.278 7.66H274.058V8.06H267.278V7.66ZM266.598 4.84C266.598 4.44 266.558 4.14667 266.478 3.96C266.411 3.77333 266.278 3.64667 266.078 3.58C265.891 3.5 265.591 3.46 265.178 3.46C265.138 3.46 265.118 3.42 265.118 3.34C265.118 3.26 265.138 3.22 265.178 3.22L266.078 3.24C266.584 3.26667 266.998 3.28 267.318 3.28C267.638 3.28 268.064 3.26667 268.598 3.24L269.478 3.22C269.518 3.22 269.538 3.26 269.538 3.34C269.538 3.42 269.518 3.46 269.478 3.46C269.064 3.46 268.758 3.5 268.558 3.58C268.371 3.66 268.238 3.8 268.158 4C268.091 4.18667 268.058 4.48 268.058 4.88V10.96C268.058 11.36 268.091 11.66 268.158 11.86C268.224 12.0467 268.351 12.1733 268.538 12.24C268.738 12.3067 269.051 12.34 269.478 12.34C269.518 12.34 269.538 12.38 269.538 12.46C269.538 12.54 269.518 12.58 269.478 12.58C269.091 12.58 268.791 12.5733 268.578 12.56L267.318 12.54L266.078 12.56C265.851 12.5733 265.538 12.58 265.138 12.58C265.111 12.58 265.098 12.54 265.098 12.46C265.098 12.38 265.111 12.34 265.138 12.34C265.564 12.34 265.878 12.3067 266.078 12.24C266.278 12.1733 266.411 12.0467 266.478 11.86C266.558 11.66 266.598 11.36 266.598 10.96V4.84ZM285.898 4.88C285.898 4.48 285.864 4.18667 285.798 4C285.731 3.8 285.598 3.66 285.398 3.58C285.198 3.5 284.891 3.46 284.478 3.46C284.438 3.46 284.418 3.42 284.418 3.34C284.418 3.26 284.438 3.22 284.478 3.22L285.378 3.24C285.884 3.26667 286.311 3.28 286.658 3.28C286.964 3.28 287.371 3.26667 287.878 3.24L288.818 3.22C288.844 3.22 288.858 3.26 288.858 3.34C288.858 3.42 288.844 3.46 288.818 3.46C288.391 3.46 288.078 3.5 287.878 3.58C287.678 3.64667 287.538 3.77333 287.458 3.96C287.391 4.14667 287.358 4.44 287.358 4.84V10.96C287.358 11.36 287.391 11.66 287.458 11.86C287.538 12.0467 287.678 12.1733 287.878 12.24C288.078 12.3067 288.391 12.34 288.818 12.34C288.844 12.34 288.858 12.38 288.858 12.46C288.858 12.54 288.844 12.58 288.818 12.58C288.418 12.58 288.104 12.5733 287.878 12.56L286.658 12.54L285.378 12.56C285.164 12.5733 284.864 12.58 284.478 12.58C284.438 12.58 284.418 12.54 284.418 12.46C284.418 12.38 284.438 12.34 284.478 12.34C284.904 12.34 285.211 12.3067 285.398 12.24C285.598 12.1733 285.731 12.0467 285.798 11.86C285.864 11.66 285.898 11.36 285.898 10.96V4.88ZM279.618 11.2L286.558 4.26L286.878 4.58L279.918 11.52L279.618 11.2ZM279.098 4.84C279.098 4.44 279.058 4.14667 278.978 3.96C278.911 3.77333 278.778 3.64667 278.578 3.58C278.391 3.5 278.091 3.46 277.678 3.46C277.638 3.46 277.618 3.42 277.618 3.34C277.618 3.26 277.638 3.22 277.678 3.22L278.578 3.24C279.084 3.26667 279.498 3.28 279.818 3.28C280.138 3.28 280.564 3.26667 281.098 3.24L281.978 3.22C282.018 3.22 282.038 3.26 282.038 3.34C282.038 3.42 282.018 3.46 281.978 3.46C281.564 3.46 281.258 3.5 281.058 3.58C280.871 3.66 280.738 3.8 280.658 4C280.591 4.18667 280.558 4.48 280.558 4.88V10.96C280.558 11.36 280.591 11.66 280.658 11.86C280.724 12.0467 280.851 12.1733 281.038 12.24C281.238 12.3067 281.551 12.34 281.978 12.34C282.018 12.34 282.038 12.38 282.038 12.46C282.038 12.54 282.018 12.58 281.978 12.58C281.591 12.58 281.291 12.5733 281.078 12.56L279.818 12.54L278.578 12.56C278.351 12.5733 278.038 12.58 277.638 12.58C277.611 12.58 277.598 12.54 277.598 12.46C277.598 12.38 277.611 12.34 277.638 12.34C278.064 12.34 278.378 12.3067 278.578 12.24C278.778 12.1733 278.911 12.0467 278.978 11.86C279.058 11.66 279.098 11.36 279.098 10.96V4.84ZM290.138 12.58C290.111 12.58 290.098 12.54 290.098 12.46C290.098 12.38 290.111 12.34 290.138 12.34C290.564 12.34 290.871 12.3067 291.058 12.24C291.258 12.1733 291.391 12.0467 291.458 11.86C291.538 11.66 291.578 11.36 291.578 10.96V4.84C291.578 4.44 291.538 4.14667 291.458 3.96C291.391 3.77333 291.258 3.64667 291.058 3.58C290.858 3.5 290.551 3.46 290.138 3.46C290.111 3.46 290.098 3.42 290.098 3.34C290.098 3.26 290.111 3.22 290.138 3.22H297.178C297.311 3.22 297.378 3.27333 297.378 3.38L297.398 4.62C297.411 4.87333 297.418 5.19333 297.418 5.58C297.418 5.62 297.378 5.64 297.298 5.64C297.218 5.64 297.178 5.62 297.178 5.58C297.058 4.96667 296.778 4.46667 296.338 4.08C295.911 3.68 295.418 3.48 294.858 3.48H294.418C294.018 3.48 293.718 3.52 293.518 3.6C293.331 3.66667 293.204 3.79333 293.138 3.98C293.071 4.16667 293.038 4.46 293.038 4.86V10.88C293.038 11.2667 293.071 11.56 293.138 11.76C293.204 11.9467 293.331 12.08 293.518 12.16C293.718 12.2267 294.018 12.26 294.418 12.26H295.158C295.731 12.26 296.258 12.04 296.738 11.6C297.218 11.16 297.551 10.6 297.738 9.92C297.751 9.88 297.791 9.86 297.858 9.86C297.938 9.86 297.978 9.88 297.978 9.92C297.884 10.88 297.838 11.6667 297.838 12.28C297.838 12.3867 297.818 12.4667 297.778 12.52C297.738 12.56 297.658 12.58 297.538 12.58H290.138ZM296.358 8.28C296.304 8.28 296.004 8.24 295.458 8.16C294.911 8.08 293.898 8.04 292.418 8.04V7.58C293.884 7.58 294.891 7.54667 295.438 7.48C295.984 7.41333 296.291 7.38 296.358 7.38C296.438 7.38 296.478 7.52667 296.478 7.82C296.478 8.12667 296.438 8.28 296.358 8.28ZM300.215 0.220001C300.202 0.153335 300.308 0.100001 300.535 0.0600009C300.762 0.0200014 301.008 1.66893e-06 301.275 1.66893e-06C301.542 1.66893e-06 301.788 0.0200014 302.015 0.0600009C302.255 0.100001 302.362 0.153335 302.335 0.220001C302.095 1.35333 301.915 2.56667 301.795 3.86C301.675 5.15333 301.555 6.8 301.435 8.8C301.435 8.81333 301.415 8.83334 301.375 8.86C301.335 8.87334 301.288 8.88 301.235 8.88C301.182 8.88 301.135 8.87334 301.095 8.86C301.055 8.83334 301.035 8.81333 301.035 8.8L300.995 8.2C300.915 6.49334 300.822 5 300.715 3.72C300.608 2.44 300.442 1.27333 300.215 0.220001ZM301.175 12.8C300.882 12.8 300.642 12.7133 300.455 12.54C300.282 12.3533 300.195 12.1133 300.195 11.82C300.195 11.54 300.282 11.32 300.455 11.16C300.642 10.9867 300.882 10.9 301.175 10.9C301.482 10.9 301.715 10.9867 301.875 11.16C302.048 11.32 302.135 11.54 302.135 11.82C302.135 12.1267 302.048 12.3667 301.875 12.54C301.715 12.7133 301.482 12.8 301.175 12.8Z" fill="#706760"/>
</svg>
