<svg width="108" height="15" viewBox="0 0 108 15" fill="none" xmlns="http://www.w3.org/2000/svg">
<path d="M2.01599 9.04401C2.01599 9.34268 2.05799 9.56201 2.14199 9.70201C2.22599 9.83268 2.38465 9.92601 2.61799 9.98201C2.86065 10.038 3.24332 10.066 3.76599 10.066C3.79399 10.066 3.80799 10.094 3.80799 10.15C3.80799 10.206 3.79399 10.234 3.76599 10.234C3.38332 10.234 3.08465 10.2293 2.86999 10.22L1.65199 10.206L0.727987 10.22C0.559987 10.2293 0.326654 10.234 0.0279874 10.234C0.00932068 10.234 -1.26511e-05 10.206 -1.26511e-05 10.15C-1.26511e-05 10.094 0.00932068 10.066 0.0279874 10.066C0.391987 10.066 0.657987 10.0427 0.825987 9.99601C1.00332 9.94934 1.11999 9.86068 1.17599 9.73001C1.24132 9.59001 1.27399 9.38001 1.27399 9.10001V2.61801C1.27399 2.33801 1.24132 2.13268 1.17599 2.00201C1.11999 1.87134 1.00332 1.78267 0.825987 1.73601C0.657987 1.68001 0.391987 1.65201 0.0279874 1.65201C0.00932068 1.65201 -1.26511e-05 1.62401 -1.26511e-05 1.56801C-1.26511e-05 1.51201 0.00932068 1.48401 0.0279874 1.48401L0.713987 1.49801C1.10599 1.51668 1.41399 1.52601 1.63799 1.52601C1.86199 1.52601 2.11865 1.51201 2.40799 1.48401C3.13599 1.45601 3.53265 1.44201 3.59799 1.44201C4.41932 1.44201 5.08665 1.63334 5.59999 2.01601C6.11332 2.38934 6.36999 2.96334 6.36999 3.73801C6.36999 4.36334 6.21599 4.89068 5.90799 5.32001C5.59999 5.74001 5.20799 6.05268 4.73199 6.25801C4.26532 6.46334 3.77999 6.56601 3.27599 6.56601C2.99599 6.56601 2.76732 6.54268 2.58999 6.49601C2.56199 6.49601 2.54799 6.47268 2.54799 6.42601C2.54799 6.39801 2.55265 6.37001 2.56199 6.34201C2.58065 6.31401 2.59932 6.30468 2.61799 6.31401C2.76732 6.35134 2.93532 6.37001 3.12199 6.37001C3.78465 6.37001 4.34465 6.16934 4.80199 5.76801C5.26865 5.36668 5.50199 4.78334 5.50199 4.01801C5.50199 3.52334 5.40399 3.09868 5.20799 2.74401C5.01199 2.38001 4.74132 2.10468 4.39599 1.91801C4.05999 1.72201 3.68665 1.62401 3.27599 1.62401C2.89332 1.62401 2.62265 1.64268 2.46399 1.68001C2.30532 1.71734 2.18865 1.80601 2.11399 1.94601C2.04865 2.07668 2.01599 2.31001 2.01599 2.64601V9.04401ZM9.65441 10.402C9.12241 10.402 8.66974 10.276 8.29641 10.024C7.92308 9.77201 7.63841 9.44534 7.44241 9.04401C7.25574 8.63334 7.16241 8.19001 7.16241 7.71401C7.16241 7.16334 7.29308 6.65934 7.55441 6.20201C7.81574 5.73534 8.16574 5.37134 8.60441 5.11001C9.05241 4.83934 9.53774 4.70401 10.0604 4.70401C10.5831 4.70401 10.9751 4.84868 11.2364 5.13801C11.5071 5.41801 11.6424 5.80534 11.6424 6.30001C11.6424 6.43068 11.6284 6.52401 11.6004 6.58001C11.5817 6.62668 11.5397 6.65001 11.4744 6.65001H10.8164C10.8257 6.58468 10.8304 6.49601 10.8304 6.38401C10.8304 5.91734 10.7184 5.56734 10.4944 5.33401C10.2797 5.10068 9.98574 4.98401 9.61241 4.98401C9.08974 4.98401 8.68374 5.18001 8.39441 5.57201C8.10508 5.96401 7.96041 6.51001 7.96041 7.21001C7.96041 8.02201 8.15174 8.68468 8.53441 9.19801C8.91708 9.70201 9.45374 9.95401 10.1444 9.95401C10.4337 9.95401 10.6811 9.91668 10.8864 9.84201C11.0917 9.75801 11.3157 9.63668 11.5584 9.47801H11.5724C11.6004 9.47801 11.6237 9.49668 11.6424 9.53401C11.6704 9.56201 11.6751 9.59001 11.6564 9.61801C11.0404 10.1407 10.3731 10.402 9.65441 10.402ZM7.76441 6.49601L10.9564 6.44001V6.65001L7.77841 6.66401L7.76441 6.49601ZM15.4562 10.402C14.8589 10.402 14.3549 10.2713 13.9442 10.01C13.5429 9.73934 13.2442 9.39401 13.0482 8.97401C12.8522 8.55401 12.7542 8.11068 12.7542 7.64401C12.7542 7.04668 12.8989 6.52868 13.1882 6.09001C13.4869 5.64201 13.8649 5.30134 14.3222 5.06801C14.7889 4.82534 15.2649 4.70401 15.7502 4.70401C16.1515 4.70401 16.5155 4.78334 16.8422 4.94201C17.1782 5.10068 17.3462 5.28734 17.3462 5.50201C17.3462 5.61401 17.3089 5.71201 17.2342 5.79601C17.1595 5.87068 17.0615 5.90801 16.9402 5.90801C16.7255 5.90801 16.5389 5.77734 16.3802 5.51601C16.2589 5.33868 16.1142 5.20801 15.9462 5.12401C15.7875 5.03068 15.5729 4.98401 15.3022 4.98401C14.7422 4.98401 14.3082 5.18934 14.0002 5.60001C13.7015 6.00134 13.5522 6.54734 13.5522 7.23801C13.5522 8.02201 13.7529 8.67534 14.1542 9.19801C14.5555 9.71134 15.1529 9.96801 15.9462 9.96801C16.5435 9.96801 17.0242 9.80468 17.3882 9.47801H17.4162C17.4442 9.47801 17.4675 9.49201 17.4862 9.52001C17.5142 9.54801 17.5142 9.57134 17.4862 9.59001C17.1689 9.87001 16.8469 10.0753 16.5202 10.206C16.1935 10.3367 15.8389 10.402 15.4562 10.402ZM22.3474 10.234C22.3194 10.234 22.3054 10.206 22.3054 10.15C22.3054 10.094 22.3194 10.066 22.3474 10.066C22.618 10.066 22.814 10.0427 22.9354 9.99601C23.0567 9.94934 23.1407 9.86068 23.1874 9.73001C23.234 9.59001 23.2574 9.38001 23.2574 9.10001V6.76201C23.2574 6.19268 23.15 5.77734 22.9354 5.51601C22.7207 5.25468 22.3847 5.12401 21.9274 5.12401C21.5727 5.12401 21.2087 5.24534 20.8354 5.48801C20.4714 5.72134 20.154 6.03868 19.8834 6.44001L19.8274 6.27201C20.2567 5.70268 20.672 5.29201 21.0734 5.04001C21.4747 4.77868 21.8854 4.64801 22.3054 4.64801C22.828 4.64801 23.2247 4.78801 23.4954 5.06801C23.7754 5.34801 23.9154 5.77268 23.9154 6.34201V9.10001C23.9154 9.38001 23.934 9.59001 23.9714 9.73001C24.018 9.86068 24.102 9.94934 24.2234 9.99601C24.354 10.0427 24.5547 10.066 24.8254 10.066C24.8534 10.066 24.8674 10.094 24.8674 10.15C24.8674 10.206 24.8534 10.234 24.8254 10.234C24.6107 10.234 24.4427 10.2293 24.3214 10.22L23.5934 10.206L22.8514 10.22C22.73 10.2293 22.562 10.234 22.3474 10.234ZM18.5814 10.234C18.5534 10.234 18.5394 10.206 18.5394 10.15C18.5394 10.094 18.5534 10.066 18.5814 10.066C18.852 10.066 19.048 10.0427 19.1694 9.99601C19.2907 9.94934 19.3747 9.86068 19.4214 9.73001C19.468 9.59001 19.4914 9.38001 19.4914 9.10001V6.30001C19.4914 5.97334 19.454 5.74001 19.3794 5.60001C19.3047 5.46001 19.174 5.39001 18.9874 5.39001C18.838 5.39001 18.5767 5.46001 18.2034 5.60001H18.1754C18.138 5.60001 18.11 5.58134 18.0914 5.54401C18.082 5.49734 18.096 5.46468 18.1334 5.44601L19.6874 4.71801C19.706 4.70868 19.7294 4.70401 19.7574 4.70401C19.832 4.70401 19.916 4.81134 20.0094 5.02601C20.1027 5.23134 20.1494 5.49734 20.1494 5.82401V9.10001C20.1494 9.38001 20.168 9.59001 20.2054 9.73001C20.252 9.86068 20.336 9.94934 20.4574 9.99601C20.588 10.0427 20.7887 10.066 21.0594 10.066C21.0874 10.066 21.1014 10.094 21.1014 10.15C21.1014 10.206 21.0874 10.234 21.0594 10.234C20.8447 10.234 20.6767 10.2293 20.5554 10.22L19.8274 10.206L19.0854 10.22C18.964 10.2293 18.796 10.234 18.5814 10.234ZM28.3345 10.108L28.3485 10.416L26.1785 5.99201C25.9638 5.58134 25.8005 5.31534 25.6885 5.19401C25.5765 5.06334 25.4318 4.99801 25.2545 4.99801C25.2358 4.99801 25.2265 4.97001 25.2265 4.91401C25.2265 4.85801 25.2358 4.83001 25.2545 4.83001C25.4505 4.83001 25.5951 4.83468 25.6885 4.84401L26.1225 4.85801L26.9905 4.84401C27.1211 4.83468 27.3031 4.83001 27.5365 4.83001C27.5551 4.83001 27.5645 4.85801 27.5645 4.91401C27.5645 4.97001 27.5551 4.99801 27.5365 4.99801C26.9765 4.99801 26.6965 5.11001 26.6965 5.33401C26.6965 5.39934 26.7151 5.46934 26.7525 5.54401L28.7125 9.56201L28.4045 10.024L29.8465 6.02001C29.9211 5.79601 29.9585 5.62801 29.9585 5.51601C29.9585 5.32001 29.8698 5.18468 29.6925 5.11001C29.5245 5.03534 29.2351 4.99801 28.8245 4.99801C28.8058 4.99801 28.7965 4.97001 28.7965 4.91401C28.7965 4.85801 28.8058 4.83001 28.8245 4.83001C29.0765 4.83001 29.2678 4.83468 29.3985 4.84401L30.2385 4.85801L30.7285 4.84401C30.8125 4.83468 30.9525 4.83001 31.1485 4.83001C31.1765 4.83001 31.1905 4.85801 31.1905 4.91401C31.1905 4.97001 31.1765 4.99801 31.1485 4.99801C30.9245 4.99801 30.7331 5.06801 30.5745 5.20801C30.4251 5.34801 30.2805 5.60001 30.1405 5.96401L27.8305 11.914C27.5598 12.614 27.3778 13.188 27.2845 13.636C27.2378 13.832 27.1958 13.9533 27.1585 14C27.1211 14.056 27.0511 14.084 26.9485 14.084H25.1705C25.1518 14.084 25.1425 14.056 25.1425 14C25.1425 13.944 25.1518 13.916 25.1705 13.916C25.6931 13.916 26.1505 13.7667 26.5425 13.468C26.9345 13.1787 27.2985 12.6373 27.6345 11.844L28.3345 10.108ZM34.4038 10.416C33.6198 10.416 32.9898 10.1267 32.5138 9.54801C32.0378 8.96001 31.7998 7.98934 31.7998 6.63601C31.7998 5.09601 32.1031 3.85934 32.7098 2.92601C33.3165 1.98334 34.2078 1.40001 35.3838 1.17601C35.8225 1.09201 36.1258 1.02201 36.2938 0.966008C36.4711 0.900675 36.5971 0.807342 36.6718 0.686008C36.7558 0.564675 36.8398 0.354675 36.9238 0.056008C36.9331 0.0186751 36.9611 0.00467531 37.0078 0.0140085C37.0545 0.0233417 37.0731 0.046675 37.0638 0.0840085C36.9705 0.466675 36.9238 0.667342 36.9238 0.686008C36.8118 1.15267 36.7091 1.43268 36.6158 1.52601C36.5225 1.61001 36.3031 1.68001 35.9578 1.73601C35.6125 1.78267 35.2998 1.83401 35.0198 1.89001C34.2171 2.03001 33.6525 2.22134 33.3258 2.46401C32.9991 2.69734 32.7845 3.09868 32.6818 3.66801C32.5791 4.23734 32.5278 5.20334 32.5278 6.56601L32.3878 6.65001C32.6211 6.00601 32.9898 5.53934 33.4938 5.25001C34.0071 4.96068 34.5205 4.81601 35.0338 4.81601C35.5471 4.81601 35.9765 4.95134 36.3218 5.22201C36.6671 5.49268 36.9191 5.83801 37.0778 6.25801C37.2458 6.66868 37.3298 7.09334 37.3298 7.53201C37.3298 8.10134 37.1991 8.60534 36.9378 9.04401C36.6765 9.48268 36.3218 9.82334 35.8738 10.066C35.4258 10.2993 34.9358 10.416 34.4038 10.416ZM34.8098 10.164C35.3418 10.164 35.7618 9.98201 36.0698 9.61801C36.3778 9.24468 36.5318 8.68468 36.5318 7.93801C36.5318 7.39668 36.4431 6.91134 36.2658 6.48201C36.0885 6.05268 35.8505 5.71668 35.5518 5.47401C35.2531 5.23134 34.9265 5.11001 34.5718 5.11001C34.2358 5.11001 33.9185 5.22201 33.6198 5.44601C33.3211 5.66068 33.0785 5.94534 32.8918 6.30001C32.7145 6.65468 32.6258 7.02334 32.6258 7.40601C32.6258 8.19934 32.8171 8.85734 33.1998 9.38001C33.5918 9.90268 34.1285 10.164 34.8098 10.164ZM37.9136 10.234C37.8763 10.234 37.8576 10.206 37.8576 10.15C37.8576 10.094 37.8763 10.066 37.9136 10.066C38.0816 10.066 38.259 9.94934 38.4456 9.71601C38.6323 9.48268 38.8703 9.03934 39.1596 8.38601L40.7696 4.62001C40.7883 4.58268 40.8163 4.56401 40.8536 4.56401C40.9003 4.56401 40.9283 4.58268 40.9376 4.62001L42.6736 8.31601C42.9256 8.85734 43.117 9.24001 43.2476 9.46401C43.3783 9.68801 43.509 9.84668 43.6396 9.94001C43.7703 10.024 43.9383 10.066 44.1436 10.066C44.1903 10.066 44.2136 10.094 44.2136 10.15C44.2136 10.206 44.1903 10.234 44.1436 10.234C44.0036 10.234 43.7936 10.2247 43.5136 10.206C43.2336 10.1873 43.0236 10.178 42.8836 10.178C42.7623 10.178 42.5803 10.1873 42.3376 10.206C42.0763 10.2247 41.899 10.234 41.8056 10.234C41.7683 10.234 41.7496 10.206 41.7496 10.15C41.7496 10.094 41.7683 10.066 41.8056 10.066C41.9643 10.066 42.095 10.0287 42.1976 9.95401C42.3096 9.87001 42.3656 9.74401 42.3656 9.57601C42.3656 9.42668 42.319 9.25401 42.2256 9.05801L40.5876 5.57201L40.8396 5.30601L39.4816 8.51201C39.3136 8.90401 39.2296 9.22134 39.2296 9.46401C39.2296 9.86534 39.449 10.066 39.8876 10.066C39.9343 10.066 39.9576 10.094 39.9576 10.15C39.9576 10.206 39.9343 10.234 39.8876 10.234C39.785 10.234 39.6496 10.2247 39.4816 10.206C39.2763 10.1873 39.0896 10.178 38.9216 10.178C38.735 10.178 38.5483 10.1873 38.3616 10.206C38.1936 10.2247 38.0443 10.234 37.9136 10.234ZM46.7347 10.332C46.2774 10.332 45.9181 10.1873 45.6567 9.89801C45.4047 9.60868 45.2787 9.18401 45.2787 8.62401V6.45401C45.2787 6.07134 45.2461 5.80068 45.1807 5.64201C45.1247 5.47401 45.0221 5.39001 44.8727 5.39001C44.7327 5.39001 44.5647 5.43668 44.3687 5.53001H44.3407C44.3034 5.53001 44.2754 5.50668 44.2567 5.46001C44.2474 5.41334 44.2614 5.38534 44.2987 5.37601L45.7687 4.71801L45.8247 4.70401C45.8434 4.70401 45.8667 4.71334 45.8947 4.73201C45.9227 4.75068 45.9367 4.77401 45.9367 4.80201V8.20401C45.9367 8.76401 46.0347 9.17934 46.2307 9.45001C46.4267 9.72068 46.7207 9.85601 47.1127 9.85601C47.4954 9.85601 47.8781 9.74401 48.2607 9.52001C48.6434 9.28668 48.9794 8.96934 49.2687 8.56801L49.3387 8.72201C48.9001 9.29134 48.4661 9.70201 48.0367 9.95401C47.6167 10.206 47.1827 10.332 46.7347 10.332ZM49.6607 8.76401C49.6607 9.08134 49.6981 9.31468 49.7727 9.46401C49.8567 9.60401 49.9921 9.67401 50.1787 9.67401C50.2721 9.67401 50.3841 9.65534 50.5147 9.61801C50.6547 9.57134 50.8041 9.52001 50.9627 9.46401H50.9907C51.0281 9.46401 51.0514 9.48734 51.0607 9.53401C51.0794 9.57134 51.0701 9.59934 51.0327 9.61801L49.4647 10.346L49.4087 10.36C49.3247 10.36 49.2361 10.2573 49.1427 10.052C49.0587 9.83734 49.0167 9.56668 49.0167 9.24001V6.45401C49.0167 6.07134 48.9841 5.80068 48.9187 5.64201C48.8627 5.47401 48.7554 5.39001 48.5967 5.39001C48.4567 5.39001 48.2887 5.43668 48.0927 5.53001H48.0647C48.0274 5.53001 48.0041 5.50668 47.9947 5.46001C47.9854 5.41334 47.9994 5.38534 48.0367 5.37601L49.5067 4.71801L49.5487 4.70401C49.5767 4.70401 49.6001 4.71334 49.6187 4.73201C49.6467 4.75068 49.6607 4.77401 49.6607 4.80201V8.76401ZM51.442 10.234C51.414 10.234 51.4 10.206 51.4 10.15C51.4 10.094 51.414 10.066 51.442 10.066C51.722 10.066 51.9227 10.0427 52.044 9.99601C52.1747 9.94934 52.2587 9.86068 52.296 9.73001C52.3427 9.59001 52.366 9.38001 52.366 9.10001V1.83401C52.366 1.48868 52.3333 1.24134 52.268 1.09201C52.2027 0.942675 52.086 0.868008 51.918 0.868008C51.7687 0.868008 51.5447 0.938008 51.246 1.07801H51.218C51.1807 1.07801 51.1527 1.05467 51.134 1.00801C51.1247 0.961342 51.1387 0.933342 51.176 0.924008L52.856 0.0980083L52.926 0.0840085C52.9447 0.0840085 52.9633 0.0933417 52.982 0.112008C53.01 0.130675 53.024 0.154008 53.024 0.182008V9.10001C53.024 9.38001 53.0473 9.59001 53.094 9.73001C53.1407 9.86068 53.2247 9.94934 53.346 9.99601C53.4767 10.0427 53.6773 10.066 53.948 10.066C53.9667 10.066 53.976 10.094 53.976 10.15C53.976 10.206 53.9667 10.234 53.948 10.234C53.7147 10.234 53.5327 10.2293 53.402 10.22L52.716 10.206L51.988 10.22C51.8573 10.2293 51.6753 10.234 51.442 10.234ZM55.866 10.234C55.81 10.234 55.7587 10.192 55.712 10.108C55.6653 10.024 55.5907 9.89334 55.488 9.71601C55.3853 9.52934 55.2033 9.25401 54.942 8.89001C54.634 8.46068 54.41 8.16668 54.27 8.00801C54.13 7.84001 53.99 7.72334 53.85 7.65801C53.71 7.59268 53.5233 7.56001 53.29 7.56001C53.206 7.56001 53.0053 7.56934 52.688 7.58801L52.66 7.33601L53.08 7.30801C53.5467 7.28934 53.836 7.28001 53.948 7.28001C54.172 7.28001 54.3493 7.30801 54.48 7.36401C54.6107 7.42001 54.7367 7.51334 54.858 7.64401C54.9793 7.77468 55.166 8.00801 55.418 8.34401L55.628 8.61001C55.684 8.68468 55.7353 8.75934 55.782 8.83401C55.8287 8.89934 55.8753 8.96001 55.922 9.01601C56.1927 9.39868 56.4167 9.66934 56.594 9.82801C56.7807 9.97734 57.0373 10.0567 57.364 10.066C57.392 10.066 57.406 10.094 57.406 10.15C57.406 10.206 57.392 10.234 57.364 10.234H55.866ZM53.948 7.28001C54.088 7.28001 54.214 7.22401 54.326 7.11201C54.438 7.00001 54.55 6.84134 54.662 6.63601L54.914 6.13201C55.1007 5.76801 55.25 5.49734 55.362 5.32001C55.474 5.13334 55.6 4.98401 55.74 4.87201C55.8893 4.76001 56.0667 4.70401 56.272 4.70401C56.4587 4.70401 56.6033 4.75068 56.706 4.84401C56.8087 4.92801 56.86 5.03068 56.86 5.15201C56.86 5.28268 56.8133 5.39468 56.72 5.48801C56.6267 5.58134 56.5053 5.62801 56.356 5.62801C56.2533 5.62801 56.1507 5.60001 56.048 5.54401C55.9453 5.47868 55.8707 5.44601 55.824 5.44601C55.7213 5.44601 55.5767 5.57668 55.39 5.83801C55.2127 6.09001 55.0353 6.37468 54.858 6.69201C54.7273 6.94401 54.5873 7.14468 54.438 7.29401C54.2887 7.43401 54.1253 7.50401 53.948 7.50401V7.28001ZM59.7367 10.36C59.1673 10.36 58.6913 10.1547 58.3087 9.74401C57.926 9.32401 57.7347 8.74068 57.7347 7.99401C57.7347 7.32201 57.8933 6.73401 58.2107 6.23001C58.528 5.71668 58.9247 5.32468 59.4007 5.05401C59.886 4.78334 60.3573 4.64801 60.8147 4.64801C61.1413 4.64801 61.454 4.71334 61.7527 4.84401C62.0513 4.97468 62.2847 5.14268 62.4527 5.34801L62.0047 6.10401C62.0047 5.76801 61.846 5.48801 61.5287 5.26401C61.2113 5.03068 60.8567 4.91401 60.4647 4.91401C59.8953 4.91401 59.4287 5.16601 59.0647 5.67001C58.71 6.16468 58.5327 6.80868 58.5327 7.60201C58.5327 8.30201 58.6773 8.87134 58.9667 9.31001C59.256 9.74868 59.648 9.96801 60.1427 9.96801C60.516 9.96801 60.8707 9.84668 61.2067 9.60401C61.552 9.36134 61.8927 9.04401 62.2287 8.65201L62.3407 8.75001C61.93 9.23534 61.5193 9.62734 61.1087 9.92601C60.7073 10.2153 60.25 10.36 59.7367 10.36ZM62.3967 10.346C62.3127 10.346 62.224 10.2247 62.1307 9.98201C62.0467 9.73934 62.0047 9.45001 62.0047 9.11401V5.18001C62.154 5.10534 62.2613 5.04001 62.3267 4.98401C62.4013 4.92801 62.4667 4.83934 62.5227 4.71801C62.532 4.70868 62.5553 4.70868 62.5927 4.71801C62.63 4.71801 62.6487 4.72734 62.6487 4.74601V8.75001C62.6487 9.06734 62.686 9.30068 62.7607 9.45001C62.8447 9.59001 62.98 9.66001 63.1667 9.66001C63.26 9.66001 63.372 9.64134 63.5027 9.60401C63.6427 9.55734 63.792 9.50601 63.9507 9.45001H63.9787C64.016 9.45001 64.0393 9.47334 64.0487 9.52001C64.058 9.55734 64.044 9.58068 64.0067 9.59001L62.4527 10.332L62.3967 10.346ZM68.294 10.234C68.266 10.234 68.252 10.206 68.252 10.15C68.252 10.094 68.266 10.066 68.294 10.066C68.5646 10.066 68.7606 10.0427 68.882 9.99601C69.0126 9.94934 69.1013 9.86068 69.148 9.73001C69.1946 9.59001 69.218 9.38001 69.218 9.10001V6.45401C69.218 6.07134 69.1853 5.80068 69.12 5.64201C69.064 5.47401 68.9613 5.39001 68.812 5.39001C68.7093 5.39001 68.5413 5.43668 68.308 5.53001H68.28C68.2426 5.53001 68.2146 5.50668 68.196 5.46001C68.1866 5.41334 68.2006 5.38534 68.238 5.37601L69.708 4.71801L69.764 4.70401C69.7826 4.70401 69.806 4.71334 69.834 4.73201C69.862 4.75068 69.876 4.77401 69.876 4.80201V9.10001C69.876 9.38001 69.8946 9.59001 69.932 9.73001C69.9786 9.86068 70.0626 9.94934 70.184 9.99601C70.3146 10.0427 70.52 10.066 70.8 10.066C70.8186 10.066 70.828 10.094 70.828 10.15C70.828 10.206 70.8186 10.234 70.8 10.234C70.5666 10.234 70.3846 10.2293 70.254 10.22L69.568 10.206L68.826 10.22C68.6953 10.2293 68.518 10.234 68.294 10.234ZM64.528 10.234C64.5 10.234 64.486 10.206 64.486 10.15C64.486 10.094 64.5 10.066 64.528 10.066C64.808 10.066 65.0086 10.0427 65.13 9.99601C65.2606 9.94934 65.3446 9.86068 65.382 9.73001C65.4286 9.59001 65.452 9.38001 65.452 9.10001V6.45401C65.452 6.07134 65.4193 5.80068 65.354 5.64201C65.298 5.47401 65.1953 5.39001 65.046 5.39001C64.9433 5.39001 64.7753 5.43668 64.542 5.53001H64.514C64.4766 5.53001 64.4486 5.50668 64.43 5.46001C64.4206 5.41334 64.4346 5.38534 64.472 5.37601L65.942 4.71801L65.998 4.70401C66.0166 4.70401 66.04 4.71334 66.068 4.73201C66.096 4.75068 66.11 4.77401 66.11 4.80201V9.10001C66.11 9.38001 66.1286 9.59001 66.166 9.73001C66.2126 9.86068 66.2966 9.94934 66.418 9.99601C66.5486 10.0427 66.754 10.066 67.034 10.066C67.0526 10.066 67.062 10.094 67.062 10.15C67.062 10.206 67.0526 10.234 67.034 10.234C66.8006 10.234 66.6186 10.2293 66.488 10.22L65.802 10.206L65.074 10.22C64.9433 10.2293 64.7613 10.234 64.528 10.234ZM65.76 7.40601H69.526V7.65801H65.76V7.40601ZM74.3683 10.402C73.771 10.402 73.267 10.2713 72.8563 10.01C72.455 9.73934 72.1563 9.39401 71.9603 8.97401C71.7643 8.55401 71.6663 8.11068 71.6663 7.64401C71.6663 7.04668 71.811 6.52868 72.1003 6.09001C72.399 5.64201 72.777 5.30134 73.2343 5.06801C73.701 4.82534 74.177 4.70401 74.6623 4.70401C75.0636 4.70401 75.4276 4.78334 75.7543 4.94201C76.0903 5.10068 76.2583 5.28734 76.2583 5.50201C76.2583 5.61401 76.221 5.71201 76.1463 5.79601C76.0716 5.87068 75.9736 5.90801 75.8523 5.90801C75.6376 5.90801 75.451 5.77734 75.2923 5.51601C75.171 5.33868 75.0263 5.20801 74.8583 5.12401C74.6996 5.03068 74.485 4.98401 74.2143 4.98401C73.6543 4.98401 73.2203 5.18934 72.9123 5.60001C72.6136 6.00134 72.4643 6.54734 72.4643 7.23801C72.4643 8.02201 72.665 8.67534 73.0663 9.19801C73.4676 9.71134 74.065 9.96801 74.8583 9.96801C75.4556 9.96801 75.9363 9.80468 76.3003 9.47801H76.3283C76.3563 9.47801 76.3796 9.49201 76.3983 9.52001C76.4263 9.54801 76.4263 9.57134 76.3983 9.59001C76.081 9.87001 75.759 10.0753 75.4323 10.206C75.1056 10.3367 74.751 10.402 74.3683 10.402ZM77.2135 10.234C77.1855 10.234 77.1715 10.206 77.1715 10.15C77.1715 10.094 77.1855 10.066 77.2135 10.066C77.4935 10.066 77.6942 10.0427 77.8155 9.99601C77.9462 9.94934 78.0302 9.86068 78.0675 9.73001C78.1142 9.59001 78.1375 9.38001 78.1375 9.10001V1.83401C78.1375 1.48868 78.1048 1.24134 78.0395 1.09201C77.9742 0.942675 77.8575 0.868008 77.6895 0.868008C77.5402 0.868008 77.3162 0.938008 77.0175 1.07801H76.9895C76.9522 1.07801 76.9242 1.05467 76.9055 1.00801C76.8962 0.961342 76.9102 0.933342 76.9475 0.924008L78.6275 0.0980083L78.6975 0.0840085C78.7162 0.0840085 78.7348 0.0933417 78.7535 0.112008C78.7815 0.130675 78.7955 0.154008 78.7955 0.182008V9.10001C78.7955 9.38001 78.8188 9.59001 78.8655 9.73001C78.9122 9.86068 78.9962 9.94934 79.1175 9.99601C79.2482 10.0427 79.4488 10.066 79.7195 10.066C79.7382 10.066 79.7475 10.094 79.7475 10.15C79.7475 10.206 79.7382 10.234 79.7195 10.234C79.4862 10.234 79.3042 10.2293 79.1735 10.22L78.4875 10.206L77.7595 10.22C77.6288 10.2293 77.4468 10.234 77.2135 10.234ZM81.6375 10.234C81.5815 10.234 81.5302 10.192 81.4835 10.108C81.4368 10.024 81.3622 9.89334 81.2595 9.71601C81.1568 9.52934 80.9748 9.25401 80.7135 8.89001C80.4055 8.46068 80.1815 8.16668 80.0415 8.00801C79.9015 7.84001 79.7615 7.72334 79.6215 7.65801C79.4815 7.59268 79.2948 7.56001 79.0615 7.56001C78.9775 7.56001 78.7768 7.56934 78.4595 7.58801L78.4315 7.33601L78.8515 7.30801C79.3182 7.28934 79.6075 7.28001 79.7195 7.28001C79.9435 7.28001 80.1208 7.30801 80.2515 7.36401C80.3822 7.42001 80.5082 7.51334 80.6295 7.64401C80.7508 7.77468 80.9375 8.00801 81.1895 8.34401L81.3995 8.61001C81.4555 8.68468 81.5068 8.75934 81.5535 8.83401C81.6002 8.89934 81.6468 8.96001 81.6935 9.01601C81.9642 9.39868 82.1882 9.66934 82.3655 9.82801C82.5522 9.97734 82.8088 10.0567 83.1355 10.066C83.1635 10.066 83.1775 10.094 83.1775 10.15C83.1775 10.206 83.1635 10.234 83.1355 10.234H81.6375ZM79.7195 7.28001C79.8595 7.28001 79.9855 7.22401 80.0975 7.11201C80.2095 7.00001 80.3215 6.84134 80.4335 6.63601L80.6855 6.13201C80.8722 5.76801 81.0215 5.49734 81.1335 5.32001C81.2455 5.13334 81.3715 4.98401 81.5115 4.87201C81.6608 4.76001 81.8382 4.70401 82.0435 4.70401C82.2302 4.70401 82.3748 4.75068 82.4775 4.84401C82.5802 4.92801 82.6315 5.03068 82.6315 5.15201C82.6315 5.28268 82.5848 5.39468 82.4915 5.48801C82.3982 5.58134 82.2768 5.62801 82.1275 5.62801C82.0248 5.62801 81.9222 5.60001 81.8195 5.54401C81.7168 5.47868 81.6422 5.44601 81.5955 5.44601C81.4928 5.44601 81.3482 5.57668 81.1615 5.83801C80.9842 6.09001 80.8068 6.37468 80.6295 6.69201C80.4988 6.94401 80.3588 7.14468 80.2095 7.29401C80.0602 7.43401 79.8968 7.50401 79.7195 7.50401V7.28001ZM85.5082 10.36C84.9388 10.36 84.4628 10.1547 84.0802 9.74401C83.6975 9.32401 83.5062 8.74068 83.5062 7.99401C83.5062 7.32201 83.6648 6.73401 83.9822 6.23001C84.2995 5.71668 84.6962 5.32468 85.1722 5.05401C85.6575 4.78334 86.1288 4.64801 86.5862 4.64801C86.9128 4.64801 87.2255 4.71334 87.5242 4.84401C87.8228 4.97468 88.0562 5.14268 88.2242 5.34801L87.7762 6.10401C87.7762 5.76801 87.6175 5.48801 87.3002 5.26401C86.9828 5.03068 86.6282 4.91401 86.2362 4.91401C85.6668 4.91401 85.2002 5.16601 84.8362 5.67001C84.4815 6.16468 84.3042 6.80868 84.3042 7.60201C84.3042 8.30201 84.4488 8.87134 84.7382 9.31001C85.0275 9.74868 85.4195 9.96801 85.9142 9.96801C86.2875 9.96801 86.6422 9.84668 86.9782 9.60401C87.3235 9.36134 87.6642 9.04401 88.0002 8.65201L88.1122 8.75001C87.7015 9.23534 87.2908 9.62734 86.8802 9.92601C86.4788 10.2153 86.0215 10.36 85.5082 10.36ZM88.1682 10.346C88.0842 10.346 87.9955 10.2247 87.9022 9.98201C87.8182 9.73934 87.7762 9.45001 87.7762 9.11401V5.18001C87.9255 5.10534 88.0328 5.04001 88.0982 4.98401C88.1728 4.92801 88.2382 4.83934 88.2942 4.71801C88.3035 4.70868 88.3268 4.70868 88.3642 4.71801C88.4015 4.71801 88.4202 4.72734 88.4202 4.74601V8.75001C88.4202 9.06734 88.4575 9.30068 88.5322 9.45001C88.6162 9.59001 88.7515 9.66001 88.9382 9.66001C89.0315 9.66001 89.1435 9.64134 89.2742 9.60401C89.4142 9.55734 89.5635 9.50601 89.7222 9.45001H89.7502C89.7875 9.45001 89.8108 9.47334 89.8202 9.52001C89.8295 9.55734 89.8155 9.58068 89.7782 9.59001L88.2242 10.332L88.1682 10.346ZM95.2554 10.066C95.2741 10.066 95.2834 10.094 95.2834 10.15C95.2834 10.206 95.2741 10.234 95.2554 10.234C95.0408 10.234 94.8728 10.2293 94.7514 10.22L94.0374 10.206L93.2954 10.22C93.1648 10.2293 92.9828 10.234 92.7494 10.234C92.7308 10.234 92.7214 10.206 92.7214 10.15C92.7214 10.094 92.7308 10.066 92.7494 10.066C93.0294 10.066 93.2301 10.0427 93.3514 9.99601C93.4821 9.94934 93.5661 9.86068 93.6034 9.73001C93.6501 9.59001 93.6734 9.38001 93.6734 9.10001V7.70001L93.8274 7.72801C93.3981 7.72801 93.0341 7.82134 92.7354 8.00801C92.4368 8.18534 92.1288 8.54934 91.8114 9.10001C91.5221 9.60401 91.3308 9.92134 91.2374 10.052C91.1534 10.1733 91.0694 10.234 90.9854 10.234H89.8794C89.8608 10.234 89.8514 10.206 89.8514 10.15C89.8514 10.094 89.8608 10.066 89.8794 10.066C90.1688 10.066 90.3974 9.97734 90.5654 9.80001C90.7334 9.62268 90.8641 9.45001 90.9574 9.28201C91.0508 9.10468 91.1114 8.99734 91.1394 8.96001C91.3728 8.57734 91.6528 8.27401 91.9794 8.05001C92.3154 7.82601 92.6561 7.71401 93.0014 7.71401L93.0994 7.75601C92.3621 7.75601 91.8301 7.63468 91.5034 7.39201C91.1861 7.14001 91.0274 6.79001 91.0274 6.34201C91.0274 5.86601 91.1814 5.48801 91.4894 5.20801C91.7974 4.92801 92.2128 4.78801 92.7354 4.78801C92.8474 4.78801 93.0621 4.79734 93.3794 4.81601C93.6034 4.84401 93.8228 4.85801 94.0374 4.85801L94.7374 4.84401C94.8588 4.83468 95.0268 4.83001 95.2414 4.83001C95.2601 4.83001 95.2694 4.85801 95.2694 4.91401C95.2694 4.97001 95.2601 4.99801 95.2414 4.99801C94.9801 4.99801 94.7841 5.02601 94.6534 5.08201C94.5321 5.12868 94.4434 5.21734 94.3874 5.34801C94.3408 5.47868 94.3174 5.68401 94.3174 5.96401V9.10001C94.3174 9.38001 94.3408 9.58534 94.3874 9.71601C94.4434 9.84668 94.5368 9.94001 94.6674 9.99601C94.7981 10.0427 94.9941 10.066 95.2554 10.066ZM91.7414 6.04801C91.7414 6.48668 91.8534 6.85068 92.0774 7.14001C92.3108 7.42001 92.6374 7.56001 93.0574 7.56001C93.3841 7.56001 93.6548 7.53668 93.8694 7.49001L93.6734 7.58801V5.99201C93.6734 5.59068 93.6174 5.32001 93.5054 5.18001C93.3934 5.03068 93.1694 4.95601 92.8334 4.95601C92.4694 4.95601 92.1941 5.04001 92.0074 5.20801C91.8301 5.36668 91.7414 5.64668 91.7414 6.04801ZM97.131 9.36601C97.4017 9.36601 97.6117 9.46868 97.761 9.67401C97.9197 9.87001 97.999 10.164 97.999 10.556C97.999 10.948 97.915 11.3213 97.747 11.676C97.5883 12.0307 97.3503 12.3853 97.033 12.74C97.0237 12.7493 97.0097 12.754 96.991 12.754C96.963 12.754 96.9397 12.74 96.921 12.712C96.9023 12.684 96.9023 12.6607 96.921 12.642C97.117 12.3527 97.2477 12.082 97.313 11.83C97.3783 11.5873 97.411 11.3073 97.411 10.99C97.411 10.738 97.3737 10.5327 97.299 10.374C97.2243 10.2153 97.1263 10.0753 97.005 9.95401L97.537 9.85601C97.5463 10.0147 97.5043 10.136 97.411 10.22C97.327 10.304 97.2103 10.346 97.061 10.346C96.9023 10.346 96.7763 10.304 96.683 10.22C96.599 10.1267 96.557 10.0053 96.557 9.85601C96.557 9.52934 96.7483 9.36601 97.131 9.36601ZM103.18 10.234C103.161 10.234 103.152 10.206 103.152 10.15C103.152 10.094 103.161 10.066 103.18 10.066C103.628 10.066 103.959 10.0427 104.174 9.99601C104.398 9.94001 104.552 9.84668 104.636 9.71601C104.72 9.58534 104.762 9.38001 104.762 9.10001V3.12201C104.762 2.67401 104.65 2.45001 104.426 2.45001C104.304 2.45001 104.136 2.51067 103.922 2.63201C103.716 2.74401 103.446 2.92601 103.11 3.17801L103.082 3.19201C103.044 3.19201 103.016 3.16868 102.998 3.12201C102.979 3.07534 102.988 3.04268 103.026 3.02401L105.238 1.38601C105.284 1.35801 105.317 1.34401 105.336 1.34401C105.354 1.34401 105.368 1.35334 105.378 1.37201C105.396 1.39067 105.406 1.40934 105.406 1.42801V9.10001C105.406 9.38934 105.443 9.59934 105.518 9.73001C105.592 9.86068 105.737 9.94934 105.952 9.99601C106.166 10.0427 106.512 10.066 106.988 10.066C107.006 10.066 107.016 10.094 107.016 10.15C107.016 10.206 107.006 10.234 106.988 10.234C106.652 10.234 106.386 10.2293 106.19 10.22L105.084 10.206L103.992 10.22C103.796 10.2293 103.525 10.234 103.18 10.234Z" fill="#706760" fill-opacity="0.66"/>
</svg>
