<svg width="72" height="12" viewBox="0 0 72 12" fill="none" xmlns="http://www.w3.org/2000/svg">
<path d="M0.0360005 11.448C0.0120005 11.448 5.21541e-07 11.412 5.21541e-07 11.34C5.21541e-07 11.268 0.0120005 11.232 0.0360005 11.232C0.504001 11.232 0.846001 11.202 1.062 11.142C1.29 11.082 1.446 10.968 1.53 10.8C1.614 10.62 1.656 10.35 1.656 9.99V1.656C1.656 1.296 1.614 1.032 1.53 0.863998C1.446 0.695997 1.29 0.581997 1.062 0.521997C0.846001 0.449997 0.504001 0.413997 0.0360005 0.413997C0.0120005 0.413997 5.21541e-07 0.377998 5.21541e-07 0.305998C5.21541e-07 0.233998 0.0120005 0.197998 0.0360005 0.197998L0.936001 0.215998C1.416 0.239998 1.812 0.251997 2.124 0.251997C2.412 0.251997 2.784 0.239998 3.24 0.215998L3.996 0.197998C4.032 0.197998 4.05 0.233998 4.05 0.305998C4.05 0.377998 4.032 0.413997 3.996 0.413997C3.588 0.413997 3.288 0.449997 3.096 0.521997C2.904 0.581997 2.772 0.695997 2.7 0.863998C2.64 1.032 2.61 1.296 2.61 1.656V9.954C2.61 10.362 2.634 10.632 2.682 10.764C2.73 10.896 2.844 10.98 3.024 11.016C3.204 11.052 3.576 11.07 4.14 11.07H6.462C7.05 11.07 7.44 11.052 7.632 11.016C7.836 10.98 7.962 10.896 8.01 10.764C8.058 10.632 8.082 10.362 8.082 9.954V1.656C8.082 1.296 8.046 1.032 7.974 0.863998C7.914 0.695997 7.788 0.581997 7.596 0.521997C7.404 0.449997 7.104 0.413997 6.696 0.413997C6.66 0.413997 6.642 0.377998 6.642 0.305998C6.642 0.233998 6.66 0.197998 6.696 0.197998L7.452 0.215998C7.908 0.239998 8.28 0.251997 8.568 0.251997C8.856 0.251997 9.216 0.239998 9.648 0.215998L10.44 0.197998C10.476 0.197998 10.494 0.233998 10.494 0.305998C10.494 0.377998 10.476 0.413997 10.44 0.413997C10.032 0.413997 9.726 0.449997 9.522 0.521997C9.33 0.581997 9.198 0.695997 9.126 0.863998C9.066 1.032 9.036 1.296 9.036 1.656V9.99C9.036 10.338 9.09 10.59 9.198 10.746C9.306 10.89 9.474 10.98 9.702 11.016C9.942 11.052 10.326 11.07 10.854 11.07H12.888C13.476 11.07 13.866 11.052 14.058 11.016C14.262 10.98 14.388 10.896 14.436 10.764C14.484 10.632 14.508 10.362 14.508 9.954V1.656C14.508 1.296 14.472 1.032 14.4 0.863998C14.34 0.695997 14.214 0.581997 14.022 0.521997C13.83 0.449997 13.53 0.413997 13.122 0.413997C13.086 0.413997 13.068 0.377998 13.068 0.305998C13.068 0.233998 13.086 0.197998 13.122 0.197998L13.878 0.215998C14.334 0.239998 14.706 0.251997 14.994 0.251997C15.294 0.251997 15.696 0.239998 16.2 0.215998L17.064 0.197998C17.1 0.197998 17.118 0.233998 17.118 0.305998C17.118 0.377998 17.1 0.413997 17.064 0.413997C16.596 0.413997 16.248 0.449997 16.02 0.521997C15.804 0.581997 15.654 0.695997 15.57 0.863998C15.486 1.032 15.444 1.296 15.444 1.656V9.99C15.444 10.35 15.486 10.62 15.57 10.8C15.654 10.968 15.804 11.082 16.02 11.142C16.248 11.202 16.596 11.232 17.064 11.232C17.1 11.232 17.118 11.268 17.118 11.34C17.118 11.412 17.1 11.448 17.064 11.448H0.0360005ZM20.9796 11.61C20.2476 11.61 19.6356 11.346 19.1436 10.818C18.6516 10.278 18.4056 9.528 18.4056 8.568C18.4056 7.704 18.6096 6.948 19.0176 6.3C19.4256 5.64 19.9356 5.136 20.5476 4.788C21.1716 4.44 21.7776 4.266 22.3656 4.266C22.7856 4.266 23.1876 4.35 23.5716 4.518C23.9556 4.686 24.2556 4.902 24.4716 5.166L23.8956 6.138C23.8956 5.706 23.6916 5.346 23.2836 5.058C22.8756 4.758 22.4196 4.608 21.9156 4.608C21.1836 4.608 20.5836 4.932 20.1156 5.58C19.6596 6.216 19.4316 7.044 19.4316 8.064C19.4316 8.964 19.6176 9.696 19.9896 10.26C20.3616 10.824 20.8656 11.106 21.5016 11.106C21.9816 11.106 22.4376 10.95 22.8696 10.638C23.3136 10.326 23.7516 9.918 24.1836 9.414L24.3276 9.54C23.7996 10.164 23.2716 10.668 22.7436 11.052C22.2276 11.424 21.6396 11.61 20.9796 11.61ZM24.3996 11.592C24.2916 11.592 24.1776 11.436 24.0576 11.124C23.9496 10.812 23.8956 10.44 23.8956 10.008V4.95C24.0876 4.854 24.2256 4.77 24.3096 4.698C24.4056 4.626 24.4896 4.512 24.5616 4.356C24.5736 4.344 24.6036 4.344 24.6516 4.356C24.6996 4.356 24.7236 4.368 24.7236 4.392V9.54C24.7236 9.948 24.7716 10.248 24.8676 10.44C24.9756 10.62 25.1496 10.71 25.3896 10.71C25.5096 10.71 25.6536 10.686 25.8216 10.638C26.0016 10.578 26.1936 10.512 26.3976 10.44H26.4336C26.4816 10.44 26.5116 10.47 26.5236 10.53C26.5356 10.578 26.5176 10.608 26.4696 10.62L24.4716 11.574L24.3996 11.592ZM26.8647 11.448C26.8167 11.448 26.7927 11.412 26.7927 11.34C26.7927 11.268 26.8167 11.232 26.8647 11.232C27.0807 11.232 27.3087 11.082 27.5487 10.782C27.7887 10.482 28.0947 9.912 28.4667 9.072L30.5367 4.23C30.5607 4.182 30.5967 4.158 30.6447 4.158C30.7047 4.158 30.7407 4.182 30.7527 4.23L32.9847 8.982C33.3087 9.678 33.5547 10.17 33.7227 10.458C33.8907 10.746 34.0587 10.95 34.2267 11.07C34.3947 11.178 34.6107 11.232 34.8747 11.232C34.9347 11.232 34.9647 11.268 34.9647 11.34C34.9647 11.412 34.9347 11.448 34.8747 11.448C34.6947 11.448 34.4247 11.436 34.0647 11.412C33.7047 11.388 33.4347 11.376 33.2547 11.376C33.0987 11.376 32.8647 11.388 32.5527 11.412C32.2167 11.436 31.9887 11.448 31.8687 11.448C31.8207 11.448 31.7967 11.412 31.7967 11.34C31.7967 11.268 31.8207 11.232 31.8687 11.232C32.0727 11.232 32.2407 11.184 32.3727 11.088C32.5167 10.98 32.5887 10.818 32.5887 10.602C32.5887 10.41 32.5287 10.188 32.4087 9.936L30.3027 5.454L30.6267 5.112L28.8807 9.234C28.6647 9.738 28.5567 10.146 28.5567 10.458C28.5567 10.974 28.8387 11.232 29.4027 11.232C29.4627 11.232 29.4927 11.268 29.4927 11.34C29.4927 11.412 29.4627 11.448 29.4027 11.448C29.2707 11.448 29.0967 11.436 28.8807 11.412C28.6167 11.388 28.3767 11.376 28.1607 11.376C27.9207 11.376 27.6807 11.388 27.4407 11.412C27.2247 11.436 27.0327 11.448 26.8647 11.448ZM38.5197 11.664C37.8357 11.664 37.2537 11.502 36.7737 11.178C36.2937 10.854 35.9277 10.434 35.6757 9.918C35.4357 9.39 35.3157 8.82 35.3157 8.208C35.3157 7.5 35.4837 6.852 35.8197 6.264C36.1557 5.664 36.6057 5.196 37.1697 4.86C37.7457 4.512 38.3697 4.338 39.0417 4.338C39.7137 4.338 40.2177 4.524 40.5537 4.896C40.9017 5.256 41.0757 5.754 41.0757 6.39C41.0757 6.558 41.0577 6.678 41.0217 6.75C40.9977 6.81 40.9437 6.84 40.8597 6.84H40.0137C40.0257 6.756 40.0317 6.642 40.0317 6.498C40.0317 5.898 39.8877 5.448 39.5997 5.148C39.3237 4.848 38.9457 4.698 38.4657 4.698C37.7937 4.698 37.2717 4.95 36.8997 5.454C36.5277 5.958 36.3417 6.66 36.3417 7.56C36.3417 8.604 36.5877 9.456 37.0797 10.116C37.5717 10.764 38.2617 11.088 39.1497 11.088C39.5217 11.088 39.8397 11.04 40.1037 10.944C40.3677 10.836 40.6557 10.68 40.9677 10.476H40.9857C41.0217 10.476 41.0517 10.5 41.0757 10.548C41.1117 10.584 41.1177 10.62 41.0937 10.656C40.3017 11.328 39.4437 11.664 38.5197 11.664ZM36.0897 6.642L40.1937 6.57V6.84L36.1077 6.858L36.0897 6.642ZM48.2874 0.611997L48.6834 0.647998V9.576C48.6834 10.188 48.7854 10.62 48.9894 10.872C49.1934 11.112 49.5474 11.232 50.0514 11.232C50.0874 11.232 50.1054 11.268 50.1054 11.34C50.1054 11.412 50.0874 11.448 50.0514 11.448C49.7634 11.448 49.5414 11.442 49.3854 11.43L48.5214 11.412L47.6394 11.43C47.4834 11.442 47.2494 11.448 46.9374 11.448C46.9134 11.448 46.9014 11.412 46.9014 11.34C46.9014 11.268 46.9134 11.232 46.9374 11.232C47.4534 11.232 47.8074 11.112 47.9994 10.872C48.1914 10.632 48.2874 10.2 48.2874 9.576V0.611997ZM57.3414 11.646C57.3414 11.67 57.3114 11.688 57.2514 11.7C57.1914 11.712 57.1494 11.706 57.1254 11.682L48.9894 1.674C48.6054 1.206 48.2514 0.881998 47.9274 0.701998C47.6154 0.509998 47.3034 0.413997 46.9914 0.413997C46.9554 0.413997 46.9374 0.377998 46.9374 0.305998C46.9374 0.233998 46.9554 0.197998 46.9914 0.197998L47.6394 0.215998C47.7714 0.227998 47.9574 0.233998 48.1974 0.233998C48.4014 0.233998 48.5694 0.227998 48.7014 0.215998C48.8334 0.203998 48.9354 0.197998 49.0074 0.197998C49.0914 0.197998 49.1574 0.221998 49.2054 0.269997C49.2654 0.305997 49.3314 0.389997 49.4034 0.521997C49.5354 0.737997 49.6794 0.941997 49.8354 1.134L57.1974 10.278L57.3414 11.646ZM57.3414 11.646L56.9454 11.088V2.088C56.9454 1.476 56.8494 1.044 56.6574 0.791998C56.4654 0.539998 56.1174 0.413997 55.6134 0.413997C55.5894 0.413997 55.5774 0.377998 55.5774 0.305998C55.5774 0.233998 55.5894 0.197998 55.6134 0.197998L56.2974 0.215998C56.6574 0.239998 56.9454 0.251997 57.1614 0.251997C57.3654 0.251997 57.6594 0.239998 58.0434 0.215998L58.7454 0.197998C58.7814 0.197998 58.7994 0.233998 58.7994 0.305998C58.7994 0.377998 58.7814 0.413997 58.7454 0.413997C58.2294 0.413997 57.8634 0.539998 57.6474 0.791998C57.4434 1.044 57.3414 1.476 57.3414 2.088V11.646ZM59.6454 7.74C59.6214 7.74 59.5974 7.716 59.5734 7.668C59.5614 7.62 59.5554 7.566 59.5554 7.506C59.5554 7.458 59.5614 7.41 59.5734 7.362C59.5974 7.314 59.6154 7.29 59.6274 7.29H64.0014C64.0254 7.29 64.0434 7.314 64.0554 7.362C64.0794 7.41 64.0914 7.458 64.0914 7.506C64.0914 7.662 64.0614 7.74 64.0014 7.74H59.6454ZM61.7334 6.462C61.0494 6.462 60.4974 6.222 60.0774 5.742C59.6574 5.25 59.4474 4.656 59.4474 3.96C59.4474 3.444 59.5734 3.012 59.8254 2.664C60.0774 2.304 60.3954 2.034 60.7794 1.854C61.1634 1.674 61.5534 1.584 61.9494 1.584C62.4054 1.584 62.8014 1.698 63.1374 1.926C63.4854 2.154 63.7494 2.454 63.9294 2.826C64.1214 3.198 64.2174 3.594 64.2174 4.014C64.2174 4.458 64.1034 4.872 63.8754 5.256C63.6474 5.628 63.3414 5.922 62.9574 6.138C62.5854 6.354 62.1774 6.462 61.7334 6.462ZM62.0034 6.192C62.4714 6.192 62.8434 6.03 63.1194 5.706C63.4074 5.37 63.5514 4.914 63.5514 4.338C63.5514 3.642 63.3654 3.06 62.9934 2.592C62.6334 2.112 62.1714 1.872 61.6074 1.872C61.1274 1.872 60.7554 2.028 60.4914 2.34C60.2394 2.64 60.1134 3.066 60.1134 3.618C60.1134 4.314 60.2934 4.92 60.6534 5.436C61.0134 5.94 61.4634 6.192 62.0034 6.192ZM68.2196 11.664C67.1156 11.664 66.1496 11.214 65.3216 10.314L65.3036 10.278C65.3036 10.23 65.3276 10.194 65.3756 10.17C65.4356 10.134 65.4776 10.134 65.5016 10.17C65.8136 10.518 66.1976 10.782 66.6536 10.962C67.1216 11.142 67.5896 11.232 68.0576 11.232C68.8736 11.232 69.4856 10.974 69.8936 10.458C70.3016 9.93 70.5056 9.252 70.5056 8.424C70.5056 7.548 70.2476 6.858 69.7316 6.354C69.2156 5.838 68.3396 5.58 67.1036 5.58C67.0796 5.58 67.0616 5.568 67.0496 5.544C67.0376 5.508 67.0316 5.466 67.0316 5.418C67.0316 5.382 67.0376 5.352 67.0496 5.328C67.0736 5.292 67.0916 5.274 67.1036 5.274C68.1956 5.274 68.9696 5.064 69.4256 4.644C69.8936 4.224 70.1276 3.642 70.1276 2.898C70.1276 2.19 69.9416 1.638 69.5696 1.242C69.1976 0.845998 68.6756 0.647998 68.0036 0.647998C67.4756 0.647998 66.9836 0.773997 66.5276 1.026C66.0716 1.266 65.7356 1.626 65.5196 2.106C65.5196 2.118 65.5076 2.124 65.4836 2.124C65.4476 2.124 65.4056 2.112 65.3576 2.088C65.3216 2.064 65.3096 2.04 65.3216 2.016C65.5976 1.368 65.9996 0.869998 66.5276 0.521997C67.0676 0.173997 67.6916 -2.6226e-06 68.3996 -2.6226e-06C69.2516 -2.6226e-06 69.9116 0.239998 70.3796 0.719998C70.8476 1.2 71.0816 1.788 71.0816 2.484C71.0816 3.18 70.8476 3.816 70.3796 4.392C69.9236 4.956 69.3116 5.316 68.5436 5.472L68.5976 5.328C69.2216 5.292 69.7556 5.4 70.1996 5.652C70.6436 5.904 70.9796 6.264 71.2076 6.732C71.4476 7.2 71.5676 7.722 71.5676 8.298C71.5676 8.958 71.4236 9.546 71.1356 10.062C70.8476 10.566 70.4516 10.962 69.9476 11.25C69.4436 11.526 68.8676 11.664 68.2196 11.664Z" fill="#706760"/>
</svg>
