<svg width="111" height="13" viewBox="0 0 111 13" fill="none" xmlns="http://www.w3.org/2000/svg">
<path d="M10.48 9.872C10.576 9.872 10.6293 9.88266 10.64 9.904C10.6613 9.91466 10.672 9.968 10.672 10.064C10.672 10.2347 10.656 10.4373 10.624 10.672C10.5387 11.44 10.496 12.1707 10.496 12.864C10.496 12.9173 10.464 12.944 10.4 12.944C10.336 12.944 10.304 12.9173 10.304 12.864C10.304 11.9787 10.032 11.2907 9.488 10.8C8.944 10.3093 8.16534 10.064 7.152 10.064H3.12C2.14933 10.064 1.46133 10.2773 1.056 10.704C0.650668 11.1307 0.448001 11.8507 0.448001 12.864C0.448001 12.9173 0.416001 12.944 0.352001 12.944C0.288001 12.944 0.256001 12.9173 0.256001 12.864C0.256001 12.1387 0.224001 11.5627 0.160001 11.136C0.106668 10.72 0.0746677 10.4853 0.064001 10.432C0.0213343 10.1547 9.83477e-07 10 9.83477e-07 9.968C9.83477e-07 9.872 0.00533432 9.81866 0.016001 9.808C0.0373343 9.78666 0.096001 9.776 0.192001 9.776C0.981334 9.776 1.664 9.296 2.24 8.336C2.82667 7.36533 3.26933 6.224 3.568 4.91199C3.86667 3.59999 4.016 2.47466 4.016 1.53599C4.016 1.14133 3.86667 0.831995 3.568 0.607995C3.26933 0.373328 2.84267 0.255995 2.288 0.255995C2.256 0.255995 2.24 0.223995 2.24 0.159995C2.24 0.0959953 2.256 0.0639954 2.288 0.0639954H10.176C10.208 0.0639954 10.224 0.0959953 10.224 0.159995C10.224 0.223995 10.208 0.255995 10.176 0.255995C9.81334 0.255995 9.54667 0.287995 9.376 0.351995C9.20533 0.405328 9.088 0.506661 9.024 0.655995C8.96 0.805329 8.928 1.04 8.928 1.35999V8.768C8.928 9.184 8.94933 9.456 8.992 9.584C9.03467 9.712 9.14667 9.792 9.328 9.824C9.52 9.856 9.904 9.872 10.48 9.872ZM7.152 1.39199C7.152 1.06133 7.136 0.842662 7.104 0.735995C7.08267 0.618662 7.024 0.549328 6.928 0.527995C6.832 0.495995 6.64 0.479995 6.352 0.479995H5.424C5.14667 0.479995 4.94933 0.506661 4.832 0.559995C4.72533 0.613328 4.65067 0.709328 4.608 0.847995C4.576 0.975995 4.544 1.216 4.512 1.568C4.512 1.64266 4.50133 1.78666 4.48 2C4.30933 3.632 3.99467 5.22666 3.536 6.784C3.07733 8.33066 2.4 9.34933 1.504 9.84L1.408 9.632H6.272C6.336 9.632 6.48 9.632 6.704 9.632C6.93867 9.632 7.072 9.57333 7.104 9.456C7.136 9.328 7.152 9.088 7.152 8.736V1.39199ZM15.4104 10.256C14.653 10.256 13.9757 10.08 13.3784 9.728C12.781 9.36533 12.317 8.88533 11.9864 8.288C11.6557 7.68 11.4904 7.024 11.4904 6.32C11.4904 5.50933 11.6984 4.80533 12.1144 4.20799C12.541 3.61066 13.0797 3.15733 13.7304 2.84799C14.3917 2.53866 15.069 2.384 15.7624 2.384C16.5197 2.384 17.1864 2.57066 17.7624 2.94399C18.349 3.30666 18.8024 3.78666 19.1224 4.384C19.4424 4.97066 19.6024 5.58933 19.6024 6.24C19.6024 6.95466 19.4157 7.62133 19.0424 8.24C18.669 8.848 18.1624 9.33866 17.5224 9.712C16.8824 10.0747 16.1784 10.256 15.4104 10.256ZM15.7784 9.888C16.3757 9.888 16.8557 9.59466 17.2184 9.008C17.5917 8.42133 17.7784 7.61066 17.7784 6.576C17.7784 5.872 17.6717 5.232 17.4584 4.65599C17.245 4.07999 16.941 3.62666 16.5464 3.296C16.1624 2.95466 15.7144 2.784 15.2024 2.784C14.5837 2.784 14.1144 3.04 13.7944 3.552C13.4744 4.064 13.3144 4.82133 13.3144 5.824C13.3144 6.58133 13.421 7.27466 13.6344 7.904C13.8584 8.52266 14.157 9.008 14.5304 9.36C14.9037 9.712 15.3197 9.888 15.7784 9.888ZM23.1925 8.704C23.1925 9.03466 23.2245 9.28 23.2885 9.44C23.3632 9.6 23.4965 9.712 23.6885 9.776C23.8912 9.84 24.2005 9.872 24.6165 9.872C24.6485 9.872 24.6645 9.904 24.6645 9.968C24.6645 10.032 24.6485 10.064 24.6165 10.064C24.2112 10.064 23.8965 10.0587 23.6725 10.048L22.4085 10.032L21.3685 10.048C21.1765 10.0587 20.9098 10.064 20.5685 10.064C20.5472 10.064 20.5365 10.032 20.5365 9.968C20.5365 9.904 20.5472 9.872 20.5685 9.872C20.8672 9.872 21.0858 9.84533 21.2245 9.792C21.3738 9.728 21.4752 9.62133 21.5285 9.472C21.5818 9.32266 21.6085 9.088 21.6085 8.768V3.87199C21.6085 3.56266 21.5765 3.33333 21.5125 3.184C21.4592 3.024 21.3578 2.91733 21.2085 2.864C21.0698 2.79999 20.8565 2.76799 20.5685 2.76799C20.5472 2.76799 20.5365 2.73599 20.5365 2.672C20.5365 2.608 20.5472 2.57599 20.5685 2.57599L21.3525 2.592C21.8005 2.61333 22.1472 2.62399 22.3925 2.62399C22.6698 2.62399 22.9578 2.60799 23.2565 2.57599C23.3738 2.56533 23.5392 2.55466 23.7525 2.54399C23.9765 2.53333 24.1685 2.528 24.3285 2.528C25.2458 2.528 25.9445 2.67733 26.4245 2.976C26.9045 3.27466 27.1445 3.72266 27.1445 4.31999C27.1445 4.85333 27.0112 5.30666 26.7445 5.68C26.4885 6.05333 26.1472 6.336 25.7205 6.528C25.3045 6.70933 24.8618 6.8 24.3925 6.8C24.1898 6.8 24.0672 6.78933 24.0245 6.768C23.9925 6.74666 23.9765 6.70933 23.9765 6.656C23.9765 6.592 24.0138 6.56 24.0885 6.56L24.3125 6.576C24.6325 6.576 24.8832 6.42133 25.0645 6.112C25.2565 5.792 25.3525 5.31733 25.3525 4.68799C25.3525 4.02666 25.2352 3.55199 25.0005 3.264C24.7658 2.96533 24.4192 2.816 23.9605 2.816C23.6938 2.816 23.4965 2.89066 23.3685 3.04C23.2512 3.17866 23.1925 3.46666 23.1925 3.904V8.704ZM32.0198 10.256C31.2624 10.256 30.5851 10.08 29.9878 9.728C29.3904 9.36533 28.9264 8.88533 28.5958 8.288C28.2651 7.68 28.0998 7.024 28.0998 6.32C28.0998 5.50933 28.3078 4.80533 28.7238 4.20799C29.1504 3.61066 29.6891 3.15733 30.3398 2.84799C31.0011 2.53866 31.6784 2.384 32.3718 2.384C33.1291 2.384 33.7958 2.57066 34.3718 2.94399C34.9584 3.30666 35.4118 3.78666 35.7318 4.384C36.0518 4.97066 36.2118 5.58933 36.2118 6.24C36.2118 6.95466 36.0251 7.62133 35.6518 8.24C35.2784 8.848 34.7718 9.33866 34.1318 9.712C33.4918 10.0747 32.7878 10.256 32.0198 10.256ZM32.3878 9.888C32.9851 9.888 33.4651 9.59466 33.8278 9.008C34.2011 8.42133 34.3878 7.61066 34.3878 6.576C34.3878 5.872 34.2811 5.232 34.0678 4.65599C33.8544 4.07999 33.5504 3.62666 33.1558 3.296C32.7718 2.95466 32.3238 2.784 31.8118 2.784C31.1931 2.784 30.7238 3.04 30.4038 3.552C30.0838 4.064 29.9238 4.82133 29.9238 5.824C29.9238 6.58133 30.0304 7.27466 30.2438 7.904C30.4678 8.52266 30.7664 9.008 31.1398 9.36C31.5131 9.712 31.9291 9.888 32.3878 9.888ZM37.1779 10.064C37.1565 10.064 37.1459 10.032 37.1459 9.968C37.1459 9.904 37.1565 9.872 37.1779 9.872C37.4872 9.872 37.7112 9.84533 37.8499 9.792C37.9885 9.73866 38.0845 9.63733 38.1379 9.488C38.1912 9.328 38.2179 9.088 38.2179 8.768V3.87199C38.2179 3.55199 38.1912 3.31733 38.1379 3.16799C38.0845 3.01866 37.9832 2.91733 37.8339 2.864C37.6952 2.79999 37.4765 2.76799 37.1779 2.76799C37.1565 2.76799 37.1459 2.73599 37.1459 2.672C37.1459 2.608 37.1565 2.57599 37.1779 2.57599H43.0979C43.1939 2.57599 43.2419 2.61866 43.2419 2.704C43.2419 2.89599 43.2259 3.21599 43.1939 3.664L43.0979 5.02399C43.0979 5.056 43.0659 5.072 43.0019 5.072C42.9485 5.072 42.9165 5.056 42.9059 5.02399C42.6605 4.29866 42.3619 3.76533 42.0099 3.424C41.6579 3.08266 41.2259 2.91199 40.7139 2.91199H40.6019C40.2605 2.91199 40.0419 2.97599 39.9459 3.10399C39.8499 3.22133 39.8019 3.48266 39.8019 3.888V8.704C39.8019 9.03466 39.8339 9.28 39.8979 9.44C39.9725 9.6 40.1059 9.712 40.2979 9.776C40.5005 9.84 40.8099 9.872 41.2259 9.872C41.2579 9.872 41.2739 9.904 41.2739 9.968C41.2739 10.032 41.2579 10.064 41.2259 10.064C40.8099 10.064 40.4845 10.0587 40.2499 10.048L39.0179 10.032L37.9459 10.048C37.7645 10.0587 37.5085 10.064 37.1779 10.064ZM50.5333 3.904C50.5333 3.584 50.5066 3.34933 50.4533 3.2C50.3999 3.03999 50.3039 2.92799 50.1653 2.864C50.0266 2.79999 49.8079 2.76799 49.5093 2.76799C49.4773 2.76799 49.4613 2.73599 49.4613 2.672C49.4613 2.608 49.4773 2.57599 49.5093 2.57599L50.2773 2.592C50.7039 2.61333 51.0613 2.62399 51.3493 2.62399C51.6053 2.62399 51.9573 2.61333 52.4053 2.592L53.1733 2.57599C53.2053 2.57599 53.2213 2.608 53.2213 2.672C53.2213 2.73599 53.2053 2.76799 53.1733 2.76799C52.8746 2.76799 52.6506 2.79999 52.5013 2.864C52.3626 2.91733 52.2666 3.01866 52.2133 3.16799C52.1599 3.31733 52.1333 3.55199 52.1333 3.87199V8.768C52.1333 9.088 52.1599 9.328 52.2133 9.488C52.2666 9.63733 52.3626 9.73866 52.5013 9.792C52.6399 9.84533 52.8639 9.872 53.1733 9.872C53.2053 9.872 53.2213 9.904 53.2213 9.968C53.2213 10.032 53.2053 10.064 53.1733 10.064C52.8426 10.064 52.5866 10.0587 52.4053 10.048L51.3493 10.032L50.2773 10.048C50.0959 10.0587 49.8399 10.064 49.5093 10.064C49.4773 10.064 49.4613 10.032 49.4613 9.968C49.4613 9.904 49.4773 9.872 49.5093 9.872C49.8079 9.872 50.0266 9.84533 50.1653 9.792C50.3039 9.73866 50.3999 9.63733 50.4533 9.488C50.5066 9.328 50.5333 9.088 50.5333 8.768V3.904ZM45.7173 8.896L51.2693 3.344L51.5893 3.664L46.0213 9.216L45.7173 8.896ZM45.0933 3.87199C45.0933 3.55199 45.0666 3.31733 45.0133 3.16799C44.9599 3.01866 44.8586 2.91733 44.7093 2.864C44.5706 2.79999 44.3573 2.76799 44.0693 2.76799C44.0373 2.76799 44.0213 2.73599 44.0213 2.672C44.0213 2.608 44.0373 2.57599 44.0693 2.57599L44.8373 2.592C45.2639 2.61333 45.6106 2.62399 45.8773 2.62399C46.1653 2.62399 46.5226 2.61333 46.9493 2.592L47.7173 2.57599C47.7386 2.57599 47.7493 2.608 47.7493 2.672C47.7493 2.73599 47.7386 2.76799 47.7173 2.76799C47.2906 2.76799 47.0079 2.84266 46.8693 2.99199C46.7413 3.14133 46.6773 3.44533 46.6773 3.904V8.768C46.6773 9.088 46.7039 9.32266 46.7573 9.472C46.8106 9.62133 46.9066 9.728 47.0453 9.792C47.1946 9.84533 47.4186 9.872 47.7173 9.872C47.7386 9.872 47.7493 9.904 47.7493 9.968C47.7493 10.032 47.7386 10.064 47.7173 10.064C47.3866 10.064 47.1306 10.0587 46.9493 10.048L45.8773 10.032L44.8373 10.048C44.6453 10.0587 44.3786 10.064 44.0373 10.064C44.0159 10.064 44.0053 10.032 44.0053 9.968C44.0053 9.904 44.0159 9.872 44.0373 9.872C44.3466 9.872 44.5706 9.84533 44.7093 9.792C44.8586 9.73866 44.9599 9.63733 45.0133 9.488C45.0666 9.328 45.0933 9.088 45.0933 8.768V3.87199ZM54.1466 10.064C54.1253 10.064 54.1146 10.032 54.1146 9.968C54.1146 9.904 54.1253 9.872 54.1466 9.872C54.456 9.872 54.68 9.84533 54.8186 9.792C54.9573 9.73866 55.0533 9.63733 55.1066 9.488C55.16 9.328 55.1866 9.088 55.1866 8.768V3.87199C55.1866 3.55199 55.16 3.31733 55.1066 3.16799C55.0533 3.01866 54.952 2.91733 54.8026 2.864C54.664 2.79999 54.4453 2.76799 54.1466 2.76799C54.1253 2.76799 54.1146 2.73599 54.1146 2.672C54.1146 2.608 54.1253 2.57599 54.1466 2.57599H59.8746C59.9813 2.57599 60.0346 2.61866 60.0346 2.704L60.0506 3.69599C60.0613 3.89866 60.0666 4.15466 60.0666 4.46399C60.0666 4.496 60.0346 4.512 59.9706 4.512C59.9173 4.512 59.8853 4.496 59.8746 4.46399C59.672 3.99466 59.3626 3.59999 58.9466 3.27999C58.5306 2.94933 58.1093 2.784 57.6826 2.784H57.5706C57.336 2.784 57.16 2.816 57.0426 2.87999C56.936 2.93333 56.8613 3.03466 56.8186 3.184C56.7866 3.33333 56.7706 3.568 56.7706 3.888V8.704C56.7706 9.024 56.7866 9.25866 56.8186 9.408C56.8613 9.55733 56.936 9.664 57.0426 9.728C57.16 9.78133 57.336 9.808 57.5706 9.808H57.7466C58.248 9.808 58.744 9.632 59.2346 9.28C59.7253 8.91733 60.088 8.46933 60.3226 7.936C60.344 7.904 60.3813 7.888 60.4346 7.888C60.488 7.888 60.5146 7.904 60.5146 7.936C60.44 8.704 60.4026 9.33333 60.4026 9.824C60.4026 9.90933 60.3866 9.97333 60.3546 10.016C60.3226 10.048 60.2586 10.064 60.1626 10.064H54.1466ZM59.2186 6.64C59.1653 6.64 58.904 6.608 58.4346 6.544C57.976 6.48 57.1866 6.448 56.0666 6.448V6.048C57.1866 6.048 57.976 6.02133 58.4346 5.968C58.904 5.904 59.1653 5.87199 59.2186 5.87199C59.2933 5.87199 59.3306 5.98933 59.3306 6.224C59.3306 6.33066 59.32 6.42666 59.2986 6.512C59.2773 6.59733 59.2506 6.64 59.2186 6.64ZM65.3185 10.064C65.2972 10.064 65.2865 10.032 65.2865 9.968C65.2865 9.904 65.2972 9.872 65.3185 9.872C65.6278 9.872 65.8518 9.84533 65.9905 9.792C66.1292 9.73866 66.2252 9.63733 66.2785 9.488C66.3318 9.328 66.3585 9.088 66.3585 8.768V3.87199C66.3585 3.55199 66.3318 3.31733 66.2785 3.16799C66.2252 3.01866 66.1238 2.91733 65.9745 2.864C65.8358 2.79999 65.6172 2.76799 65.3185 2.76799C65.2972 2.76799 65.2865 2.73599 65.2865 2.672C65.2865 2.608 65.2972 2.57599 65.3185 2.57599H71.2385C71.3345 2.57599 71.3825 2.61866 71.3825 2.704C71.3825 2.89599 71.3665 3.21599 71.3345 3.664L71.2385 5.02399C71.2385 5.056 71.2065 5.072 71.1425 5.072C71.0892 5.072 71.0572 5.056 71.0465 5.02399C70.8012 4.29866 70.5025 3.76533 70.1505 3.424C69.7985 3.08266 69.3665 2.91199 68.8545 2.91199H68.7425C68.4012 2.91199 68.1825 2.97599 68.0865 3.10399C67.9905 3.22133 67.9425 3.48266 67.9425 3.888V8.704C67.9425 9.03466 67.9745 9.28 68.0385 9.44C68.1132 9.6 68.2465 9.712 68.4385 9.776C68.6412 9.84 68.9505 9.872 69.3665 9.872C69.3985 9.872 69.4145 9.904 69.4145 9.968C69.4145 10.032 69.3985 10.064 69.3665 10.064C68.9505 10.064 68.6252 10.0587 68.3905 10.048L67.1585 10.032L66.0865 10.048C65.9052 10.0587 65.6492 10.064 65.3185 10.064ZM76.0979 10.256C75.3405 10.256 74.6632 10.08 74.0659 9.728C73.4685 9.36533 73.0045 8.88533 72.6739 8.288C72.3432 7.68 72.1779 7.024 72.1779 6.32C72.1779 5.50933 72.3859 4.80533 72.8019 4.20799C73.2285 3.61066 73.7672 3.15733 74.4179 2.84799C75.0792 2.53866 75.7565 2.384 76.4499 2.384C77.2072 2.384 77.8739 2.57066 78.4499 2.94399C79.0365 3.30666 79.4899 3.78666 79.8099 4.384C80.1299 4.97066 80.2899 5.58933 80.2899 6.24C80.2899 6.95466 80.1032 7.62133 79.7299 8.24C79.3565 8.848 78.8499 9.33866 78.2099 9.712C77.5699 10.0747 76.8659 10.256 76.0979 10.256ZM76.4659 9.888C77.0632 9.888 77.5432 9.59466 77.9059 9.008C78.2792 8.42133 78.4659 7.61066 78.4659 6.576C78.4659 5.872 78.3592 5.232 78.1459 4.65599C77.9325 4.07999 77.6285 3.62666 77.2339 3.296C76.8499 2.95466 76.4019 2.784 75.8899 2.784C75.2712 2.784 74.8019 3.04 74.4819 3.552C74.1619 4.064 74.0019 4.82133 74.0019 5.824C74.0019 6.58133 74.1085 7.27466 74.3219 7.904C74.5459 8.52266 74.8445 9.008 75.2179 9.36C75.5912 9.712 76.0072 9.888 76.4659 9.888ZM85.704 2.384C86.0987 2.384 86.5253 2.42666 86.984 2.51199C87.4533 2.59733 87.8373 2.70933 88.136 2.84799C88.2107 2.88 88.2587 2.91733 88.28 2.95999C88.3013 2.992 88.312 3.04533 88.312 3.12L88.392 4.76799C88.392 4.8 88.3653 4.82133 88.312 4.832C88.2587 4.84266 88.2213 4.82666 88.2 4.784C87.7947 4.09066 87.3787 3.57866 86.952 3.24799C86.536 2.90666 86.056 2.73599 85.512 2.73599C84.7547 2.73599 84.1733 3.03999 83.768 3.64799C83.3627 4.24533 83.16 5.04533 83.16 6.048C83.16 6.70933 83.2507 7.33333 83.432 7.92C83.624 8.50666 83.9227 8.98666 84.328 9.36C84.7333 9.73333 85.2453 9.92 85.864 9.92C86.408 9.92 86.8667 9.75466 87.24 9.424C87.624 9.09333 87.9973 8.56 88.36 7.824C88.3707 7.78133 88.4027 7.76533 88.456 7.776C88.5093 7.78666 88.536 7.808 88.536 7.84L88.408 9.536C88.3973 9.62133 88.3813 9.68 88.36 9.712C88.3387 9.744 88.28 9.78133 88.184 9.824C87.3627 10.112 86.5093 10.256 85.624 10.256C84.6 10.256 83.7627 10.0533 83.112 9.648C82.4613 9.24266 81.9867 8.736 81.688 8.128C81.4 7.52 81.256 6.90666 81.256 6.288C81.256 5.56266 81.448 4.90133 81.832 4.304C82.2267 3.70666 82.76 3.23733 83.432 2.896C84.1147 2.55466 84.872 2.384 85.704 2.384ZM91.8684 2.896C91.463 2.896 91.0737 3.06666 90.7004 3.408C90.3377 3.74933 90.0497 4.21333 89.8364 4.79999C89.8257 4.832 89.7937 4.848 89.7404 4.848C89.687 4.848 89.6604 4.832 89.6604 4.79999C89.703 4.45866 89.751 4.01599 89.8044 3.47199C89.8577 2.91733 89.8844 2.50133 89.8844 2.224C89.8844 2.17066 89.911 2.14399 89.9644 2.14399C90.0284 2.14399 90.0604 2.17066 90.0604 2.224C90.0604 2.36266 90.1404 2.45333 90.3004 2.496C90.4604 2.52799 90.663 2.54399 90.9084 2.54399C91.8257 2.56533 92.631 2.57599 93.3244 2.57599L94.7164 2.56C94.8977 2.54933 95.143 2.54399 95.4524 2.54399C95.8684 2.54399 96.1777 2.52266 96.3804 2.47999C96.5937 2.42666 96.727 2.31999 96.7804 2.16C96.791 2.128 96.823 2.112 96.8764 2.112C96.9404 2.112 96.9724 2.128 96.9724 2.16L96.9244 2.95999C96.8604 3.89866 96.8284 4.512 96.8284 4.79999C96.8284 4.832 96.7964 4.848 96.7324 4.848C96.6684 4.848 96.6364 4.832 96.6364 4.79999C96.583 4.46933 96.4604 4.16 96.2684 3.87199C96.0764 3.57333 95.847 3.33866 95.5804 3.16799C95.3244 2.98666 95.063 2.896 94.7964 2.896C94.5404 2.896 94.3697 2.96533 94.2844 3.10399C94.199 3.232 94.1564 3.488 94.1564 3.87199V8.768C94.1564 9.088 94.183 9.328 94.2364 9.488C94.3004 9.63733 94.4124 9.73866 94.5724 9.792C94.7324 9.84533 94.9884 9.872 95.3404 9.872C95.3724 9.872 95.3884 9.904 95.3884 9.968C95.3884 10.032 95.3724 10.064 95.3404 10.064C94.9884 10.064 94.711 10.0587 94.5084 10.048L93.3084 10.032L92.1404 10.048C91.9377 10.0587 91.6497 10.064 91.2764 10.064C91.255 10.064 91.2444 10.032 91.2444 9.968C91.2444 9.904 91.255 9.872 91.2764 9.872C91.639 9.872 91.9004 9.84533 92.0604 9.792C92.231 9.73866 92.343 9.63733 92.3964 9.488C92.4604 9.328 92.4924 9.088 92.4924 8.768V3.83999C92.4924 3.44533 92.455 3.18933 92.3804 3.072C92.3057 2.95466 92.135 2.896 91.8684 2.896ZM104.268 3.904C104.268 3.584 104.241 3.34933 104.188 3.2C104.134 3.03999 104.038 2.92799 103.9 2.864C103.761 2.79999 103.542 2.76799 103.244 2.76799C103.212 2.76799 103.196 2.73599 103.196 2.672C103.196 2.608 103.212 2.57599 103.244 2.57599L104.012 2.592C104.438 2.61333 104.796 2.62399 105.084 2.62399C105.34 2.62399 105.692 2.61333 106.14 2.592L106.908 2.57599C106.94 2.57599 106.956 2.608 106.956 2.672C106.956 2.73599 106.94 2.76799 106.908 2.76799C106.609 2.76799 106.385 2.79999 106.236 2.864C106.097 2.91733 106.001 3.01866 105.948 3.16799C105.894 3.31733 105.868 3.55199 105.868 3.87199V8.768C105.868 9.088 105.894 9.328 105.948 9.488C106.001 9.63733 106.097 9.73866 106.236 9.792C106.374 9.84533 106.598 9.872 106.908 9.872C106.94 9.872 106.956 9.904 106.956 9.968C106.956 10.032 106.94 10.064 106.908 10.064C106.577 10.064 106.321 10.0587 106.14 10.048L105.084 10.032L104.012 10.048C103.83 10.0587 103.574 10.064 103.244 10.064C103.212 10.064 103.196 10.032 103.196 9.968C103.196 9.904 103.212 9.872 103.244 9.872C103.542 9.872 103.761 9.84533 103.9 9.792C104.038 9.73866 104.134 9.63733 104.188 9.488C104.241 9.328 104.268 9.088 104.268 8.768V3.904ZM99.4516 8.896L105.004 3.344L105.324 3.664L99.7556 9.216L99.4516 8.896ZM98.8276 3.87199C98.8276 3.55199 98.801 3.31733 98.7476 3.16799C98.6943 3.01866 98.593 2.91733 98.4436 2.864C98.305 2.79999 98.0916 2.76799 97.8036 2.76799C97.7716 2.76799 97.7556 2.73599 97.7556 2.672C97.7556 2.608 97.7716 2.57599 97.8036 2.57599L98.5716 2.592C98.9983 2.61333 99.345 2.62399 99.6116 2.62399C99.8996 2.62399 100.257 2.61333 100.684 2.592L101.452 2.57599C101.473 2.57599 101.484 2.608 101.484 2.672C101.484 2.73599 101.473 2.76799 101.452 2.76799C101.025 2.76799 100.742 2.84266 100.604 2.99199C100.476 3.14133 100.412 3.44533 100.412 3.904V8.768C100.412 9.088 100.438 9.32266 100.492 9.472C100.545 9.62133 100.641 9.728 100.78 9.792C100.929 9.84533 101.153 9.872 101.452 9.872C101.473 9.872 101.484 9.904 101.484 9.968C101.484 10.032 101.473 10.064 101.452 10.064C101.121 10.064 100.865 10.0587 100.684 10.048L99.6116 10.032L98.5716 10.048C98.3796 10.0587 98.113 10.064 97.7716 10.064C97.7503 10.064 97.7396 10.032 97.7396 9.968C97.7396 9.904 97.7503 9.872 97.7716 9.872C98.081 9.872 98.305 9.84533 98.4436 9.792C98.593 9.73866 98.6943 9.63733 98.7476 9.488C98.801 9.328 98.8276 9.088 98.8276 8.768V3.87199ZM108.377 0.223995C108.356 0.149328 108.468 0.0959949 108.713 0.0639954C108.958 0.0213286 109.22 -4.76837e-06 109.497 -4.76837e-06C109.774 -4.76837e-06 110.036 0.0213286 110.281 0.0639954C110.537 0.0959949 110.654 0.149328 110.633 0.223995C110.398 1.03466 110.222 1.91999 110.105 2.87999C109.998 3.83999 109.886 5.05599 109.769 6.528C109.769 6.63466 109.758 6.80533 109.737 7.04C109.737 7.06133 109.705 7.08266 109.641 7.104C109.588 7.11466 109.529 7.12 109.465 7.12C109.401 7.12 109.337 7.11466 109.273 7.104C109.22 7.08266 109.193 7.06133 109.193 7.04C109.097 5.46133 108.996 4.15466 108.889 3.12C108.782 2.07466 108.612 1.10933 108.377 0.223995ZM109.401 10.24C109.102 10.24 108.862 10.1547 108.681 9.984C108.51 9.80266 108.425 9.56266 108.425 9.264C108.425 8.98666 108.51 8.76266 108.681 8.592C108.862 8.42133 109.102 8.336 109.401 8.336C109.7 8.336 109.929 8.42133 110.089 8.592C110.26 8.752 110.345 8.976 110.345 9.264C110.345 9.57333 110.26 9.81333 110.089 9.984C109.929 10.1547 109.7 10.24 109.401 10.24Z" fill="#706760"/>
</svg>
