<svg width="218" height="51" viewBox="0 0 218 51" fill="none" xmlns="http://www.w3.org/2000/svg">
<path d="M77 6C77 3.23858 79.2386 1 82 1H133C135.761 1 138 3.23858 138 6V6C138 8.76142 135.761 11 133 11H82C79.2386 11 77 8.76142 77 6V6Z" fill="#DD9794"/>
<path d="M97.29 2.98L97.53 3L97.43 7.91C97.4233 8.26333 97.4833 8.51333 97.61 8.66C97.7367 8.80667 97.96 8.88 98.28 8.88C98.2933 8.88 98.3 8.9 98.3 8.94C98.3 8.98 98.2933 9 98.28 9C98.0933 9 97.95 8.99667 97.85 8.99L97.31 8.98L96.79 8.99C96.6967 8.99667 96.5633 9 96.39 9C96.3767 9 96.37 8.98 96.37 8.94C96.37 8.9 96.3767 8.88 96.39 8.88C96.67 8.88 96.87 8.80667 96.99 8.66C97.1167 8.50667 97.1833 8.25667 97.19 7.91L97.29 2.98ZM104.12 8.88C104.14 8.88 104.15 8.9 104.15 8.94C104.15 8.98 104.14 9 104.12 9C103.913 9 103.75 8.99667 103.63 8.99L102.94 8.98L102.3 8.99C102.193 8.99667 102.043 9 101.85 9C101.837 9 101.83 8.98 101.83 8.94C101.83 8.9 101.837 8.88 101.85 8.88C102.077 8.88 102.243 8.86333 102.35 8.83C102.463 8.79 102.537 8.72333 102.57 8.63C102.61 8.53667 102.623 8.39 102.61 8.19L102.42 3.36L102.75 2.9L100.15 8.93C100.137 8.95667 100.11 8.97 100.07 8.97C100.037 8.97 100.007 8.95667 99.98 8.93L97.47 3.58C97.3567 3.33333 97.2167 3.15333 97.05 3.04C96.89 2.92667 96.6933 2.87 96.46 2.87C96.4467 2.87 96.44 2.85 96.44 2.81C96.44 2.77 96.4467 2.75 96.46 2.75L96.83 2.76C96.8967 2.76667 96.99 2.77 97.11 2.77C97.23 2.77 97.33 2.76667 97.41 2.76C97.4967 2.75333 97.5633 2.75 97.61 2.75C97.6967 2.75 97.7667 2.78333 97.82 2.85C97.88 2.91 97.9633 3.05 98.07 3.27L100.35 8.07L100.04 8.59L102.48 3C102.553 2.83333 102.653 2.75 102.78 2.75C102.813 2.75 102.86 2.75333 102.92 2.76C102.987 2.76667 103.073 2.77 103.18 2.77L103.65 2.76C103.723 2.75333 103.833 2.75 103.98 2.75C103.993 2.75 104 2.77 104 2.81C104 2.85 103.993 2.87 103.98 2.87C103.64 2.87 103.397 2.92 103.25 3.02C103.11 3.11333 103.047 3.29333 103.06 3.56L103.26 8.19C103.267 8.39667 103.29 8.54667 103.33 8.64C103.377 8.73333 103.457 8.79667 103.57 8.83C103.683 8.86333 103.867 8.88 104.12 8.88ZM106.24 6.52H108.06L108.13 6.7H106.08L106.24 6.52ZM109.91 8.88C109.936 8.88 109.95 8.9 109.95 8.94C109.95 8.98 109.936 9 109.91 9C109.79 9 109.596 8.99333 109.33 8.98C109.063 8.96667 108.87 8.96 108.75 8.96C108.643 8.96 108.503 8.96667 108.33 8.98C108.156 8.99333 108.023 9 107.93 9C107.903 9 107.89 8.98 107.89 8.94C107.89 8.9 107.903 8.88 107.93 8.88C108.11 8.88 108.24 8.86 108.32 8.82C108.406 8.77333 108.45 8.69667 108.45 8.59C108.45 8.49667 108.406 8.35333 108.32 8.16L106.8 4.88L107.06 4.66L105.81 7.77C105.703 8.02333 105.65 8.23333 105.65 8.4C105.65 8.57333 105.71 8.69667 105.83 8.77C105.95 8.84333 106.133 8.88 106.38 8.88C106.413 8.88 106.43 8.9 106.43 8.94C106.43 8.98 106.413 9 106.38 9C106.28 9 106.143 8.99333 105.97 8.98C105.783 8.96667 105.61 8.96 105.45 8.96C105.283 8.96 105.086 8.96667 104.86 8.98C104.66 8.99333 104.5 9 104.38 9C104.346 9 104.33 8.98 104.33 8.94C104.33 8.9 104.346 8.88 104.38 8.88C104.586 8.88 104.75 8.85333 104.87 8.8C104.99 8.74 105.1 8.62667 105.2 8.46C105.306 8.29333 105.433 8.03333 105.58 7.68L107.02 4.17C107.033 4.14333 107.053 4.13 107.08 4.13C107.106 4.13 107.123 4.14333 107.13 4.17L108.74 7.63C108.913 8.00333 109.05 8.27333 109.15 8.44C109.256 8.60667 109.363 8.72333 109.47 8.79C109.583 8.85 109.73 8.88 109.91 8.88ZM114.446 5.15C114.446 4.95 114.426 4.80333 114.386 4.71C114.352 4.61 114.282 4.54 114.176 4.5C114.076 4.46 113.919 4.44 113.706 4.44C113.686 4.44 113.676 4.42 113.676 4.38C113.676 4.34 113.686 4.32 113.706 4.32L114.146 4.33C114.386 4.34333 114.589 4.35 114.756 4.35C114.902 4.35 115.102 4.34333 115.356 4.33L115.806 4.32C115.826 4.32 115.836 4.34 115.836 4.38C115.836 4.42 115.826 4.44 115.806 4.44C115.586 4.44 115.422 4.46 115.316 4.5C115.216 4.53333 115.146 4.59667 115.106 4.69C115.066 4.78333 115.046 4.93 115.046 5.13V8.19C115.046 8.39 115.066 8.54 115.106 8.64C115.146 8.73333 115.216 8.79667 115.316 8.83C115.422 8.86333 115.586 8.88 115.806 8.88C115.826 8.88 115.836 8.9 115.836 8.94C115.836 8.98 115.826 9 115.806 9C115.619 9 115.469 8.99667 115.356 8.99L114.756 8.98L114.146 8.99C114.039 8.99667 113.892 9 113.706 9C113.686 9 113.676 8.98 113.676 8.94C113.676 8.9 113.686 8.88 113.706 8.88C113.926 8.88 114.086 8.86333 114.186 8.83C114.286 8.79667 114.352 8.73333 114.386 8.64C114.426 8.54 114.446 8.39 114.446 8.19V5.15ZM111.236 8.33L114.706 4.86L114.856 5L111.376 8.47L111.236 8.33ZM111.046 5.13C111.046 4.93 111.026 4.78333 110.986 4.69C110.952 4.59667 110.882 4.53333 110.776 4.5C110.676 4.46 110.516 4.44 110.296 4.44C110.282 4.44 110.276 4.42 110.276 4.38C110.276 4.34 110.282 4.32 110.296 4.32L110.746 4.33C110.999 4.34333 111.196 4.35 111.336 4.35C111.502 4.35 111.712 4.34333 111.966 4.33L112.396 4.32C112.409 4.32 112.416 4.34 112.416 4.38C112.416 4.42 112.409 4.44 112.396 4.44C112.182 4.44 112.022 4.46 111.916 4.5C111.809 4.54 111.736 4.61 111.696 4.71C111.662 4.80333 111.646 4.95 111.646 5.15V8.19C111.646 8.39667 111.662 8.54667 111.696 8.64C111.736 8.73333 111.806 8.79667 111.906 8.83C112.006 8.86333 112.169 8.88 112.396 8.88C112.409 8.88 112.416 8.9 112.416 8.94C112.416 8.98 112.409 9 112.396 9C112.209 9 112.062 8.99667 111.956 8.99L111.336 8.98L110.746 8.99C110.632 8.99667 110.479 9 110.286 9C110.272 9 110.266 8.98 110.266 8.94C110.266 8.9 110.272 8.88 110.286 8.88C110.506 8.88 110.666 8.86333 110.766 8.83C110.872 8.79667 110.946 8.73333 110.986 8.64C111.026 8.54 111.046 8.39 111.046 8.19V5.13ZM113.036 3.72C113.222 3.72 113.376 3.66333 113.496 3.55C113.616 3.43667 113.699 3.29 113.746 3.11C113.792 2.95 113.842 2.83 113.896 2.75C113.949 2.67 114.036 2.63 114.156 2.63C114.249 2.63 114.319 2.66 114.366 2.72C114.419 2.77333 114.446 2.84667 114.446 2.94C114.446 3.09333 114.379 3.24 114.246 3.38C114.112 3.52 113.936 3.63333 113.716 3.72C113.502 3.8 113.279 3.84 113.046 3.84C112.812 3.84 112.589 3.79667 112.376 3.71C112.162 3.62333 111.989 3.51 111.856 3.37C111.729 3.23 111.666 3.08333 111.666 2.93C111.666 2.73 111.762 2.63 111.956 2.63C112.076 2.63 112.159 2.67 112.206 2.75C112.259 2.82333 112.312 2.94333 112.366 3.11C112.479 3.51667 112.702 3.72 113.036 3.72Z" fill="#2F2C29"/>
<rect y="9" width="218" height="42" rx="21" fill="#DD9794"/>
<rect x="157" y="12" width="22" height="35" rx="10" fill="#706760"/>
<path d="M23.0347 24.88C23.048 24.88 23.0547 24.9 23.0547 24.94C23.0547 24.98 23.048 25 23.0347 25C22.8213 25 22.6547 24.9967 22.5347 24.99L21.8747 24.98L21.1947 24.99C21.0747 24.9967 20.9147 25 20.7147 25C20.7013 25 20.6947 24.98 20.6947 24.94C20.6947 24.9 20.7013 24.88 20.7147 24.88C20.9813 24.88 21.1747 24.8633 21.2947 24.83C21.4147 24.7967 21.4947 24.7333 21.5347 24.64C21.5813 24.5467 21.6047 24.3967 21.6047 24.19V19.58C21.6047 19.3533 21.5913 19.2033 21.5647 19.13C21.538 19.0567 21.4747 19.01 21.3747 18.99C21.2747 18.97 21.068 18.96 20.7547 18.96H18.7047C18.3847 18.96 18.168 18.97 18.0547 18.99C17.9413 19.01 17.8713 19.06 17.8447 19.14C17.818 19.2133 17.8047 19.36 17.8047 19.58V24.19C17.8047 24.3967 17.8247 24.5467 17.8647 24.64C17.9113 24.7333 17.9947 24.7967 18.1147 24.83C18.2347 24.8633 18.428 24.88 18.6947 24.88C18.708 24.88 18.7147 24.9 18.7147 24.94C18.7147 24.98 18.708 25 18.6947 25C18.4947 25 18.3347 24.9967 18.2147 24.99L17.5347 24.98L16.8747 24.99C16.7547 24.9967 16.588 25 16.3747 25C16.3613 25 16.3547 24.98 16.3547 24.94C16.3547 24.9 16.3613 24.88 16.3747 24.88C16.6347 24.88 16.8247 24.8633 16.9447 24.83C17.0713 24.7967 17.158 24.7333 17.2047 24.64C17.2513 24.54 17.2747 24.39 17.2747 24.19V19.68C17.2747 19.4733 17.2513 19.3133 17.2047 19.2C17.1647 19.0867 17.078 19.0033 16.9447 18.95C16.818 18.8967 16.6313 18.87 16.3847 18.87C16.3713 18.87 16.3647 18.85 16.3647 18.81C16.3647 18.77 16.3713 18.75 16.3847 18.75C16.6113 18.75 16.8247 18.7533 17.0247 18.76C17.9047 18.7733 18.8113 18.78 19.7447 18.78C20.5847 18.78 21.5647 18.77 22.6847 18.75H23.0347C23.048 18.75 23.0547 18.77 23.0547 18.81C23.0547 18.85 23.048 18.87 23.0347 18.87C22.7813 18.87 22.5913 18.8967 22.4647 18.95C22.338 19.0033 22.2513 19.0867 22.2047 19.2C22.158 19.3133 22.1347 19.4733 22.1347 19.68V24.19C22.1347 24.39 22.158 24.54 22.2047 24.64C22.2513 24.7333 22.3347 24.7967 22.4547 24.83C22.5813 24.8633 22.7747 24.88 23.0347 24.88ZM29.1872 19.58C29.1872 19.38 29.1639 19.2333 29.1172 19.14C29.0772 19.04 28.9939 18.97 28.8672 18.93C28.7472 18.89 28.5572 18.87 28.2972 18.87C28.2772 18.87 28.2672 18.85 28.2672 18.81C28.2672 18.77 28.2772 18.75 28.2972 18.75L28.7672 18.76C29.0472 18.7733 29.2772 18.78 29.4572 18.78C29.6239 18.78 29.8472 18.7733 30.1272 18.76L30.6072 18.75C30.6272 18.75 30.6372 18.77 30.6372 18.81C30.6372 18.85 30.6272 18.87 30.6072 18.87C30.3472 18.87 30.1539 18.89 30.0272 18.93C29.9072 18.9633 29.8239 19.0267 29.7772 19.12C29.7306 19.2133 29.7072 19.36 29.7072 19.56V24.19C29.7072 24.39 29.7306 24.54 29.7772 24.64C29.8239 24.7333 29.9072 24.7967 30.0272 24.83C30.1539 24.8633 30.3472 24.88 30.6072 24.88C30.6272 24.88 30.6372 24.9 30.6372 24.94C30.6372 24.98 30.6272 25 30.6072 25C30.4006 25 30.2406 24.9967 30.1272 24.99L29.4572 24.98L28.7672 24.99C28.6539 24.9967 28.4972 25 28.2972 25C28.2772 25 28.2672 24.98 28.2672 24.94C28.2672 24.9 28.2772 24.88 28.2972 24.88C28.5639 24.88 28.7572 24.8633 28.8772 24.83C28.9972 24.7967 29.0772 24.7333 29.1172 24.64C29.1639 24.5467 29.1872 24.3967 29.1872 24.19V19.58ZM24.9072 21.65H29.4072V21.84H24.9072V21.65ZM24.6672 19.56C24.6672 19.36 24.6439 19.2133 24.5972 19.12C24.5572 19.0267 24.4739 18.9633 24.3472 18.93C24.2272 18.89 24.0372 18.87 23.7772 18.87C23.7639 18.87 23.7572 18.85 23.7572 18.81C23.7572 18.77 23.7639 18.75 23.7772 18.75L24.2672 18.76C24.5472 18.7733 24.7672 18.78 24.9272 18.78C25.1072 18.78 25.3372 18.7733 25.6172 18.76L26.0872 18.75C26.1006 18.75 26.1072 18.77 26.1072 18.81C26.1072 18.85 26.1006 18.87 26.0872 18.87C25.8272 18.87 25.6339 18.89 25.5072 18.93C25.3872 18.97 25.3039 19.04 25.2572 19.14C25.2172 19.2333 25.1972 19.38 25.1972 19.58V24.19C25.1972 24.3967 25.2172 24.5467 25.2572 24.64C25.3039 24.7333 25.3872 24.7967 25.5072 24.83C25.6272 24.8633 25.8206 24.88 26.0872 24.88C26.1006 24.88 26.1072 24.9 26.1072 24.94C26.1072 24.98 26.1006 25 26.0872 25C25.8872 25 25.7272 24.9967 25.6072 24.99L24.9272 24.98L24.2672 24.99C24.1472 24.9967 23.9806 25 23.7672 25C23.7539 25 23.7472 24.98 23.7472 24.94C23.7472 24.9 23.7539 24.88 23.7672 24.88C24.0272 24.88 24.2172 24.8633 24.3372 24.83C24.4639 24.7967 24.5506 24.7333 24.5972 24.64C24.6439 24.54 24.6672 24.39 24.6672 24.19V19.56Z" fill="#2F2C29"/>
<path d="M52.1867 21.47C52.56 21.47 52.89 21.5433 53.1767 21.69C53.4634 21.8367 53.6867 22.0367 53.8467 22.29C54.0067 22.5433 54.0867 22.83 54.0867 23.15C54.0867 23.51 54.0034 23.8333 53.8367 24.12C53.67 24.4067 53.44 24.6333 53.1467 24.8C52.8534 24.96 52.53 25.04 52.1767 25.04C51.95 25.04 51.71 25.03 51.4567 25.01C51.3634 25.0033 51.2534 24.9967 51.1267 24.99C51 24.9833 50.8567 24.98 50.6967 24.98L50.0367 24.99C49.9167 24.9967 49.75 25 49.5367 25C49.5234 25 49.5167 24.98 49.5167 24.94C49.5167 24.9 49.5234 24.88 49.5367 24.88C49.8034 24.88 49.9967 24.8633 50.1167 24.83C50.2434 24.7967 50.33 24.7333 50.3767 24.64C50.4234 24.54 50.4467 24.39 50.4467 24.19V19.56C50.4467 19.36 50.4234 19.2133 50.3767 19.12C50.3367 19.0267 50.2534 18.9633 50.1267 18.93C50.0067 18.89 49.8167 18.87 49.5567 18.87C49.5367 18.87 49.5267 18.85 49.5267 18.81C49.5267 18.77 49.5367 18.75 49.5567 18.75L50.0367 18.76C50.3034 18.7733 50.5234 18.78 50.6967 18.78C50.8167 18.78 50.93 18.7767 51.0367 18.77C51.1434 18.7633 51.2367 18.7567 51.3167 18.75C51.53 18.73 51.7134 18.72 51.8667 18.72C52.42 18.72 52.8267 18.8467 53.0867 19.1C53.3534 19.3467 53.4867 19.6633 53.4867 20.05C53.4867 20.4167 53.3567 20.7333 53.0967 21C52.8367 21.2667 52.4967 21.4533 52.0767 21.56L52.1867 21.47ZM51.6367 18.85C51.45 18.85 51.3134 18.8633 51.2267 18.89C51.14 18.9167 51.0734 18.98 51.0267 19.08C50.9867 19.18 50.9667 19.3467 50.9667 19.58V21.54L50.6667 21.46C50.9534 21.48 51.21 21.49 51.4367 21.49C51.9634 21.49 52.3467 21.3667 52.5867 21.12C52.8267 20.8667 52.9467 20.5333 52.9467 20.12C52.9467 19.7467 52.84 19.4433 52.6267 19.21C52.42 18.97 52.09 18.85 51.6367 18.85ZM52.0367 24.88C52.53 24.88 52.8967 24.7533 53.1367 24.5C53.3834 24.24 53.5067 23.8733 53.5067 23.4C53.5067 22.8933 53.35 22.4833 53.0367 22.17C52.73 21.85 52.3134 21.6867 51.7867 21.68C51.38 21.6667 51.0167 21.6833 50.6967 21.73L50.9667 21.62V24.19C50.9667 24.37 50.9934 24.51 51.0467 24.61C51.1067 24.7033 51.2134 24.7733 51.3667 24.82C51.52 24.86 51.7434 24.88 52.0367 24.88ZM56.385 18.92C55.965 18.92 55.6583 19.02 55.465 19.22C55.2716 19.42 55.1416 19.7767 55.075 20.29C55.075 20.3033 55.055 20.31 55.015 20.31C54.975 20.31 54.955 20.3033 54.955 20.29C54.9816 20.11 55.0116 19.8233 55.045 19.43C55.0783 19.03 55.095 18.73 55.095 18.53C55.095 18.4967 55.115 18.48 55.155 18.48C55.195 18.48 55.215 18.4967 55.215 18.53C55.215 18.6767 55.3916 18.75 55.745 18.75C56.3183 18.77 56.9883 18.78 57.755 18.78C58.1483 18.78 58.565 18.7733 59.005 18.76L59.685 18.75C59.925 18.75 60.1016 18.7333 60.215 18.7C60.3283 18.6667 60.4016 18.6 60.435 18.5C60.4416 18.4733 60.4616 18.46 60.495 18.46C60.5283 18.46 60.545 18.4733 60.545 18.5C60.525 18.6867 60.505 18.9733 60.485 19.36C60.465 19.74 60.455 20.05 60.455 20.29C60.455 20.3033 60.435 20.31 60.395 20.31C60.355 20.31 60.335 20.3033 60.335 20.29C60.335 19.9367 60.2983 19.6633 60.225 19.47C60.1516 19.2767 60.0283 19.1367 59.855 19.05C59.6816 18.9633 59.4383 18.92 59.125 18.92C58.7783 18.92 58.535 18.9333 58.395 18.96C58.255 18.98 58.1583 19.0333 58.105 19.12C58.0583 19.2067 58.035 19.36 58.035 19.58V24.19C58.035 24.3967 58.0583 24.5467 58.105 24.64C58.1516 24.7333 58.245 24.7967 58.385 24.83C58.525 24.8633 58.745 24.88 59.045 24.88C59.0583 24.88 59.065 24.9 59.065 24.94C59.065 24.98 59.0583 25 59.045 25C58.825 25 58.6516 24.9967 58.525 24.99L57.755 24.98L57.025 24.99C56.8916 24.9967 56.7083 25 56.475 25C56.4616 25 56.455 24.98 56.455 24.94C56.455 24.9 56.4616 24.88 56.475 24.88C56.775 24.88 56.995 24.8633 57.135 24.83C57.275 24.7967 57.3683 24.7333 57.415 24.64C57.4683 24.54 57.495 24.39 57.495 24.19V19.56C57.495 19.34 57.4683 19.19 57.415 19.11C57.3616 19.0233 57.265 18.97 57.125 18.95C56.9916 18.93 56.745 18.92 56.385 18.92Z" fill="#2F2C29"/>
<path d="M82.0851 18.64C82.4118 18.64 82.7384 18.6733 83.0651 18.74C83.3984 18.8067 83.6651 18.8967 83.8651 19.01C83.9184 19.0433 83.9518 19.0767 83.9651 19.11C83.9851 19.1367 83.9984 19.1833 84.0051 19.25L84.1151 20.3C84.1151 20.32 84.0984 20.3333 84.0651 20.34C84.0318 20.34 84.0118 20.33 84.0051 20.31C83.7651 19.3367 82.9951 18.85 81.6951 18.85C81.1751 18.85 80.7151 18.9633 80.3151 19.19C79.9218 19.41 79.6151 19.7233 79.3951 20.13C79.1751 20.5367 79.0651 21.0067 79.0651 21.54C79.0651 22.1667 79.2018 22.7467 79.4751 23.28C79.7484 23.8067 80.1118 24.2267 80.5651 24.54C81.0184 24.8467 81.5084 25 82.0351 25C82.5284 25 82.9518 24.87 83.3051 24.61C83.6651 24.35 83.9284 23.9533 84.0951 23.42C84.0951 23.4 84.1084 23.39 84.1351 23.39C84.1551 23.39 84.1718 23.3933 84.1851 23.4C84.2051 23.4067 84.2151 23.4167 84.2151 23.43L84.0751 24.5C84.0618 24.58 84.0451 24.6333 84.0251 24.66C84.0118 24.68 83.9751 24.7033 83.9151 24.73C83.3218 24.99 82.6851 25.12 82.0051 25.12C81.2051 25.12 80.5384 24.96 80.0051 24.64C79.4718 24.3133 79.0784 23.9 78.8251 23.4C78.5718 22.8933 78.4451 22.3633 78.4451 21.81C78.4451 21.2033 78.6151 20.66 78.9551 20.18C79.2951 19.6933 79.7451 19.3167 80.3051 19.05C80.8651 18.7767 81.4584 18.64 82.0851 18.64ZM86.5045 24.15C86.5045 24.3633 86.5345 24.52 86.5945 24.62C86.6545 24.7133 86.7679 24.78 86.9345 24.82C87.1079 24.86 87.3812 24.88 87.7545 24.88C87.7745 24.88 87.7845 24.9 87.7845 24.94C87.7845 24.98 87.7745 25 87.7545 25C87.4812 25 87.2679 24.9967 87.1145 24.99L86.2445 24.98L85.5845 24.99C85.4645 24.9967 85.2979 25 85.0845 25C85.0712 25 85.0645 24.98 85.0645 24.94C85.0645 24.9 85.0712 24.88 85.0845 24.88C85.3445 24.88 85.5345 24.8633 85.6545 24.83C85.7812 24.7967 85.8645 24.7333 85.9045 24.64C85.9512 24.54 85.9745 24.39 85.9745 24.19V19.56C85.9745 19.36 85.9512 19.2133 85.9045 19.12C85.8645 19.0267 85.7812 18.9633 85.6545 18.93C85.5345 18.89 85.3445 18.87 85.0845 18.87C85.0712 18.87 85.0645 18.85 85.0645 18.81C85.0645 18.77 85.0712 18.75 85.0845 18.75L85.5745 18.76C85.8545 18.7733 86.0745 18.78 86.2345 18.78C86.3945 18.78 86.5779 18.77 86.7845 18.75C87.3045 18.73 87.5879 18.72 87.6345 18.72C88.2212 18.72 88.6979 18.8567 89.0645 19.13C89.4312 19.3967 89.6145 19.8067 89.6145 20.36C89.6145 20.8067 89.5045 21.1833 89.2845 21.49C89.0645 21.79 88.7845 22.0133 88.4445 22.16C88.1112 22.3067 87.7645 22.38 87.4045 22.38C87.2045 22.38 87.0412 22.3633 86.9145 22.33C86.8945 22.33 86.8845 22.3133 86.8845 22.28C86.8845 22.26 86.8879 22.24 86.8945 22.22C86.9079 22.2 86.9212 22.1933 86.9345 22.2C87.0412 22.2267 87.1612 22.24 87.2945 22.24C87.7679 22.24 88.1679 22.0967 88.4945 21.81C88.8279 21.5233 88.9945 21.1067 88.9945 20.56C88.9945 20.2067 88.9245 19.9033 88.7845 19.65C88.6445 19.39 88.4512 19.1933 88.2045 19.06C87.9645 18.92 87.6979 18.85 87.4045 18.85C87.1312 18.85 86.9379 18.8633 86.8245 18.89C86.7112 18.9167 86.6279 18.98 86.5745 19.08C86.5279 19.1733 86.5045 19.34 86.5045 19.58V24.15Z" fill="#2F2C29"/>
<path d="M110.656 19.58C110.656 19.38 110.636 19.2333 110.596 19.14C110.562 19.04 110.492 18.97 110.386 18.93C110.279 18.89 110.112 18.87 109.886 18.87C109.872 18.87 109.866 18.85 109.866 18.81C109.866 18.77 109.872 18.75 109.886 18.75L110.306 18.76C110.559 18.7733 110.766 18.78 110.926 18.78C111.099 18.78 111.326 18.7733 111.606 18.76L112.086 18.75C112.106 18.75 112.116 18.77 112.116 18.81C112.116 18.85 112.106 18.87 112.086 18.87C111.826 18.87 111.632 18.89 111.506 18.93C111.386 18.9633 111.302 19.0267 111.256 19.12C111.209 19.2133 111.186 19.36 111.186 19.56V24.19C111.186 24.39 111.209 24.54 111.256 24.64C111.302 24.7333 111.386 24.7967 111.506 24.83C111.632 24.8633 111.826 24.88 112.086 24.88C112.106 24.88 112.116 24.9 112.116 24.94C112.116 24.98 112.106 25 112.086 25C111.886 25 111.726 24.9967 111.606 24.99L110.926 24.98L110.246 24.99C110.132 24.9967 109.976 25 109.776 25C109.756 25 109.746 24.98 109.746 24.94C109.746 24.9 109.756 24.88 109.776 24.88C110.042 24.88 110.236 24.8633 110.356 24.83C110.476 24.7967 110.556 24.7333 110.596 24.64C110.636 24.5467 110.656 24.3967 110.656 24.19V19.58ZM110.886 21.71C110.186 22.2633 109.486 22.54 108.786 22.54C108.252 22.54 107.836 22.3967 107.536 22.11C107.236 21.8233 107.086 21.4267 107.086 20.92V19.56C107.086 19.36 107.062 19.2133 107.016 19.12C106.976 19.0267 106.892 18.9633 106.766 18.93C106.646 18.89 106.456 18.87 106.196 18.87C106.176 18.87 106.166 18.85 106.166 18.81C106.166 18.77 106.176 18.75 106.196 18.75L106.676 18.76C106.942 18.7733 107.162 18.78 107.336 18.78C107.502 18.78 107.712 18.7733 107.966 18.76L108.376 18.75C108.396 18.75 108.406 18.77 108.406 18.81C108.406 18.85 108.396 18.87 108.376 18.87C108.156 18.87 107.992 18.89 107.886 18.93C107.779 18.97 107.706 19.04 107.666 19.14C107.626 19.2333 107.606 19.38 107.606 19.58V20.57C107.606 21.6233 108.079 22.15 109.026 22.15C109.272 22.15 109.546 22.11 109.846 22.03C110.152 21.95 110.469 21.82 110.796 21.64L110.886 21.71ZM114.266 18.92C113.846 18.92 113.539 19.02 113.346 19.22C113.152 19.42 113.022 19.7767 112.956 20.29C112.956 20.3033 112.936 20.31 112.896 20.31C112.856 20.31 112.836 20.3033 112.836 20.29C112.862 20.11 112.892 19.8233 112.926 19.43C112.959 19.03 112.976 18.73 112.976 18.53C112.976 18.4967 112.996 18.48 113.036 18.48C113.076 18.48 113.096 18.4967 113.096 18.53C113.096 18.6767 113.272 18.75 113.626 18.75C114.199 18.77 114.869 18.78 115.636 18.78C116.029 18.78 116.446 18.7733 116.886 18.76L117.566 18.75C117.806 18.75 117.982 18.7333 118.096 18.7C118.209 18.6667 118.282 18.6 118.316 18.5C118.322 18.4733 118.342 18.46 118.376 18.46C118.409 18.46 118.426 18.4733 118.426 18.5C118.406 18.6867 118.386 18.9733 118.366 19.36C118.346 19.74 118.336 20.05 118.336 20.29C118.336 20.3033 118.316 20.31 118.276 20.31C118.236 20.31 118.216 20.3033 118.216 20.29C118.216 19.9367 118.179 19.6633 118.106 19.47C118.032 19.2767 117.909 19.1367 117.736 19.05C117.562 18.9633 117.319 18.92 117.006 18.92C116.659 18.92 116.416 18.9333 116.276 18.96C116.136 18.98 116.039 19.0333 115.986 19.12C115.939 19.2067 115.916 19.36 115.916 19.58V24.19C115.916 24.3967 115.939 24.5467 115.986 24.64C116.032 24.7333 116.126 24.7967 116.266 24.83C116.406 24.8633 116.626 24.88 116.926 24.88C116.939 24.88 116.946 24.9 116.946 24.94C116.946 24.98 116.939 25 116.926 25C116.706 25 116.532 24.9967 116.406 24.99L115.636 24.98L114.906 24.99C114.772 24.9967 114.589 25 114.356 25C114.342 25 114.336 24.98 114.336 24.94C114.336 24.9 114.342 24.88 114.356 24.88C114.656 24.88 114.876 24.8633 115.016 24.83C115.156 24.7967 115.249 24.7333 115.296 24.64C115.349 24.54 115.376 24.39 115.376 24.19V19.56C115.376 19.34 115.349 19.19 115.296 19.11C115.242 19.0233 115.146 18.97 115.006 18.95C114.872 18.93 114.626 18.92 114.266 18.92Z" fill="#2F2C29"/>
<path d="M141.165 24.88C141.178 24.88 141.185 24.9 141.185 24.94C141.185 24.98 141.178 25 141.165 25C140.951 25 140.785 24.9967 140.665 24.99L140.005 24.98L139.325 24.99C139.205 24.9967 139.045 25 138.845 25C138.831 25 138.825 24.98 138.825 24.94C138.825 24.9 138.831 24.88 138.845 24.88C139.111 24.88 139.305 24.8633 139.425 24.83C139.545 24.7967 139.625 24.7333 139.665 24.64C139.711 24.5467 139.735 24.3967 139.735 24.19V19.58C139.735 19.3533 139.721 19.2033 139.695 19.13C139.668 19.0567 139.605 19.01 139.505 18.99C139.405 18.97 139.198 18.96 138.885 18.96H136.835C136.515 18.96 136.298 18.97 136.185 18.99C136.071 19.01 136.001 19.06 135.975 19.14C135.948 19.2133 135.935 19.36 135.935 19.58V24.19C135.935 24.3967 135.955 24.5467 135.995 24.64C136.041 24.7333 136.125 24.7967 136.245 24.83C136.365 24.8633 136.558 24.88 136.825 24.88C136.838 24.88 136.845 24.9 136.845 24.94C136.845 24.98 136.838 25 136.825 25C136.625 25 136.465 24.9967 136.345 24.99L135.665 24.98L135.005 24.99C134.885 24.9967 134.718 25 134.505 25C134.491 25 134.485 24.98 134.485 24.94C134.485 24.9 134.491 24.88 134.505 24.88C134.765 24.88 134.955 24.8633 135.075 24.83C135.201 24.7967 135.288 24.7333 135.335 24.64C135.381 24.54 135.405 24.39 135.405 24.19V19.68C135.405 19.4733 135.381 19.3133 135.335 19.2C135.295 19.0867 135.208 19.0033 135.075 18.95C134.948 18.8967 134.761 18.87 134.515 18.87C134.501 18.87 134.495 18.85 134.495 18.81C134.495 18.77 134.501 18.75 134.515 18.75C134.741 18.75 134.955 18.7533 135.155 18.76C136.035 18.7733 136.941 18.78 137.875 18.78C138.715 18.78 139.695 18.77 140.815 18.75H141.165C141.178 18.75 141.185 18.77 141.185 18.81C141.185 18.85 141.178 18.87 141.165 18.87C140.911 18.87 140.721 18.8967 140.595 18.95C140.468 19.0033 140.381 19.0867 140.335 19.2C140.288 19.3133 140.265 19.4733 140.265 19.68V24.19C140.265 24.39 140.288 24.54 140.335 24.64C140.381 24.7333 140.465 24.7967 140.585 24.83C140.711 24.8633 140.905 24.88 141.165 24.88ZM143.337 18.92C142.917 18.92 142.61 19.02 142.417 19.22C142.224 19.42 142.094 19.7767 142.027 20.29C142.027 20.3033 142.007 20.31 141.967 20.31C141.927 20.31 141.907 20.3033 141.907 20.29C141.934 20.11 141.964 19.8233 141.997 19.43C142.03 19.03 142.047 18.73 142.047 18.53C142.047 18.4967 142.067 18.48 142.107 18.48C142.147 18.48 142.167 18.4967 142.167 18.53C142.167 18.6767 142.344 18.75 142.697 18.75C143.27 18.77 143.94 18.78 144.707 18.78C145.1 18.78 145.517 18.7733 145.957 18.76L146.637 18.75C146.877 18.75 147.054 18.7333 147.167 18.7C147.28 18.6667 147.354 18.6 147.387 18.5C147.394 18.4733 147.414 18.46 147.447 18.46C147.48 18.46 147.497 18.4733 147.497 18.5C147.477 18.6867 147.457 18.9733 147.437 19.36C147.417 19.74 147.407 20.05 147.407 20.29C147.407 20.3033 147.387 20.31 147.347 20.31C147.307 20.31 147.287 20.3033 147.287 20.29C147.287 19.9367 147.25 19.6633 147.177 19.47C147.104 19.2767 146.98 19.1367 146.807 19.05C146.634 18.9633 146.39 18.92 146.077 18.92C145.73 18.92 145.487 18.9333 145.347 18.96C145.207 18.98 145.11 19.0333 145.057 19.12C145.01 19.2067 144.987 19.36 144.987 19.58V24.19C144.987 24.3967 145.01 24.5467 145.057 24.64C145.104 24.7333 145.197 24.7967 145.337 24.83C145.477 24.8633 145.697 24.88 145.997 24.88C146.01 24.88 146.017 24.9 146.017 24.94C146.017 24.98 146.01 25 145.997 25C145.777 25 145.604 24.9967 145.477 24.99L144.707 24.98L143.977 24.99C143.844 24.9967 143.66 25 143.427 25C143.414 25 143.407 24.98 143.407 24.94C143.407 24.9 143.414 24.88 143.427 24.88C143.727 24.88 143.947 24.8633 144.087 24.83C144.227 24.7967 144.32 24.7333 144.367 24.64C144.42 24.54 144.447 24.39 144.447 24.19V19.56C144.447 19.34 144.42 19.19 144.367 19.11C144.314 19.0233 144.217 18.97 144.077 18.95C143.944 18.93 143.697 18.92 143.337 18.92Z" fill="#2F2C29"/>
<path d="M165.041 18.64C165.368 18.64 165.694 18.6733 166.021 18.74C166.354 18.8067 166.621 18.8967 166.821 19.01C166.874 19.0433 166.908 19.0767 166.921 19.11C166.941 19.1367 166.954 19.1833 166.961 19.25L167.071 20.3C167.071 20.32 167.054 20.3333 167.021 20.34C166.988 20.34 166.968 20.33 166.961 20.31C166.721 19.3367 165.951 18.85 164.651 18.85C164.131 18.85 163.671 18.9633 163.271 19.19C162.878 19.41 162.571 19.7233 162.351 20.13C162.131 20.5367 162.021 21.0067 162.021 21.54C162.021 22.1667 162.158 22.7467 162.431 23.28C162.704 23.8067 163.068 24.2267 163.521 24.54C163.974 24.8467 164.464 25 164.991 25C165.484 25 165.908 24.87 166.261 24.61C166.621 24.35 166.884 23.9533 167.051 23.42C167.051 23.4 167.064 23.39 167.091 23.39C167.111 23.39 167.128 23.3933 167.141 23.4C167.161 23.4067 167.171 23.4167 167.171 23.43L167.031 24.5C167.018 24.58 167.001 24.6333 166.981 24.66C166.968 24.68 166.931 24.7033 166.871 24.73C166.278 24.99 165.641 25.12 164.961 25.12C164.161 25.12 163.494 24.96 162.961 24.64C162.428 24.3133 162.034 23.9 161.781 23.4C161.528 22.8933 161.401 22.3633 161.401 21.81C161.401 21.2033 161.571 20.66 161.911 20.18C162.251 19.6933 162.701 19.3167 163.261 19.05C163.821 18.7767 164.414 18.64 165.041 18.64ZM170.631 25.04C170.457 25.04 170.251 25.03 170.011 25.01C169.911 25.0033 169.791 24.9967 169.651 24.99C169.517 24.9833 169.367 24.98 169.201 24.98L168.541 24.99C168.421 24.9967 168.254 25 168.041 25C168.027 25 168.021 24.98 168.021 24.94C168.021 24.9 168.027 24.88 168.041 24.88C168.307 24.88 168.501 24.8633 168.621 24.83C168.747 24.7967 168.834 24.7333 168.881 24.64C168.927 24.54 168.951 24.39 168.951 24.19V19.56C168.951 19.36 168.927 19.2133 168.881 19.12C168.841 19.0267 168.757 18.9633 168.631 18.93C168.511 18.89 168.321 18.87 168.061 18.87C168.041 18.87 168.031 18.85 168.031 18.81C168.031 18.77 168.041 18.75 168.061 18.75H171.931C171.964 18.75 171.984 18.7567 171.991 18.77C172.004 18.7833 172.014 18.8067 172.021 18.84L172.161 20.05C172.161 20.07 172.141 20.0833 172.101 20.09C172.067 20.09 172.047 20.08 172.041 20.06C171.987 19.72 171.864 19.45 171.671 19.25C171.477 19.0433 171.237 18.94 170.951 18.94H170.341C170.087 18.94 169.901 18.9567 169.781 18.99C169.661 19.0233 169.577 19.0867 169.531 19.18C169.491 19.2733 169.471 19.42 169.471 19.62V24.19C169.471 24.43 169.534 24.6067 169.661 24.72C169.787 24.8267 170.044 24.88 170.431 24.88C170.984 24.88 171.384 24.7567 171.631 24.51C171.884 24.2633 172.011 23.8833 172.011 23.37C172.011 22.75 171.844 22.31 171.511 22.05C171.184 21.7833 170.707 21.65 170.081 21.65C169.914 21.65 169.637 21.67 169.251 21.71L169.241 21.53C169.601 21.49 169.947 21.47 170.281 21.47C171.014 21.47 171.581 21.5933 171.981 21.84C172.387 22.0867 172.591 22.51 172.591 23.11C172.591 23.49 172.507 23.8267 172.341 24.12C172.181 24.4133 171.951 24.64 171.651 24.8C171.357 24.96 171.017 25.04 170.631 25.04Z" fill="#2F2C29"/>
<path d="M194.001 21.47C194.374 21.47 194.704 21.5433 194.991 21.69C195.278 21.8367 195.501 22.0367 195.661 22.29C195.821 22.5433 195.901 22.83 195.901 23.15C195.901 23.51 195.818 23.8333 195.651 24.12C195.484 24.4067 195.254 24.6333 194.961 24.8C194.668 24.96 194.344 25.04 193.991 25.04C193.764 25.04 193.524 25.03 193.271 25.01C193.178 25.0033 193.068 24.9967 192.941 24.99C192.814 24.9833 192.671 24.98 192.511 24.98L191.851 24.99C191.731 24.9967 191.564 25 191.351 25C191.338 25 191.331 24.98 191.331 24.94C191.331 24.9 191.338 24.88 191.351 24.88C191.618 24.88 191.811 24.8633 191.931 24.83C192.058 24.7967 192.144 24.7333 192.191 24.64C192.238 24.54 192.261 24.39 192.261 24.19V19.56C192.261 19.36 192.238 19.2133 192.191 19.12C192.151 19.0267 192.068 18.9633 191.941 18.93C191.821 18.89 191.631 18.87 191.371 18.87C191.351 18.87 191.341 18.85 191.341 18.81C191.341 18.77 191.351 18.75 191.371 18.75L191.851 18.76C192.118 18.7733 192.338 18.78 192.511 18.78C192.631 18.78 192.744 18.7767 192.851 18.77C192.958 18.7633 193.051 18.7567 193.131 18.75C193.344 18.73 193.528 18.72 193.681 18.72C194.234 18.72 194.641 18.8467 194.901 19.1C195.168 19.3467 195.301 19.6633 195.301 20.05C195.301 20.4167 195.171 20.7333 194.911 21C194.651 21.2667 194.311 21.4533 193.891 21.56L194.001 21.47ZM193.451 18.85C193.264 18.85 193.128 18.8633 193.041 18.89C192.954 18.9167 192.888 18.98 192.841 19.08C192.801 19.18 192.781 19.3467 192.781 19.58V21.54L192.481 21.46C192.768 21.48 193.024 21.49 193.251 21.49C193.778 21.49 194.161 21.3667 194.401 21.12C194.641 20.8667 194.761 20.5333 194.761 20.12C194.761 19.7467 194.654 19.4433 194.441 19.21C194.234 18.97 193.904 18.85 193.451 18.85ZM193.851 24.88C194.344 24.88 194.711 24.7533 194.951 24.5C195.198 24.24 195.321 23.8733 195.321 23.4C195.321 22.8933 195.164 22.4833 194.851 22.17C194.544 21.85 194.128 21.6867 193.601 21.68C193.194 21.6667 192.831 21.6833 192.511 21.73L192.781 21.62V24.19C192.781 24.37 192.808 24.51 192.861 24.61C192.921 24.7033 193.028 24.7733 193.181 24.82C193.334 24.86 193.558 24.88 193.851 24.88ZM200.529 18.64C200.856 18.64 201.183 18.6733 201.509 18.74C201.843 18.8067 202.109 18.8967 202.309 19.01C202.363 19.0433 202.396 19.0767 202.409 19.11C202.429 19.1367 202.443 19.1833 202.449 19.25L202.559 20.3C202.559 20.32 202.543 20.3333 202.509 20.34C202.476 20.34 202.456 20.33 202.449 20.31C202.209 19.3367 201.439 18.85 200.139 18.85C199.619 18.85 199.159 18.9633 198.759 19.19C198.366 19.41 198.059 19.7233 197.839 20.13C197.619 20.5367 197.509 21.0067 197.509 21.54C197.509 22.1667 197.646 22.7467 197.919 23.28C198.193 23.8067 198.556 24.2267 199.009 24.54C199.463 24.8467 199.953 25 200.479 25C200.973 25 201.396 24.87 201.749 24.61C202.109 24.35 202.373 23.9533 202.539 23.42C202.539 23.4 202.553 23.39 202.579 23.39C202.599 23.39 202.616 23.3933 202.629 23.4C202.649 23.4067 202.659 23.4167 202.659 23.43L202.519 24.5C202.506 24.58 202.489 24.6333 202.469 24.66C202.456 24.68 202.419 24.7033 202.359 24.73C201.766 24.99 201.129 25.12 200.449 25.12C199.649 25.12 198.983 24.96 198.449 24.64C197.916 24.3133 197.523 23.9 197.269 23.4C197.016 22.8933 196.889 22.3633 196.889 21.81C196.889 21.2033 197.059 20.66 197.399 20.18C197.739 19.6933 198.189 19.3167 198.749 19.05C199.309 18.7767 199.903 18.64 200.529 18.64Z" fill="#2F2C29"/>
<path d="M18.8895 40V39.49L20.4295 38.05C20.9295 37.5833 21.3428 37.17 21.6695 36.81C21.9961 36.45 22.2395 36.115 22.3995 35.805C22.5595 35.495 22.6395 35.1833 22.6395 34.87C22.6395 34.4133 22.4795 34.0533 22.1595 33.79C21.8428 33.5233 21.4061 33.39 20.8495 33.39C20.5395 33.39 20.2395 33.4367 19.9495 33.53C19.6628 33.6233 19.4295 33.76 19.2495 33.94L18.9995 33.51C19.2495 33.29 19.5378 33.125 19.8645 33.015C20.1911 32.905 20.5461 32.85 20.9295 32.85C21.3761 32.85 21.7711 32.9317 22.1145 33.095C22.4578 33.2583 22.7261 33.49 22.9195 33.79C23.1128 34.09 23.2095 34.4467 23.2095 34.86C23.2095 35.1533 23.1511 35.4517 23.0345 35.755C22.9178 36.055 22.7061 36.395 22.3995 36.775C22.0961 37.1517 21.6628 37.6 21.0995 38.12L19.6395 39.46H23.3795V40H18.8895ZM26.6393 40.15C26.236 40.15 25.8426 40.0933 25.4593 39.98C25.076 39.8633 24.7626 39.7117 24.5193 39.525L24.7693 39C25.006 39.18 25.291 39.3233 25.6243 39.43C25.961 39.5367 26.2893 39.59 26.6093 39.59C27.0093 39.59 27.3543 39.52 27.6443 39.38C27.9376 39.2367 28.1626 39.0367 28.3193 38.78C28.4793 38.52 28.5593 38.2133 28.5593 37.86C28.5593 37.52 28.4743 37.2283 28.3043 36.985C28.1343 36.7417 27.9026 36.555 27.6093 36.425C27.3193 36.295 26.9926 36.23 26.6293 36.23C26.4093 36.23 26.1793 36.2567 25.9393 36.31C25.6993 36.3633 25.456 36.4433 25.2093 36.55L24.9593 36.31L25.3193 33.02L28.9993 33V33.54H25.7693L25.4993 35.97C25.726 35.8833 25.9493 35.8183 26.1693 35.775C26.3926 35.7317 26.6093 35.71 26.8193 35.71C27.256 35.71 27.6526 35.795 28.0093 35.965C28.366 36.135 28.6493 36.3817 28.8593 36.705C29.0726 37.025 29.1793 37.41 29.1793 37.86C29.1793 38.3233 29.071 38.7267 28.8543 39.07C28.6376 39.4133 28.3376 39.68 27.9543 39.87C27.5743 40.0567 27.136 40.15 26.6393 40.15Z" fill="#EED5B9"/>
<path d="M49.1111 40V39.49L50.6511 38.05C51.1511 37.5833 51.5645 37.17 51.8911 36.81C52.2178 36.45 52.4611 36.115 52.6211 35.805C52.7811 35.495 52.8611 35.1833 52.8611 34.87C52.8611 34.4133 52.7011 34.0533 52.3811 33.79C52.0645 33.5233 51.6278 33.39 51.0711 33.39C50.7611 33.39 50.4611 33.4367 50.1711 33.53C49.8845 33.6233 49.6511 33.76 49.4711 33.94L49.2211 33.51C49.4711 33.29 49.7595 33.125 50.0861 33.015C50.4128 32.905 50.7678 32.85 51.1511 32.85C51.5978 32.85 51.9928 32.9317 52.3361 33.095C52.6795 33.2583 52.9478 33.49 53.1411 33.79C53.3345 34.09 53.4311 34.4467 53.4311 34.86C53.4311 35.1533 53.3728 35.4517 53.2561 35.755C53.1395 36.055 52.9278 36.395 52.6211 36.775C52.3178 37.1517 51.8845 37.6 51.3211 38.12L49.8611 39.46H53.6011V40H49.1111ZM57.551 40.15C57.0443 40.15 56.5927 40.04 56.196 39.82C55.8027 39.5967 55.4927 39.2717 55.266 38.845C55.0427 38.415 54.931 37.89 54.931 37.27C54.931 36.68 55.036 36.1367 55.246 35.64C55.4593 35.14 55.7577 34.6967 56.141 34.31C56.5243 33.9233 56.976 33.6067 57.496 33.36C58.016 33.11 58.5843 32.94 59.201 32.85L59.421 33.35C58.8177 33.4067 58.2877 33.5383 57.831 33.745C57.3777 33.9483 56.9943 34.205 56.681 34.515C56.3677 34.825 56.121 35.1683 55.941 35.545C55.7643 35.9183 55.6477 36.3033 55.591 36.7C55.801 36.3467 56.0893 36.065 56.456 35.855C56.8227 35.645 57.2277 35.54 57.671 35.54C58.1177 35.54 58.5227 35.635 58.886 35.825C59.2493 36.0117 59.5377 36.2733 59.751 36.61C59.9643 36.9433 60.071 37.33 60.071 37.77C60.071 38.1033 60.0077 38.415 59.881 38.705C59.7577 38.995 59.5827 39.2483 59.356 39.465C59.1327 39.6783 58.8677 39.8467 58.561 39.97C58.2543 40.09 57.9177 40.15 57.551 40.15ZM57.551 39.58C57.921 39.58 58.2477 39.5067 58.531 39.36C58.8177 39.21 59.0427 39.005 59.206 38.745C59.3693 38.485 59.451 38.1867 59.451 37.85C59.451 37.52 59.366 37.225 59.196 36.965C59.0293 36.7017 58.8027 36.4933 58.516 36.34C58.2293 36.1867 57.9077 36.11 57.551 36.11C57.1943 36.11 56.8727 36.1867 56.586 36.34C56.2993 36.4933 56.071 36.7017 55.901 36.965C55.7343 37.225 55.651 37.52 55.651 37.85C55.651 38.1867 55.731 38.485 55.891 38.745C56.0543 39.005 56.2793 39.21 56.566 39.36C56.8527 39.5067 57.181 39.58 57.551 39.58Z" fill="#EED5B9"/>
<path d="M79.1385 40V39.49L80.6785 38.05C81.1785 37.5833 81.5918 37.17 81.9185 36.81C82.2452 36.45 82.4885 36.115 82.6485 35.805C82.8085 35.495 82.8885 35.1833 82.8885 34.87C82.8885 34.4133 82.7285 34.0533 82.4085 33.79C82.0918 33.5233 81.6552 33.39 81.0985 33.39C80.7885 33.39 80.4885 33.4367 80.1985 33.53C79.9118 33.6233 79.6785 33.76 79.4985 33.94L79.2485 33.51C79.4985 33.29 79.7868 33.125 80.1135 33.015C80.4402 32.905 80.7952 32.85 81.1785 32.85C81.6252 32.85 82.0202 32.9317 82.3635 33.095C82.7068 33.2583 82.9752 33.49 83.1685 33.79C83.3618 34.09 83.4585 34.4467 83.4585 34.86C83.4585 35.1533 83.4002 35.4517 83.2835 35.755C83.1668 36.055 82.9552 36.395 82.6485 36.775C82.3452 37.1517 81.9118 37.6 81.3485 38.12L79.8885 39.46H83.6285V40H79.1385ZM85.1807 40L88.3707 33.54H84.7507V33H89.0207V33.5L85.8307 40H85.1807Z" fill="#EED5B9"/>
<path d="M107.719 40V39.49L109.259 38.05C109.759 37.5833 110.172 37.17 110.499 36.81C110.825 36.45 111.069 36.115 111.229 35.805C111.389 35.495 111.469 35.1833 111.469 34.87C111.469 34.4133 111.309 34.0533 110.989 33.79C110.672 33.5233 110.235 33.39 109.679 33.39C109.369 33.39 109.069 33.4367 108.779 33.53C108.492 33.6233 108.259 33.76 108.079 33.94L107.829 33.51C108.079 33.29 108.367 33.125 108.694 33.015C109.02 32.905 109.375 32.85 109.759 32.85C110.205 32.85 110.6 32.9317 110.944 33.095C111.287 33.2583 111.555 33.49 111.749 33.79C111.942 34.09 112.039 34.4467 112.039 34.86C112.039 35.1533 111.98 35.4517 111.864 35.755C111.747 36.055 111.535 36.395 111.229 36.775C110.925 37.1517 110.492 37.6 109.929 38.12L108.469 39.46H112.209V40H107.719ZM115.918 40.15C115.432 40.15 115.007 40.0567 114.643 39.87C114.283 39.68 114.003 39.4267 113.803 39.11C113.607 38.7933 113.508 38.44 113.508 38.05C113.508 37.7667 113.56 37.515 113.663 37.295C113.767 37.075 113.917 36.885 114.113 36.725C114.313 36.5617 114.555 36.4267 114.838 36.32C114.538 36.21 114.28 36.0217 114.063 35.755C113.847 35.485 113.738 35.15 113.738 34.75C113.738 34.3833 113.832 34.0567 114.018 33.77C114.205 33.4833 114.462 33.2583 114.788 33.095C115.118 32.9317 115.495 32.85 115.918 32.85C116.348 32.85 116.728 32.9333 117.058 33.1C117.392 33.2633 117.652 33.4883 117.838 33.775C118.025 34.0617 118.118 34.3867 118.118 34.75C118.118 35.0167 118.068 35.255 117.968 35.465C117.868 35.6717 117.735 35.8483 117.568 35.995C117.402 36.1383 117.218 36.2467 117.018 36.32C117.418 36.48 117.737 36.7017 117.973 36.985C118.21 37.2683 118.328 37.6233 118.328 38.05C118.328 38.44 118.23 38.7933 118.033 39.11C117.837 39.4267 117.558 39.68 117.198 39.87C116.838 40.0567 116.412 40.15 115.918 40.15ZM115.918 39.59C116.238 39.59 116.533 39.535 116.803 39.425C117.077 39.3117 117.295 39.145 117.458 38.925C117.625 38.7017 117.708 38.4267 117.708 38.1C117.708 37.7767 117.628 37.5033 117.468 37.28C117.312 37.0567 117.098 36.8883 116.828 36.775C116.558 36.6583 116.255 36.6 115.918 36.6C115.398 36.6 114.97 36.7283 114.633 36.985C114.297 37.2417 114.128 37.6133 114.128 38.1C114.128 38.4267 114.208 38.7017 114.368 38.925C114.532 39.145 114.748 39.3117 115.018 39.425C115.292 39.535 115.592 39.59 115.918 39.59ZM115.928 36.04C116.238 36.04 116.513 35.99 116.753 35.89C116.993 35.7867 117.18 35.6417 117.313 35.455C117.45 35.265 117.518 35.04 117.518 34.78C117.518 34.39 117.372 34.065 117.078 33.805C116.788 33.5417 116.405 33.41 115.928 33.41C115.612 33.41 115.333 33.47 115.093 33.59C114.857 33.71 114.672 33.8733 114.538 34.08C114.405 34.2867 114.338 34.52 114.338 34.78C114.338 35.17 114.487 35.4783 114.783 35.705C115.083 35.9283 115.465 36.04 115.928 36.04Z" fill="#EED5B9"/>
<path d="M135.17 40V39.49L136.71 38.05C137.21 37.5833 137.623 37.17 137.95 36.81C138.276 36.45 138.52 36.115 138.68 35.805C138.84 35.495 138.92 35.1833 138.92 34.87C138.92 34.4133 138.76 34.0533 138.44 33.79C138.123 33.5233 137.686 33.39 137.13 33.39C136.82 33.39 136.52 33.4367 136.23 33.53C135.943 33.6233 135.71 33.76 135.53 33.94L135.28 33.51C135.53 33.29 135.818 33.125 136.145 33.015C136.471 32.905 136.826 32.85 137.21 32.85C137.656 32.85 138.051 32.9317 138.395 33.095C138.738 33.2583 139.006 33.49 139.2 33.79C139.393 34.09 139.49 34.4467 139.49 34.86C139.49 35.1533 139.431 35.4517 139.315 35.755C139.198 36.055 138.986 36.395 138.68 36.775C138.376 37.1517 137.943 37.6 137.38 38.12L135.92 39.46H139.66V40H135.17ZM141.63 40.15L141.41 39.65C142.006 39.59 142.528 39.455 142.975 39.245C143.425 39.0317 143.805 38.765 144.115 38.445C144.425 38.125 144.668 37.77 144.845 37.38C145.021 36.99 145.136 36.59 145.19 36.18C144.986 36.5333 144.706 36.815 144.35 37.025C143.996 37.235 143.603 37.34 143.17 37.34C142.736 37.34 142.341 37.2467 141.985 37.06C141.631 36.87 141.35 36.6067 141.14 36.27C140.933 35.9333 140.83 35.5467 140.83 35.11C140.83 34.6833 140.935 34.3 141.145 33.96C141.358 33.62 141.65 33.35 142.02 33.15C142.393 32.95 142.816 32.85 143.29 32.85C143.786 32.85 144.226 32.9583 144.61 33.175C144.996 33.3917 145.3 33.71 145.52 34.13C145.74 34.5467 145.85 35.06 145.85 35.67C145.85 36.2667 145.745 36.8183 145.535 37.325C145.328 37.8317 145.035 38.28 144.655 38.67C144.275 39.06 143.828 39.3817 143.315 39.635C142.801 39.8883 142.24 40.06 141.63 40.15ZM143.29 36.77C143.636 36.77 143.948 36.6967 144.225 36.55C144.501 36.4033 144.721 36.2033 144.885 35.95C145.048 35.6933 145.13 35.4067 145.13 35.09C145.13 34.7633 145.051 34.475 144.895 34.225C144.738 33.975 144.521 33.7783 144.245 33.635C143.968 33.4917 143.65 33.42 143.29 33.42C142.933 33.42 142.615 33.4917 142.335 33.635C142.058 33.7783 141.841 33.975 141.685 34.225C141.528 34.475 141.45 34.7633 141.45 35.09C141.45 35.4067 141.531 35.6933 141.695 35.95C141.858 36.2033 142.078 36.4033 142.355 36.55C142.635 36.6967 142.946 36.77 143.29 36.77Z" fill="#EED5B9"/>
<path d="M164.85 40.15C164.58 40.15 164.314 40.1233 164.05 40.07C163.787 40.02 163.54 39.9483 163.31 39.855C163.084 39.7617 162.89 39.6533 162.73 39.53L162.98 39C163.217 39.18 163.502 39.3233 163.835 39.43C164.172 39.5367 164.5 39.59 164.82 39.59C165.207 39.59 165.542 39.5233 165.825 39.39C166.109 39.2567 166.327 39.0683 166.48 38.825C166.634 38.5817 166.71 38.2933 166.71 37.96C166.71 37.4633 166.529 37.0767 166.165 36.8C165.805 36.52 165.32 36.38 164.71 36.38C164.577 36.38 164.44 36.3883 164.3 36.405C164.16 36.4183 164.017 36.44 163.87 36.47L163.66 36.04L166.21 33.54H162.76V33H167.01V33.5L164.52 35.91C165.024 35.8767 165.489 35.93 165.915 36.07C166.342 36.2067 166.684 36.4333 166.94 36.75C167.2 37.0633 167.33 37.4667 167.33 37.96C167.33 38.4033 167.224 38.79 167.01 39.12C166.8 39.4467 166.509 39.7 166.135 39.88C165.762 40.06 165.334 40.15 164.85 40.15ZM171.391 40.15C170.968 40.15 170.585 40.055 170.241 39.865C169.901 39.675 169.61 39.4117 169.366 39.075C169.126 38.7383 168.941 38.35 168.811 37.91C168.685 37.47 168.621 37 168.621 36.5C168.621 35.9967 168.685 35.525 168.811 35.085C168.941 34.645 169.126 34.2583 169.366 33.925C169.61 33.5883 169.901 33.325 170.241 33.135C170.585 32.945 170.968 32.85 171.391 32.85C171.811 32.85 172.191 32.945 172.531 33.135C172.871 33.325 173.163 33.5883 173.406 33.925C173.65 34.2583 173.836 34.645 173.966 35.085C174.096 35.525 174.161 35.9967 174.161 36.5C174.161 37 174.096 37.47 173.966 37.91C173.836 38.35 173.65 38.7383 173.406 39.075C173.163 39.4117 172.871 39.675 172.531 39.865C172.191 40.055 171.811 40.15 171.391 40.15ZM171.391 39.59C171.711 39.59 172.003 39.5183 172.266 39.375C172.53 39.2283 172.756 39.02 172.946 38.75C173.136 38.48 173.283 38.155 173.386 37.775C173.49 37.395 173.541 36.97 173.541 36.5C173.541 35.8733 173.451 35.3283 173.271 34.865C173.091 34.4017 172.84 34.0433 172.516 33.79C172.193 33.5367 171.818 33.41 171.391 33.41C171.071 33.41 170.78 33.4833 170.516 33.63C170.253 33.7733 170.026 33.98 169.836 34.25C169.646 34.52 169.5 34.845 169.396 35.225C169.293 35.605 169.241 36.03 169.241 36.5C169.241 37.1267 169.331 37.6717 169.511 38.135C169.691 38.5983 169.943 38.9567 170.266 39.21C170.59 39.4633 170.965 39.59 171.391 39.59Z" fill="#EED5B9"/>
<path d="M194.732 40.15C194.462 40.15 194.195 40.1233 193.932 40.07C193.669 40.02 193.422 39.9483 193.192 39.855C192.965 39.7617 192.772 39.6533 192.612 39.53L192.862 39C193.099 39.18 193.384 39.3233 193.717 39.43C194.054 39.5367 194.382 39.59 194.702 39.59C195.089 39.59 195.424 39.5233 195.707 39.39C195.99 39.2567 196.209 39.0683 196.362 38.825C196.515 38.5817 196.592 38.2933 196.592 37.96C196.592 37.4633 196.41 37.0767 196.047 36.8C195.687 36.52 195.202 36.38 194.592 36.38C194.459 36.38 194.322 36.3883 194.182 36.405C194.042 36.4183 193.899 36.44 193.752 36.47L193.542 36.04L196.092 33.54H192.642V33H196.892V33.5L194.402 35.91C194.905 35.8767 195.37 35.93 195.797 36.07C196.224 36.2067 196.565 36.4333 196.822 36.75C197.082 37.0633 197.212 37.4667 197.212 37.96C197.212 38.4033 197.105 38.79 196.892 39.12C196.682 39.4467 196.39 39.7 196.017 39.88C195.644 40.06 195.215 40.15 194.732 40.15ZM200.116 40V33.56L198.076 34.33L197.926 33.89L200.626 32.85H200.676V40H200.116Z" fill="#EED5B9"/>
</svg>
