<svg width="96" height="9" viewBox="0 0 96 9" fill="none" xmlns="http://www.w3.org/2000/svg">
<path d="M1.442 0.321999L1.848 0.35L1.694 6.972C1.68467 7.476 1.78267 7.87267 1.988 8.162C2.20267 8.442 2.50133 8.582 2.884 8.582C2.912 8.582 2.926 8.61 2.926 8.666C2.926 8.722 2.912 8.75 2.884 8.75C2.632 8.75 2.436 8.74533 2.296 8.736L1.526 8.722L0.644001 8.736C0.494668 8.74533 0.294001 8.75 0.0420015 8.75C0.0140015 8.75 1.46776e-06 8.722 1.46776e-06 8.666C1.46776e-06 8.61 0.0140015 8.582 0.0420015 8.582C0.424668 8.582 0.728002 8.43733 0.952002 8.148C1.176 7.85867 1.29267 7.46667 1.302 6.972L1.442 0.321999ZM11.326 8.582C11.3447 8.582 11.354 8.61 11.354 8.666C11.354 8.722 11.3447 8.75 11.326 8.75C11.0087 8.75 10.7567 8.74533 10.57 8.736L9.534 8.722L8.484 8.736C8.30667 8.74533 8.064 8.75 7.756 8.75C7.728 8.75 7.714 8.722 7.714 8.666C7.714 8.61 7.728 8.582 7.756 8.582C8.05467 8.582 8.274 8.55867 8.414 8.512C8.56334 8.456 8.66134 8.36267 8.708 8.232C8.75467 8.10133 8.76867 7.896 8.75 7.616L8.428 1.4L9.142 0.28L5.572 8.652C5.55334 8.68933 5.516 8.708 5.46 8.708C5.404 8.708 5.36667 8.68933 5.348 8.652L1.414 1.162C1.22733 0.816666 1.03133 0.564666 0.826002 0.406C0.630002 0.247333 0.401335 0.168 0.140001 0.168C0.112001 0.168 0.0980015 0.14 0.0980015 0.0839998C0.0980015 0.0279999 0.112001 0 0.140001 0L0.798001 0.0139998C0.928668 0.023333 1.09667 0.0279996 1.302 0.0279996L2.044 0.0139998C2.128 0.00466661 2.23533 0 2.366 0C2.48733 0 2.58067 0.0419997 2.646 0.125999C2.71133 0.209999 2.83267 0.410666 3.01 0.728L6.146 6.608L5.446 7.868L8.722 0.35C8.778 0.219333 8.834 0.130666 8.89 0.0839998C8.95534 0.0279999 9.03934 0 9.142 0C9.226 0 9.31934 0.00466661 9.422 0.0139998C9.534 0.023333 9.66 0.0279996 9.8 0.0279996L10.626 0.0139998C10.7567 0.00466661 10.9433 0 11.186 0C11.214 0 11.228 0.0279999 11.228 0.0839998C11.228 0.14 11.214 0.168 11.186 0.168C10.7473 0.168 10.43 0.256666 10.234 0.433999C10.038 0.611333 9.94934 0.886666 9.968 1.26L10.304 7.616C10.3227 7.90533 10.3553 8.11533 10.402 8.246C10.458 8.37667 10.5513 8.46533 10.682 8.512C10.822 8.55867 11.0367 8.582 11.326 8.582ZM12.0879 8.75C12.0692 8.75 12.0599 8.722 12.0599 8.666C12.0599 8.61 12.0692 8.582 12.0879 8.582C12.3586 8.582 12.5546 8.55867 12.6759 8.512C12.7972 8.46533 12.8812 8.37667 12.9279 8.246C12.9746 8.106 12.9979 7.896 12.9979 7.616V3.332C12.9979 3.052 12.9746 2.84667 12.9279 2.716C12.8812 2.58533 12.7926 2.49667 12.6619 2.45C12.5406 2.394 12.3492 2.366 12.0879 2.366C12.0692 2.366 12.0599 2.338 12.0599 2.282C12.0599 2.226 12.0692 2.198 12.0879 2.198H17.0999C17.1932 2.198 17.2399 2.23533 17.2399 2.31L17.2539 3.178C17.2632 3.35533 17.2679 3.57933 17.2679 3.85C17.2679 3.878 17.2399 3.892 17.1839 3.892C17.1372 3.892 17.1092 3.878 17.0999 3.85C16.9226 3.43933 16.6519 3.094 16.2879 2.814C15.9239 2.52467 15.5552 2.38 15.1819 2.38H15.0839C14.8786 2.38 14.7246 2.408 14.6219 2.464C14.5286 2.51067 14.4632 2.59933 14.4259 2.73C14.3979 2.86067 14.3839 3.066 14.3839 3.346V7.56C14.3839 7.84 14.3979 8.04533 14.4259 8.176C14.4632 8.30667 14.5286 8.4 14.6219 8.456C14.7246 8.50267 14.8786 8.526 15.0839 8.526H15.2379C15.6766 8.526 16.1106 8.372 16.5399 8.064C16.9692 7.74667 17.2866 7.35467 17.4919 6.888C17.5106 6.86 17.5432 6.846 17.5899 6.846C17.6366 6.846 17.6599 6.86 17.6599 6.888C17.5946 7.56 17.5619 8.11067 17.5619 8.54C17.5619 8.61467 17.5479 8.67067 17.5199 8.708C17.4919 8.736 17.4359 8.75 17.3519 8.75H12.0879ZM16.5259 5.754C16.4792 5.754 16.2506 5.726 15.8399 5.67C15.4386 5.614 14.7479 5.586 13.7679 5.586V5.236C14.7479 5.236 15.4386 5.21267 15.8399 5.166C16.2506 5.11 16.4792 5.082 16.5259 5.082C16.5912 5.082 16.6239 5.18467 16.6239 5.39C16.6239 5.48333 16.6146 5.56733 16.5959 5.642C16.5772 5.71667 16.5539 5.754 16.5259 5.754ZM22.474 2.03C22.8194 2.03 23.1927 2.06733 23.594 2.142C24.0047 2.21667 24.3407 2.31467 24.602 2.436C24.6674 2.464 24.7094 2.49667 24.728 2.534C24.7467 2.562 24.756 2.60867 24.756 2.674L24.826 4.116C24.826 4.144 24.8027 4.16267 24.756 4.172C24.7094 4.18133 24.6767 4.16733 24.658 4.13C24.3034 3.52333 23.9394 3.07533 23.566 2.786C23.202 2.48733 22.782 2.338 22.306 2.338C21.6434 2.338 21.1347 2.604 20.78 3.136C20.4254 3.65867 20.248 4.35867 20.248 5.236C20.248 5.81467 20.3274 6.36067 20.486 6.874C20.654 7.38733 20.9154 7.80733 21.27 8.134C21.6247 8.46067 22.0727 8.624 22.614 8.624C23.09 8.624 23.4914 8.47933 23.818 8.19C24.154 7.90067 24.4807 7.434 24.798 6.79C24.8074 6.75267 24.8354 6.73867 24.882 6.748C24.9287 6.75733 24.952 6.776 24.952 6.804L24.84 8.288C24.8307 8.36267 24.8167 8.414 24.798 8.442C24.7794 8.47 24.728 8.50267 24.644 8.54C23.9254 8.792 23.1787 8.918 22.404 8.918C21.508 8.918 20.7754 8.74067 20.206 8.386C19.6367 8.03133 19.2214 7.588 18.96 7.056C18.708 6.524 18.582 5.98733 18.582 5.446C18.582 4.81133 18.75 4.23267 19.086 3.71C19.4314 3.18733 19.898 2.77667 20.486 2.478C21.0834 2.17933 21.746 2.03 22.474 2.03ZM27.8679 2.478C27.5132 2.478 27.1725 2.62733 26.8459 2.926C26.5285 3.22467 26.2765 3.63067 26.0899 4.144C26.0805 4.172 26.0525 4.186 26.0059 4.186C25.9592 4.186 25.9359 4.172 25.9359 4.144C25.9732 3.84533 26.0152 3.458 26.0619 2.982C26.1085 2.49667 26.1319 2.13267 26.1319 1.89C26.1319 1.84333 26.1552 1.82 26.2019 1.82C26.2579 1.82 26.2859 1.84333 26.2859 1.89C26.2859 2.01133 26.3559 2.09067 26.4959 2.128C26.6359 2.156 26.8132 2.17 27.0279 2.17C27.8305 2.18867 28.5352 2.198 29.1419 2.198L30.3599 2.184C30.5185 2.17467 30.7332 2.17 31.0039 2.17C31.3679 2.17 31.6385 2.15133 31.8159 2.114C32.0025 2.06733 32.1192 1.974 32.1659 1.834C32.1752 1.806 32.2032 1.792 32.2499 1.792C32.3059 1.792 32.3339 1.806 32.3339 1.834L32.2919 2.534C32.2359 3.35533 32.2079 3.892 32.2079 4.144C32.2079 4.172 32.1799 4.186 32.1239 4.186C32.0679 4.186 32.0399 4.172 32.0399 4.144C31.9932 3.85467 31.8859 3.584 31.7179 3.332C31.5499 3.07067 31.3492 2.86533 31.1159 2.716C30.8919 2.55733 30.6632 2.478 30.4299 2.478C30.2059 2.478 30.0565 2.53867 29.9819 2.66C29.9072 2.772 29.8699 2.996 29.8699 3.332V7.616C29.8699 7.896 29.8932 8.106 29.9399 8.246C29.9959 8.37667 30.0939 8.46533 30.2339 8.512C30.3739 8.55867 30.5979 8.582 30.9059 8.582C30.9339 8.582 30.9479 8.61 30.9479 8.666C30.9479 8.722 30.9339 8.75 30.9059 8.75C30.5979 8.75 30.3552 8.74533 30.1779 8.736L29.1279 8.722L28.1059 8.736C27.9285 8.74533 27.6765 8.75 27.3499 8.75C27.3312 8.75 27.3219 8.722 27.3219 8.666C27.3219 8.61 27.3312 8.582 27.3499 8.582C27.6672 8.582 27.8959 8.55867 28.0359 8.512C28.1852 8.46533 28.2832 8.37667 28.3299 8.246C28.3859 8.106 28.4139 7.896 28.4139 7.616V3.304C28.4139 2.95867 28.3812 2.73467 28.3159 2.632C28.2505 2.52933 28.1012 2.478 27.8679 2.478ZM36.4632 8.918C35.8006 8.918 35.2079 8.764 34.6852 8.456C34.1626 8.13867 33.7566 7.71867 33.4672 7.196C33.1779 6.664 33.0332 6.09 33.0332 5.474C33.0332 4.76467 33.2152 4.14867 33.5792 3.626C33.9526 3.10333 34.4239 2.70667 34.9932 2.436C35.5719 2.16533 36.1646 2.03 36.7712 2.03C37.4339 2.03 38.0172 2.19333 38.5212 2.52C39.0346 2.83733 39.4312 3.25733 39.7112 3.78C39.9912 4.29333 40.1312 4.83467 40.1312 5.404C40.1312 6.02933 39.9679 6.61267 39.6412 7.154C39.3146 7.686 38.8712 8.11533 38.3112 8.442C37.7512 8.75933 37.1352 8.918 36.4632 8.918ZM36.7852 8.596C37.3079 8.596 37.7279 8.33933 38.0452 7.826C38.3719 7.31267 38.5352 6.60333 38.5352 5.698C38.5352 5.082 38.4419 4.522 38.2552 4.018C38.0686 3.514 37.8026 3.11733 37.4572 2.828C37.1212 2.52933 36.7292 2.38 36.2812 2.38C35.7399 2.38 35.3292 2.604 35.0492 3.052C34.7692 3.5 34.6292 4.16267 34.6292 5.04C34.6292 5.70267 34.7226 6.30933 34.9092 6.86C35.1052 7.40133 35.3666 7.826 35.6932 8.134C36.0199 8.442 36.3839 8.596 36.7852 8.596ZM47.9678 5.11C48.8265 5.10067 49.4798 5.24067 49.9278 5.53C50.3852 5.81 50.6138 6.22067 50.6138 6.762C50.6138 7.16333 50.4972 7.518 50.2638 7.826C50.0305 8.134 49.7038 8.37667 49.2838 8.554C48.8732 8.722 48.4018 8.806 47.8698 8.806C47.6178 8.806 47.3145 8.792 46.9598 8.764C46.8292 8.75467 46.6658 8.74533 46.4698 8.736C46.2832 8.72667 46.0778 8.722 45.8538 8.722L44.9578 8.736C44.7898 8.74533 44.5565 8.75 44.2578 8.75C44.2392 8.75 44.2298 8.722 44.2298 8.666C44.2298 8.61 44.2392 8.582 44.2578 8.582C44.5378 8.582 44.7385 8.55867 44.8598 8.512C44.9905 8.46533 45.0745 8.37667 45.1118 8.246C45.1585 8.106 45.1818 7.896 45.1818 7.616V3.332C45.1818 3.052 45.1585 2.84667 45.1118 2.716C45.0745 2.58533 44.9905 2.49667 44.8598 2.45C44.7385 2.394 44.5472 2.366 44.2858 2.366C44.2578 2.366 44.2438 2.338 44.2438 2.282C44.2438 2.226 44.2578 2.198 44.2858 2.198L44.9578 2.212C45.3312 2.23067 45.6298 2.24 45.8538 2.24C46.1338 2.24 46.4278 2.226 46.7358 2.198C46.8385 2.18867 46.9925 2.17933 47.1978 2.17C47.4032 2.16067 47.5805 2.156 47.7298 2.156C48.4205 2.156 48.9572 2.27267 49.3398 2.506C49.7318 2.73933 49.9278 3.07533 49.9278 3.514C49.9278 3.92467 49.7458 4.284 49.3818 4.592C49.0178 4.9 48.4952 5.12867 47.8138 5.278L47.9678 5.11ZM47.3798 2.338C47.1558 2.338 46.9878 2.366 46.8758 2.422C46.7638 2.46867 46.6845 2.56667 46.6378 2.716C46.5912 2.856 46.5678 3.07067 46.5678 3.36V5.166L45.9798 5.068C46.2972 5.096 46.7032 5.11 47.1978 5.11C47.5338 5.11 47.7905 5.082 47.9678 5.026C48.1545 4.96067 48.2945 4.83933 48.3878 4.662C48.4812 4.47533 48.5278 4.20933 48.5278 3.864C48.5278 2.84667 48.1452 2.338 47.3798 2.338ZM47.6178 8.582C48.6352 8.582 49.1438 8.08733 49.1438 7.098C49.1438 5.95933 48.4392 5.39 47.0298 5.39C46.6192 5.39 46.2692 5.41333 45.9798 5.46L46.5678 5.278V7.616C46.5678 7.97067 46.6378 8.22267 46.7778 8.372C46.9178 8.512 47.1978 8.582 47.6178 8.582ZM55.5053 2.03C55.8506 2.03 56.224 2.06733 56.6253 2.142C57.036 2.21667 57.372 2.31467 57.6333 2.436C57.6986 2.464 57.7406 2.49667 57.7593 2.534C57.778 2.562 57.7873 2.60867 57.7873 2.674L57.8573 4.116C57.8573 4.144 57.834 4.16267 57.7873 4.172C57.7406 4.18133 57.708 4.16733 57.6893 4.13C57.3346 3.52333 56.9706 3.07533 56.5973 2.786C56.2333 2.48733 55.8133 2.338 55.3373 2.338C54.6746 2.338 54.166 2.604 53.8113 3.136C53.4566 3.65867 53.2793 4.35867 53.2793 5.236C53.2793 5.81467 53.3586 6.36067 53.5173 6.874C53.6853 7.38733 53.9466 7.80733 54.3013 8.134C54.656 8.46067 55.104 8.624 55.6453 8.624C56.1213 8.624 56.5226 8.47933 56.8493 8.19C57.1853 7.90067 57.512 7.434 57.8293 6.79C57.8386 6.75267 57.8666 6.73867 57.9133 6.748C57.96 6.75733 57.9833 6.776 57.9833 6.804L57.8713 8.288C57.862 8.36267 57.848 8.414 57.8293 8.442C57.8106 8.47 57.7593 8.50267 57.6753 8.54C56.9566 8.792 56.21 8.918 55.4353 8.918C54.5393 8.918 53.8066 8.74067 53.2373 8.386C52.668 8.03133 52.2526 7.588 51.9913 7.056C51.7393 6.524 51.6133 5.98733 51.6133 5.446C51.6133 4.81133 51.7813 4.23267 52.1173 3.71C52.4626 3.18733 52.9293 2.77667 53.5173 2.478C54.1146 2.17933 54.7773 2.03 55.5053 2.03ZM60.8991 2.478C60.5445 2.478 60.2038 2.62733 59.8771 2.926C59.5598 3.22467 59.3078 3.63067 59.1211 4.144C59.1118 4.172 59.0838 4.186 59.0371 4.186C58.9905 4.186 58.9671 4.172 58.9671 4.144C59.0045 3.84533 59.0465 3.458 59.0931 2.982C59.1398 2.49667 59.1631 2.13267 59.1631 1.89C59.1631 1.84333 59.1865 1.82 59.2331 1.82C59.2891 1.82 59.3171 1.84333 59.3171 1.89C59.3171 2.01133 59.3871 2.09067 59.5271 2.128C59.6671 2.156 59.8445 2.17 60.0591 2.17C60.8618 2.18867 61.5665 2.198 62.1731 2.198L63.3911 2.184C63.5498 2.17467 63.7645 2.17 64.0351 2.17C64.3991 2.17 64.6698 2.15133 64.8471 2.114C65.0338 2.06733 65.1505 1.974 65.1971 1.834C65.2065 1.806 65.2345 1.792 65.2811 1.792C65.3371 1.792 65.3651 1.806 65.3651 1.834L65.3231 2.534C65.2671 3.35533 65.2391 3.892 65.2391 4.144C65.2391 4.172 65.2111 4.186 65.1551 4.186C65.0991 4.186 65.0711 4.172 65.0711 4.144C65.0245 3.85467 64.9171 3.584 64.7491 3.332C64.5811 3.07067 64.3805 2.86533 64.1471 2.716C63.9231 2.55733 63.6945 2.478 63.4611 2.478C63.2371 2.478 63.0878 2.53867 63.0131 2.66C62.9385 2.772 62.9011 2.996 62.9011 3.332V7.616C62.9011 7.896 62.9245 8.106 62.9711 8.246C63.0271 8.37667 63.1251 8.46533 63.2651 8.512C63.4051 8.55867 63.6291 8.582 63.9371 8.582C63.9651 8.582 63.9791 8.61 63.9791 8.666C63.9791 8.722 63.9651 8.75 63.9371 8.75C63.6291 8.75 63.3865 8.74533 63.2091 8.736L62.1591 8.722L61.1371 8.736C60.9598 8.74533 60.7078 8.75 60.3811 8.75C60.3625 8.75 60.3531 8.722 60.3531 8.666C60.3531 8.61 60.3625 8.582 60.3811 8.582C60.6985 8.582 60.9271 8.55867 61.0671 8.512C61.2165 8.46533 61.3145 8.37667 61.3611 8.246C61.4171 8.106 61.4451 7.896 61.4451 7.616V3.304C61.4451 2.95867 61.4125 2.73467 61.3471 2.632C61.2818 2.52933 61.1325 2.478 60.8991 2.478ZM68.3605 7.56C68.3605 7.84933 68.3885 8.064 68.4445 8.204C68.5098 8.344 68.6265 8.442 68.7945 8.498C68.9718 8.554 69.2425 8.582 69.6065 8.582C69.6345 8.582 69.6485 8.61 69.6485 8.666C69.6485 8.722 69.6345 8.75 69.6065 8.75C69.2518 8.75 68.9765 8.74533 68.7805 8.736L67.6745 8.722L66.7645 8.736C66.5965 8.74533 66.3631 8.75 66.0645 8.75C66.0458 8.75 66.0365 8.722 66.0365 8.666C66.0365 8.61 66.0458 8.582 66.0645 8.582C66.3258 8.582 66.5171 8.55867 66.6385 8.512C66.7691 8.456 66.8578 8.36267 66.9045 8.232C66.9511 8.10133 66.9745 7.896 66.9745 7.616V3.332C66.9745 3.06133 66.9465 2.86067 66.8905 2.73C66.8438 2.59 66.7551 2.49667 66.6245 2.45C66.5031 2.394 66.3165 2.366 66.0645 2.366C66.0458 2.366 66.0365 2.338 66.0365 2.282C66.0365 2.226 66.0458 2.198 66.0645 2.198L66.7505 2.212C67.1425 2.23067 67.4458 2.24 67.6605 2.24C67.9031 2.24 68.1551 2.226 68.4165 2.198C68.5191 2.18867 68.6638 2.17933 68.8505 2.17C69.0465 2.16067 69.2145 2.156 69.3545 2.156C70.1571 2.156 70.7685 2.28667 71.1885 2.548C71.6085 2.80933 71.8185 3.20133 71.8185 3.724C71.8185 4.19067 71.7018 4.58733 71.4685 4.914C71.2445 5.24067 70.9458 5.488 70.5725 5.656C70.2085 5.81467 69.8211 5.894 69.4105 5.894C69.2331 5.894 69.1258 5.88467 69.0885 5.866C69.0605 5.84733 69.0465 5.81467 69.0465 5.768C69.0465 5.712 69.0791 5.684 69.1445 5.684L69.3405 5.698C69.6205 5.698 69.8398 5.56267 69.9985 5.292C70.1665 5.012 70.2505 4.59667 70.2505 4.046C70.2505 3.46733 70.1478 3.052 69.9425 2.8C69.7371 2.53867 69.4338 2.408 69.0325 2.408C68.7991 2.408 68.6265 2.47333 68.5145 2.604C68.4118 2.72533 68.3605 2.97733 68.3605 3.36V7.56ZM72.6543 8.75C72.6356 8.75 72.6263 8.722 72.6263 8.666C72.6263 8.61 72.6356 8.582 72.6543 8.582C72.925 8.582 73.121 8.55867 73.2423 8.512C73.3636 8.46533 73.4476 8.37667 73.4943 8.246C73.541 8.106 73.5643 7.896 73.5643 7.616V3.332C73.5643 3.052 73.541 2.84667 73.4943 2.716C73.4476 2.58533 73.359 2.49667 73.2283 2.45C73.107 2.394 72.9156 2.366 72.6543 2.366C72.6356 2.366 72.6263 2.338 72.6263 2.282C72.6263 2.226 72.6356 2.198 72.6543 2.198H77.6663C77.7596 2.198 77.8063 2.23533 77.8063 2.31L77.8203 3.178C77.8296 3.35533 77.8343 3.57933 77.8343 3.85C77.8343 3.878 77.8063 3.892 77.7503 3.892C77.7036 3.892 77.6756 3.878 77.6663 3.85C77.489 3.43933 77.2183 3.094 76.8543 2.814C76.4903 2.52467 76.1216 2.38 75.7483 2.38H75.6503C75.445 2.38 75.291 2.408 75.1883 2.464C75.095 2.51067 75.0296 2.59933 74.9923 2.73C74.9643 2.86067 74.9503 3.066 74.9503 3.346V7.56C74.9503 7.84 74.9643 8.04533 74.9923 8.176C75.0296 8.30667 75.095 8.4 75.1883 8.456C75.291 8.50267 75.445 8.526 75.6503 8.526H75.8043C76.243 8.526 76.677 8.372 77.1063 8.064C77.5356 7.74667 77.853 7.35467 78.0583 6.888C78.077 6.86 78.1096 6.846 78.1563 6.846C78.203 6.846 78.2263 6.86 78.2263 6.888C78.161 7.56 78.1283 8.11067 78.1283 8.54C78.1283 8.61467 78.1143 8.67067 78.0863 8.708C78.0583 8.736 78.0023 8.75 77.9183 8.75H72.6543ZM77.0923 5.754C77.0456 5.754 76.817 5.726 76.4063 5.67C76.005 5.614 75.3143 5.586 74.3343 5.586V5.236C75.3143 5.236 76.005 5.21267 76.4063 5.166C76.817 5.11 77.0456 5.082 77.0923 5.082C77.1576 5.082 77.1903 5.18467 77.1903 5.39C77.1903 5.48333 77.181 5.56733 77.1623 5.642C77.1436 5.71667 77.1203 5.754 77.0923 5.754ZM81.7245 6.398C81.1271 6.398 80.6511 6.23 80.2965 5.894C79.9418 5.54867 79.7645 5.04467 79.7645 4.382V3.332C79.7645 2.968 79.6898 2.716 79.5405 2.576C79.3911 2.436 79.2091 2.366 78.9945 2.366C78.9665 2.366 78.9525 2.338 78.9525 2.282C78.9525 2.226 78.9665 2.198 78.9945 2.198L79.6105 2.212C80.0025 2.23067 80.2778 2.24 80.4365 2.24C80.6045 2.24 80.8938 2.23067 81.3045 2.212L81.9905 2.198C82.0091 2.198 82.0185 2.226 82.0185 2.282C82.0185 2.338 82.0091 2.366 81.9905 2.366C81.7011 2.366 81.4725 2.44067 81.3045 2.59C81.1365 2.73 81.0525 2.98667 81.0525 3.36V4.06C81.0525 4.60133 81.1598 5.012 81.3745 5.292C81.5985 5.56267 81.9205 5.698 82.3405 5.698C82.6858 5.698 83.0498 5.586 83.4325 5.362C83.8151 5.138 84.1418 4.83933 84.4125 4.466L84.4825 4.62C83.6145 5.80533 82.6951 6.398 81.7245 6.398ZM83.1385 8.75C83.1105 8.75 83.0965 8.722 83.0965 8.666C83.0965 8.61 83.1105 8.582 83.1385 8.582C83.3998 8.582 83.5911 8.55867 83.7125 8.512C83.8338 8.456 83.9178 8.36267 83.9645 8.232C84.0111 8.10133 84.0345 7.896 84.0345 7.616V3.36C84.0345 2.95867 83.9738 2.69267 83.8525 2.562C83.7405 2.43133 83.5025 2.366 83.1385 2.366C83.1105 2.366 83.0965 2.338 83.0965 2.282C83.0965 2.226 83.1105 2.198 83.1385 2.198L83.7965 2.212C84.1885 2.23067 84.5011 2.24 84.7345 2.24C84.9678 2.24 85.2711 2.23067 85.6445 2.212L86.3445 2.198C86.3631 2.198 86.3725 2.226 86.3725 2.282C86.3725 2.338 86.3631 2.366 86.3445 2.366C86.0831 2.366 85.8871 2.394 85.7565 2.45C85.6258 2.49667 85.5371 2.58533 85.4905 2.716C85.4438 2.84667 85.4205 3.052 85.4205 3.332V7.616C85.4205 7.896 85.4438 8.106 85.4905 8.246C85.5371 8.37667 85.6211 8.46533 85.7425 8.512C85.8731 8.55867 86.0738 8.582 86.3445 8.582C86.3631 8.582 86.3725 8.61 86.3725 8.666C86.3725 8.722 86.3631 8.75 86.3445 8.75C86.0458 8.75 85.8125 8.74533 85.6445 8.736L84.7345 8.722L83.7965 8.736C83.6378 8.74533 83.4185 8.75 83.1385 8.75ZM92.8852 3.36C92.8852 3.08 92.8619 2.87467 92.8152 2.744C92.7685 2.604 92.6845 2.506 92.5632 2.45C92.4419 2.394 92.2505 2.366 91.9892 2.366C91.9612 2.366 91.9472 2.338 91.9472 2.282C91.9472 2.226 91.9612 2.198 91.9892 2.198L92.6612 2.212C93.0345 2.23067 93.3472 2.24 93.5992 2.24C93.8232 2.24 94.1312 2.23067 94.5232 2.212L95.1952 2.198C95.2232 2.198 95.2372 2.226 95.2372 2.282C95.2372 2.338 95.2232 2.366 95.1952 2.366C94.9339 2.366 94.7379 2.394 94.6072 2.45C94.4859 2.49667 94.4019 2.58533 94.3552 2.716C94.3085 2.84667 94.2852 3.052 94.2852 3.332V7.616C94.2852 7.896 94.3085 8.106 94.3552 8.246C94.4019 8.37667 94.4859 8.46533 94.6072 8.512C94.7285 8.55867 94.9245 8.582 95.1952 8.582C95.2232 8.582 95.2372 8.61 95.2372 8.666C95.2372 8.722 95.2232 8.75 95.1952 8.75C94.9059 8.75 94.6819 8.74533 94.5232 8.736L93.5992 8.722L92.6612 8.736C92.5025 8.74533 92.2785 8.75 91.9892 8.75C91.9612 8.75 91.9472 8.722 91.9472 8.666C91.9472 8.61 91.9612 8.582 91.9892 8.582C92.2505 8.582 92.4419 8.55867 92.5632 8.512C92.6845 8.46533 92.7685 8.37667 92.8152 8.246C92.8619 8.106 92.8852 7.896 92.8852 7.616V3.36ZM88.6712 7.728L93.5292 2.87L93.8092 3.15L88.9372 8.008L88.6712 7.728ZM88.1252 3.332C88.1252 3.052 88.1019 2.84667 88.0552 2.716C88.0085 2.58533 87.9199 2.49667 87.7892 2.45C87.6679 2.394 87.4812 2.366 87.2292 2.366C87.2012 2.366 87.1872 2.338 87.1872 2.282C87.1872 2.226 87.2012 2.198 87.2292 2.198L87.9012 2.212C88.2745 2.23067 88.5779 2.24 88.8112 2.24C89.0632 2.24 89.3759 2.23067 89.7492 2.212L90.4212 2.198C90.4399 2.198 90.4492 2.226 90.4492 2.282C90.4492 2.338 90.4399 2.366 90.4212 2.366C90.0479 2.366 89.8005 2.43133 89.6792 2.562C89.5672 2.69267 89.5112 2.95867 89.5112 3.36V7.616C89.5112 7.896 89.5345 8.10133 89.5812 8.232C89.6279 8.36267 89.7119 8.456 89.8332 8.512C89.9639 8.55867 90.1599 8.582 90.4212 8.582C90.4399 8.582 90.4492 8.61 90.4492 8.666C90.4492 8.722 90.4399 8.75 90.4212 8.75C90.1319 8.75 89.9079 8.74533 89.7492 8.736L88.8112 8.722L87.9012 8.736C87.7332 8.74533 87.4999 8.75 87.2012 8.75C87.1825 8.75 87.1732 8.722 87.1732 8.666C87.1732 8.61 87.1825 8.582 87.2012 8.582C87.4719 8.582 87.6679 8.55867 87.7892 8.512C87.9199 8.46533 88.0085 8.37667 88.0552 8.246C88.1019 8.106 88.1252 7.896 88.1252 7.616V3.332Z" fill="#706760"/>
</svg>
