<svg width="203" height="40" viewBox="0 0 203 40" fill="none" xmlns="http://www.w3.org/2000/svg">
<path d="M13.58 12.26C13.6067 12.26 13.62 12.3 13.62 12.38C13.62 12.46 13.6067 12.5 13.58 12.5C13.14 12.5 12.7933 12.4933 12.54 12.48L11.16 12.46L9.66 12.48C9.40667 12.4933 9.06 12.5 8.62 12.5C8.59333 12.5 8.58 12.46 8.58 12.38C8.58 12.3 8.59333 12.26 8.62 12.26C9.11333 12.26 9.47333 12.2267 9.7 12.16C9.94 12.0933 10.1 11.9667 10.18 11.78C10.26 11.58 10.3 11.28 10.3 10.88V1.74C10.3 1.28667 10.2733 0.986666 10.22 0.84C10.18 0.693333 10.08 0.599999 9.92 0.56C9.76 0.52 9.42667 0.5 8.92 0.5H4.82C4.28667 0.5 3.92667 0.52 3.74 0.56C3.55333 0.599999 3.43333 0.699999 3.38 0.86C3.34 1.00667 3.32 1.3 3.32 1.74V10.88C3.32 11.28 3.36 11.58 3.44 11.78C3.52 11.9667 3.67333 12.0933 3.9 12.16C4.14 12.2267 4.50667 12.26 5 12.26C5.04 12.26 5.06 12.3 5.06 12.38C5.06 12.46 5.04 12.5 5 12.5C4.57333 12.5 4.23333 12.4933 3.98 12.48L2.48 12.46L1.08 12.48C0.826667 12.4933 0.48 12.5 0.04 12.5C0.0133333 12.5 2.23517e-08 12.46 2.23517e-08 12.38C2.23517e-08 12.3 0.0133333 12.26 0.04 12.26C0.533333 12.26 0.893333 12.2267 1.12 12.16C1.36 12.0933 1.52 11.9667 1.6 11.78C1.69333 11.58 1.74 11.28 1.74 10.88V1.86C1.74 1.44667 1.7 1.12667 1.62 0.899999C1.54 0.673333 1.38 0.506667 1.14 0.4C0.9 0.293333 0.546667 0.239999 0.08 0.239999C0.04 0.239999 0.02 0.199999 0.02 0.12C0.02 0.0399999 0.04 0 0.08 0C0.52 0 0.946667 0.00666658 1.36 0.0199997C3.14667 0.0466661 4.99333 0.0599992 6.9 0.0599992C8.60667 0.0599992 10.6 0.0399995 12.88 0H13.58C13.6067 0 13.62 0.0399999 13.62 0.12C13.62 0.199999 13.6067 0.239999 13.58 0.239999C13.1 0.239999 12.74 0.293333 12.5 0.4C12.26 0.506667 12.0933 0.673333 12 0.899999C11.92 1.12667 11.88 1.44667 11.88 1.86V10.88C11.88 11.28 11.92 11.58 12 11.78C12.0933 11.9667 12.2533 12.0933 12.48 12.16C12.72 12.2267 13.0867 12.26 13.58 12.26ZM17.8228 10.8C17.8228 11.2133 17.8695 11.52 17.9628 11.72C18.0561 11.92 18.2295 12.06 18.4828 12.14C18.7495 12.22 19.1628 12.26 19.7228 12.26C19.7628 12.26 19.7828 12.3 19.7828 12.38C19.7828 12.46 19.7628 12.5 19.7228 12.5C19.2428 12.5 18.8628 12.4933 18.5828 12.48L17.1028 12.46L15.8628 12.48C15.6361 12.4933 15.3228 12.5 14.9228 12.5C14.8961 12.5 14.8828 12.46 14.8828 12.38C14.8828 12.3 14.8961 12.26 14.9228 12.26C15.3361 12.26 15.6428 12.2267 15.8428 12.16C16.0428 12.0933 16.1761 11.9667 16.2428 11.78C16.3228 11.58 16.3628 11.28 16.3628 10.88V4.76C16.3628 4.36 16.3228 4.06667 16.2428 3.88C16.1761 3.69333 16.0428 3.56667 15.8428 3.5C15.6428 3.42 15.3361 3.38 14.9228 3.38C14.8961 3.38 14.8828 3.34 14.8828 3.26C14.8828 3.18 14.8961 3.14 14.9228 3.14L15.8428 3.16C16.3761 3.18667 16.7895 3.2 17.0828 3.2C17.4295 3.2 17.8095 3.18 18.2228 3.14C18.3695 3.12667 18.5428 3.11333 18.7428 3.1C18.9561 3.08667 19.1895 3.08 19.4428 3.08C21.6828 3.08 22.8028 3.87333 22.8028 5.46C22.8028 6.1 22.6361 6.64667 22.3028 7.1C21.9828 7.54 21.5695 7.87333 21.0628 8.1C20.5561 8.31333 20.0295 8.42 19.4828 8.42C19.1761 8.42 18.9228 8.4 18.7228 8.36C18.6828 8.33333 18.6628 8.29333 18.6628 8.24C18.6628 8.14667 18.6961 8.1 18.7628 8.1C18.8561 8.1 18.9428 8.10667 19.0228 8.12C19.1161 8.13333 19.2095 8.14 19.3028 8.14C19.8361 8.14 20.2761 7.95333 20.6228 7.58C20.9828 7.19333 21.1628 6.62667 21.1628 5.88C21.1628 5.04 20.9695 4.41333 20.5828 4C20.1961 3.58667 19.6561 3.38 18.9628 3.38C18.6561 3.38 18.4228 3.41333 18.2628 3.48C18.1161 3.53333 18.0028 3.66 17.9228 3.86C17.8561 4.06 17.8228 4.37333 17.8228 4.8V10.8ZM32.4797 4.8C32.4797 4.4 32.4464 4.10667 32.3797 3.92C32.313 3.72 32.1797 3.58 31.9797 3.5C31.7797 3.42 31.473 3.38 31.0597 3.38C31.0197 3.38 30.9997 3.34 30.9997 3.26C30.9997 3.18 31.0197 3.14 31.0597 3.14L31.9597 3.16C32.4664 3.18667 32.893 3.2 33.2397 3.2C33.5464 3.2 33.953 3.18667 34.4597 3.16L35.3997 3.14C35.4264 3.14 35.4397 3.18 35.4397 3.26C35.4397 3.34 35.4264 3.38 35.3997 3.38C34.973 3.38 34.6597 3.42 34.4597 3.5C34.2597 3.56667 34.1197 3.69333 34.0397 3.88C33.973 4.06667 33.9397 4.36 33.9397 4.76V10.88C33.9397 11.28 33.973 11.58 34.0397 11.78C34.1197 11.9667 34.2597 12.0933 34.4597 12.16C34.6597 12.2267 34.973 12.26 35.3997 12.26C35.4264 12.26 35.4397 12.3 35.4397 12.38C35.4397 12.46 35.4264 12.5 35.3997 12.5C34.9997 12.5 34.6864 12.4933 34.4597 12.48L33.2397 12.46L31.9597 12.48C31.7464 12.4933 31.4464 12.5 31.0597 12.5C31.0197 12.5 30.9997 12.46 30.9997 12.38C30.9997 12.3 31.0197 12.26 31.0597 12.26C31.4864 12.26 31.793 12.2267 31.9797 12.16C32.1797 12.0933 32.313 11.9667 32.3797 11.78C32.4464 11.58 32.4797 11.28 32.4797 10.88V4.8ZM26.1997 11.12L33.1397 4.18L33.4597 4.5L26.4997 11.44L26.1997 11.12ZM25.6797 4.76C25.6797 4.36 25.6397 4.06667 25.5597 3.88C25.493 3.69333 25.3597 3.56667 25.1597 3.5C24.973 3.42 24.673 3.38 24.2597 3.38C24.2197 3.38 24.1997 3.34 24.1997 3.26C24.1997 3.18 24.2197 3.14 24.2597 3.14L25.1597 3.16C25.6664 3.18667 26.0797 3.2 26.3997 3.2C26.7197 3.2 27.1464 3.18667 27.6797 3.16L28.5597 3.14C28.5997 3.14 28.6197 3.18 28.6197 3.26C28.6197 3.34 28.5997 3.38 28.5597 3.38C28.1464 3.38 27.8397 3.42 27.6397 3.5C27.453 3.58 27.3197 3.72 27.2397 3.92C27.173 4.10667 27.1397 4.4 27.1397 4.8V10.88C27.1397 11.28 27.173 11.58 27.2397 11.78C27.3064 11.9667 27.433 12.0933 27.6197 12.16C27.8197 12.2267 28.133 12.26 28.5597 12.26C28.5997 12.26 28.6197 12.3 28.6197 12.38C28.6197 12.46 28.5997 12.5 28.5597 12.5C28.173 12.5 27.873 12.4933 27.6597 12.48L26.3997 12.46L25.1597 12.48C24.933 12.4933 24.6197 12.5 24.2197 12.5C24.193 12.5 24.1797 12.46 24.1797 12.38C24.1797 12.3 24.193 12.26 24.2197 12.26C24.6464 12.26 24.9597 12.2267 25.1597 12.16C25.3597 12.0933 25.493 11.9667 25.5597 11.78C25.6397 11.58 25.6797 11.28 25.6797 10.88V4.76ZM36.7197 12.5C36.693 12.5 36.6797 12.46 36.6797 12.38C36.6797 12.3 36.693 12.26 36.7197 12.26C37.1464 12.26 37.453 12.2267 37.6397 12.16C37.8397 12.0933 37.973 11.9667 38.0397 11.78C38.1197 11.58 38.1597 11.28 38.1597 10.88V4.76C38.1597 4.36 38.1197 4.06667 38.0397 3.88C37.973 3.69333 37.8397 3.56667 37.6397 3.5C37.4397 3.42 37.133 3.38 36.7197 3.38C36.693 3.38 36.6797 3.34 36.6797 3.26C36.6797 3.18 36.693 3.14 36.7197 3.14H43.9997C44.1197 3.14 44.1797 3.19333 44.1797 3.3C44.1797 4.06 44.1597 4.9 44.1197 5.82C44.1197 5.86 44.0797 5.88 43.9997 5.88C43.933 5.88 43.893 5.86 43.8797 5.82C43.733 5.08667 43.4597 4.52667 43.0597 4.14C42.673 3.74 42.1797 3.54 41.5797 3.54H40.9997C40.5864 3.54 40.2864 3.57333 40.0997 3.64C39.913 3.69333 39.7864 3.80667 39.7197 3.98C39.653 4.15333 39.6197 4.42 39.6197 4.78V10.8C39.6197 11.2267 39.6664 11.54 39.7597 11.74C39.853 11.9267 40.0264 12.06 40.2797 12.14C40.5464 12.22 40.9597 12.26 41.5197 12.26C41.5597 12.26 41.5797 12.3 41.5797 12.38C41.5797 12.46 41.5597 12.5 41.5197 12.5C41.0397 12.5 40.6664 12.4933 40.3997 12.48L38.8797 12.46L37.7197 12.48C37.493 12.4933 37.1597 12.5 36.7197 12.5ZM49.7261 3.52C49.3394 3.52 49.0661 3.54667 48.9061 3.6C48.7461 3.65333 48.6328 3.76 48.5661 3.92C48.4994 4.08 48.4461 4.34667 48.4061 4.72C48.2328 6.30667 48.0528 7.62 47.8661 8.66C47.6794 9.68667 47.3661 10.6133 46.9261 11.44C46.4861 12.2667 45.8928 12.68 45.1461 12.68C44.8661 12.68 44.6461 12.62 44.4861 12.5C44.3394 12.3667 44.2661 12.18 44.2661 11.94C44.2661 11.6867 44.3528 11.5 44.5261 11.38C44.6994 11.26 44.9194 11.2 45.1861 11.2C45.9728 11.2 46.5728 10.6733 46.9861 9.62C47.4128 8.56667 47.7194 7.06 47.9061 5.1C47.9328 4.80667 47.9461 4.61333 47.9461 4.52C47.9461 4.06667 47.8394 3.76667 47.6261 3.62C47.4261 3.46 47.0461 3.38 46.4861 3.38C46.4594 3.38 46.4461 3.34 46.4461 3.26C46.4461 3.18 46.4594 3.14 46.4861 3.14H54.3661C54.4061 3.14 54.4261 3.18 54.4261 3.26C54.4261 3.34 54.4061 3.38 54.3661 3.38C53.9528 3.38 53.6461 3.42 53.4461 3.5C53.2461 3.56667 53.1061 3.69333 53.0261 3.88C52.9594 4.06667 52.9261 4.36 52.9261 4.76V10.88C52.9261 11.28 52.9594 11.58 53.0261 11.78C53.1061 11.9667 53.2394 12.0933 53.4261 12.16C53.6261 12.2267 53.9394 12.26 54.3661 12.26C54.4061 12.26 54.4261 12.3 54.4261 12.38C54.4261 12.46 54.4061 12.5 54.3661 12.5C53.9794 12.5 53.6794 12.4933 53.4661 12.48L52.2061 12.46L50.9261 12.48C50.7128 12.4933 50.4194 12.5 50.0461 12.5C50.0061 12.5 49.9861 12.46 49.9861 12.38C49.9861 12.3 50.0061 12.26 50.0461 12.26C50.4728 12.26 50.7794 12.2267 50.9661 12.16C51.1661 12.0933 51.2994 11.9667 51.3661 11.78C51.4328 11.58 51.4661 11.28 51.4661 10.88V4.8C51.4661 4.44 51.4328 4.17333 51.3661 4C51.3128 3.82667 51.1928 3.70667 51.0061 3.64C50.8328 3.56 50.5594 3.52 50.1861 3.52H49.7261ZM58.725 7.6H62.385L62.525 8H58.425L58.725 7.6ZM66.125 12.26C66.1917 12.26 66.225 12.3 66.225 12.38C66.225 12.46 66.1917 12.5 66.125 12.5C65.8583 12.5 65.4583 12.4867 64.925 12.46C64.3917 12.4333 64.005 12.42 63.765 12.42C63.5517 12.42 63.245 12.4333 62.845 12.46C62.4717 12.4867 62.1917 12.5 62.005 12.5C61.9517 12.5 61.925 12.46 61.925 12.38C61.925 12.3 61.9517 12.26 62.005 12.26C62.3383 12.26 62.5783 12.22 62.725 12.14C62.885 12.0467 62.965 11.9067 62.965 11.72C62.965 11.52 62.8717 11.22 62.685 10.82L59.805 4.6L60.445 3.82L57.905 10.04C57.6783 10.6 57.565 11.0267 57.565 11.32C57.565 11.6533 57.6783 11.8933 57.905 12.04C58.145 12.1867 58.5117 12.26 59.005 12.26C59.0717 12.26 59.105 12.3 59.105 12.38C59.105 12.46 59.0717 12.5 59.005 12.5C58.8183 12.5 58.5517 12.4867 58.205 12.46C57.8317 12.4333 57.485 12.42 57.165 12.42C56.8317 12.42 56.4383 12.4333 55.985 12.46C55.585 12.4867 55.2583 12.5 55.005 12.5C54.9383 12.5 54.905 12.46 54.905 12.38C54.905 12.3 54.9383 12.26 55.005 12.26C55.4183 12.26 55.745 12.2067 55.985 12.1C56.2383 11.98 56.465 11.7533 56.665 11.42C56.8783 11.0867 57.1317 10.5667 57.425 9.86L60.345 2.84C60.3717 2.78667 60.4117 2.76 60.465 2.76C60.5183 2.76 60.5583 2.78667 60.585 2.84L63.785 9.76C64.1317 10.4933 64.4117 11.0333 64.625 11.38C64.8383 11.7133 65.0517 11.9467 65.265 12.08C65.4917 12.2 65.7783 12.26 66.125 12.26ZM66.8173 12.5C66.7907 12.5 66.7773 12.46 66.7773 12.38C66.7773 12.3 66.7907 12.26 66.8173 12.26C67.244 12.26 67.5573 12.2267 67.7573 12.16C67.9573 12.0933 68.0907 11.9667 68.1573 11.78C68.2373 11.58 68.2773 11.28 68.2773 10.88V4.76C68.2773 4.36 68.2373 4.06667 68.1573 3.88C68.0907 3.69333 67.9573 3.56667 67.7573 3.5C67.5573 3.42 67.244 3.38 66.8173 3.38C66.7907 3.38 66.7773 3.34 66.7773 3.26C66.7773 3.18 66.7907 3.14 66.8173 3.14L67.7573 3.16C68.264 3.18667 68.6773 3.2 68.9973 3.2C69.3307 3.2 69.7507 3.18667 70.2573 3.16L71.1573 3.14C71.1973 3.14 71.2173 3.18 71.2173 3.26C71.2173 3.34 71.1973 3.38 71.1573 3.38C70.744 3.38 70.4373 3.42 70.2373 3.5C70.0373 3.56667 69.904 3.69333 69.8373 3.88C69.7707 4.06667 69.7373 4.36 69.7373 4.76V10.84C69.7373 11.1867 69.7707 11.4467 69.8373 11.62C69.904 11.7933 70.0373 11.9133 70.2373 11.98C70.4373 12.0467 70.744 12.08 71.1573 12.08H73.1373C73.5507 12.08 73.8573 12.0467 74.0573 11.98C74.2573 11.9133 74.3907 11.7933 74.4573 11.62C74.5373 11.4467 74.5773 11.1867 74.5773 10.84V4.76C74.5773 4.36 74.5373 4.06667 74.4573 3.88C74.3907 3.69333 74.2573 3.56667 74.0573 3.5C73.8573 3.42 73.5507 3.38 73.1373 3.38C73.1107 3.38 73.0973 3.34 73.0973 3.26C73.0973 3.18 73.1107 3.14 73.1373 3.14L74.0373 3.16C74.544 3.18667 74.964 3.2 75.2973 3.2C75.604 3.2 76.024 3.18667 76.5573 3.16L77.4573 3.14C77.4973 3.14 77.5173 3.18 77.5173 3.26C77.5173 3.34 77.4973 3.38 77.4573 3.38C77.044 3.38 76.7373 3.42 76.5373 3.5C76.3373 3.56667 76.1973 3.69333 76.1173 3.88C76.0507 4.06667 76.0173 4.36 76.0173 4.76V10.84C76.0173 11.1867 76.0507 11.4467 76.1173 11.62C76.184 11.7933 76.3173 11.9133 76.5173 11.98C76.7173 12.0467 77.024 12.08 77.4373 12.08H79.4173C79.8307 12.08 80.1373 12.0467 80.3373 11.98C80.5373 11.9133 80.6707 11.7933 80.7373 11.62C80.8173 11.4467 80.8573 11.1867 80.8573 10.84V4.76C80.8573 4.36 80.824 4.06667 80.7573 3.88C80.6907 3.69333 80.5573 3.56667 80.3573 3.5C80.1573 3.42 79.844 3.38 79.4173 3.38C79.3907 3.38 79.3773 3.34 79.3773 3.26C79.3773 3.18 79.3907 3.14 79.4173 3.14L80.3373 3.16C80.844 3.18667 81.2573 3.2 81.5773 3.2C81.884 3.2 82.304 3.18667 82.8373 3.16L83.7573 3.14C83.7973 3.14 83.8173 3.18 83.8173 3.26C83.8173 3.34 83.7973 3.38 83.7573 3.38C83.344 3.38 83.0373 3.42 82.8373 3.5C82.6373 3.56667 82.4973 3.69333 82.4173 3.88C82.3507 4.06667 82.3173 4.36 82.3173 4.76V10.88C82.3173 11.28 82.3507 11.58 82.4173 11.78C82.4973 11.9667 82.6307 12.0933 82.8173 12.16C83.0173 12.2267 83.3307 12.26 83.7573 12.26C83.7973 12.26 83.8173 12.3 83.8173 12.38C83.8173 12.46 83.7973 12.5 83.7573 12.5H66.8173ZM85.0791 12.5C85.0524 12.5 85.0391 12.46 85.0391 12.38C85.0391 12.3 85.0524 12.26 85.0791 12.26C85.5057 12.26 85.8124 12.2267 85.9991 12.16C86.1991 12.0933 86.3324 11.9667 86.3991 11.78C86.4791 11.58 86.5191 11.28 86.5191 10.88V4.76C86.5191 4.36 86.4791 4.06667 86.3991 3.88C86.3324 3.69333 86.1991 3.56667 85.9991 3.5C85.7991 3.42 85.4924 3.38 85.0791 3.38C85.0524 3.38 85.0391 3.34 85.0391 3.26C85.0391 3.18 85.0524 3.14 85.0791 3.14H92.1191C92.2524 3.14 92.3191 3.19333 92.3191 3.3L92.3391 4.54C92.3524 4.79333 92.3591 5.11333 92.3591 5.5C92.3591 5.54 92.3191 5.56 92.2391 5.56C92.1591 5.56 92.1191 5.54 92.1191 5.5C91.9991 4.88667 91.7191 4.38667 91.2791 4C90.8524 3.6 90.3591 3.4 89.7991 3.4H89.3591C88.9591 3.4 88.6591 3.44 88.4591 3.52C88.2724 3.58667 88.1457 3.71333 88.0791 3.9C88.0124 4.08667 87.9791 4.38 87.9791 4.78V10.8C87.9791 11.1867 88.0124 11.48 88.0791 11.68C88.1457 11.8667 88.2724 12 88.4591 12.08C88.6591 12.1467 88.9591 12.18 89.3591 12.18H90.0991C90.6724 12.18 91.1991 11.96 91.6791 11.52C92.1591 11.08 92.4924 10.52 92.6791 9.84C92.6924 9.8 92.7324 9.78 92.7991 9.78C92.8791 9.78 92.9191 9.8 92.9191 9.84C92.8257 10.8 92.7791 11.5867 92.7791 12.2C92.7791 12.3067 92.7591 12.3867 92.7191 12.44C92.6791 12.48 92.5991 12.5 92.4791 12.5H85.0791ZM91.2991 8.2C91.2457 8.2 90.9457 8.16 90.3991 8.08C89.8524 8 88.8391 7.96 87.3591 7.96V7.5C88.8257 7.5 89.8324 7.46667 90.3791 7.4C90.9257 7.33333 91.2324 7.3 91.2991 7.3C91.3791 7.3 91.4191 7.44667 91.4191 7.74C91.4191 8.04667 91.3791 8.2 91.2991 8.2ZM102.616 4.8C102.616 4.4 102.583 4.10667 102.516 3.92C102.45 3.72 102.316 3.58 102.116 3.5C101.916 3.42 101.61 3.38 101.196 3.38C101.156 3.38 101.136 3.34 101.136 3.26C101.136 3.18 101.156 3.14 101.196 3.14L102.096 3.16C102.603 3.18667 103.03 3.2 103.376 3.2C103.683 3.2 104.09 3.18667 104.596 3.16L105.536 3.14C105.563 3.14 105.576 3.18 105.576 3.26C105.576 3.34 105.563 3.38 105.536 3.38C105.11 3.38 104.796 3.42 104.596 3.5C104.396 3.56667 104.256 3.69333 104.176 3.88C104.11 4.06667 104.076 4.36 104.076 4.76V10.88C104.076 11.28 104.11 11.58 104.176 11.78C104.256 11.9667 104.396 12.0933 104.596 12.16C104.796 12.2267 105.11 12.26 105.536 12.26C105.563 12.26 105.576 12.3 105.576 12.38C105.576 12.46 105.563 12.5 105.536 12.5C105.136 12.5 104.823 12.4933 104.596 12.48L103.376 12.46L102.096 12.48C101.883 12.4933 101.583 12.5 101.196 12.5C101.156 12.5 101.136 12.46 101.136 12.38C101.136 12.3 101.156 12.26 101.196 12.26C101.623 12.26 101.93 12.2267 102.116 12.16C102.316 12.0933 102.45 11.9667 102.516 11.78C102.583 11.58 102.616 11.28 102.616 10.88V4.8ZM96.4964 7.58H103.276V7.98H96.4964V7.58ZM95.8164 4.76C95.8164 4.36 95.7764 4.06667 95.6964 3.88C95.6297 3.69333 95.4964 3.56667 95.2964 3.5C95.1097 3.42 94.8097 3.38 94.3964 3.38C94.3564 3.38 94.3364 3.34 94.3364 3.26C94.3364 3.18 94.3564 3.14 94.3964 3.14L95.2964 3.16C95.8031 3.18667 96.2164 3.2 96.5364 3.2C96.8564 3.2 97.2831 3.18667 97.8164 3.16L98.6964 3.14C98.7364 3.14 98.7564 3.18 98.7564 3.26C98.7564 3.34 98.7364 3.38 98.6964 3.38C98.2831 3.38 97.9764 3.42 97.7764 3.5C97.5897 3.58 97.4564 3.72 97.3764 3.92C97.3097 4.10667 97.2764 4.4 97.2764 4.8V10.88C97.2764 11.28 97.3097 11.58 97.3764 11.78C97.4431 11.9667 97.5697 12.0933 97.7564 12.16C97.9564 12.2267 98.2697 12.26 98.6964 12.26C98.7364 12.26 98.7564 12.3 98.7564 12.38C98.7564 12.46 98.7364 12.5 98.6964 12.5C98.3097 12.5 98.0097 12.4933 97.7964 12.48L96.5364 12.46L95.2964 12.48C95.0697 12.4933 94.7564 12.5 94.3564 12.5C94.3297 12.5 94.3164 12.46 94.3164 12.38C94.3164 12.3 94.3297 12.26 94.3564 12.26C94.7831 12.26 95.0964 12.2267 95.2964 12.16C95.4964 12.0933 95.6297 11.9667 95.6964 11.78C95.7764 11.58 95.8164 11.28 95.8164 10.88V4.76ZM115.116 4.8C115.116 4.4 115.083 4.10667 115.016 3.92C114.95 3.72 114.816 3.58 114.616 3.5C114.416 3.42 114.11 3.38 113.696 3.38C113.656 3.38 113.636 3.34 113.636 3.26C113.636 3.18 113.656 3.14 113.696 3.14L114.596 3.16C115.103 3.18667 115.53 3.2 115.876 3.2C116.183 3.2 116.59 3.18667 117.096 3.16L118.036 3.14C118.063 3.14 118.076 3.18 118.076 3.26C118.076 3.34 118.063 3.38 118.036 3.38C117.61 3.38 117.296 3.42 117.096 3.5C116.896 3.56667 116.756 3.69333 116.676 3.88C116.61 4.06667 116.576 4.36 116.576 4.76V10.88C116.576 11.28 116.61 11.58 116.676 11.78C116.756 11.9667 116.896 12.0933 117.096 12.16C117.296 12.2267 117.61 12.26 118.036 12.26C118.063 12.26 118.076 12.3 118.076 12.38C118.076 12.46 118.063 12.5 118.036 12.5C117.636 12.5 117.323 12.4933 117.096 12.48L115.876 12.46L114.596 12.48C114.383 12.4933 114.083 12.5 113.696 12.5C113.656 12.5 113.636 12.46 113.636 12.38C113.636 12.3 113.656 12.26 113.696 12.26C114.123 12.26 114.43 12.2267 114.616 12.16C114.816 12.0933 114.95 11.9667 115.016 11.78C115.083 11.58 115.116 11.28 115.116 10.88V4.8ZM108.836 11.12L115.776 4.18L116.096 4.5L109.136 11.44L108.836 11.12ZM108.316 4.76C108.316 4.36 108.276 4.06667 108.196 3.88C108.13 3.69333 107.996 3.56667 107.796 3.5C107.61 3.42 107.31 3.38 106.896 3.38C106.856 3.38 106.836 3.34 106.836 3.26C106.836 3.18 106.856 3.14 106.896 3.14L107.796 3.16C108.303 3.18667 108.716 3.2 109.036 3.2C109.356 3.2 109.783 3.18667 110.316 3.16L111.196 3.14C111.236 3.14 111.256 3.18 111.256 3.26C111.256 3.34 111.236 3.38 111.196 3.38C110.783 3.38 110.476 3.42 110.276 3.5C110.09 3.58 109.956 3.72 109.876 3.92C109.81 4.10667 109.776 4.4 109.776 4.8V10.88C109.776 11.28 109.81 11.58 109.876 11.78C109.943 11.9667 110.07 12.0933 110.256 12.16C110.456 12.2267 110.77 12.26 111.196 12.26C111.236 12.26 111.256 12.3 111.256 12.38C111.256 12.46 111.236 12.5 111.196 12.5C110.81 12.5 110.51 12.4933 110.296 12.48L109.036 12.46L107.796 12.48C107.57 12.4933 107.256 12.5 106.856 12.5C106.83 12.5 106.816 12.46 106.816 12.38C106.816 12.3 106.83 12.26 106.856 12.26C107.283 12.26 107.596 12.2267 107.796 12.16C107.996 12.0933 108.13 11.9667 108.196 11.78C108.276 11.58 108.316 11.28 108.316 10.88V4.76ZM119.356 12.5C119.33 12.5 119.316 12.46 119.316 12.38C119.316 12.3 119.33 12.26 119.356 12.26C119.783 12.26 120.09 12.2267 120.276 12.16C120.476 12.0933 120.61 11.9667 120.676 11.78C120.756 11.58 120.796 11.28 120.796 10.88V4.76C120.796 4.36 120.756 4.06667 120.676 3.88C120.61 3.69333 120.476 3.56667 120.276 3.5C120.076 3.42 119.77 3.38 119.356 3.38C119.33 3.38 119.316 3.34 119.316 3.26C119.316 3.18 119.33 3.14 119.356 3.14H126.396C126.53 3.14 126.596 3.19333 126.596 3.3L126.616 4.54C126.63 4.79333 126.636 5.11333 126.636 5.5C126.636 5.54 126.596 5.56 126.516 5.56C126.436 5.56 126.396 5.54 126.396 5.5C126.276 4.88667 125.996 4.38667 125.556 4C125.13 3.6 124.636 3.4 124.076 3.4H123.636C123.236 3.4 122.936 3.44 122.736 3.52C122.55 3.58667 122.423 3.71333 122.356 3.9C122.29 4.08667 122.256 4.38 122.256 4.78V10.8C122.256 11.1867 122.29 11.48 122.356 11.68C122.423 11.8667 122.55 12 122.736 12.08C122.936 12.1467 123.236 12.18 123.636 12.18H124.376C124.95 12.18 125.476 11.96 125.956 11.52C126.436 11.08 126.77 10.52 126.956 9.84C126.97 9.8 127.01 9.78 127.076 9.78C127.156 9.78 127.196 9.8 127.196 9.84C127.103 10.8 127.056 11.5867 127.056 12.2C127.056 12.3067 127.036 12.3867 126.996 12.44C126.956 12.48 126.876 12.5 126.756 12.5H119.356ZM125.576 8.2C125.523 8.2 125.223 8.16 124.676 8.08C124.13 8 123.116 7.96 121.636 7.96V7.5C123.103 7.5 124.11 7.46667 124.656 7.4C125.203 7.33333 125.51 7.3 125.576 7.3C125.656 7.3 125.696 7.44667 125.696 7.74C125.696 8.04667 125.656 8.2 125.576 8.2ZM141.581 4.8C141.581 4.4 141.548 4.10667 141.481 3.92C141.415 3.72 141.281 3.58 141.081 3.5C140.881 3.42 140.575 3.38 140.161 3.38C140.121 3.38 140.101 3.34 140.101 3.26C140.101 3.18 140.121 3.14 140.161 3.14L141.061 3.16C141.568 3.18667 141.995 3.2 142.341 3.2C142.648 3.2 143.055 3.18667 143.561 3.16L144.501 3.14C144.528 3.14 144.541 3.18 144.541 3.26C144.541 3.34 144.528 3.38 144.501 3.38C144.075 3.38 143.761 3.42 143.561 3.5C143.361 3.56667 143.221 3.69333 143.141 3.88C143.075 4.06667 143.041 4.36 143.041 4.76V10.88C143.041 11.28 143.075 11.58 143.141 11.78C143.221 11.9667 143.361 12.0933 143.561 12.16C143.761 12.2267 144.075 12.26 144.501 12.26C144.528 12.26 144.541 12.3 144.541 12.38C144.541 12.46 144.528 12.5 144.501 12.5C144.101 12.5 143.788 12.4933 143.561 12.48L142.341 12.46L141.061 12.48C140.848 12.4933 140.548 12.5 140.161 12.5C140.121 12.5 140.101 12.46 140.101 12.38C140.101 12.3 140.121 12.26 140.161 12.26C140.588 12.26 140.895 12.2267 141.081 12.16C141.281 12.0933 141.415 11.9667 141.481 11.78C141.548 11.58 141.581 11.28 141.581 10.88V4.8ZM135.461 7.58H142.241V7.98H135.461V7.58ZM134.781 4.76C134.781 4.36 134.741 4.06667 134.661 3.88C134.595 3.69333 134.461 3.56667 134.261 3.5C134.075 3.42 133.775 3.38 133.361 3.38C133.321 3.38 133.301 3.34 133.301 3.26C133.301 3.18 133.321 3.14 133.361 3.14L134.261 3.16C134.768 3.18667 135.181 3.2 135.501 3.2C135.821 3.2 136.248 3.18667 136.781 3.16L137.661 3.14C137.701 3.14 137.721 3.18 137.721 3.26C137.721 3.34 137.701 3.38 137.661 3.38C137.248 3.38 136.941 3.42 136.741 3.5C136.555 3.58 136.421 3.72 136.341 3.92C136.275 4.10667 136.241 4.4 136.241 4.8V10.88C136.241 11.28 136.275 11.58 136.341 11.78C136.408 11.9667 136.535 12.0933 136.721 12.16C136.921 12.2267 137.235 12.26 137.661 12.26C137.701 12.26 137.721 12.3 137.721 12.38C137.721 12.46 137.701 12.5 137.661 12.5C137.275 12.5 136.975 12.4933 136.761 12.48L135.501 12.46L134.261 12.48C134.035 12.4933 133.721 12.5 133.321 12.5C133.295 12.5 133.281 12.46 133.281 12.38C133.281 12.3 133.295 12.26 133.321 12.26C133.748 12.26 134.061 12.2267 134.261 12.16C134.461 12.0933 134.595 11.9667 134.661 11.78C134.741 11.58 134.781 11.28 134.781 10.88V4.76ZM148.881 7.6H152.541L152.681 8H148.581L148.881 7.6ZM156.281 12.26C156.348 12.26 156.381 12.3 156.381 12.38C156.381 12.46 156.348 12.5 156.281 12.5C156.015 12.5 155.615 12.4867 155.081 12.46C154.548 12.4333 154.161 12.42 153.921 12.42C153.708 12.42 153.401 12.4333 153.001 12.46C152.628 12.4867 152.348 12.5 152.161 12.5C152.108 12.5 152.081 12.46 152.081 12.38C152.081 12.3 152.108 12.26 152.161 12.26C152.495 12.26 152.735 12.22 152.881 12.14C153.041 12.0467 153.121 11.9067 153.121 11.72C153.121 11.52 153.028 11.22 152.841 10.82L149.961 4.6L150.601 3.82L148.061 10.04C147.835 10.6 147.721 11.0267 147.721 11.32C147.721 11.6533 147.835 11.8933 148.061 12.04C148.301 12.1867 148.668 12.26 149.161 12.26C149.228 12.26 149.261 12.3 149.261 12.38C149.261 12.46 149.228 12.5 149.161 12.5C148.975 12.5 148.708 12.4867 148.361 12.46C147.988 12.4333 147.641 12.42 147.321 12.42C146.988 12.42 146.595 12.4333 146.141 12.46C145.741 12.4867 145.415 12.5 145.161 12.5C145.095 12.5 145.061 12.46 145.061 12.38C145.061 12.3 145.095 12.26 145.161 12.26C145.575 12.26 145.901 12.2067 146.141 12.1C146.395 11.98 146.621 11.7533 146.821 11.42C147.035 11.0867 147.288 10.5667 147.581 9.86L150.501 2.84C150.528 2.78667 150.568 2.76 150.621 2.76C150.675 2.76 150.715 2.78667 150.741 2.84L153.941 9.76C154.288 10.4933 154.568 11.0333 154.781 11.38C154.995 11.7133 155.208 11.9467 155.421 12.08C155.648 12.2 155.935 12.26 156.281 12.26ZM161.281 15.54C161.281 14.66 161.248 13.8533 161.181 13.12C161.154 12.8267 161.141 12.62 161.141 12.5C161.141 12.38 161.148 12.3133 161.161 12.3C161.188 12.2733 161.254 12.26 161.361 12.26C162.281 12.26 163.008 11.64 163.541 10.4C164.088 9.14667 164.448 7.38 164.621 5.1C164.634 4.96667 164.641 4.79333 164.641 4.58C164.641 4.08667 164.541 3.76667 164.341 3.62C164.141 3.46 163.761 3.38 163.201 3.38C163.161 3.38 163.141 3.34 163.141 3.26C163.141 3.18 163.161 3.14 163.201 3.14H170.981C171.008 3.14 171.021 3.18 171.021 3.26C171.021 3.34 171.008 3.38 170.981 3.38C170.554 3.38 170.241 3.42 170.041 3.5C169.841 3.58 169.708 3.72 169.641 3.92C169.574 4.10667 169.541 4.4 169.541 4.8V10.88C169.541 10.9867 169.534 11.22 169.521 11.58C169.521 11.94 169.614 12.1467 169.801 12.2C169.988 12.24 170.348 12.26 170.881 12.26C170.974 12.26 171.028 12.2733 171.041 12.3C171.068 12.3133 171.081 12.38 171.081 12.5C171.081 12.58 171.068 12.78 171.041 13.1C170.974 13.8333 170.941 14.6467 170.941 15.54C170.941 15.6067 170.901 15.64 170.821 15.64C170.741 15.64 170.701 15.6067 170.701 15.54C170.701 14.46 170.494 13.68 170.081 13.2C169.681 12.7333 169.101 12.5 168.341 12.5H163.741C163.034 12.5 162.488 12.7333 162.101 13.2C161.714 13.68 161.521 14.46 161.521 15.54C161.521 15.6067 161.481 15.64 161.401 15.64C161.321 15.64 161.281 15.6067 161.281 15.54ZM162.361 12.04H165.801C166.628 12.04 167.181 12.0267 167.461 12C167.741 11.96 167.921 11.8667 168.001 11.72C168.094 11.5733 168.141 11.2933 168.141 10.88V4.76C168.141 4.30667 168.128 4.01333 168.101 3.88C168.074 3.73333 168.001 3.64667 167.881 3.62C167.774 3.58 167.548 3.56 167.201 3.56H166.421C166.034 3.56 165.768 3.58667 165.621 3.64C165.474 3.68 165.374 3.77333 165.321 3.92C165.268 4.06667 165.221 4.33333 165.181 4.72C164.968 7.10667 164.621 8.95333 164.141 10.26C163.661 11.5667 162.941 12.34 161.981 12.58L162.361 12.04ZM172.364 12.5C172.338 12.5 172.324 12.46 172.324 12.38C172.324 12.3 172.338 12.26 172.364 12.26C172.791 12.26 173.098 12.2267 173.284 12.16C173.484 12.0933 173.618 11.9667 173.684 11.78C173.764 11.58 173.804 11.28 173.804 10.88V4.76C173.804 4.36 173.764 4.06667 173.684 3.88C173.618 3.69333 173.484 3.56667 173.284 3.5C173.084 3.42 172.778 3.38 172.364 3.38C172.338 3.38 172.324 3.34 172.324 3.26C172.324 3.18 172.338 3.14 172.364 3.14H179.404C179.538 3.14 179.604 3.19333 179.604 3.3L179.624 4.54C179.638 4.79333 179.644 5.11333 179.644 5.5C179.644 5.54 179.604 5.56 179.524 5.56C179.444 5.56 179.404 5.54 179.404 5.5C179.284 4.88667 179.004 4.38667 178.564 4C178.138 3.6 177.644 3.4 177.084 3.4H176.644C176.244 3.4 175.944 3.44 175.744 3.52C175.558 3.58667 175.431 3.71333 175.364 3.9C175.298 4.08667 175.264 4.38 175.264 4.78V10.8C175.264 11.1867 175.298 11.48 175.364 11.68C175.431 11.8667 175.558 12 175.744 12.08C175.944 12.1467 176.244 12.18 176.644 12.18H177.384C177.958 12.18 178.484 11.96 178.964 11.52C179.444 11.08 179.778 10.52 179.964 9.84C179.978 9.8 180.018 9.78 180.084 9.78C180.164 9.78 180.204 9.8 180.204 9.84C180.111 10.8 180.064 11.5867 180.064 12.2C180.064 12.3067 180.044 12.3867 180.004 12.44C179.964 12.48 179.884 12.5 179.764 12.5H172.364ZM178.584 8.2C178.531 8.2 178.231 8.16 177.684 8.08C177.138 8 176.124 7.96 174.644 7.96V7.5C176.111 7.5 177.118 7.46667 177.664 7.4C178.211 7.33333 178.518 7.3 178.584 7.3C178.664 7.3 178.704 7.44667 178.704 7.74C178.704 8.04667 178.664 8.2 178.584 8.2ZM189.902 4.8C189.902 4.4 189.868 4.10667 189.802 3.92C189.735 3.72 189.602 3.58 189.402 3.5C189.202 3.42 188.895 3.38 188.482 3.38C188.442 3.38 188.422 3.34 188.422 3.26C188.422 3.18 188.442 3.14 188.482 3.14L189.382 3.16C189.888 3.18667 190.315 3.2 190.662 3.2C190.968 3.2 191.375 3.18667 191.882 3.16L192.822 3.14C192.848 3.14 192.862 3.18 192.862 3.26C192.862 3.34 192.848 3.38 192.822 3.38C192.395 3.38 192.082 3.42 191.882 3.5C191.682 3.56667 191.542 3.69333 191.462 3.88C191.395 4.06667 191.362 4.36 191.362 4.76V10.88C191.362 11.28 191.395 11.58 191.462 11.78C191.542 11.9667 191.682 12.0933 191.882 12.16C192.082 12.2267 192.395 12.26 192.822 12.26C192.848 12.26 192.862 12.3 192.862 12.38C192.862 12.46 192.848 12.5 192.822 12.5C192.422 12.5 192.108 12.4933 191.882 12.48L190.662 12.46L189.382 12.48C189.168 12.4933 188.868 12.5 188.482 12.5C188.442 12.5 188.422 12.46 188.422 12.38C188.422 12.3 188.442 12.26 188.482 12.26C188.908 12.26 189.215 12.2267 189.402 12.16C189.602 12.0933 189.735 11.9667 189.802 11.78C189.868 11.58 189.902 11.28 189.902 10.88V4.8ZM183.782 7.58H190.562V7.98H183.782V7.58ZM183.102 4.76C183.102 4.36 183.062 4.06667 182.982 3.88C182.915 3.69333 182.782 3.56667 182.582 3.5C182.395 3.42 182.095 3.38 181.682 3.38C181.642 3.38 181.622 3.34 181.622 3.26C181.622 3.18 181.642 3.14 181.682 3.14L182.582 3.16C183.088 3.18667 183.502 3.2 183.822 3.2C184.142 3.2 184.568 3.18667 185.102 3.16L185.982 3.14C186.022 3.14 186.042 3.18 186.042 3.26C186.042 3.34 186.022 3.38 185.982 3.38C185.568 3.38 185.262 3.42 185.062 3.5C184.875 3.58 184.742 3.72 184.662 3.92C184.595 4.10667 184.562 4.4 184.562 4.8V10.88C184.562 11.28 184.595 11.58 184.662 11.78C184.728 11.9667 184.855 12.0933 185.042 12.16C185.242 12.2267 185.555 12.26 185.982 12.26C186.022 12.26 186.042 12.3 186.042 12.38C186.042 12.46 186.022 12.5 185.982 12.5C185.595 12.5 185.295 12.4933 185.082 12.48L183.822 12.46L182.582 12.48C182.355 12.4933 182.042 12.5 181.642 12.5C181.615 12.5 181.602 12.46 181.602 12.38C181.602 12.3 181.615 12.26 181.642 12.26C182.068 12.26 182.382 12.2267 182.582 12.16C182.782 12.0933 182.915 11.9667 182.982 11.78C183.062 11.58 183.102 11.28 183.102 10.88V4.76ZM197.062 10.88C197.062 11.3867 197.168 11.7467 197.382 11.96C197.608 12.16 198.042 12.26 198.682 12.26C200.402 12.26 201.262 11.5333 201.262 10.08C201.262 9.28 201.008 8.67333 200.502 8.26C200.008 7.84667 199.282 7.64 198.322 7.64C197.748 7.64 197.108 7.71333 196.402 7.86L196.322 7.54C197.562 7.34 198.535 7.24 199.242 7.24C201.642 7.24 202.842 8.04667 202.842 9.66C202.842 10.2333 202.682 10.74 202.362 11.18C202.042 11.62 201.595 11.9667 201.022 12.22C200.448 12.46 199.795 12.58 199.062 12.58C198.688 12.58 198.262 12.56 197.782 12.52C197.595 12.5067 197.375 12.4933 197.122 12.48C196.868 12.4667 196.595 12.46 196.302 12.46L195.082 12.48C194.855 12.4933 194.542 12.5 194.142 12.5C194.115 12.5 194.102 12.46 194.102 12.38C194.102 12.3 194.115 12.26 194.142 12.26C194.582 12.26 194.902 12.2267 195.102 12.16C195.302 12.0933 195.435 11.9667 195.502 11.78C195.568 11.58 195.602 11.28 195.602 10.88V4.76C195.602 4.36 195.562 4.06667 195.482 3.88C195.415 3.69333 195.282 3.56667 195.082 3.5C194.895 3.42 194.595 3.38 194.182 3.38C194.142 3.38 194.122 3.34 194.122 3.26C194.122 3.18 194.142 3.14 194.182 3.14L195.082 3.16C195.588 3.18667 196.002 3.2 196.322 3.2C196.642 3.2 197.068 3.18667 197.602 3.16L198.482 3.14C198.522 3.14 198.542 3.18 198.542 3.26C198.542 3.34 198.522 3.38 198.482 3.38C198.068 3.38 197.762 3.42 197.562 3.5C197.375 3.58 197.242 3.72 197.162 3.92C197.095 4.10667 197.062 4.4 197.062 4.8V10.88ZM59.5416 34.8C59.5416 35.2133 59.5882 35.52 59.6816 35.72C59.7749 35.92 59.9482 36.06 60.2016 36.14C60.4682 36.22 60.8816 36.26 61.4416 36.26C61.4816 36.26 61.5016 36.3 61.5016 36.38C61.5016 36.46 61.4816 36.5 61.4416 36.5C60.9616 36.5 60.5816 36.4933 60.3016 36.48L58.8216 36.46L57.5816 36.48C57.3549 36.4933 57.0416 36.5 56.6416 36.5C56.6149 36.5 56.6016 36.46 56.6016 36.38C56.6016 36.3 56.6149 36.26 56.6416 36.26C57.0549 36.26 57.3616 36.2267 57.5616 36.16C57.7616 36.0933 57.8949 35.9667 57.9616 35.78C58.0416 35.58 58.0816 35.28 58.0816 34.88V28.76C58.0816 28.36 58.0416 28.0667 57.9616 27.88C57.8949 27.6933 57.7616 27.5667 57.5616 27.5C57.3616 27.42 57.0549 27.38 56.6416 27.38C56.6149 27.38 56.6016 27.34 56.6016 27.26C56.6016 27.18 56.6149 27.14 56.6416 27.14L57.5616 27.16C58.0949 27.1867 58.5082 27.2 58.8016 27.2C59.1482 27.2 59.5282 27.18 59.9416 27.14C60.0882 27.1267 60.2616 27.1133 60.4616 27.1C60.6749 27.0867 60.9082 27.08 61.1616 27.08C63.4016 27.08 64.5216 27.8733 64.5216 29.46C64.5216 30.1 64.3549 30.6467 64.0216 31.1C63.7016 31.54 63.2882 31.8733 62.7816 32.1C62.2749 32.3133 61.7482 32.42 61.2016 32.42C60.8949 32.42 60.6416 32.4 60.4416 32.36C60.4016 32.3333 60.3816 32.2933 60.3816 32.24C60.3816 32.1467 60.4149 32.1 60.4816 32.1C60.5749 32.1 60.6616 32.1067 60.7416 32.12C60.8349 32.1333 60.9282 32.14 61.0216 32.14C61.5549 32.14 61.9949 31.9533 62.3416 31.58C62.7016 31.1933 62.8816 30.6267 62.8816 29.88C62.8816 29.04 62.6882 28.4133 62.3016 28C61.9149 27.5867 61.3749 27.38 60.6816 27.38C60.3749 27.38 60.1416 27.4133 59.9816 27.48C59.8349 27.5333 59.7216 27.66 59.6416 27.86C59.5749 28.06 59.5416 28.3733 59.5416 28.8V34.8ZM70.7784 36.74C69.8451 36.74 69.0118 36.52 68.2784 36.08C67.5451 35.64 66.9718 35.0467 66.5584 34.3C66.1584 33.5533 65.9584 32.74 65.9584 31.86C65.9584 30.8333 66.2251 29.9467 66.7584 29.2C67.2918 28.44 67.9718 27.8667 68.7984 27.48C69.6384 27.0933 70.4918 26.9 71.3584 26.9C72.2918 26.9 73.1184 27.1333 73.8384 27.6C74.5584 28.0533 75.1118 28.6467 75.4984 29.38C75.8851 30.1133 76.0784 30.88 76.0784 31.68C76.0784 32.5733 75.8384 33.4133 75.3584 34.2C74.8784 34.9733 74.2318 35.5933 73.4184 36.06C72.6184 36.5133 71.7384 36.74 70.7784 36.74ZM71.2784 36.32C72.2251 36.32 72.9851 35.9533 73.5584 35.22C74.1318 34.4733 74.4184 33.4533 74.4184 32.16C74.4184 31.28 74.2651 30.4733 73.9584 29.74C73.6651 29.0067 73.2384 28.4267 72.6784 28C72.1184 27.56 71.4518 27.34 70.6784 27.34C69.7051 27.34 68.9518 27.6867 68.4184 28.38C67.8851 29.0733 67.6184 30.0533 67.6184 31.32C67.6184 32.2533 67.7651 33.1 68.0584 33.86C68.3651 34.62 68.7918 35.22 69.3384 35.66C69.8984 36.1 70.5451 36.32 71.2784 36.32ZM90.0941 36.5C89.8674 36.5 89.6941 36.4667 89.5741 36.4C89.4674 36.32 89.3207 36.1467 89.1341 35.88C88.9607 35.6 88.6074 35 88.0741 34.08C87.6474 33.3333 87.3274 32.82 87.1141 32.54C86.9141 32.2467 86.6941 32.0467 86.4541 31.94C86.2274 31.82 85.9007 31.76 85.4741 31.76C85.3407 31.76 85.0474 31.7733 84.5941 31.8L84.5741 31.44C84.9207 31.4133 85.1607 31.4 85.2941 31.4C86.0674 31.3467 86.5341 31.32 86.6941 31.32C87.1341 31.32 87.4807 31.38 87.7341 31.5C88.0007 31.62 88.2407 31.8333 88.4541 32.14C88.6807 32.4333 89.0141 32.9467 89.4541 33.68C90.0674 34.68 90.5607 35.36 90.9341 35.72C91.3207 36.0667 91.7474 36.2467 92.2141 36.26C92.2541 36.26 92.2741 36.3 92.2741 36.38C92.2741 36.46 92.2541 36.5 92.2141 36.5H90.0941ZM82.1341 36.5C82.0941 36.5 82.0741 36.46 82.0741 36.38C82.0741 36.3 82.0941 36.26 82.1341 36.26C82.5607 36.26 82.8674 36.2267 83.0541 36.16C83.2541 36.0933 83.3874 35.9667 83.4541 35.78C83.5341 35.58 83.5741 35.28 83.5741 34.88V28.76C83.5741 28.36 83.5341 28.0667 83.4541 27.88C83.3874 27.6933 83.2541 27.5667 83.0541 27.5C82.8674 27.42 82.5674 27.38 82.1541 27.38C82.1141 27.38 82.0941 27.34 82.0941 27.26C82.0941 27.18 82.1141 27.14 82.1541 27.14L83.0541 27.16C83.5607 27.1867 83.9674 27.2 84.2741 27.2C84.6074 27.2 85.0407 27.1867 85.5741 27.16L86.4341 27.14C86.4741 27.14 86.4941 27.18 86.4941 27.26C86.4941 27.34 86.4741 27.38 86.4341 27.38C86.0341 27.38 85.7341 27.42 85.5341 27.5C85.3341 27.58 85.1941 27.72 85.1141 27.92C85.0474 28.1067 85.0141 28.4 85.0141 28.8V34.88C85.0141 35.28 85.0474 35.58 85.1141 35.78C85.1941 35.9667 85.3274 36.0933 85.5141 36.16C85.7141 36.2267 86.0207 36.26 86.4341 36.26C86.4741 36.26 86.4941 36.3 86.4941 36.38C86.4941 36.46 86.4741 36.5 86.4341 36.5C86.0607 36.5 85.7674 36.4933 85.5541 36.48L84.2741 36.46L83.0541 36.48C82.8274 36.4933 82.5207 36.5 82.1341 36.5ZM86.6741 31.58L88.1141 29.48C88.5941 28.7733 88.8341 28.2467 88.8341 27.9C88.8341 27.5533 88.5474 27.38 87.9741 27.38C87.9341 27.38 87.9141 27.34 87.9141 27.26C87.9141 27.18 87.9341 27.14 87.9741 27.14L88.7741 27.16C89.2807 27.1867 89.7541 27.2 90.1941 27.2C90.5007 27.2 90.8674 27.1867 91.2941 27.16L91.9141 27.14C91.9407 27.14 91.9541 27.18 91.9541 27.26C91.9541 27.34 91.9407 27.38 91.9141 27.38C90.7807 27.38 89.6874 28.0933 88.6341 29.52L87.0341 31.72L86.6741 31.58ZM76.3741 36.5C76.3474 36.5 76.3341 36.46 76.3341 36.38C76.3341 36.3 76.3474 36.26 76.3741 36.26C76.8541 36.2467 77.2807 36.0667 77.6541 35.72C78.0407 35.36 78.5341 34.68 79.1341 33.68C79.5741 32.9467 79.9007 32.4333 80.1141 32.14C80.3407 31.8333 80.5807 31.62 80.8341 31.5C81.1007 31.38 81.4541 31.32 81.8941 31.32C82.0541 31.32 82.5207 31.3467 83.2941 31.4C83.4274 31.4 83.6674 31.4133 84.0141 31.44L83.9941 31.8C83.5407 31.7733 83.2474 31.76 83.1141 31.76C82.6874 31.76 82.3541 31.82 82.1141 31.94C81.8874 32.0467 81.6674 32.2467 81.4541 32.54C81.2541 32.82 80.9407 33.3333 80.5141 34.08C80.4741 34.16 80.3874 34.3 80.2541 34.5C79.8274 35.2333 79.5341 35.72 79.3741 35.96C79.2274 36.1867 79.0941 36.3333 78.9741 36.4C78.8674 36.4667 78.7074 36.5 78.4941 36.5H76.3741ZM79.9541 29.52C78.9007 28.0933 77.8074 27.38 76.6741 27.38C76.6341 27.38 76.6141 27.34 76.6141 27.26C76.6141 27.18 76.6341 27.14 76.6741 27.14L77.2941 27.16C77.7207 27.1867 78.0941 27.2 78.4141 27.2C78.8674 27.2 79.3341 27.1867 79.8141 27.16L80.6341 27.14C80.6607 27.14 80.6741 27.18 80.6741 27.26C80.6741 27.34 80.6607 27.38 80.6341 27.38C80.0341 27.38 79.7341 27.56 79.7341 27.92C79.7341 28.2533 79.9807 28.7733 80.4741 29.48L81.9141 31.58L81.5541 31.72L79.9541 29.52ZM92.5702 39.54C92.5702 38.66 92.5368 37.8533 92.4702 37.12C92.4435 36.8267 92.4302 36.62 92.4302 36.5C92.4302 36.38 92.4368 36.3133 92.4502 36.3C92.4768 36.2733 92.5435 36.26 92.6502 36.26C93.5702 36.26 94.2968 35.64 94.8302 34.4C95.3768 33.1467 95.7368 31.38 95.9102 29.1C95.9235 28.9667 95.9302 28.7933 95.9302 28.58C95.9302 28.0867 95.8302 27.7667 95.6302 27.62C95.4302 27.46 95.0502 27.38 94.4902 27.38C94.4502 27.38 94.4302 27.34 94.4302 27.26C94.4302 27.18 94.4502 27.14 94.4902 27.14H102.27C102.297 27.14 102.31 27.18 102.31 27.26C102.31 27.34 102.297 27.38 102.27 27.38C101.843 27.38 101.53 27.42 101.33 27.5C101.13 27.58 100.997 27.72 100.93 27.92C100.863 28.1067 100.83 28.4 100.83 28.8V34.88C100.83 34.9867 100.823 35.22 100.81 35.58C100.81 35.94 100.903 36.1467 101.09 36.2C101.277 36.24 101.637 36.26 102.17 36.26C102.263 36.26 102.317 36.2733 102.33 36.3C102.357 36.3133 102.37 36.38 102.37 36.5C102.37 36.58 102.357 36.78 102.33 37.1C102.263 37.8333 102.23 38.6467 102.23 39.54C102.23 39.6067 102.19 39.64 102.11 39.64C102.03 39.64 101.99 39.6067 101.99 39.54C101.99 38.46 101.783 37.68 101.37 37.2C100.97 36.7333 100.39 36.5 99.6302 36.5H95.0302C94.3235 36.5 93.7768 36.7333 93.3902 37.2C93.0035 37.68 92.8102 38.46 92.8102 39.54C92.8102 39.6067 92.7702 39.64 92.6902 39.64C92.6102 39.64 92.5702 39.6067 92.5702 39.54ZM93.6502 36.04H97.0902C97.9168 36.04 98.4702 36.0267 98.7502 36C99.0302 35.96 99.2102 35.8667 99.2902 35.72C99.3835 35.5733 99.4302 35.2933 99.4302 34.88V28.76C99.4302 28.3067 99.4168 28.0133 99.3902 27.88C99.3635 27.7333 99.2902 27.6467 99.1702 27.62C99.0635 27.58 98.8368 27.56 98.4902 27.56H97.7102C97.3235 27.56 97.0568 27.5867 96.9102 27.64C96.7635 27.68 96.6635 27.7733 96.6102 27.92C96.5568 28.0667 96.5102 28.3333 96.4702 28.72C96.2568 31.1067 95.9102 32.9533 95.4302 34.26C94.9502 35.5667 94.2302 36.34 93.2702 36.58L93.6502 36.04ZM103.653 36.5C103.627 36.5 103.613 36.46 103.613 36.38C103.613 36.3 103.627 36.26 103.653 36.26C104.08 36.26 104.387 36.2267 104.573 36.16C104.773 36.0933 104.907 35.9667 104.973 35.78C105.053 35.58 105.093 35.28 105.093 34.88V28.76C105.093 28.36 105.053 28.0667 104.973 27.88C104.907 27.6933 104.773 27.5667 104.573 27.5C104.373 27.42 104.067 27.38 103.653 27.38C103.627 27.38 103.613 27.34 103.613 27.26C103.613 27.18 103.627 27.14 103.653 27.14H110.693C110.827 27.14 110.893 27.1933 110.893 27.3L110.913 28.54C110.927 28.7933 110.933 29.1133 110.933 29.5C110.933 29.54 110.893 29.56 110.813 29.56C110.733 29.56 110.693 29.54 110.693 29.5C110.573 28.8867 110.293 28.3867 109.853 28C109.427 27.6 108.933 27.4 108.373 27.4H107.933C107.533 27.4 107.233 27.44 107.033 27.52C106.847 27.5867 106.72 27.7133 106.653 27.9C106.587 28.0867 106.553 28.38 106.553 28.78V34.8C106.553 35.1867 106.587 35.48 106.653 35.68C106.72 35.8667 106.847 36 107.033 36.08C107.233 36.1467 107.533 36.18 107.933 36.18H108.673C109.247 36.18 109.773 35.96 110.253 35.52C110.733 35.08 111.067 34.52 111.253 33.84C111.267 33.8 111.307 33.78 111.373 33.78C111.453 33.78 111.493 33.8 111.493 33.84C111.4 34.8 111.353 35.5867 111.353 36.2C111.353 36.3067 111.333 36.3867 111.293 36.44C111.253 36.48 111.173 36.5 111.053 36.5H103.653ZM109.873 32.2C109.82 32.2 109.52 32.16 108.973 32.08C108.427 32 107.413 31.96 105.933 31.96V31.5C107.4 31.5 108.407 31.4667 108.953 31.4C109.5 31.3333 109.807 31.3 109.873 31.3C109.953 31.3 109.993 31.4467 109.993 31.74C109.993 32.0467 109.953 32.2 109.873 32.2ZM121.191 28.8C121.191 28.4 121.157 28.1067 121.091 27.92C121.024 27.72 120.891 27.58 120.691 27.5C120.491 27.42 120.184 27.38 119.771 27.38C119.731 27.38 119.711 27.34 119.711 27.26C119.711 27.18 119.731 27.14 119.771 27.14L120.671 27.16C121.177 27.1867 121.604 27.2 121.951 27.2C122.257 27.2 122.664 27.1867 123.171 27.16L124.111 27.14C124.137 27.14 124.151 27.18 124.151 27.26C124.151 27.34 124.137 27.38 124.111 27.38C123.684 27.38 123.371 27.42 123.171 27.5C122.971 27.5667 122.831 27.6933 122.751 27.88C122.684 28.0667 122.651 28.36 122.651 28.76V34.88C122.651 35.28 122.684 35.58 122.751 35.78C122.831 35.9667 122.971 36.0933 123.171 36.16C123.371 36.2267 123.684 36.26 124.111 36.26C124.137 36.26 124.151 36.3 124.151 36.38C124.151 36.46 124.137 36.5 124.111 36.5C123.711 36.5 123.397 36.4933 123.171 36.48L121.951 36.46L120.671 36.48C120.457 36.4933 120.157 36.5 119.771 36.5C119.731 36.5 119.711 36.46 119.711 36.38C119.711 36.3 119.731 36.26 119.771 36.26C120.197 36.26 120.504 36.2267 120.691 36.16C120.891 36.0933 121.024 35.9667 121.091 35.78C121.157 35.58 121.191 35.28 121.191 34.88V28.8ZM115.071 31.58H121.851V31.98H115.071V31.58ZM114.391 28.76C114.391 28.36 114.351 28.0667 114.271 27.88C114.204 27.6933 114.071 27.5667 113.871 27.5C113.684 27.42 113.384 27.38 112.971 27.38C112.931 27.38 112.911 27.34 112.911 27.26C112.911 27.18 112.931 27.14 112.971 27.14L113.871 27.16C114.377 27.1867 114.791 27.2 115.111 27.2C115.431 27.2 115.857 27.1867 116.391 27.16L117.271 27.14C117.311 27.14 117.331 27.18 117.331 27.26C117.331 27.34 117.311 27.38 117.271 27.38C116.857 27.38 116.551 27.42 116.351 27.5C116.164 27.58 116.031 27.72 115.951 27.92C115.884 28.1067 115.851 28.4 115.851 28.8V34.88C115.851 35.28 115.884 35.58 115.951 35.78C116.017 35.9667 116.144 36.0933 116.331 36.16C116.531 36.2267 116.844 36.26 117.271 36.26C117.311 36.26 117.331 36.3 117.331 36.38C117.331 36.46 117.311 36.5 117.271 36.5C116.884 36.5 116.584 36.4933 116.371 36.48L115.111 36.46L113.871 36.48C113.644 36.4933 113.331 36.5 112.931 36.5C112.904 36.5 112.891 36.46 112.891 36.38C112.891 36.3 112.904 36.26 112.931 36.26C113.357 36.26 113.671 36.2267 113.871 36.16C114.071 36.0933 114.204 35.9667 114.271 35.78C114.351 35.58 114.391 35.28 114.391 34.88V28.76ZM133.691 28.8C133.691 28.4 133.657 28.1067 133.591 27.92C133.524 27.72 133.391 27.58 133.191 27.5C132.991 27.42 132.684 27.38 132.271 27.38C132.231 27.38 132.211 27.34 132.211 27.26C132.211 27.18 132.231 27.14 132.271 27.14L133.171 27.16C133.677 27.1867 134.104 27.2 134.451 27.2C134.757 27.2 135.164 27.1867 135.671 27.16L136.611 27.14C136.637 27.14 136.651 27.18 136.651 27.26C136.651 27.34 136.637 27.38 136.611 27.38C136.184 27.38 135.871 27.42 135.671 27.5C135.471 27.5667 135.331 27.6933 135.251 27.88C135.184 28.0667 135.151 28.36 135.151 28.76V34.88C135.151 35.28 135.184 35.58 135.251 35.78C135.331 35.9667 135.471 36.0933 135.671 36.16C135.871 36.2267 136.184 36.26 136.611 36.26C136.637 36.26 136.651 36.3 136.651 36.38C136.651 36.46 136.637 36.5 136.611 36.5C136.211 36.5 135.897 36.4933 135.671 36.48L134.451 36.46L133.171 36.48C132.957 36.4933 132.657 36.5 132.271 36.5C132.231 36.5 132.211 36.46 132.211 36.38C132.211 36.3 132.231 36.26 132.271 36.26C132.697 36.26 133.004 36.2267 133.191 36.16C133.391 36.0933 133.524 35.9667 133.591 35.78C133.657 35.58 133.691 35.28 133.691 34.88V28.8ZM127.411 35.12L134.351 28.18L134.671 28.5L127.711 35.44L127.411 35.12ZM126.891 28.76C126.891 28.36 126.851 28.0667 126.771 27.88C126.704 27.6933 126.571 27.5667 126.371 27.5C126.184 27.42 125.884 27.38 125.471 27.38C125.431 27.38 125.411 27.34 125.411 27.26C125.411 27.18 125.431 27.14 125.471 27.14L126.371 27.16C126.877 27.1867 127.291 27.2 127.611 27.2C127.931 27.2 128.357 27.1867 128.891 27.16L129.771 27.14C129.811 27.14 129.831 27.18 129.831 27.26C129.831 27.34 129.811 27.38 129.771 27.38C129.357 27.38 129.051 27.42 128.851 27.5C128.664 27.58 128.531 27.72 128.451 27.92C128.384 28.1067 128.351 28.4 128.351 28.8V34.88C128.351 35.28 128.384 35.58 128.451 35.78C128.517 35.9667 128.644 36.0933 128.831 36.16C129.031 36.2267 129.344 36.26 129.771 36.26C129.811 36.26 129.831 36.3 129.831 36.38C129.831 36.46 129.811 36.5 129.771 36.5C129.384 36.5 129.084 36.4933 128.871 36.48L127.611 36.46L126.371 36.48C126.144 36.4933 125.831 36.5 125.431 36.5C125.404 36.5 125.391 36.46 125.391 36.38C125.391 36.3 125.404 36.26 125.431 36.26C125.857 36.26 126.171 36.2267 126.371 36.16C126.571 36.0933 126.704 35.9667 126.771 35.78C126.851 35.58 126.891 35.28 126.891 34.88V28.76ZM137.931 36.5C137.904 36.5 137.891 36.46 137.891 36.38C137.891 36.3 137.904 36.26 137.931 36.26C138.357 36.26 138.664 36.2267 138.851 36.16C139.051 36.0933 139.184 35.9667 139.251 35.78C139.331 35.58 139.371 35.28 139.371 34.88V28.76C139.371 28.36 139.331 28.0667 139.251 27.88C139.184 27.6933 139.051 27.5667 138.851 27.5C138.651 27.42 138.344 27.38 137.931 27.38C137.904 27.38 137.891 27.34 137.891 27.26C137.891 27.18 137.904 27.14 137.931 27.14H144.971C145.104 27.14 145.171 27.1933 145.171 27.3L145.191 28.54C145.204 28.7933 145.211 29.1133 145.211 29.5C145.211 29.54 145.171 29.56 145.091 29.56C145.011 29.56 144.971 29.54 144.971 29.5C144.851 28.8867 144.571 28.3867 144.131 28C143.704 27.6 143.211 27.4 142.651 27.4H142.211C141.811 27.4 141.511 27.44 141.311 27.52C141.124 27.5867 140.997 27.7133 140.931 27.9C140.864 28.0867 140.831 28.38 140.831 28.78V34.8C140.831 35.1867 140.864 35.48 140.931 35.68C140.997 35.8667 141.124 36 141.311 36.08C141.511 36.1467 141.811 36.18 142.211 36.18H142.951C143.524 36.18 144.051 35.96 144.531 35.52C145.011 35.08 145.344 34.52 145.531 33.84C145.544 33.8 145.584 33.78 145.651 33.78C145.731 33.78 145.771 33.8 145.771 33.84C145.677 34.8 145.631 35.5867 145.631 36.2C145.631 36.3067 145.611 36.3867 145.571 36.44C145.531 36.48 145.451 36.5 145.331 36.5H137.931ZM144.151 32.2C144.097 32.2 143.797 32.16 143.251 32.08C142.704 32 141.691 31.96 140.211 31.96V31.5C141.677 31.5 142.684 31.4667 143.231 31.4C143.777 31.3333 144.084 31.3 144.151 31.3C144.231 31.3 144.271 31.4467 144.271 31.74C144.271 32.0467 144.231 32.2 144.151 32.2ZM148.008 24.14C147.995 24.0733 148.101 24.02 148.328 23.98C148.555 23.94 148.801 23.92 149.068 23.92C149.335 23.92 149.581 23.94 149.808 23.98C150.048 24.02 150.155 24.0733 150.128 24.14C149.888 25.2733 149.708 26.4867 149.588 27.78C149.468 29.0733 149.348 30.72 149.228 32.72C149.228 32.7333 149.208 32.7533 149.168 32.78C149.128 32.7933 149.081 32.8 149.028 32.8C148.975 32.8 148.928 32.7933 148.888 32.78C148.848 32.7533 148.828 32.7333 148.828 32.72L148.788 32.12C148.708 30.4133 148.615 28.92 148.508 27.64C148.401 26.36 148.235 25.1933 148.008 24.14ZM148.968 36.72C148.675 36.72 148.435 36.6333 148.248 36.46C148.075 36.2733 147.988 36.0333 147.988 35.74C147.988 35.46 148.075 35.24 148.248 35.08C148.435 34.9067 148.675 34.82 148.968 34.82C149.275 34.82 149.508 34.9067 149.668 35.08C149.841 35.24 149.928 35.46 149.928 35.74C149.928 36.0467 149.841 36.2867 149.668 36.46C149.508 36.6333 149.275 36.72 148.968 36.72Z" fill="#706760"/>
</svg>
