<svg width="154" height="8" viewBox="0 0 154 8" fill="none" xmlns="http://www.w3.org/2000/svg">
<path d="M6.68 6.13C6.69333 6.13 6.7 6.15 6.7 6.19C6.7 6.23 6.69333 6.25 6.68 6.25C6.46667 6.25 6.3 6.24667 6.18 6.24L5.52 6.23L4.84 6.24C4.72 6.24667 4.56 6.25 4.36 6.25C4.34667 6.25 4.34 6.23 4.34 6.19C4.34 6.15 4.34667 6.13 4.36 6.13C4.62667 6.13 4.82 6.11333 4.94 6.08C5.06 6.04667 5.14 5.98333 5.18 5.89C5.22667 5.79667 5.25 5.64667 5.25 5.44V0.829999C5.25 0.603333 5.23667 0.453333 5.21 0.38C5.18333 0.306666 5.12 0.26 5.02 0.24C4.92 0.22 4.71333 0.21 4.4 0.21H2.35C2.03 0.21 1.81333 0.22 1.7 0.24C1.58667 0.26 1.51667 0.31 1.49 0.39C1.46333 0.463333 1.45 0.609999 1.45 0.829999V5.44C1.45 5.64667 1.47 5.79667 1.51 5.89C1.55667 5.98333 1.64 6.04667 1.76 6.08C1.88 6.11333 2.07333 6.13 2.34 6.13C2.35333 6.13 2.36 6.15 2.36 6.19C2.36 6.23 2.35333 6.25 2.34 6.25C2.14 6.25 1.98 6.24667 1.86 6.24L1.18 6.23L0.52 6.24C0.4 6.24667 0.233333 6.25 0.0199999 6.25C0.00666653 6.25 -1.3411e-07 6.23 -1.3411e-07 6.19C-1.3411e-07 6.15 0.00666653 6.13 0.0199999 6.13C0.28 6.13 0.47 6.11333 0.59 6.08C0.716667 6.04667 0.803333 5.98333 0.85 5.89C0.896667 5.79 0.92 5.64 0.92 5.44V0.93C0.92 0.723333 0.896667 0.563333 0.85 0.45C0.81 0.336667 0.723333 0.253333 0.59 0.2C0.463333 0.146666 0.276667 0.12 0.0299999 0.12C0.0166665 0.12 0.00999985 0.0999997 0.00999985 0.0599998C0.00999985 0.0199999 0.0166665 0 0.0299999 0C0.256667 0 0.47 0.00333329 0.67 0.00999987C1.55 0.023333 2.45667 0.0299996 3.39 0.0299996C4.23 0.0299996 5.21 0.0199997 6.33 0H6.68C6.69333 0 6.7 0.0199999 6.7 0.0599998C6.7 0.0999997 6.69333 0.12 6.68 0.12C6.42667 0.12 6.23667 0.146666 6.11 0.2C5.98333 0.253333 5.89667 0.336667 5.85 0.45C5.80333 0.563333 5.78 0.723333 5.78 0.93V5.44C5.78 5.64 5.80333 5.79 5.85 5.89C5.89667 5.98333 5.98 6.04667 6.1 6.08C6.22667 6.11333 6.42 6.13 6.68 6.13ZM8.69258 5.4C8.69258 5.61333 8.71591 5.77 8.76258 5.87C8.81591 5.96333 8.90924 6.03 9.04258 6.07C9.18258 6.11 9.40258 6.13 9.70258 6.13C9.72258 6.13 9.73258 6.15 9.73258 6.19C9.73258 6.23 9.72258 6.25 9.70258 6.25C9.46924 6.25 9.28924 6.24667 9.16258 6.24L8.44258 6.23L7.85258 6.24C7.74591 6.24667 7.59924 6.25 7.41258 6.25C7.39924 6.25 7.39258 6.23 7.39258 6.19C7.39258 6.15 7.39924 6.13 7.41258 6.13C7.63924 6.13 7.80591 6.11333 7.91258 6.08C8.01924 6.04667 8.08924 5.98333 8.12258 5.89C8.16258 5.79 8.18258 5.64 8.18258 5.44V2.38C8.18258 2.18 8.16258 2.03333 8.12258 1.94C8.08924 1.84667 8.01924 1.78333 7.91258 1.75C7.80591 1.71 7.63924 1.69 7.41258 1.69C7.39924 1.69 7.39258 1.67 7.39258 1.63C7.39258 1.59 7.39924 1.57 7.41258 1.57L7.85258 1.58C8.09258 1.59333 8.28591 1.6 8.43258 1.6C8.54591 1.6 8.65258 1.59667 8.75258 1.59C8.85924 1.58333 8.95258 1.57667 9.03258 1.57C9.23258 1.55 9.41924 1.54 9.59258 1.54C10.6726 1.54 11.2126 1.95333 11.2126 2.78C11.2126 3.09333 11.1292 3.36 10.9626 3.58C10.8026 3.79333 10.5992 3.95333 10.3526 4.06C10.1059 4.16 9.85258 4.21 9.59258 4.21C9.39924 4.21 9.23591 4.19667 9.10258 4.17C9.08258 4.17 9.07258 4.15333 9.07258 4.12C9.07258 4.1 9.07591 4.08 9.08258 4.06C9.09591 4.04 9.10924 4.03333 9.12258 4.04C9.24258 4.06 9.36258 4.07 9.48258 4.07C9.80258 4.07 10.0726 3.97667 10.2926 3.79C10.5192 3.59667 10.6326 3.32667 10.6326 2.98C10.6326 2.56 10.5159 2.23667 10.2826 2.01C10.0492 1.78333 9.73924 1.67 9.35258 1.67C9.16591 1.67 9.02924 1.68333 8.94258 1.71C8.85591 1.73667 8.79258 1.8 8.75258 1.9C8.71258 2 8.69258 2.16667 8.69258 2.4V5.4ZM13.152 3.75H14.972L15.042 3.91H12.992L13.152 3.75ZM16.802 6.13C16.8287 6.13 16.842 6.15 16.842 6.19C16.842 6.23 16.8287 6.25 16.802 6.25C16.682 6.25 16.4887 6.24333 16.222 6.23C15.9687 6.21667 15.782 6.21 15.662 6.21C15.5687 6.21 15.4354 6.21667 15.262 6.23C15.102 6.24333 14.9787 6.25 14.892 6.25C14.8654 6.25 14.852 6.23 14.852 6.19C14.852 6.15 14.8654 6.13 14.892 6.13C15.072 6.13 15.2054 6.10667 15.292 6.06C15.3854 6.01333 15.432 5.93333 15.432 5.82C15.432 5.71333 15.392 5.57667 15.312 5.41L13.732 1.99L13.952 1.91L12.712 5.02C12.6054 5.3 12.552 5.50667 12.552 5.64C12.552 5.81333 12.612 5.94 12.732 6.02C12.8587 6.09333 13.0454 6.13 13.292 6.13C13.3254 6.13 13.342 6.15 13.342 6.19C13.342 6.23 13.3254 6.25 13.292 6.25C13.192 6.25 13.0554 6.24333 12.882 6.23C12.6954 6.21667 12.522 6.21 12.362 6.21C12.1954 6.21 11.9987 6.21667 11.772 6.23C11.572 6.24333 11.412 6.25 11.292 6.25C11.2654 6.25 11.252 6.23 11.252 6.19C11.252 6.15 11.2654 6.13 11.292 6.13C11.4987 6.13 11.662 6.10333 11.782 6.05C11.902 5.99 12.012 5.87667 12.112 5.71C12.212 5.54333 12.3354 5.28333 12.482 4.93L13.912 1.42C13.9254 1.39333 13.9454 1.38 13.972 1.38C13.9987 1.38 14.0154 1.39333 14.022 1.42L15.632 4.88C15.8054 5.25333 15.942 5.52333 16.042 5.69C16.1487 5.85667 16.2554 5.97333 16.362 6.04C16.4754 6.1 16.622 6.13 16.802 6.13ZM18.9277 6.21C19.2677 6.21 19.5244 6.09667 19.6977 5.87C19.8711 5.64333 19.9577 5.36333 19.9577 5.03C19.9577 4.63667 19.8277 4.33667 19.5677 4.13C19.3144 3.92333 18.9511 3.82 18.4777 3.82C18.4511 3.82 18.4377 3.8 18.4377 3.76C18.4377 3.72 18.4511 3.7 18.4777 3.7C18.9244 3.7 19.2644 3.60667 19.4977 3.42C19.7311 3.22667 19.8477 2.96667 19.8477 2.64C19.8477 2.32667 19.7511 2.07333 19.5577 1.88C19.3711 1.68 19.1344 1.58 18.8477 1.58C18.5611 1.58 18.3011 1.69333 18.0677 1.92C17.8411 2.14667 17.6611 2.47333 17.5277 2.9C17.5277 2.92 17.5111 2.93 17.4777 2.93C17.4644 2.93 17.4477 2.92667 17.4277 2.92C17.4144 2.90667 17.4077 2.89667 17.4077 2.89L17.5677 1.96C17.5811 1.87333 17.5944 1.82 17.6077 1.8C17.6211 1.77333 17.6577 1.74667 17.7177 1.72C18.1711 1.54 18.5877 1.45 18.9677 1.45C19.4077 1.45 19.7544 1.54667 20.0077 1.74C20.2677 1.92667 20.3977 2.16333 20.3977 2.45C20.3977 2.67 20.3277 2.88 20.1877 3.08C20.0477 3.28 19.8744 3.44333 19.6677 3.57C19.4611 3.69667 19.2711 3.76667 19.0977 3.78L19.2377 3.7C19.6311 3.7 19.9511 3.81 20.1977 4.03C20.4511 4.24333 20.5777 4.52667 20.5777 4.88C20.5777 5.16 20.4944 5.41667 20.3277 5.65C20.1677 5.87667 19.9511 6.05333 19.6777 6.18C19.4044 6.30667 19.1044 6.37 18.7777 6.37C18.5444 6.37 18.3111 6.33333 18.0777 6.26C17.8511 6.19333 17.6677 6.10333 17.5277 5.99C17.4677 5.95 17.4311 5.92 17.4177 5.9C17.4044 5.87333 17.3944 5.82667 17.3877 5.76L17.2777 4.85C17.2777 4.83 17.2944 4.81667 17.3277 4.81C17.3677 4.80333 17.3911 4.81 17.3977 4.83C17.4911 5.23 17.6777 5.56 17.9577 5.82C18.2444 6.08 18.5677 6.21 18.9277 6.21ZM21.0988 7.77C21.0988 7.17 21.0855 6.73667 21.0588 6.47C21.0522 6.41 21.0488 6.33667 21.0488 6.25C21.0488 6.19 21.0522 6.15667 21.0588 6.15C21.0722 6.13667 21.1022 6.13 21.1488 6.13C21.6222 6.13 21.9855 5.81667 22.2388 5.19C22.4988 4.56333 22.6755 3.68333 22.7688 2.55C22.7755 2.48333 22.7788 2.39667 22.7788 2.29C22.7788 2.04333 22.7288 1.88333 22.6288 1.81C22.5288 1.73 22.3388 1.69 22.0588 1.69C22.0388 1.69 22.0288 1.67 22.0288 1.63C22.0288 1.59 22.0388 1.57 22.0588 1.57H25.9088C25.9222 1.57 25.9288 1.59 25.9288 1.63C25.9288 1.67 25.9222 1.69 25.9088 1.69C25.6822 1.69 25.5155 1.71 25.4088 1.75C25.3022 1.79 25.2288 1.86 25.1888 1.96C25.1555 2.05333 25.1388 2.2 25.1388 2.4V5.44V5.77C25.1388 5.89 25.1522 5.97333 25.1788 6.02C25.2122 6.06667 25.2722 6.09667 25.3588 6.11C25.4455 6.12333 25.6088 6.13 25.8488 6.13C25.8955 6.13 25.9222 6.13667 25.9288 6.15C25.9355 6.15667 25.9388 6.19 25.9388 6.25C25.9388 6.33667 25.9355 6.41 25.9288 6.47C25.9088 6.87 25.8988 7.30333 25.8988 7.77C25.8988 7.80333 25.8788 7.82 25.8388 7.82C25.7988 7.82 25.7788 7.80333 25.7788 7.77C25.7788 7.19667 25.6822 6.8 25.4888 6.58C25.2955 6.36 25.0255 6.25 24.6788 6.25H22.1988C21.8922 6.25 21.6522 6.36 21.4788 6.58C21.3055 6.8 21.2188 7.19667 21.2188 7.77C21.2188 7.80333 21.1988 7.82 21.1588 7.82C21.1188 7.82 21.0988 7.80333 21.0988 7.77ZM21.6388 6.04H23.1688C23.6822 6.04 24.0255 6.03 24.1988 6.01C24.3788 5.99 24.4955 5.94333 24.5488 5.87C24.6022 5.79667 24.6288 5.65333 24.6288 5.44V2.38C24.6288 2.15333 24.6188 2.00333 24.5988 1.93C24.5855 1.85667 24.5488 1.81 24.4888 1.79C24.4288 1.77 24.3022 1.76 24.1088 1.76H23.6688C23.4822 1.76 23.3488 1.77333 23.2688 1.8C23.1888 1.82667 23.1322 1.88 23.0988 1.96C23.0722 2.03333 23.0488 2.16667 23.0288 2.36C22.9155 3.53333 22.7522 4.44333 22.5388 5.09C22.3322 5.73667 21.9988 6.12333 21.5388 6.25L21.6388 6.04ZM30.8311 2.4C30.8311 2.2 30.8111 2.05333 30.7711 1.96C30.7378 1.86 30.6678 1.79 30.5611 1.75C30.4544 1.71 30.2878 1.69 30.0611 1.69C30.0411 1.69 30.0311 1.67 30.0311 1.63C30.0311 1.59 30.0411 1.57 30.0611 1.57L30.4811 1.58C30.7344 1.59333 30.9378 1.6 31.0911 1.6C31.2311 1.6 31.4278 1.59333 31.6811 1.58L32.1211 1.57C32.1344 1.57 32.1411 1.59 32.1411 1.63C32.1411 1.67 32.1344 1.69 32.1211 1.69C31.8878 1.69 31.7178 1.71 31.6111 1.75C31.5044 1.78333 31.4311 1.84667 31.3911 1.94C31.3511 2.03333 31.3311 2.18 31.3311 2.38V5.44C31.3311 5.64 31.3511 5.79 31.3911 5.89C31.4311 5.98333 31.5044 6.04667 31.6111 6.08C31.7178 6.11333 31.8878 6.13 32.1211 6.13C32.1344 6.13 32.1411 6.15 32.1411 6.19C32.1411 6.23 32.1344 6.25 32.1211 6.25C31.9344 6.25 31.7878 6.24667 31.6811 6.24L31.0911 6.23L30.4811 6.24C30.3811 6.24667 30.2411 6.25 30.0611 6.25C30.0411 6.25 30.0311 6.23 30.0311 6.19C30.0311 6.15 30.0411 6.13 30.0611 6.13C30.2878 6.13 30.4544 6.11333 30.5611 6.08C30.6678 6.04667 30.7378 5.98333 30.7711 5.89C30.8111 5.79 30.8311 5.64 30.8311 5.44V2.4ZM27.6511 3.81H31.0411V3.97H27.6511V3.81ZM27.4311 2.38C27.4311 2.18 27.4111 2.03333 27.3711 1.94C27.3311 1.84667 27.2578 1.78333 27.1511 1.75C27.0444 1.71 26.8778 1.69 26.6511 1.69C26.6378 1.69 26.6311 1.67 26.6311 1.63C26.6311 1.59 26.6378 1.57 26.6511 1.57L27.0911 1.58C27.3311 1.59333 27.5244 1.6 27.6711 1.6C27.8378 1.6 28.0411 1.59333 28.2811 1.58L28.7011 1.57C28.7211 1.57 28.7311 1.59 28.7311 1.63C28.7311 1.67 28.7211 1.69 28.7011 1.69C28.4811 1.69 28.3178 1.71 28.2111 1.75C28.1044 1.79 28.0311 1.86 27.9911 1.96C27.9511 2.05333 27.9311 2.2 27.9311 2.4V5.44C27.9311 5.64667 27.9478 5.79667 27.9811 5.89C28.0211 5.98333 28.0911 6.04667 28.1911 6.08C28.2978 6.11333 28.4678 6.13 28.7011 6.13C28.7211 6.13 28.7311 6.15 28.7311 6.19C28.7311 6.23 28.7211 6.25 28.7011 6.25C28.5211 6.25 28.3811 6.24667 28.2811 6.24L27.6711 6.23L27.0811 6.24C26.9744 6.24667 26.8278 6.25 26.6411 6.25C26.6278 6.25 26.6211 6.23 26.6211 6.19C26.6211 6.15 26.6278 6.13 26.6411 6.13C26.8744 6.13 27.0444 6.11333 27.1511 6.08C27.2578 6.04667 27.3311 5.98333 27.3711 5.89C27.4111 5.79 27.4311 5.64 27.4311 5.44V2.38ZM37.0323 2.4C37.0323 2.2 37.0123 2.05333 36.9723 1.96C36.9389 1.86 36.8689 1.79 36.7623 1.75C36.6556 1.71 36.4889 1.69 36.2623 1.69C36.2423 1.69 36.2323 1.67 36.2323 1.63C36.2323 1.59 36.2423 1.57 36.2623 1.57L36.6823 1.58C36.9356 1.59333 37.1389 1.6 37.2923 1.6C37.4323 1.6 37.6289 1.59333 37.8823 1.58L38.3223 1.57C38.3356 1.57 38.3423 1.59 38.3423 1.63C38.3423 1.67 38.3356 1.69 38.3223 1.69C38.0889 1.69 37.9189 1.71 37.8123 1.75C37.7056 1.78333 37.6323 1.84667 37.5923 1.94C37.5523 2.03333 37.5323 2.18 37.5323 2.38V5.44C37.5323 5.64 37.5523 5.79 37.5923 5.89C37.6323 5.98333 37.7056 6.04667 37.8123 6.08C37.9189 6.11333 38.0889 6.13 38.3223 6.13C38.3356 6.13 38.3423 6.15 38.3423 6.19C38.3423 6.23 38.3356 6.25 38.3223 6.25C38.1356 6.25 37.9889 6.24667 37.8823 6.24L37.2923 6.23L36.6823 6.24C36.5823 6.24667 36.4423 6.25 36.2623 6.25C36.2423 6.25 36.2323 6.23 36.2323 6.19C36.2323 6.15 36.2423 6.13 36.2623 6.13C36.4889 6.13 36.6556 6.11333 36.7623 6.08C36.8689 6.04667 36.9389 5.98333 36.9723 5.89C37.0123 5.79 37.0323 5.64 37.0323 5.44V2.4ZM33.7723 5.6L37.2423 2.12L37.3723 2.25L33.9023 5.72L33.7723 5.6ZM33.6323 2.38C33.6323 2.18 33.6123 2.03333 33.5723 1.94C33.5323 1.84667 33.4589 1.78333 33.3523 1.75C33.2456 1.71 33.0789 1.69 32.8523 1.69C32.8389 1.69 32.8323 1.67 32.8323 1.63C32.8323 1.59 32.8389 1.57 32.8523 1.57L33.2923 1.58C33.5323 1.59333 33.7256 1.6 33.8723 1.6C34.0389 1.6 34.2423 1.59333 34.4823 1.58L34.9023 1.57C34.9223 1.57 34.9323 1.59 34.9323 1.63C34.9323 1.67 34.9223 1.69 34.9023 1.69C34.6823 1.69 34.5189 1.71 34.4123 1.75C34.3056 1.79 34.2323 1.86 34.1923 1.96C34.1523 2.05333 34.1323 2.2 34.1323 2.4V5.44C34.1323 5.64667 34.1489 5.79667 34.1823 5.89C34.2223 5.98333 34.2923 6.04667 34.3923 6.08C34.4989 6.11333 34.6689 6.13 34.9023 6.13C34.9223 6.13 34.9323 6.15 34.9323 6.19C34.9323 6.23 34.9223 6.25 34.9023 6.25C34.7223 6.25 34.5823 6.24667 34.4823 6.24L33.8723 6.23L33.2823 6.24C33.1756 6.24667 33.0289 6.25 32.8423 6.25C32.8289 6.25 32.8223 6.23 32.8223 6.19C32.8223 6.15 32.8289 6.13 32.8423 6.13C33.0756 6.13 33.2456 6.11333 33.3523 6.08C33.4589 6.04667 33.5323 5.98333 33.5723 5.89C33.6123 5.79 33.6323 5.64 33.6323 5.44V2.38ZM42.7734 6.25C42.7401 6.25 42.7101 6.23667 42.6834 6.21C42.6634 6.17667 42.6334 6.12 42.5934 6.04C42.3934 5.68 42.1534 5.27667 41.8734 4.83C41.8401 4.77667 41.7501 4.63667 41.6034 4.41C41.4568 4.17667 41.3134 4.03 41.1734 3.97C41.0401 3.91 40.8568 3.88 40.6234 3.88C40.5568 3.88 40.4101 3.88667 40.1834 3.9L40.1734 3.72L40.6234 3.69C40.8768 3.67667 41.0368 3.67 41.1034 3.67C41.3034 3.67 41.4601 3.69667 41.5734 3.75C41.6934 3.79667 41.8001 3.88 41.8934 4C41.9934 4.12 42.1434 4.33333 42.3434 4.64C42.6168 5.06 42.8301 5.37 42.9834 5.57C43.1434 5.77 43.2968 5.91333 43.4434 6C43.5901 6.08 43.7668 6.12333 43.9734 6.13C43.9868 6.13 43.9934 6.15 43.9934 6.19C43.9934 6.23 43.9868 6.25 43.9734 6.25H42.7734ZM39.0434 6.25C39.0301 6.25 39.0234 6.23 39.0234 6.19C39.0234 6.15 39.0301 6.13 39.0434 6.13C39.2768 6.13 39.4468 6.11333 39.5534 6.08C39.6601 6.04667 39.7334 5.98333 39.7734 5.89C39.8134 5.79 39.8334 5.64 39.8334 5.44V2.38C39.8334 2.18 39.8134 2.03333 39.7734 1.94C39.7334 1.84667 39.6601 1.78333 39.5534 1.75C39.4468 1.71 39.2801 1.69 39.0534 1.69C39.0401 1.69 39.0334 1.67 39.0334 1.63C39.0334 1.59 39.0401 1.57 39.0534 1.57L39.4934 1.58C39.7334 1.59333 39.9268 1.6 40.0734 1.6C40.2401 1.6 40.4434 1.59333 40.6834 1.58L41.1034 1.57C41.1234 1.57 41.1334 1.59 41.1334 1.63C41.1334 1.67 41.1234 1.69 41.1034 1.69C40.8834 1.69 40.7201 1.71 40.6134 1.75C40.5068 1.79 40.4334 1.86 40.3934 1.96C40.3534 2.05333 40.3334 2.2 40.3334 2.4V5.44C40.3334 5.64667 40.3501 5.79667 40.3834 5.89C40.4234 5.98333 40.4934 6.04667 40.5934 6.08C40.7001 6.11333 40.8701 6.13 41.1034 6.13C41.1234 6.13 41.1334 6.15 41.1334 6.19C41.1334 6.23 41.1234 6.25 41.1034 6.25C40.9234 6.25 40.7834 6.24667 40.6834 6.24L40.0734 6.23L39.4834 6.24C39.3768 6.24667 39.2301 6.25 39.0434 6.25ZM41.1734 3.82L41.9734 2.74C42.2601 2.34 42.4034 2.06333 42.4034 1.91C42.4034 1.82333 42.3634 1.76667 42.2834 1.74C42.2034 1.70667 42.0768 1.69 41.9034 1.69C41.8834 1.69 41.8734 1.67 41.8734 1.63C41.8734 1.59 41.8834 1.57 41.9034 1.57L42.2834 1.58C42.5101 1.59333 42.7334 1.6 42.9534 1.6C43.1134 1.6 43.2934 1.59333 43.4934 1.58L43.7934 1.57C43.8134 1.57 43.8234 1.59 43.8234 1.63C43.8234 1.67 43.8134 1.69 43.7934 1.69C43.4801 1.69 43.2068 1.77 42.9734 1.93C42.7401 2.09 42.4734 2.36667 42.1734 2.76L41.2934 3.89L41.1734 3.82ZM49.5378 1.45C49.7911 1.45 50.0611 1.47667 50.3478 1.53C50.6411 1.57667 50.8778 1.64667 51.0578 1.74C51.1045 1.76 51.1345 1.78 51.1478 1.8C51.1611 1.82 51.1711 1.85667 51.1778 1.91L51.2878 2.94C51.2878 2.96 51.2678 2.97333 51.2278 2.98C51.1945 2.98667 51.1745 2.97667 51.1678 2.95C51.0745 2.48333 50.8645 2.14 50.5378 1.92C50.2178 1.69333 49.8078 1.58 49.3078 1.58C48.9478 1.58 48.6211 1.67333 48.3278 1.86C48.0345 2.04667 47.8045 2.30667 47.6378 2.64C47.4711 2.96667 47.3878 3.33333 47.3878 3.74C47.3878 4.16 47.4711 4.56333 47.6378 4.95C47.8045 5.33 48.0545 5.64333 48.3878 5.89C48.7211 6.13 49.1211 6.25 49.5878 6.25C50.0078 6.25 50.3645 6.13667 50.6578 5.91C50.9511 5.67667 51.1511 5.32333 51.2578 4.85C51.2578 4.83 51.2745 4.82 51.3078 4.82C51.3211 4.82 51.3345 4.82667 51.3478 4.84C51.3678 4.84667 51.3778 4.85333 51.3778 4.86L51.2378 5.92C51.2311 5.97333 51.2211 6.01 51.2078 6.03C51.1945 6.05 51.1578 6.07333 51.0978 6.1C50.5845 6.28 50.0511 6.37 49.4978 6.37C48.8711 6.37 48.3545 6.24333 47.9478 5.99C47.5411 5.73667 47.2445 5.42 47.0578 5.04C46.8778 4.66 46.7878 4.27667 46.7878 3.89C46.7878 3.43667 46.9078 3.02333 47.1478 2.65C47.3878 2.27667 47.7178 1.98333 48.1378 1.77C48.5578 1.55667 49.0245 1.45 49.5378 1.45ZM54.5096 6.37C54.0429 6.37 53.6263 6.26 53.2596 6.04C52.8996 5.82 52.6196 5.52667 52.4196 5.16C52.2263 4.78667 52.1296 4.38333 52.1296 3.95C52.1296 3.43 52.2663 2.98 52.5396 2.6C52.8129 2.22 53.1563 1.93333 53.5696 1.74C53.9896 1.54667 54.4163 1.45 54.8496 1.45C55.3163 1.45 55.7263 1.56333 56.0796 1.79C56.4329 2.01667 56.7029 2.31333 56.8896 2.68C57.0829 3.04667 57.1796 3.43 57.1796 3.83C57.1796 4.28333 57.0596 4.70667 56.8196 5.1C56.5796 5.48667 56.2529 5.79667 55.8396 6.03C55.4329 6.25667 54.9896 6.37 54.5096 6.37ZM54.7796 6.17C55.3329 6.17 55.7729 5.98667 56.0996 5.62C56.4329 5.25333 56.5996 4.74333 56.5996 4.09C56.5996 3.64333 56.5196 3.23667 56.3596 2.87C56.1996 2.49667 55.9629 2.2 55.6496 1.98C55.3363 1.76 54.9596 1.65 54.5196 1.65C53.9463 1.65 53.4996 1.83333 53.1796 2.2C52.8663 2.56667 52.7096 3.07 52.7096 3.71C52.7096 4.16333 52.7896 4.57667 52.9496 4.95C53.1163 5.32333 53.3563 5.62 53.6696 5.84C53.9829 6.06 54.3529 6.17 54.7796 6.17ZM60.6706 1.45C60.924 1.45 61.194 1.47667 61.4806 1.53C61.774 1.57667 62.0106 1.64667 62.1906 1.74C62.2373 1.76 62.2673 1.78 62.2806 1.8C62.294 1.82 62.304 1.85667 62.3106 1.91L62.4206 2.94C62.4206 2.96 62.4006 2.97333 62.3606 2.98C62.3273 2.98667 62.3073 2.97667 62.3006 2.95C62.2073 2.48333 61.9973 2.14 61.6706 1.92C61.3506 1.69333 60.9406 1.58 60.4406 1.58C60.0806 1.58 59.754 1.67333 59.4606 1.86C59.1673 2.04667 58.9373 2.30667 58.7706 2.64C58.604 2.96667 58.5206 3.33333 58.5206 3.74C58.5206 4.16 58.604 4.56333 58.7706 4.95C58.9373 5.33 59.1873 5.64333 59.5206 5.89C59.854 6.13 60.254 6.25 60.7206 6.25C61.1406 6.25 61.4973 6.13667 61.7906 5.91C62.084 5.67667 62.284 5.32333 62.3906 4.85C62.3906 4.83 62.4073 4.82 62.4406 4.82C62.454 4.82 62.4673 4.82667 62.4806 4.84C62.5006 4.84667 62.5106 4.85333 62.5106 4.86L62.3706 5.92C62.364 5.97333 62.354 6.01 62.3406 6.03C62.3273 6.05 62.2906 6.07333 62.2306 6.1C61.7173 6.28 61.184 6.37 60.6306 6.37C60.004 6.37 59.4873 6.24333 59.0806 5.99C58.674 5.73667 58.3773 5.42 58.1906 5.04C58.0106 4.66 57.9206 4.27667 57.9206 3.89C57.9206 3.43667 58.0406 3.02333 58.2806 2.65C58.5206 2.27667 58.8506 1.98333 59.2706 1.77C59.6906 1.55667 60.1573 1.45 60.6706 1.45ZM64.421 1.68C64.141 1.68 63.9277 1.71333 63.781 1.78C63.641 1.84 63.5377 1.95333 63.471 2.12C63.4043 2.28 63.351 2.52333 63.311 2.85C63.311 2.86333 63.291 2.87 63.251 2.87C63.2177 2.87 63.201 2.86333 63.201 2.85C63.221 2.70333 63.241 2.46333 63.261 2.13C63.2877 1.79 63.301 1.53 63.301 1.35C63.301 1.31667 63.321 1.3 63.361 1.3C63.401 1.3 63.421 1.31667 63.421 1.35C63.421 1.43667 63.471 1.49333 63.571 1.52C63.671 1.54 63.7943 1.55 63.941 1.55C64.5277 1.56333 65.031 1.57 65.451 1.57L66.321 1.56C66.441 1.55333 66.5977 1.55 66.791 1.55C67.031 1.55 67.2043 1.53667 67.311 1.51C67.4243 1.47667 67.4977 1.41 67.531 1.31C67.5443 1.29 67.5677 1.28 67.601 1.28C67.6343 1.28 67.651 1.29 67.651 1.31C67.611 2.03 67.591 2.54333 67.591 2.85C67.591 2.86333 67.571 2.87 67.531 2.87C67.4977 2.87 67.481 2.86333 67.481 2.85C67.481 2.51667 67.4543 2.27 67.401 2.11C67.3543 1.95 67.261 1.84 67.121 1.78C66.9877 1.71333 66.7777 1.68 66.491 1.68C66.271 1.68 66.1043 1.7 65.991 1.74C65.8777 1.78 65.7977 1.85 65.751 1.95C65.711 2.04333 65.691 2.18667 65.691 2.38V5.44C65.691 5.64667 65.711 5.79667 65.751 5.89C65.791 5.98333 65.871 6.04667 65.991 6.08C66.1177 6.11333 66.3143 6.13 66.581 6.13C66.5943 6.13 66.601 6.15 66.601 6.19C66.601 6.23 66.5943 6.25 66.581 6.25C66.3743 6.25 66.2143 6.24667 66.101 6.24L65.421 6.23L64.771 6.24C64.651 6.24667 64.4843 6.25 64.271 6.25C64.2577 6.25 64.251 6.23 64.251 6.19C64.251 6.15 64.2577 6.13 64.271 6.13C64.531 6.13 64.721 6.11333 64.841 6.08C64.9677 6.04667 65.0543 5.98333 65.101 5.89C65.1477 5.79 65.171 5.64 65.171 5.44V2.36C65.171 2.16 65.1543 2.01333 65.121 1.92C65.0877 1.82667 65.0177 1.76333 64.911 1.73C64.811 1.69667 64.6477 1.68 64.421 1.68ZM70.6522 6.37C70.1855 6.37 69.7689 6.26 69.4022 6.04C69.0422 5.82 68.7622 5.52667 68.5622 5.16C68.3689 4.78667 68.2722 4.38333 68.2722 3.95C68.2722 3.43 68.4089 2.98 68.6822 2.6C68.9555 2.22 69.2989 1.93333 69.7122 1.74C70.1322 1.54667 70.5589 1.45 70.9922 1.45C71.4589 1.45 71.8689 1.56333 72.2222 1.79C72.5755 2.01667 72.8455 2.31333 73.0322 2.68C73.2255 3.04667 73.3222 3.43 73.3222 3.83C73.3222 4.28333 73.2022 4.70667 72.9622 5.1C72.7222 5.48667 72.3955 5.79667 71.9822 6.03C71.5755 6.25667 71.1322 6.37 70.6522 6.37ZM70.9222 6.17C71.4755 6.17 71.9155 5.98667 72.2422 5.62C72.5755 5.25333 72.7422 4.74333 72.7422 4.09C72.7422 3.64333 72.6622 3.23667 72.5022 2.87C72.3422 2.49667 72.1055 2.2 71.7922 1.98C71.4789 1.76 71.1022 1.65 70.6622 1.65C70.0889 1.65 69.6422 1.83333 69.3222 2.2C69.0089 2.56667 68.8522 3.07 68.8522 3.71C68.8522 4.16333 68.9322 4.57667 69.0922 4.95C69.2589 5.32333 69.4989 5.62 69.8122 5.84C70.1255 6.06 70.4955 6.17 70.9222 6.17ZM78.2432 2.4C78.2432 2.2 78.2232 2.05333 78.1832 1.96C78.1499 1.86 78.0799 1.79 77.9732 1.75C77.8665 1.71 77.6999 1.69 77.4732 1.69C77.4532 1.69 77.4432 1.67 77.4432 1.63C77.4432 1.59 77.4532 1.57 77.4732 1.57L77.8932 1.58C78.1465 1.59333 78.3499 1.6 78.5032 1.6C78.6432 1.6 78.8399 1.59333 79.0932 1.58L79.5332 1.57C79.5465 1.57 79.5532 1.59 79.5532 1.63C79.5532 1.67 79.5465 1.69 79.5332 1.69C79.2999 1.69 79.1299 1.71 79.0232 1.75C78.9165 1.78333 78.8432 1.84667 78.8032 1.94C78.7632 2.03333 78.7432 2.18 78.7432 2.38V5.44C78.7432 5.64 78.7632 5.79 78.8032 5.89C78.8432 5.98333 78.9165 6.04667 79.0232 6.08C79.1299 6.11333 79.2999 6.13 79.5332 6.13C79.5465 6.13 79.5532 6.15 79.5532 6.19C79.5532 6.23 79.5465 6.25 79.5332 6.25C79.3465 6.25 79.1999 6.24667 79.0932 6.24L78.5032 6.23L77.8932 6.24C77.7932 6.24667 77.6532 6.25 77.4732 6.25C77.4532 6.25 77.4432 6.23 77.4432 6.19C77.4432 6.15 77.4532 6.13 77.4732 6.13C77.6999 6.13 77.8665 6.11333 77.9732 6.08C78.0799 6.04667 78.1499 5.98333 78.1832 5.89C78.2232 5.79 78.2432 5.64 78.2432 5.44V2.4ZM74.9832 5.6L78.4532 2.12L78.5832 2.25L75.1132 5.72L74.9832 5.6ZM74.8432 2.38C74.8432 2.18 74.8232 2.03333 74.7832 1.94C74.7432 1.84667 74.6699 1.78333 74.5632 1.75C74.4565 1.71 74.2899 1.69 74.0632 1.69C74.0499 1.69 74.0432 1.67 74.0432 1.63C74.0432 1.59 74.0499 1.57 74.0632 1.57L74.5032 1.58C74.7432 1.59333 74.9365 1.6 75.0832 1.6C75.2499 1.6 75.4532 1.59333 75.6932 1.58L76.1132 1.57C76.1332 1.57 76.1432 1.59 76.1432 1.63C76.1432 1.67 76.1332 1.69 76.1132 1.69C75.8932 1.69 75.7299 1.71 75.6232 1.75C75.5165 1.79 75.4432 1.86 75.4032 1.96C75.3632 2.05333 75.3432 2.2 75.3432 2.4V5.44C75.3432 5.64667 75.3599 5.79667 75.3932 5.89C75.4332 5.98333 75.5032 6.04667 75.6032 6.08C75.7099 6.11333 75.8799 6.13 76.1132 6.13C76.1332 6.13 76.1432 6.15 76.1432 6.19C76.1432 6.23 76.1332 6.25 76.1132 6.25C75.9332 6.25 75.7932 6.24667 75.6932 6.24L75.0832 6.23L74.4932 6.24C74.3865 6.24667 74.2399 6.25 74.0532 6.25C74.0399 6.25 74.0332 6.23 74.0332 6.19C74.0332 6.15 74.0399 6.13 74.0532 6.13C74.2865 6.13 74.4565 6.11333 74.5632 6.08C74.6699 6.04667 74.7432 5.98333 74.7832 5.89C74.8232 5.79 74.8432 5.64 74.8432 5.44V2.38ZM81.3644 1.68C81.0844 1.68 80.871 1.71333 80.7244 1.78C80.5844 1.84 80.481 1.95333 80.4144 2.12C80.3477 2.28 80.2944 2.52333 80.2544 2.85C80.2544 2.86333 80.2344 2.87 80.1944 2.87C80.161 2.87 80.1444 2.86333 80.1444 2.85C80.1644 2.70333 80.1844 2.46333 80.2044 2.13C80.231 1.79 80.2444 1.53 80.2444 1.35C80.2444 1.31667 80.2644 1.3 80.3044 1.3C80.3444 1.3 80.3644 1.31667 80.3644 1.35C80.3644 1.43667 80.4144 1.49333 80.5144 1.52C80.6144 1.54 80.7377 1.55 80.8844 1.55C81.471 1.56333 81.9744 1.57 82.3944 1.57L83.2644 1.56C83.3844 1.55333 83.541 1.55 83.7344 1.55C83.9744 1.55 84.1477 1.53667 84.2544 1.51C84.3677 1.47667 84.441 1.41 84.4744 1.31C84.4877 1.29 84.511 1.28 84.5444 1.28C84.5777 1.28 84.5944 1.29 84.5944 1.31C84.5544 2.03 84.5344 2.54333 84.5344 2.85C84.5344 2.86333 84.5144 2.87 84.4744 2.87C84.441 2.87 84.4244 2.86333 84.4244 2.85C84.4244 2.51667 84.3977 2.27 84.3444 2.11C84.2977 1.95 84.2044 1.84 84.0644 1.78C83.931 1.71333 83.721 1.68 83.4344 1.68C83.2144 1.68 83.0477 1.7 82.9344 1.74C82.821 1.78 82.741 1.85 82.6944 1.95C82.6544 2.04333 82.6344 2.18667 82.6344 2.38V5.44C82.6344 5.64667 82.6544 5.79667 82.6944 5.89C82.7344 5.98333 82.8144 6.04667 82.9344 6.08C83.061 6.11333 83.2577 6.13 83.5244 6.13C83.5377 6.13 83.5444 6.15 83.5444 6.19C83.5444 6.23 83.5377 6.25 83.5244 6.25C83.3177 6.25 83.1577 6.24667 83.0444 6.24L82.3644 6.23L81.7144 6.24C81.5944 6.24667 81.4277 6.25 81.2144 6.25C81.201 6.25 81.1944 6.23 81.1944 6.19C81.1944 6.15 81.201 6.13 81.2144 6.13C81.4744 6.13 81.6644 6.11333 81.7844 6.08C81.911 6.04667 81.9977 5.98333 82.0444 5.89C82.091 5.79 82.1144 5.64 82.1144 5.44V2.36C82.1144 2.16 82.0977 2.01333 82.0644 1.92C82.031 1.82667 81.961 1.76333 81.8544 1.73C81.7544 1.69667 81.591 1.68 81.3644 1.68ZM87.9655 1.45C88.2189 1.45 88.4889 1.47667 88.7755 1.53C89.0689 1.57667 89.3055 1.64667 89.4855 1.74C89.5322 1.76 89.5622 1.78 89.5755 1.8C89.5889 1.82 89.5989 1.85667 89.6055 1.91L89.7155 2.94C89.7155 2.96 89.6955 2.97333 89.6555 2.98C89.6222 2.98667 89.6022 2.97667 89.5955 2.95C89.5022 2.48333 89.2922 2.14 88.9655 1.92C88.6455 1.69333 88.2355 1.58 87.7355 1.58C87.3755 1.58 87.0489 1.67333 86.7555 1.86C86.4622 2.04667 86.2322 2.30667 86.0655 2.64C85.8989 2.96667 85.8155 3.33333 85.8155 3.74C85.8155 4.16 85.8989 4.56333 86.0655 4.95C86.2322 5.33 86.4822 5.64333 86.8155 5.89C87.1489 6.13 87.5489 6.25 88.0155 6.25C88.4355 6.25 88.7922 6.13667 89.0855 5.91C89.3789 5.67667 89.5789 5.32333 89.6855 4.85C89.6855 4.83 89.7022 4.82 89.7355 4.82C89.7489 4.82 89.7622 4.82667 89.7755 4.84C89.7955 4.84667 89.8055 4.85333 89.8055 4.86L89.6655 5.92C89.6589 5.97333 89.6489 6.01 89.6355 6.03C89.6222 6.05 89.5855 6.07333 89.5255 6.1C89.0122 6.28 88.4789 6.37 87.9255 6.37C87.2989 6.37 86.7822 6.24333 86.3755 5.99C85.9689 5.73667 85.6722 5.42 85.4855 5.04C85.3055 4.66 85.2155 4.27667 85.2155 3.89C85.2155 3.43667 85.3355 3.02333 85.5755 2.65C85.8155 2.27667 86.1455 1.98333 86.5655 1.77C86.9855 1.55667 87.4522 1.45 87.9655 1.45ZM90.2659 6.25C90.2526 6.25 90.2459 6.23 90.2459 6.19C90.2459 6.15 90.2526 6.13 90.2659 6.13C90.5526 6.13 90.7826 6.04333 90.9559 5.87C91.1359 5.69667 91.3059 5.44 91.4659 5.1C91.6526 4.69333 91.8926 4.40333 92.1859 4.23C92.4793 4.05667 92.8426 3.97 93.2759 3.97L93.3459 4C92.6659 4 92.1826 3.89333 91.8959 3.68C91.6093 3.46 91.4659 3.15 91.4659 2.75C91.4659 2.38333 91.6126 2.09 91.9059 1.87C92.2059 1.65 92.6026 1.54 93.0959 1.54C93.2159 1.54 93.3459 1.55 93.4859 1.57C93.5393 1.57 93.6193 1.57667 93.7259 1.59C93.8393 1.59667 93.9393 1.6 94.0259 1.6C94.1659 1.6 94.3626 1.59333 94.6159 1.58L95.0559 1.57C95.0693 1.57 95.0759 1.59 95.0759 1.63C95.0759 1.67 95.0693 1.69 95.0559 1.69C94.8226 1.69 94.6526 1.71 94.5459 1.75C94.4393 1.78333 94.3659 1.84667 94.3259 1.94C94.2859 2.03333 94.2659 2.18 94.2659 2.38V5.44C94.2659 5.64 94.2859 5.79 94.3259 5.89C94.3659 5.98333 94.4393 6.04667 94.5459 6.08C94.6526 6.11333 94.8226 6.13 95.0559 6.13C95.0693 6.13 95.0759 6.15 95.0759 6.19C95.0759 6.23 95.0693 6.25 95.0559 6.25C94.8693 6.25 94.7226 6.24667 94.6159 6.24L94.0259 6.23L93.4159 6.24C93.3159 6.24667 93.1759 6.25 92.9959 6.25C92.9759 6.25 92.9659 6.23 92.9659 6.19C92.9659 6.15 92.9759 6.13 92.9959 6.13C93.2293 6.13 93.3959 6.11333 93.4959 6.08C93.6026 6.04667 93.6726 5.98333 93.7059 5.89C93.7459 5.79667 93.7659 5.64667 93.7659 5.44V2.4C93.7659 2.12667 93.7159 1.93667 93.6159 1.83C93.5159 1.72333 93.3393 1.67 93.0859 1.67C92.3393 1.67 91.9659 1.95667 91.9659 2.53C91.9659 2.93 92.0826 3.25333 92.3159 3.5C92.5493 3.74 92.8859 3.86 93.3259 3.86C93.5926 3.86 93.7926 3.83667 93.9259 3.79L93.9059 4C93.5526 3.99333 93.2659 4.02333 93.0459 4.09C92.8259 4.15 92.6293 4.26667 92.4559 4.44C92.2893 4.60667 92.1259 4.86 91.9659 5.2C91.8193 5.51333 91.7026 5.74667 91.6159 5.9C91.5359 6.04667 91.4726 6.14333 91.4259 6.19C91.3793 6.23 91.3326 6.25 91.2859 6.25H90.2659ZM99.7157 4.14C99.9357 3.88667 100.086 3.66333 100.166 3.47C100.252 3.27667 100.296 3.05333 100.296 2.8C100.296 2.48667 100.226 2.23333 100.086 2.04C99.9524 1.84 99.7524 1.74 99.4857 1.74C99.1524 1.74 98.879 1.83 98.6657 2.01C98.459 2.19 98.2957 2.48667 98.1757 2.9C98.1757 2.91333 98.159 2.92 98.1257 2.92C98.1057 2.92 98.0857 2.91667 98.0657 2.91C98.0524 2.89667 98.049 2.88667 98.0557 2.88L98.4457 1.36C98.4457 1.35333 98.459 1.35 98.4857 1.35C98.5524 1.35 98.579 1.36 98.5657 1.38C98.5524 1.43333 98.5457 1.47333 98.5457 1.5C98.5457 1.56 98.5624 1.60667 98.5957 1.64C98.629 1.66667 98.669 1.68 98.7157 1.68C98.789 1.68 98.8957 1.65333 99.0357 1.6C99.3424 1.49333 99.6257 1.44 99.8857 1.44C100.286 1.44 100.629 1.54333 100.916 1.75C101.209 1.95667 101.356 2.22 101.356 2.54C101.356 3.09333 100.866 3.64333 99.8857 4.19L99.7157 4.14ZM98.2557 7.7C99.069 7.48667 99.649 7.18 99.9957 6.78C100.349 6.38 100.526 5.95667 100.526 5.51C100.526 5.19 100.436 4.91333 100.256 4.68C100.082 4.44667 99.8324 4.33 99.5057 4.33C99.3124 4.33 99.1457 4.35667 99.0057 4.41L98.9857 4.42C98.959 4.42 98.939 4.40667 98.9257 4.38C98.9124 4.35333 98.9157 4.33333 98.9357 4.32C99.049 4.24667 99.2057 4.18667 99.4057 4.14C99.6057 4.08667 99.819 4.06 100.046 4.06C100.539 4.06 100.929 4.19 101.216 4.45C101.502 4.70333 101.646 5.02 101.646 5.4C101.646 5.89333 101.362 6.35667 100.796 6.79C100.229 7.23 99.3957 7.57333 98.2957 7.82C98.269 7.82667 98.249 7.81 98.2357 7.77C98.229 7.73 98.2357 7.70667 98.2557 7.7ZM104.949 6.38C104.489 6.38 104.079 6.27667 103.719 6.07C103.359 5.85667 103.076 5.56333 102.869 5.19C102.669 4.81 102.569 4.37667 102.569 3.89C102.569 3.41667 102.669 2.99667 102.869 2.63C103.076 2.26333 103.359 1.98 103.719 1.78C104.086 1.57333 104.499 1.47 104.959 1.47C105.412 1.47 105.816 1.57333 106.169 1.78C106.529 1.98667 106.806 2.27667 106.999 2.65C107.199 3.01667 107.299 3.44 107.299 3.92C107.299 4.4 107.199 4.82667 106.999 5.2C106.799 5.57333 106.519 5.86333 106.159 6.07C105.806 6.27667 105.402 6.38 104.949 6.38ZM105.069 6.17C105.422 6.17 105.686 5.98 105.859 5.6C106.032 5.22 106.119 4.7 106.119 4.04C106.119 3.52 106.059 3.08333 105.939 2.73C105.826 2.37667 105.672 2.11333 105.479 1.94C105.292 1.76667 105.082 1.68 104.849 1.68C104.496 1.68 104.219 1.87667 104.019 2.27C103.819 2.66333 103.719 3.18 103.719 3.82C103.719 4.27333 103.772 4.68 103.879 5.04C103.992 5.39333 104.149 5.67 104.349 5.87C104.556 6.07 104.796 6.17 105.069 6.17ZM111.052 1.79L111.252 1.82L111.202 4.98C111.195 5.37333 111.252 5.66333 111.372 5.85C111.498 6.03667 111.692 6.13 111.952 6.13C111.972 6.13 111.982 6.15 111.982 6.19C111.982 6.23 111.972 6.25 111.952 6.25C111.792 6.25 111.668 6.24667 111.582 6.24L111.102 6.23L110.612 6.24C110.525 6.24667 110.395 6.25 110.222 6.25C110.208 6.25 110.202 6.23 110.202 6.19C110.202 6.15 110.208 6.13 110.222 6.13C110.488 6.13 110.682 6.03667 110.802 5.85C110.928 5.66333 110.995 5.37333 111.002 4.98L111.052 1.79ZM116.562 6.13C116.575 6.13 116.582 6.15 116.582 6.19C116.582 6.23 116.575 6.25 116.562 6.25C116.382 6.25 116.238 6.24667 116.132 6.24L115.532 6.23L114.852 6.24C114.738 6.24667 114.582 6.25 114.382 6.25C114.368 6.25 114.362 6.23 114.362 6.19C114.362 6.15 114.368 6.13 114.382 6.13C114.568 6.13 114.705 6.11333 114.792 6.08C114.885 6.04 114.945 5.97333 114.972 5.88C115.005 5.78667 115.015 5.64 115.002 5.44L114.822 2.11L115.112 1.69L113.272 6.18C113.258 6.20667 113.235 6.22 113.202 6.22C113.162 6.22 113.135 6.20667 113.122 6.18L111.172 2.4C111.025 2.12667 110.875 1.94 110.722 1.84C110.568 1.74 110.408 1.69 110.242 1.69C110.228 1.69 110.222 1.67 110.222 1.63C110.222 1.59 110.228 1.57 110.242 1.57L111.072 1.58L111.692 1.57C111.778 1.57 111.852 1.60333 111.912 1.67C111.972 1.73 112.058 1.87 112.172 2.09L113.652 4.95L113.192 5.9L114.852 1.82C114.878 1.74667 114.922 1.68667 114.982 1.64C115.042 1.59333 115.102 1.57 115.162 1.57L115.782 1.58L116.542 1.57C116.555 1.57 116.562 1.59 116.562 1.63C116.562 1.67 116.555 1.69 116.542 1.69C116.288 1.69 116.108 1.73667 116.002 1.83C115.902 1.91667 115.858 2.09333 115.872 2.36L116.052 5.44C116.065 5.64667 116.082 5.79667 116.102 5.89C116.128 5.98333 116.175 6.04667 116.242 6.08C116.308 6.11333 116.415 6.13 116.562 6.13ZM118.657 3.86H120.487L120.557 4.12H118.507L118.657 3.86ZM122.427 6.13C122.461 6.13 122.477 6.15 122.477 6.19C122.477 6.23 122.461 6.25 122.427 6.25C122.287 6.25 122.077 6.24333 121.797 6.23C121.504 6.21667 121.297 6.21 121.177 6.21C121.064 6.21 120.887 6.21667 120.647 6.23C120.421 6.24333 120.261 6.25 120.167 6.25C120.141 6.25 120.127 6.23 120.127 6.19C120.127 6.15 120.141 6.13 120.167 6.13C120.321 6.13 120.427 6.11333 120.487 6.08C120.554 6.04 120.587 5.98333 120.587 5.91C120.587 5.81667 120.531 5.65 120.417 5.41L119.147 2.68L119.587 1.91L118.277 5.02C118.157 5.3 118.097 5.52 118.097 5.68C118.097 5.84 118.154 5.95667 118.267 6.03C118.381 6.09667 118.557 6.13 118.797 6.13C118.831 6.13 118.847 6.15 118.847 6.19C118.847 6.23 118.831 6.25 118.797 6.25C118.704 6.25 118.571 6.24333 118.397 6.23C118.211 6.21667 118.037 6.21 117.877 6.21C117.711 6.21 117.514 6.21667 117.287 6.23C117.087 6.24333 116.924 6.25 116.797 6.25C116.764 6.25 116.747 6.23 116.747 6.19C116.747 6.15 116.764 6.13 116.797 6.13C117.004 6.13 117.171 6.1 117.297 6.04C117.424 5.98 117.541 5.86667 117.647 5.7C117.761 5.53333 117.891 5.27667 118.037 4.93L119.537 1.42C119.551 1.39333 119.571 1.38 119.597 1.38C119.624 1.38 119.644 1.39333 119.657 1.42L121.257 4.88C121.424 5.24 121.561 5.50667 121.667 5.68C121.781 5.85333 121.894 5.97333 122.007 6.04C122.121 6.1 122.261 6.13 122.427 6.13ZM122.624 6.25C122.611 6.25 122.604 6.23 122.604 6.19C122.604 6.15 122.611 6.13 122.624 6.13C122.784 6.13 122.921 6.09 123.034 6.01C123.147 5.92333 123.237 5.83 123.304 5.73C123.371 5.62333 123.464 5.46 123.584 5.24C123.791 4.77333 124.044 4.45 124.344 4.27C124.644 4.08333 125.064 3.99 125.604 3.99L125.674 4.03C124.941 4.03 124.417 3.92333 124.104 3.71C123.791 3.49667 123.634 3.19667 123.634 2.81C123.634 2.42333 123.797 2.11667 124.124 1.89C124.451 1.65667 124.887 1.54 125.434 1.54C125.574 1.54 125.744 1.55 125.944 1.57C126.031 1.57667 126.124 1.58333 126.224 1.59C126.331 1.59667 126.434 1.6 126.534 1.6C126.694 1.6 126.914 1.59333 127.194 1.58L127.674 1.57C127.694 1.57 127.704 1.59 127.704 1.63C127.704 1.67 127.694 1.69 127.674 1.69C127.487 1.69 127.347 1.71 127.254 1.75C127.167 1.78333 127.107 1.84667 127.074 1.94C127.041 2.03333 127.024 2.18 127.024 2.38V5.44C127.024 5.64 127.041 5.79 127.074 5.89C127.107 5.98333 127.167 6.04667 127.254 6.08C127.341 6.11333 127.481 6.13 127.674 6.13C127.694 6.13 127.704 6.15 127.704 6.19C127.704 6.23 127.694 6.25 127.674 6.25C127.467 6.25 127.307 6.24667 127.194 6.24L126.534 6.23L125.864 6.24C125.751 6.24667 125.591 6.25 125.384 6.25C125.371 6.25 125.364 6.23 125.364 6.19C125.364 6.15 125.371 6.13 125.384 6.13C125.571 6.13 125.707 6.11333 125.794 6.08C125.881 6.04667 125.941 5.98333 125.974 5.89C126.007 5.79 126.024 5.64 126.024 5.44V2.4C126.024 2.11333 125.974 1.92 125.874 1.82C125.774 1.72 125.624 1.67 125.424 1.67C124.877 1.67 124.604 1.97667 124.604 2.59C124.604 2.97667 124.694 3.29 124.874 3.53C125.061 3.77 125.321 3.89 125.654 3.89C125.761 3.89 125.871 3.88333 125.984 3.87C126.104 3.85667 126.197 3.84 126.264 3.82L126.234 4.05C125.907 4.04333 125.651 4.07667 125.464 4.15C125.277 4.21667 125.111 4.34667 124.964 4.54C124.817 4.73333 124.654 5.03333 124.474 5.44C124.381 5.64 124.301 5.80667 124.234 5.94C124.167 6.07333 124.111 6.16 124.064 6.2C124.024 6.23333 123.974 6.25 123.914 6.25H122.624ZM130.694 6.13C131.401 5.57667 131.951 5.11 132.344 4.73C132.737 4.34333 133.021 3.99667 133.194 3.69C133.367 3.38333 133.454 3.07333 133.454 2.76C133.454 2.40667 133.357 2.13 133.164 1.93C132.971 1.73 132.694 1.63 132.334 1.63C131.627 1.63 131.164 2.04 130.944 2.86C130.944 2.86667 130.931 2.87 130.904 2.87C130.844 2.87 130.817 2.85667 130.824 2.83L131.204 1.36C131.211 1.34667 131.231 1.34333 131.264 1.35C131.304 1.35667 131.321 1.36667 131.314 1.38C131.307 1.41333 131.304 1.45333 131.304 1.5C131.304 1.62 131.361 1.68 131.474 1.68C131.547 1.68 131.654 1.65333 131.794 1.6C131.961 1.54667 132.101 1.51 132.214 1.49C132.327 1.46333 132.461 1.45 132.614 1.45C133.041 1.45 133.381 1.56333 133.634 1.79C133.894 2.01667 134.024 2.31333 134.024 2.68C134.024 2.95333 133.941 3.23333 133.774 3.52C133.607 3.8 133.337 4.11667 132.964 4.47C132.591 4.82333 132.071 5.25667 131.404 5.77C131.377 5.79 131.367 5.80667 131.374 5.82C131.387 5.83333 131.411 5.84 131.444 5.84C132.344 5.84 132.961 5.83 133.294 5.81C133.634 5.78333 133.874 5.72667 134.014 5.64C134.154 5.54667 134.251 5.38333 134.304 5.15C134.311 5.13667 134.331 5.13333 134.364 5.14C134.397 5.14 134.414 5.14667 134.414 5.16L134.274 6.14C134.274 6.16667 134.264 6.19333 134.244 6.22C134.231 6.24 134.211 6.25 134.184 6.25H130.764C130.737 6.25 130.714 6.23667 130.694 6.21C130.674 6.18333 130.674 6.15667 130.694 6.13ZM137.566 6.38C137.106 6.38 136.696 6.27667 136.336 6.07C135.976 5.85667 135.693 5.56333 135.486 5.19C135.286 4.81 135.186 4.37667 135.186 3.89C135.186 3.41667 135.286 2.99667 135.486 2.63C135.693 2.26333 135.976 1.98 136.336 1.78C136.703 1.57333 137.116 1.47 137.576 1.47C138.03 1.47 138.433 1.57333 138.786 1.78C139.146 1.98667 139.423 2.27667 139.616 2.65C139.816 3.01667 139.916 3.44 139.916 3.92C139.916 4.4 139.816 4.82667 139.616 5.2C139.416 5.57333 139.136 5.86333 138.776 6.07C138.423 6.27667 138.02 6.38 137.566 6.38ZM137.686 6.26C138.226 6.26 138.63 6.06333 138.896 5.67C139.163 5.27667 139.296 4.73333 139.296 4.04C139.296 3.49333 139.213 3.03667 139.046 2.67C138.886 2.30333 138.666 2.03 138.386 1.85C138.113 1.67 137.806 1.58 137.466 1.58C136.94 1.58 136.526 1.78667 136.226 2.2C135.926 2.61333 135.776 3.15333 135.776 3.82C135.776 4.29333 135.853 4.71667 136.006 5.09C136.166 5.45667 136.39 5.74333 136.676 5.95C136.97 6.15667 137.306 6.26 137.686 6.26ZM140.655 6.13C141.362 5.57667 141.912 5.11 142.305 4.73C142.698 4.34333 142.982 3.99667 143.155 3.69C143.328 3.38333 143.415 3.07333 143.415 2.76C143.415 2.40667 143.318 2.13 143.125 1.93C142.932 1.73 142.655 1.63 142.295 1.63C141.588 1.63 141.125 2.04 140.905 2.86C140.905 2.86667 140.892 2.87 140.865 2.87C140.805 2.87 140.778 2.85667 140.785 2.83L141.165 1.36C141.172 1.34667 141.192 1.34333 141.225 1.35C141.265 1.35667 141.282 1.36667 141.275 1.38C141.268 1.41333 141.265 1.45333 141.265 1.5C141.265 1.62 141.322 1.68 141.435 1.68C141.508 1.68 141.615 1.65333 141.755 1.6C141.922 1.54667 142.062 1.51 142.175 1.49C142.288 1.46333 142.422 1.45 142.575 1.45C143.002 1.45 143.342 1.56333 143.595 1.79C143.855 2.01667 143.985 2.31333 143.985 2.68C143.985 2.95333 143.902 3.23333 143.735 3.52C143.568 3.8 143.298 4.11667 142.925 4.47C142.552 4.82333 142.032 5.25667 141.365 5.77C141.338 5.79 141.328 5.80667 141.335 5.82C141.348 5.83333 141.372 5.84 141.405 5.84C142.305 5.84 142.922 5.83 143.255 5.81C143.595 5.78333 143.835 5.72667 143.975 5.64C144.115 5.54667 144.212 5.38333 144.265 5.15C144.272 5.13667 144.292 5.13333 144.325 5.14C144.358 5.14 144.375 5.14667 144.375 5.16L144.235 6.14C144.235 6.16667 144.225 6.19333 144.205 6.22C144.192 6.24 144.172 6.25 144.145 6.25H140.725C140.698 6.25 140.675 6.23667 140.655 6.21C140.635 6.18333 140.635 6.15667 140.655 6.13ZM148.047 3.31C148.501 3.31 148.841 3.43333 149.067 3.68C149.294 3.92667 149.407 4.23 149.407 4.59C149.407 4.90333 149.311 5.19667 149.117 5.47C148.931 5.74333 148.674 5.96333 148.347 6.13C148.027 6.29667 147.684 6.38 147.317 6.38C146.931 6.38 146.581 6.27333 146.267 6.06C145.954 5.84667 145.707 5.54667 145.527 5.16C145.354 4.77333 145.267 4.33667 145.267 3.85C145.267 3.26333 145.397 2.71 145.657 2.19C145.924 1.66333 146.311 1.22 146.817 0.86C147.331 0.493333 147.944 0.263333 148.657 0.17C148.684 0.163333 148.701 0.176666 148.707 0.21C148.714 0.243333 148.707 0.263333 148.687 0.27C148.067 0.39 147.544 0.62 147.117 0.96C146.697 1.3 146.381 1.70667 146.167 2.18C145.961 2.64667 145.857 3.13667 145.857 3.65C145.857 4.09 145.931 4.50667 146.077 4.9C146.224 5.28667 146.431 5.6 146.697 5.84C146.964 6.08 147.267 6.2 147.607 6.2C147.974 6.2 148.267 6.07667 148.487 5.83C148.707 5.58333 148.817 5.25667 148.817 4.85C148.817 4.45667 148.721 4.14667 148.527 3.92C148.341 3.69333 148.071 3.58 147.717 3.58C147.517 3.58 147.331 3.61667 147.157 3.69C146.991 3.76333 146.811 3.89 146.617 4.07C146.611 4.07667 146.601 4.08 146.587 4.08C146.567 4.08 146.547 4.07 146.527 4.05C146.507 4.03 146.501 4.01333 146.507 4C146.687 3.77333 146.907 3.60333 147.167 3.49C147.434 3.37 147.727 3.31 148.047 3.31ZM150.147 6.25C150.134 6.25 150.127 6.23 150.127 6.19C150.127 6.15 150.134 6.13 150.147 6.13C150.374 6.13 150.54 6.11333 150.647 6.08C150.754 6.04667 150.824 5.98333 150.857 5.89C150.897 5.79 150.917 5.64 150.917 5.44V2.38C150.917 2.18 150.897 2.03333 150.857 1.94C150.824 1.84667 150.754 1.78333 150.647 1.75C150.54 1.71 150.374 1.69 150.147 1.69C150.134 1.69 150.127 1.67 150.127 1.63C150.127 1.59 150.134 1.57 150.147 1.57H153.727C153.794 1.57 153.827 1.59667 153.827 1.65L153.837 2.27C153.844 2.39667 153.847 2.55667 153.847 2.75C153.847 2.77 153.827 2.78 153.787 2.78C153.747 2.78 153.727 2.77 153.727 2.75C153.727 2.45667 153.634 2.22 153.447 2.04C153.267 1.85333 153.034 1.76 152.747 1.76H152.287C152.034 1.76 151.847 1.77667 151.727 1.81C151.614 1.84333 151.534 1.90333 151.487 1.99C151.447 2.07 151.427 2.20333 151.427 2.39V5.4C151.427 5.61333 151.45 5.77 151.497 5.87C151.55 5.96333 151.644 6.03 151.777 6.07C151.917 6.11 152.137 6.13 152.437 6.13C152.457 6.13 152.467 6.15 152.467 6.19C152.467 6.23 152.457 6.25 152.437 6.25C152.204 6.25 152.024 6.24667 151.897 6.24L151.167 6.23C150.94 6.23 150.77 6.23333 150.657 6.24L150.147 6.25Z" fill="#706760"/>
</svg>
