<svg width="186" height="14" viewBox="0 0 186 14" fill="none" xmlns="http://www.w3.org/2000/svg">
<path d="M3.965 9.50299C3.939 9.50299 3.926 9.47699 3.926 9.42499C3.926 9.37299 3.939 9.34699 3.965 9.34699C4.21633 9.34699 4.39833 9.32532 4.511 9.28199C4.62367 9.23866 4.70167 9.15632 4.745 9.03499C4.78833 8.90499 4.81 8.70999 4.81 8.44999V6.27899C4.81 5.75032 4.71033 5.36466 4.511 5.12199C4.31167 4.87932 3.99967 4.75799 3.575 4.75799C3.24567 4.75799 2.90767 4.87066 2.561 5.09599C2.223 5.31266 1.92833 5.60732 1.677 5.97999L1.625 5.82399C2.02367 5.29532 2.40933 4.91399 2.782 4.67999C3.15467 4.43732 3.536 4.31599 3.926 4.31599C4.41133 4.31599 4.77967 4.44599 5.031 4.70599C5.291 4.96599 5.421 5.36032 5.421 5.88899V8.44999C5.421 8.70999 5.43833 8.90499 5.473 9.03499C5.51633 9.15632 5.59433 9.23866 5.707 9.28199C5.82833 9.32532 6.01467 9.34699 6.266 9.34699C6.292 9.34699 6.305 9.37299 6.305 9.42499C6.305 9.47699 6.292 9.50299 6.266 9.50299C6.06667 9.50299 5.91067 9.49866 5.798 9.48999L5.122 9.47699L4.433 9.48999C4.32033 9.49866 4.16433 9.50299 3.965 9.50299ZM0.468 9.50299C0.442 9.50299 0.429 9.47699 0.429 9.42499C0.429 9.37299 0.442 9.34699 0.468 9.34699C0.719333 9.34699 0.901333 9.32532 1.014 9.28199C1.12667 9.23866 1.20467 9.15632 1.248 9.03499C1.29133 8.90499 1.313 8.70999 1.313 8.44999V5.84999C1.313 5.54666 1.27833 5.32999 1.209 5.19999C1.13967 5.06999 1.01833 5.00499 0.845 5.00499C0.706333 5.00499 0.463667 5.06999 0.117 5.19999H0.0909999C0.0563332 5.19999 0.0303332 5.18266 0.0129999 5.14799C0.00433323 5.10466 0.0173332 5.07432 0.0519999 5.05699L1.495 4.38099C1.51233 4.37232 1.534 4.36799 1.56 4.36799C1.62933 4.36799 1.70733 4.46766 1.794 4.66699C1.88067 4.85766 1.924 5.10466 1.924 5.40799V8.44999C1.924 8.70999 1.94133 8.90499 1.976 9.03499C2.01933 9.15632 2.09733 9.23866 2.21 9.28199C2.33133 9.32532 2.51767 9.34699 2.769 9.34699C2.795 9.34699 2.808 9.37299 2.808 9.42499C2.808 9.47699 2.795 9.50299 2.769 9.50299C2.56967 9.50299 2.41367 9.49866 2.301 9.48999L1.625 9.47699L0.936 9.48999C0.823333 9.49866 0.667333 9.50299 0.468 9.50299ZM6.98943 13.078C6.96343 13.078 6.95043 13.052 6.95043 13C6.95043 12.948 6.96343 12.922 6.98943 12.922C7.2321 12.922 7.40976 12.896 7.52243 12.844C7.64376 12.8007 7.7261 12.7183 7.76943 12.597C7.81276 12.4757 7.83443 12.285 7.83443 12.025V5.88899C7.83443 5.56832 7.79976 5.33866 7.73043 5.19999C7.6611 5.06132 7.53543 4.99199 7.35343 4.99199C7.14543 4.99199 6.9071 5.05699 6.63843 5.18699H6.61243C6.57776 5.18699 6.5561 5.16966 6.54743 5.13499C6.5301 5.09166 6.53876 5.06132 6.57343 5.04399L7.91243 4.40699L8.01643 4.38099C8.14643 4.38099 8.25043 4.48066 8.32843 4.67999C8.40643 4.87932 8.44543 5.16532 8.44543 5.53799V12.025C8.44543 12.285 8.4801 12.4757 8.54943 12.597C8.61876 12.7183 8.74443 12.8007 8.92643 12.844C9.10843 12.896 9.39443 12.922 9.78443 12.922C9.80176 12.922 9.81043 12.948 9.81043 13C9.81043 13.052 9.80176 13.078 9.78443 13.078C9.48976 13.078 9.2601 13.0737 9.09543 13.065L8.15943 13.052L7.45743 13.065C7.34476 13.0737 7.18876 13.078 6.98943 13.078ZM9.88843 9.67199C9.55043 9.67199 9.25143 9.62432 8.99143 9.52899C8.7401 9.44232 8.4671 9.28199 8.17243 9.04799L8.28943 8.35899C8.56676 8.70566 8.8571 8.96999 9.16043 9.15199C9.47243 9.32532 9.8581 9.41199 10.3174 9.41199C10.6208 9.41199 10.8981 9.32099 11.1494 9.13899C11.4008 8.94832 11.5958 8.67966 11.7344 8.33299C11.8818 7.98632 11.9554 7.57899 11.9554 7.11099C11.9554 6.36566 11.7908 5.78499 11.4614 5.36899C11.1408 4.95299 10.7291 4.74499 10.2264 4.74499C9.86243 4.74499 9.5331 4.84466 9.23843 5.04399C8.94376 5.23466 8.62743 5.51632 8.28943 5.88899L8.18543 5.79799C8.62743 5.28666 9.0521 4.91399 9.45943 4.67999C9.86676 4.43732 10.2784 4.31599 10.6944 4.31599C11.0498 4.31599 11.3791 4.41132 11.6824 4.60199C11.9858 4.79266 12.2241 5.06999 12.3974 5.43399C12.5794 5.78932 12.6704 6.21399 12.6704 6.70799C12.6704 7.34932 12.5231 7.89532 12.2284 8.34599C11.9338 8.78799 11.5698 9.12166 11.1364 9.34699C10.7031 9.56366 10.2871 9.67199 9.88843 9.67199ZM15.5274 9.61999C14.9987 9.61999 14.5567 9.42932 14.2014 9.04799C13.846 8.65799 13.6684 8.11632 13.6684 7.42299C13.6684 6.79899 13.8157 6.25299 14.1104 5.78499C14.405 5.30832 14.7734 4.94432 15.2154 4.69299C15.666 4.44166 16.1037 4.31599 16.5284 4.31599C16.8317 4.31599 17.122 4.37666 17.3994 4.49799C17.6767 4.61932 17.8934 4.77532 18.0494 4.96599L17.6334 5.66799C17.6334 5.35599 17.486 5.09599 17.1914 4.88799C16.8967 4.67132 16.5674 4.56299 16.2034 4.56299C15.6747 4.56299 15.2414 4.79699 14.9034 5.26499C14.574 5.72432 14.4094 6.32232 14.4094 7.05899C14.4094 7.70899 14.5437 8.23766 14.8124 8.64499C15.081 9.05232 15.445 9.25599 15.9044 9.25599C16.251 9.25599 16.5804 9.14332 16.8924 8.91799C17.213 8.69266 17.5294 8.39799 17.8414 8.03399L17.9454 8.12499C17.564 8.57566 17.1827 8.93966 16.8014 9.21699C16.4287 9.48566 16.004 9.61999 15.5274 9.61999ZM17.9974 9.60699C17.9194 9.60699 17.837 9.49432 17.7504 9.26899C17.6724 9.04366 17.6334 8.77499 17.6334 8.46299V4.80999C17.772 4.74066 17.8717 4.67999 17.9324 4.62799C18.0017 4.57599 18.0624 4.49366 18.1144 4.38099C18.123 4.37232 18.1447 4.37232 18.1794 4.38099C18.214 4.38099 18.2314 4.38966 18.2314 4.40699V8.12499C18.2314 8.41966 18.266 8.63632 18.3354 8.77499C18.4134 8.90499 18.539 8.96999 18.7124 8.96999C18.799 8.96999 18.903 8.95266 19.0244 8.91799C19.1544 8.87466 19.293 8.82699 19.4404 8.77499H19.4664C19.501 8.77499 19.5227 8.79666 19.5314 8.83999C19.54 8.87466 19.527 8.89632 19.4924 8.90499L18.0494 9.59399L17.9974 9.60699ZM21.6181 13.156C21.2454 13.156 20.9118 13.1083 20.6171 13.013C20.3311 12.9177 20.1058 12.792 19.9411 12.636C19.7764 12.48 19.6941 12.311 19.6941 12.129C19.6941 12.0077 19.7288 11.9167 19.7981 11.856C19.8674 11.804 19.9454 11.778 20.0321 11.778C20.1274 11.778 20.2098 11.8083 20.2791 11.869C20.3571 11.9297 20.4611 12.0337 20.5911 12.181C20.7818 12.415 20.9768 12.6013 21.1761 12.74C21.3841 12.8787 21.6614 12.948 22.0081 12.948C22.5368 12.948 22.9268 12.7313 23.1781 12.298C23.4294 11.8647 23.5551 11.3273 23.5551 10.686C23.5551 9.16932 22.7014 8.41099 20.9941 8.41099C20.9594 8.41099 20.9378 8.38499 20.9291 8.33299C20.9204 8.28099 20.9421 8.25499 20.9941 8.25499C21.7828 8.25499 22.3374 8.08599 22.6581 7.74799C22.9874 7.40999 23.1521 6.93766 23.1521 6.33099C23.1521 5.77632 23.0264 5.34732 22.7751 5.04399C22.5324 4.73199 22.1554 4.57599 21.6441 4.57599C21.2021 4.57599 20.8381 4.70166 20.5521 4.95299C20.2661 5.20432 20.0451 5.60299 19.8891 6.14899C19.8891 6.15766 19.8718 6.16199 19.8371 6.16199C19.7678 6.16199 19.7374 6.14466 19.7461 6.10999L20.2271 4.21199C20.2271 4.19466 20.2444 4.18599 20.2791 4.18599C20.3051 4.18599 20.3311 4.19466 20.3571 4.21199C20.3831 4.22066 20.3918 4.22932 20.3831 4.23799C20.3658 4.30732 20.3571 4.35499 20.3571 4.38099C20.3571 4.46766 20.3788 4.53266 20.4221 4.57599C20.4741 4.61066 20.5261 4.62799 20.5781 4.62799C20.6301 4.62799 20.7688 4.59332 20.9941 4.52399C21.4101 4.38532 21.7698 4.31599 22.0731 4.31599C22.6364 4.31599 23.0741 4.48499 23.3861 4.82299C23.7068 5.15232 23.8671 5.56399 23.8671 6.05799C23.8671 6.58666 23.6981 7.07199 23.3601 7.51399C23.0308 7.94732 22.5888 8.22899 22.0341 8.35899L22.0731 8.25499L22.2811 8.24199C22.7144 8.24199 23.0871 8.35032 23.3991 8.56699C23.7111 8.77499 23.9494 9.05666 24.1141 9.41199C24.2788 9.75866 24.3611 10.127 24.3611 10.517C24.3611 11.0197 24.2441 11.4703 24.0101 11.869C23.7848 12.2677 23.4641 12.5797 23.0481 12.805C22.6321 13.039 22.1554 13.156 21.6181 13.156ZM27.1599 13.156C26.6486 13.156 26.2326 13.0607 25.9119 12.87C25.5999 12.6793 25.4439 12.4497 25.4439 12.181C25.4439 12.0597 25.4743 11.9687 25.5349 11.908C25.6043 11.8473 25.6823 11.817 25.7689 11.817C25.8643 11.817 25.9466 11.843 26.0159 11.895C26.0853 11.9557 26.1633 12.0467 26.2499 12.168C26.4319 12.3933 26.6183 12.5667 26.8089 12.688C26.9996 12.818 27.2769 12.883 27.6409 12.883C28.0916 12.883 28.4469 12.7313 28.7069 12.428C28.9756 12.1247 29.1099 11.557 29.1099 10.725V4.80999C29.2486 4.74066 29.3483 4.67999 29.4089 4.62799C29.4783 4.57599 29.5389 4.49366 29.5909 4.38099C29.5996 4.37232 29.6213 4.37232 29.6559 4.38099C29.6906 4.38099 29.7079 4.38966 29.7079 4.40699V10.413C29.7079 11.245 29.4826 11.908 29.0319 12.402C28.5813 12.9047 27.9573 13.156 27.1599 13.156ZM27.0039 9.61999C26.4753 9.61999 26.0333 9.42932 25.6779 9.04799C25.3226 8.65799 25.1449 8.11632 25.1449 7.42299C25.1449 6.79899 25.2923 6.25299 25.5869 5.78499C25.8816 5.30832 26.2499 4.94432 26.6919 4.69299C27.1426 4.44166 27.5803 4.31599 28.0049 4.31599C28.3083 4.31599 28.5986 4.37666 28.8759 4.49799C29.1533 4.61932 29.3699 4.77532 29.5259 4.96599L29.1099 5.66799C29.1099 5.35599 28.9626 5.09599 28.6679 4.88799C28.3733 4.67132 28.0439 4.56299 27.6799 4.56299C27.1513 4.56299 26.7179 4.79699 26.3799 5.26499C26.0506 5.72432 25.8859 6.32232 25.8859 7.05899C25.8859 7.70899 26.0203 8.23766 26.2889 8.64499C26.5576 9.05232 26.9216 9.25599 27.3809 9.25599C27.7276 9.25599 28.0569 9.14332 28.3689 8.91799C28.6896 8.69266 29.0059 8.39799 29.3179 8.03399L29.4219 8.12499C29.0406 8.57566 28.6593 8.93966 28.2779 9.21699C27.9053 9.48566 27.4806 9.61999 27.0039 9.61999ZM34.6199 9.50299C34.5939 9.50299 34.5809 9.47699 34.5809 9.42499C34.5809 9.37299 34.5939 9.34699 34.6199 9.34699C34.8712 9.34699 35.0532 9.32532 35.1659 9.28199C35.2872 9.23866 35.3696 9.15632 35.4129 9.03499C35.4562 8.90499 35.4779 8.70999 35.4779 8.44999V5.99299C35.4779 5.63766 35.4476 5.38632 35.3869 5.23899C35.3349 5.08299 35.2396 5.00499 35.1009 5.00499C35.0056 5.00499 34.8496 5.04832 34.6329 5.13499H34.6069C34.5722 5.13499 34.5462 5.11332 34.5289 5.06999C34.5202 5.02666 34.5332 5.00066 34.5679 4.99199L35.9329 4.38099L35.9849 4.36799C36.0022 4.36799 36.0239 4.37666 36.0499 4.39399C36.0759 4.41132 36.0889 4.43299 36.0889 4.45899V8.44999C36.0889 8.70999 36.1062 8.90499 36.1409 9.03499C36.1842 9.15632 36.2622 9.23866 36.3749 9.28199C36.4962 9.32532 36.6869 9.34699 36.9469 9.34699C36.9642 9.34699 36.9729 9.37299 36.9729 9.42499C36.9729 9.47699 36.9642 9.50299 36.9469 9.50299C36.7302 9.50299 36.5612 9.49866 36.4399 9.48999L35.8029 9.47699L35.1139 9.48999C34.9926 9.49866 34.8279 9.50299 34.6199 9.50299ZM31.1229 9.50299C31.0969 9.50299 31.0839 9.47699 31.0839 9.42499C31.0839 9.37299 31.0969 9.34699 31.1229 9.34699C31.3829 9.34699 31.5692 9.32532 31.6819 9.28199C31.8032 9.23866 31.8812 9.15632 31.9159 9.03499C31.9592 8.90499 31.9809 8.70999 31.9809 8.44999V5.99299C31.9809 5.63766 31.9506 5.38632 31.8899 5.23899C31.8379 5.08299 31.7426 5.00499 31.6039 5.00499C31.5086 5.00499 31.3526 5.04832 31.1359 5.13499H31.1099C31.0752 5.13499 31.0492 5.11332 31.0319 5.06999C31.0232 5.02666 31.0362 5.00066 31.0709 4.99199L32.4359 4.38099L32.4879 4.36799C32.5052 4.36799 32.5269 4.37666 32.5529 4.39399C32.5789 4.41132 32.5919 4.43299 32.5919 4.45899V8.44999C32.5919 8.70999 32.6092 8.90499 32.6439 9.03499C32.6872 9.15632 32.7652 9.23866 32.8779 9.28199C32.9992 9.32532 33.1899 9.34699 33.4499 9.34699C33.4672 9.34699 33.4759 9.37299 33.4759 9.42499C33.4759 9.47699 33.4672 9.50299 33.4499 9.50299C33.2332 9.50299 33.0642 9.49866 32.9429 9.48999L32.3059 9.47699L31.6299 9.48999C31.5086 9.49866 31.3396 9.50299 31.1229 9.50299ZM32.2669 6.87699H35.7639V7.11099H32.2669V6.87699ZM40.2604 9.67199C39.7664 9.67199 39.3287 9.55066 38.9474 9.30799C38.5661 9.05666 38.2714 8.72299 38.0634 8.30699C37.8554 7.88232 37.7514 7.42299 37.7514 6.92899C37.7514 6.36566 37.8857 5.88899 38.1544 5.49899C38.4317 5.10032 38.7784 4.80566 39.1944 4.61499C39.6191 4.41566 40.0524 4.31599 40.4944 4.31599C40.9971 4.31599 41.4347 4.44166 41.8074 4.69299C42.1887 4.94432 42.4791 5.27799 42.6784 5.69399C42.8864 6.10132 42.9904 6.53466 42.9904 6.99399C42.9904 7.53132 42.8647 8.00366 42.6134 8.41099C42.3707 8.81832 42.0414 9.13032 41.6254 9.34699C41.2094 9.56366 40.7544 9.67199 40.2604 9.67199ZM40.6244 9.43799C41.1271 9.43799 41.5214 9.26899 41.8074 8.93099C42.0934 8.59299 42.2364 8.05999 42.2364 7.33199C42.2364 6.81199 42.1454 6.34399 41.9634 5.92799C41.7814 5.50332 41.5257 5.16966 41.1964 4.92699C40.8671 4.68432 40.4901 4.56299 40.0654 4.56299C39.5714 4.56299 39.1857 4.73632 38.9084 5.08299C38.6311 5.42099 38.4924 5.91066 38.4924 6.55199C38.4924 7.07199 38.5834 7.55299 38.7654 7.99499C38.9474 8.42832 39.1987 8.77932 39.5194 9.04799C39.8401 9.30799 40.2084 9.43799 40.6244 9.43799ZM46.2997 4.47199C46.7677 4.47199 47.188 4.58466 47.5607 4.80999C47.942 5.03532 48.241 5.34732 48.4577 5.74599C48.6744 6.14466 48.7827 6.59532 48.7827 7.09799C48.7827 7.57466 48.6874 8.00799 48.4967 8.39799C48.306 8.78799 48.0244 9.09999 47.6517 9.33399C47.279 9.55932 46.8327 9.67199 46.3127 9.67199C45.758 9.67199 45.3117 9.53332 44.9737 9.25599C44.6357 8.96999 44.3844 8.51932 44.2197 7.90399C44.055 7.28866 43.9727 6.47399 43.9727 5.45999C43.9727 3.33666 44.263 1.91099 44.8437 1.18299C45.4244 0.446324 46.1004 0.0779904 46.8717 0.0779904C47.903 0.0779904 48.4187 0.571991 48.4187 1.55999C48.4187 2.03666 48.2974 2.50032 48.0547 2.95099C47.8207 3.40166 47.5044 3.78732 47.1057 4.10799C46.7157 4.42866 46.2997 4.64532 45.8577 4.75799L46.2997 4.47199ZM46.6637 9.42499C47.1837 9.42499 47.5737 9.26466 47.8337 8.94399C48.0937 8.62332 48.2237 8.15099 48.2237 7.52699C48.2237 6.66899 47.9594 6.00599 47.4307 5.53799C46.902 5.06999 46.1567 4.83599 45.1947 4.83599C44.8394 4.83599 44.5794 4.84466 44.4147 4.86199V4.58899C44.5794 4.61499 44.835 4.62799 45.1817 4.62799C45.693 4.62799 46.1524 4.50666 46.5597 4.26399C46.967 4.01266 47.2834 3.68332 47.5087 3.27599C47.734 2.85999 47.8467 2.41799 47.8467 1.94999C47.8467 1.46466 47.7384 1.06599 47.5217 0.75399C47.3137 0.433324 47.0017 0.27299 46.5857 0.27299C45.303 0.27299 44.6617 1.89366 44.6617 5.13499C44.6617 6.22699 44.7354 7.08932 44.8827 7.72199C45.03 8.34599 45.2467 8.78799 45.5327 9.04799C45.8274 9.29932 46.2044 9.42499 46.6637 9.42499ZM51.6202 9.61999C51.0915 9.61999 50.6495 9.42932 50.2942 9.04799C49.9388 8.65799 49.7612 8.11632 49.7612 7.42299C49.7612 6.79899 49.9085 6.25299 50.2032 5.78499C50.4978 5.30832 50.8662 4.94432 51.3082 4.69299C51.7588 4.44166 52.1965 4.31599 52.6212 4.31599C52.9245 4.31599 53.2148 4.37666 53.4922 4.49799C53.7695 4.61932 53.9862 4.77532 54.1422 4.96599L53.7262 5.66799C53.7262 5.35599 53.5788 5.09599 53.2842 4.88799C52.9895 4.67132 52.6602 4.56299 52.2962 4.56299C51.7675 4.56299 51.3342 4.79699 50.9962 5.26499C50.6668 5.72432 50.5022 6.32232 50.5022 7.05899C50.5022 7.70899 50.6365 8.23766 50.9052 8.64499C51.1738 9.05232 51.5378 9.25599 51.9972 9.25599C52.3438 9.25599 52.6732 9.14332 52.9852 8.91799C53.3058 8.69266 53.6222 8.39799 53.9342 8.03399L54.0382 8.12499C53.6568 8.57566 53.2755 8.93966 52.8942 9.21699C52.5215 9.48566 52.0968 9.61999 51.6202 9.61999ZM54.0902 9.60699C54.0122 9.60699 53.9298 9.49432 53.8432 9.26899C53.7652 9.04366 53.7262 8.77499 53.7262 8.46299V4.80999C53.8648 4.74066 53.9645 4.67999 54.0252 4.62799C54.0945 4.57599 54.1552 4.49366 54.2072 4.38099C54.2158 4.37232 54.2375 4.37232 54.2722 4.38099C54.3068 4.38099 54.3242 4.38966 54.3242 4.40699V8.12499C54.3242 8.41966 54.3588 8.63632 54.4282 8.77499C54.5062 8.90499 54.6318 8.96999 54.8052 8.96999C54.8918 8.96999 54.9958 8.95266 55.1172 8.91799C55.2472 8.87466 55.3858 8.82699 55.5332 8.77499H55.5592C55.5938 8.77499 55.6155 8.79666 55.6242 8.83999C55.6328 8.87466 55.6198 8.89632 55.5852 8.90499L54.1422 9.59399L54.0902 9.60699ZM62.9332 9.50299C62.9159 9.50299 62.9072 9.47699 62.9072 9.42499C62.9072 9.37299 62.9159 9.34699 62.9332 9.34699C63.1845 9.34699 63.3665 9.32532 63.4792 9.28199C63.6005 9.23866 63.6829 9.15632 63.7262 9.03499C63.7695 8.90499 63.7912 8.70999 63.7912 8.44999V6.33099C63.7912 5.80232 63.6959 5.41232 63.5052 5.16099C63.3232 4.90966 63.0329 4.78399 62.6342 4.78399C62.3222 4.78399 62.0015 4.89666 61.6722 5.12199C61.3429 5.33866 61.0525 5.63332 60.8012 6.00599L60.7492 5.84999C61.1392 5.32132 61.5119 4.93999 61.8672 4.70599C62.2225 4.47199 62.5952 4.35499 62.9852 4.35499C63.4445 4.35499 63.7955 4.48499 64.0382 4.74499C64.2809 5.00499 64.4022 5.39932 64.4022 5.92799V8.44999C64.4022 8.70999 64.4195 8.90499 64.4542 9.03499C64.4975 9.15632 64.5755 9.23866 64.6882 9.28199C64.8095 9.32532 64.9959 9.34699 65.2472 9.34699C65.2732 9.34699 65.2862 9.37299 65.2862 9.42499C65.2862 9.47699 65.2732 9.50299 65.2472 9.50299C65.0479 9.50299 64.8919 9.49866 64.7792 9.48999L64.0902 9.47699L63.4142 9.48999C63.2929 9.49866 63.1325 9.50299 62.9332 9.50299ZM59.5922 9.50299C59.5662 9.50299 59.5532 9.47699 59.5532 9.42499C59.5532 9.37299 59.5662 9.34699 59.5922 9.34699C59.8435 9.34699 60.0255 9.32532 60.1382 9.28199C60.2509 9.23866 60.3289 9.15632 60.3722 9.03499C60.4155 8.90499 60.4372 8.70999 60.4372 8.44999V6.33099C60.4372 5.80232 60.3419 5.41232 60.1512 5.16099C59.9692 4.90966 59.6832 4.78399 59.2932 4.78399C58.9725 4.78399 58.6475 4.89666 58.3182 5.12199C57.9975 5.33866 57.7115 5.63332 57.4602 6.00599L57.4082 5.84999C57.7895 5.32132 58.1579 4.93999 58.5132 4.70599C58.8772 4.47199 59.2499 4.35499 59.6312 4.35499C60.0905 4.35499 60.4415 4.48499 60.6842 4.74499C60.9269 5.00499 61.0482 5.39932 61.0482 5.92799V8.44999C61.0482 8.70999 61.0699 8.90499 61.1132 9.03499C61.1565 9.15632 61.2345 9.23866 61.3472 9.28199C61.4685 9.32532 61.6549 9.34699 61.9062 9.34699C61.9235 9.34699 61.9322 9.37299 61.9322 9.42499C61.9322 9.47699 61.9235 9.50299 61.9062 9.50299C61.7069 9.50299 61.5465 9.49866 61.4252 9.48999L60.7492 9.47699L60.0602 9.48999C59.9475 9.49866 59.7915 9.50299 59.5922 9.50299ZM56.2512 9.50299C56.2252 9.50299 56.2122 9.47699 56.2122 9.42499C56.2122 9.37299 56.2252 9.34699 56.2512 9.34699C56.5025 9.34699 56.6845 9.32532 56.7972 9.28199C56.9099 9.23866 56.9879 9.15632 57.0312 9.03499C57.0745 8.90499 57.0962 8.70999 57.0962 8.44999V5.84999C57.0962 5.54666 57.0615 5.32999 56.9922 5.19999C56.9229 5.06999 56.8015 5.00499 56.6282 5.00499C56.4895 5.00499 56.2469 5.06999 55.9002 5.19999H55.8742C55.8395 5.19999 55.8135 5.18266 55.7962 5.14799C55.7875 5.10466 55.8005 5.07432 55.8352 5.05699L57.2782 4.38099C57.2955 4.37232 57.3172 4.36799 57.3432 4.36799C57.4125 4.36799 57.4905 4.46766 57.5772 4.66699C57.6639 4.85766 57.7072 5.10466 57.7072 5.40799V8.44999C57.7072 8.70999 57.7245 8.90499 57.7592 9.03499C57.8025 9.15632 57.8805 9.23866 57.9932 9.28199C58.1145 9.32532 58.3009 9.34699 58.5522 9.34699C58.5782 9.34699 58.5912 9.37299 58.5912 9.42499C58.5912 9.47699 58.5782 9.50299 58.5522 9.50299C58.3529 9.50299 58.1969 9.49866 58.0842 9.48999L57.4082 9.47699L56.7192 9.48999C56.6065 9.49866 56.4505 9.50299 56.2512 9.50299ZM68.1302 9.67199C67.6015 9.67199 67.1985 9.56799 66.9212 9.35999C66.6525 9.14332 66.5182 8.83566 66.5182 8.43699V5.99299C66.5182 5.63766 66.4878 5.38632 66.4272 5.23899C66.3752 5.08299 66.2798 5.00499 66.1412 5.00499C66.0458 5.00499 65.8898 5.04832 65.6732 5.13499H65.6472C65.6125 5.13499 65.5865 5.11332 65.5692 5.06999C65.5605 5.02666 65.5735 5.00066 65.6082 4.99199L66.9732 4.38099L67.0252 4.36799C67.0425 4.36799 67.0642 4.37666 67.0902 4.39399C67.1162 4.41132 67.1292 4.43299 67.1292 4.45899V8.16399C67.1292 9.05666 67.5235 9.50299 68.3122 9.50299C69.0922 9.50299 69.4822 9.07832 69.4822 8.22899C69.4822 7.79566 69.3652 7.44899 69.1312 7.18899C68.8972 6.92032 68.5245 6.78599 68.0132 6.78599C67.6232 6.78599 67.2722 6.86399 66.9602 7.01999L66.8822 6.87699C67.3415 6.66899 67.8658 6.56499 68.4552 6.56499C69.6078 6.56499 70.1842 7.02432 70.1842 7.94299C70.1842 8.48899 69.9978 8.91366 69.6252 9.21699C69.2612 9.52032 68.7628 9.67199 68.1302 9.67199ZM76.4532 9.67199C75.7252 9.67199 75.1402 9.40332 74.6982 8.86599C74.2562 8.31999 74.0352 7.41866 74.0352 6.16199C74.0352 4.73199 74.3169 3.58366 74.8802 2.71699C75.4435 1.84166 76.2712 1.29999 77.3632 1.09199C77.7705 1.01399 78.0522 0.94899 78.2082 0.89699C78.3729 0.836324 78.4899 0.749657 78.5592 0.63699C78.6372 0.524323 78.7152 0.329323 78.7932 0.05199C78.8019 0.0173238 78.8279 0.00432392 78.8712 0.0129905C78.9145 0.021657 78.9319 0.0433237 78.9232 0.0779904C78.8365 0.433324 78.7932 0.619657 78.7932 0.63699C78.6892 1.07032 78.5939 1.33032 78.5072 1.41699C78.4205 1.49499 78.2169 1.55999 77.8962 1.61199C77.5755 1.65532 77.2852 1.70299 77.0252 1.75499C76.2799 1.88499 75.7555 2.06266 75.4522 2.28799C75.1489 2.50466 74.9495 2.87732 74.8542 3.40599C74.7589 3.93466 74.7112 4.83166 74.7112 6.09699L74.5812 6.17499C74.7979 5.57699 75.1402 5.14366 75.6082 4.87499C76.0849 4.60632 76.5615 4.47199 77.0382 4.47199C77.5149 4.47199 77.9135 4.59766 78.2342 4.84899C78.5549 5.10032 78.7889 5.42099 78.9362 5.81099C79.0922 6.19232 79.1702 6.58666 79.1702 6.99399C79.1702 7.52266 79.0489 7.99066 78.8062 8.39799C78.5635 8.80532 78.2342 9.12166 77.8182 9.34699C77.4022 9.56366 76.9472 9.67199 76.4532 9.67199ZM76.8302 9.43799C77.3242 9.43799 77.7142 9.26899 78.0002 8.93099C78.2862 8.58432 78.4292 8.06432 78.4292 7.37099C78.4292 6.86832 78.3469 6.41766 78.1822 6.01899C78.0175 5.62032 77.7965 5.30832 77.5192 5.08299C77.2419 4.85766 76.9385 4.74499 76.6092 4.74499C76.2972 4.74499 76.0025 4.84899 75.7252 5.05699C75.4479 5.25632 75.2225 5.52066 75.0492 5.84999C74.8845 6.17932 74.8022 6.52166 74.8022 6.87699C74.8022 7.61366 74.9799 8.22466 75.3352 8.70999C75.6992 9.19532 76.1975 9.43799 76.8302 9.43799ZM82.6113 9.38599L82.6243 9.67199L80.6093 5.56399C80.41 5.18266 80.2583 4.93566 80.1543 4.82299C80.0503 4.70166 79.916 4.64099 79.7513 4.64099C79.734 4.64099 79.7253 4.61499 79.7253 4.56299C79.7253 4.51099 79.734 4.48499 79.7513 4.48499C79.9333 4.48499 80.0677 4.48932 80.1543 4.49799L80.5573 4.51099L81.3633 4.49799C81.4847 4.48932 81.6537 4.48499 81.8703 4.48499C81.8877 4.48499 81.8963 4.51099 81.8963 4.56299C81.8963 4.61499 81.8877 4.64099 81.8703 4.64099C81.3503 4.64099 81.0903 4.74499 81.0903 4.95299C81.0903 5.01366 81.1077 5.07866 81.1423 5.14799L82.9623 8.87899L82.6763 9.30799L84.0153 5.58999C84.0847 5.38199 84.1193 5.22599 84.1193 5.12199C84.1193 4.93999 84.037 4.81432 83.8723 4.74499C83.7163 4.67566 83.4477 4.64099 83.0663 4.64099C83.049 4.64099 83.0403 4.61499 83.0403 4.56299C83.0403 4.51099 83.049 4.48499 83.0663 4.48499C83.3003 4.48499 83.478 4.48932 83.5993 4.49799L84.3793 4.51099L84.8343 4.49799C84.9123 4.48932 85.0423 4.48499 85.2243 4.48499C85.2503 4.48499 85.2633 4.51099 85.2633 4.56299C85.2633 4.61499 85.2503 4.64099 85.2243 4.64099C85.0163 4.64099 84.8387 4.70599 84.6913 4.83599C84.5527 4.96599 84.4183 5.19999 84.2883 5.53799L82.1433 11.063C81.892 11.713 81.723 12.246 81.6363 12.662C81.593 12.844 81.554 12.9567 81.5193 13C81.4847 13.052 81.4197 13.078 81.3243 13.078H79.6733C79.656 13.078 79.6473 13.052 79.6473 13C79.6473 12.948 79.656 12.922 79.6733 12.922C80.1587 12.922 80.5833 12.7833 80.9473 12.506C81.3113 12.2373 81.6493 11.7347 81.9613 10.998L82.6113 9.38599ZM87.8181 13.156C87.3068 13.156 86.8908 13.0607 86.5701 12.87C86.2581 12.6793 86.1021 12.4497 86.1021 12.181C86.1021 12.0597 86.1325 11.9687 86.1931 11.908C86.2625 11.8473 86.3405 11.817 86.4271 11.817C86.5225 11.817 86.6048 11.843 86.6741 11.895C86.7435 11.9557 86.8215 12.0467 86.9081 12.168C87.0901 12.3933 87.2765 12.5667 87.4671 12.688C87.6578 12.818 87.9351 12.883 88.2991 12.883C88.7498 12.883 89.1051 12.7313 89.3651 12.428C89.6338 12.1247 89.7681 11.557 89.7681 10.725V4.80999C89.9068 4.74066 90.0065 4.67999 90.0671 4.62799C90.1365 4.57599 90.1971 4.49366 90.2491 4.38099C90.2578 4.37232 90.2795 4.37232 90.3141 4.38099C90.3488 4.38099 90.3661 4.38966 90.3661 4.40699V10.413C90.3661 11.245 90.1408 11.908 89.6901 12.402C89.2395 12.9047 88.6155 13.156 87.8181 13.156ZM87.6621 9.61999C87.1335 9.61999 86.6915 9.42932 86.3361 9.04799C85.9808 8.65799 85.8031 8.11632 85.8031 7.42299C85.8031 6.79899 85.9505 6.25299 86.2451 5.78499C86.5398 5.30832 86.9081 4.94432 87.3501 4.69299C87.8008 4.44166 88.2385 4.31599 88.6631 4.31599C88.9665 4.31599 89.2568 4.37666 89.5341 4.49799C89.8115 4.61932 90.0281 4.77532 90.1841 4.96599L89.7681 5.66799C89.7681 5.35599 89.6208 5.09599 89.3261 4.88799C89.0315 4.67132 88.7021 4.56299 88.3381 4.56299C87.8095 4.56299 87.3761 4.79699 87.0381 5.26499C86.7088 5.72432 86.5441 6.32232 86.5441 7.05899C86.5441 7.70899 86.6785 8.23766 86.9471 8.64499C87.2158 9.05232 87.5798 9.25599 88.0391 9.25599C88.3858 9.25599 88.7151 9.14332 89.0271 8.91799C89.3478 8.69266 89.6641 8.39799 89.9761 8.03399L90.0801 8.12499C89.6988 8.57566 89.3175 8.93966 88.9361 9.21699C88.5635 9.48566 88.1388 9.61999 87.6621 9.61999ZM94.1601 9.65899C93.6661 9.65899 93.2458 9.54199 92.8991 9.30799C92.5525 9.07399 92.2881 8.77066 92.1061 8.39799C91.9328 8.01666 91.8461 7.60499 91.8461 7.16299C91.8461 6.65166 91.9675 6.18366 92.2101 5.75899C92.4528 5.32566 92.7778 4.98766 93.1851 4.74499C93.6011 4.49366 94.0518 4.36799 94.5371 4.36799C95.0225 4.36799 95.3865 4.50232 95.6291 4.77099C95.8805 5.03099 96.0061 5.39066 96.0061 5.84999C96.0061 5.97132 95.9931 6.05799 95.9671 6.10999C95.9498 6.15332 95.9108 6.17499 95.8501 6.17499H95.2391C95.2478 6.11432 95.2521 6.03199 95.2521 5.92799C95.2521 5.49466 95.1481 5.16966 94.9401 4.95299C94.7408 4.73632 94.4678 4.62799 94.1211 4.62799C93.6358 4.62799 93.2588 4.80999 92.9901 5.17399C92.7215 5.53799 92.5871 6.04499 92.5871 6.69499C92.5871 7.44899 92.7648 8.06432 93.1201 8.54099C93.4755 9.00899 93.9738 9.24299 94.6151 9.24299C94.8838 9.24299 95.1135 9.20832 95.3041 9.13899C95.4948 9.06099 95.7028 8.94832 95.9281 8.80099H95.9411C95.9671 8.80099 95.9888 8.81832 96.0061 8.85299C96.0321 8.87899 96.0365 8.90499 96.0191 8.93099C95.4471 9.41632 94.8275 9.65899 94.1601 9.65899ZM92.4051 6.03199L95.3691 5.97999V6.17499L92.4181 6.18799L92.4051 6.03199ZM103.771 9.34699C103.788 9.34699 103.797 9.37299 103.797 9.42499C103.797 9.47699 103.788 9.50299 103.771 9.50299C103.545 9.50299 103.368 9.49866 103.238 9.48999L102.614 9.47699L102.016 9.48999C101.912 9.49866 101.769 9.50299 101.587 9.50299C101.569 9.50299 101.561 9.47699 101.561 9.42499C101.561 9.37299 101.569 9.34699 101.587 9.34699C101.855 9.34699 102.042 9.30799 102.146 9.22999C102.258 9.15199 102.315 9.00032 102.315 8.77499C102.315 8.73166 102.306 8.62332 102.289 8.44999L101.847 5.35599L102.289 4.77099L100.274 9.50299C100.265 9.53766 100.23 9.55499 100.17 9.55499C100.126 9.55499 100.092 9.53766 100.066 9.50299L98.0767 5.52499L98.2327 5.38199L97.9077 8.15099C97.8903 8.30699 97.8817 8.41099 97.8817 8.46299C97.8817 8.77499 97.951 9.00032 98.0897 9.13899C98.2283 9.27766 98.4407 9.34699 98.7267 9.34699C98.7527 9.34699 98.7657 9.37299 98.7657 9.42499C98.7657 9.47699 98.7527 9.50299 98.7267 9.50299C98.5447 9.50299 98.406 9.49866 98.3107 9.48999L97.7777 9.47699L97.2317 9.48999C97.1277 9.49866 96.9803 9.50299 96.7897 9.50299C96.7637 9.50299 96.7507 9.47699 96.7507 9.42499C96.7507 9.37299 96.7637 9.34699 96.7897 9.34699C97.093 9.34699 97.301 9.26032 97.4137 9.08699C97.535 8.91366 97.613 8.60166 97.6477 8.15099L97.9857 4.40699C97.9857 4.36366 98.029 4.34199 98.1157 4.34199C98.1763 4.34199 98.211 4.35066 98.2197 4.36799L100.43 8.77499L100.248 8.89199L102.172 4.39399C102.189 4.35066 102.228 4.32899 102.289 4.32899C102.323 4.32899 102.354 4.33766 102.38 4.35499C102.414 4.37232 102.436 4.39399 102.445 4.41999L102.9 8.44999C102.934 8.73599 102.969 8.93532 103.004 9.04799C103.047 9.16066 103.121 9.23866 103.225 9.28199C103.337 9.32532 103.519 9.34699 103.771 9.34699ZM109.802 4.47199C110.27 4.47199 110.69 4.58466 111.063 4.80999C111.444 5.03532 111.743 5.34732 111.96 5.74599C112.176 6.14466 112.285 6.59532 112.285 7.09799C112.285 7.57466 112.189 8.00799 111.999 8.39799C111.808 8.78799 111.526 9.09999 111.154 9.33399C110.781 9.55932 110.335 9.67199 109.815 9.67199C109.26 9.67199 108.814 9.53332 108.476 9.25599C108.138 8.96999 107.886 8.51932 107.722 7.90399C107.557 7.28866 107.475 6.47399 107.475 5.45999C107.475 3.33666 107.765 1.91099 108.346 1.18299C108.926 0.446324 109.602 0.0779904 110.374 0.0779904C111.405 0.0779904 111.921 0.571991 111.921 1.55999C111.921 2.03666 111.799 2.50032 111.557 2.95099C111.323 3.40166 111.006 3.78732 110.608 4.10799C110.218 4.42866 109.802 4.64532 109.36 4.75799L109.802 4.47199ZM110.166 9.42499C110.686 9.42499 111.076 9.26466 111.336 8.94399C111.596 8.62332 111.726 8.15099 111.726 7.52699C111.726 6.66899 111.461 6.00599 110.933 5.53799C110.404 5.06999 109.659 4.83599 108.697 4.83599C108.341 4.83599 108.081 4.84466 107.917 4.86199V4.58899C108.081 4.61499 108.337 4.62799 108.684 4.62799C109.195 4.62799 109.654 4.50666 110.062 4.26399C110.469 4.01266 110.785 3.68332 111.011 3.27599C111.236 2.85999 111.349 2.41799 111.349 1.94999C111.349 1.46466 111.24 1.06599 111.024 0.75399C110.816 0.433324 110.504 0.27299 110.088 0.27299C108.805 0.27299 108.164 1.89366 108.164 5.13499C108.164 6.22699 108.237 7.08932 108.385 7.72199C108.532 8.34599 108.749 8.78799 109.035 9.04799C109.329 9.29932 109.706 9.42499 110.166 9.42499ZM117.233 4.40699C116.982 4.40699 116.782 4.31599 116.635 4.13399C116.496 3.94332 116.427 3.66599 116.427 3.30199C116.427 2.93799 116.501 2.59132 116.648 2.26199C116.804 1.93266 117.029 1.60332 117.324 1.27399C117.333 1.26532 117.346 1.26099 117.363 1.26099C117.389 1.26099 117.411 1.27399 117.428 1.29999C117.445 1.32599 117.445 1.34766 117.428 1.36499C117.246 1.63366 117.125 1.88499 117.064 2.11899C117.003 2.34432 116.973 2.60432 116.973 2.89899C116.973 3.13299 117.008 3.32366 117.077 3.47099C117.146 3.61832 117.237 3.74832 117.35 3.86099L116.856 3.95199C116.847 3.80466 116.882 3.69199 116.96 3.61399C117.047 3.53599 117.159 3.49699 117.298 3.49699C117.445 3.49699 117.558 3.54032 117.636 3.62699C117.723 3.70499 117.766 3.81332 117.766 3.95199C117.766 4.25532 117.588 4.40699 117.233 4.40699ZM119.053 4.40699C118.802 4.40699 118.602 4.31599 118.455 4.13399C118.316 3.94332 118.247 3.66599 118.247 3.30199C118.247 2.93799 118.321 2.59132 118.468 2.26199C118.624 1.93266 118.849 1.60332 119.144 1.27399C119.153 1.26532 119.166 1.26099 119.183 1.26099C119.209 1.26099 119.231 1.27399 119.248 1.29999C119.265 1.32599 119.265 1.34766 119.248 1.36499C119.066 1.63366 118.945 1.88499 118.884 2.11899C118.823 2.34432 118.793 2.60432 118.793 2.89899C118.793 3.13299 118.828 3.32366 118.897 3.47099C118.966 3.61832 119.057 3.74832 119.17 3.86099L118.676 3.95199C118.667 3.80466 118.702 3.69199 118.78 3.61399C118.867 3.53599 118.979 3.49699 119.118 3.49699C119.265 3.49699 119.378 3.54032 119.456 3.62699C119.543 3.70499 119.586 3.81332 119.586 3.95199C119.586 4.25532 119.408 4.40699 119.053 4.40699ZM122.9 5.53799H126.267L126.358 5.77199H122.783L122.9 5.53799ZM129.205 9.34699C129.24 9.34699 129.257 9.37299 129.257 9.42499C129.257 9.47699 129.24 9.50299 129.205 9.50299C129.049 9.50299 128.798 9.49432 128.451 9.47699C128.122 9.45966 127.879 9.45099 127.723 9.45099C127.541 9.45099 127.303 9.45966 127.008 9.47699C126.731 9.49432 126.523 9.50299 126.384 9.50299C126.35 9.50299 126.332 9.47699 126.332 9.42499C126.332 9.37299 126.35 9.34699 126.384 9.34699C126.74 9.34699 126.995 9.31666 127.151 9.25599C127.307 9.18666 127.385 9.07399 127.385 8.91799C127.385 8.79666 127.338 8.62766 127.242 8.41099L124.304 2.09299L124.551 1.87199L122.042 7.90399C121.921 8.19866 121.86 8.44132 121.86 8.63199C121.86 8.88332 121.964 9.06532 122.172 9.17799C122.38 9.29066 122.705 9.34699 123.147 9.34699C123.191 9.34699 123.212 9.37299 123.212 9.42499C123.212 9.47699 123.191 9.50299 123.147 9.50299C122.991 9.50299 122.766 9.49432 122.471 9.47699C122.142 9.45966 121.856 9.45099 121.613 9.45099C121.397 9.45099 121.141 9.45966 120.846 9.47699C120.586 9.49432 120.374 9.50299 120.209 9.50299C120.166 9.50299 120.144 9.47699 120.144 9.42499C120.144 9.37299 120.166 9.34699 120.209 9.34699C120.452 9.34699 120.656 9.30366 120.82 9.21699C120.994 9.13032 121.154 8.97432 121.301 8.74899C121.457 8.52366 121.622 8.20299 121.795 7.78699L124.512 1.24799C124.53 1.22199 124.556 1.20899 124.59 1.20899C124.634 1.20899 124.66 1.22199 124.668 1.24799L127.684 7.72199C127.884 8.16399 128.061 8.50199 128.217 8.73599C128.373 8.96132 128.525 9.12166 128.672 9.21699C128.828 9.30366 129.006 9.34699 129.205 9.34699ZM136.98 1.37799C137.006 1.37799 137.019 1.40399 137.019 1.45599C137.019 1.50799 137.006 1.53399 136.98 1.53399C136.686 1.53399 136.439 1.59899 136.239 1.72899C136.049 1.85032 135.88 2.08432 135.732 2.43099L132.872 9.48999C132.864 9.52466 132.816 9.54199 132.729 9.54199C132.66 9.54199 132.612 9.52466 132.586 9.48999L129.375 2.45699C129.228 2.11899 129.068 1.88066 128.894 1.74199C128.73 1.60332 128.513 1.53399 128.244 1.53399C128.218 1.53399 128.205 1.50799 128.205 1.45599C128.205 1.40399 128.218 1.37799 128.244 1.37799L128.803 1.39099C129.046 1.40832 129.228 1.41699 129.349 1.41699C129.601 1.41699 129.9 1.40832 130.246 1.39099L130.805 1.37799C130.831 1.37799 130.844 1.40399 130.844 1.45599C130.844 1.50799 130.831 1.53399 130.805 1.53399C130.537 1.53399 130.333 1.56432 130.194 1.62499C130.064 1.68566 129.999 1.78966 129.999 1.93699C129.999 2.04099 130.038 2.17099 130.116 2.32699L133.028 8.76199L132.677 9.24299L135.459 2.35299C135.52 2.20566 135.55 2.07999 135.55 1.97599C135.55 1.81999 135.468 1.70732 135.303 1.63799C135.147 1.56866 134.887 1.53399 134.523 1.53399C134.497 1.53399 134.484 1.50799 134.484 1.45599C134.484 1.40399 134.497 1.37799 134.523 1.37799L135.043 1.39099C135.338 1.40832 135.598 1.41699 135.823 1.41699C136.005 1.41699 136.209 1.40832 136.434 1.39099L136.98 1.37799ZM138.735 2.95099C138.735 3.29766 138.818 3.59666 138.982 3.84799C139.147 4.09932 139.346 4.31166 139.58 4.48499C139.823 4.64966 140.157 4.85766 140.581 5.10899C141.032 5.37766 141.379 5.60299 141.621 5.78499C141.873 5.95832 142.085 6.18366 142.258 6.46099C142.44 6.73832 142.531 7.07199 142.531 7.46199C142.531 7.86932 142.432 8.24199 142.232 8.57999C142.033 8.90932 141.734 9.17366 141.335 9.37299C140.945 9.56366 140.464 9.65899 139.892 9.65899C139.589 9.65899 139.299 9.62432 139.021 9.55499C138.753 9.49432 138.454 9.38166 138.124 9.21699C138.081 9.19099 138.051 9.16066 138.033 9.12599C138.025 9.09132 138.016 9.03932 138.007 8.96999L137.812 7.27999V7.26699C137.812 7.23232 137.834 7.21499 137.877 7.21499C137.921 7.20632 137.947 7.21932 137.955 7.25399C138.042 7.85199 138.272 8.37199 138.644 8.81399C139.017 9.25599 139.528 9.47699 140.178 9.47699C140.638 9.47699 141.023 9.35132 141.335 9.09999C141.656 8.84866 141.816 8.45432 141.816 7.91699C141.816 7.52699 141.73 7.19332 141.556 6.91599C141.383 6.62999 141.171 6.39599 140.919 6.21399C140.677 6.02332 140.343 5.80232 139.918 5.55099C139.502 5.30832 139.173 5.09599 138.93 4.91399C138.696 4.73199 138.493 4.50666 138.319 4.23799C138.155 3.96066 138.072 3.63132 138.072 3.24999C138.072 2.81666 138.181 2.44832 138.397 2.14499C138.623 1.84166 138.913 1.61632 139.268 1.46899C139.624 1.31299 140.005 1.23499 140.412 1.23499C140.889 1.23499 141.383 1.33899 141.894 1.54699C142.024 1.59899 142.089 1.67266 142.089 1.76799L142.206 3.14599C142.206 3.18066 142.18 3.19799 142.128 3.19799C142.085 3.19799 142.059 3.18066 142.05 3.14599C142.016 2.69532 141.847 2.29232 141.543 1.93699C141.24 1.58166 140.807 1.40399 140.243 1.40399C139.723 1.40399 139.342 1.55566 139.099 1.85899C138.857 2.16232 138.735 2.52632 138.735 2.95099ZM151.056 9.65899C150.25 9.65899 149.53 9.47266 148.898 9.09999C148.274 8.71866 147.788 8.20732 147.442 7.56599C147.104 6.91599 146.935 6.20966 146.935 5.44699C146.935 4.55432 147.16 3.79166 147.611 3.15899C148.061 2.51766 148.638 2.03666 149.34 1.71599C150.05 1.39532 150.774 1.23499 151.511 1.23499C152.334 1.23499 153.058 1.42999 153.682 1.81999C154.306 2.20132 154.782 2.70832 155.112 3.34099C155.45 3.97366 155.619 4.64532 155.619 5.35599C155.619 6.14466 155.411 6.86832 154.995 7.52699C154.579 8.18566 154.02 8.70566 153.318 9.08699C152.624 9.46832 151.87 9.65899 151.056 9.65899ZM151.524 9.39899C152.139 9.39899 152.694 9.25599 153.188 8.96999C153.682 8.68399 154.072 8.26366 154.358 7.70899C154.644 7.15432 154.787 6.49132 154.787 5.71999C154.787 4.90532 154.626 4.18166 154.306 3.54899C153.994 2.90766 153.547 2.40932 152.967 2.05399C152.395 1.69866 151.727 1.52099 150.965 1.52099C149.959 1.52099 149.175 1.83299 148.612 2.45699C148.048 3.08099 147.767 3.93032 147.767 5.00499C147.767 5.81099 147.923 6.55199 148.235 7.22799C148.555 7.89532 149.002 8.42399 149.574 8.81399C150.146 9.20399 150.796 9.39899 151.524 9.39899ZM163.531 9.50299C163.514 9.50299 163.505 9.47699 163.505 9.42499C163.505 9.37299 163.514 9.34699 163.531 9.34699C163.782 9.34699 163.964 9.32532 164.077 9.28199C164.198 9.23866 164.281 9.15632 164.324 9.03499C164.367 8.90499 164.389 8.70999 164.389 8.44999V6.33099C164.389 5.80232 164.294 5.41232 164.103 5.16099C163.921 4.90966 163.631 4.78399 163.232 4.78399C162.92 4.78399 162.599 4.89666 162.27 5.12199C161.941 5.33866 161.65 5.63332 161.399 6.00599L161.347 5.84999C161.737 5.32132 162.11 4.93999 162.465 4.70599C162.82 4.47199 163.193 4.35499 163.583 4.35499C164.042 4.35499 164.393 4.48499 164.636 4.74499C164.879 5.00499 165 5.39932 165 5.92799V8.44999C165 8.70999 165.017 8.90499 165.052 9.03499C165.095 9.15632 165.173 9.23866 165.286 9.28199C165.407 9.32532 165.594 9.34699 165.845 9.34699C165.871 9.34699 165.884 9.37299 165.884 9.42499C165.884 9.47699 165.871 9.50299 165.845 9.50299C165.646 9.50299 165.49 9.49866 165.377 9.48999L164.688 9.47699L164.012 9.48999C163.891 9.49866 163.73 9.50299 163.531 9.50299ZM160.19 9.50299C160.164 9.50299 160.151 9.47699 160.151 9.42499C160.151 9.37299 160.164 9.34699 160.19 9.34699C160.441 9.34699 160.623 9.32532 160.736 9.28199C160.849 9.23866 160.927 9.15632 160.97 9.03499C161.013 8.90499 161.035 8.70999 161.035 8.44999V6.33099C161.035 5.80232 160.94 5.41232 160.749 5.16099C160.567 4.90966 160.281 4.78399 159.891 4.78399C159.57 4.78399 159.245 4.89666 158.916 5.12199C158.595 5.33866 158.309 5.63332 158.058 6.00599L158.006 5.84999C158.387 5.32132 158.756 4.93999 159.111 4.70599C159.475 4.47199 159.848 4.35499 160.229 4.35499C160.688 4.35499 161.039 4.48499 161.282 4.74499C161.525 5.00499 161.646 5.39932 161.646 5.92799V8.44999C161.646 8.70999 161.668 8.90499 161.711 9.03499C161.754 9.15632 161.832 9.23866 161.945 9.28199C162.066 9.32532 162.253 9.34699 162.504 9.34699C162.521 9.34699 162.53 9.37299 162.53 9.42499C162.53 9.47699 162.521 9.50299 162.504 9.50299C162.305 9.50299 162.144 9.49866 162.023 9.48999L161.347 9.47699L160.658 9.48999C160.545 9.49866 160.389 9.50299 160.19 9.50299ZM156.849 9.50299C156.823 9.50299 156.81 9.47699 156.81 9.42499C156.81 9.37299 156.823 9.34699 156.849 9.34699C157.1 9.34699 157.282 9.32532 157.395 9.28199C157.508 9.23866 157.586 9.15632 157.629 9.03499C157.672 8.90499 157.694 8.70999 157.694 8.44999V5.84999C157.694 5.54666 157.659 5.32999 157.59 5.19999C157.521 5.06999 157.399 5.00499 157.226 5.00499C157.087 5.00499 156.845 5.06999 156.498 5.19999H156.472C156.437 5.19999 156.411 5.18266 156.394 5.14799C156.385 5.10466 156.398 5.07432 156.433 5.05699L157.876 4.38099C157.893 4.37232 157.915 4.36799 157.941 4.36799C158.01 4.36799 158.088 4.46766 158.175 4.66699C158.262 4.85766 158.305 5.10466 158.305 5.40799V8.44999C158.305 8.70999 158.322 8.90499 158.357 9.03499C158.4 9.15632 158.478 9.23866 158.591 9.28199C158.712 9.32532 158.899 9.34699 159.15 9.34699C159.176 9.34699 159.189 9.37299 159.189 9.42499C159.189 9.47699 159.176 9.50299 159.15 9.50299C158.951 9.50299 158.795 9.49866 158.682 9.48999L158.006 9.47699L157.317 9.48999C157.204 9.49866 157.048 9.50299 156.849 9.50299ZM168.923 9.65899C168.429 9.65899 168.008 9.54199 167.662 9.30799C167.315 9.07399 167.051 8.77066 166.869 8.39799C166.695 8.01666 166.609 7.60499 166.609 7.16299C166.609 6.65166 166.73 6.18366 166.973 5.75899C167.215 5.32566 167.54 4.98766 167.948 4.74499C168.364 4.49366 168.814 4.36799 169.3 4.36799C169.785 4.36799 170.149 4.50232 170.392 4.77099C170.643 5.03099 170.769 5.39066 170.769 5.84999C170.769 5.97132 170.756 6.05799 170.73 6.10999C170.712 6.15332 170.673 6.17499 170.613 6.17499H170.002C170.01 6.11432 170.015 6.03199 170.015 5.92799C170.015 5.49466 169.911 5.16966 169.703 4.95299C169.503 4.73632 169.23 4.62799 168.884 4.62799C168.398 4.62799 168.021 4.80999 167.753 5.17399C167.484 5.53799 167.35 6.04499 167.35 6.69499C167.35 7.44899 167.527 8.06432 167.883 8.54099C168.238 9.00899 168.736 9.24299 169.378 9.24299C169.646 9.24299 169.876 9.20832 170.067 9.13899C170.257 9.06099 170.465 8.94832 170.691 8.80099H170.704C170.73 8.80099 170.751 8.81832 170.769 8.85299C170.795 8.87899 170.799 8.90499 170.782 8.93099C170.21 9.41632 169.59 9.65899 168.923 9.65899ZM167.168 6.03199L170.132 5.97999V6.17499L167.181 6.18799L167.168 6.03199ZM171.461 9.50299C171.427 9.50299 171.409 9.47699 171.409 9.42499C171.409 9.37299 171.427 9.34699 171.461 9.34699C171.617 9.34699 171.782 9.23866 171.955 9.02199C172.129 8.80532 172.35 8.39366 172.618 7.78699L174.113 4.28999C174.131 4.25532 174.157 4.23799 174.191 4.23799C174.235 4.23799 174.261 4.25532 174.269 4.28999L175.881 7.72199C176.115 8.22466 176.293 8.57999 176.414 8.78799C176.536 8.99599 176.657 9.14332 176.778 9.22999C176.9 9.30799 177.056 9.34699 177.246 9.34699C177.29 9.34699 177.311 9.37299 177.311 9.42499C177.311 9.47699 177.29 9.50299 177.246 9.50299C177.116 9.50299 176.921 9.49432 176.661 9.47699C176.401 9.45966 176.206 9.45099 176.076 9.45099C175.964 9.45099 175.795 9.45966 175.569 9.47699C175.327 9.49432 175.162 9.50299 175.075 9.50299C175.041 9.50299 175.023 9.47699 175.023 9.42499C175.023 9.37299 175.041 9.34699 175.075 9.34699C175.223 9.34699 175.344 9.31232 175.439 9.24299C175.543 9.16499 175.595 9.04799 175.595 8.89199C175.595 8.75332 175.552 8.59299 175.465 8.41099L173.944 5.17399L174.178 4.92699L172.917 7.90399C172.761 8.26799 172.683 8.56266 172.683 8.78799C172.683 9.16066 172.887 9.34699 173.294 9.34699C173.338 9.34699 173.359 9.37299 173.359 9.42499C173.359 9.47699 173.338 9.50299 173.294 9.50299C173.199 9.50299 173.073 9.49432 172.917 9.47699C172.727 9.45966 172.553 9.45099 172.397 9.45099C172.224 9.45099 172.051 9.45966 171.877 9.47699C171.721 9.49432 171.583 9.50299 171.461 9.50299ZM179.912 9.67199C179.384 9.67199 178.981 9.56799 178.703 9.35999C178.435 9.14332 178.3 8.83566 178.3 8.43699V5.99299C178.3 5.63766 178.27 5.38632 178.209 5.23899C178.157 5.08299 178.062 5.00499 177.923 5.00499C177.828 5.00499 177.672 5.04832 177.455 5.13499H177.429C177.395 5.13499 177.369 5.11332 177.351 5.06999C177.343 5.02666 177.356 5.00066 177.39 4.99199L178.755 4.38099L178.807 4.36799C178.825 4.36799 178.846 4.37666 178.872 4.39399C178.898 4.41132 178.911 4.43299 178.911 4.45899V8.16399C178.911 9.05666 179.306 9.50299 180.094 9.50299C180.874 9.50299 181.264 9.07832 181.264 8.22899C181.264 7.79566 181.147 7.44899 180.913 7.18899C180.679 6.92032 180.307 6.78599 179.795 6.78599C179.405 6.78599 179.054 6.86399 178.742 7.01999L178.664 6.87699C179.124 6.66899 179.648 6.56499 180.237 6.56499C181.39 6.56499 181.966 7.02432 181.966 7.94299C181.966 8.48899 181.78 8.91366 181.407 9.21699C181.043 9.52032 180.545 9.67199 179.912 9.67199ZM184.91 1.24799C185.161 1.24799 185.356 1.34332 185.495 1.53399C185.642 1.71599 185.716 1.98899 185.716 2.35299C185.716 2.71699 185.638 3.06366 185.482 3.39299C185.335 3.72232 185.114 4.05166 184.819 4.38099C184.81 4.38966 184.797 4.39399 184.78 4.39399C184.754 4.39399 184.732 4.38099 184.715 4.35499C184.698 4.32899 184.698 4.30732 184.715 4.28999C184.897 4.02132 185.018 3.77432 185.079 3.54899C185.14 3.31499 185.17 3.05066 185.17 2.75599C185.17 2.52199 185.135 2.33132 185.066 2.18399C184.997 2.03666 184.906 1.90666 184.793 1.79399L185.287 1.70299C185.296 1.85032 185.257 1.96299 185.17 2.04099C185.092 2.11899 184.984 2.15799 184.845 2.15799C184.698 2.15799 184.581 2.11899 184.494 2.04099C184.416 1.95432 184.377 1.84166 184.377 1.70299C184.377 1.39966 184.555 1.24799 184.91 1.24799ZM183.09 1.24799C183.341 1.24799 183.536 1.34332 183.675 1.53399C183.822 1.71599 183.896 1.98899 183.896 2.35299C183.896 2.71699 183.818 3.06366 183.662 3.39299C183.515 3.72232 183.294 4.05166 182.999 4.38099C182.99 4.38966 182.977 4.39399 182.96 4.39399C182.934 4.39399 182.912 4.38099 182.895 4.35499C182.878 4.32899 182.878 4.30732 182.895 4.28999C183.077 4.02132 183.198 3.77432 183.259 3.54899C183.32 3.31499 183.35 3.05066 183.35 2.75599C183.35 2.52199 183.315 2.33132 183.246 2.18399C183.177 2.03666 183.086 1.90666 182.973 1.79399L183.467 1.70299C183.476 1.85032 183.437 1.96299 183.35 2.04099C183.272 2.11899 183.164 2.15799 183.025 2.15799C182.878 2.15799 182.761 2.11899 182.674 2.04099C182.596 1.95432 182.557 1.84166 182.557 1.70299C182.557 1.39966 182.735 1.24799 183.09 1.24799Z" fill="#706760"/>
</svg>
