<svg width="77" height="11" viewBox="0 0 77 11" fill="none" xmlns="http://www.w3.org/2000/svg">
<path d="M1.44 6.46C1.44 6.67333 1.47 6.83 1.53 6.93C1.59 7.02333 1.70334 7.09 1.87 7.13C2.04334 7.17 2.31667 7.19 2.69 7.19C2.71 7.19 2.72 7.21 2.72 7.25C2.72 7.29 2.71 7.31 2.69 7.31C2.41667 7.31 2.20334 7.30666 2.05 7.3L1.18 7.29L0.520002 7.3C0.400002 7.30666 0.233335 7.31 0.0200019 7.31C0.00666853 7.31 1.86265e-06 7.29 1.86265e-06 7.25C1.86265e-06 7.21 0.00666853 7.19 0.0200019 7.19C0.280002 7.19 0.470002 7.17333 0.590002 7.14C0.716669 7.10666 0.800002 7.04333 0.840002 6.95C0.886669 6.85 0.910002 6.7 0.910002 6.5V1.87C0.910002 1.67 0.886669 1.52333 0.840002 1.43C0.800002 1.33666 0.716669 1.27333 0.590002 1.24C0.470002 1.2 0.280002 1.18 0.0200019 1.18C0.00666853 1.18 1.86265e-06 1.16 1.86265e-06 1.12C1.86265e-06 1.08 0.00666853 1.06 0.0200019 1.06L0.510002 1.07C0.790002 1.08333 1.01 1.09 1.17 1.09C1.33 1.09 1.51334 1.08 1.72 1.06C2.24 1.04 2.52334 1.03 2.57 1.03C3.15667 1.03 3.63334 1.16666 4 1.44C4.36667 1.70666 4.55 2.11666 4.55 2.67C4.55 3.11666 4.44 3.49333 4.22 3.8C4 4.1 3.72 4.32333 3.38 4.47C3.04667 4.61666 2.7 4.69 2.34 4.69C2.14 4.69 1.97667 4.67333 1.85 4.64C1.83 4.64 1.82 4.62333 1.82 4.59C1.82 4.57 1.82334 4.55 1.83 4.53C1.84334 4.51 1.85667 4.50333 1.87 4.51C1.97667 4.53666 2.09667 4.55 2.23 4.55C2.70334 4.55 3.10334 4.40666 3.43 4.12C3.76334 3.83333 3.93 3.41666 3.93 2.87C3.93 2.51666 3.86 2.21333 3.72 1.96C3.58 1.7 3.38667 1.50333 3.14 1.37C2.9 1.23 2.63334 1.16 2.34 1.16C2.06667 1.16 1.87334 1.17333 1.76 1.2C1.64667 1.22666 1.56334 1.29 1.51 1.39C1.46334 1.48333 1.44 1.65 1.44 1.89V6.46ZM6.89602 7.43C6.51602 7.43 6.19268 7.34 5.92602 7.16C5.65935 6.98 5.45602 6.74666 5.31602 6.46C5.18268 6.16666 5.11602 5.85 5.11602 5.51C5.11602 5.11666 5.20935 4.75666 5.39602 4.43C5.58268 4.09666 5.83268 3.83666 6.14602 3.65C6.46602 3.45666 6.81268 3.36 7.18602 3.36C7.55935 3.36 7.83935 3.46333 8.02602 3.67C8.21935 3.87 8.31602 4.14666 8.31602 4.5C8.31602 4.59333 8.30602 4.66 8.28602 4.7C8.27268 4.73333 8.24268 4.75 8.19602 4.75H7.72602C7.73268 4.70333 7.73602 4.64 7.73602 4.56C7.73602 4.22666 7.65602 3.97666 7.49602 3.81C7.34268 3.64333 7.13268 3.56 6.86602 3.56C6.49268 3.56 6.20268 3.7 5.99602 3.98C5.78935 4.26 5.68602 4.65 5.68602 5.15C5.68602 5.73 5.82268 6.20333 6.09602 6.57C6.36935 6.93 6.75268 7.11 7.24602 7.11C7.45268 7.11 7.62935 7.08333 7.77602 7.03C7.92268 6.97 8.08268 6.88333 8.25602 6.77H8.26602C8.28602 6.77 8.30268 6.78333 8.31602 6.81C8.33602 6.83 8.33935 6.85 8.32602 6.87C7.88602 7.24333 7.40935 7.43 6.89602 7.43ZM5.54602 4.64L7.82602 4.6V4.75L5.55602 4.76L5.54602 4.64ZM11.0402 7.43C10.6135 7.43 10.2535 7.33666 9.96016 7.15C9.67349 6.95666 9.46016 6.71 9.32016 6.41C9.18016 6.11 9.11016 5.79333 9.11016 5.46C9.11016 5.03333 9.21349 4.66333 9.42016 4.35C9.63349 4.03 9.90349 3.78666 10.2302 3.62C10.5635 3.44666 10.9035 3.36 11.2502 3.36C11.5368 3.36 11.7968 3.41666 12.0302 3.53C12.2702 3.64333 12.3902 3.77666 12.3902 3.93C12.3902 4.01 12.3635 4.08 12.3102 4.14C12.2568 4.19333 12.1868 4.22 12.1002 4.22C11.9468 4.22 11.8135 4.12666 11.7002 3.94C11.6135 3.81333 11.5102 3.72 11.3902 3.66C11.2768 3.59333 11.1235 3.56 10.9302 3.56C10.5302 3.56 10.2202 3.70666 10.0002 4C9.78682 4.28666 9.68016 4.67666 9.68016 5.17C9.68016 5.73 9.82349 6.19666 10.1102 6.57C10.3968 6.93666 10.8235 7.12 11.3902 7.12C11.8168 7.12 12.1602 7.00333 12.4202 6.77H12.4402C12.4602 6.77 12.4768 6.78 12.4902 6.8C12.5102 6.82 12.5102 6.83666 12.4902 6.85C12.2635 7.05 12.0335 7.19666 11.8002 7.29C11.5668 7.38333 11.3135 7.43 11.0402 7.43ZM15.9624 7.31C15.9424 7.31 15.9324 7.29 15.9324 7.25C15.9324 7.21 15.9424 7.19 15.9624 7.19C16.1558 7.19 16.2958 7.17333 16.3824 7.14C16.4691 7.10666 16.5291 7.04333 16.5624 6.95C16.5958 6.85 16.6124 6.7 16.6124 6.5V4.83C16.6124 4.42333 16.5358 4.12666 16.3824 3.94C16.2291 3.75333 15.9891 3.66 15.6624 3.66C15.4091 3.66 15.1491 3.74666 14.8824 3.92C14.6224 4.08666 14.3958 4.31333 14.2024 4.6L14.1624 4.48C14.4691 4.07333 14.7658 3.78 15.0524 3.6C15.3391 3.41333 15.6324 3.32 15.9324 3.32C16.3058 3.32 16.5891 3.42 16.7824 3.62C16.9824 3.82 17.0824 4.12333 17.0824 4.53V6.5C17.0824 6.7 17.0958 6.85 17.1224 6.95C17.1558 7.04333 17.2158 7.10666 17.3024 7.14C17.3958 7.17333 17.5391 7.19 17.7324 7.19C17.7524 7.19 17.7624 7.21 17.7624 7.25C17.7624 7.29 17.7524 7.31 17.7324 7.31C17.5791 7.31 17.4591 7.30666 17.3724 7.3L16.8524 7.29L16.3224 7.3C16.2358 7.30666 16.1158 7.31 15.9624 7.31ZM13.2724 7.31C13.2524 7.31 13.2424 7.29 13.2424 7.25C13.2424 7.21 13.2524 7.19 13.2724 7.19C13.4658 7.19 13.6058 7.17333 13.6924 7.14C13.7791 7.10666 13.8391 7.04333 13.8724 6.95C13.9058 6.85 13.9224 6.7 13.9224 6.5V4.5C13.9224 4.26666 13.8958 4.1 13.8424 4C13.7891 3.9 13.6958 3.85 13.5624 3.85C13.4558 3.85 13.2691 3.9 13.0024 4H12.9824C12.9558 4 12.9358 3.98666 12.9224 3.96C12.9158 3.92666 12.9258 3.90333 12.9524 3.89L14.0624 3.37C14.0758 3.36333 14.0924 3.36 14.1124 3.36C14.1658 3.36 14.2258 3.43666 14.2924 3.59C14.3591 3.73666 14.3924 3.92666 14.3924 4.16V6.5C14.3924 6.7 14.4058 6.85 14.4324 6.95C14.4658 7.04333 14.5258 7.10666 14.6124 7.14C14.7058 7.17333 14.8491 7.19 15.0424 7.19C15.0624 7.19 15.0724 7.21 15.0724 7.25C15.0724 7.29 15.0624 7.31 15.0424 7.31C14.8891 7.31 14.7691 7.30666 14.6824 7.3L14.1624 7.29L13.6324 7.3C13.5458 7.30666 13.4258 7.31 13.2724 7.31ZM20.2389 7.22L20.2489 7.44L18.6989 4.28C18.5456 3.98666 18.4289 3.79666 18.3489 3.71C18.2689 3.61666 18.1656 3.57 18.0389 3.57C18.0256 3.57 18.0189 3.55 18.0189 3.51C18.0189 3.47 18.0256 3.45 18.0389 3.45C18.1789 3.45 18.2822 3.45333 18.3489 3.46L18.6589 3.47L19.2789 3.46C19.3722 3.45333 19.5022 3.45 19.6689 3.45C19.6822 3.45 19.6889 3.47 19.6889 3.51C19.6889 3.55 19.6822 3.57 19.6689 3.57C19.2689 3.57 19.0689 3.65 19.0689 3.81C19.0689 3.85666 19.0822 3.90666 19.1089 3.96L20.5089 6.83L20.2889 7.16L21.3189 4.3C21.3722 4.14 21.3989 4.02 21.3989 3.94C21.3989 3.8 21.3356 3.70333 21.2089 3.65C21.0889 3.59666 20.8822 3.57 20.5889 3.57C20.5756 3.57 20.5689 3.55 20.5689 3.51C20.5689 3.47 20.5756 3.45 20.5889 3.45C20.7689 3.45 20.9056 3.45333 20.9989 3.46L21.5989 3.47L21.9489 3.46C22.0089 3.45333 22.1089 3.45 22.2489 3.45C22.2689 3.45 22.2789 3.47 22.2789 3.51C22.2789 3.55 22.2689 3.57 22.2489 3.57C22.0889 3.57 21.9522 3.62 21.8389 3.72C21.7322 3.82 21.6289 4 21.5289 4.26L19.8789 8.51C19.6856 9.01 19.5556 9.42 19.4889 9.74C19.4556 9.88 19.4256 9.96666 19.3989 10C19.3722 10.04 19.3222 10.06 19.2489 10.06H17.9789C17.9656 10.06 17.9589 10.04 17.9589 10C17.9589 9.96 17.9656 9.94 17.9789 9.94C18.3522 9.94 18.6789 9.83333 18.9589 9.62C19.2389 9.41333 19.4989 9.02666 19.7389 8.46L20.2389 7.22ZM24.5741 7.44C24.0141 7.44 23.5641 7.23333 23.2241 6.82C22.8841 6.4 22.7141 5.70666 22.7141 4.74C22.7141 3.64 22.9308 2.75666 23.3641 2.09C23.7975 1.41666 24.4341 0.999997 25.2741 0.839997C25.5875 0.779997 25.8041 0.729997 25.9241 0.689997C26.0508 0.64333 26.1408 0.576664 26.1941 0.489997C26.2541 0.40333 26.3141 0.25333 26.3741 0.039997C26.3808 0.0133307 26.4008 0.00333079 26.4341 0.00999737C26.4675 0.0166639 26.4808 0.0333306 26.4741 0.0599973C26.4075 0.333331 26.3741 0.476664 26.3741 0.489997C26.2941 0.823331 26.2208 1.02333 26.1541 1.09C26.0875 1.15 25.9308 1.2 25.6841 1.24C25.4375 1.27333 25.2141 1.31 25.0141 1.35C24.4408 1.45 24.0375 1.58666 23.8041 1.76C23.5708 1.92666 23.4175 2.21333 23.3441 2.62C23.2708 3.02666 23.2341 3.71666 23.2341 4.69L23.1341 4.75C23.3008 4.29 23.5641 3.95666 23.9241 3.75C24.2908 3.54333 24.6575 3.44 25.0241 3.44C25.3908 3.44 25.6975 3.53666 25.9441 3.73C26.1908 3.92333 26.3708 4.17 26.4841 4.47C26.6041 4.76333 26.6641 5.06666 26.6641 5.38C26.6641 5.78666 26.5708 6.14666 26.3841 6.46C26.1975 6.77333 25.9441 7.01666 25.6241 7.19C25.3041 7.35666 24.9541 7.44 24.5741 7.44ZM24.8641 7.26C25.2441 7.26 25.5441 7.13 25.7641 6.87C25.9841 6.60333 26.0941 6.20333 26.0941 5.67C26.0941 5.28333 26.0308 4.93666 25.9041 4.63C25.7775 4.32333 25.6075 4.08333 25.3941 3.91C25.1808 3.73666 24.9475 3.65 24.6941 3.65C24.4541 3.65 24.2275 3.73 24.0141 3.89C23.8008 4.04333 23.6275 4.24666 23.4941 4.5C23.3675 4.75333 23.3041 5.01666 23.3041 5.29C23.3041 5.85666 23.4408 6.32666 23.7141 6.7C23.9941 7.07333 24.3775 7.26 24.8641 7.26ZM27.0812 7.31C27.0545 7.31 27.0412 7.29 27.0412 7.25C27.0412 7.21 27.0545 7.19 27.0812 7.19C27.2012 7.19 27.3278 7.10666 27.4612 6.94C27.5945 6.77333 27.7645 6.45666 27.9712 5.99L29.1212 3.3C29.1345 3.27333 29.1545 3.26 29.1812 3.26C29.2145 3.26 29.2345 3.27333 29.2412 3.3L30.4812 5.94C30.6612 6.32666 30.7978 6.6 30.8912 6.76C30.9845 6.92 31.0778 7.03333 31.1712 7.1C31.2645 7.16 31.3845 7.19 31.5312 7.19C31.5645 7.19 31.5812 7.21 31.5812 7.25C31.5812 7.29 31.5645 7.31 31.5312 7.31C31.4312 7.31 31.2812 7.30333 31.0812 7.29C30.8812 7.27666 30.7312 7.27 30.6312 7.27C30.5445 7.27 30.4145 7.27666 30.2412 7.29C30.0545 7.30333 29.9278 7.31 29.8612 7.31C29.8345 7.31 29.8212 7.29 29.8212 7.25C29.8212 7.21 29.8345 7.19 29.8612 7.19C29.9745 7.19 30.0678 7.16333 30.1412 7.11C30.2212 7.05 30.2612 6.96 30.2612 6.84C30.2612 6.73333 30.2278 6.61 30.1612 6.47L28.9912 3.98L29.1712 3.79L28.2012 6.08C28.0812 6.36 28.0212 6.58666 28.0212 6.76C28.0212 7.04666 28.1778 7.19 28.4912 7.19C28.5245 7.19 28.5412 7.21 28.5412 7.25C28.5412 7.29 28.5245 7.31 28.4912 7.31C28.4178 7.31 28.3212 7.30333 28.2012 7.29C28.0545 7.27666 27.9212 7.27 27.8012 7.27C27.6678 7.27 27.5345 7.27666 27.4012 7.29C27.2812 7.30333 27.1745 7.31 27.0812 7.31ZM33.382 7.38C33.0553 7.38 32.7986 7.27666 32.612 7.07C32.432 6.86333 32.342 6.56 32.342 6.16V4.61C32.342 4.33666 32.3186 4.14333 32.272 4.03C32.232 3.91 32.1586 3.85 32.052 3.85C31.952 3.85 31.832 3.88333 31.692 3.95H31.672C31.6453 3.95 31.6253 3.93333 31.612 3.9C31.6053 3.86666 31.6153 3.84666 31.642 3.84L32.692 3.37L32.732 3.36C32.7453 3.36 32.762 3.36666 32.782 3.38C32.802 3.39333 32.812 3.41 32.812 3.43V5.86C32.812 6.26 32.882 6.55666 33.022 6.75C33.162 6.94333 33.372 7.04 33.652 7.04C33.9253 7.04 34.1986 6.96 34.472 6.8C34.7453 6.63333 34.9853 6.40666 35.192 6.12L35.242 6.23C34.9286 6.63666 34.6186 6.93 34.312 7.11C34.012 7.29 33.702 7.38 33.382 7.38ZM35.472 6.26C35.472 6.48666 35.4986 6.65333 35.552 6.76C35.612 6.86 35.7086 6.91 35.842 6.91C35.9086 6.91 35.9886 6.89666 36.082 6.87C36.182 6.83666 36.2886 6.8 36.402 6.76H36.422C36.4486 6.76 36.4653 6.77666 36.472 6.81C36.4853 6.83666 36.4786 6.85666 36.452 6.87L35.332 7.39L35.292 7.4C35.232 7.4 35.1686 7.32666 35.102 7.18C35.042 7.02666 35.012 6.83333 35.012 6.6V4.61C35.012 4.33666 34.9886 4.14333 34.942 4.03C34.902 3.91 34.8253 3.85 34.712 3.85C34.612 3.85 34.492 3.88333 34.352 3.95H34.332C34.3053 3.95 34.2886 3.93333 34.282 3.9C34.2753 3.86666 34.2853 3.84666 34.312 3.84L35.362 3.37L35.392 3.36C35.412 3.36 35.4286 3.36666 35.442 3.38C35.462 3.39333 35.472 3.41 35.472 3.43V6.26ZM36.7443 7.31C36.7243 7.31 36.7143 7.29 36.7143 7.25C36.7143 7.21 36.7243 7.19 36.7443 7.19C36.9443 7.19 37.0876 7.17333 37.1743 7.14C37.2676 7.10666 37.3276 7.04333 37.3543 6.95C37.3876 6.85 37.4043 6.7 37.4043 6.5V1.31C37.4043 1.06333 37.381 0.886664 37.3343 0.779997C37.2876 0.673331 37.2043 0.619997 37.0843 0.619997C36.9776 0.619997 36.8176 0.669997 36.6043 0.769997H36.5843C36.5576 0.769997 36.5376 0.75333 36.5243 0.719997C36.5176 0.686664 36.5276 0.666664 36.5543 0.659997L37.7543 0.0699972L37.8043 0.0599973C37.8176 0.0599973 37.831 0.0666639 37.8443 0.0799971C37.8643 0.0933306 37.8743 0.109997 37.8743 0.129997V6.5C37.8743 6.7 37.891 6.85 37.9243 6.95C37.9576 7.04333 38.0176 7.10666 38.1043 7.14C38.1976 7.17333 38.341 7.19 38.5343 7.19C38.5476 7.19 38.5543 7.21 38.5543 7.25C38.5543 7.29 38.5476 7.31 38.5343 7.31C38.3676 7.31 38.2376 7.30666 38.1443 7.3L37.6543 7.29L37.1343 7.3C37.041 7.30666 36.911 7.31 36.7443 7.31ZM39.9043 7.31C39.8643 7.31 39.8276 7.28 39.7943 7.22C39.761 7.16 39.7076 7.06666 39.6343 6.94C39.561 6.80666 39.431 6.61 39.2443 6.35C39.0243 6.04333 38.8643 5.83333 38.7643 5.72C38.6643 5.6 38.5643 5.51666 38.4643 5.47C38.3643 5.42333 38.231 5.4 38.0643 5.4C38.0043 5.4 37.861 5.40666 37.6343 5.42L37.6143 5.24L37.9143 5.22C38.2476 5.20666 38.4543 5.2 38.5343 5.2C38.6943 5.2 38.821 5.22 38.9143 5.26C39.0076 5.3 39.0976 5.36666 39.1843 5.46C39.271 5.55333 39.4043 5.72 39.5843 5.96L39.7343 6.15C39.7743 6.20333 39.811 6.25666 39.8443 6.31C39.8776 6.35666 39.911 6.4 39.9443 6.44C40.1376 6.71333 40.2976 6.90666 40.4243 7.02C40.5576 7.12666 40.741 7.18333 40.9743 7.19C40.9943 7.19 41.0043 7.21 41.0043 7.25C41.0043 7.29 40.9943 7.31 40.9743 7.31H39.9043ZM38.5343 5.2C38.6343 5.2 38.7243 5.16 38.8043 5.08C38.8843 5 38.9643 4.88666 39.0443 4.74L39.2243 4.38C39.3576 4.12 39.4643 3.92666 39.5443 3.8C39.6243 3.66666 39.7143 3.56 39.8143 3.48C39.921 3.4 40.0476 3.36 40.1943 3.36C40.3276 3.36 40.431 3.39333 40.5043 3.46C40.5776 3.52 40.6143 3.59333 40.6143 3.68C40.6143 3.77333 40.581 3.85333 40.5143 3.92C40.4476 3.98666 40.361 4.02 40.2543 4.02C40.181 4.02 40.1076 4 40.0343 3.96C39.961 3.91333 39.9076 3.89 39.8743 3.89C39.801 3.89 39.6976 3.98333 39.5643 4.17C39.4376 4.35 39.311 4.55333 39.1843 4.78C39.091 4.96 38.991 5.10333 38.8843 5.21C38.7776 5.31 38.661 5.36 38.5343 5.36V5.2ZM42.6691 7.4C42.2624 7.4 41.9224 7.25333 41.6491 6.96C41.3757 6.66 41.2391 6.24333 41.2391 5.71C41.2391 5.23 41.3524 4.81 41.5791 4.45C41.8057 4.08333 42.0891 3.80333 42.4291 3.61C42.7757 3.41666 43.1124 3.32 43.4391 3.32C43.6724 3.32 43.8957 3.36666 44.1091 3.46C44.3224 3.55333 44.4891 3.67333 44.6091 3.82L44.2891 4.36C44.2891 4.12 44.1757 3.92 43.9491 3.76C43.7224 3.59333 43.4691 3.51 43.1891 3.51C42.7824 3.51 42.4491 3.69 42.1891 4.05C41.9357 4.40333 41.8091 4.86333 41.8091 5.43C41.8091 5.93 41.9124 6.33666 42.1191 6.65C42.3257 6.96333 42.6057 7.12 42.9591 7.12C43.2257 7.12 43.4791 7.03333 43.7191 6.86C43.9657 6.68666 44.2091 6.46 44.4491 6.18L44.5291 6.25C44.2357 6.59666 43.9424 6.87666 43.6491 7.09C43.3624 7.29666 43.0357 7.4 42.6691 7.4ZM44.5691 7.39C44.5091 7.39 44.4457 7.30333 44.3791 7.13C44.3191 6.95666 44.2891 6.75 44.2891 6.51V3.7C44.3957 3.64666 44.4724 3.6 44.5191 3.56C44.5724 3.52 44.6191 3.45666 44.6591 3.37C44.6657 3.36333 44.6824 3.36333 44.7091 3.37C44.7357 3.37 44.7491 3.37666 44.7491 3.39V6.25C44.7491 6.47666 44.7757 6.64333 44.8291 6.75C44.8891 6.85 44.9857 6.9 45.1191 6.9C45.1857 6.9 45.2657 6.88666 45.3591 6.86C45.4591 6.82666 45.5657 6.79 45.6791 6.75H45.6991C45.7257 6.75 45.7424 6.76666 45.7491 6.8C45.7557 6.82666 45.7457 6.84333 45.7191 6.85L44.6091 7.38L44.5691 7.39ZM48.7814 7.31C48.7614 7.31 48.7514 7.29 48.7514 7.25C48.7514 7.21 48.7614 7.19 48.7814 7.19C48.9747 7.19 49.1147 7.17333 49.2014 7.14C49.2947 7.10666 49.3581 7.04333 49.3914 6.95C49.4247 6.85 49.4414 6.7 49.4414 6.5V4.61C49.4414 4.33666 49.4181 4.14333 49.3714 4.03C49.3314 3.91 49.2581 3.85 49.1514 3.85C49.0781 3.85 48.9581 3.88333 48.7914 3.95H48.7714C48.7447 3.95 48.7247 3.93333 48.7114 3.9C48.7047 3.86666 48.7147 3.84666 48.7414 3.84L49.7914 3.37L49.8314 3.36C49.8447 3.36 49.8614 3.36666 49.8814 3.38C49.9014 3.39333 49.9114 3.41 49.9114 3.43V6.5C49.9114 6.7 49.9247 6.85 49.9514 6.95C49.9847 7.04333 50.0447 7.10666 50.1314 7.14C50.2247 7.17333 50.3714 7.19 50.5714 7.19C50.5847 7.19 50.5914 7.21 50.5914 7.25C50.5914 7.29 50.5847 7.31 50.5714 7.31C50.4047 7.31 50.2747 7.30666 50.1814 7.3L49.6914 7.29L49.1614 7.3C49.0681 7.30666 48.9414 7.31 48.7814 7.31ZM46.0914 7.31C46.0714 7.31 46.0614 7.29 46.0614 7.25C46.0614 7.21 46.0714 7.19 46.0914 7.19C46.2914 7.19 46.4347 7.17333 46.5214 7.14C46.6147 7.10666 46.6747 7.04333 46.7014 6.95C46.7347 6.85 46.7514 6.7 46.7514 6.5V4.61C46.7514 4.33666 46.7281 4.14333 46.6814 4.03C46.6414 3.91 46.5681 3.85 46.4614 3.85C46.3881 3.85 46.2681 3.88333 46.1014 3.95H46.0814C46.0547 3.95 46.0347 3.93333 46.0214 3.9C46.0147 3.86666 46.0247 3.84666 46.0514 3.84L47.1014 3.37L47.1414 3.36C47.1547 3.36 47.1714 3.36666 47.1914 3.38C47.2114 3.39333 47.2214 3.41 47.2214 3.43V6.5C47.2214 6.7 47.2347 6.85 47.2614 6.95C47.2947 7.04333 47.3547 7.10666 47.4414 7.14C47.5347 7.17333 47.6814 7.19 47.8814 7.19C47.8947 7.19 47.9014 7.21 47.9014 7.25C47.9014 7.29 47.8947 7.31 47.8814 7.31C47.7147 7.31 47.5847 7.30666 47.4914 7.3L47.0014 7.29L46.4814 7.3C46.3881 7.30666 46.2581 7.31 46.0914 7.31ZM46.9714 5.29H49.6614V5.47H46.9714V5.29ZM53.1202 7.43C52.6936 7.43 52.3336 7.33666 52.0402 7.15C51.7536 6.95666 51.5402 6.71 51.4002 6.41C51.2602 6.11 51.1902 5.79333 51.1902 5.46C51.1902 5.03333 51.2936 4.66333 51.5002 4.35C51.7136 4.03 51.9836 3.78666 52.3102 3.62C52.6436 3.44666 52.9836 3.36 53.3302 3.36C53.6169 3.36 53.8769 3.41666 54.1102 3.53C54.3502 3.64333 54.4702 3.77666 54.4702 3.93C54.4702 4.01 54.4436 4.08 54.3902 4.14C54.3369 4.19333 54.2669 4.22 54.1802 4.22C54.0269 4.22 53.8936 4.12666 53.7802 3.94C53.6936 3.81333 53.5902 3.72 53.4702 3.66C53.3569 3.59333 53.2036 3.56 53.0102 3.56C52.6102 3.56 52.3002 3.70666 52.0802 4C51.8669 4.28666 51.7602 4.67666 51.7602 5.17C51.7602 5.73 51.9036 6.19666 52.1902 6.57C52.4769 6.93666 52.9036 7.12 53.4702 7.12C53.8969 7.12 54.2402 7.00333 54.5002 6.77H54.5202C54.5402 6.77 54.5569 6.78 54.5702 6.8C54.5902 6.82 54.5902 6.83666 54.5702 6.85C54.3436 7.05 54.1136 7.19666 53.8802 7.29C53.6469 7.38333 53.3936 7.43 53.1202 7.43ZM55.1525 7.31C55.1325 7.31 55.1225 7.29 55.1225 7.25C55.1225 7.21 55.1325 7.19 55.1525 7.19C55.3525 7.19 55.4958 7.17333 55.5825 7.14C55.6758 7.10666 55.7358 7.04333 55.7625 6.95C55.7958 6.85 55.8125 6.7 55.8125 6.5V1.31C55.8125 1.06333 55.7892 0.886664 55.7425 0.779997C55.6958 0.673331 55.6125 0.619997 55.4925 0.619997C55.3858 0.619997 55.2258 0.669997 55.0125 0.769997H54.9925C54.9658 0.769997 54.9458 0.75333 54.9325 0.719997C54.9258 0.686664 54.9358 0.666664 54.9625 0.659997L56.1625 0.0699972L56.2125 0.0599973C56.2258 0.0599973 56.2392 0.0666639 56.2525 0.0799971C56.2725 0.0933306 56.2825 0.109997 56.2825 0.129997V6.5C56.2825 6.7 56.2992 6.85 56.3325 6.95C56.3658 7.04333 56.4258 7.10666 56.5125 7.14C56.6058 7.17333 56.7492 7.19 56.9425 7.19C56.9558 7.19 56.9625 7.21 56.9625 7.25C56.9625 7.29 56.9558 7.31 56.9425 7.31C56.7758 7.31 56.6458 7.30666 56.5525 7.3L56.0625 7.29L55.5425 7.3C55.4492 7.30666 55.3192 7.31 55.1525 7.31ZM58.3125 7.31C58.2725 7.31 58.2358 7.28 58.2025 7.22C58.1692 7.16 58.1158 7.06666 58.0425 6.94C57.9692 6.80666 57.8392 6.61 57.6525 6.35C57.4325 6.04333 57.2725 5.83333 57.1725 5.72C57.0725 5.6 56.9725 5.51666 56.8725 5.47C56.7725 5.42333 56.6392 5.4 56.4725 5.4C56.4125 5.4 56.2692 5.40666 56.0425 5.42L56.0225 5.24L56.3225 5.22C56.6558 5.20666 56.8625 5.2 56.9425 5.2C57.1025 5.2 57.2292 5.22 57.3225 5.26C57.4158 5.3 57.5058 5.36666 57.5925 5.46C57.6792 5.55333 57.8125 5.72 57.9925 5.96L58.1425 6.15C58.1825 6.20333 58.2192 6.25666 58.2525 6.31C58.2858 6.35666 58.3192 6.4 58.3525 6.44C58.5458 6.71333 58.7058 6.90666 58.8325 7.02C58.9658 7.12666 59.1492 7.18333 59.3825 7.19C59.4025 7.19 59.4125 7.21 59.4125 7.25C59.4125 7.29 59.4025 7.31 59.3825 7.31H58.3125ZM56.9425 5.2C57.0425 5.2 57.1325 5.16 57.2125 5.08C57.2925 5 57.3725 4.88666 57.4525 4.74L57.6325 4.38C57.7658 4.12 57.8725 3.92666 57.9525 3.8C58.0325 3.66666 58.1225 3.56 58.2225 3.48C58.3292 3.4 58.4558 3.36 58.6025 3.36C58.7358 3.36 58.8392 3.39333 58.9125 3.46C58.9858 3.52 59.0225 3.59333 59.0225 3.68C59.0225 3.77333 58.9892 3.85333 58.9225 3.92C58.8558 3.98666 58.7692 4.02 58.6625 4.02C58.5892 4.02 58.5158 4 58.4425 3.96C58.3692 3.91333 58.3158 3.89 58.2825 3.89C58.2092 3.89 58.1058 3.98333 57.9725 4.17C57.8458 4.35 57.7192 4.55333 57.5925 4.78C57.4992 4.96 57.3992 5.10333 57.2925 5.21C57.1858 5.31 57.0692 5.36 56.9425 5.36V5.2ZM61.0773 7.4C60.6706 7.4 60.3306 7.25333 60.0573 6.96C59.7839 6.66 59.6473 6.24333 59.6473 5.71C59.6473 5.23 59.7606 4.81 59.9873 4.45C60.2139 4.08333 60.4973 3.80333 60.8373 3.61C61.1839 3.41666 61.5206 3.32 61.8473 3.32C62.0806 3.32 62.3039 3.36666 62.5173 3.46C62.7306 3.55333 62.8973 3.67333 63.0173 3.82L62.6973 4.36C62.6973 4.12 62.5839 3.92 62.3573 3.76C62.1306 3.59333 61.8773 3.51 61.5973 3.51C61.1906 3.51 60.8573 3.69 60.5973 4.05C60.3439 4.40333 60.2173 4.86333 60.2173 5.43C60.2173 5.93 60.3206 6.33666 60.5273 6.65C60.7339 6.96333 61.0139 7.12 61.3673 7.12C61.6339 7.12 61.8873 7.03333 62.1273 6.86C62.3739 6.68666 62.6173 6.46 62.8573 6.18L62.9373 6.25C62.6439 6.59666 62.3506 6.87666 62.0573 7.09C61.7706 7.29666 61.4439 7.4 61.0773 7.4ZM62.9773 7.39C62.9173 7.39 62.8539 7.30333 62.7873 7.13C62.7273 6.95666 62.6973 6.75 62.6973 6.51V3.7C62.8039 3.64666 62.8806 3.6 62.9273 3.56C62.9806 3.52 63.0273 3.45666 63.0673 3.37C63.0739 3.36333 63.0906 3.36333 63.1173 3.37C63.1439 3.37 63.1573 3.37666 63.1573 3.39V6.25C63.1573 6.47666 63.1839 6.64333 63.2373 6.75C63.2973 6.85 63.3939 6.9 63.5273 6.9C63.5939 6.9 63.6739 6.88666 63.7673 6.86C63.8673 6.82666 63.9739 6.79 64.0873 6.75H64.1073C64.1339 6.75 64.1506 6.76666 64.1573 6.8C64.1639 6.82666 64.1539 6.84333 64.1273 6.85L63.0173 7.38L62.9773 7.39ZM68.0396 7.19C68.0529 7.19 68.0596 7.21 68.0596 7.25C68.0596 7.29 68.0529 7.31 68.0396 7.31C67.8863 7.31 67.7663 7.30666 67.6796 7.3L67.1696 7.29L66.6396 7.3C66.5463 7.30666 66.4163 7.31 66.2496 7.31C66.2363 7.31 66.2296 7.29 66.2296 7.25C66.2296 7.21 66.2363 7.19 66.2496 7.19C66.4496 7.19 66.5929 7.17333 66.6796 7.14C66.7729 7.10666 66.8329 7.04333 66.8596 6.95C66.8929 6.85 66.9096 6.7 66.9096 6.5V5.5L67.0196 5.52C66.7129 5.52 66.4529 5.58666 66.2396 5.72C66.0263 5.84666 65.8063 6.10666 65.5796 6.5C65.3729 6.86 65.2363 7.08666 65.1696 7.18C65.1096 7.26666 65.0496 7.31 64.9896 7.31H64.1996C64.1863 7.31 64.1796 7.29 64.1796 7.25C64.1796 7.21 64.1863 7.19 64.1996 7.19C64.4063 7.19 64.5696 7.12666 64.6896 7C64.8096 6.87333 64.9029 6.75 64.9696 6.63C65.0363 6.50333 65.0796 6.42666 65.0996 6.4C65.2663 6.12666 65.4663 5.91 65.6996 5.75C65.9396 5.59 66.1829 5.51 66.4296 5.51L66.4996 5.54C65.9729 5.54 65.5929 5.45333 65.3596 5.28C65.1329 5.1 65.0196 4.85 65.0196 4.53C65.0196 4.19 65.1296 3.92 65.3496 3.72C65.5696 3.52 65.8663 3.42 66.2396 3.42C66.3196 3.42 66.4729 3.42666 66.6996 3.44C66.8596 3.46 67.0163 3.47 67.1696 3.47L67.6696 3.46C67.7563 3.45333 67.8763 3.45 68.0296 3.45C68.0429 3.45 68.0496 3.47 68.0496 3.51C68.0496 3.55 68.0429 3.57 68.0296 3.57C67.8429 3.57 67.7029 3.59 67.6096 3.63C67.5229 3.66333 67.4596 3.72666 67.4196 3.82C67.3863 3.91333 67.3696 4.06 67.3696 4.26V6.5C67.3696 6.7 67.3863 6.84666 67.4196 6.94C67.4596 7.03333 67.5263 7.1 67.6196 7.14C67.7129 7.17333 67.8529 7.19 68.0396 7.19ZM65.5296 4.32C65.5296 4.63333 65.6096 4.89333 65.7696 5.1C65.9363 5.3 66.1696 5.4 66.4696 5.4C66.7029 5.4 66.8963 5.38333 67.0496 5.35L66.9096 5.42V4.28C66.9096 3.99333 66.8696 3.8 66.7896 3.7C66.7096 3.59333 66.5496 3.54 66.3096 3.54C66.0496 3.54 65.8529 3.6 65.7196 3.72C65.5929 3.83333 65.5296 4.03333 65.5296 4.32ZM69.3793 6.69C69.5726 6.69 69.7226 6.76333 69.8293 6.91C69.9426 7.05 69.9993 7.26 69.9993 7.54C69.9993 7.82 69.9393 8.08666 69.8193 8.34C69.706 8.59333 69.536 8.84666 69.3093 9.1C69.3026 9.10666 69.2926 9.11 69.2793 9.11C69.2593 9.11 69.2426 9.1 69.2293 9.08C69.216 9.06 69.216 9.04333 69.2293 9.03C69.3693 8.82333 69.4626 8.63 69.5093 8.45C69.556 8.27666 69.5793 8.07666 69.5793 7.85C69.5793 7.67 69.5526 7.52333 69.4993 7.41C69.446 7.29666 69.376 7.19666 69.2893 7.11L69.6693 7.04C69.676 7.15333 69.646 7.24 69.5793 7.3C69.5193 7.36 69.436 7.39 69.3293 7.39C69.216 7.39 69.126 7.36 69.0593 7.3C68.9993 7.23333 68.9693 7.14666 68.9693 7.04C68.9693 6.80666 69.106 6.69 69.3793 6.69ZM73.6998 7.31C73.6865 7.31 73.6798 7.29 73.6798 7.25C73.6798 7.21 73.6865 7.19 73.6998 7.19C74.0198 7.19 74.2565 7.17333 74.4098 7.14C74.5698 7.1 74.6798 7.03333 74.7398 6.94C74.7998 6.84666 74.8298 6.7 74.8298 6.5V2.23C74.8298 1.91 74.7498 1.75 74.5898 1.75C74.5032 1.75 74.3832 1.79333 74.2298 1.88C74.0832 1.96 73.8898 2.09 73.6498 2.27L73.6298 2.28C73.6032 2.28 73.5832 2.26333 73.5698 2.23C73.5565 2.19666 73.5632 2.17333 73.5898 2.16L75.1698 0.989997C75.2032 0.969997 75.2265 0.959997 75.2398 0.959997C75.2532 0.959997 75.2632 0.966664 75.2698 0.979997C75.2832 0.993331 75.2898 1.00666 75.2898 1.02V6.5C75.2898 6.70666 75.3165 6.85666 75.3698 6.95C75.4232 7.04333 75.5265 7.10666 75.6798 7.14C75.8332 7.17333 76.0798 7.19 76.4198 7.19C76.4332 7.19 76.4398 7.21 76.4398 7.25C76.4398 7.29 76.4332 7.31 76.4198 7.31C76.1798 7.31 75.9898 7.30666 75.8498 7.3L75.0598 7.29L74.2798 7.3C74.1398 7.30666 73.9465 7.31 73.6998 7.31Z" fill="#706760" fill-opacity="0.66"/>
</svg>
