<svg width="52" height="9" viewBox="0 0 52 9" fill="none" xmlns="http://www.w3.org/2000/svg">
<path d="M0.0259987 8.26801C0.00866535 8.26801 -1.31875e-06 8.24201 -1.31875e-06 8.19001C-1.31875e-06 8.13801 0.00866535 8.11201 0.0259987 8.11201C0.363999 8.11201 0.610999 8.09034 0.766999 8.04701C0.931665 8.00367 1.04433 7.92134 1.105 7.80001C1.16567 7.67001 1.196 7.47501 1.196 7.21501V1.196C1.196 0.936005 1.16567 0.745339 1.105 0.624005C1.04433 0.502672 0.931665 0.420338 0.766999 0.377005C0.610999 0.325005 0.363999 0.299005 0.0259987 0.299005C0.00866535 0.299005 -1.31875e-06 0.273005 -1.31875e-06 0.221005C-1.31875e-06 0.169005 0.00866535 0.143005 0.0259987 0.143005L0.675999 0.156005C1.02267 0.173338 1.30867 0.182005 1.534 0.182005C1.742 0.182005 2.01067 0.173338 2.34 0.156005L2.886 0.143005C2.912 0.143005 2.925 0.169005 2.925 0.221005C2.925 0.273005 2.912 0.299005 2.886 0.299005C2.59133 0.299005 2.37467 0.325005 2.236 0.377005C2.09733 0.420338 2.002 0.502672 1.95 0.624005C1.90667 0.745339 1.885 0.936005 1.885 1.196V7.18901C1.885 7.48367 1.90233 7.67867 1.937 7.77401C1.97167 7.86934 2.054 7.93001 2.184 7.95601C2.314 7.98201 2.58267 7.99501 2.99 7.99501H4.667C5.09167 7.99501 5.37333 7.98201 5.512 7.95601C5.65933 7.93001 5.75033 7.86934 5.785 7.77401C5.81967 7.67867 5.837 7.48367 5.837 7.18901V1.196C5.837 0.936005 5.811 0.745339 5.759 0.624005C5.71567 0.502672 5.62467 0.420338 5.486 0.377005C5.34733 0.325005 5.13067 0.299005 4.836 0.299005C4.81 0.299005 4.797 0.273005 4.797 0.221005C4.797 0.169005 4.81 0.143005 4.836 0.143005L5.382 0.156005C5.71133 0.173338 5.98 0.182005 6.188 0.182005C6.396 0.182005 6.656 0.173338 6.968 0.156005L7.54 0.143005C7.566 0.143005 7.579 0.169005 7.579 0.221005C7.579 0.273005 7.566 0.299005 7.54 0.299005C7.24533 0.299005 7.02433 0.325005 6.877 0.377005C6.73833 0.420338 6.643 0.502672 6.591 0.624005C6.54767 0.745339 6.526 0.936005 6.526 1.196V7.21501C6.526 7.46634 6.565 7.64834 6.643 7.76101C6.721 7.86501 6.84233 7.93001 7.007 7.95601C7.18033 7.98201 7.45767 7.99501 7.839 7.99501H9.308C9.73267 7.99501 10.0143 7.98201 10.153 7.95601C10.3003 7.93001 10.3913 7.86934 10.426 7.77401C10.4607 7.67867 10.478 7.48367 10.478 7.18901V1.196C10.478 0.936005 10.452 0.745339 10.4 0.624005C10.3567 0.502672 10.2657 0.420338 10.127 0.377005C9.98833 0.325005 9.77167 0.299005 9.477 0.299005C9.451 0.299005 9.438 0.273005 9.438 0.221005C9.438 0.169005 9.451 0.143005 9.477 0.143005L10.023 0.156005C10.3523 0.173338 10.621 0.182005 10.829 0.182005C11.0457 0.182005 11.336 0.173338 11.7 0.156005L12.324 0.143005C12.35 0.143005 12.363 0.169005 12.363 0.221005C12.363 0.273005 12.35 0.299005 12.324 0.299005C11.986 0.299005 11.7347 0.325005 11.57 0.377005C11.414 0.420338 11.3057 0.502672 11.245 0.624005C11.1843 0.745339 11.154 0.936005 11.154 1.196V7.21501C11.154 7.47501 11.1843 7.67001 11.245 7.80001C11.3057 7.92134 11.414 8.00367 11.57 8.04701C11.7347 8.09034 11.986 8.11201 12.324 8.11201C12.35 8.11201 12.363 8.13801 12.363 8.19001C12.363 8.24201 12.35 8.26801 12.324 8.26801H0.0259987ZM15.1519 8.38501C14.6232 8.38501 14.1812 8.19434 13.8259 7.81301C13.4706 7.42301 13.2929 6.88134 13.2929 6.18801C13.2929 5.56401 13.4402 5.01801 13.7349 4.55001C14.0296 4.07334 14.3979 3.70934 14.8399 3.45801C15.2906 3.20667 15.7282 3.08101 16.1529 3.08101C16.4562 3.08101 16.7466 3.14167 17.0239 3.26301C17.3012 3.38434 17.5179 3.54034 17.6739 3.73101L17.2579 4.43301C17.2579 4.12101 17.1106 3.86101 16.8159 3.65301C16.5212 3.43634 16.1919 3.32801 15.8279 3.32801C15.2992 3.32801 14.8659 3.56201 14.5279 4.03001C14.1986 4.48934 14.0339 5.08734 14.0339 5.82401C14.0339 6.47401 14.1682 7.00267 14.4369 7.41001C14.7056 7.81734 15.0696 8.02101 15.5289 8.02101C15.8756 8.02101 16.2049 7.90834 16.5169 7.68301C16.8376 7.45767 17.1539 7.16301 17.4659 6.79901L17.5699 6.89001C17.1886 7.34067 16.8072 7.70467 16.4259 7.98201C16.0532 8.25067 15.6286 8.38501 15.1519 8.38501ZM17.6219 8.37201C17.5439 8.37201 17.4616 8.25934 17.3749 8.03401C17.2969 7.80867 17.2579 7.54001 17.2579 7.22801V3.575C17.3966 3.50567 17.4962 3.44501 17.5569 3.393C17.6262 3.34101 17.6869 3.25867 17.7389 3.14601C17.7476 3.13734 17.7692 3.13734 17.8039 3.14601C17.8386 3.14601 17.8559 3.15467 17.8559 3.17201V6.89001C17.8559 7.18467 17.8906 7.40134 17.9599 7.54001C18.0379 7.67001 18.1636 7.73501 18.3369 7.73501C18.4236 7.73501 18.5276 7.71767 18.6489 7.68301C18.7789 7.63967 18.9176 7.59201 19.0649 7.54001H19.0909C19.1256 7.54001 19.1472 7.56167 19.1559 7.60501C19.1646 7.63967 19.1516 7.66134 19.1169 7.67001L17.6739 8.35901L17.6219 8.37201ZM19.4023 8.26801C19.3676 8.26801 19.3503 8.24201 19.3503 8.19001C19.3503 8.13801 19.3676 8.11201 19.4023 8.11201C19.5583 8.11201 19.723 8.00367 19.8963 7.78701C20.0696 7.57034 20.2906 7.15867 20.5593 6.55201L22.0543 3.05501C22.0716 3.02034 22.0976 3.003 22.1323 3.003C22.1756 3.003 22.2016 3.02034 22.2103 3.05501L23.8223 6.48701C24.0563 6.98967 24.234 7.34501 24.3553 7.55301C24.4766 7.76101 24.598 7.90834 24.7193 7.99501C24.8406 8.07301 24.9966 8.11201 25.1873 8.11201C25.2306 8.11201 25.2523 8.13801 25.2523 8.19001C25.2523 8.24201 25.2306 8.26801 25.1873 8.26801C25.0573 8.26801 24.8623 8.25934 24.6023 8.24201C24.3423 8.22467 24.1473 8.21601 24.0173 8.21601C23.9046 8.21601 23.7356 8.22467 23.5103 8.24201C23.2676 8.25934 23.103 8.26801 23.0163 8.26801C22.9816 8.26801 22.9643 8.24201 22.9643 8.19001C22.9643 8.13801 22.9816 8.11201 23.0163 8.11201C23.1636 8.11201 23.285 8.07734 23.3803 8.00801C23.4843 7.93001 23.5363 7.81301 23.5363 7.65701C23.5363 7.51834 23.493 7.35801 23.4063 7.17601L21.8853 3.93901L22.1193 3.69201L20.8583 6.66901C20.7023 7.03301 20.6243 7.32767 20.6243 7.55301C20.6243 7.92567 20.828 8.11201 21.2353 8.11201C21.2786 8.11201 21.3003 8.13801 21.3003 8.19001C21.3003 8.24201 21.2786 8.26801 21.2353 8.26801C21.14 8.26801 21.0143 8.25934 20.8583 8.24201C20.6676 8.22467 20.4943 8.21601 20.3383 8.21601C20.165 8.21601 19.9916 8.22467 19.8183 8.24201C19.6623 8.25934 19.5236 8.26801 19.4023 8.26801ZM27.8198 8.42401C27.3258 8.42401 26.9055 8.30701 26.5588 8.07301C26.2121 7.83901 25.9478 7.53567 25.7658 7.16301C25.5925 6.78167 25.5058 6.37001 25.5058 5.92801C25.5058 5.41667 25.6271 4.94867 25.8698 4.52401C26.1125 4.09067 26.4375 3.75267 26.8448 3.51001C27.2608 3.25867 27.7115 3.13301 28.1968 3.13301C28.6821 3.13301 29.0461 3.26734 29.2888 3.53601C29.5401 3.79601 29.6658 4.15567 29.6658 4.61501C29.6658 4.73634 29.6528 4.82301 29.6268 4.87501C29.6095 4.91834 29.5705 4.94001 29.5098 4.94001H28.8988C28.9075 4.87934 28.9118 4.79701 28.9118 4.69301C28.9118 4.25967 28.8078 3.93467 28.5998 3.71801C28.4005 3.50134 28.1275 3.393 27.7808 3.393C27.2955 3.393 26.9185 3.57501 26.6498 3.93901C26.3811 4.30301 26.2468 4.81001 26.2468 5.46001C26.2468 6.21401 26.4245 6.82934 26.7798 7.30601C27.1351 7.77401 27.6335 8.00801 28.2748 8.00801C28.5435 8.00801 28.7731 7.97334 28.9638 7.90401C29.1545 7.82601 29.3625 7.71334 29.5878 7.56601H29.6008C29.6268 7.56601 29.6485 7.58334 29.6658 7.61801C29.6918 7.64401 29.6961 7.67001 29.6788 7.69601C29.1068 8.18134 28.4871 8.42401 27.8198 8.42401ZM26.0648 4.79701L29.0288 4.74501V4.94001L26.0778 4.95301L26.0648 4.79701ZM34.8742 0.442005L35.1602 0.468005V6.91601C35.1602 7.35801 35.2339 7.67001 35.3812 7.85201C35.5286 8.02534 35.7842 8.11201 36.1482 8.11201C36.1742 8.11201 36.1872 8.13801 36.1872 8.19001C36.1872 8.24201 36.1742 8.26801 36.1482 8.26801C35.9402 8.26801 35.7799 8.26367 35.6672 8.25501L35.0432 8.24201L34.4062 8.25501C34.2936 8.26367 34.1246 8.26801 33.8992 8.26801C33.8819 8.26801 33.8732 8.24201 33.8732 8.19001C33.8732 8.13801 33.8819 8.11201 33.8992 8.11201C34.2719 8.11201 34.5276 8.02534 34.6662 7.85201C34.8049 7.67867 34.8742 7.36667 34.8742 6.91601V0.442005ZM41.4132 8.41101C41.4132 8.42834 41.3916 8.44134 41.3482 8.45001C41.3049 8.45867 41.2746 8.45434 41.2572 8.43701L35.3812 1.209C35.1039 0.871005 34.8482 0.637005 34.6142 0.507005C34.3889 0.368338 34.1636 0.299005 33.9382 0.299005C33.9122 0.299005 33.8992 0.273005 33.8992 0.221005C33.8992 0.169005 33.9122 0.143005 33.9382 0.143005L34.4062 0.156005C34.5016 0.164672 34.6359 0.169005 34.8092 0.169005C34.9566 0.169005 35.0779 0.164672 35.1732 0.156005C35.2686 0.147339 35.3422 0.143005 35.3942 0.143005C35.4549 0.143005 35.5026 0.160338 35.5372 0.195005C35.5806 0.221005 35.6282 0.281672 35.6802 0.377005C35.7756 0.533005 35.8796 0.680338 35.9922 0.819005L41.3092 7.42301L41.4132 8.41101ZM41.4132 8.41101L41.1272 8.00801V1.508C41.1272 1.066 41.0579 0.754005 40.9192 0.572005C40.7806 0.390005 40.5292 0.299005 40.1652 0.299005C40.1479 0.299005 40.1392 0.273005 40.1392 0.221005C40.1392 0.169005 40.1479 0.143005 40.1652 0.143005L40.6592 0.156005C40.9192 0.173338 41.1272 0.182005 41.2832 0.182005C41.4306 0.182005 41.6429 0.173338 41.9202 0.156005L42.4272 0.143005C42.4532 0.143005 42.4662 0.169005 42.4662 0.221005C42.4662 0.273005 42.4532 0.299005 42.4272 0.299005C42.0546 0.299005 41.7902 0.390005 41.6342 0.572005C41.4869 0.754005 41.4132 1.066 41.4132 1.508V8.41101ZM43.0772 5.59001C43.0599 5.59001 43.0426 5.57267 43.0252 5.53801C43.0166 5.50334 43.0122 5.46434 43.0122 5.42101C43.0122 5.38634 43.0166 5.35167 43.0252 5.31701C43.0426 5.28234 43.0556 5.26501 43.0642 5.26501H46.2232C46.2406 5.26501 46.2536 5.28234 46.2622 5.31701C46.2796 5.35167 46.2882 5.38634 46.2882 5.42101C46.2882 5.53367 46.2666 5.59001 46.2232 5.59001H43.0772ZM44.5852 4.66701C44.0912 4.66701 43.6926 4.49367 43.3892 4.14701C43.0859 3.79167 42.9342 3.36267 42.9342 2.86001C42.9342 2.48734 43.0252 2.17534 43.2072 1.924C43.3892 1.66401 43.6189 1.46901 43.8962 1.339C44.1736 1.209 44.4552 1.144 44.7412 1.144C45.0706 1.144 45.3566 1.22634 45.5992 1.391C45.8506 1.55567 46.0412 1.77234 46.1712 2.041C46.3099 2.30967 46.3792 2.59567 46.3792 2.89901C46.3792 3.21967 46.2969 3.51867 46.1322 3.79601C45.9676 4.06467 45.7466 4.27701 45.4692 4.43301C45.2006 4.58901 44.9059 4.66701 44.5852 4.66701ZM44.7802 4.47201C45.1182 4.47201 45.3869 4.35501 45.5862 4.12101C45.7942 3.87834 45.8982 3.54901 45.8982 3.13301C45.8982 2.63034 45.7639 2.21001 45.4952 1.87201C45.2352 1.52534 44.9016 1.35201 44.4942 1.35201C44.1476 1.35201 43.8789 1.46467 43.6882 1.69C43.5062 1.90667 43.4152 2.21434 43.4152 2.613C43.4152 3.11567 43.5452 3.55334 43.8052 3.92601C44.0652 4.29001 44.3902 4.47201 44.7802 4.47201ZM49.2697 8.42401C48.4724 8.42401 47.7747 8.09901 47.1767 7.44901L47.1637 7.42301C47.1637 7.38834 47.181 7.36234 47.2157 7.34501C47.259 7.31901 47.2894 7.31901 47.3067 7.34501C47.532 7.59634 47.8094 7.78701 48.1387 7.91701C48.4767 8.04701 48.8147 8.11201 49.1527 8.11201C49.742 8.11201 50.184 7.92567 50.4787 7.55301C50.7734 7.17167 50.9207 6.68201 50.9207 6.08401C50.9207 5.45134 50.7344 4.95301 50.3617 4.58901C49.989 4.21634 49.3564 4.03001 48.4637 4.03001C48.4464 4.03001 48.4334 4.02134 48.4247 4.00401C48.416 3.97801 48.4117 3.94767 48.4117 3.91301C48.4117 3.88701 48.416 3.86534 48.4247 3.84801C48.442 3.82201 48.455 3.80901 48.4637 3.80901C49.2524 3.80901 49.8114 3.65734 50.1407 3.35401C50.4787 3.05067 50.6477 2.63034 50.6477 2.09301C50.6477 1.58167 50.5134 1.183 50.2447 0.897005C49.976 0.611005 49.599 0.468005 49.1137 0.468005C48.7324 0.468005 48.377 0.559005 48.0477 0.741005C47.7184 0.914338 47.4757 1.17434 47.3197 1.521C47.3197 1.52967 47.311 1.53401 47.2937 1.53401C47.2677 1.53401 47.2374 1.52534 47.2027 1.508C47.1767 1.49067 47.168 1.47334 47.1767 1.456C47.376 0.988005 47.6664 0.628338 48.0477 0.377005C48.4377 0.125671 48.8884 4.88758e-06 49.3997 4.88758e-06C50.015 4.88758e-06 50.4917 0.173338 50.8297 0.520005C51.1677 0.866672 51.3367 1.29134 51.3367 1.79401C51.3367 2.29667 51.1677 2.75601 50.8297 3.17201C50.5004 3.57934 50.0584 3.83934 49.5037 3.95201L49.5427 3.84801C49.9934 3.82201 50.379 3.90001 50.6997 4.08201C51.0204 4.26401 51.263 4.52401 51.4277 4.86201C51.601 5.20001 51.6877 5.57701 51.6877 5.99301C51.6877 6.46967 51.5837 6.89434 51.3757 7.26701C51.1677 7.63101 50.8817 7.91701 50.5177 8.12501C50.1537 8.32434 49.7377 8.42401 49.2697 8.42401Z" fill="#706760"/>
</svg>
